G75*
%MOIN*%
%OFA0B0*%
%FSLAX25Y25*%
%IPPOS*%
%LPD*%
%AMOC8*
5,1,8,0,0,1.08239X$1,22.5*
%
%ADD10C,0.00800*%
%ADD11C,0.00000*%
%ADD12OC8,0.05200*%
%ADD13C,0.05200*%
%ADD14C,0.06000*%
%ADD15C,0.05600*%
%ADD16R,0.05543X0.05543*%
%ADD17C,0.05543*%
%ADD18C,0.04400*%
%ADD19C,0.01600*%
%ADD20C,0.05000*%
%ADD21R,0.03175X0.03175*%
D10*
X0036102Y0001400D02*
X0278102Y0001400D01*
X0278102Y0284900D01*
X0036102Y0284900D01*
X0036102Y0001400D01*
D11*
X0043149Y0129900D02*
X0043151Y0130008D01*
X0043157Y0130117D01*
X0043167Y0130225D01*
X0043181Y0130332D01*
X0043199Y0130439D01*
X0043220Y0130546D01*
X0043246Y0130651D01*
X0043276Y0130756D01*
X0043309Y0130859D01*
X0043346Y0130961D01*
X0043387Y0131061D01*
X0043431Y0131160D01*
X0043480Y0131258D01*
X0043531Y0131353D01*
X0043586Y0131446D01*
X0043645Y0131538D01*
X0043707Y0131627D01*
X0043772Y0131714D01*
X0043840Y0131798D01*
X0043911Y0131880D01*
X0043985Y0131959D01*
X0044062Y0132035D01*
X0044142Y0132109D01*
X0044225Y0132179D01*
X0044310Y0132247D01*
X0044397Y0132311D01*
X0044487Y0132372D01*
X0044579Y0132430D01*
X0044673Y0132484D01*
X0044769Y0132535D01*
X0044866Y0132582D01*
X0044966Y0132626D01*
X0045067Y0132666D01*
X0045169Y0132702D01*
X0045272Y0132734D01*
X0045377Y0132763D01*
X0045483Y0132787D01*
X0045589Y0132808D01*
X0045696Y0132825D01*
X0045804Y0132838D01*
X0045912Y0132847D01*
X0046021Y0132852D01*
X0046129Y0132853D01*
X0046238Y0132850D01*
X0046346Y0132843D01*
X0046454Y0132832D01*
X0046561Y0132817D01*
X0046668Y0132798D01*
X0046774Y0132775D01*
X0046879Y0132749D01*
X0046984Y0132718D01*
X0047086Y0132684D01*
X0047188Y0132646D01*
X0047288Y0132604D01*
X0047387Y0132559D01*
X0047484Y0132510D01*
X0047578Y0132457D01*
X0047671Y0132401D01*
X0047762Y0132342D01*
X0047851Y0132279D01*
X0047937Y0132214D01*
X0048021Y0132145D01*
X0048102Y0132073D01*
X0048180Y0131998D01*
X0048256Y0131920D01*
X0048329Y0131839D01*
X0048399Y0131756D01*
X0048465Y0131671D01*
X0048529Y0131583D01*
X0048589Y0131492D01*
X0048646Y0131400D01*
X0048699Y0131305D01*
X0048749Y0131209D01*
X0048795Y0131111D01*
X0048838Y0131011D01*
X0048877Y0130910D01*
X0048912Y0130807D01*
X0048944Y0130704D01*
X0048971Y0130599D01*
X0048995Y0130493D01*
X0049015Y0130386D01*
X0049031Y0130279D01*
X0049043Y0130171D01*
X0049051Y0130063D01*
X0049055Y0129954D01*
X0049055Y0129846D01*
X0049051Y0129737D01*
X0049043Y0129629D01*
X0049031Y0129521D01*
X0049015Y0129414D01*
X0048995Y0129307D01*
X0048971Y0129201D01*
X0048944Y0129096D01*
X0048912Y0128993D01*
X0048877Y0128890D01*
X0048838Y0128789D01*
X0048795Y0128689D01*
X0048749Y0128591D01*
X0048699Y0128495D01*
X0048646Y0128400D01*
X0048589Y0128308D01*
X0048529Y0128217D01*
X0048465Y0128129D01*
X0048399Y0128044D01*
X0048329Y0127961D01*
X0048256Y0127880D01*
X0048180Y0127802D01*
X0048102Y0127727D01*
X0048021Y0127655D01*
X0047937Y0127586D01*
X0047851Y0127521D01*
X0047762Y0127458D01*
X0047671Y0127399D01*
X0047579Y0127343D01*
X0047484Y0127290D01*
X0047387Y0127241D01*
X0047288Y0127196D01*
X0047188Y0127154D01*
X0047086Y0127116D01*
X0046984Y0127082D01*
X0046879Y0127051D01*
X0046774Y0127025D01*
X0046668Y0127002D01*
X0046561Y0126983D01*
X0046454Y0126968D01*
X0046346Y0126957D01*
X0046238Y0126950D01*
X0046129Y0126947D01*
X0046021Y0126948D01*
X0045912Y0126953D01*
X0045804Y0126962D01*
X0045696Y0126975D01*
X0045589Y0126992D01*
X0045483Y0127013D01*
X0045377Y0127037D01*
X0045272Y0127066D01*
X0045169Y0127098D01*
X0045067Y0127134D01*
X0044966Y0127174D01*
X0044866Y0127218D01*
X0044769Y0127265D01*
X0044673Y0127316D01*
X0044579Y0127370D01*
X0044487Y0127428D01*
X0044397Y0127489D01*
X0044310Y0127553D01*
X0044225Y0127621D01*
X0044142Y0127691D01*
X0044062Y0127765D01*
X0043985Y0127841D01*
X0043911Y0127920D01*
X0043840Y0128002D01*
X0043772Y0128086D01*
X0043707Y0128173D01*
X0043645Y0128262D01*
X0043586Y0128354D01*
X0043531Y0128447D01*
X0043480Y0128542D01*
X0043431Y0128640D01*
X0043387Y0128739D01*
X0043346Y0128839D01*
X0043309Y0128941D01*
X0043276Y0129044D01*
X0043246Y0129149D01*
X0043220Y0129254D01*
X0043199Y0129361D01*
X0043181Y0129468D01*
X0043167Y0129575D01*
X0043157Y0129683D01*
X0043151Y0129792D01*
X0043149Y0129900D01*
X0079704Y0245018D02*
X0079706Y0245178D01*
X0079712Y0245337D01*
X0079722Y0245496D01*
X0079736Y0245655D01*
X0079754Y0245814D01*
X0079775Y0245972D01*
X0079801Y0246129D01*
X0079831Y0246286D01*
X0079864Y0246442D01*
X0079902Y0246597D01*
X0079943Y0246751D01*
X0079988Y0246904D01*
X0080037Y0247056D01*
X0080090Y0247206D01*
X0080146Y0247355D01*
X0080206Y0247503D01*
X0080270Y0247649D01*
X0080338Y0247794D01*
X0080409Y0247937D01*
X0080483Y0248078D01*
X0080561Y0248217D01*
X0080643Y0248354D01*
X0080728Y0248489D01*
X0080816Y0248622D01*
X0080907Y0248753D01*
X0081002Y0248881D01*
X0081100Y0249007D01*
X0081201Y0249131D01*
X0081305Y0249251D01*
X0081412Y0249370D01*
X0081522Y0249485D01*
X0081635Y0249598D01*
X0081750Y0249708D01*
X0081869Y0249815D01*
X0081989Y0249919D01*
X0082113Y0250020D01*
X0082239Y0250118D01*
X0082367Y0250213D01*
X0082498Y0250304D01*
X0082631Y0250392D01*
X0082766Y0250477D01*
X0082903Y0250559D01*
X0083042Y0250637D01*
X0083183Y0250711D01*
X0083326Y0250782D01*
X0083471Y0250850D01*
X0083617Y0250914D01*
X0083765Y0250974D01*
X0083914Y0251030D01*
X0084064Y0251083D01*
X0084216Y0251132D01*
X0084369Y0251177D01*
X0084523Y0251218D01*
X0084678Y0251256D01*
X0084834Y0251289D01*
X0084991Y0251319D01*
X0085148Y0251345D01*
X0085306Y0251366D01*
X0085465Y0251384D01*
X0085624Y0251398D01*
X0085783Y0251408D01*
X0085942Y0251414D01*
X0086102Y0251416D01*
X0086262Y0251414D01*
X0086421Y0251408D01*
X0086580Y0251398D01*
X0086739Y0251384D01*
X0086898Y0251366D01*
X0087056Y0251345D01*
X0087213Y0251319D01*
X0087370Y0251289D01*
X0087526Y0251256D01*
X0087681Y0251218D01*
X0087835Y0251177D01*
X0087988Y0251132D01*
X0088140Y0251083D01*
X0088290Y0251030D01*
X0088439Y0250974D01*
X0088587Y0250914D01*
X0088733Y0250850D01*
X0088878Y0250782D01*
X0089021Y0250711D01*
X0089162Y0250637D01*
X0089301Y0250559D01*
X0089438Y0250477D01*
X0089573Y0250392D01*
X0089706Y0250304D01*
X0089837Y0250213D01*
X0089965Y0250118D01*
X0090091Y0250020D01*
X0090215Y0249919D01*
X0090335Y0249815D01*
X0090454Y0249708D01*
X0090569Y0249598D01*
X0090682Y0249485D01*
X0090792Y0249370D01*
X0090899Y0249251D01*
X0091003Y0249131D01*
X0091104Y0249007D01*
X0091202Y0248881D01*
X0091297Y0248753D01*
X0091388Y0248622D01*
X0091476Y0248489D01*
X0091561Y0248354D01*
X0091643Y0248217D01*
X0091721Y0248078D01*
X0091795Y0247937D01*
X0091866Y0247794D01*
X0091934Y0247649D01*
X0091998Y0247503D01*
X0092058Y0247355D01*
X0092114Y0247206D01*
X0092167Y0247056D01*
X0092216Y0246904D01*
X0092261Y0246751D01*
X0092302Y0246597D01*
X0092340Y0246442D01*
X0092373Y0246286D01*
X0092403Y0246129D01*
X0092429Y0245972D01*
X0092450Y0245814D01*
X0092468Y0245655D01*
X0092482Y0245496D01*
X0092492Y0245337D01*
X0092498Y0245178D01*
X0092500Y0245018D01*
X0092498Y0244858D01*
X0092492Y0244699D01*
X0092482Y0244540D01*
X0092468Y0244381D01*
X0092450Y0244222D01*
X0092429Y0244064D01*
X0092403Y0243907D01*
X0092373Y0243750D01*
X0092340Y0243594D01*
X0092302Y0243439D01*
X0092261Y0243285D01*
X0092216Y0243132D01*
X0092167Y0242980D01*
X0092114Y0242830D01*
X0092058Y0242681D01*
X0091998Y0242533D01*
X0091934Y0242387D01*
X0091866Y0242242D01*
X0091795Y0242099D01*
X0091721Y0241958D01*
X0091643Y0241819D01*
X0091561Y0241682D01*
X0091476Y0241547D01*
X0091388Y0241414D01*
X0091297Y0241283D01*
X0091202Y0241155D01*
X0091104Y0241029D01*
X0091003Y0240905D01*
X0090899Y0240785D01*
X0090792Y0240666D01*
X0090682Y0240551D01*
X0090569Y0240438D01*
X0090454Y0240328D01*
X0090335Y0240221D01*
X0090215Y0240117D01*
X0090091Y0240016D01*
X0089965Y0239918D01*
X0089837Y0239823D01*
X0089706Y0239732D01*
X0089573Y0239644D01*
X0089438Y0239559D01*
X0089301Y0239477D01*
X0089162Y0239399D01*
X0089021Y0239325D01*
X0088878Y0239254D01*
X0088733Y0239186D01*
X0088587Y0239122D01*
X0088439Y0239062D01*
X0088290Y0239006D01*
X0088140Y0238953D01*
X0087988Y0238904D01*
X0087835Y0238859D01*
X0087681Y0238818D01*
X0087526Y0238780D01*
X0087370Y0238747D01*
X0087213Y0238717D01*
X0087056Y0238691D01*
X0086898Y0238670D01*
X0086739Y0238652D01*
X0086580Y0238638D01*
X0086421Y0238628D01*
X0086262Y0238622D01*
X0086102Y0238620D01*
X0085942Y0238622D01*
X0085783Y0238628D01*
X0085624Y0238638D01*
X0085465Y0238652D01*
X0085306Y0238670D01*
X0085148Y0238691D01*
X0084991Y0238717D01*
X0084834Y0238747D01*
X0084678Y0238780D01*
X0084523Y0238818D01*
X0084369Y0238859D01*
X0084216Y0238904D01*
X0084064Y0238953D01*
X0083914Y0239006D01*
X0083765Y0239062D01*
X0083617Y0239122D01*
X0083471Y0239186D01*
X0083326Y0239254D01*
X0083183Y0239325D01*
X0083042Y0239399D01*
X0082903Y0239477D01*
X0082766Y0239559D01*
X0082631Y0239644D01*
X0082498Y0239732D01*
X0082367Y0239823D01*
X0082239Y0239918D01*
X0082113Y0240016D01*
X0081989Y0240117D01*
X0081869Y0240221D01*
X0081750Y0240328D01*
X0081635Y0240438D01*
X0081522Y0240551D01*
X0081412Y0240666D01*
X0081305Y0240785D01*
X0081201Y0240905D01*
X0081100Y0241029D01*
X0081002Y0241155D01*
X0080907Y0241283D01*
X0080816Y0241414D01*
X0080728Y0241547D01*
X0080643Y0241682D01*
X0080561Y0241819D01*
X0080483Y0241958D01*
X0080409Y0242099D01*
X0080338Y0242242D01*
X0080270Y0242387D01*
X0080206Y0242533D01*
X0080146Y0242681D01*
X0080090Y0242830D01*
X0080037Y0242980D01*
X0079988Y0243132D01*
X0079943Y0243285D01*
X0079902Y0243439D01*
X0079864Y0243594D01*
X0079831Y0243750D01*
X0079801Y0243907D01*
X0079775Y0244064D01*
X0079754Y0244222D01*
X0079736Y0244381D01*
X0079722Y0244540D01*
X0079712Y0244699D01*
X0079706Y0244858D01*
X0079704Y0245018D01*
X0072205Y0257026D02*
X0072207Y0257141D01*
X0072213Y0257257D01*
X0072223Y0257372D01*
X0072237Y0257487D01*
X0072255Y0257601D01*
X0072277Y0257714D01*
X0072302Y0257827D01*
X0072332Y0257938D01*
X0072365Y0258049D01*
X0072402Y0258158D01*
X0072443Y0258266D01*
X0072488Y0258373D01*
X0072536Y0258478D01*
X0072588Y0258581D01*
X0072644Y0258682D01*
X0072703Y0258782D01*
X0072765Y0258879D01*
X0072831Y0258974D01*
X0072899Y0259067D01*
X0072971Y0259157D01*
X0073046Y0259245D01*
X0073125Y0259330D01*
X0073206Y0259412D01*
X0073289Y0259492D01*
X0073376Y0259568D01*
X0073465Y0259642D01*
X0073556Y0259712D01*
X0073650Y0259780D01*
X0073746Y0259844D01*
X0073845Y0259904D01*
X0073945Y0259961D01*
X0074047Y0260015D01*
X0074151Y0260065D01*
X0074257Y0260112D01*
X0074364Y0260155D01*
X0074473Y0260194D01*
X0074583Y0260229D01*
X0074694Y0260260D01*
X0074806Y0260288D01*
X0074919Y0260312D01*
X0075033Y0260332D01*
X0075148Y0260348D01*
X0075263Y0260360D01*
X0075378Y0260368D01*
X0075493Y0260372D01*
X0075609Y0260372D01*
X0075724Y0260368D01*
X0075839Y0260360D01*
X0075954Y0260348D01*
X0076069Y0260332D01*
X0076183Y0260312D01*
X0076296Y0260288D01*
X0076408Y0260260D01*
X0076519Y0260229D01*
X0076629Y0260194D01*
X0076738Y0260155D01*
X0076845Y0260112D01*
X0076951Y0260065D01*
X0077055Y0260015D01*
X0077157Y0259961D01*
X0077257Y0259904D01*
X0077356Y0259844D01*
X0077452Y0259780D01*
X0077546Y0259712D01*
X0077637Y0259642D01*
X0077726Y0259568D01*
X0077813Y0259492D01*
X0077896Y0259412D01*
X0077977Y0259330D01*
X0078056Y0259245D01*
X0078131Y0259157D01*
X0078203Y0259067D01*
X0078271Y0258974D01*
X0078337Y0258879D01*
X0078399Y0258782D01*
X0078458Y0258682D01*
X0078514Y0258581D01*
X0078566Y0258478D01*
X0078614Y0258373D01*
X0078659Y0258266D01*
X0078700Y0258158D01*
X0078737Y0258049D01*
X0078770Y0257938D01*
X0078800Y0257827D01*
X0078825Y0257714D01*
X0078847Y0257601D01*
X0078865Y0257487D01*
X0078879Y0257372D01*
X0078889Y0257257D01*
X0078895Y0257141D01*
X0078897Y0257026D01*
X0078895Y0256911D01*
X0078889Y0256795D01*
X0078879Y0256680D01*
X0078865Y0256565D01*
X0078847Y0256451D01*
X0078825Y0256338D01*
X0078800Y0256225D01*
X0078770Y0256114D01*
X0078737Y0256003D01*
X0078700Y0255894D01*
X0078659Y0255786D01*
X0078614Y0255679D01*
X0078566Y0255574D01*
X0078514Y0255471D01*
X0078458Y0255370D01*
X0078399Y0255270D01*
X0078337Y0255173D01*
X0078271Y0255078D01*
X0078203Y0254985D01*
X0078131Y0254895D01*
X0078056Y0254807D01*
X0077977Y0254722D01*
X0077896Y0254640D01*
X0077813Y0254560D01*
X0077726Y0254484D01*
X0077637Y0254410D01*
X0077546Y0254340D01*
X0077452Y0254272D01*
X0077356Y0254208D01*
X0077257Y0254148D01*
X0077157Y0254091D01*
X0077055Y0254037D01*
X0076951Y0253987D01*
X0076845Y0253940D01*
X0076738Y0253897D01*
X0076629Y0253858D01*
X0076519Y0253823D01*
X0076408Y0253792D01*
X0076296Y0253764D01*
X0076183Y0253740D01*
X0076069Y0253720D01*
X0075954Y0253704D01*
X0075839Y0253692D01*
X0075724Y0253684D01*
X0075609Y0253680D01*
X0075493Y0253680D01*
X0075378Y0253684D01*
X0075263Y0253692D01*
X0075148Y0253704D01*
X0075033Y0253720D01*
X0074919Y0253740D01*
X0074806Y0253764D01*
X0074694Y0253792D01*
X0074583Y0253823D01*
X0074473Y0253858D01*
X0074364Y0253897D01*
X0074257Y0253940D01*
X0074151Y0253987D01*
X0074047Y0254037D01*
X0073945Y0254091D01*
X0073845Y0254148D01*
X0073746Y0254208D01*
X0073650Y0254272D01*
X0073556Y0254340D01*
X0073465Y0254410D01*
X0073376Y0254484D01*
X0073289Y0254560D01*
X0073206Y0254640D01*
X0073125Y0254722D01*
X0073046Y0254807D01*
X0072971Y0254895D01*
X0072899Y0254985D01*
X0072831Y0255078D01*
X0072765Y0255173D01*
X0072703Y0255270D01*
X0072644Y0255370D01*
X0072588Y0255471D01*
X0072536Y0255574D01*
X0072488Y0255679D01*
X0072443Y0255786D01*
X0072402Y0255894D01*
X0072365Y0256003D01*
X0072332Y0256114D01*
X0072302Y0256225D01*
X0072277Y0256338D01*
X0072255Y0256451D01*
X0072237Y0256565D01*
X0072223Y0256680D01*
X0072213Y0256795D01*
X0072207Y0256911D01*
X0072205Y0257026D01*
X0179704Y0245018D02*
X0179706Y0245178D01*
X0179712Y0245337D01*
X0179722Y0245496D01*
X0179736Y0245655D01*
X0179754Y0245814D01*
X0179775Y0245972D01*
X0179801Y0246129D01*
X0179831Y0246286D01*
X0179864Y0246442D01*
X0179902Y0246597D01*
X0179943Y0246751D01*
X0179988Y0246904D01*
X0180037Y0247056D01*
X0180090Y0247206D01*
X0180146Y0247355D01*
X0180206Y0247503D01*
X0180270Y0247649D01*
X0180338Y0247794D01*
X0180409Y0247937D01*
X0180483Y0248078D01*
X0180561Y0248217D01*
X0180643Y0248354D01*
X0180728Y0248489D01*
X0180816Y0248622D01*
X0180907Y0248753D01*
X0181002Y0248881D01*
X0181100Y0249007D01*
X0181201Y0249131D01*
X0181305Y0249251D01*
X0181412Y0249370D01*
X0181522Y0249485D01*
X0181635Y0249598D01*
X0181750Y0249708D01*
X0181869Y0249815D01*
X0181989Y0249919D01*
X0182113Y0250020D01*
X0182239Y0250118D01*
X0182367Y0250213D01*
X0182498Y0250304D01*
X0182631Y0250392D01*
X0182766Y0250477D01*
X0182903Y0250559D01*
X0183042Y0250637D01*
X0183183Y0250711D01*
X0183326Y0250782D01*
X0183471Y0250850D01*
X0183617Y0250914D01*
X0183765Y0250974D01*
X0183914Y0251030D01*
X0184064Y0251083D01*
X0184216Y0251132D01*
X0184369Y0251177D01*
X0184523Y0251218D01*
X0184678Y0251256D01*
X0184834Y0251289D01*
X0184991Y0251319D01*
X0185148Y0251345D01*
X0185306Y0251366D01*
X0185465Y0251384D01*
X0185624Y0251398D01*
X0185783Y0251408D01*
X0185942Y0251414D01*
X0186102Y0251416D01*
X0186262Y0251414D01*
X0186421Y0251408D01*
X0186580Y0251398D01*
X0186739Y0251384D01*
X0186898Y0251366D01*
X0187056Y0251345D01*
X0187213Y0251319D01*
X0187370Y0251289D01*
X0187526Y0251256D01*
X0187681Y0251218D01*
X0187835Y0251177D01*
X0187988Y0251132D01*
X0188140Y0251083D01*
X0188290Y0251030D01*
X0188439Y0250974D01*
X0188587Y0250914D01*
X0188733Y0250850D01*
X0188878Y0250782D01*
X0189021Y0250711D01*
X0189162Y0250637D01*
X0189301Y0250559D01*
X0189438Y0250477D01*
X0189573Y0250392D01*
X0189706Y0250304D01*
X0189837Y0250213D01*
X0189965Y0250118D01*
X0190091Y0250020D01*
X0190215Y0249919D01*
X0190335Y0249815D01*
X0190454Y0249708D01*
X0190569Y0249598D01*
X0190682Y0249485D01*
X0190792Y0249370D01*
X0190899Y0249251D01*
X0191003Y0249131D01*
X0191104Y0249007D01*
X0191202Y0248881D01*
X0191297Y0248753D01*
X0191388Y0248622D01*
X0191476Y0248489D01*
X0191561Y0248354D01*
X0191643Y0248217D01*
X0191721Y0248078D01*
X0191795Y0247937D01*
X0191866Y0247794D01*
X0191934Y0247649D01*
X0191998Y0247503D01*
X0192058Y0247355D01*
X0192114Y0247206D01*
X0192167Y0247056D01*
X0192216Y0246904D01*
X0192261Y0246751D01*
X0192302Y0246597D01*
X0192340Y0246442D01*
X0192373Y0246286D01*
X0192403Y0246129D01*
X0192429Y0245972D01*
X0192450Y0245814D01*
X0192468Y0245655D01*
X0192482Y0245496D01*
X0192492Y0245337D01*
X0192498Y0245178D01*
X0192500Y0245018D01*
X0192498Y0244858D01*
X0192492Y0244699D01*
X0192482Y0244540D01*
X0192468Y0244381D01*
X0192450Y0244222D01*
X0192429Y0244064D01*
X0192403Y0243907D01*
X0192373Y0243750D01*
X0192340Y0243594D01*
X0192302Y0243439D01*
X0192261Y0243285D01*
X0192216Y0243132D01*
X0192167Y0242980D01*
X0192114Y0242830D01*
X0192058Y0242681D01*
X0191998Y0242533D01*
X0191934Y0242387D01*
X0191866Y0242242D01*
X0191795Y0242099D01*
X0191721Y0241958D01*
X0191643Y0241819D01*
X0191561Y0241682D01*
X0191476Y0241547D01*
X0191388Y0241414D01*
X0191297Y0241283D01*
X0191202Y0241155D01*
X0191104Y0241029D01*
X0191003Y0240905D01*
X0190899Y0240785D01*
X0190792Y0240666D01*
X0190682Y0240551D01*
X0190569Y0240438D01*
X0190454Y0240328D01*
X0190335Y0240221D01*
X0190215Y0240117D01*
X0190091Y0240016D01*
X0189965Y0239918D01*
X0189837Y0239823D01*
X0189706Y0239732D01*
X0189573Y0239644D01*
X0189438Y0239559D01*
X0189301Y0239477D01*
X0189162Y0239399D01*
X0189021Y0239325D01*
X0188878Y0239254D01*
X0188733Y0239186D01*
X0188587Y0239122D01*
X0188439Y0239062D01*
X0188290Y0239006D01*
X0188140Y0238953D01*
X0187988Y0238904D01*
X0187835Y0238859D01*
X0187681Y0238818D01*
X0187526Y0238780D01*
X0187370Y0238747D01*
X0187213Y0238717D01*
X0187056Y0238691D01*
X0186898Y0238670D01*
X0186739Y0238652D01*
X0186580Y0238638D01*
X0186421Y0238628D01*
X0186262Y0238622D01*
X0186102Y0238620D01*
X0185942Y0238622D01*
X0185783Y0238628D01*
X0185624Y0238638D01*
X0185465Y0238652D01*
X0185306Y0238670D01*
X0185148Y0238691D01*
X0184991Y0238717D01*
X0184834Y0238747D01*
X0184678Y0238780D01*
X0184523Y0238818D01*
X0184369Y0238859D01*
X0184216Y0238904D01*
X0184064Y0238953D01*
X0183914Y0239006D01*
X0183765Y0239062D01*
X0183617Y0239122D01*
X0183471Y0239186D01*
X0183326Y0239254D01*
X0183183Y0239325D01*
X0183042Y0239399D01*
X0182903Y0239477D01*
X0182766Y0239559D01*
X0182631Y0239644D01*
X0182498Y0239732D01*
X0182367Y0239823D01*
X0182239Y0239918D01*
X0182113Y0240016D01*
X0181989Y0240117D01*
X0181869Y0240221D01*
X0181750Y0240328D01*
X0181635Y0240438D01*
X0181522Y0240551D01*
X0181412Y0240666D01*
X0181305Y0240785D01*
X0181201Y0240905D01*
X0181100Y0241029D01*
X0181002Y0241155D01*
X0180907Y0241283D01*
X0180816Y0241414D01*
X0180728Y0241547D01*
X0180643Y0241682D01*
X0180561Y0241819D01*
X0180483Y0241958D01*
X0180409Y0242099D01*
X0180338Y0242242D01*
X0180270Y0242387D01*
X0180206Y0242533D01*
X0180146Y0242681D01*
X0180090Y0242830D01*
X0180037Y0242980D01*
X0179988Y0243132D01*
X0179943Y0243285D01*
X0179902Y0243439D01*
X0179864Y0243594D01*
X0179831Y0243750D01*
X0179801Y0243907D01*
X0179775Y0244064D01*
X0179754Y0244222D01*
X0179736Y0244381D01*
X0179722Y0244540D01*
X0179712Y0244699D01*
X0179706Y0244858D01*
X0179704Y0245018D01*
X0193307Y0257026D02*
X0193309Y0257141D01*
X0193315Y0257257D01*
X0193325Y0257372D01*
X0193339Y0257487D01*
X0193357Y0257601D01*
X0193379Y0257714D01*
X0193404Y0257827D01*
X0193434Y0257938D01*
X0193467Y0258049D01*
X0193504Y0258158D01*
X0193545Y0258266D01*
X0193590Y0258373D01*
X0193638Y0258478D01*
X0193690Y0258581D01*
X0193746Y0258682D01*
X0193805Y0258782D01*
X0193867Y0258879D01*
X0193933Y0258974D01*
X0194001Y0259067D01*
X0194073Y0259157D01*
X0194148Y0259245D01*
X0194227Y0259330D01*
X0194308Y0259412D01*
X0194391Y0259492D01*
X0194478Y0259568D01*
X0194567Y0259642D01*
X0194658Y0259712D01*
X0194752Y0259780D01*
X0194848Y0259844D01*
X0194947Y0259904D01*
X0195047Y0259961D01*
X0195149Y0260015D01*
X0195253Y0260065D01*
X0195359Y0260112D01*
X0195466Y0260155D01*
X0195575Y0260194D01*
X0195685Y0260229D01*
X0195796Y0260260D01*
X0195908Y0260288D01*
X0196021Y0260312D01*
X0196135Y0260332D01*
X0196250Y0260348D01*
X0196365Y0260360D01*
X0196480Y0260368D01*
X0196595Y0260372D01*
X0196711Y0260372D01*
X0196826Y0260368D01*
X0196941Y0260360D01*
X0197056Y0260348D01*
X0197171Y0260332D01*
X0197285Y0260312D01*
X0197398Y0260288D01*
X0197510Y0260260D01*
X0197621Y0260229D01*
X0197731Y0260194D01*
X0197840Y0260155D01*
X0197947Y0260112D01*
X0198053Y0260065D01*
X0198157Y0260015D01*
X0198259Y0259961D01*
X0198359Y0259904D01*
X0198458Y0259844D01*
X0198554Y0259780D01*
X0198648Y0259712D01*
X0198739Y0259642D01*
X0198828Y0259568D01*
X0198915Y0259492D01*
X0198998Y0259412D01*
X0199079Y0259330D01*
X0199158Y0259245D01*
X0199233Y0259157D01*
X0199305Y0259067D01*
X0199373Y0258974D01*
X0199439Y0258879D01*
X0199501Y0258782D01*
X0199560Y0258682D01*
X0199616Y0258581D01*
X0199668Y0258478D01*
X0199716Y0258373D01*
X0199761Y0258266D01*
X0199802Y0258158D01*
X0199839Y0258049D01*
X0199872Y0257938D01*
X0199902Y0257827D01*
X0199927Y0257714D01*
X0199949Y0257601D01*
X0199967Y0257487D01*
X0199981Y0257372D01*
X0199991Y0257257D01*
X0199997Y0257141D01*
X0199999Y0257026D01*
X0199997Y0256911D01*
X0199991Y0256795D01*
X0199981Y0256680D01*
X0199967Y0256565D01*
X0199949Y0256451D01*
X0199927Y0256338D01*
X0199902Y0256225D01*
X0199872Y0256114D01*
X0199839Y0256003D01*
X0199802Y0255894D01*
X0199761Y0255786D01*
X0199716Y0255679D01*
X0199668Y0255574D01*
X0199616Y0255471D01*
X0199560Y0255370D01*
X0199501Y0255270D01*
X0199439Y0255173D01*
X0199373Y0255078D01*
X0199305Y0254985D01*
X0199233Y0254895D01*
X0199158Y0254807D01*
X0199079Y0254722D01*
X0198998Y0254640D01*
X0198915Y0254560D01*
X0198828Y0254484D01*
X0198739Y0254410D01*
X0198648Y0254340D01*
X0198554Y0254272D01*
X0198458Y0254208D01*
X0198359Y0254148D01*
X0198259Y0254091D01*
X0198157Y0254037D01*
X0198053Y0253987D01*
X0197947Y0253940D01*
X0197840Y0253897D01*
X0197731Y0253858D01*
X0197621Y0253823D01*
X0197510Y0253792D01*
X0197398Y0253764D01*
X0197285Y0253740D01*
X0197171Y0253720D01*
X0197056Y0253704D01*
X0196941Y0253692D01*
X0196826Y0253684D01*
X0196711Y0253680D01*
X0196595Y0253680D01*
X0196480Y0253684D01*
X0196365Y0253692D01*
X0196250Y0253704D01*
X0196135Y0253720D01*
X0196021Y0253740D01*
X0195908Y0253764D01*
X0195796Y0253792D01*
X0195685Y0253823D01*
X0195575Y0253858D01*
X0195466Y0253897D01*
X0195359Y0253940D01*
X0195253Y0253987D01*
X0195149Y0254037D01*
X0195047Y0254091D01*
X0194947Y0254148D01*
X0194848Y0254208D01*
X0194752Y0254272D01*
X0194658Y0254340D01*
X0194567Y0254410D01*
X0194478Y0254484D01*
X0194391Y0254560D01*
X0194308Y0254640D01*
X0194227Y0254722D01*
X0194148Y0254807D01*
X0194073Y0254895D01*
X0194001Y0254985D01*
X0193933Y0255078D01*
X0193867Y0255173D01*
X0193805Y0255270D01*
X0193746Y0255370D01*
X0193690Y0255471D01*
X0193638Y0255574D01*
X0193590Y0255679D01*
X0193545Y0255786D01*
X0193504Y0255894D01*
X0193467Y0256003D01*
X0193434Y0256114D01*
X0193404Y0256225D01*
X0193379Y0256338D01*
X0193357Y0256451D01*
X0193339Y0256565D01*
X0193325Y0256680D01*
X0193315Y0256795D01*
X0193309Y0256911D01*
X0193307Y0257026D01*
X0264149Y0129900D02*
X0264151Y0130008D01*
X0264157Y0130117D01*
X0264167Y0130225D01*
X0264181Y0130332D01*
X0264199Y0130439D01*
X0264220Y0130546D01*
X0264246Y0130651D01*
X0264276Y0130756D01*
X0264309Y0130859D01*
X0264346Y0130961D01*
X0264387Y0131061D01*
X0264431Y0131160D01*
X0264480Y0131258D01*
X0264531Y0131353D01*
X0264586Y0131446D01*
X0264645Y0131538D01*
X0264707Y0131627D01*
X0264772Y0131714D01*
X0264840Y0131798D01*
X0264911Y0131880D01*
X0264985Y0131959D01*
X0265062Y0132035D01*
X0265142Y0132109D01*
X0265225Y0132179D01*
X0265310Y0132247D01*
X0265397Y0132311D01*
X0265487Y0132372D01*
X0265579Y0132430D01*
X0265673Y0132484D01*
X0265769Y0132535D01*
X0265866Y0132582D01*
X0265966Y0132626D01*
X0266067Y0132666D01*
X0266169Y0132702D01*
X0266272Y0132734D01*
X0266377Y0132763D01*
X0266483Y0132787D01*
X0266589Y0132808D01*
X0266696Y0132825D01*
X0266804Y0132838D01*
X0266912Y0132847D01*
X0267021Y0132852D01*
X0267129Y0132853D01*
X0267238Y0132850D01*
X0267346Y0132843D01*
X0267454Y0132832D01*
X0267561Y0132817D01*
X0267668Y0132798D01*
X0267774Y0132775D01*
X0267879Y0132749D01*
X0267984Y0132718D01*
X0268086Y0132684D01*
X0268188Y0132646D01*
X0268288Y0132604D01*
X0268387Y0132559D01*
X0268484Y0132510D01*
X0268578Y0132457D01*
X0268671Y0132401D01*
X0268762Y0132342D01*
X0268851Y0132279D01*
X0268937Y0132214D01*
X0269021Y0132145D01*
X0269102Y0132073D01*
X0269180Y0131998D01*
X0269256Y0131920D01*
X0269329Y0131839D01*
X0269399Y0131756D01*
X0269465Y0131671D01*
X0269529Y0131583D01*
X0269589Y0131492D01*
X0269646Y0131400D01*
X0269699Y0131305D01*
X0269749Y0131209D01*
X0269795Y0131111D01*
X0269838Y0131011D01*
X0269877Y0130910D01*
X0269912Y0130807D01*
X0269944Y0130704D01*
X0269971Y0130599D01*
X0269995Y0130493D01*
X0270015Y0130386D01*
X0270031Y0130279D01*
X0270043Y0130171D01*
X0270051Y0130063D01*
X0270055Y0129954D01*
X0270055Y0129846D01*
X0270051Y0129737D01*
X0270043Y0129629D01*
X0270031Y0129521D01*
X0270015Y0129414D01*
X0269995Y0129307D01*
X0269971Y0129201D01*
X0269944Y0129096D01*
X0269912Y0128993D01*
X0269877Y0128890D01*
X0269838Y0128789D01*
X0269795Y0128689D01*
X0269749Y0128591D01*
X0269699Y0128495D01*
X0269646Y0128400D01*
X0269589Y0128308D01*
X0269529Y0128217D01*
X0269465Y0128129D01*
X0269399Y0128044D01*
X0269329Y0127961D01*
X0269256Y0127880D01*
X0269180Y0127802D01*
X0269102Y0127727D01*
X0269021Y0127655D01*
X0268937Y0127586D01*
X0268851Y0127521D01*
X0268762Y0127458D01*
X0268671Y0127399D01*
X0268579Y0127343D01*
X0268484Y0127290D01*
X0268387Y0127241D01*
X0268288Y0127196D01*
X0268188Y0127154D01*
X0268086Y0127116D01*
X0267984Y0127082D01*
X0267879Y0127051D01*
X0267774Y0127025D01*
X0267668Y0127002D01*
X0267561Y0126983D01*
X0267454Y0126968D01*
X0267346Y0126957D01*
X0267238Y0126950D01*
X0267129Y0126947D01*
X0267021Y0126948D01*
X0266912Y0126953D01*
X0266804Y0126962D01*
X0266696Y0126975D01*
X0266589Y0126992D01*
X0266483Y0127013D01*
X0266377Y0127037D01*
X0266272Y0127066D01*
X0266169Y0127098D01*
X0266067Y0127134D01*
X0265966Y0127174D01*
X0265866Y0127218D01*
X0265769Y0127265D01*
X0265673Y0127316D01*
X0265579Y0127370D01*
X0265487Y0127428D01*
X0265397Y0127489D01*
X0265310Y0127553D01*
X0265225Y0127621D01*
X0265142Y0127691D01*
X0265062Y0127765D01*
X0264985Y0127841D01*
X0264911Y0127920D01*
X0264840Y0128002D01*
X0264772Y0128086D01*
X0264707Y0128173D01*
X0264645Y0128262D01*
X0264586Y0128354D01*
X0264531Y0128447D01*
X0264480Y0128542D01*
X0264431Y0128640D01*
X0264387Y0128739D01*
X0264346Y0128839D01*
X0264309Y0128941D01*
X0264276Y0129044D01*
X0264246Y0129149D01*
X0264220Y0129254D01*
X0264199Y0129361D01*
X0264181Y0129468D01*
X0264167Y0129575D01*
X0264157Y0129683D01*
X0264151Y0129792D01*
X0264149Y0129900D01*
D12*
X0195102Y0129900D03*
X0195102Y0149900D03*
X0182602Y0069900D03*
X0182602Y0049900D03*
X0116102Y0103400D03*
X0096102Y0103400D03*
X0086102Y0074900D03*
X0076102Y0074900D03*
X0076102Y0054900D03*
X0086102Y0054900D03*
X0091602Y0019400D03*
X0051602Y0019400D03*
X0051602Y0110900D03*
X0061602Y0110900D03*
X0059102Y0139400D03*
X0059102Y0149400D03*
X0065102Y0169900D03*
X0065102Y0209900D03*
X0110102Y0179900D03*
X0110102Y0139900D03*
D13*
X0128502Y0139900D02*
X0133702Y0139900D01*
X0133702Y0149900D02*
X0128502Y0149900D01*
X0128502Y0129900D02*
X0133702Y0129900D01*
X0133702Y0119900D02*
X0128502Y0119900D01*
X0128502Y0109900D02*
X0133702Y0109900D01*
X0133702Y0099900D02*
X0128502Y0099900D01*
X0128502Y0089900D02*
X0133702Y0089900D01*
X0133702Y0079900D02*
X0128502Y0079900D01*
X0128502Y0069900D02*
X0133702Y0069900D01*
X0133702Y0059900D02*
X0128502Y0059900D01*
X0128502Y0049900D02*
X0133702Y0049900D01*
X0133702Y0039900D02*
X0128502Y0039900D01*
X0128502Y0029900D02*
X0133702Y0029900D01*
X0133702Y0019900D02*
X0128502Y0019900D01*
X0158502Y0019900D02*
X0163702Y0019900D01*
X0163702Y0029900D02*
X0158502Y0029900D01*
X0158502Y0039900D02*
X0163702Y0039900D01*
X0163702Y0049900D02*
X0158502Y0049900D01*
X0158502Y0059900D02*
X0163702Y0059900D01*
X0163702Y0069900D02*
X0158502Y0069900D01*
X0158502Y0079900D02*
X0163702Y0079900D01*
X0163702Y0089900D02*
X0158502Y0089900D01*
X0158502Y0099900D02*
X0163702Y0099900D01*
X0163702Y0109900D02*
X0158502Y0109900D01*
X0158502Y0119900D02*
X0163702Y0119900D01*
X0163702Y0129900D02*
X0158502Y0129900D01*
X0158502Y0139900D02*
X0163702Y0139900D01*
X0163702Y0149900D02*
X0158502Y0149900D01*
D14*
X0161102Y0171900D02*
X0161102Y0177900D01*
X0151102Y0177900D02*
X0151102Y0171900D01*
X0141102Y0171900D02*
X0141102Y0177900D01*
X0131102Y0177900D02*
X0131102Y0171900D01*
X0171102Y0171900D02*
X0171102Y0177900D01*
X0213354Y0149900D02*
X0219354Y0149900D01*
X0219354Y0139900D02*
X0213354Y0139900D01*
X0213354Y0129900D02*
X0219354Y0129900D01*
X0219354Y0119900D02*
X0213354Y0119900D01*
X0244850Y0119900D02*
X0250850Y0119900D01*
X0250850Y0129900D02*
X0244850Y0129900D01*
X0244850Y0139900D02*
X0250850Y0139900D01*
X0250850Y0149900D02*
X0244850Y0149900D01*
D15*
X0093402Y0149400D02*
X0087802Y0149400D01*
X0087802Y0139400D02*
X0093402Y0139400D01*
D16*
X0091102Y0210018D03*
X0096102Y0220018D03*
X0106102Y0220018D03*
X0101102Y0210018D03*
X0111102Y0210018D03*
X0116102Y0220018D03*
X0121102Y0210018D03*
X0126102Y0220018D03*
X0146102Y0210018D03*
X0156102Y0210018D03*
X0151102Y0220018D03*
X0161102Y0220018D03*
X0166102Y0210018D03*
X0171102Y0220018D03*
X0181102Y0220018D03*
X0176102Y0210018D03*
D17*
X0221488Y0098601D02*
X0227031Y0098601D01*
X0241173Y0098601D02*
X0246716Y0098601D01*
D18*
X0108302Y0074900D02*
X0103902Y0074900D01*
X0103902Y0054900D02*
X0108302Y0054900D01*
D19*
X0106102Y0054900D02*
X0086102Y0054900D01*
X0081913Y0060045D02*
X0056402Y0060045D01*
X0056402Y0061643D02*
X0103888Y0061643D01*
X0104086Y0061916D02*
X0103493Y0061100D01*
X0102669Y0061100D01*
X0100390Y0060156D01*
X0099934Y0059700D01*
X0090636Y0059700D01*
X0088836Y0061500D01*
X0083368Y0061500D01*
X0079546Y0057678D01*
X0077925Y0059300D01*
X0076102Y0059300D01*
X0074280Y0059300D01*
X0071702Y0056723D01*
X0071702Y0054900D01*
X0076102Y0054900D01*
X0076102Y0054900D01*
X0071702Y0054900D01*
X0071702Y0053077D01*
X0074280Y0050500D01*
X0076102Y0050500D01*
X0076102Y0054900D01*
X0076102Y0059300D01*
X0076102Y0054900D01*
X0076102Y0054900D01*
X0076102Y0054900D01*
X0076102Y0050500D01*
X0077925Y0050500D01*
X0079546Y0052122D01*
X0083368Y0048300D01*
X0088836Y0048300D01*
X0090636Y0050100D01*
X0099934Y0050100D01*
X0100390Y0049644D01*
X0102669Y0048700D01*
X0109535Y0048700D01*
X0111814Y0049644D01*
X0113558Y0051388D01*
X0114502Y0053667D01*
X0114502Y0055100D01*
X0123968Y0055100D01*
X0124168Y0054900D01*
X0122907Y0053639D01*
X0121902Y0051213D01*
X0121902Y0048587D01*
X0122907Y0046161D01*
X0124168Y0044900D01*
X0122907Y0043639D01*
X0121902Y0041213D01*
X0121902Y0040533D01*
X0093899Y0026000D01*
X0088868Y0026000D01*
X0085002Y0022134D01*
X0085002Y0016666D01*
X0088868Y0012800D01*
X0094336Y0012800D01*
X0098202Y0016666D01*
X0098202Y0017417D01*
X0121902Y0029717D01*
X0121902Y0028587D01*
X0122907Y0026161D01*
X0124168Y0024900D01*
X0122907Y0023639D01*
X0121902Y0021213D01*
X0121902Y0018587D01*
X0122907Y0016161D01*
X0124763Y0014305D01*
X0127189Y0013300D01*
X0135015Y0013300D01*
X0137441Y0014305D01*
X0139297Y0016161D01*
X0140302Y0018587D01*
X0140302Y0021213D01*
X0139297Y0023639D01*
X0138036Y0024900D01*
X0139297Y0026161D01*
X0140302Y0028587D01*
X0140302Y0031213D01*
X0139297Y0033639D01*
X0138036Y0034900D01*
X0139297Y0036161D01*
X0140302Y0038587D01*
X0140302Y0041213D01*
X0139297Y0043639D01*
X0138036Y0044900D01*
X0139297Y0046161D01*
X0140302Y0048587D01*
X0140302Y0051213D01*
X0139297Y0053639D01*
X0138036Y0054900D01*
X0139297Y0056161D01*
X0140302Y0058587D01*
X0140302Y0061213D01*
X0139297Y0063639D01*
X0138036Y0064900D01*
X0139297Y0066161D01*
X0140302Y0068587D01*
X0140302Y0071213D01*
X0139297Y0073639D01*
X0137441Y0075495D01*
X0135956Y0076110D01*
X0136008Y0076137D01*
X0136568Y0076544D01*
X0137058Y0077034D01*
X0137465Y0077594D01*
X0137780Y0078211D01*
X0137994Y0078870D01*
X0138102Y0079554D01*
X0138102Y0079900D01*
X0138102Y0080246D01*
X0137994Y0080930D01*
X0137780Y0081589D01*
X0137465Y0082206D01*
X0137058Y0082766D01*
X0136568Y0083256D01*
X0136008Y0083663D01*
X0135956Y0083690D01*
X0137441Y0084305D01*
X0139297Y0086161D01*
X0140302Y0088587D01*
X0140302Y0091213D01*
X0139297Y0093639D01*
X0138036Y0094900D01*
X0139297Y0096161D01*
X0140302Y0098587D01*
X0140302Y0101213D01*
X0139297Y0103639D01*
X0138036Y0104900D01*
X0139297Y0106161D01*
X0140302Y0108587D01*
X0140302Y0111213D01*
X0139297Y0113639D01*
X0138036Y0114900D01*
X0139297Y0116161D01*
X0140302Y0118587D01*
X0140302Y0121213D01*
X0139297Y0123639D01*
X0138036Y0124900D01*
X0139297Y0126161D01*
X0140302Y0128587D01*
X0140302Y0131213D01*
X0139835Y0132340D01*
X0141597Y0131059D01*
X0141598Y0131059D01*
X0144550Y0130100D01*
X0151902Y0130100D01*
X0151902Y0128587D01*
X0152907Y0126161D01*
X0154168Y0124900D01*
X0152907Y0123639D01*
X0151902Y0121213D01*
X0151902Y0118587D01*
X0152907Y0116161D01*
X0154168Y0114900D01*
X0152907Y0113639D01*
X0151902Y0111213D01*
X0151902Y0108587D01*
X0152907Y0106161D01*
X0154168Y0104900D01*
X0152907Y0103639D01*
X0151902Y0101213D01*
X0151902Y0098587D01*
X0152907Y0096161D01*
X0154168Y0094900D01*
X0152907Y0093639D01*
X0151902Y0091213D01*
X0151902Y0088587D01*
X0152907Y0086161D01*
X0154168Y0084900D01*
X0152907Y0083639D01*
X0151902Y0081213D01*
X0151902Y0078587D01*
X0152907Y0076161D01*
X0154168Y0074900D01*
X0152907Y0073639D01*
X0151902Y0071213D01*
X0151902Y0068587D01*
X0152907Y0066161D01*
X0154763Y0064305D01*
X0156248Y0063690D01*
X0156196Y0063663D01*
X0155636Y0063256D01*
X0155146Y0062766D01*
X0154739Y0062206D01*
X0154424Y0061589D01*
X0154210Y0060930D01*
X0154102Y0060246D01*
X0154102Y0059900D01*
X0161102Y0059900D01*
X0161102Y0059900D01*
X0154102Y0059900D01*
X0154102Y0059554D01*
X0154210Y0058870D01*
X0154424Y0058211D01*
X0154739Y0057594D01*
X0155146Y0057034D01*
X0155636Y0056544D01*
X0156196Y0056137D01*
X0156248Y0056110D01*
X0154763Y0055495D01*
X0152907Y0053639D01*
X0151902Y0051213D01*
X0151902Y0048587D01*
X0152907Y0046161D01*
X0154168Y0044900D01*
X0152907Y0043639D01*
X0151902Y0041213D01*
X0151902Y0038587D01*
X0152907Y0036161D01*
X0154168Y0034900D01*
X0152907Y0033639D01*
X0151902Y0031213D01*
X0151902Y0028587D01*
X0152907Y0026161D01*
X0154168Y0024900D01*
X0152907Y0023639D01*
X0151902Y0021213D01*
X0151902Y0018587D01*
X0152907Y0016161D01*
X0154763Y0014305D01*
X0157189Y0013300D01*
X0165015Y0013300D01*
X0167441Y0014305D01*
X0169297Y0016161D01*
X0170302Y0018587D01*
X0170302Y0021213D01*
X0169297Y0023639D01*
X0168036Y0024900D01*
X0169297Y0026161D01*
X0170302Y0028587D01*
X0170302Y0031213D01*
X0169297Y0033639D01*
X0168036Y0034900D01*
X0169297Y0036161D01*
X0170302Y0038587D01*
X0170302Y0041213D01*
X0169297Y0043639D01*
X0168036Y0044900D01*
X0169297Y0046161D01*
X0170302Y0048587D01*
X0170302Y0051213D01*
X0169297Y0053639D01*
X0167441Y0055495D01*
X0165956Y0056110D01*
X0166008Y0056137D01*
X0166568Y0056544D01*
X0167058Y0057034D01*
X0167465Y0057594D01*
X0167780Y0058211D01*
X0167994Y0058870D01*
X0168102Y0059554D01*
X0168102Y0059900D01*
X0168102Y0060246D01*
X0167994Y0060930D01*
X0167780Y0061589D01*
X0167465Y0062206D01*
X0167058Y0062766D01*
X0166568Y0063256D01*
X0166008Y0063663D01*
X0165956Y0063690D01*
X0167441Y0064305D01*
X0168236Y0065100D01*
X0178068Y0065100D01*
X0179868Y0063300D01*
X0185336Y0063300D01*
X0187962Y0065926D01*
X0189280Y0066279D01*
X0193224Y0068557D01*
X0193225Y0068557D01*
X0196445Y0071778D01*
X0198723Y0075722D01*
X0198723Y0075722D01*
X0199902Y0080122D01*
X0199902Y0125100D01*
X0208255Y0125100D01*
X0208455Y0124900D01*
X0207420Y0123865D01*
X0206354Y0121292D01*
X0206354Y0118508D01*
X0207420Y0115935D01*
X0209389Y0113966D01*
X0211962Y0112900D01*
X0220746Y0112900D01*
X0223319Y0113966D01*
X0225288Y0115935D01*
X0226354Y0118508D01*
X0226354Y0121292D01*
X0225288Y0123865D01*
X0224254Y0124900D01*
X0225288Y0125935D01*
X0226354Y0128508D01*
X0226354Y0131292D01*
X0225288Y0133865D01*
X0223319Y0135834D01*
X0222431Y0136202D01*
X0222481Y0136239D01*
X0223015Y0136773D01*
X0223459Y0137384D01*
X0223802Y0138057D01*
X0224036Y0138776D01*
X0224154Y0139522D01*
X0224154Y0139900D01*
X0224154Y0140278D01*
X0224036Y0141024D01*
X0223802Y0141743D01*
X0223459Y0142416D01*
X0223015Y0143027D01*
X0222481Y0143561D01*
X0222431Y0143598D01*
X0223319Y0143966D01*
X0225288Y0145935D01*
X0226354Y0148508D01*
X0226354Y0151292D01*
X0225288Y0153865D01*
X0223319Y0155834D01*
X0220746Y0156900D01*
X0211962Y0156900D01*
X0209389Y0155834D01*
X0207420Y0153865D01*
X0206354Y0151292D01*
X0206354Y0148508D01*
X0207420Y0145935D01*
X0209389Y0143966D01*
X0210277Y0143598D01*
X0210227Y0143561D01*
X0209693Y0143027D01*
X0209249Y0142416D01*
X0208906Y0141743D01*
X0208672Y0141024D01*
X0208554Y0140278D01*
X0208554Y0139900D01*
X0216354Y0139900D01*
X0216354Y0139900D01*
X0208554Y0139900D01*
X0208554Y0139522D01*
X0208672Y0138776D01*
X0208906Y0138057D01*
X0209249Y0137384D01*
X0209693Y0136773D01*
X0210227Y0136239D01*
X0210277Y0136202D01*
X0209389Y0135834D01*
X0208255Y0134700D01*
X0199636Y0134700D01*
X0197836Y0136500D01*
X0197420Y0136500D01*
X0197118Y0136916D01*
X0194607Y0138741D01*
X0194607Y0138741D01*
X0191654Y0139700D01*
X0174437Y0139700D01*
X0174943Y0140395D01*
X0174943Y0140395D01*
X0175902Y0143348D01*
X0175902Y0166801D01*
X0177036Y0167935D01*
X0178102Y0170508D01*
X0178102Y0179292D01*
X0177036Y0181865D01*
X0175067Y0183834D01*
X0172494Y0184900D01*
X0169710Y0184900D01*
X0167137Y0183834D01*
X0166102Y0182799D01*
X0165067Y0183834D01*
X0162494Y0184900D01*
X0159710Y0184900D01*
X0157137Y0183834D01*
X0155168Y0181865D01*
X0154800Y0180977D01*
X0154763Y0181027D01*
X0154229Y0181561D01*
X0153618Y0182005D01*
X0152945Y0182348D01*
X0152226Y0182582D01*
X0151480Y0182700D01*
X0151302Y0182700D01*
X0151302Y0175100D01*
X0150902Y0175100D01*
X0150902Y0182700D01*
X0150724Y0182700D01*
X0149978Y0182582D01*
X0149259Y0182348D01*
X0148586Y0182005D01*
X0147975Y0181561D01*
X0147441Y0181027D01*
X0147404Y0180977D01*
X0147036Y0181865D01*
X0145902Y0182999D01*
X0145902Y0189368D01*
X0146388Y0189526D01*
X0149335Y0191667D01*
X0151476Y0194614D01*
X0152602Y0198079D01*
X0152602Y0203246D01*
X0159669Y0203246D01*
X0161102Y0203840D01*
X0162535Y0203246D01*
X0169669Y0203246D01*
X0171102Y0203840D01*
X0172535Y0203246D01*
X0179669Y0203246D01*
X0181140Y0203855D01*
X0182265Y0204981D01*
X0182874Y0206451D01*
X0182874Y0213246D01*
X0184669Y0213246D01*
X0186140Y0213855D01*
X0187265Y0214981D01*
X0187874Y0216451D01*
X0187874Y0223585D01*
X0187265Y0225056D01*
X0186140Y0226181D01*
X0184669Y0226790D01*
X0177535Y0226790D01*
X0176065Y0226181D01*
X0174939Y0225056D01*
X0174671Y0224408D01*
X0174568Y0224467D01*
X0174111Y0224590D01*
X0171188Y0224590D01*
X0171188Y0220104D01*
X0171016Y0220104D01*
X0171016Y0224590D01*
X0168093Y0224590D01*
X0167636Y0224467D01*
X0167533Y0224408D01*
X0167265Y0225056D01*
X0166140Y0226181D01*
X0164669Y0226790D01*
X0157535Y0226790D01*
X0156065Y0226181D01*
X0154939Y0225056D01*
X0154671Y0224408D01*
X0154568Y0224467D01*
X0154111Y0224590D01*
X0151188Y0224590D01*
X0151188Y0220104D01*
X0151016Y0220104D01*
X0151016Y0219932D01*
X0146530Y0219932D01*
X0146530Y0217009D01*
X0146589Y0216790D01*
X0142535Y0216790D01*
X0141065Y0216181D01*
X0139939Y0215056D01*
X0139330Y0213585D01*
X0139330Y0206451D01*
X0139602Y0205795D01*
X0139602Y0201400D01*
X0097602Y0201400D01*
X0097602Y0203246D01*
X0104669Y0203246D01*
X0106102Y0203840D01*
X0107535Y0203246D01*
X0114669Y0203246D01*
X0116102Y0203840D01*
X0117535Y0203246D01*
X0124669Y0203246D01*
X0126140Y0203855D01*
X0127265Y0204981D01*
X0127874Y0206451D01*
X0127874Y0213246D01*
X0129669Y0213246D01*
X0131140Y0213855D01*
X0132265Y0214981D01*
X0132874Y0216451D01*
X0132874Y0223585D01*
X0132265Y0225056D01*
X0131140Y0226181D01*
X0129669Y0226790D01*
X0122535Y0226790D01*
X0121065Y0226181D01*
X0119939Y0225056D01*
X0119671Y0224408D01*
X0119568Y0224467D01*
X0119111Y0224590D01*
X0116188Y0224590D01*
X0116188Y0220104D01*
X0116016Y0220104D01*
X0116016Y0224590D01*
X0113093Y0224590D01*
X0112636Y0224467D01*
X0112533Y0224408D01*
X0112265Y0225056D01*
X0111140Y0226181D01*
X0109669Y0226790D01*
X0102535Y0226790D01*
X0101065Y0226181D01*
X0099939Y0225056D01*
X0099671Y0224408D01*
X0099568Y0224467D01*
X0099111Y0224590D01*
X0096188Y0224590D01*
X0096188Y0220104D01*
X0096016Y0220104D01*
X0096016Y0219932D01*
X0091530Y0219932D01*
X0091530Y0217009D01*
X0091589Y0216790D01*
X0087535Y0216790D01*
X0086065Y0216181D01*
X0084939Y0215056D01*
X0084841Y0214818D01*
X0069518Y0214818D01*
X0067836Y0216500D01*
X0062368Y0216500D01*
X0058502Y0212634D01*
X0058502Y0207166D01*
X0062368Y0203300D01*
X0067836Y0203300D01*
X0069754Y0205218D01*
X0084602Y0205218D01*
X0084602Y0198079D01*
X0085728Y0194614D01*
X0087869Y0191667D01*
X0087869Y0191667D01*
X0090816Y0189526D01*
X0094281Y0188400D01*
X0136302Y0188400D01*
X0136302Y0182999D01*
X0136102Y0182799D01*
X0135067Y0183834D01*
X0132494Y0184900D01*
X0129710Y0184900D01*
X0127137Y0183834D01*
X0125168Y0181865D01*
X0124102Y0179292D01*
X0124102Y0170508D01*
X0125168Y0167935D01*
X0126302Y0166801D01*
X0126302Y0156133D01*
X0124763Y0155495D01*
X0122907Y0153639D01*
X0121902Y0151213D01*
X0121902Y0150835D01*
X0112798Y0146500D01*
X0107368Y0146500D01*
X0103502Y0142634D01*
X0103502Y0137166D01*
X0107368Y0133300D01*
X0112836Y0133300D01*
X0116702Y0137166D01*
X0116702Y0137726D01*
X0121902Y0140203D01*
X0121902Y0138587D01*
X0122907Y0136161D01*
X0124168Y0134900D01*
X0122907Y0133639D01*
X0121902Y0131213D01*
X0121902Y0128587D01*
X0122907Y0126161D01*
X0124168Y0124900D01*
X0122907Y0123639D01*
X0121902Y0121213D01*
X0121902Y0118587D01*
X0122907Y0116161D01*
X0124168Y0114900D01*
X0122907Y0113639D01*
X0121902Y0111213D01*
X0121902Y0108587D01*
X0122641Y0106803D01*
X0121848Y0106988D01*
X0118836Y0110000D01*
X0113368Y0110000D01*
X0109502Y0106134D01*
X0109502Y0100666D01*
X0113368Y0096800D01*
X0118836Y0096800D01*
X0119674Y0097638D01*
X0122576Y0096961D01*
X0122907Y0096161D01*
X0124168Y0094900D01*
X0122907Y0093639D01*
X0121902Y0091213D01*
X0121902Y0088587D01*
X0122907Y0086161D01*
X0124763Y0084305D01*
X0126248Y0083690D01*
X0126196Y0083663D01*
X0125636Y0083256D01*
X0125146Y0082766D01*
X0124739Y0082206D01*
X0124424Y0081589D01*
X0124210Y0080930D01*
X0124102Y0080246D01*
X0124102Y0079900D01*
X0131102Y0079900D01*
X0131102Y0079900D01*
X0124102Y0079900D01*
X0124102Y0079554D01*
X0124210Y0078870D01*
X0124424Y0078211D01*
X0124739Y0077594D01*
X0125146Y0077034D01*
X0125636Y0076544D01*
X0126196Y0076137D01*
X0126248Y0076110D01*
X0124763Y0075495D01*
X0123968Y0074700D01*
X0114502Y0074700D01*
X0114502Y0076133D01*
X0113558Y0078412D01*
X0111814Y0080156D01*
X0109535Y0081100D01*
X0102669Y0081100D01*
X0100390Y0080156D01*
X0099934Y0079700D01*
X0090636Y0079700D01*
X0088836Y0081500D01*
X0083368Y0081500D01*
X0079546Y0077678D01*
X0077925Y0079300D01*
X0076102Y0079300D01*
X0074280Y0079300D01*
X0071702Y0076723D01*
X0071702Y0074900D01*
X0076102Y0074900D01*
X0076102Y0074900D01*
X0071702Y0074900D01*
X0071702Y0073077D01*
X0074280Y0070500D01*
X0076102Y0070500D01*
X0076102Y0074900D01*
X0076102Y0079300D01*
X0076102Y0074900D01*
X0076102Y0074900D01*
X0076102Y0074900D01*
X0076102Y0070500D01*
X0077925Y0070500D01*
X0079546Y0072122D01*
X0083368Y0068300D01*
X0088836Y0068300D01*
X0090636Y0070100D01*
X0099934Y0070100D01*
X0100390Y0069644D01*
X0102669Y0068700D01*
X0103493Y0068700D01*
X0104086Y0067884D01*
X0104086Y0067884D01*
X0104086Y0067884D01*
X0106597Y0066059D01*
X0106598Y0066059D01*
X0109550Y0065100D01*
X0123968Y0065100D01*
X0124168Y0064900D01*
X0123968Y0064700D01*
X0109550Y0064700D01*
X0106598Y0063741D01*
X0104086Y0061916D01*
X0104086Y0061916D01*
X0105911Y0063242D02*
X0056402Y0063242D01*
X0056402Y0064840D02*
X0124109Y0064840D01*
X0131102Y0059900D02*
X0111102Y0059900D01*
X0110962Y0059898D01*
X0110822Y0059892D01*
X0110682Y0059882D01*
X0110542Y0059869D01*
X0110403Y0059851D01*
X0110264Y0059829D01*
X0110127Y0059804D01*
X0109989Y0059775D01*
X0109853Y0059742D01*
X0109718Y0059705D01*
X0109584Y0059664D01*
X0109451Y0059619D01*
X0109319Y0059571D01*
X0109189Y0059519D01*
X0109060Y0059464D01*
X0108933Y0059405D01*
X0108807Y0059342D01*
X0108683Y0059276D01*
X0108562Y0059207D01*
X0108442Y0059134D01*
X0108324Y0059057D01*
X0108209Y0058978D01*
X0108095Y0058895D01*
X0107985Y0058809D01*
X0107876Y0058720D01*
X0107770Y0058628D01*
X0107667Y0058533D01*
X0107566Y0058436D01*
X0107469Y0058335D01*
X0107374Y0058232D01*
X0107282Y0058126D01*
X0107193Y0058017D01*
X0107107Y0057907D01*
X0107024Y0057793D01*
X0106945Y0057678D01*
X0106868Y0057560D01*
X0106795Y0057440D01*
X0106726Y0057319D01*
X0106660Y0057195D01*
X0106597Y0057069D01*
X0106538Y0056942D01*
X0106483Y0056813D01*
X0106431Y0056683D01*
X0106383Y0056551D01*
X0106338Y0056418D01*
X0106297Y0056284D01*
X0106260Y0056149D01*
X0106227Y0056013D01*
X0106198Y0055875D01*
X0106173Y0055738D01*
X0106151Y0055599D01*
X0106133Y0055460D01*
X0106120Y0055320D01*
X0106110Y0055180D01*
X0106104Y0055040D01*
X0106102Y0054900D01*
X0102294Y0048855D02*
X0089391Y0048855D01*
X0082813Y0048855D02*
X0056402Y0048855D01*
X0056402Y0047257D02*
X0122453Y0047257D01*
X0121902Y0048855D02*
X0109910Y0048855D01*
X0112624Y0050454D02*
X0121902Y0050454D01*
X0122250Y0052052D02*
X0113833Y0052052D01*
X0114495Y0053651D02*
X0122919Y0053651D01*
X0123410Y0045658D02*
X0056402Y0045658D01*
X0056402Y0044060D02*
X0123328Y0044060D01*
X0122419Y0042461D02*
X0056402Y0042461D01*
X0056402Y0040863D02*
X0121902Y0040863D01*
X0119457Y0039264D02*
X0056402Y0039264D01*
X0056402Y0037666D02*
X0116377Y0037666D01*
X0113297Y0036067D02*
X0056402Y0036067D01*
X0056402Y0034469D02*
X0110217Y0034469D01*
X0107137Y0032870D02*
X0056402Y0032870D01*
X0056402Y0031272D02*
X0104057Y0031272D01*
X0100977Y0029673D02*
X0056402Y0029673D01*
X0056402Y0028075D02*
X0097897Y0028075D01*
X0094817Y0026476D02*
X0056402Y0026476D01*
X0056402Y0024878D02*
X0087746Y0024878D01*
X0086147Y0023279D02*
X0057057Y0023279D01*
X0056402Y0023934D02*
X0056402Y0106366D01*
X0058158Y0108122D01*
X0059780Y0106500D01*
X0061602Y0106500D01*
X0061602Y0110900D01*
X0061602Y0115300D01*
X0059780Y0115300D01*
X0058158Y0113678D01*
X0054336Y0117500D01*
X0048868Y0117500D01*
X0045002Y0113634D01*
X0045002Y0108166D01*
X0046802Y0106366D01*
X0046802Y0023934D01*
X0045002Y0022134D01*
X0045002Y0016666D01*
X0048868Y0012800D01*
X0054336Y0012800D01*
X0058202Y0016666D01*
X0058202Y0022134D01*
X0056402Y0023934D01*
X0058202Y0021681D02*
X0085002Y0021681D01*
X0085002Y0020082D02*
X0058202Y0020082D01*
X0058202Y0018484D02*
X0085002Y0018484D01*
X0085002Y0016885D02*
X0058202Y0016885D01*
X0056822Y0015287D02*
X0086382Y0015287D01*
X0087980Y0013688D02*
X0055224Y0013688D01*
X0051602Y0019400D02*
X0051602Y0110900D01*
X0046767Y0106402D02*
X0041302Y0106402D01*
X0041302Y0108000D02*
X0045168Y0108000D01*
X0045002Y0109599D02*
X0041302Y0109599D01*
X0041302Y0111197D02*
X0045002Y0111197D01*
X0045002Y0112796D02*
X0041302Y0112796D01*
X0041302Y0114394D02*
X0045763Y0114394D01*
X0047361Y0115993D02*
X0041302Y0115993D01*
X0041302Y0117591D02*
X0122315Y0117591D01*
X0121902Y0119190D02*
X0041302Y0119190D01*
X0041302Y0120788D02*
X0121902Y0120788D01*
X0122388Y0122387D02*
X0048223Y0122387D01*
X0047644Y0122147D02*
X0050494Y0123328D01*
X0052675Y0125508D01*
X0053855Y0128358D01*
X0053855Y0131442D01*
X0052675Y0134292D01*
X0050494Y0136472D01*
X0047644Y0137653D01*
X0044560Y0137653D01*
X0041710Y0136472D01*
X0041302Y0136064D01*
X0041302Y0279700D01*
X0272902Y0279700D01*
X0272902Y0135064D01*
X0271494Y0136472D01*
X0268644Y0137653D01*
X0265560Y0137653D01*
X0262710Y0136472D01*
X0260530Y0134292D01*
X0259349Y0131442D01*
X0259349Y0128358D01*
X0260530Y0125508D01*
X0262710Y0123328D01*
X0265560Y0122147D01*
X0268644Y0122147D01*
X0271494Y0123328D01*
X0272902Y0124736D01*
X0272902Y0006600D01*
X0041302Y0006600D01*
X0041302Y0123736D01*
X0041710Y0123328D01*
X0044560Y0122147D01*
X0047644Y0122147D01*
X0051151Y0123985D02*
X0123254Y0123985D01*
X0123484Y0125584D02*
X0052706Y0125584D01*
X0053368Y0127182D02*
X0122484Y0127182D01*
X0121902Y0128781D02*
X0053855Y0128781D01*
X0053855Y0130379D02*
X0121902Y0130379D01*
X0122219Y0131978D02*
X0053633Y0131978D01*
X0052971Y0133576D02*
X0055592Y0133576D01*
X0056368Y0132800D02*
X0052502Y0136666D01*
X0052502Y0142134D01*
X0056324Y0145956D01*
X0054702Y0147577D01*
X0054702Y0149400D01*
X0059102Y0149400D01*
X0059102Y0149400D01*
X0054702Y0149400D01*
X0054702Y0151223D01*
X0057280Y0153800D01*
X0059102Y0153800D01*
X0059102Y0149400D01*
X0059102Y0149400D01*
X0059102Y0153800D01*
X0060925Y0153800D01*
X0063502Y0151223D01*
X0063502Y0149400D01*
X0059102Y0149400D01*
X0059102Y0149400D01*
X0063502Y0149400D01*
X0063502Y0147577D01*
X0061880Y0145956D01*
X0063636Y0144200D01*
X0082985Y0144200D01*
X0083185Y0144400D01*
X0082037Y0145548D01*
X0081002Y0148047D01*
X0081002Y0150753D01*
X0082037Y0153252D01*
X0083950Y0155165D01*
X0085802Y0155932D01*
X0085802Y0156185D01*
X0068037Y0163501D01*
X0067836Y0163300D01*
X0062368Y0163300D01*
X0058502Y0167166D01*
X0058502Y0172634D01*
X0062368Y0176500D01*
X0067836Y0176500D01*
X0071702Y0172634D01*
X0071702Y0172373D01*
X0089390Y0165090D01*
X0103502Y0179926D01*
X0103502Y0182634D01*
X0107368Y0186500D01*
X0112836Y0186500D01*
X0116702Y0182634D01*
X0116702Y0177166D01*
X0112836Y0173300D01*
X0110449Y0173300D01*
X0095402Y0157482D01*
X0095402Y0155932D01*
X0097254Y0155165D01*
X0099167Y0153252D01*
X0100202Y0150753D01*
X0100202Y0148047D01*
X0099167Y0145548D01*
X0098019Y0144400D01*
X0099167Y0143252D01*
X0100202Y0140753D01*
X0100202Y0138047D01*
X0099167Y0135548D01*
X0097254Y0133635D01*
X0094755Y0132600D01*
X0086449Y0132600D01*
X0083950Y0133635D01*
X0082985Y0134600D01*
X0063636Y0134600D01*
X0061836Y0132800D01*
X0056368Y0132800D01*
X0053993Y0135175D02*
X0051791Y0135175D01*
X0052502Y0136773D02*
X0049767Y0136773D01*
X0052502Y0138372D02*
X0041302Y0138372D01*
X0041302Y0139970D02*
X0052502Y0139970D01*
X0052502Y0141569D02*
X0041302Y0141569D01*
X0041302Y0143168D02*
X0053536Y0143168D01*
X0055134Y0144766D02*
X0041302Y0144766D01*
X0041302Y0146365D02*
X0055915Y0146365D01*
X0054702Y0147963D02*
X0041302Y0147963D01*
X0041302Y0149562D02*
X0054702Y0149562D01*
X0054702Y0151160D02*
X0041302Y0151160D01*
X0041302Y0152759D02*
X0056238Y0152759D01*
X0059102Y0152759D02*
X0059102Y0152759D01*
X0059102Y0151160D02*
X0059102Y0151160D01*
X0059102Y0149562D02*
X0059102Y0149562D01*
X0061966Y0152759D02*
X0081833Y0152759D01*
X0081171Y0151160D02*
X0063502Y0151160D01*
X0063502Y0149562D02*
X0081002Y0149562D01*
X0081037Y0147963D02*
X0063502Y0147963D01*
X0062289Y0146365D02*
X0081699Y0146365D01*
X0082819Y0144766D02*
X0063070Y0144766D01*
X0059102Y0139400D02*
X0090602Y0139400D01*
X0084092Y0133576D02*
X0062612Y0133576D01*
X0055843Y0115993D02*
X0123075Y0115993D01*
X0123663Y0114394D02*
X0064330Y0114394D01*
X0063425Y0115300D02*
X0066002Y0112723D01*
X0066002Y0110900D01*
X0061602Y0110900D01*
X0061602Y0110900D01*
X0061602Y0110900D01*
X0061602Y0115300D01*
X0063425Y0115300D01*
X0061602Y0114394D02*
X0061602Y0114394D01*
X0061602Y0112796D02*
X0061602Y0112796D01*
X0061602Y0111197D02*
X0061602Y0111197D01*
X0061602Y0110900D02*
X0061602Y0110900D01*
X0061602Y0106500D01*
X0063425Y0106500D01*
X0066002Y0109077D01*
X0066002Y0110900D01*
X0061602Y0110900D01*
X0061602Y0109599D02*
X0061602Y0109599D01*
X0061602Y0108000D02*
X0061602Y0108000D01*
X0064925Y0108000D02*
X0111369Y0108000D01*
X0112967Y0109599D02*
X0066002Y0109599D01*
X0066002Y0111197D02*
X0121902Y0111197D01*
X0121902Y0109599D02*
X0119237Y0109599D01*
X0120836Y0108000D02*
X0122145Y0108000D01*
X0122558Y0112796D02*
X0065929Y0112796D01*
X0058874Y0114394D02*
X0057442Y0114394D01*
X0058036Y0108000D02*
X0058279Y0108000D01*
X0056438Y0106402D02*
X0092881Y0106402D01*
X0091702Y0105223D02*
X0094280Y0107800D01*
X0096102Y0107800D01*
X0096102Y0103400D01*
X0096102Y0103400D01*
X0091702Y0103400D01*
X0091702Y0105223D01*
X0091702Y0104803D02*
X0056402Y0104803D01*
X0056402Y0103205D02*
X0091702Y0103205D01*
X0091702Y0103400D02*
X0091702Y0101577D01*
X0094280Y0099000D01*
X0096102Y0099000D01*
X0096102Y0103400D01*
X0091702Y0103400D01*
X0091702Y0101606D02*
X0056402Y0101606D01*
X0056402Y0100008D02*
X0093272Y0100008D01*
X0096102Y0100008D02*
X0096102Y0100008D01*
X0096102Y0099000D02*
X0097925Y0099000D01*
X0100502Y0101577D01*
X0100502Y0103400D01*
X0100502Y0105223D01*
X0097925Y0107800D01*
X0096102Y0107800D01*
X0096102Y0103400D01*
X0096102Y0103400D01*
X0096102Y0103400D01*
X0096102Y0099000D01*
X0096102Y0101606D02*
X0096102Y0101606D01*
X0096102Y0103205D02*
X0096102Y0103205D01*
X0096102Y0103400D02*
X0096102Y0103400D01*
X0100502Y0103400D01*
X0096102Y0103400D01*
X0096102Y0104803D02*
X0096102Y0104803D01*
X0096102Y0106402D02*
X0096102Y0106402D01*
X0099323Y0106402D02*
X0109770Y0106402D01*
X0109502Y0104803D02*
X0100502Y0104803D01*
X0100502Y0103205D02*
X0109502Y0103205D01*
X0109502Y0101606D02*
X0100502Y0101606D01*
X0098932Y0100008D02*
X0110161Y0100008D01*
X0111759Y0098409D02*
X0056402Y0098409D01*
X0056402Y0096811D02*
X0113358Y0096811D01*
X0118847Y0096811D02*
X0122638Y0096811D01*
X0123856Y0095212D02*
X0056402Y0095212D01*
X0056402Y0093614D02*
X0122897Y0093614D01*
X0122234Y0092015D02*
X0056402Y0092015D01*
X0056402Y0090417D02*
X0121902Y0090417D01*
X0121902Y0088818D02*
X0056402Y0088818D01*
X0056402Y0087220D02*
X0122469Y0087220D01*
X0123447Y0085621D02*
X0056402Y0085621D01*
X0056402Y0084023D02*
X0125445Y0084023D01*
X0124897Y0082424D02*
X0056402Y0082424D01*
X0056402Y0080826D02*
X0082694Y0080826D01*
X0081095Y0079227D02*
X0077998Y0079227D01*
X0076102Y0079227D02*
X0076102Y0079227D01*
X0076102Y0077629D02*
X0076102Y0077629D01*
X0076102Y0076030D02*
X0076102Y0076030D01*
X0076102Y0074432D02*
X0076102Y0074432D01*
X0076102Y0072833D02*
X0076102Y0072833D01*
X0076102Y0071234D02*
X0076102Y0071234D01*
X0073545Y0071234D02*
X0056402Y0071234D01*
X0056402Y0069636D02*
X0082032Y0069636D01*
X0080434Y0071234D02*
X0078659Y0071234D01*
X0086102Y0074900D02*
X0106102Y0074900D01*
X0106104Y0074760D01*
X0106110Y0074620D01*
X0106120Y0074480D01*
X0106133Y0074340D01*
X0106151Y0074201D01*
X0106173Y0074062D01*
X0106198Y0073925D01*
X0106227Y0073787D01*
X0106260Y0073651D01*
X0106297Y0073516D01*
X0106338Y0073382D01*
X0106383Y0073249D01*
X0106431Y0073117D01*
X0106483Y0072987D01*
X0106538Y0072858D01*
X0106597Y0072731D01*
X0106660Y0072605D01*
X0106726Y0072481D01*
X0106795Y0072360D01*
X0106868Y0072240D01*
X0106945Y0072122D01*
X0107024Y0072007D01*
X0107107Y0071893D01*
X0107193Y0071783D01*
X0107282Y0071674D01*
X0107374Y0071568D01*
X0107469Y0071465D01*
X0107566Y0071364D01*
X0107667Y0071267D01*
X0107770Y0071172D01*
X0107876Y0071080D01*
X0107985Y0070991D01*
X0108095Y0070905D01*
X0108209Y0070822D01*
X0108324Y0070743D01*
X0108442Y0070666D01*
X0108562Y0070593D01*
X0108683Y0070524D01*
X0108807Y0070458D01*
X0108933Y0070395D01*
X0109060Y0070336D01*
X0109189Y0070281D01*
X0109319Y0070229D01*
X0109451Y0070181D01*
X0109584Y0070136D01*
X0109718Y0070095D01*
X0109853Y0070058D01*
X0109989Y0070025D01*
X0110127Y0069996D01*
X0110264Y0069971D01*
X0110403Y0069949D01*
X0110542Y0069931D01*
X0110682Y0069918D01*
X0110822Y0069908D01*
X0110962Y0069902D01*
X0111102Y0069900D01*
X0131102Y0069900D01*
X0126055Y0076030D02*
X0114502Y0076030D01*
X0113883Y0077629D02*
X0124721Y0077629D01*
X0124154Y0079227D02*
X0112743Y0079227D01*
X0110198Y0080826D02*
X0124194Y0080826D01*
X0131102Y0079900D02*
X0138102Y0079900D01*
X0131102Y0079900D01*
X0131102Y0079900D01*
X0136149Y0076030D02*
X0153038Y0076030D01*
X0153700Y0074432D02*
X0138504Y0074432D01*
X0139631Y0072833D02*
X0152573Y0072833D01*
X0151911Y0071234D02*
X0140293Y0071234D01*
X0140302Y0069636D02*
X0151902Y0069636D01*
X0152130Y0068037D02*
X0140074Y0068037D01*
X0139412Y0066439D02*
X0152792Y0066439D01*
X0154228Y0064840D02*
X0138095Y0064840D01*
X0139462Y0063242D02*
X0155621Y0063242D01*
X0154452Y0061643D02*
X0140124Y0061643D01*
X0140302Y0060045D02*
X0154102Y0060045D01*
X0154348Y0058446D02*
X0140244Y0058446D01*
X0139582Y0056848D02*
X0155332Y0056848D01*
X0154518Y0055249D02*
X0138385Y0055249D01*
X0139285Y0053651D02*
X0152919Y0053651D01*
X0152250Y0052052D02*
X0139954Y0052052D01*
X0140302Y0050454D02*
X0151902Y0050454D01*
X0151902Y0048855D02*
X0140302Y0048855D01*
X0139751Y0047257D02*
X0152453Y0047257D01*
X0153410Y0045658D02*
X0138794Y0045658D01*
X0138876Y0044060D02*
X0153328Y0044060D01*
X0152419Y0042461D02*
X0139785Y0042461D01*
X0140302Y0040863D02*
X0151902Y0040863D01*
X0151902Y0039264D02*
X0140302Y0039264D01*
X0139920Y0037666D02*
X0152284Y0037666D01*
X0153001Y0036067D02*
X0139203Y0036067D01*
X0138467Y0034469D02*
X0153737Y0034469D01*
X0152589Y0032870D02*
X0139616Y0032870D01*
X0140278Y0031272D02*
X0151926Y0031272D01*
X0151902Y0029673D02*
X0140302Y0029673D01*
X0140090Y0028075D02*
X0152114Y0028075D01*
X0152776Y0026476D02*
X0139428Y0026476D01*
X0138058Y0024878D02*
X0154146Y0024878D01*
X0152758Y0023279D02*
X0139446Y0023279D01*
X0140108Y0021681D02*
X0152096Y0021681D01*
X0151902Y0020082D02*
X0140302Y0020082D01*
X0140259Y0018484D02*
X0151945Y0018484D01*
X0152607Y0016885D02*
X0139597Y0016885D01*
X0138422Y0015287D02*
X0153782Y0015287D01*
X0156252Y0013688D02*
X0135952Y0013688D01*
X0126252Y0013688D02*
X0095224Y0013688D01*
X0096822Y0015287D02*
X0123782Y0015287D01*
X0122607Y0016885D02*
X0098202Y0016885D01*
X0100257Y0018484D02*
X0121945Y0018484D01*
X0121902Y0020082D02*
X0103337Y0020082D01*
X0106417Y0021681D02*
X0122096Y0021681D01*
X0122758Y0023279D02*
X0109497Y0023279D01*
X0112577Y0024878D02*
X0124146Y0024878D01*
X0122776Y0026476D02*
X0115657Y0026476D01*
X0118737Y0028075D02*
X0122114Y0028075D01*
X0121902Y0029673D02*
X0121817Y0029673D01*
X0131102Y0039900D02*
X0091602Y0019400D01*
X0081214Y0050454D02*
X0056402Y0050454D01*
X0056402Y0052052D02*
X0072727Y0052052D01*
X0071702Y0053651D02*
X0056402Y0053651D01*
X0056402Y0055249D02*
X0071702Y0055249D01*
X0071827Y0056848D02*
X0056402Y0056848D01*
X0056402Y0058446D02*
X0073426Y0058446D01*
X0076102Y0058446D02*
X0076102Y0058446D01*
X0076102Y0056848D02*
X0076102Y0056848D01*
X0076102Y0055249D02*
X0076102Y0055249D01*
X0076102Y0053651D02*
X0076102Y0053651D01*
X0076102Y0052052D02*
X0076102Y0052052D01*
X0079477Y0052052D02*
X0079616Y0052052D01*
X0080315Y0058446D02*
X0078778Y0058446D01*
X0090291Y0060045D02*
X0100279Y0060045D01*
X0106075Y0066439D02*
X0056402Y0066439D01*
X0056402Y0068037D02*
X0103975Y0068037D01*
X0100409Y0069636D02*
X0090172Y0069636D01*
X0089510Y0080826D02*
X0102006Y0080826D01*
X0109550Y0064700D02*
X0109550Y0064700D01*
X0136759Y0084023D02*
X0153291Y0084023D01*
X0153447Y0085621D02*
X0138757Y0085621D01*
X0139736Y0087220D02*
X0152469Y0087220D01*
X0151902Y0088818D02*
X0140302Y0088818D01*
X0140302Y0090417D02*
X0151902Y0090417D01*
X0152234Y0092015D02*
X0139970Y0092015D01*
X0139308Y0093614D02*
X0152897Y0093614D01*
X0153856Y0095212D02*
X0138348Y0095212D01*
X0139566Y0096811D02*
X0152638Y0096811D01*
X0151976Y0098409D02*
X0140228Y0098409D01*
X0140302Y0100008D02*
X0151902Y0100008D01*
X0152065Y0101606D02*
X0140139Y0101606D01*
X0139477Y0103205D02*
X0152727Y0103205D01*
X0154072Y0104803D02*
X0138133Y0104803D01*
X0139397Y0106402D02*
X0152807Y0106402D01*
X0152145Y0108000D02*
X0140059Y0108000D01*
X0140302Y0109599D02*
X0151902Y0109599D01*
X0151902Y0111197D02*
X0140302Y0111197D01*
X0139646Y0112796D02*
X0152558Y0112796D01*
X0153663Y0114394D02*
X0138542Y0114394D01*
X0139129Y0115993D02*
X0153075Y0115993D01*
X0152315Y0117591D02*
X0139890Y0117591D01*
X0140302Y0119190D02*
X0151902Y0119190D01*
X0151902Y0120788D02*
X0140302Y0120788D01*
X0139816Y0122387D02*
X0152388Y0122387D01*
X0153254Y0123985D02*
X0138950Y0123985D01*
X0138720Y0125584D02*
X0153484Y0125584D01*
X0152484Y0127182D02*
X0139720Y0127182D01*
X0140302Y0128781D02*
X0151902Y0128781D01*
X0146102Y0134900D02*
X0190102Y0134900D01*
X0195114Y0138372D02*
X0208803Y0138372D01*
X0208554Y0139970D02*
X0174634Y0139970D01*
X0175324Y0141569D02*
X0208849Y0141569D01*
X0209833Y0143168D02*
X0175843Y0143168D01*
X0175902Y0144766D02*
X0208589Y0144766D01*
X0207242Y0146365D02*
X0197789Y0146365D01*
X0196925Y0145500D02*
X0195102Y0145500D01*
X0195102Y0149900D01*
X0195102Y0149900D01*
X0190702Y0149900D01*
X0190702Y0151723D01*
X0193280Y0154300D01*
X0195102Y0154300D01*
X0195102Y0149900D01*
X0190702Y0149900D01*
X0190702Y0148077D01*
X0193280Y0145500D01*
X0195102Y0145500D01*
X0195102Y0149900D01*
X0195102Y0149900D01*
X0195102Y0149900D01*
X0195102Y0154300D01*
X0196925Y0154300D01*
X0199502Y0151723D01*
X0199502Y0149900D01*
X0195102Y0149900D01*
X0195102Y0149900D01*
X0199502Y0149900D01*
X0199502Y0148077D01*
X0196925Y0145500D01*
X0195102Y0146365D02*
X0195102Y0146365D01*
X0195102Y0147963D02*
X0195102Y0147963D01*
X0195102Y0149562D02*
X0195102Y0149562D01*
X0195102Y0151160D02*
X0195102Y0151160D01*
X0195102Y0152759D02*
X0195102Y0152759D01*
X0191738Y0152759D02*
X0175902Y0152759D01*
X0175902Y0154357D02*
X0207912Y0154357D01*
X0206961Y0152759D02*
X0198466Y0152759D01*
X0199502Y0151160D02*
X0206354Y0151160D01*
X0206354Y0149562D02*
X0199502Y0149562D01*
X0199388Y0147963D02*
X0206580Y0147963D01*
X0209682Y0155956D02*
X0175902Y0155956D01*
X0175902Y0157554D02*
X0272902Y0157554D01*
X0272902Y0155956D02*
X0223026Y0155956D01*
X0224796Y0154357D02*
X0243034Y0154357D01*
X0243008Y0154348D02*
X0242334Y0154005D01*
X0241723Y0153561D01*
X0241189Y0153027D01*
X0240745Y0152416D01*
X0240402Y0151743D01*
X0240168Y0151024D01*
X0240050Y0150278D01*
X0240050Y0149900D01*
X0247850Y0149900D01*
X0247850Y0149900D01*
X0240050Y0149900D01*
X0240050Y0149522D01*
X0240168Y0148776D01*
X0240402Y0148057D01*
X0240745Y0147384D01*
X0241189Y0146773D01*
X0241723Y0146239D01*
X0241773Y0146202D01*
X0240885Y0145834D01*
X0238916Y0143865D01*
X0237850Y0141292D01*
X0237850Y0138508D01*
X0238916Y0135935D01*
X0239951Y0134900D01*
X0238916Y0133865D01*
X0237850Y0131292D01*
X0237850Y0128508D01*
X0238916Y0125935D01*
X0239951Y0124900D01*
X0238916Y0123865D01*
X0237850Y0121292D01*
X0237850Y0118508D01*
X0238916Y0115935D01*
X0240885Y0113966D01*
X0243458Y0112900D01*
X0252242Y0112900D01*
X0254815Y0113966D01*
X0256784Y0115935D01*
X0257850Y0118508D01*
X0257850Y0121292D01*
X0256784Y0123865D01*
X0255750Y0124900D01*
X0256784Y0125935D01*
X0257850Y0128508D01*
X0257850Y0131292D01*
X0256784Y0133865D01*
X0255750Y0134900D01*
X0256784Y0135935D01*
X0257850Y0138508D01*
X0257850Y0141292D01*
X0256784Y0143865D01*
X0254815Y0145834D01*
X0253927Y0146202D01*
X0253977Y0146239D01*
X0254511Y0146773D01*
X0254955Y0147384D01*
X0255298Y0148057D01*
X0255532Y0148776D01*
X0255650Y0149522D01*
X0255650Y0149900D01*
X0255650Y0150278D01*
X0255532Y0151024D01*
X0255298Y0151743D01*
X0254955Y0152416D01*
X0254511Y0153027D01*
X0253977Y0153561D01*
X0253366Y0154005D01*
X0252693Y0154348D01*
X0251974Y0154582D01*
X0251228Y0154700D01*
X0247850Y0154700D01*
X0244472Y0154700D01*
X0243726Y0154582D01*
X0243008Y0154348D01*
X0240994Y0152759D02*
X0225747Y0152759D01*
X0226354Y0151160D02*
X0240213Y0151160D01*
X0240050Y0149562D02*
X0226354Y0149562D01*
X0226128Y0147963D02*
X0240450Y0147963D01*
X0241597Y0146365D02*
X0225466Y0146365D01*
X0224120Y0144766D02*
X0239817Y0144766D01*
X0238627Y0143168D02*
X0222875Y0143168D01*
X0223859Y0141569D02*
X0237965Y0141569D01*
X0237850Y0139970D02*
X0224154Y0139970D01*
X0224154Y0139900D02*
X0216354Y0139900D01*
X0216354Y0139900D01*
X0224154Y0139900D01*
X0223905Y0138372D02*
X0237906Y0138372D01*
X0238568Y0136773D02*
X0223016Y0136773D01*
X0223979Y0135175D02*
X0239676Y0135175D01*
X0238796Y0133576D02*
X0225408Y0133576D01*
X0226070Y0131978D02*
X0238134Y0131978D01*
X0237850Y0130379D02*
X0226354Y0130379D01*
X0226354Y0128781D02*
X0237850Y0128781D01*
X0238399Y0127182D02*
X0225805Y0127182D01*
X0224937Y0125584D02*
X0239267Y0125584D01*
X0239036Y0123985D02*
X0225168Y0123985D01*
X0225901Y0122387D02*
X0238303Y0122387D01*
X0237850Y0120788D02*
X0226354Y0120788D01*
X0226354Y0119190D02*
X0237850Y0119190D01*
X0238230Y0117591D02*
X0225974Y0117591D01*
X0225312Y0115993D02*
X0238892Y0115993D01*
X0240456Y0114394D02*
X0223748Y0114394D01*
X0224174Y0103172D02*
X0221128Y0103172D01*
X0220417Y0103060D01*
X0219733Y0102837D01*
X0219092Y0102511D01*
X0218510Y0102088D01*
X0218001Y0101579D01*
X0217578Y0100997D01*
X0217251Y0100356D01*
X0217029Y0099671D01*
X0216916Y0098961D01*
X0216916Y0098687D01*
X0224174Y0098687D01*
X0224174Y0103172D01*
X0224345Y0103172D02*
X0224345Y0098687D01*
X0224174Y0098687D01*
X0224174Y0098515D01*
X0224345Y0098515D01*
X0224345Y0094029D01*
X0227391Y0094029D01*
X0228102Y0094142D01*
X0228786Y0094364D01*
X0229427Y0094691D01*
X0230009Y0095114D01*
X0230518Y0095623D01*
X0230941Y0096205D01*
X0231268Y0096846D01*
X0231490Y0097530D01*
X0231603Y0098241D01*
X0231603Y0098515D01*
X0224345Y0098515D01*
X0224345Y0098687D01*
X0231603Y0098687D01*
X0231603Y0098961D01*
X0231490Y0099671D01*
X0231268Y0100356D01*
X0230941Y0100997D01*
X0230518Y0101579D01*
X0230009Y0102088D01*
X0229427Y0102511D01*
X0228786Y0102837D01*
X0228102Y0103060D01*
X0227391Y0103172D01*
X0224345Y0103172D01*
X0224345Y0101606D02*
X0224174Y0101606D01*
X0224174Y0100008D02*
X0224345Y0100008D01*
X0224174Y0098515D02*
X0216916Y0098515D01*
X0216916Y0098241D01*
X0217029Y0097530D01*
X0217251Y0096846D01*
X0217578Y0096205D01*
X0218001Y0095623D01*
X0218510Y0095114D01*
X0219092Y0094691D01*
X0219733Y0094364D01*
X0220417Y0094142D01*
X0221128Y0094029D01*
X0224174Y0094029D01*
X0224174Y0098515D01*
X0224174Y0098409D02*
X0224345Y0098409D01*
X0224345Y0096811D02*
X0224174Y0096811D01*
X0224174Y0095212D02*
X0224345Y0095212D01*
X0230108Y0095212D02*
X0235247Y0095212D01*
X0235432Y0094765D02*
X0237337Y0092860D01*
X0239826Y0091829D01*
X0248063Y0091829D01*
X0250552Y0092860D01*
X0252457Y0094765D01*
X0253488Y0097254D01*
X0253488Y0099948D01*
X0252457Y0102437D01*
X0250552Y0104342D01*
X0248063Y0105372D01*
X0239826Y0105372D01*
X0237337Y0104342D01*
X0235432Y0102437D01*
X0234401Y0099948D01*
X0234401Y0097254D01*
X0235432Y0094765D01*
X0236583Y0093614D02*
X0199902Y0093614D01*
X0199902Y0095212D02*
X0218411Y0095212D01*
X0217269Y0096811D02*
X0199902Y0096811D01*
X0199902Y0098409D02*
X0216916Y0098409D01*
X0217138Y0100008D02*
X0199902Y0100008D01*
X0199902Y0101606D02*
X0218028Y0101606D01*
X0230491Y0101606D02*
X0235088Y0101606D01*
X0234426Y0100008D02*
X0231381Y0100008D01*
X0231603Y0098409D02*
X0234401Y0098409D01*
X0234585Y0096811D02*
X0231250Y0096811D01*
X0236200Y0103205D02*
X0199902Y0103205D01*
X0199902Y0104803D02*
X0238452Y0104803D01*
X0249437Y0104803D02*
X0272902Y0104803D01*
X0272902Y0103205D02*
X0251689Y0103205D01*
X0252801Y0101606D02*
X0272902Y0101606D01*
X0272902Y0100008D02*
X0253463Y0100008D01*
X0253488Y0098409D02*
X0272902Y0098409D01*
X0272902Y0096811D02*
X0253304Y0096811D01*
X0252642Y0095212D02*
X0272902Y0095212D01*
X0272902Y0093614D02*
X0251306Y0093614D01*
X0248512Y0092015D02*
X0272902Y0092015D01*
X0272902Y0090417D02*
X0199902Y0090417D01*
X0199902Y0092015D02*
X0239377Y0092015D01*
X0255244Y0114394D02*
X0272902Y0114394D01*
X0272902Y0112796D02*
X0199902Y0112796D01*
X0199902Y0114394D02*
X0208960Y0114394D01*
X0207396Y0115993D02*
X0199902Y0115993D01*
X0199902Y0117591D02*
X0206734Y0117591D01*
X0206354Y0119190D02*
X0199902Y0119190D01*
X0199902Y0120788D02*
X0206354Y0120788D01*
X0206807Y0122387D02*
X0199902Y0122387D01*
X0199902Y0123985D02*
X0207540Y0123985D01*
X0216354Y0129900D02*
X0195102Y0129900D01*
X0195102Y0082400D01*
X0190302Y0082400D02*
X0190236Y0081395D01*
X0189716Y0079453D01*
X0188711Y0077713D01*
X0187290Y0076291D01*
X0186183Y0075653D01*
X0185336Y0076500D01*
X0179868Y0076500D01*
X0178068Y0074700D01*
X0168236Y0074700D01*
X0168036Y0074900D01*
X0169297Y0076161D01*
X0170302Y0078587D01*
X0170302Y0081213D01*
X0169297Y0083639D01*
X0168036Y0084900D01*
X0169297Y0086161D01*
X0170302Y0088587D01*
X0170302Y0091213D01*
X0169297Y0093639D01*
X0168036Y0094900D01*
X0169297Y0096161D01*
X0170302Y0098587D01*
X0170302Y0101213D01*
X0169297Y0103639D01*
X0168036Y0104900D01*
X0169297Y0106161D01*
X0170302Y0108587D01*
X0170302Y0111213D01*
X0169297Y0113639D01*
X0168036Y0114900D01*
X0169297Y0116161D01*
X0170302Y0118587D01*
X0170302Y0121213D01*
X0169297Y0123639D01*
X0168036Y0124900D01*
X0169297Y0126161D01*
X0170302Y0128587D01*
X0170302Y0130100D01*
X0188502Y0130100D01*
X0188502Y0127166D01*
X0190302Y0125366D01*
X0190302Y0082400D01*
X0190302Y0082424D02*
X0169800Y0082424D01*
X0170302Y0080826D02*
X0190084Y0080826D01*
X0190236Y0081395D02*
X0190236Y0081395D01*
X0189585Y0079227D02*
X0170302Y0079227D01*
X0169905Y0077629D02*
X0188627Y0077629D01*
X0186837Y0076030D02*
X0185806Y0076030D01*
X0179398Y0076030D02*
X0169166Y0076030D01*
X0168913Y0084023D02*
X0190302Y0084023D01*
X0190302Y0085621D02*
X0168757Y0085621D01*
X0169736Y0087220D02*
X0190302Y0087220D01*
X0190302Y0088818D02*
X0170302Y0088818D01*
X0170302Y0090417D02*
X0190302Y0090417D01*
X0190302Y0092015D02*
X0169970Y0092015D01*
X0169308Y0093614D02*
X0190302Y0093614D01*
X0190302Y0095212D02*
X0168348Y0095212D01*
X0169566Y0096811D02*
X0190302Y0096811D01*
X0190302Y0098409D02*
X0170228Y0098409D01*
X0170302Y0100008D02*
X0190302Y0100008D01*
X0190302Y0101606D02*
X0170139Y0101606D01*
X0169477Y0103205D02*
X0190302Y0103205D01*
X0190302Y0104803D02*
X0168133Y0104803D01*
X0169397Y0106402D02*
X0190302Y0106402D01*
X0190302Y0108000D02*
X0170059Y0108000D01*
X0170302Y0109599D02*
X0190302Y0109599D01*
X0190302Y0111197D02*
X0170302Y0111197D01*
X0169646Y0112796D02*
X0190302Y0112796D01*
X0190302Y0114394D02*
X0168542Y0114394D01*
X0169129Y0115993D02*
X0190302Y0115993D01*
X0190302Y0117591D02*
X0169890Y0117591D01*
X0170302Y0119190D02*
X0190302Y0119190D01*
X0190302Y0120788D02*
X0170302Y0120788D01*
X0169816Y0122387D02*
X0190302Y0122387D01*
X0190302Y0123985D02*
X0168950Y0123985D01*
X0168720Y0125584D02*
X0190084Y0125584D01*
X0188502Y0127182D02*
X0169720Y0127182D01*
X0170302Y0128781D02*
X0188502Y0128781D01*
X0190102Y0134900D02*
X0190242Y0134898D01*
X0190382Y0134892D01*
X0190522Y0134882D01*
X0190662Y0134869D01*
X0190801Y0134851D01*
X0190940Y0134829D01*
X0191077Y0134804D01*
X0191215Y0134775D01*
X0191351Y0134742D01*
X0191486Y0134705D01*
X0191620Y0134664D01*
X0191753Y0134619D01*
X0191885Y0134571D01*
X0192015Y0134519D01*
X0192144Y0134464D01*
X0192271Y0134405D01*
X0192397Y0134342D01*
X0192521Y0134276D01*
X0192642Y0134207D01*
X0192762Y0134134D01*
X0192880Y0134057D01*
X0192995Y0133978D01*
X0193109Y0133895D01*
X0193219Y0133809D01*
X0193328Y0133720D01*
X0193434Y0133628D01*
X0193537Y0133533D01*
X0193638Y0133436D01*
X0193735Y0133335D01*
X0193830Y0133232D01*
X0193922Y0133126D01*
X0194011Y0133017D01*
X0194097Y0132907D01*
X0194180Y0132793D01*
X0194259Y0132678D01*
X0194336Y0132560D01*
X0194409Y0132440D01*
X0194478Y0132319D01*
X0194544Y0132195D01*
X0194607Y0132069D01*
X0194666Y0131942D01*
X0194721Y0131813D01*
X0194773Y0131683D01*
X0194821Y0131551D01*
X0194866Y0131418D01*
X0194907Y0131284D01*
X0194944Y0131149D01*
X0194977Y0131013D01*
X0195006Y0130875D01*
X0195031Y0130738D01*
X0195053Y0130599D01*
X0195071Y0130460D01*
X0195084Y0130320D01*
X0195094Y0130180D01*
X0195100Y0130040D01*
X0195102Y0129900D01*
X0199161Y0135175D02*
X0208730Y0135175D01*
X0209692Y0136773D02*
X0197222Y0136773D01*
X0197118Y0136916D02*
X0197118Y0136916D01*
X0197118Y0136916D01*
X0192415Y0146365D02*
X0175902Y0146365D01*
X0175902Y0147963D02*
X0190816Y0147963D01*
X0190702Y0149562D02*
X0175902Y0149562D01*
X0175902Y0151160D02*
X0190702Y0151160D01*
X0176247Y0167145D02*
X0272902Y0167145D01*
X0272902Y0165547D02*
X0175902Y0165547D01*
X0175902Y0163948D02*
X0272902Y0163948D01*
X0272902Y0162350D02*
X0175902Y0162350D01*
X0175902Y0160751D02*
X0272902Y0160751D01*
X0272902Y0159153D02*
X0175902Y0159153D01*
X0177371Y0168744D02*
X0272902Y0168744D01*
X0272902Y0170342D02*
X0178034Y0170342D01*
X0178102Y0171941D02*
X0272902Y0171941D01*
X0272902Y0173539D02*
X0178102Y0173539D01*
X0178102Y0175138D02*
X0272902Y0175138D01*
X0272902Y0176736D02*
X0178102Y0176736D01*
X0178102Y0178335D02*
X0272902Y0178335D01*
X0272902Y0179933D02*
X0177837Y0179933D01*
X0177174Y0181532D02*
X0272902Y0181532D01*
X0272902Y0183130D02*
X0175771Y0183130D01*
X0172908Y0184729D02*
X0272902Y0184729D01*
X0272902Y0186327D02*
X0145902Y0186327D01*
X0145902Y0184729D02*
X0159296Y0184729D01*
X0156433Y0183130D02*
X0145902Y0183130D01*
X0147174Y0181532D02*
X0147946Y0181532D01*
X0150902Y0181532D02*
X0151302Y0181532D01*
X0151302Y0179933D02*
X0150902Y0179933D01*
X0150902Y0178335D02*
X0151302Y0178335D01*
X0151302Y0176736D02*
X0150902Y0176736D01*
X0150902Y0175138D02*
X0151302Y0175138D01*
X0151302Y0174700D02*
X0151302Y0167100D01*
X0151480Y0167100D01*
X0152226Y0167218D01*
X0152945Y0167452D01*
X0153618Y0167795D01*
X0154229Y0168239D01*
X0154763Y0168773D01*
X0154800Y0168823D01*
X0155168Y0167935D01*
X0156302Y0166801D01*
X0156302Y0156133D01*
X0154763Y0155495D01*
X0152907Y0153639D01*
X0151902Y0151213D01*
X0151902Y0148587D01*
X0152907Y0146161D01*
X0154168Y0144900D01*
X0152907Y0143639D01*
X0151902Y0141213D01*
X0151902Y0139700D01*
X0146102Y0139700D01*
X0146071Y0139702D01*
X0146011Y0139722D01*
X0145961Y0139759D01*
X0145924Y0139809D01*
X0145905Y0139869D01*
X0145902Y0139900D01*
X0145902Y0166801D01*
X0147036Y0167935D01*
X0147404Y0168823D01*
X0147441Y0168773D01*
X0147975Y0168239D01*
X0148586Y0167795D01*
X0149259Y0167452D01*
X0149978Y0167218D01*
X0150724Y0167100D01*
X0150902Y0167100D01*
X0150902Y0174700D01*
X0151302Y0174700D01*
X0151302Y0173539D02*
X0150902Y0173539D01*
X0150902Y0171941D02*
X0151302Y0171941D01*
X0151302Y0170342D02*
X0150902Y0170342D01*
X0150902Y0168744D02*
X0151302Y0168744D01*
X0151302Y0167145D02*
X0150902Y0167145D01*
X0150439Y0167145D02*
X0146247Y0167145D01*
X0145902Y0165547D02*
X0156302Y0165547D01*
X0156302Y0163948D02*
X0145902Y0163948D01*
X0145902Y0162350D02*
X0156302Y0162350D01*
X0156302Y0160751D02*
X0145902Y0160751D01*
X0145902Y0159153D02*
X0156302Y0159153D01*
X0156302Y0157554D02*
X0145902Y0157554D01*
X0145902Y0155956D02*
X0155875Y0155956D01*
X0153625Y0154357D02*
X0145902Y0154357D01*
X0145902Y0152759D02*
X0152542Y0152759D01*
X0151902Y0151160D02*
X0145902Y0151160D01*
X0145902Y0149562D02*
X0151902Y0149562D01*
X0152161Y0147963D02*
X0145902Y0147963D01*
X0145902Y0146365D02*
X0152823Y0146365D01*
X0154034Y0144766D02*
X0145902Y0144766D01*
X0145902Y0143168D02*
X0152712Y0143168D01*
X0152050Y0141569D02*
X0145902Y0141569D01*
X0145902Y0139970D02*
X0151902Y0139970D01*
X0146102Y0134900D02*
X0145962Y0134902D01*
X0145822Y0134908D01*
X0145682Y0134918D01*
X0145542Y0134931D01*
X0145403Y0134949D01*
X0145264Y0134971D01*
X0145127Y0134996D01*
X0144989Y0135025D01*
X0144853Y0135058D01*
X0144718Y0135095D01*
X0144584Y0135136D01*
X0144451Y0135181D01*
X0144319Y0135229D01*
X0144189Y0135281D01*
X0144060Y0135336D01*
X0143933Y0135395D01*
X0143807Y0135458D01*
X0143683Y0135524D01*
X0143562Y0135593D01*
X0143442Y0135666D01*
X0143324Y0135743D01*
X0143209Y0135822D01*
X0143095Y0135905D01*
X0142985Y0135991D01*
X0142876Y0136080D01*
X0142770Y0136172D01*
X0142667Y0136267D01*
X0142566Y0136364D01*
X0142469Y0136465D01*
X0142374Y0136568D01*
X0142282Y0136674D01*
X0142193Y0136783D01*
X0142107Y0136893D01*
X0142024Y0137007D01*
X0141945Y0137122D01*
X0141868Y0137240D01*
X0141795Y0137360D01*
X0141726Y0137481D01*
X0141660Y0137605D01*
X0141597Y0137731D01*
X0141538Y0137858D01*
X0141483Y0137987D01*
X0141431Y0138117D01*
X0141383Y0138249D01*
X0141338Y0138382D01*
X0141297Y0138516D01*
X0141260Y0138651D01*
X0141227Y0138787D01*
X0141198Y0138925D01*
X0141173Y0139062D01*
X0141151Y0139201D01*
X0141133Y0139340D01*
X0141120Y0139480D01*
X0141110Y0139620D01*
X0141104Y0139760D01*
X0141102Y0139900D01*
X0141102Y0174900D01*
X0141102Y0194900D01*
X0146384Y0189524D02*
X0272902Y0189524D01*
X0272902Y0187926D02*
X0145902Y0187926D01*
X0146388Y0189526D02*
X0146388Y0189526D01*
X0148586Y0191123D02*
X0272902Y0191123D01*
X0272902Y0192721D02*
X0150101Y0192721D01*
X0149335Y0191667D02*
X0149335Y0191667D01*
X0149335Y0191667D01*
X0151263Y0194320D02*
X0272902Y0194320D01*
X0272902Y0195918D02*
X0151900Y0195918D01*
X0151476Y0194614D02*
X0151476Y0194614D01*
X0152420Y0197517D02*
X0272902Y0197517D01*
X0272902Y0199115D02*
X0152602Y0199115D01*
X0152602Y0200714D02*
X0272902Y0200714D01*
X0272902Y0202312D02*
X0152602Y0202312D01*
X0139984Y0215101D02*
X0132314Y0215101D01*
X0132874Y0216699D02*
X0142316Y0216699D01*
X0139330Y0213502D02*
X0130286Y0213502D01*
X0127874Y0211903D02*
X0139330Y0211903D01*
X0139330Y0210305D02*
X0127874Y0210305D01*
X0127874Y0208706D02*
X0139330Y0208706D01*
X0139330Y0207108D02*
X0127874Y0207108D01*
X0127484Y0205509D02*
X0139602Y0205509D01*
X0139602Y0203911D02*
X0126195Y0203911D01*
X0139602Y0202312D02*
X0097602Y0202312D01*
X0091102Y0199900D02*
X0092102Y0197900D01*
X0085304Y0195918D02*
X0041302Y0195918D01*
X0041302Y0194320D02*
X0085941Y0194320D01*
X0085728Y0194614D02*
X0085728Y0194614D01*
X0087103Y0192721D02*
X0041302Y0192721D01*
X0041302Y0191123D02*
X0088618Y0191123D01*
X0087869Y0191667D02*
X0087869Y0191667D01*
X0090816Y0189526D02*
X0090816Y0189526D01*
X0090820Y0189524D02*
X0041302Y0189524D01*
X0041302Y0187926D02*
X0136302Y0187926D01*
X0136302Y0186327D02*
X0113009Y0186327D01*
X0114607Y0184729D02*
X0129296Y0184729D01*
X0126433Y0183130D02*
X0116206Y0183130D01*
X0116702Y0181532D02*
X0125030Y0181532D01*
X0124368Y0179933D02*
X0116702Y0179933D01*
X0116702Y0178335D02*
X0124102Y0178335D01*
X0124102Y0176736D02*
X0116272Y0176736D01*
X0114674Y0175138D02*
X0124102Y0175138D01*
X0124102Y0173539D02*
X0113075Y0173539D01*
X0109156Y0171941D02*
X0124102Y0171941D01*
X0124171Y0170342D02*
X0107635Y0170342D01*
X0106115Y0168744D02*
X0124833Y0168744D01*
X0125957Y0167145D02*
X0104594Y0167145D01*
X0103074Y0165547D02*
X0126302Y0165547D01*
X0126302Y0163948D02*
X0101553Y0163948D01*
X0100033Y0162350D02*
X0126302Y0162350D01*
X0126302Y0160751D02*
X0098512Y0160751D01*
X0096991Y0159153D02*
X0126302Y0159153D01*
X0126302Y0157554D02*
X0095471Y0157554D01*
X0095402Y0155956D02*
X0125875Y0155956D01*
X0123625Y0154357D02*
X0098062Y0154357D01*
X0099371Y0152759D02*
X0122542Y0152759D01*
X0121902Y0151160D02*
X0100033Y0151160D01*
X0100202Y0149562D02*
X0119227Y0149562D01*
X0115870Y0147963D02*
X0100167Y0147963D01*
X0099505Y0146365D02*
X0107233Y0146365D01*
X0105634Y0144766D02*
X0098385Y0144766D01*
X0099202Y0143168D02*
X0104036Y0143168D01*
X0103502Y0141569D02*
X0099864Y0141569D01*
X0100202Y0139970D02*
X0103502Y0139970D01*
X0103502Y0138372D02*
X0100202Y0138372D01*
X0099674Y0136773D02*
X0103895Y0136773D01*
X0105493Y0135175D02*
X0098794Y0135175D01*
X0097112Y0133576D02*
X0107092Y0133576D01*
X0113112Y0133576D02*
X0122881Y0133576D01*
X0123893Y0135175D02*
X0114711Y0135175D01*
X0116309Y0136773D02*
X0122653Y0136773D01*
X0121991Y0138372D02*
X0118058Y0138372D01*
X0121415Y0139970D02*
X0121902Y0139970D01*
X0110102Y0139900D02*
X0131102Y0149900D01*
X0131102Y0174900D01*
X0135771Y0183130D02*
X0136302Y0183130D01*
X0136302Y0184729D02*
X0132908Y0184729D01*
X0147371Y0168744D02*
X0147470Y0168744D01*
X0151765Y0167145D02*
X0155957Y0167145D01*
X0154833Y0168744D02*
X0154734Y0168744D01*
X0161102Y0174900D02*
X0161102Y0149900D01*
X0166102Y0139900D02*
X0166242Y0139902D01*
X0166382Y0139908D01*
X0166522Y0139918D01*
X0166662Y0139931D01*
X0166801Y0139949D01*
X0166940Y0139971D01*
X0167077Y0139996D01*
X0167215Y0140025D01*
X0167351Y0140058D01*
X0167486Y0140095D01*
X0167620Y0140136D01*
X0167753Y0140181D01*
X0167885Y0140229D01*
X0168015Y0140281D01*
X0168144Y0140336D01*
X0168271Y0140395D01*
X0168397Y0140458D01*
X0168521Y0140524D01*
X0168642Y0140593D01*
X0168762Y0140666D01*
X0168880Y0140743D01*
X0168995Y0140822D01*
X0169109Y0140905D01*
X0169219Y0140991D01*
X0169328Y0141080D01*
X0169434Y0141172D01*
X0169537Y0141267D01*
X0169638Y0141364D01*
X0169735Y0141465D01*
X0169830Y0141568D01*
X0169922Y0141674D01*
X0170011Y0141783D01*
X0170097Y0141893D01*
X0170180Y0142007D01*
X0170259Y0142122D01*
X0170336Y0142240D01*
X0170409Y0142360D01*
X0170478Y0142481D01*
X0170544Y0142605D01*
X0170607Y0142731D01*
X0170666Y0142858D01*
X0170721Y0142987D01*
X0170773Y0143117D01*
X0170821Y0143249D01*
X0170866Y0143382D01*
X0170907Y0143516D01*
X0170944Y0143651D01*
X0170977Y0143787D01*
X0171006Y0143925D01*
X0171031Y0144062D01*
X0171053Y0144201D01*
X0171071Y0144340D01*
X0171084Y0144480D01*
X0171094Y0144620D01*
X0171100Y0144760D01*
X0171102Y0144900D01*
X0171102Y0174900D01*
X0166433Y0183130D02*
X0165771Y0183130D01*
X0162908Y0184729D02*
X0169296Y0184729D01*
X0155030Y0181532D02*
X0154258Y0181532D01*
X0181195Y0203911D02*
X0272902Y0203911D01*
X0272902Y0205509D02*
X0182484Y0205509D01*
X0182874Y0207108D02*
X0272902Y0207108D01*
X0272902Y0208706D02*
X0182874Y0208706D01*
X0182874Y0210305D02*
X0272902Y0210305D01*
X0272902Y0211903D02*
X0182874Y0211903D01*
X0185286Y0213502D02*
X0272902Y0213502D01*
X0272902Y0215101D02*
X0187314Y0215101D01*
X0187874Y0216699D02*
X0272902Y0216699D01*
X0272902Y0218298D02*
X0187874Y0218298D01*
X0187874Y0219896D02*
X0272902Y0219896D01*
X0272902Y0221495D02*
X0187874Y0221495D01*
X0187874Y0223093D02*
X0272902Y0223093D01*
X0272902Y0224692D02*
X0187416Y0224692D01*
X0185876Y0226290D02*
X0272902Y0226290D01*
X0272902Y0227889D02*
X0041302Y0227889D01*
X0041302Y0229487D02*
X0272902Y0229487D01*
X0272902Y0231086D02*
X0041302Y0231086D01*
X0041302Y0232684D02*
X0272902Y0232684D01*
X0272902Y0234283D02*
X0189301Y0234283D01*
X0190424Y0234584D02*
X0187576Y0233820D01*
X0184628Y0233820D01*
X0181780Y0234584D01*
X0179227Y0236058D01*
X0177142Y0238143D01*
X0175668Y0240696D01*
X0174904Y0243544D01*
X0174904Y0246492D01*
X0175668Y0249340D01*
X0177142Y0251894D01*
X0179227Y0253978D01*
X0181780Y0255453D01*
X0184628Y0256216D01*
X0187576Y0256216D01*
X0188507Y0255966D01*
X0188507Y0258646D01*
X0189747Y0261641D01*
X0192039Y0263932D01*
X0195033Y0265172D01*
X0198274Y0265172D01*
X0201268Y0263932D01*
X0203559Y0261641D01*
X0204800Y0258646D01*
X0204800Y0255406D01*
X0203559Y0252411D01*
X0201268Y0250120D01*
X0198274Y0248880D01*
X0196660Y0248880D01*
X0197300Y0246492D01*
X0197300Y0243544D01*
X0196537Y0240696D01*
X0195062Y0238143D01*
X0192978Y0236058D01*
X0190424Y0234584D01*
X0192672Y0235881D02*
X0272902Y0235881D01*
X0272902Y0237480D02*
X0194399Y0237480D01*
X0195603Y0239078D02*
X0272902Y0239078D01*
X0272902Y0240677D02*
X0196525Y0240677D01*
X0196960Y0242275D02*
X0272902Y0242275D01*
X0272902Y0243874D02*
X0197300Y0243874D01*
X0197300Y0245472D02*
X0272902Y0245472D01*
X0272902Y0247071D02*
X0197145Y0247071D01*
X0196716Y0248669D02*
X0272902Y0248669D01*
X0272902Y0250268D02*
X0201416Y0250268D01*
X0203014Y0251866D02*
X0272902Y0251866D01*
X0272902Y0253465D02*
X0203996Y0253465D01*
X0204658Y0255063D02*
X0272902Y0255063D01*
X0272902Y0256662D02*
X0204800Y0256662D01*
X0204800Y0258260D02*
X0272902Y0258260D01*
X0272902Y0259859D02*
X0204298Y0259859D01*
X0203635Y0261457D02*
X0272902Y0261457D01*
X0272902Y0263056D02*
X0202144Y0263056D01*
X0199524Y0264654D02*
X0272902Y0264654D01*
X0272902Y0266253D02*
X0041302Y0266253D01*
X0041302Y0267851D02*
X0272902Y0267851D01*
X0272902Y0269450D02*
X0041302Y0269450D01*
X0041302Y0271048D02*
X0272902Y0271048D01*
X0272902Y0272647D02*
X0041302Y0272647D01*
X0041302Y0274245D02*
X0272902Y0274245D01*
X0272902Y0275844D02*
X0041302Y0275844D01*
X0041302Y0277442D02*
X0272902Y0277442D01*
X0272902Y0279041D02*
X0041302Y0279041D01*
X0041302Y0264654D02*
X0072680Y0264654D01*
X0073930Y0265172D02*
X0070936Y0263932D01*
X0068645Y0261641D01*
X0067404Y0258646D01*
X0067404Y0255406D01*
X0068645Y0252411D01*
X0070936Y0250120D01*
X0073930Y0248880D01*
X0075544Y0248880D01*
X0074904Y0246492D01*
X0074904Y0243544D01*
X0075668Y0240696D01*
X0077142Y0238143D01*
X0079227Y0236058D01*
X0081780Y0234584D01*
X0084628Y0233820D01*
X0087576Y0233820D01*
X0090424Y0234584D01*
X0092978Y0236058D01*
X0095062Y0238143D01*
X0096537Y0240696D01*
X0097300Y0243544D01*
X0097300Y0246492D01*
X0096537Y0249340D01*
X0095062Y0251894D01*
X0092978Y0253978D01*
X0090424Y0255453D01*
X0087576Y0256216D01*
X0084628Y0256216D01*
X0083697Y0255966D01*
X0083697Y0258646D01*
X0082457Y0261641D01*
X0080165Y0263932D01*
X0077171Y0265172D01*
X0073930Y0265172D01*
X0070060Y0263056D02*
X0041302Y0263056D01*
X0041302Y0261457D02*
X0068569Y0261457D01*
X0067907Y0259859D02*
X0041302Y0259859D01*
X0041302Y0258260D02*
X0067404Y0258260D01*
X0067404Y0256662D02*
X0041302Y0256662D01*
X0041302Y0255063D02*
X0067546Y0255063D01*
X0068208Y0253465D02*
X0041302Y0253465D01*
X0041302Y0251866D02*
X0069190Y0251866D01*
X0070788Y0250268D02*
X0041302Y0250268D01*
X0041302Y0248669D02*
X0075488Y0248669D01*
X0075059Y0247071D02*
X0041302Y0247071D01*
X0041302Y0245472D02*
X0074904Y0245472D01*
X0074904Y0243874D02*
X0041302Y0243874D01*
X0041302Y0242275D02*
X0075244Y0242275D01*
X0075679Y0240677D02*
X0041302Y0240677D01*
X0041302Y0239078D02*
X0076602Y0239078D01*
X0077805Y0237480D02*
X0041302Y0237480D01*
X0041302Y0235881D02*
X0079532Y0235881D01*
X0082903Y0234283D02*
X0041302Y0234283D01*
X0041302Y0226290D02*
X0101328Y0226290D01*
X0099789Y0224692D02*
X0041302Y0224692D01*
X0041302Y0223093D02*
X0091548Y0223093D01*
X0091530Y0223027D02*
X0091530Y0220104D01*
X0096016Y0220104D01*
X0096016Y0224590D01*
X0093093Y0224590D01*
X0092636Y0224467D01*
X0092225Y0224230D01*
X0091890Y0223895D01*
X0091653Y0223485D01*
X0091530Y0223027D01*
X0091530Y0221495D02*
X0041302Y0221495D01*
X0041302Y0219896D02*
X0091530Y0219896D01*
X0091530Y0218298D02*
X0041302Y0218298D01*
X0041302Y0216699D02*
X0087316Y0216699D01*
X0084984Y0215101D02*
X0069235Y0215101D01*
X0065220Y0210018D02*
X0091102Y0210018D01*
X0084602Y0203911D02*
X0068447Y0203911D01*
X0061757Y0203911D02*
X0041302Y0203911D01*
X0041302Y0205509D02*
X0060159Y0205509D01*
X0058560Y0207108D02*
X0041302Y0207108D01*
X0041302Y0208706D02*
X0058502Y0208706D01*
X0058502Y0210305D02*
X0041302Y0210305D01*
X0041302Y0211903D02*
X0058502Y0211903D01*
X0059370Y0213502D02*
X0041302Y0213502D01*
X0041302Y0215101D02*
X0060969Y0215101D01*
X0065220Y0210018D02*
X0065200Y0210016D01*
X0065180Y0210011D01*
X0065161Y0210002D01*
X0065144Y0209990D01*
X0065130Y0209976D01*
X0065118Y0209959D01*
X0065109Y0209940D01*
X0065104Y0209920D01*
X0065102Y0209900D01*
X0084602Y0202312D02*
X0041302Y0202312D01*
X0041302Y0200714D02*
X0084602Y0200714D01*
X0084602Y0199115D02*
X0041302Y0199115D01*
X0041302Y0197517D02*
X0084785Y0197517D01*
X0101988Y0178335D02*
X0041302Y0178335D01*
X0041302Y0179933D02*
X0103502Y0179933D01*
X0103502Y0181532D02*
X0041302Y0181532D01*
X0041302Y0183130D02*
X0103999Y0183130D01*
X0105597Y0184729D02*
X0041302Y0184729D01*
X0041302Y0186327D02*
X0107196Y0186327D01*
X0110102Y0179900D02*
X0090602Y0159400D01*
X0065102Y0169900D01*
X0060122Y0165547D02*
X0041302Y0165547D01*
X0041302Y0167145D02*
X0058523Y0167145D01*
X0058502Y0168744D02*
X0041302Y0168744D01*
X0041302Y0170342D02*
X0058502Y0170342D01*
X0058502Y0171941D02*
X0041302Y0171941D01*
X0041302Y0173539D02*
X0059407Y0173539D01*
X0061006Y0175138D02*
X0041302Y0175138D01*
X0041302Y0176736D02*
X0100468Y0176736D01*
X0098947Y0175138D02*
X0069198Y0175138D01*
X0070797Y0173539D02*
X0097427Y0173539D01*
X0095906Y0171941D02*
X0072753Y0171941D01*
X0076635Y0170342D02*
X0094386Y0170342D01*
X0092865Y0168744D02*
X0080517Y0168744D01*
X0084399Y0167145D02*
X0091345Y0167145D01*
X0089824Y0165547D02*
X0088281Y0165547D01*
X0090602Y0159400D02*
X0090602Y0149400D01*
X0085802Y0155956D02*
X0041302Y0155956D01*
X0041302Y0157554D02*
X0082478Y0157554D01*
X0083143Y0154357D02*
X0041302Y0154357D01*
X0041302Y0159153D02*
X0078596Y0159153D01*
X0074714Y0160751D02*
X0041302Y0160751D01*
X0041302Y0162350D02*
X0070832Y0162350D01*
X0061720Y0163948D02*
X0041302Y0163948D01*
X0041302Y0136773D02*
X0042437Y0136773D01*
X0041302Y0122387D02*
X0043981Y0122387D01*
X0041302Y0104803D02*
X0046802Y0104803D01*
X0046802Y0103205D02*
X0041302Y0103205D01*
X0041302Y0101606D02*
X0046802Y0101606D01*
X0046802Y0100008D02*
X0041302Y0100008D01*
X0041302Y0098409D02*
X0046802Y0098409D01*
X0046802Y0096811D02*
X0041302Y0096811D01*
X0041302Y0095212D02*
X0046802Y0095212D01*
X0046802Y0093614D02*
X0041302Y0093614D01*
X0041302Y0092015D02*
X0046802Y0092015D01*
X0046802Y0090417D02*
X0041302Y0090417D01*
X0041302Y0088818D02*
X0046802Y0088818D01*
X0046802Y0087220D02*
X0041302Y0087220D01*
X0041302Y0085621D02*
X0046802Y0085621D01*
X0046802Y0084023D02*
X0041302Y0084023D01*
X0041302Y0082424D02*
X0046802Y0082424D01*
X0046802Y0080826D02*
X0041302Y0080826D01*
X0041302Y0079227D02*
X0046802Y0079227D01*
X0046802Y0077629D02*
X0041302Y0077629D01*
X0041302Y0076030D02*
X0046802Y0076030D01*
X0046802Y0074432D02*
X0041302Y0074432D01*
X0041302Y0072833D02*
X0046802Y0072833D01*
X0046802Y0071234D02*
X0041302Y0071234D01*
X0041302Y0069636D02*
X0046802Y0069636D01*
X0046802Y0068037D02*
X0041302Y0068037D01*
X0041302Y0066439D02*
X0046802Y0066439D01*
X0046802Y0064840D02*
X0041302Y0064840D01*
X0041302Y0063242D02*
X0046802Y0063242D01*
X0046802Y0061643D02*
X0041302Y0061643D01*
X0041302Y0060045D02*
X0046802Y0060045D01*
X0046802Y0058446D02*
X0041302Y0058446D01*
X0041302Y0056848D02*
X0046802Y0056848D01*
X0046802Y0055249D02*
X0041302Y0055249D01*
X0041302Y0053651D02*
X0046802Y0053651D01*
X0046802Y0052052D02*
X0041302Y0052052D01*
X0041302Y0050454D02*
X0046802Y0050454D01*
X0046802Y0048855D02*
X0041302Y0048855D01*
X0041302Y0047257D02*
X0046802Y0047257D01*
X0046802Y0045658D02*
X0041302Y0045658D01*
X0041302Y0044060D02*
X0046802Y0044060D01*
X0046802Y0042461D02*
X0041302Y0042461D01*
X0041302Y0040863D02*
X0046802Y0040863D01*
X0046802Y0039264D02*
X0041302Y0039264D01*
X0041302Y0037666D02*
X0046802Y0037666D01*
X0046802Y0036067D02*
X0041302Y0036067D01*
X0041302Y0034469D02*
X0046802Y0034469D01*
X0046802Y0032870D02*
X0041302Y0032870D01*
X0041302Y0031272D02*
X0046802Y0031272D01*
X0046802Y0029673D02*
X0041302Y0029673D01*
X0041302Y0028075D02*
X0046802Y0028075D01*
X0046802Y0026476D02*
X0041302Y0026476D01*
X0041302Y0024878D02*
X0046802Y0024878D01*
X0046147Y0023279D02*
X0041302Y0023279D01*
X0041302Y0021681D02*
X0045002Y0021681D01*
X0045002Y0020082D02*
X0041302Y0020082D01*
X0041302Y0018484D02*
X0045002Y0018484D01*
X0045002Y0016885D02*
X0041302Y0016885D01*
X0041302Y0015287D02*
X0046382Y0015287D01*
X0047980Y0013688D02*
X0041302Y0013688D01*
X0041302Y0012090D02*
X0272902Y0012090D01*
X0272902Y0013688D02*
X0165952Y0013688D01*
X0168422Y0015287D02*
X0272902Y0015287D01*
X0272902Y0016885D02*
X0169597Y0016885D01*
X0170259Y0018484D02*
X0272902Y0018484D01*
X0272902Y0020082D02*
X0170302Y0020082D01*
X0170108Y0021681D02*
X0272902Y0021681D01*
X0272902Y0023279D02*
X0169446Y0023279D01*
X0168058Y0024878D02*
X0272902Y0024878D01*
X0272902Y0026476D02*
X0169428Y0026476D01*
X0170090Y0028075D02*
X0272902Y0028075D01*
X0272902Y0029673D02*
X0170302Y0029673D01*
X0170278Y0031272D02*
X0272902Y0031272D01*
X0272902Y0032870D02*
X0169616Y0032870D01*
X0168467Y0034469D02*
X0272902Y0034469D01*
X0272902Y0036067D02*
X0169203Y0036067D01*
X0169920Y0037666D02*
X0272902Y0037666D01*
X0272902Y0039264D02*
X0170302Y0039264D01*
X0170302Y0040863D02*
X0272902Y0040863D01*
X0272902Y0042461D02*
X0169785Y0042461D01*
X0168876Y0044060D02*
X0272902Y0044060D01*
X0272902Y0045658D02*
X0184583Y0045658D01*
X0184425Y0045500D02*
X0187002Y0048077D01*
X0187002Y0049900D01*
X0187002Y0051723D01*
X0184425Y0054300D01*
X0182602Y0054300D01*
X0180780Y0054300D01*
X0178202Y0051723D01*
X0178202Y0049900D01*
X0182602Y0049900D01*
X0182602Y0049900D01*
X0178202Y0049900D01*
X0178202Y0048077D01*
X0180780Y0045500D01*
X0182602Y0045500D01*
X0182602Y0049900D01*
X0182602Y0054300D01*
X0182602Y0049900D01*
X0182602Y0049900D01*
X0182602Y0049900D01*
X0182602Y0045500D01*
X0184425Y0045500D01*
X0182602Y0045658D02*
X0182602Y0045658D01*
X0182602Y0047257D02*
X0182602Y0047257D01*
X0182602Y0048855D02*
X0182602Y0048855D01*
X0182602Y0049900D02*
X0182602Y0049900D01*
X0187002Y0049900D01*
X0182602Y0049900D01*
X0182602Y0050454D02*
X0182602Y0050454D01*
X0182602Y0052052D02*
X0182602Y0052052D01*
X0182602Y0053651D02*
X0182602Y0053651D01*
X0180130Y0053651D02*
X0169285Y0053651D01*
X0169954Y0052052D02*
X0178532Y0052052D01*
X0178202Y0050454D02*
X0170302Y0050454D01*
X0170302Y0048855D02*
X0178202Y0048855D01*
X0179023Y0047257D02*
X0169751Y0047257D01*
X0168794Y0045658D02*
X0180621Y0045658D01*
X0186181Y0047257D02*
X0272902Y0047257D01*
X0272902Y0048855D02*
X0187002Y0048855D01*
X0187002Y0050454D02*
X0272902Y0050454D01*
X0272902Y0052052D02*
X0186672Y0052052D01*
X0185074Y0053651D02*
X0272902Y0053651D01*
X0272902Y0055249D02*
X0167686Y0055249D01*
X0166873Y0056848D02*
X0272902Y0056848D01*
X0272902Y0058446D02*
X0167856Y0058446D01*
X0168102Y0059900D02*
X0161102Y0059900D01*
X0168102Y0059900D01*
X0168102Y0060045D02*
X0272902Y0060045D01*
X0272902Y0061643D02*
X0167752Y0061643D01*
X0166583Y0063242D02*
X0272902Y0063242D01*
X0272902Y0064840D02*
X0186876Y0064840D01*
X0189280Y0066279D02*
X0189280Y0066279D01*
X0189557Y0066439D02*
X0272902Y0066439D01*
X0272902Y0068037D02*
X0192325Y0068037D01*
X0194304Y0069636D02*
X0272902Y0069636D01*
X0272902Y0071234D02*
X0195902Y0071234D01*
X0196445Y0071778D02*
X0196445Y0071778D01*
X0197055Y0072833D02*
X0272902Y0072833D01*
X0272902Y0074432D02*
X0197978Y0074432D01*
X0198805Y0076030D02*
X0272902Y0076030D01*
X0272902Y0077629D02*
X0199234Y0077629D01*
X0199662Y0079227D02*
X0272902Y0079227D01*
X0272902Y0080826D02*
X0199902Y0080826D01*
X0199902Y0082424D02*
X0272902Y0082424D01*
X0272902Y0084023D02*
X0199902Y0084023D01*
X0199902Y0085621D02*
X0272902Y0085621D01*
X0272902Y0087220D02*
X0199902Y0087220D01*
X0199902Y0088818D02*
X0272902Y0088818D01*
X0272902Y0106402D02*
X0199902Y0106402D01*
X0199902Y0108000D02*
X0272902Y0108000D01*
X0272902Y0109599D02*
X0199902Y0109599D01*
X0199902Y0111197D02*
X0272902Y0111197D01*
X0272902Y0115993D02*
X0256808Y0115993D01*
X0257471Y0117591D02*
X0272902Y0117591D01*
X0272902Y0119190D02*
X0257850Y0119190D01*
X0257850Y0120788D02*
X0272902Y0120788D01*
X0272902Y0122387D02*
X0269223Y0122387D01*
X0272151Y0123985D02*
X0272902Y0123985D01*
X0264981Y0122387D02*
X0257397Y0122387D01*
X0256664Y0123985D02*
X0262053Y0123985D01*
X0260498Y0125584D02*
X0256433Y0125584D01*
X0257301Y0127182D02*
X0259836Y0127182D01*
X0259349Y0128781D02*
X0257850Y0128781D01*
X0257850Y0130379D02*
X0259349Y0130379D01*
X0259571Y0131978D02*
X0257566Y0131978D01*
X0256904Y0133576D02*
X0260233Y0133576D01*
X0261413Y0135175D02*
X0256025Y0135175D01*
X0257132Y0136773D02*
X0263437Y0136773D01*
X0257794Y0138372D02*
X0272902Y0138372D01*
X0272902Y0139970D02*
X0257850Y0139970D01*
X0257736Y0141569D02*
X0272902Y0141569D01*
X0272902Y0143168D02*
X0257073Y0143168D01*
X0255884Y0144766D02*
X0272902Y0144766D01*
X0272902Y0146365D02*
X0254103Y0146365D01*
X0255250Y0147963D02*
X0272902Y0147963D01*
X0272902Y0149562D02*
X0255650Y0149562D01*
X0255650Y0149900D02*
X0247850Y0149900D01*
X0247850Y0154700D01*
X0247850Y0149900D01*
X0247850Y0149900D01*
X0255650Y0149900D01*
X0255488Y0151160D02*
X0272902Y0151160D01*
X0272902Y0152759D02*
X0254706Y0152759D01*
X0252666Y0154357D02*
X0272902Y0154357D01*
X0272902Y0136773D02*
X0270767Y0136773D01*
X0272791Y0135175D02*
X0272902Y0135175D01*
X0247850Y0149900D02*
X0247850Y0149900D01*
X0247850Y0151160D02*
X0247850Y0151160D01*
X0247850Y0152759D02*
X0247850Y0152759D01*
X0247850Y0154357D02*
X0247850Y0154357D01*
X0195102Y0082400D02*
X0195098Y0082098D01*
X0195087Y0081796D01*
X0195069Y0081495D01*
X0195044Y0081194D01*
X0195011Y0080893D01*
X0194971Y0080594D01*
X0194924Y0080296D01*
X0194869Y0079998D01*
X0194808Y0079703D01*
X0194739Y0079409D01*
X0194663Y0079116D01*
X0194580Y0078826D01*
X0194490Y0078537D01*
X0194393Y0078251D01*
X0194290Y0077967D01*
X0194179Y0077686D01*
X0194062Y0077408D01*
X0193938Y0077132D01*
X0193807Y0076860D01*
X0193670Y0076591D01*
X0193527Y0076325D01*
X0193377Y0076063D01*
X0193220Y0075804D01*
X0193058Y0075550D01*
X0192889Y0075299D01*
X0192715Y0075053D01*
X0192534Y0074810D01*
X0192348Y0074573D01*
X0192156Y0074339D01*
X0191958Y0074111D01*
X0191755Y0073887D01*
X0191547Y0073669D01*
X0191333Y0073455D01*
X0191115Y0073247D01*
X0190891Y0073044D01*
X0190663Y0072846D01*
X0190429Y0072654D01*
X0190192Y0072468D01*
X0189949Y0072287D01*
X0189703Y0072113D01*
X0189452Y0071944D01*
X0189198Y0071782D01*
X0188939Y0071625D01*
X0188677Y0071475D01*
X0188411Y0071332D01*
X0188142Y0071195D01*
X0187870Y0071064D01*
X0187594Y0070940D01*
X0187316Y0070823D01*
X0187035Y0070712D01*
X0186751Y0070609D01*
X0186465Y0070512D01*
X0186176Y0070422D01*
X0185886Y0070339D01*
X0185593Y0070263D01*
X0185299Y0070194D01*
X0185004Y0070133D01*
X0184706Y0070078D01*
X0184408Y0070031D01*
X0184109Y0069991D01*
X0183808Y0069958D01*
X0183507Y0069933D01*
X0183206Y0069915D01*
X0182904Y0069904D01*
X0182602Y0069900D01*
X0161102Y0069900D01*
X0167976Y0064840D02*
X0178328Y0064840D01*
X0161102Y0059900D02*
X0161102Y0059900D01*
X0152299Y0077629D02*
X0137483Y0077629D01*
X0138050Y0079227D02*
X0151902Y0079227D01*
X0151902Y0080826D02*
X0138010Y0080826D01*
X0137307Y0082424D02*
X0152404Y0082424D01*
X0131102Y0099900D02*
X0116102Y0103400D01*
X0140302Y0130379D02*
X0143690Y0130379D01*
X0140333Y0131978D02*
X0139985Y0131978D01*
X0161102Y0139900D02*
X0166102Y0139900D01*
X0146530Y0218298D02*
X0132874Y0218298D01*
X0132874Y0219896D02*
X0146530Y0219896D01*
X0146530Y0220104D02*
X0151016Y0220104D01*
X0151016Y0224590D01*
X0148093Y0224590D01*
X0147636Y0224467D01*
X0147225Y0224230D01*
X0146890Y0223895D01*
X0146653Y0223485D01*
X0146530Y0223027D01*
X0146530Y0220104D01*
X0146530Y0221495D02*
X0132874Y0221495D01*
X0132874Y0223093D02*
X0146548Y0223093D01*
X0151016Y0223093D02*
X0151188Y0223093D01*
X0151188Y0221495D02*
X0151016Y0221495D01*
X0154789Y0224692D02*
X0132416Y0224692D01*
X0130876Y0226290D02*
X0156328Y0226290D01*
X0165876Y0226290D02*
X0176328Y0226290D01*
X0174789Y0224692D02*
X0167416Y0224692D01*
X0171016Y0223093D02*
X0171188Y0223093D01*
X0171188Y0221495D02*
X0171016Y0221495D01*
X0179532Y0235881D02*
X0092672Y0235881D01*
X0094399Y0237480D02*
X0177805Y0237480D01*
X0176602Y0239078D02*
X0095603Y0239078D01*
X0096525Y0240677D02*
X0175679Y0240677D01*
X0175244Y0242275D02*
X0096960Y0242275D01*
X0097300Y0243874D02*
X0174904Y0243874D01*
X0174904Y0245472D02*
X0097300Y0245472D01*
X0097145Y0247071D02*
X0175059Y0247071D01*
X0175488Y0248669D02*
X0096716Y0248669D01*
X0096001Y0250268D02*
X0176203Y0250268D01*
X0177126Y0251866D02*
X0095078Y0251866D01*
X0093491Y0253465D02*
X0178713Y0253465D01*
X0181106Y0255063D02*
X0091099Y0255063D01*
X0083697Y0256662D02*
X0188507Y0256662D01*
X0188507Y0258260D02*
X0083697Y0258260D01*
X0083195Y0259859D02*
X0189009Y0259859D01*
X0189671Y0261457D02*
X0082533Y0261457D01*
X0081042Y0263056D02*
X0191162Y0263056D01*
X0193782Y0264654D02*
X0078422Y0264654D01*
X0089301Y0234283D02*
X0182903Y0234283D01*
X0121328Y0226290D02*
X0110876Y0226290D01*
X0112416Y0224692D02*
X0119789Y0224692D01*
X0116188Y0223093D02*
X0116016Y0223093D01*
X0116016Y0221495D02*
X0116188Y0221495D01*
X0096188Y0221495D02*
X0096016Y0221495D01*
X0096016Y0223093D02*
X0096188Y0223093D01*
X0074207Y0079227D02*
X0056402Y0079227D01*
X0056402Y0077629D02*
X0072608Y0077629D01*
X0071702Y0076030D02*
X0056402Y0076030D01*
X0056402Y0074432D02*
X0071702Y0074432D01*
X0071947Y0072833D02*
X0056402Y0072833D01*
X0041302Y0010491D02*
X0272902Y0010491D01*
X0272902Y0008893D02*
X0041302Y0008893D01*
X0041302Y0007294D02*
X0272902Y0007294D01*
D20*
X0141102Y0194900D02*
X0096102Y0194900D01*
X0095962Y0194902D01*
X0095822Y0194908D01*
X0095682Y0194918D01*
X0095542Y0194931D01*
X0095403Y0194949D01*
X0095264Y0194971D01*
X0095127Y0194996D01*
X0094989Y0195025D01*
X0094853Y0195058D01*
X0094718Y0195095D01*
X0094584Y0195136D01*
X0094451Y0195181D01*
X0094319Y0195229D01*
X0094189Y0195281D01*
X0094060Y0195336D01*
X0093933Y0195395D01*
X0093807Y0195458D01*
X0093683Y0195524D01*
X0093562Y0195593D01*
X0093442Y0195666D01*
X0093324Y0195743D01*
X0093209Y0195822D01*
X0093095Y0195905D01*
X0092985Y0195991D01*
X0092876Y0196080D01*
X0092770Y0196172D01*
X0092667Y0196267D01*
X0092566Y0196364D01*
X0092469Y0196465D01*
X0092374Y0196568D01*
X0092282Y0196674D01*
X0092193Y0196783D01*
X0092107Y0196893D01*
X0092024Y0197007D01*
X0091945Y0197122D01*
X0091868Y0197240D01*
X0091795Y0197360D01*
X0091726Y0197481D01*
X0091660Y0197605D01*
X0091597Y0197731D01*
X0091538Y0197858D01*
X0091483Y0197987D01*
X0091431Y0198117D01*
X0091383Y0198249D01*
X0091338Y0198382D01*
X0091297Y0198516D01*
X0091260Y0198651D01*
X0091227Y0198787D01*
X0091198Y0198925D01*
X0091173Y0199062D01*
X0091151Y0199201D01*
X0091133Y0199340D01*
X0091120Y0199480D01*
X0091110Y0199620D01*
X0091104Y0199760D01*
X0091102Y0199900D01*
X0091102Y0210018D01*
X0141102Y0194900D02*
X0141242Y0194902D01*
X0141382Y0194908D01*
X0141522Y0194918D01*
X0141662Y0194931D01*
X0141801Y0194949D01*
X0141940Y0194971D01*
X0142077Y0194996D01*
X0142215Y0195025D01*
X0142351Y0195058D01*
X0142486Y0195095D01*
X0142620Y0195136D01*
X0142753Y0195181D01*
X0142885Y0195229D01*
X0143015Y0195281D01*
X0143144Y0195336D01*
X0143271Y0195395D01*
X0143397Y0195458D01*
X0143521Y0195524D01*
X0143642Y0195593D01*
X0143762Y0195666D01*
X0143880Y0195743D01*
X0143995Y0195822D01*
X0144109Y0195905D01*
X0144219Y0195991D01*
X0144328Y0196080D01*
X0144434Y0196172D01*
X0144537Y0196267D01*
X0144638Y0196364D01*
X0144735Y0196465D01*
X0144830Y0196568D01*
X0144922Y0196674D01*
X0145011Y0196783D01*
X0145097Y0196893D01*
X0145180Y0197007D01*
X0145259Y0197122D01*
X0145336Y0197240D01*
X0145409Y0197360D01*
X0145478Y0197481D01*
X0145544Y0197605D01*
X0145607Y0197731D01*
X0145666Y0197858D01*
X0145721Y0197987D01*
X0145773Y0198117D01*
X0145821Y0198249D01*
X0145866Y0198382D01*
X0145907Y0198516D01*
X0145944Y0198651D01*
X0145977Y0198787D01*
X0146006Y0198925D01*
X0146031Y0199062D01*
X0146053Y0199201D01*
X0146071Y0199340D01*
X0146084Y0199480D01*
X0146094Y0199620D01*
X0146100Y0199760D01*
X0146102Y0199900D01*
X0146102Y0210018D01*
D21*
X0198102Y0182400D03*
X0227102Y0204400D03*
X0217102Y0234900D03*
X0242102Y0248900D03*
X0264102Y0225900D03*
X0246602Y0175900D03*
X0263602Y0106400D03*
X0263602Y0067900D03*
X0264102Y0023900D03*
X0203102Y0053900D03*
X0191102Y0024900D03*
X0180102Y0096400D03*
X0179602Y0121400D03*
X0205602Y0096900D03*
X0116102Y0092400D03*
X0088102Y0091400D03*
X0062102Y0088400D03*
X0062102Y0062400D03*
X0062602Y0035400D03*
X0094102Y0034400D03*
X0115102Y0040400D03*
X0116602Y0019400D03*
X0086102Y0182900D03*
X0050102Y0193900D03*
X0053602Y0232400D03*
X0054102Y0270400D03*
X0217102Y0267400D03*
M02*
