G75*
%MOIN*%
%OFA0B0*%
%FSLAX25Y25*%
%IPPOS*%
%LPD*%
%AMOC8*
5,1,8,0,0,1.08239X$1,22.5*
%
%ADD10C,0.00400*%
D10*
X0203625Y0049867D02*
X0203625Y0052937D01*
X0204392Y0053704D01*
X0206694Y0053704D01*
X0206694Y0049100D01*
X0204392Y0049100D01*
X0203625Y0049867D01*
X0208229Y0049100D02*
X0211298Y0053704D01*
X0212833Y0053704D02*
X0215902Y0053704D01*
X0214367Y0053704D02*
X0214367Y0049100D01*
X0211298Y0049100D02*
X0208229Y0053704D01*
X0208194Y0013204D02*
X0205892Y0013204D01*
X0205125Y0012437D01*
X0205125Y0009367D01*
X0205892Y0008600D01*
X0208194Y0008600D01*
X0208194Y0013204D01*
X0209729Y0013204D02*
X0212798Y0008600D01*
X0214333Y0008600D02*
X0215867Y0010135D01*
X0215100Y0010135D02*
X0217402Y0010135D01*
X0217402Y0008600D02*
X0217402Y0013204D01*
X0215100Y0013204D01*
X0214333Y0012437D01*
X0214333Y0010902D01*
X0215100Y0010135D01*
X0212798Y0013204D02*
X0209729Y0008600D01*
X0213832Y0204600D02*
X0216901Y0204600D01*
X0216901Y0209204D01*
X0218436Y0209204D02*
X0218436Y0204600D01*
X0221505Y0209204D01*
X0221505Y0204600D01*
X0223040Y0204600D02*
X0223040Y0207669D01*
X0224575Y0209204D01*
X0226109Y0207669D01*
X0226109Y0204600D01*
X0227644Y0205367D02*
X0228411Y0204600D01*
X0229946Y0204600D01*
X0230713Y0205367D01*
X0230713Y0208437D01*
X0229946Y0209204D01*
X0228411Y0209204D01*
X0227644Y0208437D01*
X0226109Y0206902D02*
X0223040Y0206902D01*
X0241832Y0224100D02*
X0241832Y0228704D01*
X0241832Y0226402D02*
X0244901Y0226402D01*
X0244901Y0224100D02*
X0244901Y0228704D01*
X0246436Y0228704D02*
X0246436Y0224100D01*
X0249505Y0228704D01*
X0249505Y0224100D01*
X0251040Y0224100D02*
X0251040Y0227169D01*
X0252575Y0228704D01*
X0254109Y0227169D01*
X0254109Y0224100D01*
X0255644Y0224867D02*
X0256411Y0224100D01*
X0257946Y0224100D01*
X0258713Y0224867D01*
X0258713Y0227937D01*
X0257946Y0228704D01*
X0256411Y0228704D01*
X0255644Y0227937D01*
X0254109Y0226402D02*
X0251040Y0226402D01*
M02*
