G75*
%MOIN*%
%OFA0B0*%
%FSLAX25Y25*%
%IPPOS*%
%LPD*%
%AMOC8*
5,1,8,0,0,1.08239X$1,22.5*
%
%ADD10C,0.08674*%
%ADD11OC8,0.05162*%
%ADD12C,0.06000*%
%ADD13C,0.05950*%
%ADD14C,0.06400*%
%ADD15C,0.06800*%
%ADD16OC8,0.05556*%
%ADD17R,0.06343X0.06343*%
%ADD18C,0.13595*%
%ADD19C,0.07493*%
%ADD20OC8,0.06000*%
%ADD21C,0.04769*%
%ADD22R,0.08674X0.08674*%
D10*
X0045913Y0270652D03*
X0266413Y0141152D03*
X0268913Y0258652D03*
X0280665Y0011065D03*
D11*
X0211787Y0021400D03*
X0211787Y0041400D03*
X0182602Y0052400D03*
X0182602Y0072400D03*
X0116102Y0103900D03*
X0096102Y0103900D03*
X0086102Y0075400D03*
X0076102Y0075400D03*
X0076102Y0055400D03*
X0086102Y0055400D03*
X0059102Y0139900D03*
X0059102Y0149900D03*
D12*
X0128502Y0150400D02*
X0133702Y0150400D01*
X0133702Y0140400D02*
X0128502Y0140400D01*
X0128502Y0130400D02*
X0133702Y0130400D01*
X0133702Y0120400D02*
X0128502Y0120400D01*
X0128502Y0110400D02*
X0133702Y0110400D01*
X0133702Y0100400D02*
X0128502Y0100400D01*
X0128502Y0090400D02*
X0133702Y0090400D01*
X0133702Y0080400D02*
X0128502Y0080400D01*
X0128502Y0070400D02*
X0133702Y0070400D01*
X0133702Y0060400D02*
X0128502Y0060400D01*
X0128502Y0050400D02*
X0133702Y0050400D01*
X0133702Y0040400D02*
X0128502Y0040400D01*
X0128502Y0030400D02*
X0133702Y0030400D01*
X0133702Y0020400D02*
X0128502Y0020400D01*
X0158502Y0020400D02*
X0163702Y0020400D01*
X0163702Y0030400D02*
X0158502Y0030400D01*
X0158502Y0040400D02*
X0163702Y0040400D01*
X0163702Y0050400D02*
X0158502Y0050400D01*
X0158502Y0060400D02*
X0163702Y0060400D01*
X0163702Y0070400D02*
X0158502Y0070400D01*
X0158502Y0080400D02*
X0163702Y0080400D01*
X0163702Y0090400D02*
X0158502Y0090400D01*
X0158502Y0100400D02*
X0163702Y0100400D01*
X0163702Y0110400D02*
X0158502Y0110400D01*
X0158502Y0120400D02*
X0163702Y0120400D01*
X0163702Y0130400D02*
X0158502Y0130400D01*
X0158502Y0140400D02*
X0163702Y0140400D01*
X0163702Y0150400D02*
X0158502Y0150400D01*
D13*
X0161102Y0172825D02*
X0161102Y0177975D01*
X0171102Y0177975D02*
X0171102Y0172825D01*
X0151102Y0172825D02*
X0151102Y0177975D01*
X0141102Y0177975D02*
X0141102Y0172825D01*
X0131102Y0172825D02*
X0131102Y0177975D01*
D14*
X0093402Y0149900D02*
X0087802Y0149900D01*
X0087802Y0139900D02*
X0093402Y0139900D01*
D15*
X0232409Y0051065D02*
X0238409Y0051065D01*
X0238409Y0041065D02*
X0232409Y0041065D01*
X0232409Y0031065D02*
X0238409Y0031065D01*
X0238409Y0021065D02*
X0232409Y0021065D01*
X0263905Y0021065D02*
X0269905Y0021065D01*
X0269905Y0031065D02*
X0263905Y0031065D01*
X0263905Y0041065D02*
X0269905Y0041065D01*
X0269905Y0051065D02*
X0263905Y0051065D01*
D16*
X0051602Y0019900D03*
X0091602Y0019900D03*
X0110102Y0140400D03*
X0110102Y0180400D03*
X0091102Y0185900D03*
X0051102Y0185900D03*
D17*
X0077216Y0210518D03*
X0087216Y0210518D03*
X0097216Y0210518D03*
X0107216Y0210518D03*
X0102216Y0220518D03*
X0112216Y0220518D03*
X0092216Y0220518D03*
X0082216Y0220518D03*
X0132216Y0210518D03*
X0142216Y0210518D03*
X0152216Y0210518D03*
X0162216Y0210518D03*
X0157216Y0220518D03*
X0147216Y0220518D03*
X0137216Y0220518D03*
X0167216Y0220518D03*
D18*
X0172216Y0245518D03*
X0072216Y0245518D03*
D19*
X0061665Y0257526D03*
X0182767Y0257526D03*
D20*
X0061602Y0111400D03*
X0051602Y0111400D03*
D21*
X0104118Y0075400D02*
X0108086Y0075400D01*
X0108086Y0055400D02*
X0104118Y0055400D01*
D22*
X0203732Y0090557D03*
X0203732Y0110243D03*
X0203732Y0130557D03*
X0203732Y0150243D03*
X0203732Y0170557D03*
X0203732Y0190243D03*
X0203732Y0210557D03*
X0203732Y0230243D03*
X0203732Y0250557D03*
X0203732Y0270243D03*
M02*
