G75*
%MOIN*%
%OFA0B0*%
%FSLAX25Y25*%
%IPPOS*%
%LPD*%
%AMOC8*
5,1,8,0,0,1.08239X$1,22.5*
%
%ADD10OC8,0.04362*%
%ADD11C,0.05200*%
%ADD12C,0.05150*%
%ADD13C,0.05600*%
%ADD14C,0.06000*%
%ADD15OC8,0.04756*%
%ADD16R,0.05543X0.05543*%
%ADD17OC8,0.05200*%
%ADD18C,0.03969*%
%ADD19R,0.07874X0.07874*%
%ADD20C,0.01600*%
%ADD21R,0.03175X0.03175*%
%ADD22C,0.05000*%
D10*
X0076102Y0055400D03*
X0086102Y0055400D03*
X0086102Y0075400D03*
X0076102Y0075400D03*
X0096102Y0103900D03*
X0116102Y0103900D03*
X0059102Y0139900D03*
X0059102Y0149900D03*
X0182602Y0072400D03*
X0182602Y0052400D03*
X0211787Y0041400D03*
X0211787Y0021400D03*
D11*
X0163702Y0020400D02*
X0158502Y0020400D01*
X0158502Y0030400D02*
X0163702Y0030400D01*
X0163702Y0040400D02*
X0158502Y0040400D01*
X0158502Y0050400D02*
X0163702Y0050400D01*
X0163702Y0060400D02*
X0158502Y0060400D01*
X0158502Y0070400D02*
X0163702Y0070400D01*
X0163702Y0080400D02*
X0158502Y0080400D01*
X0158502Y0090400D02*
X0163702Y0090400D01*
X0163702Y0100400D02*
X0158502Y0100400D01*
X0158502Y0110400D02*
X0163702Y0110400D01*
X0163702Y0120400D02*
X0158502Y0120400D01*
X0158502Y0130400D02*
X0163702Y0130400D01*
X0163702Y0140400D02*
X0158502Y0140400D01*
X0158502Y0150400D02*
X0163702Y0150400D01*
X0133702Y0150400D02*
X0128502Y0150400D01*
X0128502Y0140400D02*
X0133702Y0140400D01*
X0133702Y0130400D02*
X0128502Y0130400D01*
X0128502Y0120400D02*
X0133702Y0120400D01*
X0133702Y0110400D02*
X0128502Y0110400D01*
X0128502Y0100400D02*
X0133702Y0100400D01*
X0133702Y0090400D02*
X0128502Y0090400D01*
X0128502Y0080400D02*
X0133702Y0080400D01*
X0133702Y0070400D02*
X0128502Y0070400D01*
X0128502Y0060400D02*
X0133702Y0060400D01*
X0133702Y0050400D02*
X0128502Y0050400D01*
X0128502Y0040400D02*
X0133702Y0040400D01*
X0133702Y0030400D02*
X0128502Y0030400D01*
X0128502Y0020400D02*
X0133702Y0020400D01*
D12*
X0131102Y0172825D02*
X0131102Y0177975D01*
X0141102Y0177975D02*
X0141102Y0172825D01*
X0151102Y0172825D02*
X0151102Y0177975D01*
X0161102Y0177975D02*
X0161102Y0172825D01*
X0171102Y0172825D02*
X0171102Y0177975D01*
D13*
X0093402Y0149900D02*
X0087802Y0149900D01*
X0087802Y0139900D02*
X0093402Y0139900D01*
D14*
X0232409Y0051065D02*
X0238409Y0051065D01*
X0238409Y0041065D02*
X0232409Y0041065D01*
X0232409Y0031065D02*
X0238409Y0031065D01*
X0238409Y0021065D02*
X0232409Y0021065D01*
X0263905Y0021065D02*
X0269905Y0021065D01*
X0269905Y0031065D02*
X0263905Y0031065D01*
X0263905Y0041065D02*
X0269905Y0041065D01*
X0269905Y0051065D02*
X0263905Y0051065D01*
D15*
X0110102Y0140400D03*
X0110102Y0180400D03*
X0091102Y0185900D03*
X0051102Y0185900D03*
X0051602Y0019900D03*
X0091602Y0019900D03*
D16*
X0087216Y0210518D03*
X0077216Y0210518D03*
X0082216Y0220518D03*
X0092216Y0220518D03*
X0102216Y0220518D03*
X0112216Y0220518D03*
X0107216Y0210518D03*
X0097216Y0210518D03*
X0132216Y0210518D03*
X0142216Y0210518D03*
X0152216Y0210518D03*
X0162216Y0210518D03*
X0157216Y0220518D03*
X0147216Y0220518D03*
X0137216Y0220518D03*
X0167216Y0220518D03*
D17*
X0061602Y0111400D03*
X0051602Y0111400D03*
D18*
X0104118Y0075400D02*
X0108086Y0075400D01*
X0108086Y0055400D02*
X0104118Y0055400D01*
D19*
X0203732Y0090557D03*
X0203732Y0110243D03*
X0203732Y0130557D03*
X0203732Y0150243D03*
X0203732Y0170557D03*
X0203732Y0190243D03*
X0203732Y0210557D03*
X0203732Y0230243D03*
X0203732Y0250557D03*
X0203732Y0270243D03*
D20*
X0040802Y0263407D02*
X0040802Y0006600D01*
X0151025Y0006600D01*
X0148523Y0007413D01*
X0148523Y0007413D01*
X0145970Y0009268D01*
X0145970Y0009268D01*
X0145970Y0009268D01*
X0144115Y0011821D01*
X0144115Y0011821D01*
X0143140Y0014822D01*
X0143140Y0045978D01*
X0144115Y0048979D01*
X0144115Y0048979D01*
X0145970Y0051532D01*
X0145970Y0051532D01*
X0145970Y0051532D01*
X0148523Y0053387D01*
X0148523Y0053387D01*
X0151524Y0054362D01*
X0154315Y0054362D01*
X0155238Y0055285D01*
X0157334Y0056153D01*
X0156813Y0056322D01*
X0156196Y0056637D01*
X0155636Y0057044D01*
X0155146Y0057534D01*
X0154739Y0058094D01*
X0154424Y0058711D01*
X0154210Y0059370D01*
X0154102Y0060054D01*
X0154102Y0060400D01*
X0161102Y0060400D01*
X0161102Y0060400D01*
X0154102Y0060400D01*
X0154102Y0060746D01*
X0154210Y0061430D01*
X0154424Y0062089D01*
X0154739Y0062706D01*
X0155146Y0063266D01*
X0155636Y0063756D01*
X0156196Y0064163D01*
X0156813Y0064478D01*
X0157334Y0064647D01*
X0155238Y0065515D01*
X0153617Y0067136D01*
X0152740Y0069254D01*
X0152740Y0071546D01*
X0153617Y0073664D01*
X0155238Y0075285D01*
X0155516Y0075400D01*
X0155238Y0075515D01*
X0153617Y0077136D01*
X0152740Y0079254D01*
X0152740Y0081546D01*
X0153617Y0083664D01*
X0155238Y0085285D01*
X0155516Y0085400D01*
X0155238Y0085515D01*
X0153617Y0087136D01*
X0152740Y0089254D01*
X0152740Y0091546D01*
X0153617Y0093664D01*
X0155238Y0095285D01*
X0155516Y0095400D01*
X0155238Y0095515D01*
X0153617Y0097136D01*
X0152740Y0099254D01*
X0152740Y0101546D01*
X0153617Y0103664D01*
X0155238Y0105285D01*
X0155516Y0105400D01*
X0155238Y0105515D01*
X0153617Y0107136D01*
X0152740Y0109254D01*
X0152740Y0111546D01*
X0153617Y0113664D01*
X0155238Y0115285D01*
X0155516Y0115400D01*
X0155238Y0115515D01*
X0153617Y0117136D01*
X0152740Y0119254D01*
X0152740Y0121546D01*
X0153617Y0123664D01*
X0155238Y0125285D01*
X0155516Y0125400D01*
X0155238Y0125515D01*
X0153617Y0127136D01*
X0152740Y0129254D01*
X0152740Y0131546D01*
X0153617Y0133664D01*
X0155238Y0135285D01*
X0155516Y0135400D01*
X0155238Y0135515D01*
X0153617Y0137136D01*
X0152740Y0139254D01*
X0152740Y0141546D01*
X0153617Y0143664D01*
X0155238Y0145285D01*
X0155516Y0145400D01*
X0155238Y0145515D01*
X0153617Y0147136D01*
X0152740Y0149254D01*
X0152740Y0151546D01*
X0153617Y0153664D01*
X0155238Y0155285D01*
X0157356Y0156162D01*
X0164848Y0156162D01*
X0166966Y0155285D01*
X0168587Y0153664D01*
X0169464Y0151546D01*
X0169464Y0149254D01*
X0168587Y0147136D01*
X0166966Y0145515D01*
X0166688Y0145400D01*
X0166966Y0145285D01*
X0168587Y0143664D01*
X0169464Y0141546D01*
X0169464Y0139254D01*
X0168587Y0137136D01*
X0166966Y0135515D01*
X0166688Y0135400D01*
X0166966Y0135285D01*
X0168587Y0133664D01*
X0169464Y0131546D01*
X0169464Y0129254D01*
X0168587Y0127136D01*
X0166966Y0125515D01*
X0166688Y0125400D01*
X0166966Y0125285D01*
X0168587Y0123664D01*
X0169464Y0121546D01*
X0169464Y0119254D01*
X0168587Y0117136D01*
X0166966Y0115515D01*
X0166688Y0115400D01*
X0166966Y0115285D01*
X0168587Y0113664D01*
X0169464Y0111546D01*
X0169464Y0109254D01*
X0168587Y0107136D01*
X0166966Y0105515D01*
X0166688Y0105400D01*
X0166966Y0105285D01*
X0168587Y0103664D01*
X0169464Y0101546D01*
X0169464Y0099254D01*
X0168587Y0097136D01*
X0166966Y0095515D01*
X0166688Y0095400D01*
X0166966Y0095285D01*
X0168587Y0093664D01*
X0169464Y0091546D01*
X0169464Y0089254D01*
X0168587Y0087136D01*
X0166966Y0085515D01*
X0166688Y0085400D01*
X0166966Y0085285D01*
X0168587Y0083664D01*
X0169464Y0081546D01*
X0169464Y0079254D01*
X0168587Y0077136D01*
X0166966Y0075515D01*
X0166688Y0075400D01*
X0166966Y0075285D01*
X0168587Y0073664D01*
X0169464Y0071546D01*
X0169464Y0069254D01*
X0168587Y0067136D01*
X0166966Y0065515D01*
X0164870Y0064647D01*
X0165391Y0064478D01*
X0166008Y0064163D01*
X0166568Y0063756D01*
X0167058Y0063266D01*
X0167465Y0062706D01*
X0167780Y0062089D01*
X0167994Y0061430D01*
X0168102Y0060746D01*
X0168102Y0060400D01*
X0161102Y0060400D01*
X0161102Y0060400D01*
X0168102Y0060400D01*
X0168102Y0060054D01*
X0167994Y0059370D01*
X0167780Y0058711D01*
X0167465Y0058094D01*
X0167058Y0057534D01*
X0166568Y0057044D01*
X0166008Y0056637D01*
X0165391Y0056322D01*
X0164870Y0056153D01*
X0166966Y0055285D01*
X0168587Y0053664D01*
X0169464Y0051546D01*
X0169464Y0049254D01*
X0168587Y0047136D01*
X0166966Y0045515D01*
X0166688Y0045400D01*
X0166966Y0045285D01*
X0167889Y0044362D01*
X0194102Y0044362D01*
X0194264Y0044375D01*
X0194573Y0044475D01*
X0194836Y0044666D01*
X0195027Y0044929D01*
X0195127Y0045238D01*
X0195140Y0045400D01*
X0195140Y0047399D01*
X0196066Y0050249D01*
X0197828Y0052674D01*
X0197828Y0052674D01*
X0200253Y0054436D01*
X0203103Y0055362D01*
X0203103Y0055362D01*
X0227991Y0055362D01*
X0228919Y0056289D01*
X0231183Y0057228D01*
X0239635Y0057228D01*
X0241900Y0056289D01*
X0243633Y0054556D01*
X0244571Y0052291D01*
X0244571Y0049840D01*
X0243633Y0047575D01*
X0241900Y0045841D01*
X0240636Y0045318D01*
X0240925Y0045171D01*
X0241536Y0044727D01*
X0242070Y0044192D01*
X0242514Y0043581D01*
X0242857Y0042908D01*
X0243091Y0042189D01*
X0243209Y0041443D01*
X0243209Y0041065D01*
X0235409Y0041065D01*
X0227609Y0041065D01*
X0227609Y0040688D01*
X0227727Y0039941D01*
X0227961Y0039223D01*
X0228304Y0038550D01*
X0228748Y0037938D01*
X0229282Y0037404D01*
X0229893Y0036960D01*
X0230182Y0036813D01*
X0228919Y0036289D01*
X0227185Y0034556D01*
X0226247Y0032291D01*
X0226247Y0029840D01*
X0227185Y0027575D01*
X0228694Y0026065D01*
X0227185Y0024556D01*
X0226247Y0022291D01*
X0226247Y0019840D01*
X0227185Y0017575D01*
X0228918Y0015841D01*
X0228824Y0015747D01*
X0227309Y0014872D01*
X0225619Y0014420D01*
X0224744Y0014362D01*
X0153102Y0014362D01*
X0152783Y0014387D01*
X0152177Y0014584D01*
X0151661Y0014959D01*
X0151286Y0015475D01*
X0151089Y0016081D01*
X0151064Y0016400D01*
X0151064Y0044400D01*
X0151089Y0044719D01*
X0151286Y0045325D01*
X0151661Y0045841D01*
X0152177Y0046216D01*
X0152783Y0046413D01*
X0153102Y0046438D01*
X0154315Y0046438D01*
X0155238Y0045515D01*
X0155516Y0045400D01*
X0155238Y0045285D01*
X0153617Y0043664D01*
X0152740Y0041546D01*
X0152740Y0039254D01*
X0153617Y0037136D01*
X0155238Y0035515D01*
X0155516Y0035400D01*
X0155238Y0035285D01*
X0153617Y0033664D01*
X0152740Y0031546D01*
X0152740Y0029254D01*
X0153617Y0027136D01*
X0155238Y0025515D01*
X0155516Y0025400D01*
X0155238Y0025285D01*
X0153617Y0023664D01*
X0152740Y0021546D01*
X0152740Y0019254D01*
X0153617Y0017136D01*
X0155238Y0015515D01*
X0157356Y0014638D01*
X0164848Y0014638D01*
X0166966Y0015515D01*
X0168587Y0017136D01*
X0169464Y0019254D01*
X0169464Y0021546D01*
X0168587Y0023664D01*
X0166966Y0025285D01*
X0166688Y0025400D01*
X0166966Y0025515D01*
X0168587Y0027136D01*
X0169464Y0029254D01*
X0169464Y0031546D01*
X0168587Y0033664D01*
X0166966Y0035285D01*
X0166688Y0035400D01*
X0166966Y0035515D01*
X0167889Y0036438D01*
X0195522Y0036438D01*
X0198222Y0037315D01*
X0200518Y0038984D01*
X0202187Y0041281D01*
X0203064Y0043981D01*
X0203064Y0045900D01*
X0203083Y0046141D01*
X0203232Y0046598D01*
X0203515Y0046987D01*
X0203904Y0047270D01*
X0204361Y0047419D01*
X0204602Y0047438D01*
X0227322Y0047438D01*
X0228919Y0045841D01*
X0230182Y0045318D01*
X0229893Y0045171D01*
X0229282Y0044727D01*
X0228748Y0044192D01*
X0228304Y0043581D01*
X0227961Y0042908D01*
X0227727Y0042189D01*
X0227609Y0041443D01*
X0227609Y0041065D01*
X0235409Y0041065D01*
X0235409Y0041065D01*
X0235409Y0041065D01*
X0243209Y0041065D01*
X0243209Y0040688D01*
X0243091Y0039941D01*
X0242857Y0039223D01*
X0242514Y0038550D01*
X0242070Y0037938D01*
X0241536Y0037404D01*
X0240925Y0036960D01*
X0240636Y0036813D01*
X0241900Y0036289D01*
X0243633Y0034556D01*
X0244571Y0032291D01*
X0244571Y0029840D01*
X0243633Y0027575D01*
X0242124Y0026065D01*
X0243633Y0024556D01*
X0244571Y0022291D01*
X0244571Y0019840D01*
X0243633Y0017575D01*
X0241900Y0015841D01*
X0239635Y0014903D01*
X0238076Y0014903D01*
X0236449Y0012084D01*
X0236449Y0012084D01*
X0236449Y0012084D01*
X0233725Y0009360D01*
X0230390Y0007435D01*
X0227275Y0006600D01*
X0273058Y0006600D01*
X0271928Y0009327D01*
X0271928Y0012803D01*
X0273143Y0015737D01*
X0271131Y0014903D01*
X0262679Y0014903D01*
X0260415Y0015841D01*
X0258681Y0017575D01*
X0257743Y0019840D01*
X0257743Y0022291D01*
X0258681Y0024556D01*
X0260191Y0026065D01*
X0259778Y0026478D01*
X0259771Y0026480D01*
X0259771Y0026480D01*
X0255413Y0028578D01*
X0255413Y0028578D01*
X0251631Y0031594D01*
X0251631Y0031594D01*
X0251631Y0031594D01*
X0248615Y0035376D01*
X0248615Y0035376D01*
X0246516Y0039734D01*
X0246516Y0039734D01*
X0245440Y0044450D01*
X0245440Y0176900D01*
X0245352Y0178697D01*
X0244650Y0182223D01*
X0243275Y0185544D01*
X0241277Y0188533D01*
X0241277Y0188533D01*
X0238735Y0191075D01*
X0235746Y0193072D01*
X0232425Y0194448D01*
X0228899Y0195149D01*
X0227102Y0195238D01*
X0210653Y0195238D01*
X0210831Y0194809D01*
X0210831Y0185677D01*
X0210350Y0184514D01*
X0209460Y0183625D01*
X0208298Y0183143D01*
X0199166Y0183143D01*
X0198004Y0183625D01*
X0197114Y0184514D01*
X0196633Y0185677D01*
X0196633Y0194809D01*
X0196811Y0195238D01*
X0189493Y0195238D01*
X0186431Y0196233D01*
X0186431Y0196233D01*
X0183827Y0198125D01*
X0183827Y0198125D01*
X0183827Y0198125D01*
X0181935Y0200729D01*
X0181935Y0200729D01*
X0180940Y0203790D01*
X0180940Y0204856D01*
X0167094Y0204856D01*
X0166462Y0202497D01*
X0166462Y0202497D01*
X0163727Y0197759D01*
X0163727Y0197759D01*
X0159858Y0193890D01*
X0159858Y0193890D01*
X0155119Y0191154D01*
X0155119Y0191154D01*
X0149834Y0189738D01*
X0119599Y0189738D01*
X0114313Y0191154D01*
X0114313Y0191154D01*
X0109575Y0193890D01*
X0109575Y0193890D01*
X0105706Y0197759D01*
X0105706Y0197759D01*
X0102970Y0202497D01*
X0102970Y0202497D01*
X0102176Y0205462D01*
X0101779Y0205066D01*
X0100617Y0204584D01*
X0093816Y0204584D01*
X0092653Y0205066D01*
X0092216Y0205503D01*
X0091779Y0205066D01*
X0090617Y0204584D01*
X0083816Y0204584D01*
X0082653Y0205066D01*
X0082216Y0205503D01*
X0081779Y0205066D01*
X0080617Y0204584D01*
X0073816Y0204584D01*
X0072653Y0205066D01*
X0071764Y0205955D01*
X0071282Y0207117D01*
X0071282Y0213919D01*
X0071764Y0215081D01*
X0072653Y0215971D01*
X0073816Y0216452D01*
X0078194Y0216452D01*
X0078004Y0216641D01*
X0077767Y0217052D01*
X0077645Y0217509D01*
X0077645Y0220432D01*
X0082130Y0220432D01*
X0082130Y0220604D01*
X0077645Y0220604D01*
X0077645Y0223527D01*
X0077767Y0223985D01*
X0078004Y0224395D01*
X0078339Y0224730D01*
X0078750Y0224967D01*
X0079208Y0225090D01*
X0082130Y0225090D01*
X0082130Y0220604D01*
X0082302Y0220604D01*
X0082302Y0225090D01*
X0085225Y0225090D01*
X0085683Y0224967D01*
X0086093Y0224730D01*
X0086428Y0224395D01*
X0086665Y0223985D01*
X0086788Y0223527D01*
X0086788Y0220604D01*
X0082302Y0220604D01*
X0082302Y0220432D01*
X0086788Y0220432D01*
X0086788Y0217509D01*
X0086665Y0217052D01*
X0086428Y0216641D01*
X0086239Y0216452D01*
X0088194Y0216452D01*
X0088004Y0216641D01*
X0087767Y0217052D01*
X0087645Y0217509D01*
X0087645Y0220432D01*
X0092130Y0220432D01*
X0092130Y0220604D01*
X0087645Y0220604D01*
X0087645Y0223527D01*
X0087767Y0223985D01*
X0088004Y0224395D01*
X0088339Y0224730D01*
X0088750Y0224967D01*
X0089208Y0225090D01*
X0092130Y0225090D01*
X0092130Y0220604D01*
X0092302Y0220604D01*
X0092302Y0225090D01*
X0095225Y0225090D01*
X0095683Y0224967D01*
X0096093Y0224730D01*
X0096428Y0224395D01*
X0096665Y0223985D01*
X0096788Y0223527D01*
X0096788Y0220604D01*
X0092302Y0220604D01*
X0092302Y0220432D01*
X0096788Y0220432D01*
X0096788Y0217509D01*
X0096665Y0217052D01*
X0096428Y0216641D01*
X0096239Y0216452D01*
X0098194Y0216452D01*
X0098004Y0216641D01*
X0097767Y0217052D01*
X0097645Y0217509D01*
X0097645Y0220432D01*
X0102130Y0220432D01*
X0102130Y0220604D01*
X0097645Y0220604D01*
X0097645Y0223527D01*
X0097767Y0223985D01*
X0098004Y0224395D01*
X0098339Y0224730D01*
X0098750Y0224967D01*
X0099208Y0225090D01*
X0102130Y0225090D01*
X0102130Y0220604D01*
X0102302Y0220604D01*
X0102302Y0225090D01*
X0105225Y0225090D01*
X0105683Y0224967D01*
X0106093Y0224730D01*
X0106428Y0224395D01*
X0106458Y0224343D01*
X0106764Y0225081D01*
X0107140Y0225457D01*
X0107609Y0227512D01*
X0107609Y0227513D01*
X0109667Y0231785D01*
X0112624Y0235493D01*
X0112624Y0235493D01*
X0116331Y0238449D01*
X0120604Y0240507D01*
X0125227Y0241562D01*
X0125227Y0241562D01*
X0154205Y0241562D01*
X0158829Y0240507D01*
X0158829Y0240507D01*
X0163101Y0238449D01*
X0163101Y0238449D01*
X0164819Y0237080D01*
X0163256Y0238643D01*
X0161782Y0241196D01*
X0161019Y0244044D01*
X0161019Y0246992D01*
X0161782Y0249840D01*
X0163256Y0252394D01*
X0165341Y0254478D01*
X0167894Y0255953D01*
X0170742Y0256716D01*
X0173690Y0256716D01*
X0174621Y0256466D01*
X0174621Y0259146D01*
X0175861Y0262141D01*
X0178153Y0264432D01*
X0181147Y0265672D01*
X0184388Y0265672D01*
X0187382Y0264432D01*
X0189674Y0262141D01*
X0190914Y0259146D01*
X0190914Y0255906D01*
X0189674Y0252911D01*
X0187382Y0250620D01*
X0184388Y0249380D01*
X0182774Y0249380D01*
X0183414Y0246992D01*
X0183414Y0244044D01*
X0182651Y0241196D01*
X0181177Y0238643D01*
X0179092Y0236558D01*
X0176538Y0235084D01*
X0173690Y0234320D01*
X0170742Y0234320D01*
X0167894Y0235084D01*
X0165821Y0236280D01*
X0166809Y0235493D01*
X0166809Y0235493D01*
X0166809Y0235493D01*
X0169766Y0231785D01*
X0169766Y0231785D01*
X0171823Y0227513D01*
X0171823Y0227512D01*
X0172127Y0226180D01*
X0196633Y0226180D01*
X0196633Y0234809D01*
X0197114Y0235971D01*
X0198004Y0236860D01*
X0199166Y0237342D01*
X0208298Y0237342D01*
X0209460Y0236860D01*
X0210350Y0235971D01*
X0210831Y0234809D01*
X0210831Y0226180D01*
X0268220Y0226180D01*
X0273505Y0224764D01*
X0273505Y0224764D01*
X0278243Y0222028D01*
X0278243Y0222028D01*
X0282112Y0218159D01*
X0282112Y0218159D01*
X0284713Y0213655D01*
X0284713Y0280200D01*
X0040802Y0280200D01*
X0040802Y0277897D01*
X0040964Y0278059D01*
X0044175Y0279389D01*
X0047651Y0279389D01*
X0050862Y0278059D01*
X0053320Y0275601D01*
X0054650Y0272390D01*
X0054650Y0268914D01*
X0053320Y0265703D01*
X0050862Y0263245D01*
X0047651Y0261915D01*
X0044175Y0261915D01*
X0040964Y0263245D01*
X0040802Y0263407D01*
X0040802Y0261957D02*
X0044073Y0261957D01*
X0040802Y0260359D02*
X0054021Y0260359D01*
X0053519Y0259146D02*
X0053519Y0255906D01*
X0054759Y0252911D01*
X0057050Y0250620D01*
X0060045Y0249380D01*
X0061658Y0249380D01*
X0061019Y0246992D01*
X0061019Y0244044D01*
X0061782Y0241196D01*
X0063256Y0238643D01*
X0065341Y0236558D01*
X0067894Y0235084D01*
X0070742Y0234320D01*
X0073690Y0234320D01*
X0076538Y0235084D01*
X0079092Y0236558D01*
X0081177Y0238643D01*
X0082651Y0241196D01*
X0083414Y0244044D01*
X0083414Y0246992D01*
X0082651Y0249840D01*
X0081177Y0252394D01*
X0079092Y0254478D01*
X0076538Y0255953D01*
X0073690Y0256716D01*
X0070742Y0256716D01*
X0069812Y0256466D01*
X0069812Y0259146D01*
X0068571Y0262141D01*
X0066280Y0264432D01*
X0063285Y0265672D01*
X0060045Y0265672D01*
X0057050Y0264432D01*
X0054759Y0262141D01*
X0053519Y0259146D01*
X0053519Y0258760D02*
X0040802Y0258760D01*
X0040802Y0257162D02*
X0053519Y0257162D01*
X0053660Y0255563D02*
X0040802Y0255563D01*
X0040802Y0253965D02*
X0054322Y0253965D01*
X0055304Y0252366D02*
X0040802Y0252366D01*
X0040802Y0250768D02*
X0056902Y0250768D01*
X0061174Y0247571D02*
X0040802Y0247571D01*
X0040802Y0249169D02*
X0061602Y0249169D01*
X0061019Y0245972D02*
X0040802Y0245972D01*
X0040802Y0244374D02*
X0061019Y0244374D01*
X0061359Y0242775D02*
X0040802Y0242775D01*
X0040802Y0241177D02*
X0061793Y0241177D01*
X0062716Y0239578D02*
X0040802Y0239578D01*
X0040802Y0237980D02*
X0063919Y0237980D01*
X0065647Y0236381D02*
X0040802Y0236381D01*
X0040802Y0234783D02*
X0069017Y0234783D01*
X0075415Y0234783D02*
X0112057Y0234783D01*
X0110783Y0233184D02*
X0040802Y0233184D01*
X0040802Y0231586D02*
X0109571Y0231586D01*
X0108801Y0229987D02*
X0040802Y0229987D01*
X0040802Y0228389D02*
X0108031Y0228389D01*
X0107444Y0226790D02*
X0040802Y0226790D01*
X0040802Y0225192D02*
X0106874Y0225192D01*
X0102302Y0223593D02*
X0102130Y0223593D01*
X0102130Y0221995D02*
X0102302Y0221995D01*
X0097645Y0221995D02*
X0096788Y0221995D01*
X0096770Y0223593D02*
X0097662Y0223593D01*
X0097645Y0220396D02*
X0096788Y0220396D01*
X0096788Y0218798D02*
X0097645Y0218798D01*
X0097728Y0217199D02*
X0096705Y0217199D01*
X0092302Y0221995D02*
X0092130Y0221995D01*
X0092130Y0223593D02*
X0092302Y0223593D01*
X0087662Y0223593D02*
X0086770Y0223593D01*
X0086788Y0221995D02*
X0087645Y0221995D01*
X0087645Y0220396D02*
X0086788Y0220396D01*
X0086788Y0218798D02*
X0087645Y0218798D01*
X0087728Y0217199D02*
X0086705Y0217199D01*
X0082302Y0221995D02*
X0082130Y0221995D01*
X0082130Y0223593D02*
X0082302Y0223593D01*
X0077662Y0223593D02*
X0040802Y0223593D01*
X0040802Y0221995D02*
X0077645Y0221995D01*
X0077645Y0220396D02*
X0040802Y0220396D01*
X0040802Y0218798D02*
X0077645Y0218798D01*
X0077728Y0217199D02*
X0040802Y0217199D01*
X0040802Y0215601D02*
X0072283Y0215601D01*
X0071317Y0214002D02*
X0040802Y0214002D01*
X0040802Y0212403D02*
X0071282Y0212403D01*
X0071282Y0210805D02*
X0040802Y0210805D01*
X0040802Y0209206D02*
X0071282Y0209206D01*
X0071282Y0207608D02*
X0040802Y0207608D01*
X0040802Y0206009D02*
X0071741Y0206009D01*
X0087391Y0190024D02*
X0054813Y0190024D01*
X0053397Y0191440D02*
X0048807Y0191440D01*
X0045562Y0188195D01*
X0045562Y0183605D01*
X0048807Y0180360D01*
X0053397Y0180360D01*
X0056642Y0183605D01*
X0056642Y0188195D01*
X0053397Y0191440D01*
X0056411Y0188426D02*
X0085793Y0188426D01*
X0085562Y0188195D02*
X0085562Y0183605D01*
X0088807Y0180360D01*
X0093397Y0180360D01*
X0096642Y0183605D01*
X0096642Y0188195D01*
X0093397Y0191440D01*
X0088807Y0191440D01*
X0085562Y0188195D01*
X0085562Y0186827D02*
X0056642Y0186827D01*
X0056642Y0185229D02*
X0085562Y0185229D01*
X0085562Y0183630D02*
X0056642Y0183630D01*
X0055069Y0182032D02*
X0087135Y0182032D01*
X0088734Y0180433D02*
X0053470Y0180433D01*
X0048734Y0180433D02*
X0040802Y0180433D01*
X0040802Y0178835D02*
X0104562Y0178835D01*
X0104562Y0178105D02*
X0107807Y0174860D01*
X0112397Y0174860D01*
X0115642Y0178105D01*
X0115642Y0182695D01*
X0112397Y0185940D01*
X0107807Y0185940D01*
X0104562Y0182695D01*
X0104562Y0178105D01*
X0105431Y0177236D02*
X0040802Y0177236D01*
X0040802Y0175638D02*
X0107029Y0175638D01*
X0104562Y0180433D02*
X0093470Y0180433D01*
X0095069Y0182032D02*
X0104562Y0182032D01*
X0105497Y0183630D02*
X0096642Y0183630D01*
X0096642Y0185229D02*
X0107096Y0185229D01*
X0113108Y0185229D02*
X0196818Y0185229D01*
X0196633Y0186827D02*
X0096642Y0186827D01*
X0096411Y0188426D02*
X0196633Y0188426D01*
X0196633Y0190024D02*
X0150903Y0190024D01*
X0155931Y0191623D02*
X0196633Y0191623D01*
X0196633Y0193221D02*
X0158700Y0193221D01*
X0160788Y0194820D02*
X0196637Y0194820D01*
X0186175Y0196418D02*
X0162386Y0196418D01*
X0163876Y0198017D02*
X0183975Y0198017D01*
X0182744Y0199615D02*
X0164798Y0199615D01*
X0165721Y0201214D02*
X0181777Y0201214D01*
X0181258Y0202812D02*
X0166547Y0202812D01*
X0166975Y0204411D02*
X0180940Y0204411D01*
X0172440Y0183630D02*
X0197998Y0183630D01*
X0199166Y0177657D02*
X0198004Y0177175D01*
X0197114Y0176286D01*
X0196633Y0175123D01*
X0196633Y0165991D01*
X0197114Y0164829D01*
X0198004Y0163940D01*
X0199166Y0163458D01*
X0208298Y0163458D01*
X0209460Y0163940D01*
X0210350Y0164829D01*
X0210831Y0165991D01*
X0210831Y0175123D01*
X0210350Y0176286D01*
X0209460Y0177175D01*
X0208298Y0177657D01*
X0199166Y0177657D01*
X0198151Y0177236D02*
X0176839Y0177236D01*
X0176839Y0175638D02*
X0196846Y0175638D01*
X0196633Y0174039D02*
X0176839Y0174039D01*
X0176839Y0172441D02*
X0196633Y0172441D01*
X0196633Y0170842D02*
X0176490Y0170842D01*
X0176839Y0171684D02*
X0176839Y0179116D01*
X0175966Y0181225D01*
X0174352Y0182838D01*
X0172243Y0183712D01*
X0169961Y0183712D01*
X0167852Y0182838D01*
X0166238Y0181225D01*
X0166102Y0180895D01*
X0165966Y0181225D01*
X0164352Y0182838D01*
X0162243Y0183712D01*
X0159961Y0183712D01*
X0157852Y0182838D01*
X0156238Y0181225D01*
X0155365Y0179116D01*
X0155365Y0179012D01*
X0155156Y0179654D01*
X0154844Y0180268D01*
X0154439Y0180825D01*
X0153952Y0181312D01*
X0153395Y0181716D01*
X0152781Y0182029D01*
X0152127Y0182242D01*
X0151446Y0182350D01*
X0151102Y0182350D01*
X0150758Y0182350D01*
X0150078Y0182242D01*
X0149423Y0182029D01*
X0148809Y0181716D01*
X0148252Y0181312D01*
X0147765Y0180825D01*
X0147360Y0180268D01*
X0147048Y0179654D01*
X0146839Y0179012D01*
X0146839Y0179116D01*
X0145966Y0181225D01*
X0144352Y0182838D01*
X0142243Y0183712D01*
X0139961Y0183712D01*
X0137852Y0182838D01*
X0136238Y0181225D01*
X0136102Y0180895D01*
X0135966Y0181225D01*
X0134352Y0182838D01*
X0132243Y0183712D01*
X0129961Y0183712D01*
X0127852Y0182838D01*
X0126238Y0181225D01*
X0125365Y0179116D01*
X0125365Y0171684D01*
X0126238Y0169575D01*
X0127852Y0167962D01*
X0129961Y0167088D01*
X0132243Y0167088D01*
X0134352Y0167962D01*
X0135966Y0169575D01*
X0136102Y0169905D01*
X0136238Y0169575D01*
X0137852Y0167962D01*
X0139961Y0167088D01*
X0142243Y0167088D01*
X0144352Y0167962D01*
X0145966Y0169575D01*
X0146839Y0171684D01*
X0146839Y0171788D01*
X0147048Y0171146D01*
X0147360Y0170532D01*
X0147765Y0169975D01*
X0148252Y0169488D01*
X0148809Y0169084D01*
X0149423Y0168771D01*
X0150078Y0168558D01*
X0150758Y0168450D01*
X0151102Y0168450D01*
X0151102Y0175400D01*
X0151102Y0182350D01*
X0151102Y0175400D01*
X0151102Y0175400D01*
X0151102Y0175400D01*
X0151102Y0168450D01*
X0151446Y0168450D01*
X0152127Y0168558D01*
X0152781Y0168771D01*
X0153395Y0169084D01*
X0153952Y0169488D01*
X0154439Y0169975D01*
X0154844Y0170532D01*
X0155156Y0171146D01*
X0155365Y0171788D01*
X0155365Y0171684D01*
X0156238Y0169575D01*
X0157852Y0167962D01*
X0159961Y0167088D01*
X0162243Y0167088D01*
X0164352Y0167962D01*
X0165966Y0169575D01*
X0166102Y0169905D01*
X0166238Y0169575D01*
X0167852Y0167962D01*
X0169961Y0167088D01*
X0172243Y0167088D01*
X0174352Y0167962D01*
X0175966Y0169575D01*
X0176839Y0171684D01*
X0175634Y0169244D02*
X0196633Y0169244D01*
X0196633Y0167645D02*
X0173588Y0167645D01*
X0168616Y0167645D02*
X0163588Y0167645D01*
X0165634Y0169244D02*
X0166570Y0169244D01*
X0158616Y0167645D02*
X0143588Y0167645D01*
X0145634Y0169244D02*
X0148589Y0169244D01*
X0147202Y0170842D02*
X0146490Y0170842D01*
X0151102Y0170842D02*
X0151102Y0170842D01*
X0151102Y0169244D02*
X0151102Y0169244D01*
X0153615Y0169244D02*
X0156570Y0169244D01*
X0155714Y0170842D02*
X0155002Y0170842D01*
X0151102Y0172441D02*
X0151102Y0172441D01*
X0151102Y0174039D02*
X0151102Y0174039D01*
X0151102Y0175638D02*
X0151102Y0175638D01*
X0151102Y0177236D02*
X0151102Y0177236D01*
X0151102Y0178835D02*
X0151102Y0178835D01*
X0151102Y0180433D02*
X0151102Y0180433D01*
X0151102Y0182032D02*
X0151102Y0182032D01*
X0149431Y0182032D02*
X0145158Y0182032D01*
X0146293Y0180433D02*
X0147481Y0180433D01*
X0152773Y0182032D02*
X0157046Y0182032D01*
X0155911Y0180433D02*
X0154723Y0180433D01*
X0159764Y0183630D02*
X0142440Y0183630D01*
X0139764Y0183630D02*
X0132440Y0183630D01*
X0129764Y0183630D02*
X0114707Y0183630D01*
X0115642Y0182032D02*
X0127046Y0182032D01*
X0125911Y0180433D02*
X0115642Y0180433D01*
X0115642Y0178835D02*
X0125365Y0178835D01*
X0125365Y0177236D02*
X0114773Y0177236D01*
X0113175Y0175638D02*
X0125365Y0175638D01*
X0125365Y0174039D02*
X0040802Y0174039D01*
X0040802Y0172441D02*
X0125365Y0172441D01*
X0125714Y0170842D02*
X0040802Y0170842D01*
X0040802Y0169244D02*
X0126570Y0169244D01*
X0128616Y0167645D02*
X0040802Y0167645D01*
X0040802Y0166047D02*
X0196633Y0166047D01*
X0197495Y0164448D02*
X0040802Y0164448D01*
X0040802Y0162850D02*
X0245440Y0162850D01*
X0245440Y0164448D02*
X0209969Y0164448D01*
X0210831Y0166047D02*
X0245440Y0166047D01*
X0245440Y0167645D02*
X0210831Y0167645D01*
X0210831Y0169244D02*
X0245440Y0169244D01*
X0245440Y0170842D02*
X0210831Y0170842D01*
X0210831Y0172441D02*
X0245440Y0172441D01*
X0245440Y0174039D02*
X0210831Y0174039D01*
X0210618Y0175638D02*
X0245440Y0175638D01*
X0245423Y0177236D02*
X0209313Y0177236D01*
X0209466Y0183630D02*
X0244067Y0183630D01*
X0244688Y0182032D02*
X0175158Y0182032D01*
X0176293Y0180433D02*
X0245006Y0180433D01*
X0245324Y0178835D02*
X0176839Y0178835D01*
X0169764Y0183630D02*
X0162440Y0183630D01*
X0165158Y0182032D02*
X0167046Y0182032D01*
X0152855Y0203016D02*
X0150717Y0201782D01*
X0148332Y0201143D01*
X0147098Y0201062D01*
X0122334Y0201062D01*
X0121100Y0201143D01*
X0118716Y0201782D01*
X0116578Y0203016D01*
X0114832Y0204762D01*
X0113598Y0206899D01*
X0113150Y0208572D01*
X0113150Y0213919D01*
X0112874Y0214584D01*
X0115617Y0214584D01*
X0116779Y0215066D01*
X0117669Y0215955D01*
X0118150Y0217117D01*
X0118150Y0222529D01*
X0118424Y0223728D01*
X0119368Y0225689D01*
X0120725Y0227391D01*
X0122427Y0228748D01*
X0124388Y0229692D01*
X0126510Y0230177D01*
X0127598Y0230238D01*
X0151834Y0230238D01*
X0152923Y0230177D01*
X0155045Y0229692D01*
X0157006Y0228748D01*
X0158707Y0227391D01*
X0160064Y0225689D01*
X0160372Y0225050D01*
X0160225Y0225090D01*
X0157302Y0225090D01*
X0157302Y0220604D01*
X0157130Y0220604D01*
X0157130Y0220432D01*
X0152645Y0220432D01*
X0152645Y0217509D01*
X0152767Y0217052D01*
X0153004Y0216641D01*
X0153194Y0216452D01*
X0151239Y0216452D01*
X0151428Y0216641D01*
X0151665Y0217052D01*
X0151788Y0217509D01*
X0151788Y0220432D01*
X0147302Y0220432D01*
X0147302Y0220604D01*
X0147130Y0220604D01*
X0147130Y0220432D01*
X0142645Y0220432D01*
X0142645Y0217509D01*
X0142767Y0217052D01*
X0143004Y0216641D01*
X0143194Y0216452D01*
X0141239Y0216452D01*
X0141428Y0216641D01*
X0141665Y0217052D01*
X0141788Y0217509D01*
X0141788Y0220432D01*
X0137302Y0220432D01*
X0137302Y0220604D01*
X0137130Y0220604D01*
X0137130Y0220432D01*
X0132645Y0220432D01*
X0132645Y0217509D01*
X0132767Y0217052D01*
X0133004Y0216641D01*
X0133194Y0216452D01*
X0128816Y0216452D01*
X0127653Y0215971D01*
X0126764Y0215081D01*
X0126282Y0213919D01*
X0126282Y0207117D01*
X0126764Y0205955D01*
X0127653Y0205066D01*
X0128816Y0204584D01*
X0135617Y0204584D01*
X0136779Y0205066D01*
X0137216Y0205503D01*
X0137653Y0205066D01*
X0138816Y0204584D01*
X0145617Y0204584D01*
X0146779Y0205066D01*
X0147216Y0205503D01*
X0147653Y0205066D01*
X0148816Y0204584D01*
X0154423Y0204584D01*
X0152855Y0203016D01*
X0152502Y0202812D02*
X0116931Y0202812D01*
X0115183Y0204411D02*
X0154249Y0204411D01*
X0148597Y0201214D02*
X0120836Y0201214D01*
X0126741Y0206009D02*
X0114112Y0206009D01*
X0113408Y0207608D02*
X0126282Y0207608D01*
X0126282Y0209206D02*
X0113150Y0209206D01*
X0113150Y0210805D02*
X0126282Y0210805D01*
X0126282Y0212403D02*
X0113150Y0212403D01*
X0113116Y0214002D02*
X0126317Y0214002D01*
X0127283Y0215601D02*
X0117314Y0215601D01*
X0118150Y0217199D02*
X0132728Y0217199D01*
X0132645Y0218798D02*
X0118150Y0218798D01*
X0118150Y0220396D02*
X0132645Y0220396D01*
X0132645Y0220604D02*
X0137130Y0220604D01*
X0137130Y0225090D01*
X0134208Y0225090D01*
X0133750Y0224967D01*
X0133339Y0224730D01*
X0133004Y0224395D01*
X0132767Y0223985D01*
X0132645Y0223527D01*
X0132645Y0220604D01*
X0132645Y0221995D02*
X0118150Y0221995D01*
X0118393Y0223593D02*
X0132662Y0223593D01*
X0137130Y0223593D02*
X0137302Y0223593D01*
X0137302Y0225090D02*
X0137302Y0220604D01*
X0141788Y0220604D01*
X0141788Y0223527D01*
X0141665Y0223985D01*
X0141428Y0224395D01*
X0141093Y0224730D01*
X0140683Y0224967D01*
X0140225Y0225090D01*
X0137302Y0225090D01*
X0137302Y0221995D02*
X0137130Y0221995D01*
X0141788Y0221995D02*
X0142645Y0221995D01*
X0142645Y0220604D02*
X0147130Y0220604D01*
X0147130Y0225090D01*
X0144208Y0225090D01*
X0143750Y0224967D01*
X0143339Y0224730D01*
X0143004Y0224395D01*
X0142767Y0223985D01*
X0142645Y0223527D01*
X0142645Y0220604D01*
X0142645Y0220396D02*
X0141788Y0220396D01*
X0141788Y0218798D02*
X0142645Y0218798D01*
X0142728Y0217199D02*
X0141705Y0217199D01*
X0147302Y0220604D02*
X0147302Y0225090D01*
X0150225Y0225090D01*
X0150683Y0224967D01*
X0151093Y0224730D01*
X0151428Y0224395D01*
X0151665Y0223985D01*
X0151788Y0223527D01*
X0151788Y0220604D01*
X0147302Y0220604D01*
X0147302Y0221995D02*
X0147130Y0221995D01*
X0147130Y0223593D02*
X0147302Y0223593D01*
X0151770Y0223593D02*
X0152662Y0223593D01*
X0152645Y0223527D02*
X0152645Y0220604D01*
X0157130Y0220604D01*
X0157130Y0225090D01*
X0154208Y0225090D01*
X0153750Y0224967D01*
X0153339Y0224730D01*
X0153004Y0224395D01*
X0152767Y0223985D01*
X0152645Y0223527D01*
X0152645Y0221995D02*
X0151788Y0221995D01*
X0151788Y0220396D02*
X0152645Y0220396D01*
X0152645Y0218798D02*
X0151788Y0218798D01*
X0151705Y0217199D02*
X0152728Y0217199D01*
X0157130Y0221995D02*
X0157302Y0221995D01*
X0157302Y0223593D02*
X0157130Y0223593D01*
X0159186Y0226790D02*
X0120246Y0226790D01*
X0119129Y0225192D02*
X0160304Y0225192D01*
X0157456Y0228389D02*
X0121976Y0228389D01*
X0125679Y0229987D02*
X0153753Y0229987D01*
X0160757Y0239578D02*
X0162716Y0239578D01*
X0161793Y0241177D02*
X0155894Y0241177D01*
X0161359Y0242775D02*
X0083074Y0242775D01*
X0083414Y0244374D02*
X0161019Y0244374D01*
X0161019Y0245972D02*
X0083414Y0245972D01*
X0083259Y0247571D02*
X0161174Y0247571D01*
X0161602Y0249169D02*
X0082831Y0249169D01*
X0082115Y0250768D02*
X0162317Y0250768D01*
X0163240Y0252366D02*
X0081192Y0252366D01*
X0079605Y0253965D02*
X0164827Y0253965D01*
X0167220Y0255563D02*
X0077213Y0255563D01*
X0069812Y0257162D02*
X0174621Y0257162D01*
X0174621Y0258760D02*
X0069812Y0258760D01*
X0069309Y0260359D02*
X0175123Y0260359D01*
X0175785Y0261957D02*
X0068647Y0261957D01*
X0067156Y0263556D02*
X0177276Y0263556D01*
X0179896Y0265154D02*
X0064536Y0265154D01*
X0058794Y0265154D02*
X0052771Y0265154D01*
X0053755Y0266753D02*
X0197995Y0266753D01*
X0197995Y0266069D02*
X0198118Y0265611D01*
X0198355Y0265200D01*
X0198690Y0264865D01*
X0199100Y0264628D01*
X0199558Y0264506D01*
X0203252Y0264506D01*
X0203252Y0269763D01*
X0197995Y0269763D01*
X0197995Y0266069D01*
X0198401Y0265154D02*
X0185639Y0265154D01*
X0188258Y0263556D02*
X0261487Y0263556D01*
X0261506Y0263601D02*
X0260176Y0260390D01*
X0260176Y0256914D01*
X0261506Y0253703D01*
X0263964Y0251245D01*
X0267175Y0249915D01*
X0270651Y0249915D01*
X0273862Y0251245D01*
X0276320Y0253703D01*
X0277650Y0256914D01*
X0277650Y0260390D01*
X0276320Y0263601D01*
X0273862Y0266059D01*
X0270651Y0267389D01*
X0267175Y0267389D01*
X0263964Y0266059D01*
X0261506Y0263601D01*
X0260825Y0261957D02*
X0189750Y0261957D01*
X0190412Y0260359D02*
X0260176Y0260359D01*
X0260176Y0258760D02*
X0190914Y0258760D01*
X0190914Y0257162D02*
X0197990Y0257162D01*
X0198004Y0257175D02*
X0197114Y0256286D01*
X0196633Y0255123D01*
X0196633Y0245991D01*
X0197114Y0244829D01*
X0198004Y0243940D01*
X0199166Y0243458D01*
X0208298Y0243458D01*
X0209460Y0243940D01*
X0210350Y0244829D01*
X0210831Y0245991D01*
X0210831Y0255123D01*
X0210350Y0256286D01*
X0209460Y0257175D01*
X0208298Y0257657D01*
X0199166Y0257657D01*
X0198004Y0257175D01*
X0196815Y0255563D02*
X0190772Y0255563D01*
X0190110Y0253965D02*
X0196633Y0253965D01*
X0196633Y0252366D02*
X0189129Y0252366D01*
X0187530Y0250768D02*
X0196633Y0250768D01*
X0196633Y0249169D02*
X0182831Y0249169D01*
X0183259Y0247571D02*
X0196633Y0247571D01*
X0196641Y0245972D02*
X0183414Y0245972D01*
X0183414Y0244374D02*
X0197570Y0244374D01*
X0197525Y0236381D02*
X0178786Y0236381D01*
X0180514Y0237980D02*
X0284713Y0237980D01*
X0284713Y0239578D02*
X0181717Y0239578D01*
X0182640Y0241177D02*
X0284713Y0241177D01*
X0284713Y0242775D02*
X0183074Y0242775D01*
X0175415Y0234783D02*
X0196633Y0234783D01*
X0196633Y0233184D02*
X0168650Y0233184D01*
X0169017Y0234783D02*
X0167375Y0234783D01*
X0169862Y0231586D02*
X0196633Y0231586D01*
X0196633Y0229987D02*
X0170631Y0229987D01*
X0171401Y0228389D02*
X0196633Y0228389D01*
X0196633Y0226790D02*
X0171988Y0226790D01*
X0163919Y0237980D02*
X0163690Y0237980D01*
X0142662Y0223593D02*
X0141770Y0223593D01*
X0123538Y0241177D02*
X0082640Y0241177D01*
X0081717Y0239578D02*
X0118675Y0239578D01*
X0115742Y0237980D02*
X0080514Y0237980D01*
X0078786Y0236381D02*
X0113738Y0236381D01*
X0102457Y0204411D02*
X0040802Y0204411D01*
X0040802Y0202812D02*
X0102886Y0202812D01*
X0103711Y0201214D02*
X0040802Y0201214D01*
X0040802Y0199615D02*
X0104634Y0199615D01*
X0105557Y0198017D02*
X0040802Y0198017D01*
X0040802Y0196418D02*
X0107046Y0196418D01*
X0108645Y0194820D02*
X0040802Y0194820D01*
X0040802Y0193221D02*
X0110733Y0193221D01*
X0109575Y0193890D02*
X0109575Y0193890D01*
X0113501Y0191623D02*
X0040802Y0191623D01*
X0040802Y0190024D02*
X0047391Y0190024D01*
X0045793Y0188426D02*
X0040802Y0188426D01*
X0040802Y0186827D02*
X0045562Y0186827D01*
X0045562Y0185229D02*
X0040802Y0185229D01*
X0040802Y0183630D02*
X0045562Y0183630D01*
X0047135Y0182032D02*
X0040802Y0182032D01*
X0040802Y0161251D02*
X0245440Y0161251D01*
X0245440Y0159653D02*
X0040802Y0159653D01*
X0040802Y0158054D02*
X0245440Y0158054D01*
X0245440Y0156456D02*
X0209865Y0156456D01*
X0209460Y0156860D02*
X0210350Y0155971D01*
X0210831Y0154809D01*
X0210831Y0145677D01*
X0210350Y0144514D01*
X0209460Y0143625D01*
X0208298Y0143143D01*
X0199166Y0143143D01*
X0198004Y0143625D01*
X0197114Y0144514D01*
X0196633Y0145677D01*
X0196633Y0154809D01*
X0197114Y0155971D01*
X0198004Y0156860D01*
X0199166Y0157342D01*
X0208298Y0157342D01*
X0209460Y0156860D01*
X0210811Y0154857D02*
X0245440Y0154857D01*
X0245440Y0153259D02*
X0210831Y0153259D01*
X0210831Y0151660D02*
X0245440Y0151660D01*
X0245440Y0150062D02*
X0210831Y0150062D01*
X0210831Y0148463D02*
X0245440Y0148463D01*
X0245440Y0146865D02*
X0210831Y0146865D01*
X0210661Y0145266D02*
X0245440Y0145266D01*
X0245440Y0143668D02*
X0209503Y0143668D01*
X0208298Y0137657D02*
X0209460Y0137175D01*
X0210350Y0136286D01*
X0210831Y0135123D01*
X0210831Y0125991D01*
X0210350Y0124829D01*
X0209460Y0123940D01*
X0208298Y0123458D01*
X0199166Y0123458D01*
X0198004Y0123940D01*
X0197114Y0124829D01*
X0196633Y0125991D01*
X0196633Y0135123D01*
X0197114Y0136286D01*
X0198004Y0137175D01*
X0199166Y0137657D01*
X0208298Y0137657D01*
X0209223Y0137273D02*
X0245440Y0137273D01*
X0245440Y0135675D02*
X0210603Y0135675D01*
X0210831Y0134076D02*
X0245440Y0134076D01*
X0245440Y0132478D02*
X0210831Y0132478D01*
X0210831Y0130879D02*
X0245440Y0130879D01*
X0245440Y0129281D02*
X0210831Y0129281D01*
X0210831Y0127682D02*
X0245440Y0127682D01*
X0245440Y0126084D02*
X0210831Y0126084D01*
X0210006Y0124485D02*
X0245440Y0124485D01*
X0245440Y0122887D02*
X0168909Y0122887D01*
X0169464Y0121288D02*
X0245440Y0121288D01*
X0245440Y0119690D02*
X0169464Y0119690D01*
X0168983Y0118091D02*
X0245440Y0118091D01*
X0245440Y0116493D02*
X0209828Y0116493D01*
X0209460Y0116860D02*
X0210350Y0115971D01*
X0210831Y0114809D01*
X0210831Y0105677D01*
X0210350Y0104514D01*
X0209460Y0103625D01*
X0208298Y0103143D01*
X0199166Y0103143D01*
X0198004Y0103625D01*
X0197114Y0104514D01*
X0196633Y0105677D01*
X0196633Y0114809D01*
X0197114Y0115971D01*
X0198004Y0116860D01*
X0199166Y0117342D01*
X0208298Y0117342D01*
X0209460Y0116860D01*
X0210796Y0114894D02*
X0245440Y0114894D01*
X0245440Y0113296D02*
X0210831Y0113296D01*
X0210831Y0111697D02*
X0245440Y0111697D01*
X0245440Y0110099D02*
X0210831Y0110099D01*
X0210831Y0108500D02*
X0245440Y0108500D01*
X0245440Y0106902D02*
X0210831Y0106902D01*
X0210677Y0105303D02*
X0245440Y0105303D01*
X0245440Y0103705D02*
X0209540Y0103705D01*
X0207906Y0096294D02*
X0204212Y0096294D01*
X0204212Y0091037D01*
X0209469Y0091037D01*
X0209469Y0094731D01*
X0209346Y0095189D01*
X0209109Y0095600D01*
X0208774Y0095935D01*
X0208364Y0096172D01*
X0207906Y0096294D01*
X0208997Y0095712D02*
X0245440Y0095712D01*
X0245440Y0094114D02*
X0209469Y0094114D01*
X0209469Y0092515D02*
X0245440Y0092515D01*
X0245440Y0090917D02*
X0204212Y0090917D01*
X0204212Y0091037D02*
X0204212Y0090078D01*
X0209469Y0090078D01*
X0209469Y0086383D01*
X0209346Y0085926D01*
X0209109Y0085515D01*
X0208774Y0085180D01*
X0208364Y0084943D01*
X0207906Y0084820D01*
X0204212Y0084820D01*
X0204212Y0090078D01*
X0203252Y0090078D01*
X0197995Y0090078D01*
X0197995Y0086383D01*
X0198118Y0085926D01*
X0198355Y0085515D01*
X0198690Y0085180D01*
X0199100Y0084943D01*
X0199558Y0084820D01*
X0203252Y0084820D01*
X0203252Y0090078D01*
X0203252Y0091037D01*
X0197995Y0091037D01*
X0197995Y0094731D01*
X0198118Y0095189D01*
X0198355Y0095600D01*
X0198690Y0095935D01*
X0199100Y0096172D01*
X0199558Y0096294D01*
X0203252Y0096294D01*
X0203252Y0091037D01*
X0204212Y0091037D01*
X0203252Y0090917D02*
X0169464Y0090917D01*
X0169464Y0089318D02*
X0197995Y0089318D01*
X0197995Y0087720D02*
X0168829Y0087720D01*
X0167572Y0086121D02*
X0198065Y0086121D01*
X0203252Y0086121D02*
X0204212Y0086121D01*
X0204212Y0087720D02*
X0203252Y0087720D01*
X0203252Y0089318D02*
X0204212Y0089318D01*
X0204212Y0092515D02*
X0203252Y0092515D01*
X0203252Y0094114D02*
X0204212Y0094114D01*
X0204212Y0095712D02*
X0203252Y0095712D01*
X0198467Y0095712D02*
X0167163Y0095712D01*
X0168137Y0094114D02*
X0197995Y0094114D01*
X0197995Y0092515D02*
X0169063Y0092515D01*
X0168659Y0097311D02*
X0245440Y0097311D01*
X0245440Y0098909D02*
X0169322Y0098909D01*
X0169464Y0100508D02*
X0245440Y0100508D01*
X0245440Y0102106D02*
X0169232Y0102106D01*
X0168546Y0103705D02*
X0197924Y0103705D01*
X0196787Y0105303D02*
X0166922Y0105303D01*
X0168353Y0106902D02*
X0196633Y0106902D01*
X0196633Y0108500D02*
X0169152Y0108500D01*
X0169464Y0110099D02*
X0196633Y0110099D01*
X0196633Y0111697D02*
X0169402Y0111697D01*
X0168740Y0113296D02*
X0196633Y0113296D01*
X0196668Y0114894D02*
X0167357Y0114894D01*
X0167944Y0116493D02*
X0197636Y0116493D01*
X0197458Y0124485D02*
X0167766Y0124485D01*
X0167535Y0126084D02*
X0196633Y0126084D01*
X0196633Y0127682D02*
X0168813Y0127682D01*
X0169464Y0129281D02*
X0196633Y0129281D01*
X0196633Y0130879D02*
X0169464Y0130879D01*
X0169078Y0132478D02*
X0196633Y0132478D01*
X0196633Y0134076D02*
X0168175Y0134076D01*
X0167126Y0135675D02*
X0196861Y0135675D01*
X0198241Y0137273D02*
X0168644Y0137273D01*
X0169306Y0138872D02*
X0245440Y0138872D01*
X0245440Y0140470D02*
X0169464Y0140470D01*
X0169248Y0142069D02*
X0245440Y0142069D01*
X0256764Y0142069D02*
X0257676Y0142069D01*
X0257676Y0142890D02*
X0257676Y0139414D01*
X0259006Y0136203D01*
X0261464Y0133745D01*
X0264675Y0132415D01*
X0268151Y0132415D01*
X0271362Y0133745D01*
X0273820Y0136203D01*
X0274940Y0138907D01*
X0274940Y0054762D01*
X0274939Y0054746D01*
X0273396Y0056289D01*
X0271131Y0057228D01*
X0262679Y0057228D01*
X0260415Y0056289D01*
X0258681Y0054556D01*
X0257743Y0052291D01*
X0257743Y0049840D01*
X0258681Y0047575D01*
X0260191Y0046065D01*
X0258681Y0044556D01*
X0257827Y0042494D01*
X0257333Y0043519D01*
X0256828Y0045733D01*
X0256764Y0046868D01*
X0256764Y0179821D01*
X0255624Y0185552D01*
X0253388Y0190950D01*
X0250142Y0195809D01*
X0246011Y0199940D01*
X0241152Y0203186D01*
X0235754Y0205422D01*
X0230024Y0206562D01*
X0210831Y0206562D01*
X0210831Y0214856D01*
X0265484Y0214856D01*
X0266718Y0214775D01*
X0269103Y0214136D01*
X0271240Y0212902D01*
X0272986Y0211156D01*
X0274220Y0209019D01*
X0274859Y0206634D01*
X0274940Y0205400D01*
X0274940Y0143397D01*
X0273820Y0146101D01*
X0271362Y0148559D01*
X0268151Y0149889D01*
X0264675Y0149889D01*
X0261464Y0148559D01*
X0259006Y0146101D01*
X0257676Y0142890D01*
X0257998Y0143668D02*
X0256764Y0143668D01*
X0256764Y0145266D02*
X0258660Y0145266D01*
X0259770Y0146865D02*
X0256764Y0146865D01*
X0256764Y0148463D02*
X0261368Y0148463D01*
X0256764Y0150062D02*
X0274940Y0150062D01*
X0274940Y0151660D02*
X0256764Y0151660D01*
X0256764Y0153259D02*
X0274940Y0153259D01*
X0274940Y0154857D02*
X0256764Y0154857D01*
X0256764Y0156456D02*
X0274940Y0156456D01*
X0274940Y0158054D02*
X0256764Y0158054D01*
X0256764Y0159653D02*
X0274940Y0159653D01*
X0274940Y0161251D02*
X0256764Y0161251D01*
X0256764Y0162850D02*
X0274940Y0162850D01*
X0274940Y0164448D02*
X0256764Y0164448D01*
X0256764Y0166047D02*
X0274940Y0166047D01*
X0274940Y0167645D02*
X0256764Y0167645D01*
X0256764Y0169244D02*
X0274940Y0169244D01*
X0274940Y0170842D02*
X0256764Y0170842D01*
X0256764Y0172441D02*
X0274940Y0172441D01*
X0274940Y0174039D02*
X0256764Y0174039D01*
X0256764Y0175638D02*
X0274940Y0175638D01*
X0274940Y0177236D02*
X0256764Y0177236D01*
X0256764Y0178835D02*
X0274940Y0178835D01*
X0274940Y0180433D02*
X0256643Y0180433D01*
X0256325Y0182032D02*
X0274940Y0182032D01*
X0274940Y0183630D02*
X0256007Y0183630D01*
X0255689Y0185229D02*
X0274940Y0185229D01*
X0274940Y0186827D02*
X0255096Y0186827D01*
X0255624Y0185552D02*
X0255624Y0185552D01*
X0254434Y0188426D02*
X0274940Y0188426D01*
X0274940Y0190024D02*
X0253772Y0190024D01*
X0252939Y0191623D02*
X0274940Y0191623D01*
X0274940Y0193221D02*
X0251871Y0193221D01*
X0250803Y0194820D02*
X0274940Y0194820D01*
X0274940Y0196418D02*
X0249532Y0196418D01*
X0247934Y0198017D02*
X0274940Y0198017D01*
X0274940Y0199615D02*
X0246335Y0199615D01*
X0246011Y0199940D02*
X0246011Y0199940D01*
X0244104Y0201214D02*
X0274940Y0201214D01*
X0274940Y0202812D02*
X0241712Y0202812D01*
X0238196Y0204411D02*
X0274940Y0204411D01*
X0274900Y0206009D02*
X0232802Y0206009D01*
X0230557Y0194820D02*
X0210827Y0194820D01*
X0210831Y0193221D02*
X0235387Y0193221D01*
X0237916Y0191623D02*
X0210831Y0191623D01*
X0210831Y0190024D02*
X0239786Y0190024D01*
X0241349Y0188426D02*
X0210831Y0188426D01*
X0210831Y0186827D02*
X0242417Y0186827D01*
X0243405Y0185229D02*
X0210646Y0185229D01*
X0210831Y0207608D02*
X0274598Y0207608D01*
X0274112Y0209206D02*
X0210831Y0209206D01*
X0210831Y0210805D02*
X0273189Y0210805D01*
X0271739Y0212403D02*
X0210831Y0212403D01*
X0210831Y0214002D02*
X0269335Y0214002D01*
X0266718Y0214775D02*
X0266718Y0214775D01*
X0271910Y0225192D02*
X0284713Y0225192D01*
X0284713Y0226790D02*
X0210831Y0226790D01*
X0210831Y0228389D02*
X0284713Y0228389D01*
X0284713Y0229987D02*
X0210831Y0229987D01*
X0210831Y0231586D02*
X0284713Y0231586D01*
X0284713Y0233184D02*
X0210831Y0233184D01*
X0210831Y0234783D02*
X0284713Y0234783D01*
X0284713Y0236381D02*
X0209939Y0236381D01*
X0209894Y0244374D02*
X0284713Y0244374D01*
X0284713Y0245972D02*
X0210823Y0245972D01*
X0210831Y0247571D02*
X0284713Y0247571D01*
X0284713Y0249169D02*
X0210831Y0249169D01*
X0210831Y0250768D02*
X0265116Y0250768D01*
X0262843Y0252366D02*
X0210831Y0252366D01*
X0210831Y0253965D02*
X0261398Y0253965D01*
X0260736Y0255563D02*
X0210649Y0255563D01*
X0209474Y0257162D02*
X0260176Y0257162D01*
X0263059Y0265154D02*
X0209063Y0265154D01*
X0209109Y0265200D02*
X0209346Y0265611D01*
X0209469Y0266069D01*
X0209469Y0269763D01*
X0204212Y0269763D01*
X0204212Y0270722D01*
X0209469Y0270722D01*
X0209469Y0274416D01*
X0209346Y0274874D01*
X0209109Y0275285D01*
X0208774Y0275620D01*
X0208364Y0275857D01*
X0207906Y0275980D01*
X0204212Y0275980D01*
X0204212Y0270722D01*
X0203252Y0270722D01*
X0203252Y0269763D01*
X0204212Y0269763D01*
X0204212Y0264506D01*
X0207906Y0264506D01*
X0208364Y0264628D01*
X0208774Y0264865D01*
X0209109Y0265200D01*
X0209469Y0266753D02*
X0265640Y0266753D01*
X0272187Y0266753D02*
X0284713Y0266753D01*
X0284713Y0268351D02*
X0209469Y0268351D01*
X0209469Y0271548D02*
X0284713Y0271548D01*
X0284713Y0269950D02*
X0204212Y0269950D01*
X0203252Y0269950D02*
X0054650Y0269950D01*
X0054650Y0271548D02*
X0197995Y0271548D01*
X0197995Y0270722D02*
X0197995Y0274416D01*
X0198118Y0274874D01*
X0198355Y0275285D01*
X0198690Y0275620D01*
X0199100Y0275857D01*
X0199558Y0275980D01*
X0203252Y0275980D01*
X0203252Y0270722D01*
X0197995Y0270722D01*
X0197995Y0268351D02*
X0054417Y0268351D01*
X0054337Y0273147D02*
X0197995Y0273147D01*
X0198083Y0274745D02*
X0053674Y0274745D01*
X0052577Y0276344D02*
X0284713Y0276344D01*
X0284713Y0277942D02*
X0050979Y0277942D01*
X0040848Y0277942D02*
X0040802Y0277942D01*
X0040802Y0279541D02*
X0284713Y0279541D01*
X0284713Y0274745D02*
X0209381Y0274745D01*
X0209469Y0273147D02*
X0284713Y0273147D01*
X0284713Y0265154D02*
X0274767Y0265154D01*
X0276339Y0263556D02*
X0284713Y0263556D01*
X0284713Y0261957D02*
X0277001Y0261957D01*
X0277650Y0260359D02*
X0284713Y0260359D01*
X0284713Y0258760D02*
X0277650Y0258760D01*
X0277650Y0257162D02*
X0284713Y0257162D01*
X0284713Y0255563D02*
X0277091Y0255563D01*
X0276428Y0253965D02*
X0284713Y0253965D01*
X0284713Y0252366D02*
X0274983Y0252366D01*
X0272710Y0250768D02*
X0284713Y0250768D01*
X0284713Y0223593D02*
X0275533Y0223593D01*
X0278277Y0221995D02*
X0284713Y0221995D01*
X0284713Y0220396D02*
X0279876Y0220396D01*
X0281474Y0218798D02*
X0284713Y0218798D01*
X0284713Y0217199D02*
X0282667Y0217199D01*
X0283590Y0215601D02*
X0284713Y0215601D01*
X0284713Y0214002D02*
X0284513Y0214002D01*
X0274940Y0148463D02*
X0271458Y0148463D01*
X0273057Y0146865D02*
X0274940Y0146865D01*
X0274940Y0145266D02*
X0274166Y0145266D01*
X0274828Y0143668D02*
X0274940Y0143668D01*
X0274926Y0138872D02*
X0274940Y0138872D01*
X0274940Y0137273D02*
X0274263Y0137273D01*
X0274940Y0135675D02*
X0273292Y0135675D01*
X0271694Y0134076D02*
X0274940Y0134076D01*
X0274940Y0132478D02*
X0268303Y0132478D01*
X0264523Y0132478D02*
X0256764Y0132478D01*
X0256764Y0134076D02*
X0261133Y0134076D01*
X0259534Y0135675D02*
X0256764Y0135675D01*
X0256764Y0137273D02*
X0258563Y0137273D01*
X0257901Y0138872D02*
X0256764Y0138872D01*
X0256764Y0140470D02*
X0257676Y0140470D01*
X0256764Y0130879D02*
X0274940Y0130879D01*
X0274940Y0129281D02*
X0256764Y0129281D01*
X0256764Y0127682D02*
X0274940Y0127682D01*
X0274940Y0126084D02*
X0256764Y0126084D01*
X0256764Y0124485D02*
X0274940Y0124485D01*
X0274940Y0122887D02*
X0256764Y0122887D01*
X0256764Y0121288D02*
X0274940Y0121288D01*
X0274940Y0119690D02*
X0256764Y0119690D01*
X0256764Y0118091D02*
X0274940Y0118091D01*
X0274940Y0116493D02*
X0256764Y0116493D01*
X0256764Y0114894D02*
X0274940Y0114894D01*
X0274940Y0113296D02*
X0256764Y0113296D01*
X0256764Y0111697D02*
X0274940Y0111697D01*
X0274940Y0110099D02*
X0256764Y0110099D01*
X0256764Y0108500D02*
X0274940Y0108500D01*
X0274940Y0106902D02*
X0256764Y0106902D01*
X0256764Y0105303D02*
X0274940Y0105303D01*
X0274940Y0103705D02*
X0256764Y0103705D01*
X0256764Y0102106D02*
X0274940Y0102106D01*
X0274940Y0100508D02*
X0256764Y0100508D01*
X0256764Y0098909D02*
X0274940Y0098909D01*
X0274940Y0097311D02*
X0256764Y0097311D01*
X0256764Y0095712D02*
X0274940Y0095712D01*
X0274940Y0094114D02*
X0256764Y0094114D01*
X0256764Y0092515D02*
X0274940Y0092515D01*
X0274940Y0090917D02*
X0256764Y0090917D01*
X0256764Y0089318D02*
X0274940Y0089318D01*
X0274940Y0087720D02*
X0256764Y0087720D01*
X0256764Y0086121D02*
X0274940Y0086121D01*
X0274940Y0084523D02*
X0256764Y0084523D01*
X0256764Y0082924D02*
X0274940Y0082924D01*
X0274940Y0081326D02*
X0256764Y0081326D01*
X0256764Y0079727D02*
X0274940Y0079727D01*
X0274940Y0078129D02*
X0256764Y0078129D01*
X0256764Y0076530D02*
X0274940Y0076530D01*
X0274940Y0074932D02*
X0256764Y0074932D01*
X0256764Y0073333D02*
X0274940Y0073333D01*
X0274940Y0071734D02*
X0256764Y0071734D01*
X0256764Y0070136D02*
X0274940Y0070136D01*
X0274940Y0068537D02*
X0256764Y0068537D01*
X0256764Y0066939D02*
X0274940Y0066939D01*
X0274940Y0065340D02*
X0256764Y0065340D01*
X0256764Y0063742D02*
X0274940Y0063742D01*
X0274940Y0062143D02*
X0256764Y0062143D01*
X0256764Y0060545D02*
X0274940Y0060545D01*
X0274940Y0058946D02*
X0256764Y0058946D01*
X0256764Y0057348D02*
X0274940Y0057348D01*
X0274940Y0055749D02*
X0273936Y0055749D01*
X0259875Y0055749D02*
X0256764Y0055749D01*
X0256764Y0054151D02*
X0258513Y0054151D01*
X0257851Y0052552D02*
X0256764Y0052552D01*
X0256764Y0050954D02*
X0257743Y0050954D01*
X0257944Y0049355D02*
X0256764Y0049355D01*
X0256764Y0047757D02*
X0258606Y0047757D01*
X0260098Y0046158D02*
X0256804Y0046158D01*
X0257096Y0044560D02*
X0258685Y0044560D01*
X0258021Y0042961D02*
X0257602Y0042961D01*
X0248041Y0036567D02*
X0241229Y0036567D01*
X0242236Y0038166D02*
X0247271Y0038166D01*
X0246509Y0039764D02*
X0243033Y0039764D01*
X0243209Y0041363D02*
X0246144Y0041363D01*
X0245780Y0042961D02*
X0242830Y0042961D01*
X0241703Y0044560D02*
X0245440Y0044560D01*
X0245440Y0046158D02*
X0242217Y0046158D01*
X0243709Y0047757D02*
X0245440Y0047757D01*
X0245440Y0049355D02*
X0244371Y0049355D01*
X0244571Y0050954D02*
X0245440Y0050954D01*
X0245440Y0052552D02*
X0244463Y0052552D01*
X0243801Y0054151D02*
X0245440Y0054151D01*
X0245440Y0055749D02*
X0242440Y0055749D01*
X0245440Y0057348D02*
X0166873Y0057348D01*
X0167856Y0058946D02*
X0245440Y0058946D01*
X0245440Y0060545D02*
X0168102Y0060545D01*
X0167752Y0062143D02*
X0245440Y0062143D01*
X0245440Y0063742D02*
X0166583Y0063742D01*
X0166545Y0065340D02*
X0245440Y0065340D01*
X0245440Y0066939D02*
X0168390Y0066939D01*
X0169168Y0068537D02*
X0178908Y0068537D01*
X0180389Y0067057D02*
X0184815Y0067057D01*
X0187945Y0070187D01*
X0187945Y0074613D01*
X0184815Y0077743D01*
X0180389Y0077743D01*
X0177259Y0074613D01*
X0177259Y0070187D01*
X0180389Y0067057D01*
X0177309Y0070136D02*
X0169464Y0070136D01*
X0169386Y0071734D02*
X0177259Y0071734D01*
X0177259Y0073333D02*
X0168724Y0073333D01*
X0167320Y0074932D02*
X0177577Y0074932D01*
X0179176Y0076530D02*
X0167981Y0076530D01*
X0168998Y0078129D02*
X0245440Y0078129D01*
X0245440Y0079727D02*
X0169464Y0079727D01*
X0169464Y0081326D02*
X0245440Y0081326D01*
X0245440Y0082924D02*
X0168894Y0082924D01*
X0167728Y0084523D02*
X0245440Y0084523D01*
X0245440Y0086121D02*
X0209399Y0086121D01*
X0209469Y0087720D02*
X0245440Y0087720D01*
X0245440Y0089318D02*
X0209469Y0089318D01*
X0187627Y0074932D02*
X0245440Y0074932D01*
X0245440Y0076530D02*
X0186029Y0076530D01*
X0187945Y0073333D02*
X0245440Y0073333D01*
X0245440Y0071734D02*
X0187945Y0071734D01*
X0187895Y0070136D02*
X0245440Y0070136D01*
X0245440Y0068537D02*
X0186296Y0068537D01*
X0184251Y0056381D02*
X0182602Y0056381D01*
X0180953Y0056381D01*
X0178621Y0054049D01*
X0178621Y0052400D01*
X0182602Y0052400D01*
X0182602Y0052400D01*
X0178621Y0052400D01*
X0178621Y0050751D01*
X0180953Y0048419D01*
X0182602Y0048419D01*
X0182602Y0052400D01*
X0182602Y0056381D01*
X0182602Y0052400D01*
X0182602Y0052400D01*
X0182602Y0052400D01*
X0182602Y0048419D01*
X0184251Y0048419D01*
X0186583Y0050751D01*
X0186583Y0052400D01*
X0186583Y0054049D01*
X0184251Y0056381D01*
X0184883Y0055749D02*
X0228379Y0055749D01*
X0235075Y0051400D02*
X0204602Y0051400D01*
X0203089Y0046158D02*
X0228602Y0046158D01*
X0229115Y0044560D02*
X0214257Y0044560D01*
X0213436Y0045381D02*
X0211787Y0045381D01*
X0210138Y0045381D01*
X0207806Y0043049D01*
X0207806Y0041400D01*
X0211787Y0041400D01*
X0211787Y0041400D01*
X0207806Y0041400D01*
X0207806Y0039751D01*
X0210138Y0037419D01*
X0211787Y0037419D01*
X0211787Y0041400D01*
X0211787Y0045381D01*
X0211787Y0041400D01*
X0211787Y0041400D01*
X0211787Y0041400D01*
X0211787Y0037419D01*
X0213436Y0037419D01*
X0215768Y0039751D01*
X0215768Y0041400D01*
X0215768Y0043049D01*
X0213436Y0045381D01*
X0211787Y0044560D02*
X0211787Y0044560D01*
X0211787Y0042961D02*
X0211787Y0042961D01*
X0211787Y0041400D02*
X0215768Y0041400D01*
X0211787Y0041400D01*
X0211787Y0041400D01*
X0211787Y0041363D02*
X0211787Y0041363D01*
X0211787Y0039764D02*
X0211787Y0039764D01*
X0211787Y0038166D02*
X0211787Y0038166D01*
X0209391Y0038166D02*
X0199392Y0038166D01*
X0200518Y0038984D02*
X0200518Y0038984D01*
X0200518Y0038984D01*
X0201085Y0039764D02*
X0207806Y0039764D01*
X0207806Y0041363D02*
X0202214Y0041363D01*
X0202187Y0041281D02*
X0202187Y0041281D01*
X0202733Y0042961D02*
X0207806Y0042961D01*
X0209317Y0044560D02*
X0203064Y0044560D01*
X0199102Y0045900D02*
X0199104Y0046046D01*
X0199110Y0046193D01*
X0199120Y0046339D01*
X0199133Y0046485D01*
X0199151Y0046630D01*
X0199172Y0046775D01*
X0199197Y0046919D01*
X0199226Y0047063D01*
X0199259Y0047205D01*
X0199296Y0047347D01*
X0199336Y0047488D01*
X0199380Y0047627D01*
X0199428Y0047766D01*
X0199480Y0047903D01*
X0199535Y0048039D01*
X0199594Y0048173D01*
X0199656Y0048305D01*
X0199722Y0048436D01*
X0199791Y0048565D01*
X0199863Y0048692D01*
X0199939Y0048817D01*
X0200019Y0048940D01*
X0200101Y0049061D01*
X0200187Y0049180D01*
X0200276Y0049296D01*
X0200368Y0049410D01*
X0200463Y0049522D01*
X0200561Y0049631D01*
X0200661Y0049737D01*
X0200765Y0049841D01*
X0200871Y0049941D01*
X0200980Y0050039D01*
X0201092Y0050134D01*
X0201206Y0050226D01*
X0201322Y0050315D01*
X0201441Y0050401D01*
X0201562Y0050483D01*
X0201685Y0050563D01*
X0201810Y0050639D01*
X0201937Y0050711D01*
X0202066Y0050780D01*
X0202197Y0050846D01*
X0202329Y0050908D01*
X0202463Y0050967D01*
X0202599Y0051022D01*
X0202736Y0051074D01*
X0202875Y0051122D01*
X0203014Y0051166D01*
X0203155Y0051206D01*
X0203297Y0051243D01*
X0203439Y0051276D01*
X0203583Y0051305D01*
X0203727Y0051330D01*
X0203872Y0051351D01*
X0204017Y0051369D01*
X0204163Y0051382D01*
X0204309Y0051392D01*
X0204456Y0051398D01*
X0204602Y0051400D01*
X0199860Y0054151D02*
X0186481Y0054151D01*
X0186583Y0052552D02*
X0197739Y0052552D01*
X0196578Y0050954D02*
X0186583Y0050954D01*
X0186583Y0052400D02*
X0182602Y0052400D01*
X0186583Y0052400D01*
X0185188Y0049355D02*
X0195776Y0049355D01*
X0195256Y0047757D02*
X0168844Y0047757D01*
X0169464Y0049355D02*
X0180017Y0049355D01*
X0178621Y0050954D02*
X0169464Y0050954D01*
X0169047Y0052552D02*
X0178621Y0052552D01*
X0178723Y0054151D02*
X0168100Y0054151D01*
X0165845Y0055749D02*
X0180321Y0055749D01*
X0182602Y0055749D02*
X0182602Y0055749D01*
X0182602Y0054151D02*
X0182602Y0054151D01*
X0182602Y0052552D02*
X0182602Y0052552D01*
X0182602Y0052400D02*
X0182602Y0052400D01*
X0182602Y0050954D02*
X0182602Y0050954D01*
X0182602Y0049355D02*
X0182602Y0049355D01*
X0194102Y0040400D02*
X0194242Y0040402D01*
X0194382Y0040408D01*
X0194522Y0040418D01*
X0194662Y0040431D01*
X0194801Y0040449D01*
X0194940Y0040471D01*
X0195077Y0040496D01*
X0195215Y0040525D01*
X0195351Y0040558D01*
X0195486Y0040595D01*
X0195620Y0040636D01*
X0195753Y0040681D01*
X0195885Y0040729D01*
X0196015Y0040781D01*
X0196144Y0040836D01*
X0196271Y0040895D01*
X0196397Y0040958D01*
X0196521Y0041024D01*
X0196642Y0041093D01*
X0196762Y0041166D01*
X0196880Y0041243D01*
X0196995Y0041322D01*
X0197109Y0041405D01*
X0197219Y0041491D01*
X0197328Y0041580D01*
X0197434Y0041672D01*
X0197537Y0041767D01*
X0197638Y0041864D01*
X0197735Y0041965D01*
X0197830Y0042068D01*
X0197922Y0042174D01*
X0198011Y0042283D01*
X0198097Y0042393D01*
X0198180Y0042507D01*
X0198259Y0042622D01*
X0198336Y0042740D01*
X0198409Y0042860D01*
X0198478Y0042981D01*
X0198544Y0043105D01*
X0198607Y0043231D01*
X0198666Y0043358D01*
X0198721Y0043487D01*
X0198773Y0043617D01*
X0198821Y0043749D01*
X0198866Y0043882D01*
X0198907Y0044016D01*
X0198944Y0044151D01*
X0198977Y0044287D01*
X0199006Y0044425D01*
X0199031Y0044562D01*
X0199053Y0044701D01*
X0199071Y0044840D01*
X0199084Y0044980D01*
X0199094Y0045120D01*
X0199100Y0045260D01*
X0199102Y0045400D01*
X0199102Y0045900D01*
X0195140Y0046158D02*
X0167609Y0046158D01*
X0167691Y0044560D02*
X0194690Y0044560D01*
X0194102Y0040400D02*
X0161102Y0040400D01*
X0154513Y0044560D02*
X0151077Y0044560D01*
X0151064Y0042961D02*
X0153326Y0042961D01*
X0147102Y0044400D02*
X0147104Y0044552D01*
X0147110Y0044704D01*
X0147119Y0044856D01*
X0147133Y0045007D01*
X0147150Y0045158D01*
X0147171Y0045309D01*
X0147196Y0045459D01*
X0147225Y0045608D01*
X0147257Y0045756D01*
X0147294Y0045904D01*
X0147333Y0046051D01*
X0147377Y0046196D01*
X0147425Y0046341D01*
X0147475Y0046484D01*
X0147530Y0046626D01*
X0147588Y0046766D01*
X0147650Y0046905D01*
X0147715Y0047042D01*
X0147784Y0047178D01*
X0147856Y0047312D01*
X0147931Y0047444D01*
X0148010Y0047574D01*
X0148092Y0047702D01*
X0148177Y0047828D01*
X0148266Y0047951D01*
X0148357Y0048073D01*
X0148452Y0048192D01*
X0148549Y0048308D01*
X0148650Y0048422D01*
X0148753Y0048534D01*
X0148859Y0048643D01*
X0148968Y0048749D01*
X0149080Y0048852D01*
X0149194Y0048953D01*
X0149310Y0049050D01*
X0149429Y0049145D01*
X0149551Y0049236D01*
X0149674Y0049325D01*
X0149800Y0049410D01*
X0149928Y0049492D01*
X0150058Y0049571D01*
X0150190Y0049646D01*
X0150324Y0049718D01*
X0150460Y0049787D01*
X0150597Y0049852D01*
X0150736Y0049914D01*
X0150876Y0049972D01*
X0151018Y0050027D01*
X0151161Y0050077D01*
X0151306Y0050125D01*
X0151451Y0050169D01*
X0151598Y0050208D01*
X0151746Y0050245D01*
X0151894Y0050277D01*
X0152043Y0050306D01*
X0152193Y0050331D01*
X0152344Y0050352D01*
X0152495Y0050369D01*
X0152646Y0050383D01*
X0152798Y0050392D01*
X0152950Y0050398D01*
X0153102Y0050400D01*
X0161102Y0050400D01*
X0156359Y0055749D02*
X0137200Y0055749D01*
X0136966Y0055515D02*
X0138587Y0057136D01*
X0139464Y0059254D01*
X0139464Y0061546D01*
X0138587Y0063664D01*
X0136966Y0065285D01*
X0136688Y0065400D01*
X0136966Y0065515D01*
X0138587Y0067136D01*
X0139464Y0069254D01*
X0139464Y0071546D01*
X0138587Y0073664D01*
X0136966Y0075285D01*
X0134870Y0076153D01*
X0135391Y0076322D01*
X0136008Y0076637D01*
X0136568Y0077044D01*
X0137058Y0077534D01*
X0137465Y0078094D01*
X0137780Y0078711D01*
X0137994Y0079370D01*
X0138102Y0080054D01*
X0138102Y0080400D01*
X0138102Y0080746D01*
X0137994Y0081430D01*
X0137780Y0082089D01*
X0137465Y0082706D01*
X0137058Y0083266D01*
X0136568Y0083756D01*
X0136008Y0084163D01*
X0135391Y0084478D01*
X0134870Y0084647D01*
X0136966Y0085515D01*
X0138587Y0087136D01*
X0139464Y0089254D01*
X0139464Y0091546D01*
X0138587Y0093664D01*
X0136966Y0095285D01*
X0136688Y0095400D01*
X0136966Y0095515D01*
X0138587Y0097136D01*
X0139464Y0099254D01*
X0139464Y0101546D01*
X0138587Y0103664D01*
X0136966Y0105285D01*
X0136688Y0105400D01*
X0136966Y0105515D01*
X0138587Y0107136D01*
X0139464Y0109254D01*
X0139464Y0111546D01*
X0138587Y0113664D01*
X0136966Y0115285D01*
X0136688Y0115400D01*
X0136966Y0115515D01*
X0138587Y0117136D01*
X0139464Y0119254D01*
X0139464Y0121546D01*
X0138587Y0123664D01*
X0136966Y0125285D01*
X0136688Y0125400D01*
X0136966Y0125515D01*
X0138587Y0127136D01*
X0139464Y0129254D01*
X0139464Y0131546D01*
X0138587Y0133664D01*
X0136966Y0135285D01*
X0136688Y0135400D01*
X0136966Y0135515D01*
X0138587Y0137136D01*
X0139464Y0139254D01*
X0139464Y0141546D01*
X0138587Y0143664D01*
X0136966Y0145285D01*
X0136688Y0145400D01*
X0136966Y0145515D01*
X0138587Y0147136D01*
X0139464Y0149254D01*
X0139464Y0151546D01*
X0138587Y0153664D01*
X0136966Y0155285D01*
X0134848Y0156162D01*
X0127356Y0156162D01*
X0125238Y0155285D01*
X0123617Y0153664D01*
X0122740Y0151546D01*
X0122740Y0149254D01*
X0123617Y0147136D01*
X0125238Y0145515D01*
X0125516Y0145400D01*
X0125238Y0145285D01*
X0123617Y0143664D01*
X0122740Y0141546D01*
X0122740Y0139254D01*
X0123617Y0137136D01*
X0125238Y0135515D01*
X0125516Y0135400D01*
X0125238Y0135285D01*
X0123617Y0133664D01*
X0122740Y0131546D01*
X0122740Y0129254D01*
X0123617Y0127136D01*
X0125238Y0125515D01*
X0125516Y0125400D01*
X0125238Y0125285D01*
X0123617Y0123664D01*
X0122740Y0121546D01*
X0122740Y0119254D01*
X0123617Y0117136D01*
X0125238Y0115515D01*
X0125516Y0115400D01*
X0125238Y0115285D01*
X0123617Y0113664D01*
X0122740Y0111546D01*
X0122740Y0109254D01*
X0123617Y0107136D01*
X0125238Y0105515D01*
X0125516Y0105400D01*
X0125238Y0105285D01*
X0123617Y0103664D01*
X0122740Y0101546D01*
X0122740Y0099254D01*
X0123617Y0097136D01*
X0125238Y0095515D01*
X0125516Y0095400D01*
X0125238Y0095285D01*
X0123617Y0093664D01*
X0122740Y0091546D01*
X0122740Y0089254D01*
X0123617Y0087136D01*
X0125238Y0085515D01*
X0127334Y0084647D01*
X0126813Y0084478D01*
X0126196Y0084163D01*
X0125636Y0083756D01*
X0125146Y0083266D01*
X0124739Y0082706D01*
X0124424Y0082089D01*
X0124210Y0081430D01*
X0124102Y0080746D01*
X0124102Y0080400D01*
X0131102Y0080400D01*
X0131102Y0080400D01*
X0124102Y0080400D01*
X0124102Y0080054D01*
X0124210Y0079370D01*
X0124424Y0078711D01*
X0124739Y0078094D01*
X0125146Y0077534D01*
X0125636Y0077044D01*
X0126196Y0076637D01*
X0126813Y0076322D01*
X0127334Y0076153D01*
X0125238Y0075285D01*
X0123617Y0073664D01*
X0122740Y0071546D01*
X0122740Y0069254D01*
X0123617Y0067136D01*
X0125238Y0065515D01*
X0125516Y0065400D01*
X0125238Y0065285D01*
X0123617Y0063664D01*
X0122740Y0061546D01*
X0122740Y0059254D01*
X0123617Y0057136D01*
X0125238Y0055515D01*
X0125516Y0055400D01*
X0125238Y0055285D01*
X0123617Y0053664D01*
X0122740Y0051546D01*
X0122740Y0049254D01*
X0123617Y0047136D01*
X0125238Y0045515D01*
X0125516Y0045400D01*
X0125238Y0045285D01*
X0123617Y0043664D01*
X0122740Y0041546D01*
X0122740Y0039254D01*
X0123617Y0037136D01*
X0125238Y0035515D01*
X0125516Y0035400D01*
X0125238Y0035285D01*
X0123617Y0033664D01*
X0122740Y0031546D01*
X0122740Y0029254D01*
X0123617Y0027136D01*
X0125238Y0025515D01*
X0125516Y0025400D01*
X0125238Y0025285D01*
X0123617Y0023664D01*
X0122740Y0021546D01*
X0122740Y0019254D01*
X0123617Y0017136D01*
X0125238Y0015515D01*
X0127356Y0014638D01*
X0134848Y0014638D01*
X0136966Y0015515D01*
X0138587Y0017136D01*
X0139464Y0019254D01*
X0139464Y0021546D01*
X0138587Y0023664D01*
X0136966Y0025285D01*
X0136688Y0025400D01*
X0136966Y0025515D01*
X0138587Y0027136D01*
X0139464Y0029254D01*
X0139464Y0031546D01*
X0138587Y0033664D01*
X0136966Y0035285D01*
X0136688Y0035400D01*
X0136966Y0035515D01*
X0138587Y0037136D01*
X0139464Y0039254D01*
X0139464Y0041546D01*
X0138587Y0043664D01*
X0136966Y0045285D01*
X0136688Y0045400D01*
X0136966Y0045515D01*
X0138587Y0047136D01*
X0139464Y0049254D01*
X0139464Y0051546D01*
X0138587Y0053664D01*
X0136966Y0055285D01*
X0136688Y0055400D01*
X0136966Y0055515D01*
X0138100Y0054151D02*
X0150874Y0054151D01*
X0147374Y0052552D02*
X0139047Y0052552D01*
X0139464Y0050954D02*
X0145550Y0050954D01*
X0144388Y0049355D02*
X0139464Y0049355D01*
X0138844Y0047757D02*
X0143718Y0047757D01*
X0143198Y0046158D02*
X0137609Y0046158D01*
X0137691Y0044560D02*
X0143140Y0044560D01*
X0143140Y0042961D02*
X0138878Y0042961D01*
X0139464Y0041363D02*
X0143140Y0041363D01*
X0143140Y0039764D02*
X0139464Y0039764D01*
X0139014Y0038166D02*
X0143140Y0038166D01*
X0143140Y0036567D02*
X0138018Y0036567D01*
X0137282Y0034969D02*
X0143140Y0034969D01*
X0143140Y0033370D02*
X0138709Y0033370D01*
X0139371Y0031772D02*
X0143140Y0031772D01*
X0143140Y0030173D02*
X0139464Y0030173D01*
X0139183Y0028575D02*
X0143140Y0028575D01*
X0143140Y0026976D02*
X0138427Y0026976D01*
X0136742Y0025378D02*
X0143140Y0025378D01*
X0143140Y0023779D02*
X0138472Y0023779D01*
X0139201Y0022181D02*
X0143140Y0022181D01*
X0143140Y0020582D02*
X0139464Y0020582D01*
X0139352Y0018984D02*
X0143140Y0018984D01*
X0143140Y0017385D02*
X0138690Y0017385D01*
X0137238Y0015787D02*
X0143140Y0015787D01*
X0143346Y0014188D02*
X0040802Y0014188D01*
X0040802Y0012590D02*
X0143865Y0012590D01*
X0144718Y0010991D02*
X0040802Y0010991D01*
X0040802Y0009393D02*
X0145879Y0009393D01*
X0147998Y0007794D02*
X0040802Y0007794D01*
X0049307Y0014360D02*
X0053897Y0014360D01*
X0057142Y0017605D01*
X0057142Y0022195D01*
X0053897Y0025440D01*
X0049307Y0025440D01*
X0046062Y0022195D01*
X0046062Y0017605D01*
X0049307Y0014360D01*
X0047880Y0015787D02*
X0040802Y0015787D01*
X0040802Y0017385D02*
X0046282Y0017385D01*
X0046062Y0018984D02*
X0040802Y0018984D01*
X0040802Y0020582D02*
X0046062Y0020582D01*
X0046062Y0022181D02*
X0040802Y0022181D01*
X0040802Y0023779D02*
X0047646Y0023779D01*
X0049245Y0025378D02*
X0040802Y0025378D01*
X0040802Y0026976D02*
X0123777Y0026976D01*
X0123021Y0028575D02*
X0040802Y0028575D01*
X0040802Y0030173D02*
X0122740Y0030173D01*
X0122833Y0031772D02*
X0040802Y0031772D01*
X0040802Y0033370D02*
X0123495Y0033370D01*
X0124922Y0034969D02*
X0040802Y0034969D01*
X0040802Y0036567D02*
X0124186Y0036567D01*
X0123191Y0038166D02*
X0040802Y0038166D01*
X0040802Y0039764D02*
X0122740Y0039764D01*
X0122740Y0041363D02*
X0040802Y0041363D01*
X0040802Y0042961D02*
X0123326Y0042961D01*
X0124513Y0044560D02*
X0040802Y0044560D01*
X0040802Y0046158D02*
X0124595Y0046158D01*
X0123360Y0047757D02*
X0040802Y0047757D01*
X0040802Y0049355D02*
X0122740Y0049355D01*
X0122740Y0050954D02*
X0110801Y0050954D01*
X0111002Y0051037D02*
X0112449Y0052485D01*
X0113233Y0054376D01*
X0113233Y0056424D01*
X0112449Y0058315D01*
X0111002Y0059763D01*
X0109110Y0060546D01*
X0103094Y0060546D01*
X0101203Y0059763D01*
X0099755Y0058315D01*
X0098971Y0056424D01*
X0098971Y0054376D01*
X0099755Y0052485D01*
X0101203Y0051037D01*
X0103094Y0050254D01*
X0109110Y0050254D01*
X0111002Y0051037D01*
X0112477Y0052552D02*
X0123157Y0052552D01*
X0124104Y0054151D02*
X0113139Y0054151D01*
X0113233Y0055749D02*
X0125004Y0055749D01*
X0123529Y0057348D02*
X0112850Y0057348D01*
X0111818Y0058946D02*
X0122867Y0058946D01*
X0122740Y0060545D02*
X0109114Y0060545D01*
X0103090Y0060545D02*
X0088514Y0060545D01*
X0088315Y0060743D02*
X0083889Y0060743D01*
X0080759Y0057613D01*
X0080759Y0053187D01*
X0083889Y0050057D01*
X0088315Y0050057D01*
X0091445Y0053187D01*
X0091445Y0057613D01*
X0088315Y0060743D01*
X0090112Y0058946D02*
X0100386Y0058946D01*
X0099354Y0057348D02*
X0091445Y0057348D01*
X0091445Y0055749D02*
X0098971Y0055749D01*
X0099065Y0054151D02*
X0091445Y0054151D01*
X0090811Y0052552D02*
X0099727Y0052552D01*
X0101403Y0050954D02*
X0089212Y0050954D01*
X0082992Y0050954D02*
X0040802Y0050954D01*
X0040802Y0052552D02*
X0073320Y0052552D01*
X0074453Y0051419D02*
X0076102Y0051419D01*
X0076102Y0055400D01*
X0076102Y0055400D01*
X0072121Y0055400D01*
X0072121Y0057049D01*
X0074453Y0059381D01*
X0076102Y0059381D01*
X0076102Y0055400D01*
X0072121Y0055400D01*
X0072121Y0053751D01*
X0074453Y0051419D01*
X0076102Y0051419D02*
X0076102Y0055400D01*
X0076102Y0055400D01*
X0076102Y0055400D01*
X0076102Y0059381D01*
X0077751Y0059381D01*
X0080083Y0057049D01*
X0080083Y0055400D01*
X0076102Y0055400D01*
X0076102Y0055400D01*
X0080083Y0055400D01*
X0080083Y0053751D01*
X0077751Y0051419D01*
X0076102Y0051419D01*
X0076102Y0052552D02*
X0076102Y0052552D01*
X0076102Y0054151D02*
X0076102Y0054151D01*
X0076102Y0055749D02*
X0076102Y0055749D01*
X0076102Y0057348D02*
X0076102Y0057348D01*
X0076102Y0058946D02*
X0076102Y0058946D01*
X0074018Y0058946D02*
X0040802Y0058946D01*
X0040802Y0057348D02*
X0072420Y0057348D01*
X0072121Y0055749D02*
X0040802Y0055749D01*
X0040802Y0054151D02*
X0072121Y0054151D01*
X0078186Y0058946D02*
X0082092Y0058946D01*
X0080759Y0057348D02*
X0079784Y0057348D01*
X0080083Y0055749D02*
X0080759Y0055749D01*
X0080759Y0054151D02*
X0080083Y0054151D01*
X0078885Y0052552D02*
X0081393Y0052552D01*
X0083690Y0060545D02*
X0040802Y0060545D01*
X0040802Y0062143D02*
X0122987Y0062143D01*
X0123695Y0063742D02*
X0040802Y0063742D01*
X0040802Y0065340D02*
X0125372Y0065340D01*
X0123814Y0066939D02*
X0040802Y0066939D01*
X0040802Y0068537D02*
X0123037Y0068537D01*
X0122740Y0070136D02*
X0088395Y0070136D01*
X0088315Y0070057D02*
X0091445Y0073187D01*
X0091445Y0077613D01*
X0088315Y0080743D01*
X0083889Y0080743D01*
X0080759Y0077613D01*
X0080759Y0073187D01*
X0083889Y0070057D01*
X0088315Y0070057D01*
X0089993Y0071734D02*
X0100505Y0071734D01*
X0101203Y0071037D02*
X0099755Y0072485D01*
X0098971Y0074376D01*
X0098971Y0076424D01*
X0099755Y0078315D01*
X0101203Y0079763D01*
X0103094Y0080546D01*
X0109110Y0080546D01*
X0111002Y0079763D01*
X0112449Y0078315D01*
X0113233Y0076424D01*
X0113233Y0074376D01*
X0112449Y0072485D01*
X0111002Y0071037D01*
X0109110Y0070254D01*
X0103094Y0070254D01*
X0101203Y0071037D01*
X0099403Y0073333D02*
X0091445Y0073333D01*
X0091445Y0074932D02*
X0098971Y0074932D01*
X0099015Y0076530D02*
X0091445Y0076530D01*
X0090930Y0078129D02*
X0099678Y0078129D01*
X0101167Y0079727D02*
X0089332Y0079727D01*
X0082873Y0079727D02*
X0040802Y0079727D01*
X0040802Y0078129D02*
X0073200Y0078129D01*
X0072121Y0077049D02*
X0074453Y0079381D01*
X0076102Y0079381D01*
X0076102Y0075400D01*
X0076102Y0075400D01*
X0072121Y0075400D01*
X0072121Y0077049D01*
X0072121Y0076530D02*
X0040802Y0076530D01*
X0040802Y0074932D02*
X0072121Y0074932D01*
X0072121Y0075400D02*
X0072121Y0073751D01*
X0074453Y0071419D01*
X0076102Y0071419D01*
X0076102Y0075400D01*
X0072121Y0075400D01*
X0072539Y0073333D02*
X0040802Y0073333D01*
X0040802Y0071734D02*
X0074137Y0071734D01*
X0076102Y0071734D02*
X0076102Y0071734D01*
X0076102Y0071419D02*
X0077751Y0071419D01*
X0080083Y0073751D01*
X0080083Y0075400D01*
X0080083Y0077049D01*
X0077751Y0079381D01*
X0076102Y0079381D01*
X0076102Y0075400D01*
X0076102Y0075400D01*
X0076102Y0075400D01*
X0076102Y0071419D01*
X0076102Y0073333D02*
X0076102Y0073333D01*
X0076102Y0074932D02*
X0076102Y0074932D01*
X0076102Y0075400D02*
X0076102Y0075400D01*
X0080083Y0075400D01*
X0076102Y0075400D01*
X0076102Y0076530D02*
X0076102Y0076530D01*
X0076102Y0078129D02*
X0076102Y0078129D01*
X0079004Y0078129D02*
X0081274Y0078129D01*
X0080759Y0076530D02*
X0080083Y0076530D01*
X0080083Y0074932D02*
X0080759Y0074932D01*
X0080759Y0073333D02*
X0079665Y0073333D01*
X0078067Y0071734D02*
X0082211Y0071734D01*
X0083809Y0070136D02*
X0040802Y0070136D01*
X0040802Y0081326D02*
X0124194Y0081326D01*
X0124154Y0079727D02*
X0111037Y0079727D01*
X0112527Y0078129D02*
X0124721Y0078129D01*
X0126405Y0076530D02*
X0113189Y0076530D01*
X0113233Y0074932D02*
X0124885Y0074932D01*
X0123480Y0073333D02*
X0112801Y0073333D01*
X0111699Y0071734D02*
X0122818Y0071734D01*
X0124897Y0082924D02*
X0040802Y0082924D01*
X0040802Y0084523D02*
X0126951Y0084523D01*
X0124632Y0086121D02*
X0040802Y0086121D01*
X0040802Y0087720D02*
X0123375Y0087720D01*
X0122740Y0089318D02*
X0040802Y0089318D01*
X0040802Y0090917D02*
X0122740Y0090917D01*
X0123141Y0092515D02*
X0040802Y0092515D01*
X0040802Y0094114D02*
X0124067Y0094114D01*
X0125041Y0095712D02*
X0040802Y0095712D01*
X0040802Y0097311D02*
X0123545Y0097311D01*
X0122883Y0098909D02*
X0118668Y0098909D01*
X0118315Y0098557D02*
X0121445Y0101687D01*
X0121445Y0106113D01*
X0118315Y0109243D01*
X0113889Y0109243D01*
X0110759Y0106113D01*
X0110759Y0101687D01*
X0113889Y0098557D01*
X0118315Y0098557D01*
X0120266Y0100508D02*
X0122740Y0100508D01*
X0122972Y0102106D02*
X0121445Y0102106D01*
X0121445Y0103705D02*
X0123658Y0103705D01*
X0125282Y0105303D02*
X0121445Y0105303D01*
X0120657Y0106902D02*
X0123851Y0106902D01*
X0123052Y0108500D02*
X0119058Y0108500D01*
X0122740Y0110099D02*
X0066002Y0110099D01*
X0066002Y0109577D02*
X0066002Y0111400D01*
X0066002Y0113223D01*
X0063425Y0115800D01*
X0061602Y0115800D01*
X0059780Y0115800D01*
X0057364Y0113385D01*
X0057364Y0113787D01*
X0053989Y0117162D01*
X0049215Y0117162D01*
X0045840Y0113787D01*
X0045840Y0109013D01*
X0049215Y0105638D01*
X0053989Y0105638D01*
X0057364Y0109013D01*
X0057364Y0109415D01*
X0059780Y0107000D01*
X0061602Y0107000D01*
X0061602Y0111400D01*
X0061602Y0115800D01*
X0061602Y0111400D01*
X0061602Y0111400D01*
X0061602Y0111400D01*
X0061602Y0107000D01*
X0063425Y0107000D01*
X0066002Y0109577D01*
X0064925Y0108500D02*
X0113146Y0108500D01*
X0111547Y0106902D02*
X0098730Y0106902D01*
X0097751Y0107881D02*
X0096102Y0107881D01*
X0094453Y0107881D01*
X0092121Y0105549D01*
X0092121Y0103900D01*
X0096102Y0103900D01*
X0096102Y0103900D01*
X0092121Y0103900D01*
X0092121Y0102251D01*
X0094453Y0099919D01*
X0096102Y0099919D01*
X0096102Y0103900D01*
X0096102Y0107881D01*
X0096102Y0103900D01*
X0096102Y0103900D01*
X0096102Y0103900D01*
X0096102Y0099919D01*
X0097751Y0099919D01*
X0100083Y0102251D01*
X0100083Y0103900D01*
X0100083Y0105549D01*
X0097751Y0107881D01*
X0096102Y0106902D02*
X0096102Y0106902D01*
X0096102Y0105303D02*
X0096102Y0105303D01*
X0096102Y0103900D02*
X0100083Y0103900D01*
X0096102Y0103900D01*
X0096102Y0103900D01*
X0096102Y0103705D02*
X0096102Y0103705D01*
X0096102Y0102106D02*
X0096102Y0102106D01*
X0096102Y0100508D02*
X0096102Y0100508D01*
X0093864Y0100508D02*
X0040802Y0100508D01*
X0040802Y0102106D02*
X0092266Y0102106D01*
X0092121Y0103705D02*
X0040802Y0103705D01*
X0040802Y0105303D02*
X0092121Y0105303D01*
X0093474Y0106902D02*
X0055253Y0106902D01*
X0056851Y0108500D02*
X0058279Y0108500D01*
X0061602Y0108500D02*
X0061602Y0108500D01*
X0061602Y0110099D02*
X0061602Y0110099D01*
X0061602Y0111400D02*
X0061602Y0111400D01*
X0066002Y0111400D01*
X0061602Y0111400D01*
X0061602Y0111697D02*
X0061602Y0111697D01*
X0061602Y0113296D02*
X0061602Y0113296D01*
X0061602Y0114894D02*
X0061602Y0114894D01*
X0058874Y0114894D02*
X0056257Y0114894D01*
X0054658Y0116493D02*
X0124260Y0116493D01*
X0124847Y0114894D02*
X0064330Y0114894D01*
X0065929Y0113296D02*
X0123465Y0113296D01*
X0122802Y0111697D02*
X0066002Y0111697D01*
X0048546Y0116493D02*
X0040802Y0116493D01*
X0040802Y0118091D02*
X0123221Y0118091D01*
X0122740Y0119690D02*
X0040802Y0119690D01*
X0040802Y0121288D02*
X0122740Y0121288D01*
X0123295Y0122887D02*
X0040802Y0122887D01*
X0040802Y0124485D02*
X0124438Y0124485D01*
X0124669Y0126084D02*
X0040802Y0126084D01*
X0040802Y0127682D02*
X0123391Y0127682D01*
X0122740Y0129281D02*
X0040802Y0129281D01*
X0040802Y0130879D02*
X0122740Y0130879D01*
X0123126Y0132478D02*
X0040802Y0132478D01*
X0040802Y0134076D02*
X0086281Y0134076D01*
X0086616Y0133938D02*
X0094588Y0133938D01*
X0096779Y0134845D01*
X0098457Y0136523D01*
X0099364Y0138714D01*
X0099364Y0141086D01*
X0098457Y0143277D01*
X0096834Y0144900D01*
X0098457Y0146523D01*
X0099364Y0148714D01*
X0099364Y0151086D01*
X0098457Y0153277D01*
X0096779Y0154955D01*
X0094588Y0155862D01*
X0086616Y0155862D01*
X0084425Y0154955D01*
X0082748Y0153277D01*
X0081840Y0151086D01*
X0081840Y0148714D01*
X0082748Y0146523D01*
X0084370Y0144900D01*
X0082748Y0143277D01*
X0081840Y0141086D01*
X0081840Y0138714D01*
X0082748Y0136523D01*
X0084425Y0134845D01*
X0086616Y0133938D01*
X0083595Y0135675D02*
X0062434Y0135675D01*
X0061315Y0134557D02*
X0064445Y0137687D01*
X0064445Y0142113D01*
X0061315Y0145243D01*
X0056889Y0145243D01*
X0053759Y0142113D01*
X0053759Y0137687D01*
X0056889Y0134557D01*
X0061315Y0134557D01*
X0064032Y0137273D02*
X0082437Y0137273D01*
X0081840Y0138872D02*
X0064445Y0138872D01*
X0064445Y0140470D02*
X0081840Y0140470D01*
X0082247Y0142069D02*
X0064445Y0142069D01*
X0062891Y0143668D02*
X0083138Y0143668D01*
X0084004Y0145266D02*
X0040802Y0145266D01*
X0040802Y0143668D02*
X0055313Y0143668D01*
X0053759Y0142069D02*
X0040802Y0142069D01*
X0040802Y0140470D02*
X0053759Y0140470D01*
X0053759Y0138872D02*
X0040802Y0138872D01*
X0040802Y0137273D02*
X0054172Y0137273D01*
X0055771Y0135675D02*
X0040802Y0135675D01*
X0040802Y0146865D02*
X0056507Y0146865D01*
X0057453Y0145919D02*
X0055121Y0148251D01*
X0055121Y0149900D01*
X0059102Y0149900D01*
X0059102Y0149900D01*
X0055121Y0149900D01*
X0055121Y0151549D01*
X0057453Y0153881D01*
X0059102Y0153881D01*
X0059102Y0149900D01*
X0059102Y0149900D01*
X0059102Y0149900D01*
X0059102Y0145919D01*
X0057453Y0145919D01*
X0059102Y0145919D02*
X0059102Y0149900D01*
X0059102Y0153881D01*
X0060751Y0153881D01*
X0063083Y0151549D01*
X0063083Y0149900D01*
X0059102Y0149900D01*
X0059102Y0149900D01*
X0063083Y0149900D01*
X0063083Y0148251D01*
X0060751Y0145919D01*
X0059102Y0145919D01*
X0059102Y0146865D02*
X0059102Y0146865D01*
X0059102Y0148463D02*
X0059102Y0148463D01*
X0059102Y0150062D02*
X0059102Y0150062D01*
X0059102Y0151660D02*
X0059102Y0151660D01*
X0059102Y0153259D02*
X0059102Y0153259D01*
X0056831Y0153259D02*
X0040802Y0153259D01*
X0040802Y0154857D02*
X0084327Y0154857D01*
X0082740Y0153259D02*
X0061374Y0153259D01*
X0062972Y0151660D02*
X0082078Y0151660D01*
X0081840Y0150062D02*
X0063083Y0150062D01*
X0063083Y0148463D02*
X0081944Y0148463D01*
X0082606Y0146865D02*
X0061697Y0146865D01*
X0055121Y0148463D02*
X0040802Y0148463D01*
X0040802Y0150062D02*
X0055121Y0150062D01*
X0055232Y0151660D02*
X0040802Y0151660D01*
X0040802Y0156456D02*
X0197599Y0156456D01*
X0196653Y0154857D02*
X0167394Y0154857D01*
X0168755Y0153259D02*
X0196633Y0153259D01*
X0196633Y0151660D02*
X0169417Y0151660D01*
X0169464Y0150062D02*
X0196633Y0150062D01*
X0196633Y0148463D02*
X0169137Y0148463D01*
X0168316Y0146865D02*
X0196633Y0146865D01*
X0196803Y0145266D02*
X0166985Y0145266D01*
X0168584Y0143668D02*
X0197961Y0143668D01*
X0155219Y0145266D02*
X0136985Y0145266D01*
X0138316Y0146865D02*
X0153889Y0146865D01*
X0153067Y0148463D02*
X0139137Y0148463D01*
X0139464Y0150062D02*
X0152740Y0150062D01*
X0152787Y0151660D02*
X0139417Y0151660D01*
X0138755Y0153259D02*
X0153449Y0153259D01*
X0154810Y0154857D02*
X0137394Y0154857D01*
X0138584Y0143668D02*
X0153621Y0143668D01*
X0152956Y0142069D02*
X0139248Y0142069D01*
X0139464Y0140470D02*
X0152740Y0140470D01*
X0152898Y0138872D02*
X0139306Y0138872D01*
X0138644Y0137273D02*
X0153560Y0137273D01*
X0155078Y0135675D02*
X0137126Y0135675D01*
X0138175Y0134076D02*
X0154030Y0134076D01*
X0153126Y0132478D02*
X0139078Y0132478D01*
X0139464Y0130879D02*
X0152740Y0130879D01*
X0152740Y0129281D02*
X0139464Y0129281D01*
X0138813Y0127682D02*
X0153391Y0127682D01*
X0154669Y0126084D02*
X0137535Y0126084D01*
X0137766Y0124485D02*
X0154438Y0124485D01*
X0153295Y0122887D02*
X0138909Y0122887D01*
X0139464Y0121288D02*
X0152740Y0121288D01*
X0152740Y0119690D02*
X0139464Y0119690D01*
X0138983Y0118091D02*
X0153221Y0118091D01*
X0154260Y0116493D02*
X0137944Y0116493D01*
X0137357Y0114894D02*
X0154847Y0114894D01*
X0153465Y0113296D02*
X0138740Y0113296D01*
X0139402Y0111697D02*
X0152802Y0111697D01*
X0152740Y0110099D02*
X0139464Y0110099D01*
X0139152Y0108500D02*
X0153052Y0108500D01*
X0153851Y0106902D02*
X0138353Y0106902D01*
X0136922Y0105303D02*
X0155282Y0105303D01*
X0153658Y0103705D02*
X0138546Y0103705D01*
X0139232Y0102106D02*
X0152972Y0102106D01*
X0152740Y0100508D02*
X0139464Y0100508D01*
X0139322Y0098909D02*
X0152883Y0098909D01*
X0153545Y0097311D02*
X0138659Y0097311D01*
X0137163Y0095712D02*
X0155041Y0095712D01*
X0154067Y0094114D02*
X0138137Y0094114D01*
X0139063Y0092515D02*
X0153141Y0092515D01*
X0152740Y0090917D02*
X0139464Y0090917D01*
X0139464Y0089318D02*
X0152740Y0089318D01*
X0153375Y0087720D02*
X0138829Y0087720D01*
X0137572Y0086121D02*
X0154632Y0086121D01*
X0154476Y0084523D02*
X0135253Y0084523D01*
X0137307Y0082924D02*
X0153311Y0082924D01*
X0152740Y0081326D02*
X0138010Y0081326D01*
X0138102Y0080400D02*
X0131102Y0080400D01*
X0131102Y0080400D01*
X0138102Y0080400D01*
X0138050Y0079727D02*
X0152740Y0079727D01*
X0153206Y0078129D02*
X0137483Y0078129D01*
X0135799Y0076530D02*
X0154223Y0076530D01*
X0154885Y0074932D02*
X0137320Y0074932D01*
X0138724Y0073333D02*
X0153480Y0073333D01*
X0152818Y0071734D02*
X0139386Y0071734D01*
X0139464Y0070136D02*
X0152740Y0070136D01*
X0153037Y0068537D02*
X0139168Y0068537D01*
X0138390Y0066939D02*
X0153814Y0066939D01*
X0155659Y0065340D02*
X0136832Y0065340D01*
X0138509Y0063742D02*
X0155621Y0063742D01*
X0154452Y0062143D02*
X0139217Y0062143D01*
X0139464Y0060545D02*
X0154102Y0060545D01*
X0154348Y0058946D02*
X0139337Y0058946D01*
X0138675Y0057348D02*
X0155332Y0057348D01*
X0154595Y0046158D02*
X0152098Y0046158D01*
X0152740Y0041363D02*
X0151064Y0041363D01*
X0151064Y0039764D02*
X0152740Y0039764D01*
X0153191Y0038166D02*
X0151064Y0038166D01*
X0151064Y0036567D02*
X0154186Y0036567D01*
X0154922Y0034969D02*
X0151064Y0034969D01*
X0151064Y0033370D02*
X0153495Y0033370D01*
X0152833Y0031772D02*
X0151064Y0031772D01*
X0151064Y0030173D02*
X0152740Y0030173D01*
X0153021Y0028575D02*
X0151064Y0028575D01*
X0151064Y0026976D02*
X0153777Y0026976D01*
X0155462Y0025378D02*
X0151064Y0025378D01*
X0151064Y0023779D02*
X0153732Y0023779D01*
X0153003Y0022181D02*
X0151064Y0022181D01*
X0151064Y0020582D02*
X0152740Y0020582D01*
X0152852Y0018984D02*
X0151064Y0018984D01*
X0151064Y0017385D02*
X0153514Y0017385D01*
X0147102Y0016400D02*
X0147104Y0016248D01*
X0147110Y0016096D01*
X0147119Y0015944D01*
X0147133Y0015793D01*
X0147150Y0015642D01*
X0147171Y0015491D01*
X0147196Y0015341D01*
X0147225Y0015192D01*
X0147257Y0015044D01*
X0147294Y0014896D01*
X0147333Y0014749D01*
X0147377Y0014604D01*
X0147425Y0014459D01*
X0147475Y0014316D01*
X0147530Y0014174D01*
X0147588Y0014034D01*
X0147650Y0013895D01*
X0147715Y0013758D01*
X0147784Y0013622D01*
X0147856Y0013488D01*
X0147931Y0013356D01*
X0148010Y0013226D01*
X0148092Y0013098D01*
X0148177Y0012972D01*
X0148266Y0012849D01*
X0148357Y0012727D01*
X0148452Y0012608D01*
X0148549Y0012492D01*
X0148650Y0012378D01*
X0148753Y0012266D01*
X0148859Y0012157D01*
X0148968Y0012051D01*
X0149080Y0011948D01*
X0149194Y0011847D01*
X0149310Y0011750D01*
X0149429Y0011655D01*
X0149551Y0011564D01*
X0149674Y0011475D01*
X0149800Y0011390D01*
X0149928Y0011308D01*
X0150058Y0011229D01*
X0150190Y0011154D01*
X0150324Y0011082D01*
X0150460Y0011013D01*
X0150597Y0010948D01*
X0150736Y0010886D01*
X0150876Y0010828D01*
X0151018Y0010773D01*
X0151161Y0010723D01*
X0151306Y0010675D01*
X0151451Y0010631D01*
X0151598Y0010592D01*
X0151746Y0010555D01*
X0151894Y0010523D01*
X0152043Y0010494D01*
X0152193Y0010469D01*
X0152344Y0010448D01*
X0152495Y0010431D01*
X0152646Y0010417D01*
X0152798Y0010408D01*
X0152950Y0010402D01*
X0153102Y0010400D01*
X0224744Y0010400D01*
X0228864Y0015787D02*
X0167238Y0015787D01*
X0168690Y0017385D02*
X0208245Y0017385D01*
X0209574Y0016057D02*
X0214000Y0016057D01*
X0217130Y0019187D01*
X0217130Y0023613D01*
X0214000Y0026743D01*
X0209574Y0026743D01*
X0206444Y0023613D01*
X0206444Y0019187D01*
X0209574Y0016057D01*
X0206647Y0018984D02*
X0169352Y0018984D01*
X0169464Y0020582D02*
X0206444Y0020582D01*
X0206444Y0022181D02*
X0169201Y0022181D01*
X0168472Y0023779D02*
X0206610Y0023779D01*
X0208208Y0025378D02*
X0166742Y0025378D01*
X0168427Y0026976D02*
X0227784Y0026976D01*
X0228007Y0025378D02*
X0215366Y0025378D01*
X0216965Y0023779D02*
X0226863Y0023779D01*
X0226247Y0022181D02*
X0217130Y0022181D01*
X0217130Y0020582D02*
X0226247Y0020582D01*
X0235409Y0021065D02*
X0235406Y0020807D01*
X0235397Y0020550D01*
X0235381Y0020292D01*
X0235359Y0020036D01*
X0235331Y0019779D01*
X0235297Y0019524D01*
X0235257Y0019269D01*
X0235210Y0019016D01*
X0235158Y0018764D01*
X0235099Y0018513D01*
X0235034Y0018263D01*
X0234964Y0018015D01*
X0234887Y0017769D01*
X0234804Y0017525D01*
X0234716Y0017283D01*
X0234622Y0017043D01*
X0234522Y0016806D01*
X0234416Y0016571D01*
X0234304Y0016338D01*
X0234187Y0016109D01*
X0234065Y0015882D01*
X0233937Y0015658D01*
X0233804Y0015438D01*
X0233665Y0015220D01*
X0233521Y0015007D01*
X0233372Y0014796D01*
X0233218Y0014590D01*
X0233059Y0014387D01*
X0232895Y0014188D01*
X0232727Y0013993D01*
X0232554Y0013802D01*
X0232376Y0013615D01*
X0232194Y0013433D01*
X0232007Y0013255D01*
X0231816Y0013082D01*
X0231621Y0012914D01*
X0231422Y0012750D01*
X0231219Y0012591D01*
X0231013Y0012437D01*
X0230802Y0012288D01*
X0230589Y0012144D01*
X0230371Y0012005D01*
X0230151Y0011872D01*
X0229927Y0011744D01*
X0229700Y0011622D01*
X0229471Y0011505D01*
X0229238Y0011393D01*
X0229003Y0011287D01*
X0228766Y0011187D01*
X0228526Y0011093D01*
X0228284Y0011005D01*
X0228040Y0010922D01*
X0227794Y0010845D01*
X0227546Y0010775D01*
X0227296Y0010710D01*
X0227045Y0010651D01*
X0226793Y0010599D01*
X0226540Y0010552D01*
X0226285Y0010512D01*
X0226030Y0010478D01*
X0225773Y0010450D01*
X0225517Y0010428D01*
X0225259Y0010412D01*
X0225002Y0010403D01*
X0224744Y0010400D01*
X0231012Y0007794D02*
X0272563Y0007794D01*
X0271928Y0009393D02*
X0233757Y0009393D01*
X0235356Y0010991D02*
X0271928Y0010991D01*
X0271928Y0012590D02*
X0236741Y0012590D01*
X0237664Y0014188D02*
X0272502Y0014188D01*
X0260547Y0015787D02*
X0241768Y0015787D01*
X0243444Y0017385D02*
X0258871Y0017385D01*
X0258098Y0018984D02*
X0244217Y0018984D01*
X0244571Y0020582D02*
X0257743Y0020582D01*
X0257743Y0022181D02*
X0244571Y0022181D01*
X0243955Y0023779D02*
X0258359Y0023779D01*
X0259503Y0025378D02*
X0242811Y0025378D01*
X0243035Y0026976D02*
X0258739Y0026976D01*
X0255420Y0028575D02*
X0244047Y0028575D01*
X0244571Y0030173D02*
X0253413Y0030173D01*
X0251489Y0031772D02*
X0244571Y0031772D01*
X0244124Y0033370D02*
X0250215Y0033370D01*
X0248940Y0034969D02*
X0243220Y0034969D01*
X0229589Y0036567D02*
X0195920Y0036567D01*
X0198222Y0037315D02*
X0198222Y0037315D01*
X0214183Y0038166D02*
X0228583Y0038166D01*
X0227785Y0039764D02*
X0215768Y0039764D01*
X0215768Y0041363D02*
X0227609Y0041363D01*
X0227988Y0042961D02*
X0215768Y0042961D01*
X0226694Y0033370D02*
X0168709Y0033370D01*
X0169371Y0031772D02*
X0226247Y0031772D01*
X0226247Y0030173D02*
X0169464Y0030173D01*
X0169183Y0028575D02*
X0226771Y0028575D01*
X0227598Y0034969D02*
X0167282Y0034969D01*
X0154966Y0015787D02*
X0151185Y0015787D01*
X0147102Y0016400D02*
X0147102Y0044400D01*
X0125462Y0025378D02*
X0093959Y0025378D01*
X0093897Y0025440D02*
X0089307Y0025440D01*
X0086062Y0022195D01*
X0086062Y0017605D01*
X0089307Y0014360D01*
X0093897Y0014360D01*
X0097142Y0017605D01*
X0097142Y0022195D01*
X0093897Y0025440D01*
X0095558Y0023779D02*
X0123732Y0023779D01*
X0123003Y0022181D02*
X0097142Y0022181D01*
X0097142Y0020582D02*
X0122740Y0020582D01*
X0122852Y0018984D02*
X0097142Y0018984D01*
X0096922Y0017385D02*
X0123514Y0017385D01*
X0124966Y0015787D02*
X0095324Y0015787D01*
X0087880Y0015787D02*
X0055324Y0015787D01*
X0056922Y0017385D02*
X0086282Y0017385D01*
X0086062Y0018984D02*
X0057142Y0018984D01*
X0057142Y0020582D02*
X0086062Y0020582D01*
X0086062Y0022181D02*
X0057142Y0022181D01*
X0055558Y0023779D02*
X0087646Y0023779D01*
X0089245Y0025378D02*
X0053959Y0025378D01*
X0040802Y0098909D02*
X0113536Y0098909D01*
X0111938Y0100508D02*
X0098340Y0100508D01*
X0099938Y0102106D02*
X0110759Y0102106D01*
X0110759Y0103705D02*
X0100083Y0103705D01*
X0100083Y0105303D02*
X0110759Y0105303D01*
X0112397Y0134860D02*
X0107807Y0134860D01*
X0104562Y0138105D01*
X0104562Y0142695D01*
X0107807Y0145940D01*
X0112397Y0145940D01*
X0115642Y0142695D01*
X0115642Y0138105D01*
X0112397Y0134860D01*
X0113212Y0135675D02*
X0125078Y0135675D01*
X0124030Y0134076D02*
X0094923Y0134076D01*
X0097609Y0135675D02*
X0106992Y0135675D01*
X0105394Y0137273D02*
X0098768Y0137273D01*
X0099364Y0138872D02*
X0104562Y0138872D01*
X0104562Y0140470D02*
X0099364Y0140470D01*
X0098957Y0142069D02*
X0104562Y0142069D01*
X0105535Y0143668D02*
X0098066Y0143668D01*
X0097200Y0145266D02*
X0107133Y0145266D01*
X0113071Y0145266D02*
X0125219Y0145266D01*
X0123889Y0146865D02*
X0098598Y0146865D01*
X0099260Y0148463D02*
X0123067Y0148463D01*
X0122740Y0150062D02*
X0099364Y0150062D01*
X0099126Y0151660D02*
X0122787Y0151660D01*
X0123449Y0153259D02*
X0098464Y0153259D01*
X0096877Y0154857D02*
X0124810Y0154857D01*
X0123621Y0143668D02*
X0114670Y0143668D01*
X0115642Y0142069D02*
X0122956Y0142069D01*
X0122740Y0140470D02*
X0115642Y0140470D01*
X0115642Y0138872D02*
X0122898Y0138872D01*
X0123560Y0137273D02*
X0114810Y0137273D01*
X0133588Y0167645D02*
X0138616Y0167645D01*
X0136570Y0169244D02*
X0135634Y0169244D01*
X0135158Y0182032D02*
X0137046Y0182032D01*
X0118529Y0190024D02*
X0094813Y0190024D01*
X0054683Y0261957D02*
X0047753Y0261957D01*
X0051173Y0263556D02*
X0056174Y0263556D01*
X0203252Y0265154D02*
X0204212Y0265154D01*
X0204212Y0266753D02*
X0203252Y0266753D01*
X0203252Y0268351D02*
X0204212Y0268351D01*
X0204212Y0271548D02*
X0203252Y0271548D01*
X0203252Y0273147D02*
X0204212Y0273147D01*
X0204212Y0274745D02*
X0203252Y0274745D01*
X0046947Y0114894D02*
X0040802Y0114894D01*
X0040802Y0113296D02*
X0045840Y0113296D01*
X0045840Y0111697D02*
X0040802Y0111697D01*
X0040802Y0110099D02*
X0045840Y0110099D01*
X0046353Y0108500D02*
X0040802Y0108500D01*
X0040802Y0106902D02*
X0047951Y0106902D01*
X0215329Y0017385D02*
X0227375Y0017385D01*
X0226602Y0018984D02*
X0216927Y0018984D01*
X0235410Y0051065D02*
X0235408Y0051100D01*
X0235403Y0051135D01*
X0235394Y0051169D01*
X0235381Y0051201D01*
X0235365Y0051233D01*
X0235346Y0051262D01*
X0235324Y0051289D01*
X0235299Y0051314D01*
X0235272Y0051336D01*
X0235243Y0051355D01*
X0235211Y0051371D01*
X0235179Y0051384D01*
X0235145Y0051393D01*
X0235110Y0051398D01*
X0235075Y0051400D01*
D21*
X0234102Y0067400D03*
X0208602Y0066900D03*
X0227602Y0101400D03*
X0261602Y0128400D03*
X0266102Y0099400D03*
X0265102Y0069900D03*
X0254602Y0011400D03*
X0179602Y0030900D03*
X0116102Y0092900D03*
X0088102Y0091900D03*
X0062102Y0088900D03*
X0062102Y0062900D03*
X0062602Y0035900D03*
X0092102Y0033900D03*
X0111602Y0015400D03*
X0078602Y0117400D03*
X0048102Y0168400D03*
X0069602Y0169900D03*
X0048602Y0213900D03*
X0047602Y0243900D03*
X0085602Y0266400D03*
X0096602Y0239900D03*
X0124102Y0253900D03*
X0156102Y0265900D03*
X0221602Y0259400D03*
X0252102Y0260900D03*
X0267102Y0229400D03*
X0263602Y0206900D03*
X0236602Y0209400D03*
X0235602Y0180900D03*
X0264602Y0179400D03*
X0227602Y0138900D03*
D22*
X0251102Y0176900D02*
X0251095Y0177480D01*
X0251074Y0178060D01*
X0251039Y0178638D01*
X0250990Y0179216D01*
X0250927Y0179793D01*
X0250850Y0180368D01*
X0250759Y0180941D01*
X0250655Y0181511D01*
X0250537Y0182079D01*
X0250405Y0182644D01*
X0250259Y0183205D01*
X0250100Y0183763D01*
X0249927Y0184316D01*
X0249741Y0184866D01*
X0249542Y0185411D01*
X0249330Y0185950D01*
X0249105Y0186485D01*
X0248867Y0187014D01*
X0248616Y0187537D01*
X0248353Y0188053D01*
X0248077Y0188564D01*
X0247789Y0189067D01*
X0247489Y0189563D01*
X0247177Y0190052D01*
X0246854Y0190534D01*
X0246518Y0191007D01*
X0246172Y0191472D01*
X0245814Y0191928D01*
X0245446Y0192376D01*
X0245066Y0192815D01*
X0244676Y0193244D01*
X0244276Y0193664D01*
X0243866Y0194074D01*
X0243446Y0194474D01*
X0243017Y0194864D01*
X0242578Y0195244D01*
X0242130Y0195612D01*
X0241674Y0195970D01*
X0241209Y0196316D01*
X0240736Y0196652D01*
X0240254Y0196975D01*
X0239765Y0197287D01*
X0239269Y0197587D01*
X0238766Y0197875D01*
X0238255Y0198151D01*
X0237739Y0198414D01*
X0237216Y0198665D01*
X0236687Y0198903D01*
X0236152Y0199128D01*
X0235613Y0199340D01*
X0235068Y0199539D01*
X0234518Y0199725D01*
X0233965Y0199898D01*
X0233407Y0200057D01*
X0232846Y0200203D01*
X0232281Y0200335D01*
X0231713Y0200453D01*
X0231143Y0200557D01*
X0230570Y0200648D01*
X0229995Y0200725D01*
X0229418Y0200788D01*
X0228840Y0200837D01*
X0228262Y0200872D01*
X0227682Y0200893D01*
X0227102Y0200900D01*
X0191102Y0200900D01*
X0190969Y0200902D01*
X0190835Y0200908D01*
X0190702Y0200918D01*
X0190570Y0200932D01*
X0190438Y0200949D01*
X0190306Y0200971D01*
X0190175Y0200996D01*
X0190045Y0201026D01*
X0189916Y0201059D01*
X0189788Y0201096D01*
X0189661Y0201137D01*
X0189535Y0201182D01*
X0189411Y0201230D01*
X0189288Y0201282D01*
X0189167Y0201337D01*
X0189047Y0201397D01*
X0188929Y0201459D01*
X0188814Y0201525D01*
X0188700Y0201595D01*
X0188588Y0201668D01*
X0188479Y0201744D01*
X0188371Y0201823D01*
X0188267Y0201906D01*
X0188164Y0201991D01*
X0188065Y0202080D01*
X0187968Y0202171D01*
X0187873Y0202266D01*
X0187782Y0202363D01*
X0187693Y0202462D01*
X0187608Y0202565D01*
X0187525Y0202669D01*
X0187446Y0202777D01*
X0187370Y0202886D01*
X0187297Y0202998D01*
X0187227Y0203112D01*
X0187161Y0203227D01*
X0187099Y0203345D01*
X0187039Y0203465D01*
X0186984Y0203586D01*
X0186932Y0203709D01*
X0186884Y0203833D01*
X0186839Y0203959D01*
X0186798Y0204086D01*
X0186761Y0204214D01*
X0186728Y0204343D01*
X0186698Y0204473D01*
X0186673Y0204604D01*
X0186651Y0204736D01*
X0186634Y0204868D01*
X0186620Y0205000D01*
X0186610Y0205133D01*
X0186604Y0205267D01*
X0186602Y0205400D01*
X0186602Y0206400D01*
X0186600Y0206527D01*
X0186594Y0206654D01*
X0186584Y0206780D01*
X0186571Y0206906D01*
X0186553Y0207032D01*
X0186532Y0207157D01*
X0186507Y0207281D01*
X0186478Y0207404D01*
X0186445Y0207527D01*
X0186408Y0207648D01*
X0186368Y0207769D01*
X0186324Y0207888D01*
X0186276Y0208005D01*
X0186225Y0208121D01*
X0186170Y0208236D01*
X0186112Y0208348D01*
X0186050Y0208459D01*
X0185985Y0208568D01*
X0185917Y0208675D01*
X0185845Y0208779D01*
X0185770Y0208882D01*
X0185692Y0208982D01*
X0185611Y0209079D01*
X0185527Y0209174D01*
X0185440Y0209267D01*
X0185351Y0209356D01*
X0185258Y0209443D01*
X0185163Y0209527D01*
X0185066Y0209608D01*
X0184966Y0209686D01*
X0184863Y0209761D01*
X0184759Y0209833D01*
X0184652Y0209901D01*
X0184543Y0209966D01*
X0184432Y0210028D01*
X0184320Y0210086D01*
X0184205Y0210141D01*
X0184089Y0210192D01*
X0183972Y0210240D01*
X0183853Y0210284D01*
X0183732Y0210324D01*
X0183611Y0210361D01*
X0183488Y0210394D01*
X0183365Y0210423D01*
X0183241Y0210448D01*
X0183116Y0210469D01*
X0182990Y0210487D01*
X0182864Y0210500D01*
X0182738Y0210510D01*
X0182611Y0210516D01*
X0182484Y0210518D01*
X0162216Y0210518D01*
X0167216Y0220518D02*
X0265484Y0220518D01*
X0265849Y0220514D01*
X0266214Y0220500D01*
X0266579Y0220478D01*
X0266943Y0220447D01*
X0267306Y0220408D01*
X0267668Y0220359D01*
X0268029Y0220302D01*
X0268389Y0220236D01*
X0268746Y0220162D01*
X0269102Y0220079D01*
X0269456Y0219987D01*
X0269807Y0219887D01*
X0270156Y0219778D01*
X0270502Y0219661D01*
X0270845Y0219536D01*
X0271185Y0219402D01*
X0271522Y0219260D01*
X0271855Y0219110D01*
X0272184Y0218952D01*
X0272510Y0218786D01*
X0272831Y0218613D01*
X0273148Y0218431D01*
X0273461Y0218242D01*
X0273769Y0218046D01*
X0274072Y0217842D01*
X0274370Y0217631D01*
X0274663Y0217412D01*
X0274951Y0217187D01*
X0275233Y0216955D01*
X0275509Y0216716D01*
X0275780Y0216470D01*
X0276044Y0216218D01*
X0276302Y0215960D01*
X0276554Y0215696D01*
X0276800Y0215425D01*
X0277039Y0215149D01*
X0277271Y0214867D01*
X0277496Y0214579D01*
X0277715Y0214286D01*
X0277926Y0213988D01*
X0278130Y0213685D01*
X0278326Y0213377D01*
X0278515Y0213064D01*
X0278697Y0212747D01*
X0278870Y0212426D01*
X0279036Y0212100D01*
X0279194Y0211771D01*
X0279344Y0211438D01*
X0279486Y0211101D01*
X0279620Y0210761D01*
X0279745Y0210418D01*
X0279862Y0210072D01*
X0279971Y0209723D01*
X0280071Y0209372D01*
X0280163Y0209018D01*
X0280246Y0208662D01*
X0280320Y0208305D01*
X0280386Y0207945D01*
X0280443Y0207584D01*
X0280492Y0207222D01*
X0280531Y0206859D01*
X0280562Y0206495D01*
X0280584Y0206130D01*
X0280598Y0205765D01*
X0280602Y0205400D01*
X0280602Y0054762D01*
X0280598Y0054431D01*
X0280586Y0054100D01*
X0280566Y0053770D01*
X0280538Y0053440D01*
X0280502Y0053111D01*
X0280458Y0052783D01*
X0280406Y0052456D01*
X0280347Y0052130D01*
X0280279Y0051806D01*
X0280204Y0051484D01*
X0280121Y0051164D01*
X0280030Y0050845D01*
X0279932Y0050529D01*
X0279826Y0050216D01*
X0279712Y0049905D01*
X0279591Y0049597D01*
X0279462Y0049292D01*
X0279326Y0048990D01*
X0279183Y0048692D01*
X0279033Y0048397D01*
X0278876Y0048105D01*
X0278711Y0047818D01*
X0278540Y0047535D01*
X0278362Y0047256D01*
X0278177Y0046981D01*
X0277986Y0046711D01*
X0277788Y0046446D01*
X0277584Y0046185D01*
X0277374Y0045930D01*
X0277157Y0045679D01*
X0276935Y0045434D01*
X0276707Y0045194D01*
X0276473Y0044960D01*
X0276233Y0044732D01*
X0275988Y0044510D01*
X0275737Y0044293D01*
X0275482Y0044083D01*
X0275221Y0043879D01*
X0274956Y0043681D01*
X0274686Y0043490D01*
X0274411Y0043305D01*
X0274132Y0043127D01*
X0273849Y0042956D01*
X0273562Y0042791D01*
X0273270Y0042634D01*
X0272975Y0042484D01*
X0272677Y0042341D01*
X0272375Y0042205D01*
X0272070Y0042076D01*
X0271762Y0041955D01*
X0271451Y0041841D01*
X0271138Y0041735D01*
X0270822Y0041637D01*
X0270503Y0041546D01*
X0270183Y0041463D01*
X0269861Y0041388D01*
X0269537Y0041320D01*
X0269211Y0041261D01*
X0268884Y0041209D01*
X0268556Y0041165D01*
X0268227Y0041129D01*
X0267897Y0041101D01*
X0267567Y0041081D01*
X0267236Y0041069D01*
X0266905Y0041065D01*
X0266905Y0031066D02*
X0266523Y0031071D01*
X0266142Y0031084D01*
X0265760Y0031108D01*
X0265380Y0031140D01*
X0265000Y0031181D01*
X0264622Y0031232D01*
X0264244Y0031292D01*
X0263869Y0031360D01*
X0263495Y0031438D01*
X0263123Y0031525D01*
X0262753Y0031621D01*
X0262386Y0031726D01*
X0262022Y0031839D01*
X0261660Y0031962D01*
X0261301Y0032093D01*
X0260946Y0032233D01*
X0260594Y0032381D01*
X0260246Y0032538D01*
X0259901Y0032703D01*
X0259561Y0032876D01*
X0259225Y0033058D01*
X0258894Y0033247D01*
X0258567Y0033445D01*
X0258245Y0033650D01*
X0257928Y0033863D01*
X0257616Y0034084D01*
X0257310Y0034312D01*
X0257009Y0034548D01*
X0256715Y0034791D01*
X0256426Y0035040D01*
X0256143Y0035297D01*
X0255866Y0035560D01*
X0255596Y0035830D01*
X0255333Y0036107D01*
X0255076Y0036390D01*
X0254827Y0036679D01*
X0254584Y0036973D01*
X0254348Y0037274D01*
X0254120Y0037580D01*
X0253899Y0037892D01*
X0253686Y0038209D01*
X0253481Y0038531D01*
X0253283Y0038858D01*
X0253094Y0039189D01*
X0252912Y0039525D01*
X0252739Y0039865D01*
X0252574Y0040210D01*
X0252417Y0040558D01*
X0252269Y0040910D01*
X0252129Y0041265D01*
X0251998Y0041624D01*
X0251875Y0041986D01*
X0251762Y0042350D01*
X0251657Y0042717D01*
X0251561Y0043087D01*
X0251474Y0043459D01*
X0251396Y0043833D01*
X0251328Y0044208D01*
X0251268Y0044586D01*
X0251217Y0044964D01*
X0251176Y0045344D01*
X0251144Y0045724D01*
X0251120Y0046106D01*
X0251107Y0046487D01*
X0251102Y0046869D01*
X0251102Y0176900D01*
X0167216Y0220518D02*
X0167212Y0220890D01*
X0167198Y0221261D01*
X0167176Y0221632D01*
X0167144Y0222003D01*
X0167104Y0222372D01*
X0167055Y0222741D01*
X0166996Y0223108D01*
X0166929Y0223473D01*
X0166854Y0223837D01*
X0166769Y0224199D01*
X0166676Y0224559D01*
X0166574Y0224916D01*
X0166463Y0225271D01*
X0166344Y0225623D01*
X0166216Y0225973D01*
X0166080Y0226318D01*
X0165936Y0226661D01*
X0165784Y0227000D01*
X0165623Y0227335D01*
X0165454Y0227666D01*
X0165277Y0227993D01*
X0165093Y0228316D01*
X0164901Y0228634D01*
X0164701Y0228948D01*
X0164493Y0229256D01*
X0164278Y0229559D01*
X0164056Y0229857D01*
X0163827Y0230150D01*
X0163591Y0230437D01*
X0163348Y0230718D01*
X0163098Y0230993D01*
X0162841Y0231263D01*
X0162579Y0231525D01*
X0162309Y0231782D01*
X0162034Y0232032D01*
X0161753Y0232275D01*
X0161466Y0232511D01*
X0161173Y0232740D01*
X0160875Y0232962D01*
X0160572Y0233177D01*
X0160264Y0233385D01*
X0159950Y0233585D01*
X0159632Y0233777D01*
X0159309Y0233961D01*
X0158982Y0234138D01*
X0158651Y0234307D01*
X0158316Y0234468D01*
X0157977Y0234620D01*
X0157634Y0234764D01*
X0157289Y0234900D01*
X0156939Y0235028D01*
X0156587Y0235147D01*
X0156232Y0235258D01*
X0155875Y0235360D01*
X0155515Y0235453D01*
X0155153Y0235538D01*
X0154789Y0235613D01*
X0154424Y0235680D01*
X0154057Y0235739D01*
X0153688Y0235788D01*
X0153319Y0235828D01*
X0152948Y0235860D01*
X0152577Y0235882D01*
X0152206Y0235896D01*
X0151834Y0235900D01*
X0127598Y0235900D01*
X0127226Y0235896D01*
X0126855Y0235882D01*
X0126484Y0235860D01*
X0126113Y0235828D01*
X0125744Y0235788D01*
X0125375Y0235739D01*
X0125008Y0235680D01*
X0124643Y0235613D01*
X0124279Y0235538D01*
X0123917Y0235453D01*
X0123557Y0235360D01*
X0123200Y0235258D01*
X0122845Y0235147D01*
X0122493Y0235028D01*
X0122143Y0234900D01*
X0121798Y0234764D01*
X0121455Y0234620D01*
X0121116Y0234468D01*
X0120781Y0234307D01*
X0120450Y0234138D01*
X0120123Y0233961D01*
X0119800Y0233777D01*
X0119482Y0233585D01*
X0119168Y0233385D01*
X0118860Y0233177D01*
X0118557Y0232962D01*
X0118259Y0232740D01*
X0117966Y0232511D01*
X0117679Y0232275D01*
X0117398Y0232032D01*
X0117123Y0231782D01*
X0116853Y0231525D01*
X0116591Y0231263D01*
X0116334Y0230993D01*
X0116084Y0230718D01*
X0115841Y0230437D01*
X0115605Y0230150D01*
X0115376Y0229857D01*
X0115154Y0229559D01*
X0114939Y0229256D01*
X0114731Y0228948D01*
X0114531Y0228634D01*
X0114339Y0228316D01*
X0114155Y0227993D01*
X0113978Y0227666D01*
X0113809Y0227335D01*
X0113648Y0227000D01*
X0113496Y0226661D01*
X0113352Y0226318D01*
X0113216Y0225973D01*
X0113088Y0225623D01*
X0112969Y0225271D01*
X0112858Y0224916D01*
X0112756Y0224559D01*
X0112663Y0224199D01*
X0112578Y0223837D01*
X0112503Y0223473D01*
X0112436Y0223108D01*
X0112377Y0222741D01*
X0112328Y0222372D01*
X0112288Y0222003D01*
X0112256Y0221632D01*
X0112234Y0221261D01*
X0112220Y0220890D01*
X0112216Y0220518D01*
X0107216Y0210518D02*
X0107220Y0210153D01*
X0107234Y0209788D01*
X0107256Y0209423D01*
X0107287Y0209059D01*
X0107326Y0208696D01*
X0107375Y0208334D01*
X0107432Y0207973D01*
X0107498Y0207613D01*
X0107572Y0207256D01*
X0107655Y0206900D01*
X0107747Y0206546D01*
X0107847Y0206195D01*
X0107956Y0205846D01*
X0108073Y0205500D01*
X0108198Y0205157D01*
X0108332Y0204817D01*
X0108474Y0204480D01*
X0108624Y0204147D01*
X0108782Y0203818D01*
X0108948Y0203492D01*
X0109121Y0203171D01*
X0109303Y0202854D01*
X0109492Y0202541D01*
X0109688Y0202233D01*
X0109892Y0201930D01*
X0110103Y0201632D01*
X0110322Y0201339D01*
X0110547Y0201051D01*
X0110779Y0200769D01*
X0111018Y0200493D01*
X0111264Y0200222D01*
X0111516Y0199958D01*
X0111774Y0199700D01*
X0112038Y0199448D01*
X0112309Y0199202D01*
X0112585Y0198963D01*
X0112867Y0198731D01*
X0113155Y0198506D01*
X0113448Y0198287D01*
X0113746Y0198076D01*
X0114049Y0197872D01*
X0114357Y0197676D01*
X0114670Y0197487D01*
X0114987Y0197305D01*
X0115308Y0197132D01*
X0115634Y0196966D01*
X0115963Y0196808D01*
X0116296Y0196658D01*
X0116633Y0196516D01*
X0116973Y0196382D01*
X0117316Y0196257D01*
X0117662Y0196140D01*
X0118011Y0196031D01*
X0118362Y0195931D01*
X0118716Y0195839D01*
X0119072Y0195756D01*
X0119429Y0195682D01*
X0119789Y0195616D01*
X0120150Y0195559D01*
X0120512Y0195510D01*
X0120875Y0195471D01*
X0121239Y0195440D01*
X0121604Y0195418D01*
X0121969Y0195404D01*
X0122334Y0195400D01*
X0147098Y0195400D01*
X0147463Y0195404D01*
X0147828Y0195418D01*
X0148193Y0195440D01*
X0148557Y0195471D01*
X0148920Y0195510D01*
X0149282Y0195559D01*
X0149643Y0195616D01*
X0150003Y0195682D01*
X0150360Y0195756D01*
X0150716Y0195839D01*
X0151070Y0195931D01*
X0151421Y0196031D01*
X0151770Y0196140D01*
X0152116Y0196257D01*
X0152459Y0196382D01*
X0152799Y0196516D01*
X0153136Y0196658D01*
X0153469Y0196808D01*
X0153798Y0196966D01*
X0154124Y0197132D01*
X0154445Y0197305D01*
X0154762Y0197487D01*
X0155075Y0197676D01*
X0155383Y0197872D01*
X0155686Y0198076D01*
X0155984Y0198287D01*
X0156277Y0198506D01*
X0156565Y0198731D01*
X0156847Y0198963D01*
X0157123Y0199202D01*
X0157394Y0199448D01*
X0157658Y0199700D01*
X0157916Y0199958D01*
X0158168Y0200222D01*
X0158414Y0200493D01*
X0158653Y0200769D01*
X0158885Y0201051D01*
X0159110Y0201339D01*
X0159329Y0201632D01*
X0159540Y0201930D01*
X0159744Y0202233D01*
X0159940Y0202541D01*
X0160129Y0202854D01*
X0160311Y0203171D01*
X0160484Y0203492D01*
X0160650Y0203818D01*
X0160808Y0204147D01*
X0160958Y0204480D01*
X0161100Y0204817D01*
X0161234Y0205157D01*
X0161359Y0205500D01*
X0161476Y0205846D01*
X0161585Y0206195D01*
X0161685Y0206546D01*
X0161777Y0206900D01*
X0161860Y0207256D01*
X0161934Y0207613D01*
X0162000Y0207973D01*
X0162057Y0208334D01*
X0162106Y0208696D01*
X0162145Y0209059D01*
X0162176Y0209423D01*
X0162198Y0209788D01*
X0162212Y0210153D01*
X0162216Y0210518D01*
M02*
