%
M48
M72
T01C0.01575
T02C0.01969
T03C0.02362
T04C0.02756
T05C0.03150
T06C0.03200
T07C0.03543
T08C0.03600
T09C0.05118
T10C0.06693
T11C0.07874
T12C0.12795
%
T01
X62602Y35900
X62102Y62900
X62102Y88900
X88102Y91900
X78602Y117400
X116102Y92900
X92102Y33900
X111602Y15400
X179602Y30900
X208602Y66900
X234102Y67400
X265102Y69900
X266102Y99400
X261602Y128400
X227602Y138900
X227602Y101400
X235602Y180900
X236602Y209400
X263602Y206900
X267102Y229400
X252102Y260900
X221602Y259400
X156102Y265900
X124102Y253900
X96602Y239900
X85602Y266400
X47602Y243900
X48602Y213900
X69602Y169900
X48102Y168400
X254602Y11400
X264602Y179400
T02
X106102Y75400
X106102Y55400
T03
X86102Y55400
X76102Y55400
X76102Y75400
X86102Y75400
X96102Y103900
X116102Y103900
X59102Y139900
X59102Y149900
X182602Y72400
X182602Y52400
X211787Y41400
X211787Y21400
T04
X51602Y19900
X91602Y19900
X110102Y140400
X110102Y180400
X91102Y185900
X51102Y185900
T05
X131102Y175400
X141102Y175400
X151102Y175400
X161102Y175400
X171102Y175400
T06
X161102Y150400
X161102Y140400
X161102Y130400
X161102Y120400
X161102Y110400
X161102Y100400
X161102Y90400
X161102Y80400
X161102Y70400
X161102Y60400
X161102Y50400
X161102Y40400
X161102Y30400
X161102Y20400
X131102Y20400
X131102Y30400
X131102Y40400
X131102Y50400
X131102Y60400
X131102Y70400
X131102Y80400
X131102Y90400
X131102Y100400
X131102Y110400
X131102Y120400
X131102Y130400
X131102Y140400
X131102Y150400
X61602Y111400
X51602Y111400
X235409Y51065
X235409Y41065
X235409Y31065
X235409Y21065
X266905Y21065
X266905Y31065
X266905Y41065
X266905Y51065
T07
X162216Y210518
X152216Y210518
X142216Y210518
X132216Y210518
X137216Y220518
X147216Y220518
X157216Y220518
X167216Y220518
X112216Y220518
X102216Y220518
X92216Y220518
X82216Y220518
X77216Y210518
X87216Y210518
X97216Y210518
X107216Y210518
T08
X90602Y149900
X90602Y139900
T09
X203732Y130557
X203732Y110243
X203732Y90557
X203732Y150243
X203732Y170557
X203732Y190243
X203732Y210557
X203732Y230243
X203732Y250557
X203732Y270243
T10
X182767Y257526
X61665Y257526
T11
X45913Y270652
X266413Y141152
X268913Y258652
X280665Y11065
T12
X172216Y245518
X72216Y245518
M30
