G75*
%MOIN*%
%OFA0B0*%
%FSLAX25Y25*%
%IPPOS*%
%LPD*%
%AMOC8*
5,1,8,0,0,1.08239X$1,22.5*
%
%ADD10C,0.00400*%
%ADD11C,0.00600*%
%ADD12C,0.01000*%
%ADD13C,0.00500*%
%ADD14C,0.01200*%
%ADD15C,0.00700*%
%ADD16C,0.00300*%
%ADD17R,0.03400X0.02400*%
%ADD18R,0.02400X0.03400*%
%ADD19C,0.00800*%
%ADD20C,0.00200*%
D10*
X0049069Y0087100D02*
X0048302Y0087867D01*
X0049069Y0087100D02*
X0050604Y0087100D01*
X0051371Y0087867D01*
X0051371Y0088635D01*
X0050604Y0089402D01*
X0049069Y0089402D01*
X0048302Y0090169D01*
X0048302Y0090937D01*
X0049069Y0091704D01*
X0050604Y0091704D01*
X0051371Y0090937D01*
X0052906Y0091704D02*
X0055975Y0091704D01*
X0054441Y0091704D02*
X0054441Y0087100D01*
X0057510Y0087100D02*
X0057510Y0090169D01*
X0059045Y0091704D01*
X0060579Y0090169D01*
X0060579Y0087100D01*
X0060579Y0089402D02*
X0057510Y0089402D01*
X0062114Y0091704D02*
X0065183Y0091704D01*
X0063648Y0091704D02*
X0063648Y0087100D01*
X0066718Y0087867D02*
X0066718Y0091704D01*
X0069787Y0091704D02*
X0069787Y0087867D01*
X0069020Y0087100D01*
X0067485Y0087100D01*
X0066718Y0087867D01*
X0071322Y0087867D02*
X0072089Y0087100D01*
X0073624Y0087100D01*
X0074391Y0087867D01*
X0074391Y0088635D01*
X0073624Y0089402D01*
X0072089Y0089402D01*
X0071322Y0090169D01*
X0071322Y0090937D01*
X0072089Y0091704D01*
X0073624Y0091704D01*
X0074391Y0090937D01*
X0079802Y0128100D02*
X0082104Y0128100D01*
X0082871Y0128867D01*
X0082871Y0131937D01*
X0082104Y0132704D01*
X0079802Y0132704D01*
X0079802Y0128100D01*
X0084406Y0128100D02*
X0084406Y0132704D01*
X0087475Y0132704D01*
X0089010Y0132704D02*
X0091312Y0132704D01*
X0092079Y0131937D01*
X0092079Y0131169D01*
X0091312Y0130402D01*
X0089010Y0130402D01*
X0091312Y0130402D02*
X0092079Y0129635D01*
X0092079Y0128867D01*
X0091312Y0128100D01*
X0089010Y0128100D01*
X0089010Y0132704D01*
X0085941Y0130402D02*
X0084406Y0130402D01*
X0084406Y0128100D02*
X0087475Y0128100D01*
X0093614Y0128867D02*
X0094381Y0128100D01*
X0095916Y0128100D01*
X0096683Y0128867D01*
X0096683Y0132704D01*
X0098218Y0131937D02*
X0098218Y0128867D01*
X0098985Y0128100D01*
X0100520Y0128100D01*
X0101287Y0128867D01*
X0101287Y0130402D01*
X0099752Y0130402D01*
X0098218Y0131937D02*
X0098985Y0132704D01*
X0100520Y0132704D01*
X0101287Y0131937D01*
X0093614Y0132704D02*
X0093614Y0128867D01*
X0120298Y0149684D02*
X0121833Y0151219D01*
X0120298Y0152754D01*
X0124902Y0152754D01*
X0124135Y0154288D02*
X0124902Y0155055D01*
X0124902Y0156590D01*
X0124135Y0157357D01*
X0124902Y0158892D02*
X0120298Y0158892D01*
X0121065Y0157357D02*
X0120298Y0156590D01*
X0120298Y0155055D01*
X0121065Y0154288D01*
X0124135Y0154288D01*
X0124902Y0149684D02*
X0120298Y0149684D01*
X0124902Y0158892D02*
X0124902Y0161961D01*
X0124902Y0163496D02*
X0120298Y0163496D01*
X0120298Y0165798D01*
X0121065Y0166565D01*
X0122600Y0166565D01*
X0123367Y0165798D01*
X0123367Y0163496D01*
X0123367Y0165031D02*
X0124902Y0166565D01*
X0128798Y0182702D02*
X0130333Y0184237D01*
X0128798Y0185772D01*
X0133402Y0185772D01*
X0132635Y0187306D02*
X0133402Y0188074D01*
X0133402Y0189608D01*
X0132635Y0190376D01*
X0133402Y0191910D02*
X0128798Y0191910D01*
X0129565Y0190376D02*
X0128798Y0189608D01*
X0128798Y0188074D01*
X0129565Y0187306D01*
X0132635Y0187306D01*
X0133402Y0182702D02*
X0128798Y0182702D01*
X0138565Y0184237D02*
X0141635Y0184237D01*
X0140100Y0182702D02*
X0140100Y0185772D01*
X0140100Y0187306D02*
X0139333Y0188841D01*
X0139333Y0189608D01*
X0140100Y0190376D01*
X0141635Y0190376D01*
X0142402Y0189608D01*
X0142402Y0188074D01*
X0141635Y0187306D01*
X0140100Y0187306D02*
X0137798Y0187306D01*
X0137798Y0190376D01*
X0137798Y0191910D02*
X0140867Y0191910D01*
X0142402Y0193445D01*
X0140867Y0194979D01*
X0137798Y0194979D01*
X0133402Y0194979D02*
X0133402Y0191910D01*
X0133402Y0196514D02*
X0128798Y0196514D01*
X0128798Y0198816D01*
X0129565Y0199583D01*
X0131100Y0199583D01*
X0131867Y0198816D01*
X0131867Y0196514D01*
X0131867Y0198049D02*
X0133402Y0199583D01*
X0148798Y0194212D02*
X0148798Y0191910D01*
X0153402Y0191910D01*
X0153402Y0194212D01*
X0152635Y0194979D01*
X0149565Y0194979D01*
X0148798Y0194212D01*
X0148798Y0190376D02*
X0153402Y0190376D01*
X0148798Y0187306D01*
X0153402Y0187306D01*
X0152635Y0185772D02*
X0151100Y0185772D01*
X0151100Y0184237D01*
X0149565Y0182702D02*
X0152635Y0182702D01*
X0153402Y0183470D01*
X0153402Y0185004D01*
X0152635Y0185772D01*
X0149565Y0185772D02*
X0148798Y0185004D01*
X0148798Y0183470D01*
X0149565Y0182702D01*
X0158798Y0182702D02*
X0158798Y0185004D01*
X0159565Y0185772D01*
X0161100Y0185772D01*
X0161867Y0185004D01*
X0161867Y0182702D01*
X0163402Y0182702D02*
X0158798Y0182702D01*
X0159565Y0187306D02*
X0162635Y0187306D01*
X0163402Y0188074D01*
X0163402Y0189608D01*
X0162635Y0190376D01*
X0161100Y0190376D01*
X0161100Y0188841D01*
X0159565Y0190376D02*
X0158798Y0189608D01*
X0158798Y0188074D01*
X0159565Y0187306D01*
X0158798Y0191910D02*
X0158798Y0194212D01*
X0159565Y0194979D01*
X0162635Y0194979D01*
X0163402Y0194212D01*
X0163402Y0191910D01*
X0158798Y0191910D01*
X0168798Y0192678D02*
X0169565Y0191910D01*
X0172635Y0191910D01*
X0173402Y0192678D01*
X0173402Y0194212D01*
X0172635Y0194979D01*
X0169565Y0194979D02*
X0168798Y0194212D01*
X0168798Y0192678D01*
X0169565Y0190376D02*
X0168798Y0189608D01*
X0168798Y0188074D01*
X0169565Y0187306D01*
X0172635Y0187306D01*
X0173402Y0188074D01*
X0173402Y0189608D01*
X0172635Y0190376D01*
X0171100Y0190376D01*
X0171100Y0188841D01*
X0171100Y0185772D02*
X0171867Y0185004D01*
X0171867Y0182702D01*
X0173402Y0182702D02*
X0168798Y0182702D01*
X0168798Y0185004D01*
X0169565Y0185772D01*
X0171100Y0185772D01*
X0191798Y0186100D02*
X0191798Y0187635D01*
X0191798Y0186867D02*
X0196402Y0186867D01*
X0196402Y0186100D02*
X0196402Y0187635D01*
X0196402Y0189169D02*
X0191798Y0189169D01*
X0196402Y0192239D01*
X0191798Y0192239D01*
X0191798Y0193773D02*
X0194100Y0193773D01*
X0193333Y0195308D01*
X0193333Y0196075D01*
X0194100Y0196842D01*
X0195635Y0196842D01*
X0196402Y0196075D01*
X0196402Y0194541D01*
X0195635Y0193773D01*
X0191798Y0193773D02*
X0191798Y0196842D01*
X0191798Y0206600D02*
X0191798Y0208135D01*
X0191798Y0207367D02*
X0196402Y0207367D01*
X0196402Y0206600D02*
X0196402Y0208135D01*
X0196402Y0209669D02*
X0191798Y0209669D01*
X0196402Y0212739D01*
X0191798Y0212739D01*
X0194100Y0214273D02*
X0194100Y0216575D01*
X0194867Y0217342D01*
X0195635Y0217342D01*
X0196402Y0216575D01*
X0196402Y0215041D01*
X0195635Y0214273D01*
X0194100Y0214273D01*
X0192565Y0215808D01*
X0191798Y0217342D01*
X0191798Y0226100D02*
X0191798Y0227635D01*
X0191798Y0226867D02*
X0196402Y0226867D01*
X0196402Y0226100D02*
X0196402Y0227635D01*
X0196402Y0229169D02*
X0191798Y0229169D01*
X0196402Y0232239D01*
X0191798Y0232239D01*
X0191798Y0233773D02*
X0191798Y0236842D01*
X0192565Y0236842D01*
X0195635Y0233773D01*
X0196402Y0233773D01*
X0196402Y0246100D02*
X0196402Y0247635D01*
X0196402Y0246867D02*
X0191798Y0246867D01*
X0191798Y0246100D02*
X0191798Y0247635D01*
X0191798Y0249169D02*
X0196402Y0252239D01*
X0191798Y0252239D01*
X0192565Y0253773D02*
X0191798Y0254541D01*
X0191798Y0256075D01*
X0192565Y0256842D01*
X0193333Y0256842D01*
X0194100Y0256075D01*
X0194100Y0254541D01*
X0193333Y0253773D01*
X0192565Y0253773D01*
X0194100Y0254541D02*
X0194867Y0253773D01*
X0195635Y0253773D01*
X0196402Y0254541D01*
X0196402Y0256075D01*
X0195635Y0256842D01*
X0194867Y0256842D01*
X0194100Y0256075D01*
X0192565Y0262600D02*
X0191798Y0263367D01*
X0191798Y0264902D01*
X0192565Y0265669D01*
X0194100Y0265669D02*
X0194100Y0264135D01*
X0194100Y0265669D02*
X0195635Y0265669D01*
X0196402Y0264902D01*
X0196402Y0263367D01*
X0195635Y0262600D01*
X0192565Y0262600D01*
X0191798Y0267204D02*
X0196402Y0270273D01*
X0191798Y0270273D01*
X0191798Y0271808D02*
X0191798Y0274110D01*
X0192565Y0274877D01*
X0195635Y0274877D01*
X0196402Y0274110D01*
X0196402Y0271808D01*
X0191798Y0271808D01*
X0191798Y0267204D02*
X0196402Y0267204D01*
X0196402Y0249169D02*
X0191798Y0249169D01*
X0221144Y0225253D02*
X0221911Y0226020D01*
X0224213Y0226020D01*
X0224213Y0223718D01*
X0223446Y0222951D01*
X0222678Y0223718D01*
X0222678Y0226020D01*
X0221144Y0225253D02*
X0221144Y0223718D01*
X0221144Y0221416D02*
X0221144Y0219114D01*
X0221911Y0218347D01*
X0222678Y0219114D01*
X0222678Y0220649D01*
X0223446Y0221416D01*
X0224213Y0220649D01*
X0224213Y0218347D01*
X0224213Y0216812D02*
X0221144Y0216812D01*
X0221144Y0213743D02*
X0223446Y0213743D01*
X0224213Y0214510D01*
X0224213Y0216812D01*
X0227109Y0214510D02*
X0231713Y0214510D01*
X0231713Y0216812D01*
X0230946Y0217580D01*
X0229411Y0217580D01*
X0228644Y0216812D01*
X0228644Y0214510D01*
X0228644Y0212976D02*
X0231713Y0212976D01*
X0231713Y0210674D01*
X0230946Y0209907D01*
X0228644Y0209907D01*
X0229411Y0208372D02*
X0231713Y0208372D01*
X0229411Y0208372D02*
X0228644Y0207605D01*
X0228644Y0206070D01*
X0229411Y0205303D01*
X0228644Y0203768D02*
X0228644Y0202233D01*
X0227876Y0203001D02*
X0230946Y0203001D01*
X0231713Y0203768D01*
X0231713Y0205303D02*
X0227109Y0205303D01*
X0224213Y0204535D02*
X0219609Y0204535D01*
X0221911Y0204535D02*
X0221911Y0207605D01*
X0221911Y0209139D02*
X0221144Y0209907D01*
X0221144Y0211441D01*
X0221911Y0212209D01*
X0223446Y0212209D01*
X0224213Y0211441D01*
X0224213Y0209907D01*
X0223446Y0209139D01*
X0221911Y0209139D01*
X0219609Y0207605D02*
X0224213Y0207605D01*
X0216713Y0207605D02*
X0212109Y0207605D01*
X0213644Y0206070D01*
X0216713Y0206070D02*
X0216713Y0209139D01*
X0216713Y0210674D02*
X0216713Y0211441D01*
X0215946Y0211441D01*
X0215946Y0210674D01*
X0216713Y0210674D01*
X0216713Y0212976D02*
X0216713Y0216045D01*
X0216713Y0214510D02*
X0212109Y0214510D01*
X0213644Y0212976D01*
X0214411Y0199931D02*
X0216713Y0199931D01*
X0214411Y0199931D02*
X0213644Y0199164D01*
X0213644Y0197629D01*
X0214411Y0196862D01*
X0213644Y0195327D02*
X0213644Y0193025D01*
X0214411Y0192258D01*
X0215946Y0192258D01*
X0216713Y0193025D01*
X0216713Y0195327D01*
X0216713Y0196862D02*
X0212109Y0196862D01*
X0213644Y0190724D02*
X0213644Y0189189D01*
X0212876Y0189956D02*
X0215946Y0189956D01*
X0216713Y0190724D01*
X0216713Y0187654D02*
X0216713Y0186120D01*
X0216713Y0186887D02*
X0213644Y0186887D01*
X0213644Y0186120D01*
X0213644Y0184585D02*
X0215946Y0184585D01*
X0216713Y0183818D01*
X0215946Y0183050D01*
X0216713Y0182283D01*
X0215946Y0181516D01*
X0213644Y0181516D01*
X0212876Y0179981D02*
X0212109Y0179214D01*
X0212109Y0177679D01*
X0212876Y0176912D01*
X0213644Y0176912D01*
X0214411Y0177679D01*
X0214411Y0179214D01*
X0215178Y0179981D01*
X0215946Y0179981D01*
X0216713Y0179214D01*
X0216713Y0177679D01*
X0215946Y0176912D01*
X0216713Y0175377D02*
X0214411Y0175377D01*
X0213644Y0174610D01*
X0213644Y0172308D01*
X0216713Y0172308D01*
X0216713Y0170773D02*
X0216713Y0168471D01*
X0215946Y0167704D01*
X0215178Y0168471D01*
X0215178Y0170773D01*
X0214411Y0170773D02*
X0216713Y0170773D01*
X0214411Y0170773D02*
X0213644Y0170006D01*
X0213644Y0168471D01*
X0212876Y0166169D02*
X0212109Y0165402D01*
X0212109Y0163867D01*
X0212876Y0163100D01*
X0215946Y0163100D01*
X0216713Y0163867D01*
X0216713Y0165402D01*
X0215946Y0166169D01*
X0219609Y0165402D02*
X0219609Y0163100D01*
X0224213Y0163100D01*
X0224213Y0165402D01*
X0223446Y0166169D01*
X0222678Y0166169D01*
X0221911Y0165402D01*
X0221911Y0163100D01*
X0221911Y0165402D02*
X0221144Y0166169D01*
X0220376Y0166169D01*
X0219609Y0165402D01*
X0221144Y0167704D02*
X0223446Y0167704D01*
X0224213Y0168471D01*
X0224213Y0170773D01*
X0224980Y0170773D02*
X0221144Y0170773D01*
X0224980Y0170773D02*
X0225748Y0170006D01*
X0225748Y0169239D01*
X0227876Y0168471D02*
X0230946Y0168471D01*
X0231713Y0169239D01*
X0230946Y0171541D02*
X0227876Y0171541D01*
X0228644Y0172308D02*
X0228644Y0170773D01*
X0228644Y0169239D02*
X0228644Y0167704D01*
X0229411Y0166169D02*
X0231713Y0166169D01*
X0229411Y0166169D02*
X0228644Y0165402D01*
X0228644Y0163867D01*
X0229411Y0163100D01*
X0227109Y0163100D02*
X0231713Y0163100D01*
X0230946Y0171541D02*
X0231713Y0172308D01*
X0231713Y0173842D02*
X0231713Y0176144D01*
X0230946Y0176912D01*
X0229411Y0176912D01*
X0228644Y0176144D01*
X0228644Y0173842D01*
X0233248Y0173842D01*
X0231713Y0178446D02*
X0231713Y0180748D01*
X0230946Y0181516D01*
X0230178Y0180748D01*
X0230178Y0179214D01*
X0229411Y0178446D01*
X0228644Y0179214D01*
X0228644Y0181516D01*
X0228644Y0183050D02*
X0229411Y0183050D01*
X0229411Y0183818D01*
X0228644Y0183818D01*
X0228644Y0183050D01*
X0230946Y0183050D02*
X0231713Y0183050D01*
X0231713Y0183818D01*
X0230946Y0183818D01*
X0230946Y0183050D01*
X0231713Y0185352D02*
X0227109Y0188422D01*
X0224213Y0188422D02*
X0224213Y0186120D01*
X0219609Y0186120D01*
X0221144Y0186120D02*
X0221144Y0188422D01*
X0221911Y0189189D01*
X0223446Y0189189D01*
X0224213Y0188422D01*
X0223446Y0190724D02*
X0224213Y0191491D01*
X0224213Y0193026D01*
X0223446Y0193793D01*
X0221911Y0193793D01*
X0221144Y0193026D01*
X0221144Y0191491D01*
X0221911Y0190724D01*
X0223446Y0190724D01*
X0227109Y0193025D02*
X0231713Y0189956D01*
X0230946Y0194560D02*
X0229411Y0194560D01*
X0228644Y0195327D01*
X0228644Y0197629D01*
X0232480Y0197629D01*
X0233248Y0196862D01*
X0233248Y0196095D01*
X0231713Y0195327D02*
X0231713Y0197629D01*
X0231713Y0199164D02*
X0231713Y0200699D01*
X0231713Y0199931D02*
X0228644Y0199931D01*
X0228644Y0199164D01*
X0227109Y0199931D02*
X0226342Y0199931D01*
X0224213Y0197629D02*
X0223446Y0198397D01*
X0222678Y0197629D01*
X0222678Y0196095D01*
X0221911Y0195327D01*
X0221144Y0196095D01*
X0221144Y0198397D01*
X0224213Y0197629D02*
X0224213Y0195327D01*
X0230946Y0194560D02*
X0231713Y0195327D01*
X0224213Y0184585D02*
X0221144Y0184585D01*
X0224213Y0184585D02*
X0224213Y0182283D01*
X0223446Y0181516D01*
X0221144Y0181516D01*
X0224213Y0179981D02*
X0224213Y0176912D01*
X0219609Y0176912D01*
X0212109Y0186887D02*
X0211342Y0186887D01*
X0196402Y0176575D02*
X0191798Y0176575D01*
X0194100Y0174273D01*
X0194100Y0177342D01*
X0196402Y0172739D02*
X0191798Y0172739D01*
X0191798Y0169669D02*
X0196402Y0172739D01*
X0196402Y0169669D02*
X0191798Y0169669D01*
X0191798Y0168135D02*
X0191798Y0166600D01*
X0191798Y0167367D02*
X0196402Y0167367D01*
X0196402Y0166600D02*
X0196402Y0168135D01*
X0195635Y0156842D02*
X0194867Y0156842D01*
X0194100Y0156075D01*
X0194100Y0155308D01*
X0194100Y0156075D02*
X0193333Y0156842D01*
X0192565Y0156842D01*
X0191798Y0156075D01*
X0191798Y0154541D01*
X0192565Y0153773D01*
X0191798Y0152239D02*
X0196402Y0152239D01*
X0191798Y0149169D01*
X0196402Y0149169D01*
X0196402Y0147635D02*
X0196402Y0146100D01*
X0196402Y0146867D02*
X0191798Y0146867D01*
X0191798Y0146100D02*
X0191798Y0147635D01*
X0195635Y0153773D02*
X0196402Y0154541D01*
X0196402Y0156075D01*
X0195635Y0156842D01*
X0180403Y0151893D02*
X0180403Y0151126D01*
X0179635Y0150359D01*
X0178101Y0150359D01*
X0177334Y0151126D01*
X0177334Y0151893D01*
X0178101Y0152661D01*
X0179635Y0152661D01*
X0180403Y0151893D01*
X0179635Y0150359D02*
X0180403Y0149591D01*
X0180403Y0148824D01*
X0179635Y0148057D01*
X0178101Y0148057D01*
X0177334Y0148824D01*
X0177334Y0149591D01*
X0178101Y0150359D01*
X0175799Y0148057D02*
X0175799Y0152661D01*
X0172730Y0152661D02*
X0175799Y0148057D01*
X0172730Y0148057D02*
X0172730Y0152661D01*
X0171195Y0152661D02*
X0169660Y0152661D01*
X0170428Y0152661D02*
X0170428Y0148057D01*
X0171195Y0148057D02*
X0169660Y0148057D01*
X0169660Y0142661D02*
X0171195Y0142661D01*
X0170428Y0142661D02*
X0170428Y0138057D01*
X0171195Y0138057D02*
X0169660Y0138057D01*
X0172730Y0138057D02*
X0172730Y0142661D01*
X0175799Y0138057D01*
X0175799Y0142661D01*
X0177334Y0142661D02*
X0180403Y0142661D01*
X0180403Y0141893D01*
X0177334Y0138824D01*
X0177334Y0138057D01*
X0175799Y0132661D02*
X0175799Y0128057D01*
X0172730Y0132661D01*
X0172730Y0128057D01*
X0171195Y0128057D02*
X0169660Y0128057D01*
X0170428Y0128057D02*
X0170428Y0132661D01*
X0171195Y0132661D02*
X0169660Y0132661D01*
X0177334Y0130359D02*
X0179635Y0130359D01*
X0180403Y0129591D01*
X0180403Y0128824D01*
X0179635Y0128057D01*
X0178101Y0128057D01*
X0177334Y0128824D01*
X0177334Y0130359D01*
X0178868Y0131893D01*
X0180403Y0132661D01*
X0180403Y0122661D02*
X0177334Y0122661D01*
X0177334Y0120359D01*
X0178868Y0121126D01*
X0179635Y0121126D01*
X0180403Y0120359D01*
X0180403Y0118824D01*
X0179635Y0118057D01*
X0178101Y0118057D01*
X0177334Y0118824D01*
X0175799Y0118057D02*
X0175799Y0122661D01*
X0172730Y0122661D02*
X0175799Y0118057D01*
X0172730Y0118057D02*
X0172730Y0122661D01*
X0171195Y0122661D02*
X0169660Y0122661D01*
X0170428Y0122661D02*
X0170428Y0118057D01*
X0171195Y0118057D02*
X0169660Y0118057D01*
X0169660Y0112661D02*
X0171195Y0112661D01*
X0170428Y0112661D02*
X0170428Y0108057D01*
X0171195Y0108057D02*
X0169660Y0108057D01*
X0172730Y0108057D02*
X0172730Y0112661D01*
X0175799Y0108057D01*
X0175799Y0112661D01*
X0177334Y0110359D02*
X0180403Y0110359D01*
X0179635Y0112661D02*
X0177334Y0110359D01*
X0179635Y0108057D02*
X0179635Y0112661D01*
X0179635Y0102661D02*
X0180403Y0101893D01*
X0180403Y0101126D01*
X0179635Y0100359D01*
X0180403Y0099591D01*
X0180403Y0098824D01*
X0179635Y0098057D01*
X0178101Y0098057D01*
X0177334Y0098824D01*
X0175799Y0098057D02*
X0172730Y0102661D01*
X0172730Y0098057D01*
X0171195Y0098057D02*
X0169660Y0098057D01*
X0170428Y0098057D02*
X0170428Y0102661D01*
X0171195Y0102661D02*
X0169660Y0102661D01*
X0175799Y0102661D02*
X0175799Y0098057D01*
X0178868Y0100359D02*
X0179635Y0100359D01*
X0179635Y0102661D02*
X0178101Y0102661D01*
X0177334Y0101893D01*
X0178101Y0092661D02*
X0177334Y0091893D01*
X0178101Y0092661D02*
X0179635Y0092661D01*
X0180403Y0091893D01*
X0180403Y0091126D01*
X0177334Y0088057D01*
X0180403Y0088057D01*
X0175799Y0088057D02*
X0175799Y0092661D01*
X0172730Y0092661D02*
X0175799Y0088057D01*
X0172730Y0088057D02*
X0172730Y0092661D01*
X0171195Y0092661D02*
X0169660Y0092661D01*
X0170428Y0092661D02*
X0170428Y0088057D01*
X0171195Y0088057D02*
X0169660Y0088057D01*
X0169660Y0082661D02*
X0171195Y0082661D01*
X0170428Y0082661D02*
X0170428Y0078057D01*
X0171195Y0078057D02*
X0169660Y0078057D01*
X0172730Y0078057D02*
X0172730Y0082661D01*
X0175799Y0078057D01*
X0175799Y0082661D01*
X0177334Y0081126D02*
X0178868Y0082661D01*
X0178868Y0078057D01*
X0177334Y0078057D02*
X0180403Y0078057D01*
X0191798Y0083367D02*
X0192565Y0082600D01*
X0195635Y0082600D01*
X0196402Y0083367D01*
X0196402Y0084902D01*
X0195635Y0085669D01*
X0194100Y0085669D01*
X0194100Y0084135D01*
X0192565Y0085669D02*
X0191798Y0084902D01*
X0191798Y0083367D01*
X0191798Y0087204D02*
X0196402Y0090273D01*
X0191798Y0090273D01*
X0191798Y0091808D02*
X0191798Y0094110D01*
X0192565Y0094877D01*
X0195635Y0094877D01*
X0196402Y0094110D01*
X0196402Y0091808D01*
X0191798Y0091808D01*
X0191798Y0087204D02*
X0196402Y0087204D01*
X0196402Y0106100D02*
X0196402Y0107635D01*
X0196402Y0106867D02*
X0191798Y0106867D01*
X0191798Y0106100D02*
X0191798Y0107635D01*
X0191798Y0109169D02*
X0196402Y0112239D01*
X0191798Y0112239D01*
X0193333Y0113773D02*
X0191798Y0115308D01*
X0196402Y0115308D01*
X0196402Y0116842D02*
X0196402Y0113773D01*
X0196402Y0109169D02*
X0191798Y0109169D01*
X0191798Y0126600D02*
X0191798Y0128135D01*
X0191798Y0127367D02*
X0196402Y0127367D01*
X0196402Y0126600D02*
X0196402Y0128135D01*
X0196402Y0129669D02*
X0191798Y0129669D01*
X0196402Y0132739D01*
X0191798Y0132739D01*
X0192565Y0134273D02*
X0191798Y0135041D01*
X0191798Y0136575D01*
X0192565Y0137342D01*
X0193333Y0137342D01*
X0196402Y0134273D01*
X0196402Y0137342D01*
X0230946Y0219114D02*
X0230946Y0219882D01*
X0231713Y0219882D01*
X0231713Y0219114D01*
X0230946Y0219114D01*
X0230946Y0221416D02*
X0229411Y0221416D01*
X0228644Y0222184D01*
X0228644Y0224486D01*
X0229411Y0226020D02*
X0230946Y0226020D01*
X0231713Y0226788D01*
X0231713Y0228322D01*
X0230946Y0229090D01*
X0229411Y0229090D01*
X0228644Y0228322D01*
X0228644Y0226788D01*
X0229411Y0226020D01*
X0231713Y0224486D02*
X0231713Y0222184D01*
X0230946Y0221416D01*
X0231713Y0230624D02*
X0228644Y0230624D01*
X0228644Y0231392D01*
X0229411Y0232159D01*
X0228644Y0232926D01*
X0229411Y0233693D01*
X0231713Y0233693D01*
X0231713Y0232159D02*
X0229411Y0232159D01*
X0231713Y0235228D02*
X0227109Y0238297D01*
X0227109Y0239832D02*
X0227109Y0242134D01*
X0227876Y0242901D01*
X0229411Y0242901D01*
X0230178Y0242134D01*
X0230178Y0239832D01*
X0231713Y0239832D02*
X0227109Y0239832D01*
X0229411Y0244436D02*
X0230946Y0244436D01*
X0231713Y0245203D01*
X0231713Y0246738D01*
X0230946Y0247505D01*
X0229411Y0247505D01*
X0228644Y0246738D01*
X0228644Y0245203D01*
X0229411Y0244436D01*
X0230946Y0249040D02*
X0231713Y0249807D01*
X0231713Y0250575D01*
X0230946Y0251342D01*
X0227109Y0251342D01*
X0227109Y0250575D02*
X0227109Y0252109D01*
X0227109Y0253644D02*
X0227109Y0255946D01*
X0227876Y0256713D01*
X0230946Y0256713D01*
X0231713Y0255946D01*
X0231713Y0253644D01*
X0227109Y0253644D01*
X0231713Y0258248D02*
X0227109Y0261317D01*
X0228644Y0263619D02*
X0229411Y0262852D01*
X0230946Y0262852D01*
X0231713Y0263619D01*
X0231713Y0265921D01*
X0230946Y0267456D02*
X0230178Y0268223D01*
X0230178Y0270525D01*
X0229411Y0270525D02*
X0231713Y0270525D01*
X0231713Y0268223D01*
X0230946Y0267456D01*
X0228644Y0268223D02*
X0228644Y0269758D01*
X0229411Y0270525D01*
X0228644Y0272060D02*
X0228644Y0274361D01*
X0229411Y0275129D01*
X0231713Y0275129D01*
X0229411Y0276663D02*
X0229411Y0279733D01*
X0228644Y0281267D02*
X0228644Y0283569D01*
X0229411Y0284337D01*
X0230946Y0284337D01*
X0231713Y0283569D01*
X0231713Y0281267D01*
X0233248Y0281267D02*
X0228644Y0281267D01*
X0229411Y0285871D02*
X0230946Y0285871D01*
X0231713Y0286639D01*
X0231713Y0288941D01*
X0231713Y0290475D02*
X0231713Y0292777D01*
X0230946Y0293545D01*
X0229411Y0293545D01*
X0228644Y0292777D01*
X0228644Y0290475D01*
X0228644Y0288941D02*
X0228644Y0286639D01*
X0229411Y0285871D01*
X0227109Y0290475D02*
X0231713Y0290475D01*
X0231713Y0272060D02*
X0228644Y0272060D01*
X0228644Y0265921D02*
X0228644Y0263619D01*
X0112079Y0197704D02*
X0112079Y0194635D01*
X0110545Y0193100D01*
X0109010Y0194635D01*
X0109010Y0197704D01*
X0107475Y0197704D02*
X0104406Y0197704D01*
X0104406Y0195402D01*
X0105941Y0196169D01*
X0106708Y0196169D01*
X0107475Y0195402D01*
X0107475Y0193867D01*
X0106708Y0193100D01*
X0105173Y0193100D01*
X0104406Y0193867D01*
X0102871Y0195402D02*
X0099802Y0195402D01*
X0101337Y0196937D02*
X0101337Y0193867D01*
X0190298Y0048377D02*
X0193367Y0048377D01*
X0194902Y0046842D01*
X0193367Y0045308D01*
X0190298Y0045308D01*
X0190298Y0043773D02*
X0190298Y0040704D01*
X0192600Y0040704D01*
X0191833Y0042239D01*
X0191833Y0043006D01*
X0192600Y0043773D01*
X0194135Y0043773D01*
X0194902Y0043006D01*
X0194902Y0041471D01*
X0194135Y0040704D01*
X0192600Y0039169D02*
X0192600Y0036100D01*
X0191065Y0037635D02*
X0194135Y0037635D01*
X0190683Y0012704D02*
X0190683Y0011937D01*
X0189148Y0010402D01*
X0189148Y0008100D01*
X0189148Y0010402D02*
X0187614Y0011937D01*
X0187614Y0012704D01*
X0186079Y0011937D02*
X0186079Y0011169D01*
X0185312Y0010402D01*
X0183010Y0010402D01*
X0185312Y0010402D02*
X0186079Y0009635D01*
X0186079Y0008867D01*
X0185312Y0008100D01*
X0183010Y0008100D01*
X0183010Y0012704D01*
X0185312Y0012704D01*
X0186079Y0011937D01*
X0181475Y0012704D02*
X0178406Y0012704D01*
X0179941Y0012704D02*
X0179941Y0008100D01*
X0176871Y0008867D02*
X0176871Y0009635D01*
X0176104Y0010402D01*
X0174569Y0010402D01*
X0173802Y0011169D01*
X0173802Y0011937D01*
X0174569Y0012704D01*
X0176104Y0012704D01*
X0176871Y0011937D01*
X0176871Y0008867D02*
X0176104Y0008100D01*
X0174569Y0008100D01*
X0173802Y0008867D01*
X0114079Y0025867D02*
X0114079Y0028937D01*
X0113312Y0029704D01*
X0111010Y0029704D01*
X0111010Y0025100D01*
X0113312Y0025100D01*
X0114079Y0025867D01*
X0109475Y0025100D02*
X0106406Y0025100D01*
X0106406Y0029704D01*
X0109475Y0029704D01*
X0107941Y0027402D02*
X0106406Y0027402D01*
X0104871Y0025100D02*
X0101802Y0025100D01*
X0101802Y0029704D01*
D11*
X0084102Y0023400D02*
X0084102Y0016400D01*
X0084100Y0016340D01*
X0084095Y0016279D01*
X0084086Y0016220D01*
X0084073Y0016161D01*
X0084057Y0016102D01*
X0084037Y0016045D01*
X0084014Y0015990D01*
X0083987Y0015935D01*
X0083958Y0015883D01*
X0083925Y0015832D01*
X0083889Y0015783D01*
X0083851Y0015737D01*
X0083809Y0015693D01*
X0083765Y0015651D01*
X0083719Y0015613D01*
X0083670Y0015577D01*
X0083619Y0015544D01*
X0083567Y0015515D01*
X0083512Y0015488D01*
X0083457Y0015465D01*
X0083400Y0015445D01*
X0083341Y0015429D01*
X0083282Y0015416D01*
X0083223Y0015407D01*
X0083162Y0015402D01*
X0083102Y0015400D01*
X0081602Y0015400D01*
X0081102Y0015900D01*
X0062102Y0015900D01*
X0061602Y0015400D01*
X0060102Y0015400D01*
X0060042Y0015402D01*
X0059981Y0015407D01*
X0059922Y0015416D01*
X0059863Y0015429D01*
X0059804Y0015445D01*
X0059747Y0015465D01*
X0059692Y0015488D01*
X0059637Y0015515D01*
X0059585Y0015544D01*
X0059534Y0015577D01*
X0059485Y0015613D01*
X0059439Y0015651D01*
X0059395Y0015693D01*
X0059353Y0015737D01*
X0059315Y0015783D01*
X0059279Y0015832D01*
X0059246Y0015883D01*
X0059217Y0015935D01*
X0059190Y0015990D01*
X0059167Y0016045D01*
X0059147Y0016102D01*
X0059131Y0016161D01*
X0059118Y0016220D01*
X0059109Y0016279D01*
X0059104Y0016340D01*
X0059102Y0016400D01*
X0059102Y0023400D01*
X0059104Y0023460D01*
X0059109Y0023521D01*
X0059118Y0023580D01*
X0059131Y0023639D01*
X0059147Y0023698D01*
X0059167Y0023755D01*
X0059190Y0023810D01*
X0059217Y0023865D01*
X0059246Y0023917D01*
X0059279Y0023968D01*
X0059315Y0024017D01*
X0059353Y0024063D01*
X0059395Y0024107D01*
X0059439Y0024149D01*
X0059485Y0024187D01*
X0059534Y0024223D01*
X0059585Y0024256D01*
X0059637Y0024285D01*
X0059692Y0024312D01*
X0059747Y0024335D01*
X0059804Y0024355D01*
X0059863Y0024371D01*
X0059922Y0024384D01*
X0059981Y0024393D01*
X0060042Y0024398D01*
X0060102Y0024400D01*
X0061602Y0024400D01*
X0062102Y0023900D01*
X0081102Y0023900D01*
X0081602Y0024400D01*
X0083102Y0024400D01*
X0083162Y0024398D01*
X0083223Y0024393D01*
X0083282Y0024384D01*
X0083341Y0024371D01*
X0083400Y0024355D01*
X0083457Y0024335D01*
X0083512Y0024312D01*
X0083567Y0024285D01*
X0083619Y0024256D01*
X0083670Y0024223D01*
X0083719Y0024187D01*
X0083765Y0024149D01*
X0083809Y0024107D01*
X0083851Y0024063D01*
X0083889Y0024017D01*
X0083925Y0023968D01*
X0083958Y0023917D01*
X0083987Y0023865D01*
X0084014Y0023810D01*
X0084037Y0023755D01*
X0084057Y0023698D01*
X0084073Y0023639D01*
X0084086Y0023580D01*
X0084095Y0023521D01*
X0084100Y0023460D01*
X0084102Y0023400D01*
X0089602Y0049400D02*
X0072602Y0049400D01*
X0072542Y0049402D01*
X0072481Y0049407D01*
X0072422Y0049416D01*
X0072363Y0049429D01*
X0072304Y0049445D01*
X0072247Y0049465D01*
X0072192Y0049488D01*
X0072137Y0049515D01*
X0072085Y0049544D01*
X0072034Y0049577D01*
X0071985Y0049613D01*
X0071939Y0049651D01*
X0071895Y0049693D01*
X0071853Y0049737D01*
X0071815Y0049783D01*
X0071779Y0049832D01*
X0071746Y0049883D01*
X0071717Y0049935D01*
X0071690Y0049990D01*
X0071667Y0050045D01*
X0071647Y0050102D01*
X0071631Y0050161D01*
X0071618Y0050220D01*
X0071609Y0050279D01*
X0071604Y0050340D01*
X0071602Y0050400D01*
X0071602Y0060400D01*
X0071604Y0060460D01*
X0071609Y0060521D01*
X0071618Y0060580D01*
X0071631Y0060639D01*
X0071647Y0060698D01*
X0071667Y0060755D01*
X0071690Y0060810D01*
X0071717Y0060865D01*
X0071746Y0060917D01*
X0071779Y0060968D01*
X0071815Y0061017D01*
X0071853Y0061063D01*
X0071895Y0061107D01*
X0071939Y0061149D01*
X0071985Y0061187D01*
X0072034Y0061223D01*
X0072085Y0061256D01*
X0072137Y0061285D01*
X0072192Y0061312D01*
X0072247Y0061335D01*
X0072304Y0061355D01*
X0072363Y0061371D01*
X0072422Y0061384D01*
X0072481Y0061393D01*
X0072542Y0061398D01*
X0072602Y0061400D01*
X0089602Y0061400D01*
X0089662Y0061398D01*
X0089723Y0061393D01*
X0089782Y0061384D01*
X0089841Y0061371D01*
X0089900Y0061355D01*
X0089957Y0061335D01*
X0090012Y0061312D01*
X0090067Y0061285D01*
X0090119Y0061256D01*
X0090170Y0061223D01*
X0090219Y0061187D01*
X0090265Y0061149D01*
X0090309Y0061107D01*
X0090351Y0061063D01*
X0090389Y0061017D01*
X0090425Y0060968D01*
X0090458Y0060917D01*
X0090487Y0060865D01*
X0090514Y0060810D01*
X0090537Y0060755D01*
X0090557Y0060698D01*
X0090573Y0060639D01*
X0090586Y0060580D01*
X0090595Y0060521D01*
X0090600Y0060460D01*
X0090602Y0060400D01*
X0090602Y0050400D01*
X0090600Y0050340D01*
X0090595Y0050279D01*
X0090586Y0050220D01*
X0090573Y0050161D01*
X0090557Y0050102D01*
X0090537Y0050045D01*
X0090514Y0049990D01*
X0090487Y0049935D01*
X0090458Y0049883D01*
X0090425Y0049832D01*
X0090389Y0049783D01*
X0090351Y0049737D01*
X0090309Y0049693D01*
X0090265Y0049651D01*
X0090219Y0049613D01*
X0090170Y0049577D01*
X0090119Y0049544D01*
X0090067Y0049515D01*
X0090012Y0049488D01*
X0089957Y0049465D01*
X0089900Y0049445D01*
X0089841Y0049429D01*
X0089782Y0049416D01*
X0089723Y0049407D01*
X0089662Y0049402D01*
X0089602Y0049400D01*
X0082602Y0055400D02*
X0082102Y0055400D01*
X0080102Y0055400D02*
X0079602Y0055400D01*
X0072602Y0069400D02*
X0089602Y0069400D01*
X0089662Y0069402D01*
X0089723Y0069407D01*
X0089782Y0069416D01*
X0089841Y0069429D01*
X0089900Y0069445D01*
X0089957Y0069465D01*
X0090012Y0069488D01*
X0090067Y0069515D01*
X0090119Y0069544D01*
X0090170Y0069577D01*
X0090219Y0069613D01*
X0090265Y0069651D01*
X0090309Y0069693D01*
X0090351Y0069737D01*
X0090389Y0069783D01*
X0090425Y0069832D01*
X0090458Y0069883D01*
X0090487Y0069935D01*
X0090514Y0069990D01*
X0090537Y0070045D01*
X0090557Y0070102D01*
X0090573Y0070161D01*
X0090586Y0070220D01*
X0090595Y0070279D01*
X0090600Y0070340D01*
X0090602Y0070400D01*
X0090602Y0080400D01*
X0090600Y0080460D01*
X0090595Y0080521D01*
X0090586Y0080580D01*
X0090573Y0080639D01*
X0090557Y0080698D01*
X0090537Y0080755D01*
X0090514Y0080810D01*
X0090487Y0080865D01*
X0090458Y0080917D01*
X0090425Y0080968D01*
X0090389Y0081017D01*
X0090351Y0081063D01*
X0090309Y0081107D01*
X0090265Y0081149D01*
X0090219Y0081187D01*
X0090170Y0081223D01*
X0090119Y0081256D01*
X0090067Y0081285D01*
X0090012Y0081312D01*
X0089957Y0081335D01*
X0089900Y0081355D01*
X0089841Y0081371D01*
X0089782Y0081384D01*
X0089723Y0081393D01*
X0089662Y0081398D01*
X0089602Y0081400D01*
X0072602Y0081400D01*
X0072542Y0081398D01*
X0072481Y0081393D01*
X0072422Y0081384D01*
X0072363Y0081371D01*
X0072304Y0081355D01*
X0072247Y0081335D01*
X0072192Y0081312D01*
X0072137Y0081285D01*
X0072085Y0081256D01*
X0072034Y0081223D01*
X0071985Y0081187D01*
X0071939Y0081149D01*
X0071895Y0081107D01*
X0071853Y0081063D01*
X0071815Y0081017D01*
X0071779Y0080968D01*
X0071746Y0080917D01*
X0071717Y0080865D01*
X0071690Y0080810D01*
X0071667Y0080755D01*
X0071647Y0080698D01*
X0071631Y0080639D01*
X0071618Y0080580D01*
X0071609Y0080521D01*
X0071604Y0080460D01*
X0071602Y0080400D01*
X0071602Y0070400D01*
X0071604Y0070340D01*
X0071609Y0070279D01*
X0071618Y0070220D01*
X0071631Y0070161D01*
X0071647Y0070102D01*
X0071667Y0070045D01*
X0071690Y0069990D01*
X0071717Y0069935D01*
X0071746Y0069883D01*
X0071779Y0069832D01*
X0071815Y0069783D01*
X0071853Y0069737D01*
X0071895Y0069693D01*
X0071939Y0069651D01*
X0071985Y0069613D01*
X0072034Y0069577D01*
X0072085Y0069544D01*
X0072137Y0069515D01*
X0072192Y0069488D01*
X0072247Y0069465D01*
X0072304Y0069445D01*
X0072363Y0069429D01*
X0072422Y0069416D01*
X0072481Y0069407D01*
X0072542Y0069402D01*
X0072602Y0069400D01*
X0079602Y0075400D02*
X0080102Y0075400D01*
X0082102Y0075400D02*
X0082602Y0075400D01*
X0097102Y0078900D02*
X0097102Y0051900D01*
X0097105Y0051681D01*
X0097113Y0051462D01*
X0097126Y0051243D01*
X0097145Y0051025D01*
X0097169Y0050807D01*
X0097198Y0050590D01*
X0097232Y0050373D01*
X0097272Y0050158D01*
X0097317Y0049943D01*
X0097368Y0049730D01*
X0097423Y0049518D01*
X0097484Y0049307D01*
X0097549Y0049098D01*
X0097620Y0048891D01*
X0097696Y0048685D01*
X0097777Y0048481D01*
X0097862Y0048279D01*
X0097953Y0048080D01*
X0098048Y0047883D01*
X0098149Y0047688D01*
X0098254Y0047495D01*
X0098363Y0047305D01*
X0098477Y0047118D01*
X0098596Y0046934D01*
X0098719Y0046753D01*
X0098847Y0046575D01*
X0098979Y0046399D01*
X0099115Y0046228D01*
X0099255Y0046059D01*
X0099399Y0045894D01*
X0099547Y0045733D01*
X0099699Y0045575D01*
X0099855Y0045421D01*
X0100015Y0045271D01*
X0100178Y0045124D01*
X0100345Y0044982D01*
X0100515Y0044844D01*
X0100689Y0044710D01*
X0100865Y0044580D01*
X0101045Y0044455D01*
X0101228Y0044334D01*
X0101414Y0044218D01*
X0101602Y0044106D01*
X0101793Y0043999D01*
X0101987Y0043896D01*
X0102183Y0043798D01*
X0102381Y0043705D01*
X0102582Y0043617D01*
X0102785Y0043534D01*
X0102990Y0043455D01*
X0103196Y0043382D01*
X0103404Y0043314D01*
X0103614Y0043251D01*
X0103826Y0043193D01*
X0104038Y0043140D01*
X0104252Y0043092D01*
X0104467Y0043050D01*
X0104683Y0043013D01*
X0104900Y0042981D01*
X0105118Y0042954D01*
X0105336Y0042933D01*
X0105554Y0042917D01*
X0105773Y0042906D01*
X0105992Y0042901D01*
X0106212Y0042901D01*
X0106431Y0042906D01*
X0106650Y0042917D01*
X0106868Y0042933D01*
X0107086Y0042954D01*
X0107304Y0042981D01*
X0107521Y0043013D01*
X0107737Y0043050D01*
X0107952Y0043092D01*
X0108166Y0043140D01*
X0108378Y0043193D01*
X0108590Y0043251D01*
X0108800Y0043314D01*
X0109008Y0043382D01*
X0109214Y0043455D01*
X0109419Y0043534D01*
X0109622Y0043617D01*
X0109823Y0043705D01*
X0110021Y0043798D01*
X0110217Y0043896D01*
X0110411Y0043999D01*
X0110602Y0044106D01*
X0110790Y0044218D01*
X0110976Y0044334D01*
X0111159Y0044455D01*
X0111339Y0044580D01*
X0111515Y0044710D01*
X0111689Y0044844D01*
X0111859Y0044982D01*
X0112026Y0045124D01*
X0112189Y0045271D01*
X0112349Y0045421D01*
X0112505Y0045575D01*
X0112657Y0045733D01*
X0112805Y0045894D01*
X0112949Y0046059D01*
X0113089Y0046228D01*
X0113225Y0046399D01*
X0113357Y0046575D01*
X0113485Y0046753D01*
X0113608Y0046934D01*
X0113727Y0047118D01*
X0113841Y0047305D01*
X0113950Y0047495D01*
X0114055Y0047688D01*
X0114156Y0047883D01*
X0114251Y0048080D01*
X0114342Y0048279D01*
X0114427Y0048481D01*
X0114508Y0048685D01*
X0114584Y0048891D01*
X0114655Y0049098D01*
X0114720Y0049307D01*
X0114781Y0049518D01*
X0114836Y0049730D01*
X0114887Y0049943D01*
X0114932Y0050158D01*
X0114972Y0050373D01*
X0115006Y0050590D01*
X0115035Y0050807D01*
X0115059Y0051025D01*
X0115078Y0051243D01*
X0115091Y0051462D01*
X0115099Y0051681D01*
X0115102Y0051900D01*
X0115102Y0078900D01*
X0115099Y0079119D01*
X0115091Y0079338D01*
X0115078Y0079557D01*
X0115059Y0079775D01*
X0115035Y0079993D01*
X0115006Y0080210D01*
X0114972Y0080427D01*
X0114932Y0080642D01*
X0114887Y0080857D01*
X0114836Y0081070D01*
X0114781Y0081282D01*
X0114720Y0081493D01*
X0114655Y0081702D01*
X0114584Y0081909D01*
X0114508Y0082115D01*
X0114427Y0082319D01*
X0114342Y0082521D01*
X0114251Y0082720D01*
X0114156Y0082917D01*
X0114055Y0083112D01*
X0113950Y0083305D01*
X0113841Y0083495D01*
X0113727Y0083682D01*
X0113608Y0083866D01*
X0113485Y0084047D01*
X0113357Y0084225D01*
X0113225Y0084401D01*
X0113089Y0084572D01*
X0112949Y0084741D01*
X0112805Y0084906D01*
X0112657Y0085067D01*
X0112505Y0085225D01*
X0112349Y0085379D01*
X0112189Y0085529D01*
X0112026Y0085676D01*
X0111859Y0085818D01*
X0111689Y0085956D01*
X0111515Y0086090D01*
X0111339Y0086220D01*
X0111159Y0086345D01*
X0110976Y0086466D01*
X0110790Y0086582D01*
X0110602Y0086694D01*
X0110411Y0086801D01*
X0110217Y0086904D01*
X0110021Y0087002D01*
X0109823Y0087095D01*
X0109622Y0087183D01*
X0109419Y0087266D01*
X0109214Y0087345D01*
X0109008Y0087418D01*
X0108800Y0087486D01*
X0108590Y0087549D01*
X0108378Y0087607D01*
X0108166Y0087660D01*
X0107952Y0087708D01*
X0107737Y0087750D01*
X0107521Y0087787D01*
X0107304Y0087819D01*
X0107086Y0087846D01*
X0106868Y0087867D01*
X0106650Y0087883D01*
X0106431Y0087894D01*
X0106212Y0087899D01*
X0105992Y0087899D01*
X0105773Y0087894D01*
X0105554Y0087883D01*
X0105336Y0087867D01*
X0105118Y0087846D01*
X0104900Y0087819D01*
X0104683Y0087787D01*
X0104467Y0087750D01*
X0104252Y0087708D01*
X0104038Y0087660D01*
X0103826Y0087607D01*
X0103614Y0087549D01*
X0103404Y0087486D01*
X0103196Y0087418D01*
X0102990Y0087345D01*
X0102785Y0087266D01*
X0102582Y0087183D01*
X0102381Y0087095D01*
X0102183Y0087002D01*
X0101987Y0086904D01*
X0101793Y0086801D01*
X0101602Y0086694D01*
X0101414Y0086582D01*
X0101228Y0086466D01*
X0101045Y0086345D01*
X0100865Y0086220D01*
X0100689Y0086090D01*
X0100515Y0085956D01*
X0100345Y0085818D01*
X0100178Y0085676D01*
X0100015Y0085529D01*
X0099855Y0085379D01*
X0099699Y0085225D01*
X0099547Y0085067D01*
X0099399Y0084906D01*
X0099255Y0084741D01*
X0099115Y0084572D01*
X0098979Y0084401D01*
X0098847Y0084225D01*
X0098719Y0084047D01*
X0098596Y0083866D01*
X0098477Y0083682D01*
X0098363Y0083495D01*
X0098254Y0083305D01*
X0098149Y0083112D01*
X0098048Y0082917D01*
X0097953Y0082720D01*
X0097862Y0082521D01*
X0097777Y0082319D01*
X0097696Y0082115D01*
X0097620Y0081909D01*
X0097549Y0081702D01*
X0097484Y0081493D01*
X0097423Y0081282D01*
X0097368Y0081070D01*
X0097317Y0080857D01*
X0097272Y0080642D01*
X0097232Y0080427D01*
X0097198Y0080210D01*
X0097169Y0079993D01*
X0097145Y0079775D01*
X0097126Y0079557D01*
X0097113Y0079338D01*
X0097105Y0079119D01*
X0097102Y0078900D01*
X0092602Y0098900D02*
X0119602Y0098900D01*
X0119662Y0098902D01*
X0119723Y0098907D01*
X0119782Y0098916D01*
X0119841Y0098929D01*
X0119900Y0098945D01*
X0119957Y0098965D01*
X0120012Y0098988D01*
X0120067Y0099015D01*
X0120119Y0099044D01*
X0120170Y0099077D01*
X0120219Y0099113D01*
X0120265Y0099151D01*
X0120309Y0099193D01*
X0120351Y0099237D01*
X0120389Y0099283D01*
X0120425Y0099332D01*
X0120458Y0099383D01*
X0120487Y0099435D01*
X0120514Y0099490D01*
X0120537Y0099545D01*
X0120557Y0099602D01*
X0120573Y0099661D01*
X0120586Y0099720D01*
X0120595Y0099779D01*
X0120600Y0099840D01*
X0120602Y0099900D01*
X0120602Y0107900D01*
X0120600Y0107960D01*
X0120595Y0108021D01*
X0120586Y0108080D01*
X0120573Y0108139D01*
X0120557Y0108198D01*
X0120537Y0108255D01*
X0120514Y0108310D01*
X0120487Y0108365D01*
X0120458Y0108417D01*
X0120425Y0108468D01*
X0120389Y0108517D01*
X0120351Y0108563D01*
X0120309Y0108607D01*
X0120265Y0108649D01*
X0120219Y0108687D01*
X0120170Y0108723D01*
X0120119Y0108756D01*
X0120067Y0108785D01*
X0120012Y0108812D01*
X0119957Y0108835D01*
X0119900Y0108855D01*
X0119841Y0108871D01*
X0119782Y0108884D01*
X0119723Y0108893D01*
X0119662Y0108898D01*
X0119602Y0108900D01*
X0092602Y0108900D01*
X0092542Y0108898D01*
X0092481Y0108893D01*
X0092422Y0108884D01*
X0092363Y0108871D01*
X0092304Y0108855D01*
X0092247Y0108835D01*
X0092192Y0108812D01*
X0092137Y0108785D01*
X0092085Y0108756D01*
X0092034Y0108723D01*
X0091985Y0108687D01*
X0091939Y0108649D01*
X0091895Y0108607D01*
X0091853Y0108563D01*
X0091815Y0108517D01*
X0091779Y0108468D01*
X0091746Y0108417D01*
X0091717Y0108365D01*
X0091690Y0108310D01*
X0091667Y0108255D01*
X0091647Y0108198D01*
X0091631Y0108139D01*
X0091618Y0108080D01*
X0091609Y0108021D01*
X0091604Y0107960D01*
X0091602Y0107900D01*
X0091602Y0099900D01*
X0091604Y0099840D01*
X0091609Y0099779D01*
X0091618Y0099720D01*
X0091631Y0099661D01*
X0091647Y0099602D01*
X0091667Y0099545D01*
X0091690Y0099490D01*
X0091717Y0099435D01*
X0091746Y0099383D01*
X0091779Y0099332D01*
X0091815Y0099283D01*
X0091853Y0099237D01*
X0091895Y0099193D01*
X0091939Y0099151D01*
X0091985Y0099113D01*
X0092034Y0099077D01*
X0092085Y0099044D01*
X0092137Y0099015D01*
X0092192Y0098988D01*
X0092247Y0098965D01*
X0092304Y0098945D01*
X0092363Y0098929D01*
X0092422Y0098916D01*
X0092481Y0098907D01*
X0092542Y0098902D01*
X0092602Y0098900D01*
X0100102Y0103900D02*
X0104902Y0103900D01*
X0107402Y0103900D02*
X0112102Y0103900D01*
X0094602Y0134900D02*
X0086602Y0134900D01*
X0085602Y0135900D01*
X0085602Y0143900D01*
X0086602Y0144900D01*
X0085602Y0145900D01*
X0085602Y0153900D01*
X0086602Y0154900D01*
X0094602Y0154900D01*
X0095602Y0153900D01*
X0095602Y0145900D01*
X0094602Y0144900D01*
X0095602Y0143900D01*
X0095602Y0135900D01*
X0094602Y0134900D01*
X0106602Y0147900D02*
X0113602Y0147900D01*
X0113662Y0147902D01*
X0113723Y0147907D01*
X0113782Y0147916D01*
X0113841Y0147929D01*
X0113900Y0147945D01*
X0113957Y0147965D01*
X0114012Y0147988D01*
X0114067Y0148015D01*
X0114119Y0148044D01*
X0114170Y0148077D01*
X0114219Y0148113D01*
X0114265Y0148151D01*
X0114309Y0148193D01*
X0114351Y0148237D01*
X0114389Y0148283D01*
X0114425Y0148332D01*
X0114458Y0148383D01*
X0114487Y0148435D01*
X0114514Y0148490D01*
X0114537Y0148545D01*
X0114557Y0148602D01*
X0114573Y0148661D01*
X0114586Y0148720D01*
X0114595Y0148779D01*
X0114600Y0148840D01*
X0114602Y0148900D01*
X0114602Y0150400D01*
X0114102Y0150900D01*
X0114102Y0169900D01*
X0114602Y0170400D01*
X0114602Y0171900D01*
X0114600Y0171960D01*
X0114595Y0172021D01*
X0114586Y0172080D01*
X0114573Y0172139D01*
X0114557Y0172198D01*
X0114537Y0172255D01*
X0114514Y0172310D01*
X0114487Y0172365D01*
X0114458Y0172417D01*
X0114425Y0172468D01*
X0114389Y0172517D01*
X0114351Y0172563D01*
X0114309Y0172607D01*
X0114265Y0172649D01*
X0114219Y0172687D01*
X0114170Y0172723D01*
X0114119Y0172756D01*
X0114067Y0172785D01*
X0114012Y0172812D01*
X0113957Y0172835D01*
X0113900Y0172855D01*
X0113841Y0172871D01*
X0113782Y0172884D01*
X0113723Y0172893D01*
X0113662Y0172898D01*
X0113602Y0172900D01*
X0106602Y0172900D01*
X0106542Y0172898D01*
X0106481Y0172893D01*
X0106422Y0172884D01*
X0106363Y0172871D01*
X0106304Y0172855D01*
X0106247Y0172835D01*
X0106192Y0172812D01*
X0106137Y0172785D01*
X0106085Y0172756D01*
X0106034Y0172723D01*
X0105985Y0172687D01*
X0105939Y0172649D01*
X0105895Y0172607D01*
X0105853Y0172563D01*
X0105815Y0172517D01*
X0105779Y0172468D01*
X0105746Y0172417D01*
X0105717Y0172365D01*
X0105690Y0172310D01*
X0105667Y0172255D01*
X0105647Y0172198D01*
X0105631Y0172139D01*
X0105618Y0172080D01*
X0105609Y0172021D01*
X0105604Y0171960D01*
X0105602Y0171900D01*
X0105602Y0170400D01*
X0106102Y0169900D01*
X0106102Y0150900D01*
X0105602Y0150400D01*
X0105602Y0148900D01*
X0105604Y0148840D01*
X0105609Y0148779D01*
X0105618Y0148720D01*
X0105631Y0148661D01*
X0105647Y0148602D01*
X0105667Y0148545D01*
X0105690Y0148490D01*
X0105717Y0148435D01*
X0105746Y0148383D01*
X0105779Y0148332D01*
X0105815Y0148283D01*
X0105853Y0148237D01*
X0105895Y0148193D01*
X0105939Y0148151D01*
X0105985Y0148113D01*
X0106034Y0148077D01*
X0106085Y0148044D01*
X0106137Y0148015D01*
X0106192Y0147988D01*
X0106247Y0147965D01*
X0106304Y0147945D01*
X0106363Y0147929D01*
X0106422Y0147916D01*
X0106481Y0147907D01*
X0106542Y0147902D01*
X0106602Y0147900D01*
X0128602Y0170400D02*
X0133602Y0170400D01*
X0136102Y0172900D01*
X0138602Y0170400D01*
X0143602Y0170400D01*
X0146102Y0172900D01*
X0146102Y0177900D01*
X0143602Y0180400D01*
X0138602Y0180400D01*
X0136102Y0177900D01*
X0136102Y0172900D01*
X0136102Y0177900D02*
X0133602Y0180400D01*
X0128602Y0180400D01*
X0126102Y0177900D01*
X0126102Y0172900D01*
X0128602Y0170400D01*
X0136102Y0155400D02*
X0141102Y0155400D01*
X0141104Y0155260D01*
X0141110Y0155120D01*
X0141120Y0154980D01*
X0141133Y0154840D01*
X0141151Y0154701D01*
X0141173Y0154562D01*
X0141198Y0154425D01*
X0141227Y0154287D01*
X0141260Y0154151D01*
X0141297Y0154016D01*
X0141338Y0153882D01*
X0141383Y0153749D01*
X0141431Y0153617D01*
X0141483Y0153487D01*
X0141538Y0153358D01*
X0141597Y0153231D01*
X0141660Y0153105D01*
X0141726Y0152981D01*
X0141795Y0152860D01*
X0141868Y0152740D01*
X0141945Y0152622D01*
X0142024Y0152507D01*
X0142107Y0152393D01*
X0142193Y0152283D01*
X0142282Y0152174D01*
X0142374Y0152068D01*
X0142469Y0151965D01*
X0142566Y0151864D01*
X0142667Y0151767D01*
X0142770Y0151672D01*
X0142876Y0151580D01*
X0142985Y0151491D01*
X0143095Y0151405D01*
X0143209Y0151322D01*
X0143324Y0151243D01*
X0143442Y0151166D01*
X0143562Y0151093D01*
X0143683Y0151024D01*
X0143807Y0150958D01*
X0143933Y0150895D01*
X0144060Y0150836D01*
X0144189Y0150781D01*
X0144319Y0150729D01*
X0144451Y0150681D01*
X0144584Y0150636D01*
X0144718Y0150595D01*
X0144853Y0150558D01*
X0144989Y0150525D01*
X0145127Y0150496D01*
X0145264Y0150471D01*
X0145403Y0150449D01*
X0145542Y0150431D01*
X0145682Y0150418D01*
X0145822Y0150408D01*
X0145962Y0150402D01*
X0146102Y0150400D01*
X0146242Y0150402D01*
X0146382Y0150408D01*
X0146522Y0150418D01*
X0146662Y0150431D01*
X0146801Y0150449D01*
X0146940Y0150471D01*
X0147077Y0150496D01*
X0147215Y0150525D01*
X0147351Y0150558D01*
X0147486Y0150595D01*
X0147620Y0150636D01*
X0147753Y0150681D01*
X0147885Y0150729D01*
X0148015Y0150781D01*
X0148144Y0150836D01*
X0148271Y0150895D01*
X0148397Y0150958D01*
X0148521Y0151024D01*
X0148642Y0151093D01*
X0148762Y0151166D01*
X0148880Y0151243D01*
X0148995Y0151322D01*
X0149109Y0151405D01*
X0149219Y0151491D01*
X0149328Y0151580D01*
X0149434Y0151672D01*
X0149537Y0151767D01*
X0149638Y0151864D01*
X0149735Y0151965D01*
X0149830Y0152068D01*
X0149922Y0152174D01*
X0150011Y0152283D01*
X0150097Y0152393D01*
X0150180Y0152507D01*
X0150259Y0152622D01*
X0150336Y0152740D01*
X0150409Y0152860D01*
X0150478Y0152981D01*
X0150544Y0153105D01*
X0150607Y0153231D01*
X0150666Y0153358D01*
X0150721Y0153487D01*
X0150773Y0153617D01*
X0150821Y0153749D01*
X0150866Y0153882D01*
X0150907Y0154016D01*
X0150944Y0154151D01*
X0150977Y0154287D01*
X0151006Y0154425D01*
X0151031Y0154562D01*
X0151053Y0154701D01*
X0151071Y0154840D01*
X0151084Y0154980D01*
X0151094Y0155120D01*
X0151100Y0155260D01*
X0151102Y0155400D01*
X0156102Y0155400D01*
X0156102Y0015400D01*
X0136102Y0015400D01*
X0136102Y0154900D01*
X0148602Y0170400D02*
X0146102Y0172900D01*
X0148602Y0170400D02*
X0153602Y0170400D01*
X0156102Y0172900D01*
X0158602Y0170400D01*
X0163602Y0170400D01*
X0166102Y0172900D01*
X0168602Y0170400D01*
X0173602Y0170400D01*
X0176102Y0172900D01*
X0176102Y0177900D01*
X0173602Y0180400D01*
X0168602Y0180400D01*
X0166102Y0177900D01*
X0166102Y0172900D01*
X0166102Y0177900D02*
X0163602Y0180400D01*
X0158602Y0180400D01*
X0156102Y0177900D01*
X0156102Y0172900D01*
X0156102Y0177900D02*
X0153602Y0180400D01*
X0148602Y0180400D01*
X0146102Y0177900D01*
X0083602Y0182400D02*
X0083602Y0189400D01*
X0083600Y0189460D01*
X0083595Y0189521D01*
X0083586Y0189580D01*
X0083573Y0189639D01*
X0083557Y0189698D01*
X0083537Y0189755D01*
X0083514Y0189810D01*
X0083487Y0189865D01*
X0083458Y0189917D01*
X0083425Y0189968D01*
X0083389Y0190017D01*
X0083351Y0190063D01*
X0083309Y0190107D01*
X0083265Y0190149D01*
X0083219Y0190187D01*
X0083170Y0190223D01*
X0083119Y0190256D01*
X0083067Y0190285D01*
X0083012Y0190312D01*
X0082957Y0190335D01*
X0082900Y0190355D01*
X0082841Y0190371D01*
X0082782Y0190384D01*
X0082723Y0190393D01*
X0082662Y0190398D01*
X0082602Y0190400D01*
X0081102Y0190400D01*
X0080602Y0189900D01*
X0061602Y0189900D01*
X0061102Y0190400D01*
X0059602Y0190400D01*
X0059542Y0190398D01*
X0059481Y0190393D01*
X0059422Y0190384D01*
X0059363Y0190371D01*
X0059304Y0190355D01*
X0059247Y0190335D01*
X0059192Y0190312D01*
X0059137Y0190285D01*
X0059085Y0190256D01*
X0059034Y0190223D01*
X0058985Y0190187D01*
X0058939Y0190149D01*
X0058895Y0190107D01*
X0058853Y0190063D01*
X0058815Y0190017D01*
X0058779Y0189968D01*
X0058746Y0189917D01*
X0058717Y0189865D01*
X0058690Y0189810D01*
X0058667Y0189755D01*
X0058647Y0189698D01*
X0058631Y0189639D01*
X0058618Y0189580D01*
X0058609Y0189521D01*
X0058604Y0189460D01*
X0058602Y0189400D01*
X0058602Y0182400D01*
X0058604Y0182340D01*
X0058609Y0182279D01*
X0058618Y0182220D01*
X0058631Y0182161D01*
X0058647Y0182102D01*
X0058667Y0182045D01*
X0058690Y0181990D01*
X0058717Y0181935D01*
X0058746Y0181883D01*
X0058779Y0181832D01*
X0058815Y0181783D01*
X0058853Y0181737D01*
X0058895Y0181693D01*
X0058939Y0181651D01*
X0058985Y0181613D01*
X0059034Y0181577D01*
X0059085Y0181544D01*
X0059137Y0181515D01*
X0059192Y0181488D01*
X0059247Y0181465D01*
X0059304Y0181445D01*
X0059363Y0181429D01*
X0059422Y0181416D01*
X0059481Y0181407D01*
X0059542Y0181402D01*
X0059602Y0181400D01*
X0061102Y0181400D01*
X0061602Y0181900D01*
X0080602Y0181900D01*
X0081102Y0181400D01*
X0082602Y0181400D01*
X0082662Y0181402D01*
X0082723Y0181407D01*
X0082782Y0181416D01*
X0082841Y0181429D01*
X0082900Y0181445D01*
X0082957Y0181465D01*
X0083012Y0181488D01*
X0083067Y0181515D01*
X0083119Y0181544D01*
X0083170Y0181577D01*
X0083219Y0181613D01*
X0083265Y0181651D01*
X0083309Y0181693D01*
X0083351Y0181737D01*
X0083389Y0181783D01*
X0083425Y0181832D01*
X0083458Y0181883D01*
X0083487Y0181935D01*
X0083514Y0181990D01*
X0083537Y0182045D01*
X0083557Y0182102D01*
X0083573Y0182161D01*
X0083586Y0182220D01*
X0083595Y0182279D01*
X0083600Y0182340D01*
X0083602Y0182400D01*
X0063102Y0154400D02*
X0055102Y0154400D01*
X0055042Y0154398D01*
X0054981Y0154393D01*
X0054922Y0154384D01*
X0054863Y0154371D01*
X0054804Y0154355D01*
X0054747Y0154335D01*
X0054692Y0154312D01*
X0054637Y0154285D01*
X0054585Y0154256D01*
X0054534Y0154223D01*
X0054485Y0154187D01*
X0054439Y0154149D01*
X0054395Y0154107D01*
X0054353Y0154063D01*
X0054315Y0154017D01*
X0054279Y0153968D01*
X0054246Y0153917D01*
X0054217Y0153865D01*
X0054190Y0153810D01*
X0054167Y0153755D01*
X0054147Y0153698D01*
X0054131Y0153639D01*
X0054118Y0153580D01*
X0054109Y0153521D01*
X0054104Y0153460D01*
X0054102Y0153400D01*
X0054102Y0136400D01*
X0054104Y0136340D01*
X0054109Y0136279D01*
X0054118Y0136220D01*
X0054131Y0136161D01*
X0054147Y0136102D01*
X0054167Y0136045D01*
X0054190Y0135990D01*
X0054217Y0135935D01*
X0054246Y0135883D01*
X0054279Y0135832D01*
X0054315Y0135783D01*
X0054353Y0135737D01*
X0054395Y0135693D01*
X0054439Y0135651D01*
X0054485Y0135613D01*
X0054534Y0135577D01*
X0054585Y0135544D01*
X0054637Y0135515D01*
X0054692Y0135488D01*
X0054747Y0135465D01*
X0054804Y0135445D01*
X0054863Y0135429D01*
X0054922Y0135416D01*
X0054981Y0135407D01*
X0055042Y0135402D01*
X0055102Y0135400D01*
X0063102Y0135400D01*
X0063162Y0135402D01*
X0063223Y0135407D01*
X0063282Y0135416D01*
X0063341Y0135429D01*
X0063400Y0135445D01*
X0063457Y0135465D01*
X0063512Y0135488D01*
X0063567Y0135515D01*
X0063619Y0135544D01*
X0063670Y0135577D01*
X0063719Y0135613D01*
X0063765Y0135651D01*
X0063809Y0135693D01*
X0063851Y0135737D01*
X0063889Y0135783D01*
X0063925Y0135832D01*
X0063958Y0135883D01*
X0063987Y0135935D01*
X0064014Y0135990D01*
X0064037Y0136045D01*
X0064057Y0136102D01*
X0064073Y0136161D01*
X0064086Y0136220D01*
X0064095Y0136279D01*
X0064100Y0136340D01*
X0064102Y0136400D01*
X0064102Y0153400D01*
X0064100Y0153460D01*
X0064095Y0153521D01*
X0064086Y0153580D01*
X0064073Y0153639D01*
X0064057Y0153698D01*
X0064037Y0153755D01*
X0064014Y0153810D01*
X0063987Y0153865D01*
X0063958Y0153917D01*
X0063925Y0153968D01*
X0063889Y0154017D01*
X0063851Y0154063D01*
X0063809Y0154107D01*
X0063765Y0154149D01*
X0063719Y0154187D01*
X0063670Y0154223D01*
X0063619Y0154256D01*
X0063567Y0154285D01*
X0063512Y0154312D01*
X0063457Y0154335D01*
X0063400Y0154355D01*
X0063341Y0154371D01*
X0063282Y0154384D01*
X0063223Y0154393D01*
X0063162Y0154398D01*
X0063102Y0154400D01*
X0059102Y0146400D02*
X0059102Y0145900D01*
X0059102Y0143900D02*
X0059102Y0143400D01*
X0046602Y0111400D02*
X0046605Y0111645D01*
X0046614Y0111891D01*
X0046629Y0112136D01*
X0046650Y0112380D01*
X0046677Y0112624D01*
X0046710Y0112867D01*
X0046749Y0113110D01*
X0046794Y0113351D01*
X0046845Y0113591D01*
X0046902Y0113830D01*
X0046964Y0114067D01*
X0047033Y0114303D01*
X0047107Y0114537D01*
X0047187Y0114769D01*
X0047272Y0114999D01*
X0047363Y0115227D01*
X0047460Y0115452D01*
X0047562Y0115676D01*
X0047670Y0115896D01*
X0047783Y0116114D01*
X0047901Y0116329D01*
X0048025Y0116541D01*
X0048153Y0116750D01*
X0048287Y0116956D01*
X0048426Y0117158D01*
X0048570Y0117357D01*
X0048719Y0117552D01*
X0048872Y0117744D01*
X0049030Y0117932D01*
X0049192Y0118116D01*
X0049360Y0118295D01*
X0049531Y0118471D01*
X0049707Y0118642D01*
X0049886Y0118810D01*
X0050070Y0118972D01*
X0050258Y0119130D01*
X0050450Y0119283D01*
X0050645Y0119432D01*
X0050844Y0119576D01*
X0051046Y0119715D01*
X0051252Y0119849D01*
X0051461Y0119977D01*
X0051673Y0120101D01*
X0051888Y0120219D01*
X0052106Y0120332D01*
X0052326Y0120440D01*
X0052550Y0120542D01*
X0052775Y0120639D01*
X0053003Y0120730D01*
X0053233Y0120815D01*
X0053465Y0120895D01*
X0053699Y0120969D01*
X0053935Y0121038D01*
X0054172Y0121100D01*
X0054411Y0121157D01*
X0054651Y0121208D01*
X0054892Y0121253D01*
X0055135Y0121292D01*
X0055378Y0121325D01*
X0055622Y0121352D01*
X0055866Y0121373D01*
X0056111Y0121388D01*
X0056357Y0121397D01*
X0056602Y0121400D01*
X0056847Y0121397D01*
X0057093Y0121388D01*
X0057338Y0121373D01*
X0057582Y0121352D01*
X0057826Y0121325D01*
X0058069Y0121292D01*
X0058312Y0121253D01*
X0058553Y0121208D01*
X0058793Y0121157D01*
X0059032Y0121100D01*
X0059269Y0121038D01*
X0059505Y0120969D01*
X0059739Y0120895D01*
X0059971Y0120815D01*
X0060201Y0120730D01*
X0060429Y0120639D01*
X0060654Y0120542D01*
X0060878Y0120440D01*
X0061098Y0120332D01*
X0061316Y0120219D01*
X0061531Y0120101D01*
X0061743Y0119977D01*
X0061952Y0119849D01*
X0062158Y0119715D01*
X0062360Y0119576D01*
X0062559Y0119432D01*
X0062754Y0119283D01*
X0062946Y0119130D01*
X0063134Y0118972D01*
X0063318Y0118810D01*
X0063497Y0118642D01*
X0063673Y0118471D01*
X0063844Y0118295D01*
X0064012Y0118116D01*
X0064174Y0117932D01*
X0064332Y0117744D01*
X0064485Y0117552D01*
X0064634Y0117357D01*
X0064778Y0117158D01*
X0064917Y0116956D01*
X0065051Y0116750D01*
X0065179Y0116541D01*
X0065303Y0116329D01*
X0065421Y0116114D01*
X0065534Y0115896D01*
X0065642Y0115676D01*
X0065744Y0115452D01*
X0065841Y0115227D01*
X0065932Y0114999D01*
X0066017Y0114769D01*
X0066097Y0114537D01*
X0066171Y0114303D01*
X0066240Y0114067D01*
X0066302Y0113830D01*
X0066359Y0113591D01*
X0066410Y0113351D01*
X0066455Y0113110D01*
X0066494Y0112867D01*
X0066527Y0112624D01*
X0066554Y0112380D01*
X0066575Y0112136D01*
X0066590Y0111891D01*
X0066599Y0111645D01*
X0066602Y0111400D01*
X0066599Y0111155D01*
X0066590Y0110909D01*
X0066575Y0110664D01*
X0066554Y0110420D01*
X0066527Y0110176D01*
X0066494Y0109933D01*
X0066455Y0109690D01*
X0066410Y0109449D01*
X0066359Y0109209D01*
X0066302Y0108970D01*
X0066240Y0108733D01*
X0066171Y0108497D01*
X0066097Y0108263D01*
X0066017Y0108031D01*
X0065932Y0107801D01*
X0065841Y0107573D01*
X0065744Y0107348D01*
X0065642Y0107124D01*
X0065534Y0106904D01*
X0065421Y0106686D01*
X0065303Y0106471D01*
X0065179Y0106259D01*
X0065051Y0106050D01*
X0064917Y0105844D01*
X0064778Y0105642D01*
X0064634Y0105443D01*
X0064485Y0105248D01*
X0064332Y0105056D01*
X0064174Y0104868D01*
X0064012Y0104684D01*
X0063844Y0104505D01*
X0063673Y0104329D01*
X0063497Y0104158D01*
X0063318Y0103990D01*
X0063134Y0103828D01*
X0062946Y0103670D01*
X0062754Y0103517D01*
X0062559Y0103368D01*
X0062360Y0103224D01*
X0062158Y0103085D01*
X0061952Y0102951D01*
X0061743Y0102823D01*
X0061531Y0102699D01*
X0061316Y0102581D01*
X0061098Y0102468D01*
X0060878Y0102360D01*
X0060654Y0102258D01*
X0060429Y0102161D01*
X0060201Y0102070D01*
X0059971Y0101985D01*
X0059739Y0101905D01*
X0059505Y0101831D01*
X0059269Y0101762D01*
X0059032Y0101700D01*
X0058793Y0101643D01*
X0058553Y0101592D01*
X0058312Y0101547D01*
X0058069Y0101508D01*
X0057826Y0101475D01*
X0057582Y0101448D01*
X0057338Y0101427D01*
X0057093Y0101412D01*
X0056847Y0101403D01*
X0056602Y0101400D01*
X0056357Y0101403D01*
X0056111Y0101412D01*
X0055866Y0101427D01*
X0055622Y0101448D01*
X0055378Y0101475D01*
X0055135Y0101508D01*
X0054892Y0101547D01*
X0054651Y0101592D01*
X0054411Y0101643D01*
X0054172Y0101700D01*
X0053935Y0101762D01*
X0053699Y0101831D01*
X0053465Y0101905D01*
X0053233Y0101985D01*
X0053003Y0102070D01*
X0052775Y0102161D01*
X0052550Y0102258D01*
X0052326Y0102360D01*
X0052106Y0102468D01*
X0051888Y0102581D01*
X0051673Y0102699D01*
X0051461Y0102823D01*
X0051252Y0102951D01*
X0051046Y0103085D01*
X0050844Y0103224D01*
X0050645Y0103368D01*
X0050450Y0103517D01*
X0050258Y0103670D01*
X0050070Y0103828D01*
X0049886Y0103990D01*
X0049707Y0104158D01*
X0049531Y0104329D01*
X0049360Y0104505D01*
X0049192Y0104684D01*
X0049030Y0104868D01*
X0048872Y0105056D01*
X0048719Y0105248D01*
X0048570Y0105443D01*
X0048426Y0105642D01*
X0048287Y0105844D01*
X0048153Y0106050D01*
X0048025Y0106259D01*
X0047901Y0106471D01*
X0047783Y0106686D01*
X0047670Y0106904D01*
X0047562Y0107124D01*
X0047460Y0107348D01*
X0047363Y0107573D01*
X0047272Y0107801D01*
X0047187Y0108031D01*
X0047107Y0108263D01*
X0047033Y0108497D01*
X0046964Y0108733D01*
X0046902Y0108970D01*
X0046845Y0109209D01*
X0046794Y0109449D01*
X0046749Y0109690D01*
X0046710Y0109933D01*
X0046677Y0110176D01*
X0046650Y0110420D01*
X0046629Y0110664D01*
X0046614Y0110909D01*
X0046605Y0111155D01*
X0046602Y0111400D01*
X0177602Y0075900D02*
X0177602Y0048900D01*
X0177604Y0048840D01*
X0177609Y0048779D01*
X0177618Y0048720D01*
X0177631Y0048661D01*
X0177647Y0048602D01*
X0177667Y0048545D01*
X0177690Y0048490D01*
X0177717Y0048435D01*
X0177746Y0048383D01*
X0177779Y0048332D01*
X0177815Y0048283D01*
X0177853Y0048237D01*
X0177895Y0048193D01*
X0177939Y0048151D01*
X0177985Y0048113D01*
X0178034Y0048077D01*
X0178085Y0048044D01*
X0178137Y0048015D01*
X0178192Y0047988D01*
X0178247Y0047965D01*
X0178304Y0047945D01*
X0178363Y0047929D01*
X0178422Y0047916D01*
X0178481Y0047907D01*
X0178542Y0047902D01*
X0178602Y0047900D01*
X0186602Y0047900D01*
X0186662Y0047902D01*
X0186723Y0047907D01*
X0186782Y0047916D01*
X0186841Y0047929D01*
X0186900Y0047945D01*
X0186957Y0047965D01*
X0187012Y0047988D01*
X0187067Y0048015D01*
X0187119Y0048044D01*
X0187170Y0048077D01*
X0187219Y0048113D01*
X0187265Y0048151D01*
X0187309Y0048193D01*
X0187351Y0048237D01*
X0187389Y0048283D01*
X0187425Y0048332D01*
X0187458Y0048383D01*
X0187487Y0048435D01*
X0187514Y0048490D01*
X0187537Y0048545D01*
X0187557Y0048602D01*
X0187573Y0048661D01*
X0187586Y0048720D01*
X0187595Y0048779D01*
X0187600Y0048840D01*
X0187602Y0048900D01*
X0187602Y0075900D01*
X0187600Y0075960D01*
X0187595Y0076021D01*
X0187586Y0076080D01*
X0187573Y0076139D01*
X0187557Y0076198D01*
X0187537Y0076255D01*
X0187514Y0076310D01*
X0187487Y0076365D01*
X0187458Y0076417D01*
X0187425Y0076468D01*
X0187389Y0076517D01*
X0187351Y0076563D01*
X0187309Y0076607D01*
X0187265Y0076649D01*
X0187219Y0076687D01*
X0187170Y0076723D01*
X0187119Y0076756D01*
X0187067Y0076785D01*
X0187012Y0076812D01*
X0186957Y0076835D01*
X0186900Y0076855D01*
X0186841Y0076871D01*
X0186782Y0076884D01*
X0186723Y0076893D01*
X0186662Y0076898D01*
X0186602Y0076900D01*
X0178602Y0076900D01*
X0178542Y0076898D01*
X0178481Y0076893D01*
X0178422Y0076884D01*
X0178363Y0076871D01*
X0178304Y0076855D01*
X0178247Y0076835D01*
X0178192Y0076812D01*
X0178137Y0076785D01*
X0178085Y0076756D01*
X0178034Y0076723D01*
X0177985Y0076687D01*
X0177939Y0076649D01*
X0177895Y0076607D01*
X0177853Y0076563D01*
X0177815Y0076517D01*
X0177779Y0076468D01*
X0177746Y0076417D01*
X0177717Y0076365D01*
X0177690Y0076310D01*
X0177667Y0076255D01*
X0177647Y0076198D01*
X0177631Y0076139D01*
X0177618Y0076080D01*
X0177609Y0076021D01*
X0177604Y0075960D01*
X0177602Y0075900D01*
X0182602Y0068400D02*
X0182602Y0063600D01*
X0182602Y0061100D02*
X0182602Y0056400D01*
X0206787Y0044900D02*
X0206787Y0017900D01*
X0206789Y0017840D01*
X0206794Y0017779D01*
X0206803Y0017720D01*
X0206816Y0017661D01*
X0206832Y0017602D01*
X0206852Y0017545D01*
X0206875Y0017490D01*
X0206902Y0017435D01*
X0206931Y0017383D01*
X0206964Y0017332D01*
X0207000Y0017283D01*
X0207038Y0017237D01*
X0207080Y0017193D01*
X0207124Y0017151D01*
X0207170Y0017113D01*
X0207219Y0017077D01*
X0207270Y0017044D01*
X0207322Y0017015D01*
X0207377Y0016988D01*
X0207432Y0016965D01*
X0207489Y0016945D01*
X0207548Y0016929D01*
X0207607Y0016916D01*
X0207666Y0016907D01*
X0207727Y0016902D01*
X0207787Y0016900D01*
X0215787Y0016900D01*
X0215847Y0016902D01*
X0215908Y0016907D01*
X0215967Y0016916D01*
X0216026Y0016929D01*
X0216085Y0016945D01*
X0216142Y0016965D01*
X0216197Y0016988D01*
X0216252Y0017015D01*
X0216304Y0017044D01*
X0216355Y0017077D01*
X0216404Y0017113D01*
X0216450Y0017151D01*
X0216494Y0017193D01*
X0216536Y0017237D01*
X0216574Y0017283D01*
X0216610Y0017332D01*
X0216643Y0017383D01*
X0216672Y0017435D01*
X0216699Y0017490D01*
X0216722Y0017545D01*
X0216742Y0017602D01*
X0216758Y0017661D01*
X0216771Y0017720D01*
X0216780Y0017779D01*
X0216785Y0017840D01*
X0216787Y0017900D01*
X0216787Y0044900D01*
X0216785Y0044960D01*
X0216780Y0045021D01*
X0216771Y0045080D01*
X0216758Y0045139D01*
X0216742Y0045198D01*
X0216722Y0045255D01*
X0216699Y0045310D01*
X0216672Y0045365D01*
X0216643Y0045417D01*
X0216610Y0045468D01*
X0216574Y0045517D01*
X0216536Y0045563D01*
X0216494Y0045607D01*
X0216450Y0045649D01*
X0216404Y0045687D01*
X0216355Y0045723D01*
X0216304Y0045756D01*
X0216252Y0045785D01*
X0216197Y0045812D01*
X0216142Y0045835D01*
X0216085Y0045855D01*
X0216026Y0045871D01*
X0215967Y0045884D01*
X0215908Y0045893D01*
X0215847Y0045898D01*
X0215787Y0045900D01*
X0207787Y0045900D01*
X0207727Y0045898D01*
X0207666Y0045893D01*
X0207607Y0045884D01*
X0207548Y0045871D01*
X0207489Y0045855D01*
X0207432Y0045835D01*
X0207377Y0045812D01*
X0207322Y0045785D01*
X0207270Y0045756D01*
X0207219Y0045723D01*
X0207170Y0045687D01*
X0207124Y0045649D01*
X0207080Y0045607D01*
X0207038Y0045563D01*
X0207000Y0045517D01*
X0206964Y0045468D01*
X0206931Y0045417D01*
X0206902Y0045365D01*
X0206875Y0045310D01*
X0206852Y0045255D01*
X0206832Y0045198D01*
X0206816Y0045139D01*
X0206803Y0045080D01*
X0206794Y0045021D01*
X0206789Y0044960D01*
X0206787Y0044900D01*
X0211787Y0037400D02*
X0211787Y0032600D01*
X0211787Y0030100D02*
X0211787Y0025400D01*
D12*
X0082102Y0052400D02*
X0082102Y0055400D01*
X0082102Y0058400D01*
X0080102Y0058400D02*
X0080102Y0055400D01*
X0080102Y0052400D01*
X0080102Y0072400D02*
X0080102Y0075400D01*
X0080102Y0078400D01*
X0082102Y0078400D02*
X0082102Y0075400D01*
X0082102Y0072400D01*
X0046602Y0103900D02*
X0046789Y0103657D01*
X0046981Y0103419D01*
X0047180Y0103186D01*
X0047384Y0102958D01*
X0047593Y0102735D01*
X0047808Y0102517D01*
X0048028Y0102304D01*
X0048253Y0102097D01*
X0048484Y0101895D01*
X0048719Y0101699D01*
X0048959Y0101509D01*
X0049203Y0101325D01*
X0049452Y0101147D01*
X0049706Y0100975D01*
X0049963Y0100809D01*
X0050224Y0100649D01*
X0050489Y0100496D01*
X0050758Y0100350D01*
X0051031Y0100210D01*
X0051306Y0100077D01*
X0051585Y0099951D01*
X0051867Y0099831D01*
X0052152Y0099719D01*
X0052439Y0099614D01*
X0052729Y0099515D01*
X0053021Y0099424D01*
X0053316Y0099340D01*
X0053612Y0099263D01*
X0053910Y0099193D01*
X0054210Y0099131D01*
X0054511Y0099076D01*
X0054813Y0099029D01*
X0055117Y0098989D01*
X0055421Y0098956D01*
X0055726Y0098931D01*
X0056032Y0098913D01*
X0056338Y0098903D01*
X0056644Y0098900D01*
X0056950Y0098905D01*
X0057256Y0098917D01*
X0057562Y0098937D01*
X0057866Y0098964D01*
X0058171Y0098999D01*
X0058474Y0099041D01*
X0058776Y0099090D01*
X0059077Y0099147D01*
X0059376Y0099212D01*
X0059674Y0099283D01*
X0059969Y0099362D01*
X0060263Y0099448D01*
X0060555Y0099541D01*
X0060844Y0099642D01*
X0061131Y0099749D01*
X0061415Y0099864D01*
X0061696Y0099985D01*
X0061974Y0100113D01*
X0062249Y0100248D01*
X0062520Y0100390D01*
X0062788Y0100538D01*
X0063052Y0100693D01*
X0063312Y0100854D01*
X0063568Y0101021D01*
X0063821Y0101195D01*
X0064068Y0101375D01*
X0064312Y0101561D01*
X0064550Y0101752D01*
X0064784Y0101950D01*
X0065013Y0102153D01*
X0065237Y0102362D01*
X0065456Y0102576D01*
X0065669Y0102796D01*
X0065877Y0103020D01*
X0066080Y0103250D01*
X0066276Y0103484D01*
X0066467Y0103724D01*
X0066652Y0103967D01*
X0066831Y0104216D01*
X0067004Y0104468D01*
X0067171Y0104725D01*
X0067331Y0104986D01*
X0067485Y0105251D01*
X0067632Y0105519D01*
X0067773Y0105791D01*
X0067907Y0106066D01*
X0068034Y0106345D01*
X0068155Y0106626D01*
X0068268Y0106911D01*
X0068374Y0107198D01*
X0068474Y0107487D01*
X0068566Y0107779D01*
X0068651Y0108073D01*
X0068729Y0108369D01*
X0068800Y0108667D01*
X0068863Y0108967D01*
X0068919Y0109268D01*
X0068967Y0109570D01*
X0069008Y0109873D01*
X0069042Y0110177D01*
X0069068Y0110482D01*
X0069087Y0110788D01*
X0069098Y0111094D01*
X0069102Y0111400D01*
X0069098Y0111706D01*
X0069087Y0112012D01*
X0069068Y0112318D01*
X0069042Y0112623D01*
X0069008Y0112927D01*
X0068967Y0113230D01*
X0068919Y0113532D01*
X0068863Y0113833D01*
X0068800Y0114133D01*
X0068729Y0114431D01*
X0068651Y0114727D01*
X0068566Y0115021D01*
X0068474Y0115313D01*
X0068374Y0115602D01*
X0068268Y0115889D01*
X0068155Y0116174D01*
X0068034Y0116455D01*
X0067907Y0116734D01*
X0067773Y0117009D01*
X0067632Y0117281D01*
X0067485Y0117549D01*
X0067331Y0117814D01*
X0067171Y0118075D01*
X0067004Y0118332D01*
X0066831Y0118584D01*
X0066652Y0118833D01*
X0066467Y0119076D01*
X0066276Y0119316D01*
X0066080Y0119550D01*
X0065877Y0119780D01*
X0065669Y0120004D01*
X0065456Y0120224D01*
X0065237Y0120438D01*
X0065013Y0120647D01*
X0064784Y0120850D01*
X0064550Y0121048D01*
X0064312Y0121239D01*
X0064068Y0121425D01*
X0063821Y0121605D01*
X0063568Y0121779D01*
X0063312Y0121946D01*
X0063052Y0122107D01*
X0062788Y0122262D01*
X0062520Y0122410D01*
X0062249Y0122552D01*
X0061974Y0122687D01*
X0061696Y0122815D01*
X0061415Y0122936D01*
X0061131Y0123051D01*
X0060844Y0123158D01*
X0060555Y0123259D01*
X0060263Y0123352D01*
X0059969Y0123438D01*
X0059674Y0123517D01*
X0059376Y0123588D01*
X0059077Y0123653D01*
X0058776Y0123710D01*
X0058474Y0123759D01*
X0058171Y0123801D01*
X0057866Y0123836D01*
X0057562Y0123863D01*
X0057256Y0123883D01*
X0056950Y0123895D01*
X0056644Y0123900D01*
X0056338Y0123897D01*
X0056032Y0123887D01*
X0055726Y0123869D01*
X0055421Y0123844D01*
X0055117Y0123811D01*
X0054813Y0123771D01*
X0054511Y0123724D01*
X0054210Y0123669D01*
X0053910Y0123607D01*
X0053612Y0123537D01*
X0053316Y0123460D01*
X0053021Y0123376D01*
X0052729Y0123285D01*
X0052439Y0123186D01*
X0052152Y0123081D01*
X0051867Y0122969D01*
X0051585Y0122849D01*
X0051306Y0122723D01*
X0051031Y0122590D01*
X0050758Y0122450D01*
X0050489Y0122304D01*
X0050224Y0122151D01*
X0049963Y0121991D01*
X0049706Y0121825D01*
X0049452Y0121653D01*
X0049203Y0121475D01*
X0048959Y0121291D01*
X0048719Y0121101D01*
X0048484Y0120905D01*
X0048253Y0120703D01*
X0048028Y0120496D01*
X0047808Y0120283D01*
X0047593Y0120065D01*
X0047384Y0119842D01*
X0047180Y0119614D01*
X0046981Y0119381D01*
X0046789Y0119143D01*
X0046602Y0118900D01*
X0056102Y0143900D02*
X0059102Y0143900D01*
X0062102Y0143900D01*
X0062102Y0145900D02*
X0059102Y0145900D01*
X0056102Y0145900D01*
D13*
X0065348Y0144557D02*
X0069852Y0144557D01*
X0069852Y0143056D02*
X0069852Y0146058D01*
X0069101Y0147660D02*
X0069852Y0148410D01*
X0069852Y0150662D01*
X0066850Y0150662D01*
X0067600Y0152264D02*
X0067600Y0153765D01*
X0069852Y0152264D02*
X0065348Y0152264D01*
X0065348Y0155266D01*
X0066850Y0147660D02*
X0069101Y0147660D01*
X0065348Y0144557D02*
X0066850Y0143056D01*
X0069101Y0141505D02*
X0069852Y0141505D01*
X0069852Y0140754D01*
X0069101Y0140754D01*
X0069101Y0141505D01*
X0069101Y0139153D02*
X0066099Y0139153D01*
X0069101Y0136150D01*
X0069852Y0136901D01*
X0069852Y0138402D01*
X0069101Y0139153D01*
X0066099Y0139153D02*
X0065348Y0138402D01*
X0065348Y0136901D01*
X0066099Y0136150D01*
X0069101Y0136150D01*
X0094353Y0097654D02*
X0092852Y0096153D01*
X0094353Y0097654D02*
X0094353Y0093150D01*
X0092852Y0093150D02*
X0095855Y0093150D01*
X0097456Y0093901D02*
X0097456Y0096903D01*
X0098207Y0097654D01*
X0099708Y0097654D01*
X0100459Y0096903D01*
X0097456Y0093901D01*
X0098207Y0093150D01*
X0099708Y0093150D01*
X0100459Y0093901D01*
X0100459Y0096903D01*
X0106664Y0096153D02*
X0106664Y0093901D01*
X0107414Y0093150D01*
X0109666Y0093150D01*
X0109666Y0096153D01*
X0111268Y0095402D02*
X0112769Y0095402D01*
X0111268Y0097654D02*
X0114270Y0097654D01*
X0111268Y0097654D02*
X0111268Y0093150D01*
X0118350Y0067068D02*
X0121352Y0064066D01*
X0121352Y0067068D01*
X0118350Y0067068D02*
X0118350Y0064066D01*
X0119100Y0062464D02*
X0119100Y0059462D01*
X0121352Y0059462D02*
X0116848Y0059462D01*
X0116848Y0057860D02*
X0121352Y0057860D01*
X0121352Y0054858D02*
X0116848Y0054858D01*
X0118350Y0056359D01*
X0116848Y0057860D01*
X0116848Y0062464D02*
X0121352Y0062464D01*
X0120601Y0053256D02*
X0119851Y0053256D01*
X0119100Y0052506D01*
X0119100Y0050254D01*
X0120601Y0050254D01*
X0121352Y0051005D01*
X0121352Y0052506D01*
X0120601Y0053256D01*
X0117599Y0051755D02*
X0119100Y0050254D01*
X0117599Y0051755D02*
X0116848Y0053256D01*
X0121352Y0048653D02*
X0121352Y0045650D01*
X0121352Y0047151D02*
X0116848Y0047151D01*
X0118350Y0045650D01*
X0089166Y0048154D02*
X0086164Y0048154D01*
X0086164Y0043650D01*
X0084562Y0044401D02*
X0083812Y0043650D01*
X0081560Y0043650D01*
X0081560Y0042149D02*
X0081560Y0046653D01*
X0083812Y0046653D01*
X0084562Y0045902D01*
X0084562Y0044401D01*
X0086164Y0045902D02*
X0087665Y0045902D01*
X0079959Y0046653D02*
X0079208Y0045902D01*
X0079959Y0045151D01*
X0079959Y0044401D01*
X0079208Y0043650D01*
X0077707Y0043650D01*
X0076956Y0044401D01*
X0075355Y0044401D02*
X0075355Y0045151D01*
X0074604Y0045902D01*
X0073853Y0045902D01*
X0074604Y0045902D02*
X0075355Y0046653D01*
X0075355Y0047403D01*
X0074604Y0048154D01*
X0073103Y0048154D01*
X0072352Y0047403D01*
X0072352Y0044401D02*
X0073103Y0043650D01*
X0074604Y0043650D01*
X0075355Y0044401D01*
X0076956Y0047403D02*
X0077707Y0048154D01*
X0079208Y0048154D01*
X0079959Y0047403D01*
X0079959Y0046653D01*
X0079208Y0045902D02*
X0078457Y0045902D01*
X0081560Y0062149D02*
X0081560Y0066653D01*
X0083812Y0066653D01*
X0084562Y0065902D01*
X0084562Y0064401D01*
X0083812Y0063650D01*
X0081560Y0063650D01*
X0079959Y0064401D02*
X0079208Y0063650D01*
X0077707Y0063650D01*
X0076956Y0064401D01*
X0075355Y0064401D02*
X0074604Y0063650D01*
X0073103Y0063650D01*
X0072352Y0064401D01*
X0073853Y0065902D02*
X0074604Y0065902D01*
X0075355Y0065151D01*
X0075355Y0064401D01*
X0074604Y0065902D02*
X0075355Y0066653D01*
X0075355Y0067403D01*
X0074604Y0068154D01*
X0073103Y0068154D01*
X0072352Y0067403D01*
X0076956Y0067403D02*
X0077707Y0068154D01*
X0079208Y0068154D01*
X0079959Y0067403D01*
X0079959Y0066653D01*
X0079208Y0065902D01*
X0079959Y0065151D01*
X0079959Y0064401D01*
X0079208Y0065902D02*
X0078457Y0065902D01*
X0086164Y0065902D02*
X0087665Y0065902D01*
X0086164Y0068154D02*
X0089166Y0068154D01*
X0086164Y0068154D02*
X0086164Y0063650D01*
X0079016Y0022154D02*
X0077514Y0022154D01*
X0076764Y0021403D01*
X0076764Y0018401D01*
X0079766Y0021403D01*
X0079766Y0018401D01*
X0079016Y0017650D01*
X0077514Y0017650D01*
X0076764Y0018401D01*
X0075162Y0018401D02*
X0074412Y0017650D01*
X0072911Y0017650D01*
X0072160Y0018401D01*
X0075162Y0021403D01*
X0075162Y0018401D01*
X0072160Y0018401D02*
X0072160Y0021403D01*
X0072911Y0022154D01*
X0074412Y0022154D01*
X0075162Y0021403D01*
X0070559Y0021403D02*
X0070559Y0018401D01*
X0069808Y0017650D01*
X0068307Y0017650D01*
X0067556Y0018401D01*
X0070559Y0021403D01*
X0069808Y0022154D01*
X0068307Y0022154D01*
X0067556Y0021403D01*
X0067556Y0018401D01*
X0065955Y0017650D02*
X0062952Y0017650D01*
X0064453Y0017650D02*
X0064453Y0022154D01*
X0062952Y0020653D01*
X0079016Y0022154D02*
X0079766Y0021403D01*
X0171848Y0056183D02*
X0171848Y0057684D01*
X0172599Y0058435D01*
X0175601Y0055432D01*
X0176352Y0056183D01*
X0176352Y0057684D01*
X0175601Y0058435D01*
X0172599Y0058435D01*
X0171848Y0056183D02*
X0172599Y0055432D01*
X0175601Y0055432D01*
X0175601Y0060036D02*
X0175601Y0060787D01*
X0176352Y0060787D01*
X0176352Y0060036D01*
X0175601Y0060036D01*
X0176352Y0062338D02*
X0176352Y0065341D01*
X0176352Y0063839D02*
X0171848Y0063839D01*
X0173350Y0062338D01*
X0173350Y0066942D02*
X0175601Y0066942D01*
X0176352Y0067693D01*
X0176352Y0069945D01*
X0173350Y0069945D01*
X0174100Y0071546D02*
X0174100Y0073047D01*
X0171848Y0071546D02*
X0171848Y0074549D01*
X0171848Y0071546D02*
X0176352Y0071546D01*
X0199401Y0080715D02*
X0286803Y0080715D01*
X0286803Y0120085D01*
X0199401Y0120085D01*
X0199401Y0080715D01*
X0201033Y0043549D02*
X0201033Y0040546D01*
X0205537Y0040546D01*
X0205537Y0038945D02*
X0202535Y0038945D01*
X0203285Y0040546D02*
X0203285Y0042047D01*
X0205537Y0038945D02*
X0205537Y0036693D01*
X0204786Y0035942D01*
X0202535Y0035942D01*
X0205537Y0034341D02*
X0205537Y0031338D01*
X0205537Y0032839D02*
X0201033Y0032839D01*
X0202535Y0031338D01*
X0204786Y0029787D02*
X0204786Y0029036D01*
X0205537Y0029036D01*
X0205537Y0029787D01*
X0204786Y0029787D01*
X0204786Y0027435D02*
X0201784Y0027435D01*
X0204786Y0024432D01*
X0205537Y0025183D01*
X0205537Y0026684D01*
X0204786Y0027435D01*
X0201784Y0027435D02*
X0201033Y0026684D01*
X0201033Y0025183D01*
X0201784Y0024432D01*
X0204786Y0024432D01*
X0241315Y0021065D02*
X0261000Y0021065D01*
X0261000Y0051065D01*
X0241315Y0051065D01*
X0241315Y0021065D01*
X0199401Y0120715D02*
X0286803Y0120715D01*
X0286803Y0160085D01*
X0199401Y0160085D01*
X0199401Y0120715D01*
X0199401Y0160715D02*
X0286803Y0160715D01*
X0286803Y0200085D01*
X0199401Y0200085D01*
X0199401Y0160715D01*
X0199401Y0200715D02*
X0286803Y0200715D01*
X0286803Y0240085D01*
X0199401Y0240085D01*
X0199401Y0200715D01*
X0183712Y0204180D02*
X0183712Y0276620D01*
X0060720Y0276620D01*
X0060720Y0204180D01*
X0183712Y0204180D01*
X0199401Y0240715D02*
X0286803Y0240715D01*
X0286803Y0280085D01*
X0199401Y0280085D01*
X0199401Y0240715D01*
X0112352Y0167198D02*
X0112352Y0165697D01*
X0111601Y0164946D01*
X0108599Y0167949D01*
X0111601Y0167949D01*
X0112352Y0167198D01*
X0111601Y0164946D02*
X0108599Y0164946D01*
X0107848Y0165697D01*
X0107848Y0167198D01*
X0108599Y0167949D01*
X0108599Y0163345D02*
X0111601Y0160342D01*
X0112352Y0160342D01*
X0112352Y0157990D02*
X0107848Y0157990D01*
X0110100Y0155738D01*
X0110100Y0158741D01*
X0107848Y0160342D02*
X0107848Y0163345D01*
X0108599Y0163345D01*
X0078651Y0184401D02*
X0077900Y0183650D01*
X0076399Y0183650D01*
X0075648Y0184401D01*
X0078651Y0187403D01*
X0078651Y0184401D01*
X0078651Y0187403D02*
X0077900Y0188154D01*
X0076399Y0188154D01*
X0075648Y0187403D01*
X0075648Y0184401D01*
X0074047Y0184401D02*
X0073296Y0183650D01*
X0071795Y0183650D01*
X0071044Y0184401D01*
X0074047Y0187403D01*
X0074047Y0184401D01*
X0074047Y0187403D02*
X0073296Y0188154D01*
X0071795Y0188154D01*
X0071044Y0187403D01*
X0071044Y0184401D01*
X0069443Y0184401D02*
X0069443Y0187403D01*
X0066440Y0184401D01*
X0067191Y0183650D01*
X0068692Y0183650D01*
X0069443Y0184401D01*
X0069443Y0187403D02*
X0068692Y0188154D01*
X0067191Y0188154D01*
X0066440Y0187403D01*
X0066440Y0184401D01*
X0064839Y0184401D02*
X0064088Y0183650D01*
X0062587Y0183650D01*
X0061836Y0184401D01*
X0064839Y0187403D01*
X0064839Y0184401D01*
X0064839Y0187403D02*
X0064088Y0188154D01*
X0062587Y0188154D01*
X0061836Y0187403D01*
X0061836Y0184401D01*
X0060235Y0183650D02*
X0057232Y0183650D01*
X0058734Y0183650D02*
X0058734Y0188154D01*
X0057232Y0186653D01*
D14*
X0104902Y0106400D02*
X0104902Y0103900D01*
X0104902Y0101400D01*
X0107402Y0101400D02*
X0107402Y0103900D01*
X0107402Y0106400D01*
X0180102Y0063600D02*
X0182602Y0063600D01*
X0185102Y0063600D01*
X0185102Y0061100D02*
X0182602Y0061100D01*
X0180102Y0061100D01*
X0209287Y0032600D02*
X0211787Y0032600D01*
X0214287Y0032600D01*
X0214287Y0030100D02*
X0211787Y0030100D01*
X0209287Y0030100D01*
D15*
X0149052Y0055364D02*
X0142747Y0055364D01*
X0142747Y0058517D01*
X0143798Y0059568D01*
X0145899Y0059568D01*
X0146950Y0058517D01*
X0146950Y0055364D01*
X0149052Y0061810D02*
X0149052Y0063912D01*
X0149052Y0062861D02*
X0142747Y0062861D01*
X0142747Y0061810D02*
X0142747Y0063912D01*
X0143798Y0066107D02*
X0148001Y0066107D01*
X0149052Y0067158D01*
X0149052Y0069260D01*
X0148001Y0070310D01*
X0149052Y0072552D02*
X0149052Y0076756D01*
X0149052Y0074654D02*
X0142747Y0074654D01*
X0144848Y0072552D01*
X0143798Y0070310D02*
X0142747Y0069260D01*
X0142747Y0067158D01*
X0143798Y0066107D01*
X0143798Y0078998D02*
X0144848Y0078998D01*
X0145899Y0080049D01*
X0145899Y0082151D01*
X0146950Y0083201D01*
X0148001Y0083201D01*
X0149052Y0082151D01*
X0149052Y0080049D01*
X0148001Y0078998D01*
X0146950Y0078998D01*
X0145899Y0080049D01*
X0145899Y0082151D02*
X0144848Y0083201D01*
X0143798Y0083201D01*
X0142747Y0082151D01*
X0142747Y0080049D01*
X0143798Y0078998D01*
X0142747Y0085443D02*
X0142747Y0089647D01*
X0143798Y0091889D02*
X0142747Y0092940D01*
X0142747Y0095042D01*
X0143798Y0096092D01*
X0144848Y0096092D01*
X0149052Y0091889D01*
X0149052Y0096092D01*
X0145899Y0098334D02*
X0145899Y0102538D01*
X0144848Y0104780D02*
X0143798Y0104780D01*
X0142747Y0105831D01*
X0142747Y0107933D01*
X0143798Y0108983D01*
X0144848Y0108983D01*
X0145899Y0107933D01*
X0145899Y0105831D01*
X0144848Y0104780D01*
X0145899Y0105831D02*
X0146950Y0104780D01*
X0148001Y0104780D01*
X0149052Y0105831D01*
X0149052Y0107933D01*
X0148001Y0108983D01*
X0146950Y0108983D01*
X0145899Y0107933D01*
X0143798Y0111225D02*
X0142747Y0112276D01*
X0142747Y0114378D01*
X0143798Y0115429D01*
X0148001Y0111225D01*
X0149052Y0112276D01*
X0149052Y0114378D01*
X0148001Y0115429D01*
X0143798Y0115429D01*
X0145899Y0117671D02*
X0145899Y0121874D01*
X0142747Y0124116D02*
X0142747Y0126218D01*
X0142747Y0125167D02*
X0149052Y0125167D01*
X0149052Y0124116D02*
X0149052Y0126218D01*
X0149052Y0128413D02*
X0142747Y0132617D01*
X0143798Y0134859D02*
X0144848Y0134859D01*
X0145899Y0135910D01*
X0145899Y0138012D01*
X0146950Y0139062D01*
X0148001Y0139062D01*
X0149052Y0138012D01*
X0149052Y0135910D01*
X0148001Y0134859D01*
X0143798Y0134859D02*
X0142747Y0135910D01*
X0142747Y0138012D01*
X0143798Y0139062D01*
X0142747Y0141304D02*
X0142747Y0144457D01*
X0143798Y0145508D01*
X0145899Y0145508D01*
X0146950Y0144457D01*
X0146950Y0141304D01*
X0149052Y0141304D02*
X0142747Y0141304D01*
X0143798Y0111225D02*
X0148001Y0111225D01*
X0149052Y0101487D02*
X0142747Y0101487D01*
X0145899Y0098334D01*
X0145899Y0087545D02*
X0145899Y0085443D01*
X0142747Y0085443D02*
X0149052Y0085443D01*
D16*
X0231443Y0058155D02*
X0233378Y0058155D01*
X0232410Y0058155D02*
X0232410Y0055252D01*
X0234389Y0055252D02*
X0236324Y0058155D01*
X0237336Y0058155D02*
X0238787Y0058155D01*
X0239271Y0057671D01*
X0239271Y0055736D01*
X0238787Y0055252D01*
X0237336Y0055252D01*
X0237336Y0058155D01*
X0234389Y0058155D02*
X0236324Y0055252D01*
X0173402Y0219082D02*
X0171467Y0219082D01*
X0173402Y0221017D01*
X0173402Y0221501D01*
X0172918Y0221985D01*
X0171951Y0221985D01*
X0171467Y0221501D01*
X0071945Y0211816D02*
X0071945Y0209881D01*
X0071462Y0209397D01*
X0070494Y0209397D01*
X0070010Y0209881D01*
X0070494Y0210848D02*
X0071945Y0210848D01*
X0071945Y0211816D02*
X0071462Y0212300D01*
X0070494Y0212300D01*
X0070010Y0211816D01*
X0070010Y0211332D01*
X0070494Y0210848D01*
D17*
X0057402Y0019900D03*
X0085802Y0019900D03*
X0085302Y0185900D03*
X0056902Y0185900D03*
D18*
X0110102Y0174600D03*
X0110102Y0146200D03*
D19*
X0046602Y0118900D02*
X0046602Y0103900D01*
D20*
X0099102Y0078900D02*
X0099102Y0051900D01*
X0099104Y0051730D01*
X0099110Y0051559D01*
X0099121Y0051389D01*
X0099135Y0051219D01*
X0099154Y0051050D01*
X0099177Y0050881D01*
X0099203Y0050712D01*
X0099234Y0050545D01*
X0099269Y0050378D01*
X0099309Y0050212D01*
X0099352Y0050047D01*
X0099399Y0049883D01*
X0099450Y0049721D01*
X0099505Y0049559D01*
X0099564Y0049399D01*
X0099627Y0049241D01*
X0099693Y0049084D01*
X0099764Y0048929D01*
X0099838Y0048775D01*
X0099916Y0048624D01*
X0099998Y0048474D01*
X0100083Y0048326D01*
X0100172Y0048181D01*
X0100264Y0048038D01*
X0100360Y0047897D01*
X0100459Y0047758D01*
X0100562Y0047622D01*
X0100667Y0047488D01*
X0100776Y0047357D01*
X0100889Y0047229D01*
X0101004Y0047103D01*
X0101122Y0046980D01*
X0101243Y0046861D01*
X0101368Y0046744D01*
X0101495Y0046630D01*
X0101624Y0046519D01*
X0101757Y0046412D01*
X0101892Y0046308D01*
X0102029Y0046207D01*
X0102169Y0046109D01*
X0102311Y0046015D01*
X0102455Y0045925D01*
X0102602Y0045838D01*
X0102751Y0045754D01*
X0102901Y0045675D01*
X0103054Y0045599D01*
X0103208Y0045526D01*
X0103364Y0045458D01*
X0103522Y0045393D01*
X0103681Y0045332D01*
X0103842Y0045275D01*
X0104004Y0045222D01*
X0104167Y0045173D01*
X0104331Y0045128D01*
X0104497Y0045087D01*
X0104663Y0045049D01*
X0104831Y0045016D01*
X0104999Y0044988D01*
X0105167Y0044963D01*
X0105336Y0044942D01*
X0105506Y0044925D01*
X0105676Y0044913D01*
X0105846Y0044905D01*
X0106017Y0044901D01*
X0106187Y0044901D01*
X0106358Y0044905D01*
X0106528Y0044913D01*
X0106698Y0044925D01*
X0106868Y0044942D01*
X0107037Y0044963D01*
X0107205Y0044988D01*
X0107373Y0045016D01*
X0107541Y0045049D01*
X0107707Y0045087D01*
X0107873Y0045128D01*
X0108037Y0045173D01*
X0108200Y0045222D01*
X0108362Y0045275D01*
X0108523Y0045332D01*
X0108682Y0045393D01*
X0108840Y0045458D01*
X0108996Y0045526D01*
X0109150Y0045599D01*
X0109303Y0045675D01*
X0109453Y0045754D01*
X0109602Y0045838D01*
X0109749Y0045925D01*
X0109893Y0046015D01*
X0110035Y0046109D01*
X0110175Y0046207D01*
X0110312Y0046308D01*
X0110447Y0046412D01*
X0110580Y0046519D01*
X0110709Y0046630D01*
X0110836Y0046744D01*
X0110961Y0046861D01*
X0111082Y0046980D01*
X0111200Y0047103D01*
X0111315Y0047229D01*
X0111428Y0047357D01*
X0111537Y0047488D01*
X0111642Y0047622D01*
X0111745Y0047758D01*
X0111844Y0047897D01*
X0111940Y0048038D01*
X0112032Y0048181D01*
X0112121Y0048326D01*
X0112206Y0048474D01*
X0112288Y0048624D01*
X0112366Y0048775D01*
X0112440Y0048929D01*
X0112511Y0049084D01*
X0112577Y0049241D01*
X0112640Y0049399D01*
X0112699Y0049559D01*
X0112754Y0049721D01*
X0112805Y0049883D01*
X0112852Y0050047D01*
X0112895Y0050212D01*
X0112935Y0050378D01*
X0112970Y0050545D01*
X0113001Y0050712D01*
X0113027Y0050881D01*
X0113050Y0051050D01*
X0113069Y0051219D01*
X0113083Y0051389D01*
X0113094Y0051559D01*
X0113100Y0051730D01*
X0113102Y0051900D01*
X0113102Y0078900D01*
X0113100Y0079070D01*
X0113094Y0079241D01*
X0113083Y0079411D01*
X0113069Y0079581D01*
X0113050Y0079750D01*
X0113027Y0079919D01*
X0113001Y0080088D01*
X0112970Y0080255D01*
X0112935Y0080422D01*
X0112895Y0080588D01*
X0112852Y0080753D01*
X0112805Y0080917D01*
X0112754Y0081079D01*
X0112699Y0081241D01*
X0112640Y0081401D01*
X0112577Y0081559D01*
X0112511Y0081716D01*
X0112440Y0081871D01*
X0112366Y0082025D01*
X0112288Y0082176D01*
X0112206Y0082326D01*
X0112121Y0082474D01*
X0112032Y0082619D01*
X0111940Y0082762D01*
X0111844Y0082903D01*
X0111745Y0083042D01*
X0111642Y0083178D01*
X0111537Y0083312D01*
X0111428Y0083443D01*
X0111315Y0083571D01*
X0111200Y0083697D01*
X0111082Y0083820D01*
X0110961Y0083939D01*
X0110836Y0084056D01*
X0110709Y0084170D01*
X0110580Y0084281D01*
X0110447Y0084388D01*
X0110312Y0084492D01*
X0110175Y0084593D01*
X0110035Y0084691D01*
X0109893Y0084785D01*
X0109749Y0084875D01*
X0109602Y0084962D01*
X0109453Y0085046D01*
X0109303Y0085125D01*
X0109150Y0085201D01*
X0108996Y0085274D01*
X0108840Y0085342D01*
X0108682Y0085407D01*
X0108523Y0085468D01*
X0108362Y0085525D01*
X0108200Y0085578D01*
X0108037Y0085627D01*
X0107873Y0085672D01*
X0107707Y0085713D01*
X0107541Y0085751D01*
X0107373Y0085784D01*
X0107205Y0085812D01*
X0107037Y0085837D01*
X0106868Y0085858D01*
X0106698Y0085875D01*
X0106528Y0085887D01*
X0106358Y0085895D01*
X0106187Y0085899D01*
X0106017Y0085899D01*
X0105846Y0085895D01*
X0105676Y0085887D01*
X0105506Y0085875D01*
X0105336Y0085858D01*
X0105167Y0085837D01*
X0104999Y0085812D01*
X0104831Y0085784D01*
X0104663Y0085751D01*
X0104497Y0085713D01*
X0104331Y0085672D01*
X0104167Y0085627D01*
X0104004Y0085578D01*
X0103842Y0085525D01*
X0103681Y0085468D01*
X0103522Y0085407D01*
X0103364Y0085342D01*
X0103208Y0085274D01*
X0103054Y0085201D01*
X0102901Y0085125D01*
X0102751Y0085046D01*
X0102602Y0084962D01*
X0102455Y0084875D01*
X0102311Y0084785D01*
X0102169Y0084691D01*
X0102029Y0084593D01*
X0101892Y0084492D01*
X0101757Y0084388D01*
X0101624Y0084281D01*
X0101495Y0084170D01*
X0101368Y0084056D01*
X0101243Y0083939D01*
X0101122Y0083820D01*
X0101004Y0083697D01*
X0100889Y0083571D01*
X0100776Y0083443D01*
X0100667Y0083312D01*
X0100562Y0083178D01*
X0100459Y0083042D01*
X0100360Y0082903D01*
X0100264Y0082762D01*
X0100172Y0082619D01*
X0100083Y0082474D01*
X0099998Y0082326D01*
X0099916Y0082176D01*
X0099838Y0082025D01*
X0099764Y0081871D01*
X0099693Y0081716D01*
X0099627Y0081559D01*
X0099564Y0081401D01*
X0099505Y0081241D01*
X0099450Y0081079D01*
X0099399Y0080917D01*
X0099352Y0080753D01*
X0099309Y0080588D01*
X0099269Y0080422D01*
X0099234Y0080255D01*
X0099203Y0080088D01*
X0099177Y0079919D01*
X0099154Y0079750D01*
X0099135Y0079581D01*
X0099121Y0079411D01*
X0099110Y0079241D01*
X0099104Y0079070D01*
X0099102Y0078900D01*
M02*
