G75*
%MOIN*%
%OFA0B0*%
%FSLAX25Y25*%
%IPPOS*%
%LPD*%
%AMOC8*
5,1,8,0,0,1.08239X$1,22.5*
%
%ADD10C,0.00800*%
%ADD11C,0.00000*%
%ADD12OC8,0.04362*%
%ADD13C,0.05200*%
%ADD14C,0.05150*%
%ADD15C,0.05600*%
%ADD16C,0.06000*%
%ADD17OC8,0.04756*%
%ADD18R,0.05543X0.05543*%
%ADD19OC8,0.05200*%
%ADD20C,0.03969*%
%ADD21R,0.07874X0.07874*%
%ADD22C,0.05000*%
%ADD23C,0.01600*%
%ADD24R,0.03175X0.03175*%
D10*
X0035602Y0001400D02*
X0289913Y0001400D01*
X0289913Y0285400D01*
X0035602Y0285400D01*
X0035602Y0001400D01*
D11*
X0262476Y0141152D02*
X0262478Y0141277D01*
X0262484Y0141402D01*
X0262494Y0141526D01*
X0262508Y0141650D01*
X0262525Y0141774D01*
X0262547Y0141897D01*
X0262573Y0142019D01*
X0262602Y0142141D01*
X0262635Y0142261D01*
X0262673Y0142380D01*
X0262713Y0142499D01*
X0262758Y0142615D01*
X0262806Y0142730D01*
X0262858Y0142844D01*
X0262914Y0142956D01*
X0262973Y0143066D01*
X0263035Y0143174D01*
X0263101Y0143281D01*
X0263170Y0143385D01*
X0263243Y0143486D01*
X0263318Y0143586D01*
X0263397Y0143683D01*
X0263479Y0143777D01*
X0263564Y0143869D01*
X0263651Y0143958D01*
X0263742Y0144044D01*
X0263835Y0144127D01*
X0263931Y0144208D01*
X0264029Y0144285D01*
X0264129Y0144359D01*
X0264232Y0144430D01*
X0264337Y0144497D01*
X0264445Y0144562D01*
X0264554Y0144622D01*
X0264665Y0144680D01*
X0264778Y0144733D01*
X0264892Y0144783D01*
X0265008Y0144830D01*
X0265125Y0144872D01*
X0265244Y0144911D01*
X0265364Y0144947D01*
X0265485Y0144978D01*
X0265607Y0145006D01*
X0265729Y0145029D01*
X0265853Y0145049D01*
X0265977Y0145065D01*
X0266101Y0145077D01*
X0266226Y0145085D01*
X0266351Y0145089D01*
X0266475Y0145089D01*
X0266600Y0145085D01*
X0266725Y0145077D01*
X0266849Y0145065D01*
X0266973Y0145049D01*
X0267097Y0145029D01*
X0267219Y0145006D01*
X0267341Y0144978D01*
X0267462Y0144947D01*
X0267582Y0144911D01*
X0267701Y0144872D01*
X0267818Y0144830D01*
X0267934Y0144783D01*
X0268048Y0144733D01*
X0268161Y0144680D01*
X0268272Y0144622D01*
X0268382Y0144562D01*
X0268489Y0144497D01*
X0268594Y0144430D01*
X0268697Y0144359D01*
X0268797Y0144285D01*
X0268895Y0144208D01*
X0268991Y0144127D01*
X0269084Y0144044D01*
X0269175Y0143958D01*
X0269262Y0143869D01*
X0269347Y0143777D01*
X0269429Y0143683D01*
X0269508Y0143586D01*
X0269583Y0143486D01*
X0269656Y0143385D01*
X0269725Y0143281D01*
X0269791Y0143174D01*
X0269853Y0143066D01*
X0269912Y0142956D01*
X0269968Y0142844D01*
X0270020Y0142730D01*
X0270068Y0142615D01*
X0270113Y0142499D01*
X0270153Y0142380D01*
X0270191Y0142261D01*
X0270224Y0142141D01*
X0270253Y0142019D01*
X0270279Y0141897D01*
X0270301Y0141774D01*
X0270318Y0141650D01*
X0270332Y0141526D01*
X0270342Y0141402D01*
X0270348Y0141277D01*
X0270350Y0141152D01*
X0270348Y0141027D01*
X0270342Y0140902D01*
X0270332Y0140778D01*
X0270318Y0140654D01*
X0270301Y0140530D01*
X0270279Y0140407D01*
X0270253Y0140285D01*
X0270224Y0140163D01*
X0270191Y0140043D01*
X0270153Y0139924D01*
X0270113Y0139805D01*
X0270068Y0139689D01*
X0270020Y0139574D01*
X0269968Y0139460D01*
X0269912Y0139348D01*
X0269853Y0139238D01*
X0269791Y0139130D01*
X0269725Y0139023D01*
X0269656Y0138919D01*
X0269583Y0138818D01*
X0269508Y0138718D01*
X0269429Y0138621D01*
X0269347Y0138527D01*
X0269262Y0138435D01*
X0269175Y0138346D01*
X0269084Y0138260D01*
X0268991Y0138177D01*
X0268895Y0138096D01*
X0268797Y0138019D01*
X0268697Y0137945D01*
X0268594Y0137874D01*
X0268489Y0137807D01*
X0268381Y0137742D01*
X0268272Y0137682D01*
X0268161Y0137624D01*
X0268048Y0137571D01*
X0267934Y0137521D01*
X0267818Y0137474D01*
X0267701Y0137432D01*
X0267582Y0137393D01*
X0267462Y0137357D01*
X0267341Y0137326D01*
X0267219Y0137298D01*
X0267097Y0137275D01*
X0266973Y0137255D01*
X0266849Y0137239D01*
X0266725Y0137227D01*
X0266600Y0137219D01*
X0266475Y0137215D01*
X0266351Y0137215D01*
X0266226Y0137219D01*
X0266101Y0137227D01*
X0265977Y0137239D01*
X0265853Y0137255D01*
X0265729Y0137275D01*
X0265607Y0137298D01*
X0265485Y0137326D01*
X0265364Y0137357D01*
X0265244Y0137393D01*
X0265125Y0137432D01*
X0265008Y0137474D01*
X0264892Y0137521D01*
X0264778Y0137571D01*
X0264665Y0137624D01*
X0264554Y0137682D01*
X0264444Y0137742D01*
X0264337Y0137807D01*
X0264232Y0137874D01*
X0264129Y0137945D01*
X0264029Y0138019D01*
X0263931Y0138096D01*
X0263835Y0138177D01*
X0263742Y0138260D01*
X0263651Y0138346D01*
X0263564Y0138435D01*
X0263479Y0138527D01*
X0263397Y0138621D01*
X0263318Y0138718D01*
X0263243Y0138818D01*
X0263170Y0138919D01*
X0263101Y0139023D01*
X0263035Y0139130D01*
X0262973Y0139238D01*
X0262914Y0139348D01*
X0262858Y0139460D01*
X0262806Y0139574D01*
X0262758Y0139689D01*
X0262713Y0139805D01*
X0262673Y0139924D01*
X0262635Y0140043D01*
X0262602Y0140163D01*
X0262573Y0140285D01*
X0262547Y0140407D01*
X0262525Y0140530D01*
X0262508Y0140654D01*
X0262494Y0140778D01*
X0262484Y0140902D01*
X0262478Y0141027D01*
X0262476Y0141152D01*
X0165818Y0245518D02*
X0165820Y0245678D01*
X0165826Y0245837D01*
X0165836Y0245996D01*
X0165850Y0246155D01*
X0165868Y0246314D01*
X0165889Y0246472D01*
X0165915Y0246629D01*
X0165945Y0246786D01*
X0165978Y0246942D01*
X0166016Y0247097D01*
X0166057Y0247251D01*
X0166102Y0247404D01*
X0166151Y0247556D01*
X0166204Y0247706D01*
X0166260Y0247855D01*
X0166320Y0248003D01*
X0166384Y0248149D01*
X0166452Y0248294D01*
X0166523Y0248437D01*
X0166597Y0248578D01*
X0166675Y0248717D01*
X0166757Y0248854D01*
X0166842Y0248989D01*
X0166930Y0249122D01*
X0167021Y0249253D01*
X0167116Y0249381D01*
X0167214Y0249507D01*
X0167315Y0249631D01*
X0167419Y0249751D01*
X0167526Y0249870D01*
X0167636Y0249985D01*
X0167749Y0250098D01*
X0167864Y0250208D01*
X0167983Y0250315D01*
X0168103Y0250419D01*
X0168227Y0250520D01*
X0168353Y0250618D01*
X0168481Y0250713D01*
X0168612Y0250804D01*
X0168745Y0250892D01*
X0168880Y0250977D01*
X0169017Y0251059D01*
X0169156Y0251137D01*
X0169297Y0251211D01*
X0169440Y0251282D01*
X0169585Y0251350D01*
X0169731Y0251414D01*
X0169879Y0251474D01*
X0170028Y0251530D01*
X0170178Y0251583D01*
X0170330Y0251632D01*
X0170483Y0251677D01*
X0170637Y0251718D01*
X0170792Y0251756D01*
X0170948Y0251789D01*
X0171105Y0251819D01*
X0171262Y0251845D01*
X0171420Y0251866D01*
X0171579Y0251884D01*
X0171738Y0251898D01*
X0171897Y0251908D01*
X0172056Y0251914D01*
X0172216Y0251916D01*
X0172376Y0251914D01*
X0172535Y0251908D01*
X0172694Y0251898D01*
X0172853Y0251884D01*
X0173012Y0251866D01*
X0173170Y0251845D01*
X0173327Y0251819D01*
X0173484Y0251789D01*
X0173640Y0251756D01*
X0173795Y0251718D01*
X0173949Y0251677D01*
X0174102Y0251632D01*
X0174254Y0251583D01*
X0174404Y0251530D01*
X0174553Y0251474D01*
X0174701Y0251414D01*
X0174847Y0251350D01*
X0174992Y0251282D01*
X0175135Y0251211D01*
X0175276Y0251137D01*
X0175415Y0251059D01*
X0175552Y0250977D01*
X0175687Y0250892D01*
X0175820Y0250804D01*
X0175951Y0250713D01*
X0176079Y0250618D01*
X0176205Y0250520D01*
X0176329Y0250419D01*
X0176449Y0250315D01*
X0176568Y0250208D01*
X0176683Y0250098D01*
X0176796Y0249985D01*
X0176906Y0249870D01*
X0177013Y0249751D01*
X0177117Y0249631D01*
X0177218Y0249507D01*
X0177316Y0249381D01*
X0177411Y0249253D01*
X0177502Y0249122D01*
X0177590Y0248989D01*
X0177675Y0248854D01*
X0177757Y0248717D01*
X0177835Y0248578D01*
X0177909Y0248437D01*
X0177980Y0248294D01*
X0178048Y0248149D01*
X0178112Y0248003D01*
X0178172Y0247855D01*
X0178228Y0247706D01*
X0178281Y0247556D01*
X0178330Y0247404D01*
X0178375Y0247251D01*
X0178416Y0247097D01*
X0178454Y0246942D01*
X0178487Y0246786D01*
X0178517Y0246629D01*
X0178543Y0246472D01*
X0178564Y0246314D01*
X0178582Y0246155D01*
X0178596Y0245996D01*
X0178606Y0245837D01*
X0178612Y0245678D01*
X0178614Y0245518D01*
X0178612Y0245358D01*
X0178606Y0245199D01*
X0178596Y0245040D01*
X0178582Y0244881D01*
X0178564Y0244722D01*
X0178543Y0244564D01*
X0178517Y0244407D01*
X0178487Y0244250D01*
X0178454Y0244094D01*
X0178416Y0243939D01*
X0178375Y0243785D01*
X0178330Y0243632D01*
X0178281Y0243480D01*
X0178228Y0243330D01*
X0178172Y0243181D01*
X0178112Y0243033D01*
X0178048Y0242887D01*
X0177980Y0242742D01*
X0177909Y0242599D01*
X0177835Y0242458D01*
X0177757Y0242319D01*
X0177675Y0242182D01*
X0177590Y0242047D01*
X0177502Y0241914D01*
X0177411Y0241783D01*
X0177316Y0241655D01*
X0177218Y0241529D01*
X0177117Y0241405D01*
X0177013Y0241285D01*
X0176906Y0241166D01*
X0176796Y0241051D01*
X0176683Y0240938D01*
X0176568Y0240828D01*
X0176449Y0240721D01*
X0176329Y0240617D01*
X0176205Y0240516D01*
X0176079Y0240418D01*
X0175951Y0240323D01*
X0175820Y0240232D01*
X0175687Y0240144D01*
X0175552Y0240059D01*
X0175415Y0239977D01*
X0175276Y0239899D01*
X0175135Y0239825D01*
X0174992Y0239754D01*
X0174847Y0239686D01*
X0174701Y0239622D01*
X0174553Y0239562D01*
X0174404Y0239506D01*
X0174254Y0239453D01*
X0174102Y0239404D01*
X0173949Y0239359D01*
X0173795Y0239318D01*
X0173640Y0239280D01*
X0173484Y0239247D01*
X0173327Y0239217D01*
X0173170Y0239191D01*
X0173012Y0239170D01*
X0172853Y0239152D01*
X0172694Y0239138D01*
X0172535Y0239128D01*
X0172376Y0239122D01*
X0172216Y0239120D01*
X0172056Y0239122D01*
X0171897Y0239128D01*
X0171738Y0239138D01*
X0171579Y0239152D01*
X0171420Y0239170D01*
X0171262Y0239191D01*
X0171105Y0239217D01*
X0170948Y0239247D01*
X0170792Y0239280D01*
X0170637Y0239318D01*
X0170483Y0239359D01*
X0170330Y0239404D01*
X0170178Y0239453D01*
X0170028Y0239506D01*
X0169879Y0239562D01*
X0169731Y0239622D01*
X0169585Y0239686D01*
X0169440Y0239754D01*
X0169297Y0239825D01*
X0169156Y0239899D01*
X0169017Y0239977D01*
X0168880Y0240059D01*
X0168745Y0240144D01*
X0168612Y0240232D01*
X0168481Y0240323D01*
X0168353Y0240418D01*
X0168227Y0240516D01*
X0168103Y0240617D01*
X0167983Y0240721D01*
X0167864Y0240828D01*
X0167749Y0240938D01*
X0167636Y0241051D01*
X0167526Y0241166D01*
X0167419Y0241285D01*
X0167315Y0241405D01*
X0167214Y0241529D01*
X0167116Y0241655D01*
X0167021Y0241783D01*
X0166930Y0241914D01*
X0166842Y0242047D01*
X0166757Y0242182D01*
X0166675Y0242319D01*
X0166597Y0242458D01*
X0166523Y0242599D01*
X0166452Y0242742D01*
X0166384Y0242887D01*
X0166320Y0243033D01*
X0166260Y0243181D01*
X0166204Y0243330D01*
X0166151Y0243480D01*
X0166102Y0243632D01*
X0166057Y0243785D01*
X0166016Y0243939D01*
X0165978Y0244094D01*
X0165945Y0244250D01*
X0165915Y0244407D01*
X0165889Y0244564D01*
X0165868Y0244722D01*
X0165850Y0244881D01*
X0165836Y0245040D01*
X0165826Y0245199D01*
X0165820Y0245358D01*
X0165818Y0245518D01*
X0179421Y0257526D02*
X0179423Y0257641D01*
X0179429Y0257757D01*
X0179439Y0257872D01*
X0179453Y0257987D01*
X0179471Y0258101D01*
X0179493Y0258214D01*
X0179518Y0258327D01*
X0179548Y0258438D01*
X0179581Y0258549D01*
X0179618Y0258658D01*
X0179659Y0258766D01*
X0179704Y0258873D01*
X0179752Y0258978D01*
X0179804Y0259081D01*
X0179860Y0259182D01*
X0179919Y0259282D01*
X0179981Y0259379D01*
X0180047Y0259474D01*
X0180115Y0259567D01*
X0180187Y0259657D01*
X0180262Y0259745D01*
X0180341Y0259830D01*
X0180422Y0259912D01*
X0180505Y0259992D01*
X0180592Y0260068D01*
X0180681Y0260142D01*
X0180772Y0260212D01*
X0180866Y0260280D01*
X0180962Y0260344D01*
X0181061Y0260404D01*
X0181161Y0260461D01*
X0181263Y0260515D01*
X0181367Y0260565D01*
X0181473Y0260612D01*
X0181580Y0260655D01*
X0181689Y0260694D01*
X0181799Y0260729D01*
X0181910Y0260760D01*
X0182022Y0260788D01*
X0182135Y0260812D01*
X0182249Y0260832D01*
X0182364Y0260848D01*
X0182479Y0260860D01*
X0182594Y0260868D01*
X0182709Y0260872D01*
X0182825Y0260872D01*
X0182940Y0260868D01*
X0183055Y0260860D01*
X0183170Y0260848D01*
X0183285Y0260832D01*
X0183399Y0260812D01*
X0183512Y0260788D01*
X0183624Y0260760D01*
X0183735Y0260729D01*
X0183845Y0260694D01*
X0183954Y0260655D01*
X0184061Y0260612D01*
X0184167Y0260565D01*
X0184271Y0260515D01*
X0184373Y0260461D01*
X0184473Y0260404D01*
X0184572Y0260344D01*
X0184668Y0260280D01*
X0184762Y0260212D01*
X0184853Y0260142D01*
X0184942Y0260068D01*
X0185029Y0259992D01*
X0185112Y0259912D01*
X0185193Y0259830D01*
X0185272Y0259745D01*
X0185347Y0259657D01*
X0185419Y0259567D01*
X0185487Y0259474D01*
X0185553Y0259379D01*
X0185615Y0259282D01*
X0185674Y0259182D01*
X0185730Y0259081D01*
X0185782Y0258978D01*
X0185830Y0258873D01*
X0185875Y0258766D01*
X0185916Y0258658D01*
X0185953Y0258549D01*
X0185986Y0258438D01*
X0186016Y0258327D01*
X0186041Y0258214D01*
X0186063Y0258101D01*
X0186081Y0257987D01*
X0186095Y0257872D01*
X0186105Y0257757D01*
X0186111Y0257641D01*
X0186113Y0257526D01*
X0186111Y0257411D01*
X0186105Y0257295D01*
X0186095Y0257180D01*
X0186081Y0257065D01*
X0186063Y0256951D01*
X0186041Y0256838D01*
X0186016Y0256725D01*
X0185986Y0256614D01*
X0185953Y0256503D01*
X0185916Y0256394D01*
X0185875Y0256286D01*
X0185830Y0256179D01*
X0185782Y0256074D01*
X0185730Y0255971D01*
X0185674Y0255870D01*
X0185615Y0255770D01*
X0185553Y0255673D01*
X0185487Y0255578D01*
X0185419Y0255485D01*
X0185347Y0255395D01*
X0185272Y0255307D01*
X0185193Y0255222D01*
X0185112Y0255140D01*
X0185029Y0255060D01*
X0184942Y0254984D01*
X0184853Y0254910D01*
X0184762Y0254840D01*
X0184668Y0254772D01*
X0184572Y0254708D01*
X0184473Y0254648D01*
X0184373Y0254591D01*
X0184271Y0254537D01*
X0184167Y0254487D01*
X0184061Y0254440D01*
X0183954Y0254397D01*
X0183845Y0254358D01*
X0183735Y0254323D01*
X0183624Y0254292D01*
X0183512Y0254264D01*
X0183399Y0254240D01*
X0183285Y0254220D01*
X0183170Y0254204D01*
X0183055Y0254192D01*
X0182940Y0254184D01*
X0182825Y0254180D01*
X0182709Y0254180D01*
X0182594Y0254184D01*
X0182479Y0254192D01*
X0182364Y0254204D01*
X0182249Y0254220D01*
X0182135Y0254240D01*
X0182022Y0254264D01*
X0181910Y0254292D01*
X0181799Y0254323D01*
X0181689Y0254358D01*
X0181580Y0254397D01*
X0181473Y0254440D01*
X0181367Y0254487D01*
X0181263Y0254537D01*
X0181161Y0254591D01*
X0181061Y0254648D01*
X0180962Y0254708D01*
X0180866Y0254772D01*
X0180772Y0254840D01*
X0180681Y0254910D01*
X0180592Y0254984D01*
X0180505Y0255060D01*
X0180422Y0255140D01*
X0180341Y0255222D01*
X0180262Y0255307D01*
X0180187Y0255395D01*
X0180115Y0255485D01*
X0180047Y0255578D01*
X0179981Y0255673D01*
X0179919Y0255770D01*
X0179860Y0255870D01*
X0179804Y0255971D01*
X0179752Y0256074D01*
X0179704Y0256179D01*
X0179659Y0256286D01*
X0179618Y0256394D01*
X0179581Y0256503D01*
X0179548Y0256614D01*
X0179518Y0256725D01*
X0179493Y0256838D01*
X0179471Y0256951D01*
X0179453Y0257065D01*
X0179439Y0257180D01*
X0179429Y0257295D01*
X0179423Y0257411D01*
X0179421Y0257526D01*
X0264976Y0258652D02*
X0264978Y0258777D01*
X0264984Y0258902D01*
X0264994Y0259026D01*
X0265008Y0259150D01*
X0265025Y0259274D01*
X0265047Y0259397D01*
X0265073Y0259519D01*
X0265102Y0259641D01*
X0265135Y0259761D01*
X0265173Y0259880D01*
X0265213Y0259999D01*
X0265258Y0260115D01*
X0265306Y0260230D01*
X0265358Y0260344D01*
X0265414Y0260456D01*
X0265473Y0260566D01*
X0265535Y0260674D01*
X0265601Y0260781D01*
X0265670Y0260885D01*
X0265743Y0260986D01*
X0265818Y0261086D01*
X0265897Y0261183D01*
X0265979Y0261277D01*
X0266064Y0261369D01*
X0266151Y0261458D01*
X0266242Y0261544D01*
X0266335Y0261627D01*
X0266431Y0261708D01*
X0266529Y0261785D01*
X0266629Y0261859D01*
X0266732Y0261930D01*
X0266837Y0261997D01*
X0266945Y0262062D01*
X0267054Y0262122D01*
X0267165Y0262180D01*
X0267278Y0262233D01*
X0267392Y0262283D01*
X0267508Y0262330D01*
X0267625Y0262372D01*
X0267744Y0262411D01*
X0267864Y0262447D01*
X0267985Y0262478D01*
X0268107Y0262506D01*
X0268229Y0262529D01*
X0268353Y0262549D01*
X0268477Y0262565D01*
X0268601Y0262577D01*
X0268726Y0262585D01*
X0268851Y0262589D01*
X0268975Y0262589D01*
X0269100Y0262585D01*
X0269225Y0262577D01*
X0269349Y0262565D01*
X0269473Y0262549D01*
X0269597Y0262529D01*
X0269719Y0262506D01*
X0269841Y0262478D01*
X0269962Y0262447D01*
X0270082Y0262411D01*
X0270201Y0262372D01*
X0270318Y0262330D01*
X0270434Y0262283D01*
X0270548Y0262233D01*
X0270661Y0262180D01*
X0270772Y0262122D01*
X0270882Y0262062D01*
X0270989Y0261997D01*
X0271094Y0261930D01*
X0271197Y0261859D01*
X0271297Y0261785D01*
X0271395Y0261708D01*
X0271491Y0261627D01*
X0271584Y0261544D01*
X0271675Y0261458D01*
X0271762Y0261369D01*
X0271847Y0261277D01*
X0271929Y0261183D01*
X0272008Y0261086D01*
X0272083Y0260986D01*
X0272156Y0260885D01*
X0272225Y0260781D01*
X0272291Y0260674D01*
X0272353Y0260566D01*
X0272412Y0260456D01*
X0272468Y0260344D01*
X0272520Y0260230D01*
X0272568Y0260115D01*
X0272613Y0259999D01*
X0272653Y0259880D01*
X0272691Y0259761D01*
X0272724Y0259641D01*
X0272753Y0259519D01*
X0272779Y0259397D01*
X0272801Y0259274D01*
X0272818Y0259150D01*
X0272832Y0259026D01*
X0272842Y0258902D01*
X0272848Y0258777D01*
X0272850Y0258652D01*
X0272848Y0258527D01*
X0272842Y0258402D01*
X0272832Y0258278D01*
X0272818Y0258154D01*
X0272801Y0258030D01*
X0272779Y0257907D01*
X0272753Y0257785D01*
X0272724Y0257663D01*
X0272691Y0257543D01*
X0272653Y0257424D01*
X0272613Y0257305D01*
X0272568Y0257189D01*
X0272520Y0257074D01*
X0272468Y0256960D01*
X0272412Y0256848D01*
X0272353Y0256738D01*
X0272291Y0256630D01*
X0272225Y0256523D01*
X0272156Y0256419D01*
X0272083Y0256318D01*
X0272008Y0256218D01*
X0271929Y0256121D01*
X0271847Y0256027D01*
X0271762Y0255935D01*
X0271675Y0255846D01*
X0271584Y0255760D01*
X0271491Y0255677D01*
X0271395Y0255596D01*
X0271297Y0255519D01*
X0271197Y0255445D01*
X0271094Y0255374D01*
X0270989Y0255307D01*
X0270881Y0255242D01*
X0270772Y0255182D01*
X0270661Y0255124D01*
X0270548Y0255071D01*
X0270434Y0255021D01*
X0270318Y0254974D01*
X0270201Y0254932D01*
X0270082Y0254893D01*
X0269962Y0254857D01*
X0269841Y0254826D01*
X0269719Y0254798D01*
X0269597Y0254775D01*
X0269473Y0254755D01*
X0269349Y0254739D01*
X0269225Y0254727D01*
X0269100Y0254719D01*
X0268975Y0254715D01*
X0268851Y0254715D01*
X0268726Y0254719D01*
X0268601Y0254727D01*
X0268477Y0254739D01*
X0268353Y0254755D01*
X0268229Y0254775D01*
X0268107Y0254798D01*
X0267985Y0254826D01*
X0267864Y0254857D01*
X0267744Y0254893D01*
X0267625Y0254932D01*
X0267508Y0254974D01*
X0267392Y0255021D01*
X0267278Y0255071D01*
X0267165Y0255124D01*
X0267054Y0255182D01*
X0266944Y0255242D01*
X0266837Y0255307D01*
X0266732Y0255374D01*
X0266629Y0255445D01*
X0266529Y0255519D01*
X0266431Y0255596D01*
X0266335Y0255677D01*
X0266242Y0255760D01*
X0266151Y0255846D01*
X0266064Y0255935D01*
X0265979Y0256027D01*
X0265897Y0256121D01*
X0265818Y0256218D01*
X0265743Y0256318D01*
X0265670Y0256419D01*
X0265601Y0256523D01*
X0265535Y0256630D01*
X0265473Y0256738D01*
X0265414Y0256848D01*
X0265358Y0256960D01*
X0265306Y0257074D01*
X0265258Y0257189D01*
X0265213Y0257305D01*
X0265173Y0257424D01*
X0265135Y0257543D01*
X0265102Y0257663D01*
X0265073Y0257785D01*
X0265047Y0257907D01*
X0265025Y0258030D01*
X0265008Y0258154D01*
X0264994Y0258278D01*
X0264984Y0258402D01*
X0264978Y0258527D01*
X0264976Y0258652D01*
X0065818Y0245518D02*
X0065820Y0245678D01*
X0065826Y0245837D01*
X0065836Y0245996D01*
X0065850Y0246155D01*
X0065868Y0246314D01*
X0065889Y0246472D01*
X0065915Y0246629D01*
X0065945Y0246786D01*
X0065978Y0246942D01*
X0066016Y0247097D01*
X0066057Y0247251D01*
X0066102Y0247404D01*
X0066151Y0247556D01*
X0066204Y0247706D01*
X0066260Y0247855D01*
X0066320Y0248003D01*
X0066384Y0248149D01*
X0066452Y0248294D01*
X0066523Y0248437D01*
X0066597Y0248578D01*
X0066675Y0248717D01*
X0066757Y0248854D01*
X0066842Y0248989D01*
X0066930Y0249122D01*
X0067021Y0249253D01*
X0067116Y0249381D01*
X0067214Y0249507D01*
X0067315Y0249631D01*
X0067419Y0249751D01*
X0067526Y0249870D01*
X0067636Y0249985D01*
X0067749Y0250098D01*
X0067864Y0250208D01*
X0067983Y0250315D01*
X0068103Y0250419D01*
X0068227Y0250520D01*
X0068353Y0250618D01*
X0068481Y0250713D01*
X0068612Y0250804D01*
X0068745Y0250892D01*
X0068880Y0250977D01*
X0069017Y0251059D01*
X0069156Y0251137D01*
X0069297Y0251211D01*
X0069440Y0251282D01*
X0069585Y0251350D01*
X0069731Y0251414D01*
X0069879Y0251474D01*
X0070028Y0251530D01*
X0070178Y0251583D01*
X0070330Y0251632D01*
X0070483Y0251677D01*
X0070637Y0251718D01*
X0070792Y0251756D01*
X0070948Y0251789D01*
X0071105Y0251819D01*
X0071262Y0251845D01*
X0071420Y0251866D01*
X0071579Y0251884D01*
X0071738Y0251898D01*
X0071897Y0251908D01*
X0072056Y0251914D01*
X0072216Y0251916D01*
X0072376Y0251914D01*
X0072535Y0251908D01*
X0072694Y0251898D01*
X0072853Y0251884D01*
X0073012Y0251866D01*
X0073170Y0251845D01*
X0073327Y0251819D01*
X0073484Y0251789D01*
X0073640Y0251756D01*
X0073795Y0251718D01*
X0073949Y0251677D01*
X0074102Y0251632D01*
X0074254Y0251583D01*
X0074404Y0251530D01*
X0074553Y0251474D01*
X0074701Y0251414D01*
X0074847Y0251350D01*
X0074992Y0251282D01*
X0075135Y0251211D01*
X0075276Y0251137D01*
X0075415Y0251059D01*
X0075552Y0250977D01*
X0075687Y0250892D01*
X0075820Y0250804D01*
X0075951Y0250713D01*
X0076079Y0250618D01*
X0076205Y0250520D01*
X0076329Y0250419D01*
X0076449Y0250315D01*
X0076568Y0250208D01*
X0076683Y0250098D01*
X0076796Y0249985D01*
X0076906Y0249870D01*
X0077013Y0249751D01*
X0077117Y0249631D01*
X0077218Y0249507D01*
X0077316Y0249381D01*
X0077411Y0249253D01*
X0077502Y0249122D01*
X0077590Y0248989D01*
X0077675Y0248854D01*
X0077757Y0248717D01*
X0077835Y0248578D01*
X0077909Y0248437D01*
X0077980Y0248294D01*
X0078048Y0248149D01*
X0078112Y0248003D01*
X0078172Y0247855D01*
X0078228Y0247706D01*
X0078281Y0247556D01*
X0078330Y0247404D01*
X0078375Y0247251D01*
X0078416Y0247097D01*
X0078454Y0246942D01*
X0078487Y0246786D01*
X0078517Y0246629D01*
X0078543Y0246472D01*
X0078564Y0246314D01*
X0078582Y0246155D01*
X0078596Y0245996D01*
X0078606Y0245837D01*
X0078612Y0245678D01*
X0078614Y0245518D01*
X0078612Y0245358D01*
X0078606Y0245199D01*
X0078596Y0245040D01*
X0078582Y0244881D01*
X0078564Y0244722D01*
X0078543Y0244564D01*
X0078517Y0244407D01*
X0078487Y0244250D01*
X0078454Y0244094D01*
X0078416Y0243939D01*
X0078375Y0243785D01*
X0078330Y0243632D01*
X0078281Y0243480D01*
X0078228Y0243330D01*
X0078172Y0243181D01*
X0078112Y0243033D01*
X0078048Y0242887D01*
X0077980Y0242742D01*
X0077909Y0242599D01*
X0077835Y0242458D01*
X0077757Y0242319D01*
X0077675Y0242182D01*
X0077590Y0242047D01*
X0077502Y0241914D01*
X0077411Y0241783D01*
X0077316Y0241655D01*
X0077218Y0241529D01*
X0077117Y0241405D01*
X0077013Y0241285D01*
X0076906Y0241166D01*
X0076796Y0241051D01*
X0076683Y0240938D01*
X0076568Y0240828D01*
X0076449Y0240721D01*
X0076329Y0240617D01*
X0076205Y0240516D01*
X0076079Y0240418D01*
X0075951Y0240323D01*
X0075820Y0240232D01*
X0075687Y0240144D01*
X0075552Y0240059D01*
X0075415Y0239977D01*
X0075276Y0239899D01*
X0075135Y0239825D01*
X0074992Y0239754D01*
X0074847Y0239686D01*
X0074701Y0239622D01*
X0074553Y0239562D01*
X0074404Y0239506D01*
X0074254Y0239453D01*
X0074102Y0239404D01*
X0073949Y0239359D01*
X0073795Y0239318D01*
X0073640Y0239280D01*
X0073484Y0239247D01*
X0073327Y0239217D01*
X0073170Y0239191D01*
X0073012Y0239170D01*
X0072853Y0239152D01*
X0072694Y0239138D01*
X0072535Y0239128D01*
X0072376Y0239122D01*
X0072216Y0239120D01*
X0072056Y0239122D01*
X0071897Y0239128D01*
X0071738Y0239138D01*
X0071579Y0239152D01*
X0071420Y0239170D01*
X0071262Y0239191D01*
X0071105Y0239217D01*
X0070948Y0239247D01*
X0070792Y0239280D01*
X0070637Y0239318D01*
X0070483Y0239359D01*
X0070330Y0239404D01*
X0070178Y0239453D01*
X0070028Y0239506D01*
X0069879Y0239562D01*
X0069731Y0239622D01*
X0069585Y0239686D01*
X0069440Y0239754D01*
X0069297Y0239825D01*
X0069156Y0239899D01*
X0069017Y0239977D01*
X0068880Y0240059D01*
X0068745Y0240144D01*
X0068612Y0240232D01*
X0068481Y0240323D01*
X0068353Y0240418D01*
X0068227Y0240516D01*
X0068103Y0240617D01*
X0067983Y0240721D01*
X0067864Y0240828D01*
X0067749Y0240938D01*
X0067636Y0241051D01*
X0067526Y0241166D01*
X0067419Y0241285D01*
X0067315Y0241405D01*
X0067214Y0241529D01*
X0067116Y0241655D01*
X0067021Y0241783D01*
X0066930Y0241914D01*
X0066842Y0242047D01*
X0066757Y0242182D01*
X0066675Y0242319D01*
X0066597Y0242458D01*
X0066523Y0242599D01*
X0066452Y0242742D01*
X0066384Y0242887D01*
X0066320Y0243033D01*
X0066260Y0243181D01*
X0066204Y0243330D01*
X0066151Y0243480D01*
X0066102Y0243632D01*
X0066057Y0243785D01*
X0066016Y0243939D01*
X0065978Y0244094D01*
X0065945Y0244250D01*
X0065915Y0244407D01*
X0065889Y0244564D01*
X0065868Y0244722D01*
X0065850Y0244881D01*
X0065836Y0245040D01*
X0065826Y0245199D01*
X0065820Y0245358D01*
X0065818Y0245518D01*
X0058319Y0257526D02*
X0058321Y0257641D01*
X0058327Y0257757D01*
X0058337Y0257872D01*
X0058351Y0257987D01*
X0058369Y0258101D01*
X0058391Y0258214D01*
X0058416Y0258327D01*
X0058446Y0258438D01*
X0058479Y0258549D01*
X0058516Y0258658D01*
X0058557Y0258766D01*
X0058602Y0258873D01*
X0058650Y0258978D01*
X0058702Y0259081D01*
X0058758Y0259182D01*
X0058817Y0259282D01*
X0058879Y0259379D01*
X0058945Y0259474D01*
X0059013Y0259567D01*
X0059085Y0259657D01*
X0059160Y0259745D01*
X0059239Y0259830D01*
X0059320Y0259912D01*
X0059403Y0259992D01*
X0059490Y0260068D01*
X0059579Y0260142D01*
X0059670Y0260212D01*
X0059764Y0260280D01*
X0059860Y0260344D01*
X0059959Y0260404D01*
X0060059Y0260461D01*
X0060161Y0260515D01*
X0060265Y0260565D01*
X0060371Y0260612D01*
X0060478Y0260655D01*
X0060587Y0260694D01*
X0060697Y0260729D01*
X0060808Y0260760D01*
X0060920Y0260788D01*
X0061033Y0260812D01*
X0061147Y0260832D01*
X0061262Y0260848D01*
X0061377Y0260860D01*
X0061492Y0260868D01*
X0061607Y0260872D01*
X0061723Y0260872D01*
X0061838Y0260868D01*
X0061953Y0260860D01*
X0062068Y0260848D01*
X0062183Y0260832D01*
X0062297Y0260812D01*
X0062410Y0260788D01*
X0062522Y0260760D01*
X0062633Y0260729D01*
X0062743Y0260694D01*
X0062852Y0260655D01*
X0062959Y0260612D01*
X0063065Y0260565D01*
X0063169Y0260515D01*
X0063271Y0260461D01*
X0063371Y0260404D01*
X0063470Y0260344D01*
X0063566Y0260280D01*
X0063660Y0260212D01*
X0063751Y0260142D01*
X0063840Y0260068D01*
X0063927Y0259992D01*
X0064010Y0259912D01*
X0064091Y0259830D01*
X0064170Y0259745D01*
X0064245Y0259657D01*
X0064317Y0259567D01*
X0064385Y0259474D01*
X0064451Y0259379D01*
X0064513Y0259282D01*
X0064572Y0259182D01*
X0064628Y0259081D01*
X0064680Y0258978D01*
X0064728Y0258873D01*
X0064773Y0258766D01*
X0064814Y0258658D01*
X0064851Y0258549D01*
X0064884Y0258438D01*
X0064914Y0258327D01*
X0064939Y0258214D01*
X0064961Y0258101D01*
X0064979Y0257987D01*
X0064993Y0257872D01*
X0065003Y0257757D01*
X0065009Y0257641D01*
X0065011Y0257526D01*
X0065009Y0257411D01*
X0065003Y0257295D01*
X0064993Y0257180D01*
X0064979Y0257065D01*
X0064961Y0256951D01*
X0064939Y0256838D01*
X0064914Y0256725D01*
X0064884Y0256614D01*
X0064851Y0256503D01*
X0064814Y0256394D01*
X0064773Y0256286D01*
X0064728Y0256179D01*
X0064680Y0256074D01*
X0064628Y0255971D01*
X0064572Y0255870D01*
X0064513Y0255770D01*
X0064451Y0255673D01*
X0064385Y0255578D01*
X0064317Y0255485D01*
X0064245Y0255395D01*
X0064170Y0255307D01*
X0064091Y0255222D01*
X0064010Y0255140D01*
X0063927Y0255060D01*
X0063840Y0254984D01*
X0063751Y0254910D01*
X0063660Y0254840D01*
X0063566Y0254772D01*
X0063470Y0254708D01*
X0063371Y0254648D01*
X0063271Y0254591D01*
X0063169Y0254537D01*
X0063065Y0254487D01*
X0062959Y0254440D01*
X0062852Y0254397D01*
X0062743Y0254358D01*
X0062633Y0254323D01*
X0062522Y0254292D01*
X0062410Y0254264D01*
X0062297Y0254240D01*
X0062183Y0254220D01*
X0062068Y0254204D01*
X0061953Y0254192D01*
X0061838Y0254184D01*
X0061723Y0254180D01*
X0061607Y0254180D01*
X0061492Y0254184D01*
X0061377Y0254192D01*
X0061262Y0254204D01*
X0061147Y0254220D01*
X0061033Y0254240D01*
X0060920Y0254264D01*
X0060808Y0254292D01*
X0060697Y0254323D01*
X0060587Y0254358D01*
X0060478Y0254397D01*
X0060371Y0254440D01*
X0060265Y0254487D01*
X0060161Y0254537D01*
X0060059Y0254591D01*
X0059959Y0254648D01*
X0059860Y0254708D01*
X0059764Y0254772D01*
X0059670Y0254840D01*
X0059579Y0254910D01*
X0059490Y0254984D01*
X0059403Y0255060D01*
X0059320Y0255140D01*
X0059239Y0255222D01*
X0059160Y0255307D01*
X0059085Y0255395D01*
X0059013Y0255485D01*
X0058945Y0255578D01*
X0058879Y0255673D01*
X0058817Y0255770D01*
X0058758Y0255870D01*
X0058702Y0255971D01*
X0058650Y0256074D01*
X0058602Y0256179D01*
X0058557Y0256286D01*
X0058516Y0256394D01*
X0058479Y0256503D01*
X0058446Y0256614D01*
X0058416Y0256725D01*
X0058391Y0256838D01*
X0058369Y0256951D01*
X0058351Y0257065D01*
X0058337Y0257180D01*
X0058327Y0257295D01*
X0058321Y0257411D01*
X0058319Y0257526D01*
X0041976Y0270652D02*
X0041978Y0270777D01*
X0041984Y0270902D01*
X0041994Y0271026D01*
X0042008Y0271150D01*
X0042025Y0271274D01*
X0042047Y0271397D01*
X0042073Y0271519D01*
X0042102Y0271641D01*
X0042135Y0271761D01*
X0042173Y0271880D01*
X0042213Y0271999D01*
X0042258Y0272115D01*
X0042306Y0272230D01*
X0042358Y0272344D01*
X0042414Y0272456D01*
X0042473Y0272566D01*
X0042535Y0272674D01*
X0042601Y0272781D01*
X0042670Y0272885D01*
X0042743Y0272986D01*
X0042818Y0273086D01*
X0042897Y0273183D01*
X0042979Y0273277D01*
X0043064Y0273369D01*
X0043151Y0273458D01*
X0043242Y0273544D01*
X0043335Y0273627D01*
X0043431Y0273708D01*
X0043529Y0273785D01*
X0043629Y0273859D01*
X0043732Y0273930D01*
X0043837Y0273997D01*
X0043945Y0274062D01*
X0044054Y0274122D01*
X0044165Y0274180D01*
X0044278Y0274233D01*
X0044392Y0274283D01*
X0044508Y0274330D01*
X0044625Y0274372D01*
X0044744Y0274411D01*
X0044864Y0274447D01*
X0044985Y0274478D01*
X0045107Y0274506D01*
X0045229Y0274529D01*
X0045353Y0274549D01*
X0045477Y0274565D01*
X0045601Y0274577D01*
X0045726Y0274585D01*
X0045851Y0274589D01*
X0045975Y0274589D01*
X0046100Y0274585D01*
X0046225Y0274577D01*
X0046349Y0274565D01*
X0046473Y0274549D01*
X0046597Y0274529D01*
X0046719Y0274506D01*
X0046841Y0274478D01*
X0046962Y0274447D01*
X0047082Y0274411D01*
X0047201Y0274372D01*
X0047318Y0274330D01*
X0047434Y0274283D01*
X0047548Y0274233D01*
X0047661Y0274180D01*
X0047772Y0274122D01*
X0047882Y0274062D01*
X0047989Y0273997D01*
X0048094Y0273930D01*
X0048197Y0273859D01*
X0048297Y0273785D01*
X0048395Y0273708D01*
X0048491Y0273627D01*
X0048584Y0273544D01*
X0048675Y0273458D01*
X0048762Y0273369D01*
X0048847Y0273277D01*
X0048929Y0273183D01*
X0049008Y0273086D01*
X0049083Y0272986D01*
X0049156Y0272885D01*
X0049225Y0272781D01*
X0049291Y0272674D01*
X0049353Y0272566D01*
X0049412Y0272456D01*
X0049468Y0272344D01*
X0049520Y0272230D01*
X0049568Y0272115D01*
X0049613Y0271999D01*
X0049653Y0271880D01*
X0049691Y0271761D01*
X0049724Y0271641D01*
X0049753Y0271519D01*
X0049779Y0271397D01*
X0049801Y0271274D01*
X0049818Y0271150D01*
X0049832Y0271026D01*
X0049842Y0270902D01*
X0049848Y0270777D01*
X0049850Y0270652D01*
X0049848Y0270527D01*
X0049842Y0270402D01*
X0049832Y0270278D01*
X0049818Y0270154D01*
X0049801Y0270030D01*
X0049779Y0269907D01*
X0049753Y0269785D01*
X0049724Y0269663D01*
X0049691Y0269543D01*
X0049653Y0269424D01*
X0049613Y0269305D01*
X0049568Y0269189D01*
X0049520Y0269074D01*
X0049468Y0268960D01*
X0049412Y0268848D01*
X0049353Y0268738D01*
X0049291Y0268630D01*
X0049225Y0268523D01*
X0049156Y0268419D01*
X0049083Y0268318D01*
X0049008Y0268218D01*
X0048929Y0268121D01*
X0048847Y0268027D01*
X0048762Y0267935D01*
X0048675Y0267846D01*
X0048584Y0267760D01*
X0048491Y0267677D01*
X0048395Y0267596D01*
X0048297Y0267519D01*
X0048197Y0267445D01*
X0048094Y0267374D01*
X0047989Y0267307D01*
X0047881Y0267242D01*
X0047772Y0267182D01*
X0047661Y0267124D01*
X0047548Y0267071D01*
X0047434Y0267021D01*
X0047318Y0266974D01*
X0047201Y0266932D01*
X0047082Y0266893D01*
X0046962Y0266857D01*
X0046841Y0266826D01*
X0046719Y0266798D01*
X0046597Y0266775D01*
X0046473Y0266755D01*
X0046349Y0266739D01*
X0046225Y0266727D01*
X0046100Y0266719D01*
X0045975Y0266715D01*
X0045851Y0266715D01*
X0045726Y0266719D01*
X0045601Y0266727D01*
X0045477Y0266739D01*
X0045353Y0266755D01*
X0045229Y0266775D01*
X0045107Y0266798D01*
X0044985Y0266826D01*
X0044864Y0266857D01*
X0044744Y0266893D01*
X0044625Y0266932D01*
X0044508Y0266974D01*
X0044392Y0267021D01*
X0044278Y0267071D01*
X0044165Y0267124D01*
X0044054Y0267182D01*
X0043944Y0267242D01*
X0043837Y0267307D01*
X0043732Y0267374D01*
X0043629Y0267445D01*
X0043529Y0267519D01*
X0043431Y0267596D01*
X0043335Y0267677D01*
X0043242Y0267760D01*
X0043151Y0267846D01*
X0043064Y0267935D01*
X0042979Y0268027D01*
X0042897Y0268121D01*
X0042818Y0268218D01*
X0042743Y0268318D01*
X0042670Y0268419D01*
X0042601Y0268523D01*
X0042535Y0268630D01*
X0042473Y0268738D01*
X0042414Y0268848D01*
X0042358Y0268960D01*
X0042306Y0269074D01*
X0042258Y0269189D01*
X0042213Y0269305D01*
X0042173Y0269424D01*
X0042135Y0269543D01*
X0042102Y0269663D01*
X0042073Y0269785D01*
X0042047Y0269907D01*
X0042025Y0270030D01*
X0042008Y0270154D01*
X0041994Y0270278D01*
X0041984Y0270402D01*
X0041978Y0270527D01*
X0041976Y0270652D01*
X0276728Y0011065D02*
X0276730Y0011190D01*
X0276736Y0011315D01*
X0276746Y0011439D01*
X0276760Y0011563D01*
X0276777Y0011687D01*
X0276799Y0011810D01*
X0276825Y0011932D01*
X0276854Y0012054D01*
X0276887Y0012174D01*
X0276925Y0012293D01*
X0276965Y0012412D01*
X0277010Y0012528D01*
X0277058Y0012643D01*
X0277110Y0012757D01*
X0277166Y0012869D01*
X0277225Y0012979D01*
X0277287Y0013087D01*
X0277353Y0013194D01*
X0277422Y0013298D01*
X0277495Y0013399D01*
X0277570Y0013499D01*
X0277649Y0013596D01*
X0277731Y0013690D01*
X0277816Y0013782D01*
X0277903Y0013871D01*
X0277994Y0013957D01*
X0278087Y0014040D01*
X0278183Y0014121D01*
X0278281Y0014198D01*
X0278381Y0014272D01*
X0278484Y0014343D01*
X0278589Y0014410D01*
X0278697Y0014475D01*
X0278806Y0014535D01*
X0278917Y0014593D01*
X0279030Y0014646D01*
X0279144Y0014696D01*
X0279260Y0014743D01*
X0279377Y0014785D01*
X0279496Y0014824D01*
X0279616Y0014860D01*
X0279737Y0014891D01*
X0279859Y0014919D01*
X0279981Y0014942D01*
X0280105Y0014962D01*
X0280229Y0014978D01*
X0280353Y0014990D01*
X0280478Y0014998D01*
X0280603Y0015002D01*
X0280727Y0015002D01*
X0280852Y0014998D01*
X0280977Y0014990D01*
X0281101Y0014978D01*
X0281225Y0014962D01*
X0281349Y0014942D01*
X0281471Y0014919D01*
X0281593Y0014891D01*
X0281714Y0014860D01*
X0281834Y0014824D01*
X0281953Y0014785D01*
X0282070Y0014743D01*
X0282186Y0014696D01*
X0282300Y0014646D01*
X0282413Y0014593D01*
X0282524Y0014535D01*
X0282634Y0014475D01*
X0282741Y0014410D01*
X0282846Y0014343D01*
X0282949Y0014272D01*
X0283049Y0014198D01*
X0283147Y0014121D01*
X0283243Y0014040D01*
X0283336Y0013957D01*
X0283427Y0013871D01*
X0283514Y0013782D01*
X0283599Y0013690D01*
X0283681Y0013596D01*
X0283760Y0013499D01*
X0283835Y0013399D01*
X0283908Y0013298D01*
X0283977Y0013194D01*
X0284043Y0013087D01*
X0284105Y0012979D01*
X0284164Y0012869D01*
X0284220Y0012757D01*
X0284272Y0012643D01*
X0284320Y0012528D01*
X0284365Y0012412D01*
X0284405Y0012293D01*
X0284443Y0012174D01*
X0284476Y0012054D01*
X0284505Y0011932D01*
X0284531Y0011810D01*
X0284553Y0011687D01*
X0284570Y0011563D01*
X0284584Y0011439D01*
X0284594Y0011315D01*
X0284600Y0011190D01*
X0284602Y0011065D01*
X0284600Y0010940D01*
X0284594Y0010815D01*
X0284584Y0010691D01*
X0284570Y0010567D01*
X0284553Y0010443D01*
X0284531Y0010320D01*
X0284505Y0010198D01*
X0284476Y0010076D01*
X0284443Y0009956D01*
X0284405Y0009837D01*
X0284365Y0009718D01*
X0284320Y0009602D01*
X0284272Y0009487D01*
X0284220Y0009373D01*
X0284164Y0009261D01*
X0284105Y0009151D01*
X0284043Y0009043D01*
X0283977Y0008936D01*
X0283908Y0008832D01*
X0283835Y0008731D01*
X0283760Y0008631D01*
X0283681Y0008534D01*
X0283599Y0008440D01*
X0283514Y0008348D01*
X0283427Y0008259D01*
X0283336Y0008173D01*
X0283243Y0008090D01*
X0283147Y0008009D01*
X0283049Y0007932D01*
X0282949Y0007858D01*
X0282846Y0007787D01*
X0282741Y0007720D01*
X0282633Y0007655D01*
X0282524Y0007595D01*
X0282413Y0007537D01*
X0282300Y0007484D01*
X0282186Y0007434D01*
X0282070Y0007387D01*
X0281953Y0007345D01*
X0281834Y0007306D01*
X0281714Y0007270D01*
X0281593Y0007239D01*
X0281471Y0007211D01*
X0281349Y0007188D01*
X0281225Y0007168D01*
X0281101Y0007152D01*
X0280977Y0007140D01*
X0280852Y0007132D01*
X0280727Y0007128D01*
X0280603Y0007128D01*
X0280478Y0007132D01*
X0280353Y0007140D01*
X0280229Y0007152D01*
X0280105Y0007168D01*
X0279981Y0007188D01*
X0279859Y0007211D01*
X0279737Y0007239D01*
X0279616Y0007270D01*
X0279496Y0007306D01*
X0279377Y0007345D01*
X0279260Y0007387D01*
X0279144Y0007434D01*
X0279030Y0007484D01*
X0278917Y0007537D01*
X0278806Y0007595D01*
X0278696Y0007655D01*
X0278589Y0007720D01*
X0278484Y0007787D01*
X0278381Y0007858D01*
X0278281Y0007932D01*
X0278183Y0008009D01*
X0278087Y0008090D01*
X0277994Y0008173D01*
X0277903Y0008259D01*
X0277816Y0008348D01*
X0277731Y0008440D01*
X0277649Y0008534D01*
X0277570Y0008631D01*
X0277495Y0008731D01*
X0277422Y0008832D01*
X0277353Y0008936D01*
X0277287Y0009043D01*
X0277225Y0009151D01*
X0277166Y0009261D01*
X0277110Y0009373D01*
X0277058Y0009487D01*
X0277010Y0009602D01*
X0276965Y0009718D01*
X0276925Y0009837D01*
X0276887Y0009956D01*
X0276854Y0010076D01*
X0276825Y0010198D01*
X0276799Y0010320D01*
X0276777Y0010443D01*
X0276760Y0010567D01*
X0276746Y0010691D01*
X0276736Y0010815D01*
X0276730Y0010940D01*
X0276728Y0011065D01*
D12*
X0211787Y0021400D03*
X0211787Y0041400D03*
X0182602Y0052400D03*
X0182602Y0072400D03*
X0116102Y0103900D03*
X0096102Y0103900D03*
X0086102Y0075400D03*
X0076102Y0075400D03*
X0076102Y0055400D03*
X0086102Y0055400D03*
X0059102Y0139900D03*
X0059102Y0149900D03*
D13*
X0128502Y0150400D02*
X0133702Y0150400D01*
X0133702Y0140400D02*
X0128502Y0140400D01*
X0128502Y0130400D02*
X0133702Y0130400D01*
X0133702Y0120400D02*
X0128502Y0120400D01*
X0128502Y0110400D02*
X0133702Y0110400D01*
X0133702Y0100400D02*
X0128502Y0100400D01*
X0128502Y0090400D02*
X0133702Y0090400D01*
X0133702Y0080400D02*
X0128502Y0080400D01*
X0128502Y0070400D02*
X0133702Y0070400D01*
X0133702Y0060400D02*
X0128502Y0060400D01*
X0128502Y0050400D02*
X0133702Y0050400D01*
X0133702Y0040400D02*
X0128502Y0040400D01*
X0128502Y0030400D02*
X0133702Y0030400D01*
X0133702Y0020400D02*
X0128502Y0020400D01*
X0158502Y0020400D02*
X0163702Y0020400D01*
X0163702Y0030400D02*
X0158502Y0030400D01*
X0158502Y0040400D02*
X0163702Y0040400D01*
X0163702Y0050400D02*
X0158502Y0050400D01*
X0158502Y0060400D02*
X0163702Y0060400D01*
X0163702Y0070400D02*
X0158502Y0070400D01*
X0158502Y0080400D02*
X0163702Y0080400D01*
X0163702Y0090400D02*
X0158502Y0090400D01*
X0158502Y0100400D02*
X0163702Y0100400D01*
X0163702Y0110400D02*
X0158502Y0110400D01*
X0158502Y0120400D02*
X0163702Y0120400D01*
X0163702Y0130400D02*
X0158502Y0130400D01*
X0158502Y0140400D02*
X0163702Y0140400D01*
X0163702Y0150400D02*
X0158502Y0150400D01*
D14*
X0161102Y0172825D02*
X0161102Y0177975D01*
X0171102Y0177975D02*
X0171102Y0172825D01*
X0151102Y0172825D02*
X0151102Y0177975D01*
X0141102Y0177975D02*
X0141102Y0172825D01*
X0131102Y0172825D02*
X0131102Y0177975D01*
D15*
X0093402Y0149900D02*
X0087802Y0149900D01*
X0087802Y0139900D02*
X0093402Y0139900D01*
D16*
X0232409Y0051065D02*
X0238409Y0051065D01*
X0238409Y0041065D02*
X0232409Y0041065D01*
X0232409Y0031065D02*
X0238409Y0031065D01*
X0238409Y0021065D02*
X0232409Y0021065D01*
X0263905Y0021065D02*
X0269905Y0021065D01*
X0269905Y0031065D02*
X0263905Y0031065D01*
X0263905Y0041065D02*
X0269905Y0041065D01*
X0269905Y0051065D02*
X0263905Y0051065D01*
D17*
X0110102Y0140400D03*
X0110102Y0180400D03*
X0091102Y0185900D03*
X0051102Y0185900D03*
X0051602Y0019900D03*
X0091602Y0019900D03*
D18*
X0087216Y0210518D03*
X0077216Y0210518D03*
X0082216Y0220518D03*
X0092216Y0220518D03*
X0102216Y0220518D03*
X0112216Y0220518D03*
X0107216Y0210518D03*
X0097216Y0210518D03*
X0132216Y0210518D03*
X0142216Y0210518D03*
X0152216Y0210518D03*
X0162216Y0210518D03*
X0157216Y0220518D03*
X0147216Y0220518D03*
X0137216Y0220518D03*
X0167216Y0220518D03*
D19*
X0061602Y0111400D03*
X0051602Y0111400D03*
D20*
X0104118Y0075400D02*
X0108086Y0075400D01*
X0108086Y0055400D02*
X0104118Y0055400D01*
D21*
X0203732Y0090557D03*
X0203732Y0110243D03*
X0203732Y0130557D03*
X0203732Y0150243D03*
X0203732Y0170557D03*
X0203732Y0190243D03*
X0203732Y0210557D03*
X0203732Y0230243D03*
X0203732Y0250557D03*
X0203732Y0270243D03*
D22*
X0152216Y0210518D02*
X0142216Y0210518D01*
X0132216Y0210518D01*
X0127602Y0198900D02*
X0123102Y0196400D01*
X0120102Y0195400D01*
X0116598Y0194900D01*
X0112834Y0194900D01*
X0112457Y0194905D01*
X0112079Y0194918D01*
X0111703Y0194941D01*
X0111327Y0194973D01*
X0110951Y0195014D01*
X0110577Y0195064D01*
X0110205Y0195123D01*
X0109833Y0195191D01*
X0109464Y0195268D01*
X0109096Y0195354D01*
X0108731Y0195449D01*
X0108368Y0195552D01*
X0108008Y0195664D01*
X0107650Y0195785D01*
X0107296Y0195915D01*
X0106945Y0196053D01*
X0106597Y0196200D01*
X0106253Y0196354D01*
X0105912Y0196518D01*
X0105576Y0196689D01*
X0105244Y0196868D01*
X0104916Y0197056D01*
X0104593Y0197251D01*
X0104275Y0197454D01*
X0103962Y0197665D01*
X0103654Y0197883D01*
X0103351Y0198108D01*
X0103054Y0198341D01*
X0102763Y0198581D01*
X0102477Y0198828D01*
X0102198Y0199081D01*
X0101925Y0199342D01*
X0101658Y0199609D01*
X0101397Y0199882D01*
X0101144Y0200161D01*
X0100897Y0200447D01*
X0100657Y0200738D01*
X0100424Y0201035D01*
X0100199Y0201338D01*
X0099981Y0201646D01*
X0099770Y0201959D01*
X0099567Y0202277D01*
X0099372Y0202600D01*
X0099184Y0202928D01*
X0099005Y0203260D01*
X0098834Y0203596D01*
X0098670Y0203937D01*
X0098516Y0204281D01*
X0098369Y0204629D01*
X0098231Y0204980D01*
X0098101Y0205334D01*
X0097980Y0205692D01*
X0097868Y0206052D01*
X0097765Y0206415D01*
X0097670Y0206780D01*
X0097584Y0207148D01*
X0097507Y0207517D01*
X0097439Y0207889D01*
X0097380Y0208261D01*
X0097330Y0208635D01*
X0097289Y0209011D01*
X0097257Y0209387D01*
X0097234Y0209763D01*
X0097221Y0210141D01*
X0097216Y0210518D01*
X0087216Y0210518D01*
X0077216Y0210518D01*
X0075720Y0210518D01*
X0075125Y0210511D01*
X0074531Y0210489D01*
X0073937Y0210453D01*
X0073344Y0210403D01*
X0072753Y0210339D01*
X0072163Y0210260D01*
X0071575Y0210167D01*
X0070990Y0210059D01*
X0070408Y0209938D01*
X0069829Y0209803D01*
X0069253Y0209653D01*
X0068681Y0209490D01*
X0068113Y0209313D01*
X0067549Y0209122D01*
X0066990Y0208918D01*
X0066437Y0208701D01*
X0065888Y0208470D01*
X0065346Y0208225D01*
X0064810Y0207968D01*
X0064279Y0207698D01*
X0063756Y0207415D01*
X0063240Y0207120D01*
X0062731Y0206812D01*
X0062229Y0206492D01*
X0061735Y0206160D01*
X0061250Y0205816D01*
X0060773Y0205461D01*
X0060305Y0205094D01*
X0059845Y0204716D01*
X0059395Y0204327D01*
X0058955Y0203927D01*
X0058524Y0203517D01*
X0058103Y0203096D01*
X0057693Y0202665D01*
X0057293Y0202225D01*
X0056904Y0201775D01*
X0056526Y0201315D01*
X0056159Y0200847D01*
X0055804Y0200370D01*
X0055460Y0199885D01*
X0055128Y0199391D01*
X0054808Y0198889D01*
X0054500Y0198380D01*
X0054205Y0197864D01*
X0053922Y0197341D01*
X0053652Y0196810D01*
X0053395Y0196274D01*
X0053150Y0195732D01*
X0052919Y0195183D01*
X0052702Y0194630D01*
X0052498Y0194071D01*
X0052307Y0193507D01*
X0052130Y0192939D01*
X0051967Y0192367D01*
X0051817Y0191791D01*
X0051682Y0191212D01*
X0051561Y0190630D01*
X0051453Y0190045D01*
X0051360Y0189457D01*
X0051281Y0188867D01*
X0051217Y0188276D01*
X0051167Y0187683D01*
X0051131Y0187089D01*
X0051109Y0186495D01*
X0051102Y0185900D01*
X0127603Y0198901D02*
X0128400Y0198142D01*
X0129178Y0197364D01*
X0129938Y0196568D01*
X0130678Y0195753D01*
X0131399Y0194922D01*
X0132099Y0194073D01*
X0132779Y0193207D01*
X0133438Y0192325D01*
X0134075Y0191428D01*
X0134691Y0190516D01*
X0135284Y0189589D01*
X0135855Y0188648D01*
X0136403Y0187694D01*
X0136928Y0186727D01*
X0137430Y0185747D01*
X0137908Y0184756D01*
X0138362Y0183753D01*
X0138792Y0182740D01*
X0139197Y0181717D01*
X0139578Y0180684D01*
X0139933Y0179643D01*
X0140264Y0178593D01*
X0140569Y0177536D01*
X0140849Y0176471D01*
X0141103Y0175400D01*
X0141102Y0175400D02*
X0146602Y0150900D01*
X0146602Y0084900D01*
X0146606Y0084550D01*
X0146619Y0084199D01*
X0146640Y0083850D01*
X0146670Y0083501D01*
X0146708Y0083152D01*
X0146754Y0082805D01*
X0146809Y0082459D01*
X0146872Y0082114D01*
X0146944Y0081771D01*
X0147023Y0081430D01*
X0147111Y0081091D01*
X0147207Y0080754D01*
X0147312Y0080419D01*
X0147424Y0080087D01*
X0147544Y0079758D01*
X0147672Y0079432D01*
X0147809Y0079109D01*
X0147952Y0078790D01*
X0148104Y0078474D01*
X0148263Y0078162D01*
X0148429Y0077853D01*
X0148603Y0077549D01*
X0148785Y0077249D01*
X0148973Y0076954D01*
X0149169Y0076663D01*
X0149371Y0076377D01*
X0149581Y0076096D01*
X0149797Y0075820D01*
X0150019Y0075550D01*
X0150249Y0075285D01*
X0150484Y0075025D01*
X0150726Y0074772D01*
X0150974Y0074524D01*
X0151227Y0074282D01*
X0151487Y0074047D01*
X0151752Y0073817D01*
X0152022Y0073595D01*
X0152298Y0073379D01*
X0152579Y0073169D01*
X0152865Y0072967D01*
X0153156Y0072771D01*
X0153451Y0072583D01*
X0153751Y0072401D01*
X0154055Y0072227D01*
X0154364Y0072061D01*
X0154676Y0071902D01*
X0154992Y0071750D01*
X0155311Y0071607D01*
X0155634Y0071470D01*
X0155960Y0071342D01*
X0156289Y0071222D01*
X0156621Y0071110D01*
X0156956Y0071005D01*
X0157293Y0070909D01*
X0157632Y0070821D01*
X0157973Y0070742D01*
X0158316Y0070670D01*
X0158661Y0070607D01*
X0159007Y0070552D01*
X0159354Y0070506D01*
X0159703Y0070468D01*
X0160052Y0070438D01*
X0160401Y0070417D01*
X0160752Y0070404D01*
X0161102Y0070400D01*
X0161104Y0070356D01*
X0161110Y0070313D01*
X0161119Y0070271D01*
X0161132Y0070229D01*
X0161149Y0070189D01*
X0161169Y0070150D01*
X0161192Y0070113D01*
X0161219Y0070079D01*
X0161248Y0070046D01*
X0161281Y0070017D01*
X0161315Y0069990D01*
X0161352Y0069967D01*
X0161391Y0069947D01*
X0161431Y0069930D01*
X0161473Y0069917D01*
X0161515Y0069908D01*
X0161558Y0069902D01*
X0161602Y0069900D01*
X0182102Y0069900D01*
X0182146Y0069902D01*
X0182189Y0069908D01*
X0182231Y0069917D01*
X0182273Y0069930D01*
X0182313Y0069947D01*
X0182352Y0069967D01*
X0182389Y0069990D01*
X0182423Y0070017D01*
X0182456Y0070046D01*
X0182485Y0070079D01*
X0182512Y0070113D01*
X0182535Y0070150D01*
X0182555Y0070189D01*
X0182572Y0070229D01*
X0182585Y0070271D01*
X0182594Y0070313D01*
X0182600Y0070356D01*
X0182602Y0070400D01*
X0182602Y0072400D01*
X0182102Y0069900D02*
X0182356Y0069897D01*
X0182609Y0069888D01*
X0182863Y0069872D01*
X0183115Y0069851D01*
X0183368Y0069823D01*
X0183619Y0069790D01*
X0183870Y0069750D01*
X0184119Y0069704D01*
X0184368Y0069653D01*
X0184615Y0069595D01*
X0184860Y0069531D01*
X0185104Y0069462D01*
X0185347Y0069386D01*
X0185587Y0069305D01*
X0185825Y0069218D01*
X0186061Y0069125D01*
X0186295Y0069026D01*
X0186527Y0068922D01*
X0186756Y0068812D01*
X0186982Y0068697D01*
X0187205Y0068577D01*
X0187425Y0068451D01*
X0187642Y0068319D01*
X0187856Y0068183D01*
X0188067Y0068041D01*
X0188274Y0067895D01*
X0188477Y0067743D01*
X0188677Y0067587D01*
X0188873Y0067425D01*
X0189065Y0067259D01*
X0189253Y0067089D01*
X0189436Y0066914D01*
X0189616Y0066734D01*
X0189791Y0066551D01*
X0189961Y0066363D01*
X0190127Y0066171D01*
X0190289Y0065975D01*
X0190445Y0065775D01*
X0190597Y0065572D01*
X0190743Y0065365D01*
X0190885Y0065154D01*
X0191021Y0064940D01*
X0191153Y0064723D01*
X0191279Y0064503D01*
X0191399Y0064280D01*
X0191514Y0064054D01*
X0191624Y0063825D01*
X0191728Y0063593D01*
X0191827Y0063359D01*
X0191920Y0063123D01*
X0192007Y0062885D01*
X0192088Y0062645D01*
X0192164Y0062402D01*
X0192233Y0062158D01*
X0192297Y0061913D01*
X0192355Y0061666D01*
X0192406Y0061417D01*
X0192452Y0061168D01*
X0192492Y0060917D01*
X0192525Y0060666D01*
X0192553Y0060413D01*
X0192574Y0060161D01*
X0192590Y0059907D01*
X0192599Y0059654D01*
X0192602Y0059400D01*
X0192602Y0032711D01*
X0192605Y0032438D01*
X0192615Y0032165D01*
X0192632Y0031892D01*
X0192655Y0031619D01*
X0192684Y0031348D01*
X0192721Y0031077D01*
X0192763Y0030807D01*
X0192813Y0030538D01*
X0192868Y0030270D01*
X0192931Y0030004D01*
X0192999Y0029740D01*
X0193074Y0029477D01*
X0193156Y0029216D01*
X0193243Y0028957D01*
X0193337Y0028700D01*
X0193437Y0028446D01*
X0193543Y0028194D01*
X0193655Y0027945D01*
X0193774Y0027698D01*
X0193898Y0027455D01*
X0194028Y0027214D01*
X0194163Y0026977D01*
X0194305Y0026743D01*
X0194452Y0026512D01*
X0194604Y0026286D01*
X0194762Y0026063D01*
X0194926Y0025843D01*
X0195094Y0025628D01*
X0195268Y0025417D01*
X0195447Y0025210D01*
X0195630Y0025008D01*
X0195819Y0024810D01*
X0196012Y0024617D01*
X0196210Y0024428D01*
X0196412Y0024245D01*
X0196619Y0024066D01*
X0196830Y0023892D01*
X0197045Y0023724D01*
X0197265Y0023560D01*
X0197488Y0023402D01*
X0197714Y0023250D01*
X0197945Y0023103D01*
X0198179Y0022961D01*
X0198416Y0022826D01*
X0198657Y0022696D01*
X0198900Y0022572D01*
X0199147Y0022453D01*
X0199396Y0022341D01*
X0199648Y0022235D01*
X0199902Y0022135D01*
X0200159Y0022041D01*
X0200418Y0021954D01*
X0200679Y0021872D01*
X0200942Y0021797D01*
X0201206Y0021729D01*
X0201472Y0021666D01*
X0201740Y0021611D01*
X0202009Y0021561D01*
X0202279Y0021519D01*
X0202550Y0021482D01*
X0202821Y0021453D01*
X0203094Y0021430D01*
X0203367Y0021413D01*
X0203640Y0021403D01*
X0203913Y0021400D01*
X0211787Y0021400D01*
X0235409Y0031065D01*
X0116598Y0194900D02*
X0116975Y0194905D01*
X0117353Y0194918D01*
X0117729Y0194941D01*
X0118105Y0194973D01*
X0118481Y0195014D01*
X0118855Y0195064D01*
X0119227Y0195123D01*
X0119599Y0195191D01*
X0119968Y0195268D01*
X0120336Y0195354D01*
X0120701Y0195449D01*
X0121064Y0195552D01*
X0121424Y0195664D01*
X0121782Y0195785D01*
X0122136Y0195915D01*
X0122487Y0196053D01*
X0122835Y0196200D01*
X0123179Y0196354D01*
X0123520Y0196518D01*
X0123856Y0196689D01*
X0124188Y0196868D01*
X0124516Y0197056D01*
X0124839Y0197251D01*
X0125157Y0197454D01*
X0125470Y0197665D01*
X0125778Y0197883D01*
X0126081Y0198108D01*
X0126378Y0198341D01*
X0126669Y0198581D01*
X0126955Y0198828D01*
X0127234Y0199081D01*
X0127507Y0199342D01*
X0127774Y0199609D01*
X0128035Y0199882D01*
X0128288Y0200161D01*
X0128535Y0200447D01*
X0128775Y0200738D01*
X0129008Y0201035D01*
X0129233Y0201338D01*
X0129451Y0201646D01*
X0129662Y0201959D01*
X0129865Y0202277D01*
X0130060Y0202600D01*
X0130248Y0202928D01*
X0130427Y0203260D01*
X0130598Y0203596D01*
X0130762Y0203937D01*
X0130916Y0204281D01*
X0131063Y0204629D01*
X0131201Y0204980D01*
X0131331Y0205334D01*
X0131452Y0205692D01*
X0131564Y0206052D01*
X0131667Y0206415D01*
X0131762Y0206780D01*
X0131848Y0207148D01*
X0131925Y0207517D01*
X0131993Y0207889D01*
X0132052Y0208261D01*
X0132102Y0208635D01*
X0132143Y0209011D01*
X0132175Y0209387D01*
X0132198Y0209763D01*
X0132211Y0210141D01*
X0132216Y0210518D01*
D23*
X0125495Y0210805D02*
X0113937Y0210805D01*
X0113937Y0212403D02*
X0125495Y0212403D01*
X0125495Y0214002D02*
X0116269Y0214002D01*
X0115774Y0213797D02*
X0117225Y0214398D01*
X0118336Y0215509D01*
X0118937Y0216961D01*
X0118937Y0224075D01*
X0118336Y0225527D01*
X0117225Y0226638D01*
X0115774Y0227239D01*
X0108659Y0227239D01*
X0107207Y0226638D01*
X0106096Y0225527D01*
X0105829Y0224882D01*
X0105683Y0224967D01*
X0105225Y0225090D01*
X0102302Y0225090D01*
X0102302Y0220604D01*
X0102130Y0220604D01*
X0102130Y0220432D01*
X0097645Y0220432D01*
X0097645Y0217509D01*
X0097717Y0217239D01*
X0096716Y0217239D01*
X0096788Y0217509D01*
X0096788Y0220432D01*
X0092302Y0220432D01*
X0092302Y0220604D01*
X0092130Y0220604D01*
X0092130Y0220432D01*
X0087645Y0220432D01*
X0087645Y0217509D01*
X0087717Y0217239D01*
X0086716Y0217239D01*
X0086788Y0217509D01*
X0086788Y0220432D01*
X0082302Y0220432D01*
X0082302Y0220604D01*
X0082130Y0220604D01*
X0082130Y0220432D01*
X0077645Y0220432D01*
X0077645Y0217509D01*
X0077717Y0217239D01*
X0073659Y0217239D01*
X0073003Y0216968D01*
X0072660Y0216968D01*
X0066658Y0215774D01*
X0061004Y0213432D01*
X0055916Y0210032D01*
X0055916Y0210032D01*
X0051588Y0205705D01*
X0051588Y0205704D01*
X0048188Y0200616D01*
X0045846Y0194962D01*
X0044652Y0188960D01*
X0044652Y0184617D01*
X0044775Y0184322D01*
X0044775Y0183279D01*
X0045512Y0182541D01*
X0045634Y0182247D01*
X0047449Y0180432D01*
X0047743Y0180310D01*
X0048481Y0179572D01*
X0049525Y0179572D01*
X0049819Y0179450D01*
X0052385Y0179450D01*
X0052680Y0179572D01*
X0053723Y0179572D01*
X0054461Y0180310D01*
X0054755Y0180432D01*
X0056570Y0182247D01*
X0056692Y0182541D01*
X0057430Y0183279D01*
X0057430Y0184322D01*
X0057552Y0184617D01*
X0057552Y0185900D01*
X0057639Y0187681D01*
X0058334Y0191174D01*
X0059697Y0194465D01*
X0061676Y0197426D01*
X0064194Y0199944D01*
X0067156Y0201923D01*
X0070446Y0203286D01*
X0073450Y0203884D01*
X0073659Y0203797D01*
X0080774Y0203797D01*
X0081429Y0204069D01*
X0083003Y0204069D01*
X0083659Y0203797D01*
X0090774Y0203797D01*
X0091429Y0204069D01*
X0091671Y0204069D01*
X0091873Y0203183D01*
X0094031Y0198703D01*
X0097131Y0194815D01*
X0101019Y0191715D01*
X0105500Y0189557D01*
X0110348Y0188450D01*
X0115785Y0188450D01*
X0116239Y0188334D01*
X0117056Y0188450D01*
X0119085Y0188450D01*
X0123933Y0189557D01*
X0126101Y0190601D01*
X0126359Y0190687D01*
X0126389Y0190713D01*
X0128972Y0187464D01*
X0130676Y0184499D01*
X0129804Y0184499D01*
X0127406Y0183506D01*
X0125571Y0181671D01*
X0124578Y0179273D01*
X0124578Y0171527D01*
X0125571Y0169129D01*
X0126352Y0168348D01*
X0126352Y0156599D01*
X0124792Y0155952D01*
X0122950Y0154110D01*
X0121952Y0151703D01*
X0121952Y0151304D01*
X0112343Y0146728D01*
X0107481Y0146728D01*
X0103775Y0143021D01*
X0103775Y0137779D01*
X0107481Y0134072D01*
X0112723Y0134072D01*
X0116430Y0137779D01*
X0116430Y0138153D01*
X0121952Y0140782D01*
X0121952Y0139097D01*
X0122950Y0136690D01*
X0124240Y0135400D01*
X0122950Y0134110D01*
X0121952Y0131703D01*
X0121952Y0129097D01*
X0122950Y0126690D01*
X0124240Y0125400D01*
X0122950Y0124110D01*
X0121952Y0121703D01*
X0121952Y0119097D01*
X0122950Y0116690D01*
X0124240Y0115400D01*
X0122950Y0114110D01*
X0121952Y0111703D01*
X0121952Y0109097D01*
X0122725Y0107232D01*
X0121049Y0107623D01*
X0118641Y0110031D01*
X0113563Y0110031D01*
X0109971Y0106439D01*
X0109971Y0101361D01*
X0113563Y0097769D01*
X0118641Y0097769D01*
X0119177Y0098305D01*
X0122613Y0097504D01*
X0122950Y0096690D01*
X0124240Y0095400D01*
X0122950Y0094110D01*
X0121952Y0091703D01*
X0121952Y0089097D01*
X0122950Y0086690D01*
X0124792Y0084848D01*
X0126307Y0084220D01*
X0126196Y0084163D01*
X0125636Y0083756D01*
X0125146Y0083266D01*
X0124739Y0082706D01*
X0124424Y0082089D01*
X0124210Y0081430D01*
X0124102Y0080746D01*
X0124102Y0080400D01*
X0131102Y0080400D01*
X0131102Y0080400D01*
X0124102Y0080400D01*
X0124102Y0080054D01*
X0124210Y0079370D01*
X0124424Y0078711D01*
X0124739Y0078094D01*
X0125146Y0077534D01*
X0125636Y0077044D01*
X0126196Y0076637D01*
X0126307Y0076580D01*
X0124792Y0075952D01*
X0123989Y0075150D01*
X0114020Y0075150D01*
X0114020Y0076580D01*
X0113117Y0078761D01*
X0111448Y0080430D01*
X0109267Y0081334D01*
X0102937Y0081334D01*
X0100757Y0080430D01*
X0100476Y0080150D01*
X0090023Y0080150D01*
X0088641Y0081531D01*
X0083563Y0081531D01*
X0079971Y0077939D01*
X0079971Y0077161D01*
X0077751Y0079381D01*
X0076102Y0079381D01*
X0074453Y0079381D01*
X0072121Y0077049D01*
X0072121Y0075400D01*
X0076102Y0075400D01*
X0076102Y0075400D01*
X0072121Y0075400D01*
X0072121Y0073751D01*
X0074453Y0071419D01*
X0076102Y0071419D01*
X0076102Y0075400D01*
X0076102Y0079381D01*
X0076102Y0075400D01*
X0076102Y0075400D01*
X0076102Y0075400D01*
X0076102Y0071419D01*
X0077751Y0071419D01*
X0079971Y0073639D01*
X0079971Y0072861D01*
X0083563Y0069269D01*
X0088641Y0069269D01*
X0090023Y0070650D01*
X0100476Y0070650D01*
X0100757Y0070370D01*
X0102937Y0069466D01*
X0103362Y0069466D01*
X0104122Y0068420D01*
X0104122Y0068420D01*
X0104122Y0068420D01*
X0106621Y0066605D01*
X0109558Y0065650D01*
X0123989Y0065650D01*
X0124240Y0065400D01*
X0123989Y0065150D01*
X0109558Y0065150D01*
X0106621Y0064195D01*
X0104122Y0062380D01*
X0103362Y0061334D01*
X0102937Y0061334D01*
X0100757Y0060430D01*
X0100476Y0060150D01*
X0090023Y0060150D01*
X0088641Y0061531D01*
X0083563Y0061531D01*
X0079971Y0057939D01*
X0079971Y0057161D01*
X0077751Y0059381D01*
X0076102Y0059381D01*
X0074453Y0059381D01*
X0072121Y0057049D01*
X0072121Y0055400D01*
X0076102Y0055400D01*
X0076102Y0055400D01*
X0072121Y0055400D01*
X0072121Y0053751D01*
X0074453Y0051419D01*
X0076102Y0051419D01*
X0076102Y0055400D01*
X0076102Y0059381D01*
X0076102Y0055400D01*
X0076102Y0055400D01*
X0076102Y0055400D01*
X0076102Y0051419D01*
X0077751Y0051419D01*
X0079971Y0053639D01*
X0079971Y0052861D01*
X0083563Y0049269D01*
X0088641Y0049269D01*
X0090023Y0050650D01*
X0100476Y0050650D01*
X0100757Y0050370D01*
X0102937Y0049466D01*
X0109267Y0049466D01*
X0111448Y0050370D01*
X0113117Y0052039D01*
X0114020Y0054220D01*
X0114020Y0055650D01*
X0123989Y0055650D01*
X0124240Y0055400D01*
X0122950Y0054110D01*
X0121952Y0051703D01*
X0121952Y0049097D01*
X0122950Y0046690D01*
X0124240Y0045400D01*
X0122950Y0044110D01*
X0121952Y0041703D01*
X0121952Y0041003D01*
X0093483Y0026228D01*
X0088981Y0026228D01*
X0085275Y0022521D01*
X0085275Y0017279D01*
X0088981Y0013572D01*
X0094223Y0013572D01*
X0097930Y0017279D01*
X0097930Y0017833D01*
X0121952Y0030300D01*
X0121952Y0029097D01*
X0122950Y0026690D01*
X0124240Y0025400D01*
X0122950Y0024110D01*
X0121952Y0021703D01*
X0121952Y0019097D01*
X0122950Y0016690D01*
X0124792Y0014848D01*
X0127199Y0013850D01*
X0127852Y0013850D01*
X0129299Y0011344D01*
X0129299Y0011344D01*
X0132046Y0008597D01*
X0135409Y0006656D01*
X0135616Y0006600D01*
X0040802Y0006600D01*
X0040802Y0263407D01*
X0040964Y0263245D01*
X0044175Y0261915D01*
X0047651Y0261915D01*
X0050862Y0263245D01*
X0053320Y0265703D01*
X0054650Y0268914D01*
X0054650Y0272390D01*
X0053320Y0275601D01*
X0050862Y0278059D01*
X0047651Y0279389D01*
X0044175Y0279389D01*
X0040964Y0278059D01*
X0040802Y0277897D01*
X0040802Y0280200D01*
X0284713Y0280200D01*
X0284713Y0018845D01*
X0282403Y0019802D01*
X0278927Y0019802D01*
X0276485Y0018791D01*
X0276855Y0019683D01*
X0276855Y0022448D01*
X0275797Y0025002D01*
X0274733Y0026065D01*
X0275797Y0027129D01*
X0276855Y0029683D01*
X0276855Y0032448D01*
X0275797Y0035002D01*
X0274733Y0036065D01*
X0275797Y0037129D01*
X0276855Y0039683D01*
X0276855Y0042448D01*
X0275797Y0045002D01*
X0274733Y0046065D01*
X0275797Y0047129D01*
X0276855Y0049683D01*
X0276855Y0052448D01*
X0275797Y0055002D01*
X0273842Y0056957D01*
X0271288Y0058015D01*
X0262523Y0058015D01*
X0259969Y0056957D01*
X0258014Y0055002D01*
X0257350Y0053401D01*
X0254593Y0051808D01*
X0254593Y0051808D01*
X0250859Y0048075D01*
X0250859Y0048075D01*
X0250859Y0048075D01*
X0248219Y0043502D01*
X0246852Y0038402D01*
X0246852Y0026900D01*
X0246779Y0025584D01*
X0246193Y0023019D01*
X0245359Y0021287D01*
X0245359Y0022448D01*
X0244301Y0025002D01*
X0243237Y0026065D01*
X0244301Y0027129D01*
X0245359Y0029683D01*
X0245359Y0032448D01*
X0244301Y0035002D01*
X0242346Y0036957D01*
X0241438Y0037333D01*
X0241536Y0037404D01*
X0242070Y0037938D01*
X0242514Y0038550D01*
X0242857Y0039223D01*
X0243091Y0039941D01*
X0243209Y0040688D01*
X0243209Y0041065D01*
X0235409Y0041065D01*
X0227609Y0041065D01*
X0227609Y0040688D01*
X0227727Y0039941D01*
X0227961Y0039223D01*
X0228304Y0038550D01*
X0228748Y0037938D01*
X0229282Y0037404D01*
X0229380Y0037333D01*
X0228473Y0036957D01*
X0226518Y0035002D01*
X0226215Y0034272D01*
X0210519Y0027850D01*
X0203913Y0027850D01*
X0203279Y0027891D01*
X0202053Y0028220D01*
X0200954Y0028854D01*
X0200056Y0029752D01*
X0199422Y0030851D01*
X0199093Y0032076D01*
X0199052Y0032711D01*
X0199052Y0061631D01*
X0197897Y0065942D01*
X0195665Y0069807D01*
X0195665Y0069807D01*
X0192509Y0072963D01*
X0188644Y0075195D01*
X0188417Y0075256D01*
X0188389Y0075283D01*
X0188070Y0076053D01*
X0186255Y0077868D01*
X0185486Y0078187D01*
X0185141Y0078531D01*
X0184655Y0078531D01*
X0184258Y0078695D01*
X0186459Y0079755D01*
X0186459Y0079755D01*
X0191348Y0083654D01*
X0195247Y0088543D01*
X0197960Y0094177D01*
X0197995Y0094329D01*
X0197995Y0091037D01*
X0203252Y0091037D01*
X0203252Y0090078D01*
X0197995Y0090078D01*
X0197995Y0086383D01*
X0198118Y0085926D01*
X0198355Y0085515D01*
X0198690Y0085180D01*
X0199100Y0084943D01*
X0199558Y0084820D01*
X0203252Y0084820D01*
X0203252Y0090078D01*
X0204212Y0090078D01*
X0204212Y0091037D01*
X0209469Y0091037D01*
X0209469Y0094731D01*
X0209346Y0095189D01*
X0209109Y0095600D01*
X0208774Y0095935D01*
X0208364Y0096172D01*
X0207906Y0096294D01*
X0204212Y0096294D01*
X0204212Y0091037D01*
X0203252Y0091037D01*
X0203252Y0096294D01*
X0199558Y0096294D01*
X0199100Y0096172D01*
X0198690Y0095935D01*
X0198355Y0095600D01*
X0198239Y0095400D01*
X0199352Y0100273D01*
X0199352Y0102356D01*
X0208455Y0102356D01*
X0209906Y0102957D01*
X0211017Y0104068D01*
X0211619Y0105520D01*
X0211619Y0114965D01*
X0211017Y0116417D01*
X0209906Y0117528D01*
X0208455Y0118129D01*
X0199009Y0118129D01*
X0197558Y0117528D01*
X0196701Y0116671D01*
X0196852Y0117428D01*
X0196852Y0120900D01*
X0196906Y0121640D01*
X0197333Y0123057D01*
X0197508Y0123322D01*
X0197558Y0123272D01*
X0199009Y0122671D01*
X0208455Y0122671D01*
X0209906Y0123272D01*
X0211017Y0124383D01*
X0211619Y0125835D01*
X0211619Y0135280D01*
X0211017Y0136732D01*
X0209906Y0137843D01*
X0208455Y0138444D01*
X0199009Y0138444D01*
X0198397Y0138190D01*
X0202562Y0142356D01*
X0208455Y0142356D01*
X0209906Y0142957D01*
X0211017Y0144068D01*
X0211619Y0145520D01*
X0211619Y0154965D01*
X0211017Y0156417D01*
X0209906Y0157528D01*
X0208455Y0158129D01*
X0201409Y0158129D01*
X0204319Y0162671D01*
X0208455Y0162671D01*
X0209906Y0163272D01*
X0211017Y0164383D01*
X0211619Y0165835D01*
X0211619Y0175280D01*
X0211017Y0176732D01*
X0209906Y0177843D01*
X0208455Y0178444D01*
X0203193Y0178444D01*
X0205129Y0182356D01*
X0208455Y0182356D01*
X0209906Y0182957D01*
X0211017Y0184068D01*
X0211619Y0185520D01*
X0211619Y0194965D01*
X0211017Y0196417D01*
X0209906Y0197528D01*
X0208455Y0198129D01*
X0202677Y0198129D01*
X0205015Y0202671D01*
X0208455Y0202671D01*
X0209906Y0203272D01*
X0211017Y0204383D01*
X0211619Y0205835D01*
X0211619Y0215280D01*
X0211017Y0216732D01*
X0209906Y0217843D01*
X0208455Y0218444D01*
X0202239Y0218444D01*
X0204566Y0222356D01*
X0208455Y0222356D01*
X0209906Y0222957D01*
X0211017Y0224068D01*
X0211619Y0225520D01*
X0211619Y0234965D01*
X0211017Y0236417D01*
X0209906Y0237528D01*
X0208455Y0238129D01*
X0202363Y0238129D01*
X0204841Y0242671D01*
X0208455Y0242671D01*
X0209906Y0243272D01*
X0211017Y0244383D01*
X0211619Y0245835D01*
X0211619Y0255280D01*
X0211017Y0256732D01*
X0209906Y0257843D01*
X0208455Y0258444D01*
X0199009Y0258444D01*
X0197558Y0257843D01*
X0196447Y0256732D01*
X0195845Y0255280D01*
X0195845Y0246017D01*
X0162291Y0184499D01*
X0159804Y0184499D01*
X0157406Y0183506D01*
X0155571Y0181671D01*
X0154924Y0180109D01*
X0154844Y0180268D01*
X0154439Y0180825D01*
X0153952Y0181312D01*
X0153395Y0181716D01*
X0152781Y0182029D01*
X0152127Y0182242D01*
X0151446Y0182350D01*
X0151102Y0182350D01*
X0150758Y0182350D01*
X0150078Y0182242D01*
X0149423Y0182029D01*
X0148809Y0181716D01*
X0148252Y0181312D01*
X0147765Y0180825D01*
X0147360Y0180268D01*
X0147280Y0180109D01*
X0146633Y0181671D01*
X0145820Y0182484D01*
X0143682Y0187976D01*
X0139766Y0194794D01*
X0135875Y0199687D01*
X0137559Y0203183D01*
X0137559Y0203183D01*
X0137761Y0204069D01*
X0138003Y0204069D01*
X0138659Y0203797D01*
X0145774Y0203797D01*
X0146429Y0204069D01*
X0148003Y0204069D01*
X0148659Y0203797D01*
X0155774Y0203797D01*
X0157216Y0204394D01*
X0158659Y0203797D01*
X0165774Y0203797D01*
X0167225Y0204398D01*
X0168336Y0205509D01*
X0168937Y0206961D01*
X0168937Y0213797D01*
X0170774Y0213797D01*
X0172225Y0214398D01*
X0173336Y0215509D01*
X0173937Y0216961D01*
X0173937Y0224075D01*
X0173336Y0225527D01*
X0172225Y0226638D01*
X0170774Y0227239D01*
X0163659Y0227239D01*
X0162207Y0226638D01*
X0161096Y0225527D01*
X0160829Y0224882D01*
X0160683Y0224967D01*
X0160225Y0225090D01*
X0157302Y0225090D01*
X0157302Y0220604D01*
X0157130Y0220604D01*
X0157130Y0220432D01*
X0152645Y0220432D01*
X0152645Y0217509D01*
X0152717Y0217239D01*
X0151716Y0217239D01*
X0151788Y0217509D01*
X0151788Y0220432D01*
X0147302Y0220432D01*
X0147302Y0220604D01*
X0147130Y0220604D01*
X0147130Y0220432D01*
X0142645Y0220432D01*
X0142645Y0217509D01*
X0142717Y0217239D01*
X0141716Y0217239D01*
X0141788Y0217509D01*
X0141788Y0220432D01*
X0137302Y0220432D01*
X0137302Y0220604D01*
X0137130Y0220604D01*
X0137130Y0220432D01*
X0132645Y0220432D01*
X0132645Y0217509D01*
X0132717Y0217239D01*
X0128659Y0217239D01*
X0127207Y0216638D01*
X0126096Y0215527D01*
X0125495Y0214075D01*
X0125495Y0208554D01*
X0125252Y0207490D01*
X0124361Y0205640D01*
X0123081Y0204035D01*
X0121971Y0203150D01*
X0120494Y0202329D01*
X0118615Y0201703D01*
X0116140Y0201350D01*
X0112834Y0201350D01*
X0111808Y0201407D01*
X0109806Y0201864D01*
X0107956Y0202755D01*
X0106650Y0203797D01*
X0110774Y0203797D01*
X0112225Y0204398D01*
X0113336Y0205509D01*
X0113937Y0206961D01*
X0113937Y0213797D01*
X0115774Y0213797D01*
X0118374Y0215601D02*
X0126170Y0215601D01*
X0128562Y0217199D02*
X0118937Y0217199D01*
X0118937Y0218798D02*
X0132645Y0218798D01*
X0132645Y0220396D02*
X0118937Y0220396D01*
X0118937Y0221995D02*
X0132645Y0221995D01*
X0132645Y0220604D02*
X0137130Y0220604D01*
X0137130Y0225090D01*
X0134208Y0225090D01*
X0133750Y0224967D01*
X0133339Y0224730D01*
X0133004Y0224395D01*
X0132767Y0223985D01*
X0132645Y0223527D01*
X0132645Y0220604D01*
X0132662Y0223593D02*
X0118937Y0223593D01*
X0118475Y0225192D02*
X0160957Y0225192D01*
X0162574Y0226790D02*
X0116858Y0226790D01*
X0107574Y0226790D02*
X0040802Y0226790D01*
X0040802Y0225192D02*
X0105957Y0225192D01*
X0102130Y0225090D02*
X0102130Y0220604D01*
X0097645Y0220604D01*
X0097645Y0223527D01*
X0097767Y0223985D01*
X0098004Y0224395D01*
X0098339Y0224730D01*
X0098750Y0224967D01*
X0099208Y0225090D01*
X0102130Y0225090D01*
X0102130Y0223593D02*
X0102302Y0223593D01*
X0102302Y0221995D02*
X0102130Y0221995D01*
X0097645Y0221995D02*
X0096788Y0221995D01*
X0096788Y0220604D02*
X0096788Y0223527D01*
X0096665Y0223985D01*
X0096428Y0224395D01*
X0096093Y0224730D01*
X0095683Y0224967D01*
X0095225Y0225090D01*
X0092302Y0225090D01*
X0092302Y0220604D01*
X0096788Y0220604D01*
X0096788Y0220396D02*
X0097645Y0220396D01*
X0097645Y0218798D02*
X0096788Y0218798D01*
X0096770Y0223593D02*
X0097662Y0223593D01*
X0092302Y0223593D02*
X0092130Y0223593D01*
X0092130Y0225090D02*
X0089208Y0225090D01*
X0088750Y0224967D01*
X0088339Y0224730D01*
X0088004Y0224395D01*
X0087767Y0223985D01*
X0087645Y0223527D01*
X0087645Y0220604D01*
X0092130Y0220604D01*
X0092130Y0225090D01*
X0092130Y0221995D02*
X0092302Y0221995D01*
X0087645Y0221995D02*
X0086788Y0221995D01*
X0086788Y0220604D02*
X0086788Y0223527D01*
X0086665Y0223985D01*
X0086428Y0224395D01*
X0086093Y0224730D01*
X0085683Y0224967D01*
X0085225Y0225090D01*
X0082302Y0225090D01*
X0082302Y0220604D01*
X0086788Y0220604D01*
X0086788Y0220396D02*
X0087645Y0220396D01*
X0087645Y0218798D02*
X0086788Y0218798D01*
X0082130Y0220604D02*
X0082130Y0225090D01*
X0079208Y0225090D01*
X0078750Y0224967D01*
X0078339Y0224730D01*
X0078004Y0224395D01*
X0077767Y0223985D01*
X0077645Y0223527D01*
X0077645Y0220604D01*
X0082130Y0220604D01*
X0082130Y0221995D02*
X0082302Y0221995D01*
X0082302Y0223593D02*
X0082130Y0223593D01*
X0086770Y0223593D02*
X0087662Y0223593D01*
X0077662Y0223593D02*
X0040802Y0223593D01*
X0040802Y0221995D02*
X0077645Y0221995D01*
X0077645Y0220396D02*
X0040802Y0220396D01*
X0040802Y0218798D02*
X0077645Y0218798D01*
X0073562Y0217199D02*
X0040802Y0217199D01*
X0040802Y0215601D02*
X0066240Y0215601D01*
X0066658Y0215774D02*
X0066658Y0215774D01*
X0062381Y0214002D02*
X0040802Y0214002D01*
X0040802Y0212403D02*
X0059465Y0212403D01*
X0061004Y0213432D02*
X0061004Y0213432D01*
X0057073Y0210805D02*
X0040802Y0210805D01*
X0040802Y0209206D02*
X0055090Y0209206D01*
X0053492Y0207608D02*
X0040802Y0207608D01*
X0040802Y0206009D02*
X0051893Y0206009D01*
X0050724Y0204411D02*
X0040802Y0204411D01*
X0040802Y0202812D02*
X0049656Y0202812D01*
X0048588Y0201214D02*
X0040802Y0201214D01*
X0040802Y0199615D02*
X0047774Y0199615D01*
X0048188Y0200616D02*
X0048188Y0200616D01*
X0047112Y0198017D02*
X0040802Y0198017D01*
X0040802Y0196418D02*
X0046450Y0196418D01*
X0045846Y0194962D02*
X0045846Y0194962D01*
X0045818Y0194820D02*
X0040802Y0194820D01*
X0040802Y0193221D02*
X0045500Y0193221D01*
X0045182Y0191623D02*
X0040802Y0191623D01*
X0040802Y0190024D02*
X0044864Y0190024D01*
X0044652Y0188426D02*
X0040802Y0188426D01*
X0040802Y0186827D02*
X0044652Y0186827D01*
X0044652Y0185229D02*
X0040802Y0185229D01*
X0040802Y0183630D02*
X0044775Y0183630D01*
X0045849Y0182032D02*
X0040802Y0182032D01*
X0040802Y0180433D02*
X0047448Y0180433D01*
X0040802Y0178835D02*
X0091450Y0178835D01*
X0090713Y0179572D02*
X0093730Y0176555D01*
X0087687Y0156650D01*
X0086459Y0156650D01*
X0083979Y0155622D01*
X0082080Y0153723D01*
X0081052Y0151243D01*
X0081052Y0148557D01*
X0082080Y0146077D01*
X0083257Y0144900D01*
X0083006Y0144650D01*
X0063023Y0144650D01*
X0061641Y0146031D01*
X0060863Y0146031D01*
X0063083Y0148251D01*
X0063083Y0149900D01*
X0063083Y0151549D01*
X0060751Y0153881D01*
X0059102Y0153881D01*
X0057453Y0153881D01*
X0055121Y0151549D01*
X0055121Y0149900D01*
X0059102Y0149900D01*
X0059102Y0149900D01*
X0055121Y0149900D01*
X0055121Y0148251D01*
X0057341Y0146031D01*
X0056563Y0146031D01*
X0052971Y0142439D01*
X0052971Y0137361D01*
X0056563Y0133769D01*
X0061641Y0133769D01*
X0063023Y0135150D01*
X0083006Y0135150D01*
X0083979Y0134178D01*
X0086459Y0133150D01*
X0094745Y0133150D01*
X0097225Y0134178D01*
X0099124Y0136077D01*
X0100152Y0138557D01*
X0100152Y0141243D01*
X0099124Y0143723D01*
X0097947Y0144900D01*
X0099124Y0146077D01*
X0100152Y0148557D01*
X0100152Y0151243D01*
X0099124Y0153723D01*
X0097285Y0155563D01*
X0102845Y0173880D01*
X0106779Y0174774D01*
X0107481Y0174072D01*
X0112723Y0174072D01*
X0116430Y0177779D01*
X0116430Y0183021D01*
X0112723Y0186728D01*
X0107481Y0186728D01*
X0104825Y0184071D01*
X0100606Y0183113D01*
X0097430Y0186289D01*
X0097430Y0188521D01*
X0093723Y0192228D01*
X0088481Y0192228D01*
X0084775Y0188521D01*
X0084775Y0183279D01*
X0088481Y0179572D01*
X0090713Y0179572D01*
X0087620Y0180433D02*
X0054756Y0180433D01*
X0056355Y0182032D02*
X0086022Y0182032D01*
X0084775Y0183630D02*
X0057430Y0183630D01*
X0057552Y0185229D02*
X0084775Y0185229D01*
X0084775Y0186827D02*
X0057597Y0186827D01*
X0057787Y0188426D02*
X0084775Y0188426D01*
X0086278Y0190024D02*
X0058105Y0190024D01*
X0058520Y0191623D02*
X0087876Y0191623D01*
X0094328Y0191623D02*
X0101210Y0191623D01*
X0101019Y0191715D02*
X0101019Y0191715D01*
X0099130Y0193221D02*
X0059182Y0193221D01*
X0059934Y0194820D02*
X0097128Y0194820D01*
X0097131Y0194815D02*
X0097131Y0194815D01*
X0095853Y0196418D02*
X0061002Y0196418D01*
X0062267Y0198017D02*
X0094578Y0198017D01*
X0094031Y0198703D02*
X0094031Y0198703D01*
X0093591Y0199615D02*
X0063865Y0199615D01*
X0066094Y0201214D02*
X0092822Y0201214D01*
X0092052Y0202812D02*
X0069302Y0202812D01*
X0091102Y0185900D02*
X0099102Y0177900D01*
X0110102Y0180400D01*
X0116430Y0180433D02*
X0125058Y0180433D01*
X0124578Y0178835D02*
X0116430Y0178835D01*
X0115887Y0177236D02*
X0124578Y0177236D01*
X0124578Y0175638D02*
X0114288Y0175638D01*
X0116430Y0182032D02*
X0125932Y0182032D01*
X0127707Y0183630D02*
X0115820Y0183630D01*
X0114222Y0185229D02*
X0130256Y0185229D01*
X0129338Y0186827D02*
X0097430Y0186827D01*
X0097430Y0188426D02*
X0115880Y0188426D01*
X0116884Y0188426D02*
X0128208Y0188426D01*
X0126937Y0190024D02*
X0124903Y0190024D01*
X0123933Y0189557D02*
X0123933Y0189557D01*
X0135932Y0199615D02*
X0170536Y0199615D01*
X0169664Y0198017D02*
X0137203Y0198017D01*
X0138474Y0196418D02*
X0168792Y0196418D01*
X0167921Y0194820D02*
X0139745Y0194820D01*
X0139766Y0194794D02*
X0139766Y0194794D01*
X0140669Y0193221D02*
X0167049Y0193221D01*
X0166177Y0191623D02*
X0141587Y0191623D01*
X0142506Y0190024D02*
X0165305Y0190024D01*
X0164433Y0188426D02*
X0143424Y0188426D01*
X0143682Y0187976D02*
X0143682Y0187976D01*
X0144129Y0186827D02*
X0163561Y0186827D01*
X0162689Y0185229D02*
X0144751Y0185229D01*
X0145374Y0183630D02*
X0157707Y0183630D01*
X0155932Y0182032D02*
X0152773Y0182032D01*
X0151102Y0182032D02*
X0151102Y0182032D01*
X0151102Y0182350D02*
X0151102Y0175400D01*
X0151102Y0175400D01*
X0151102Y0175400D01*
X0151102Y0168450D01*
X0150758Y0168450D01*
X0150078Y0168558D01*
X0149423Y0168771D01*
X0149172Y0168899D01*
X0152653Y0153393D01*
X0152950Y0154110D01*
X0154792Y0155952D01*
X0156352Y0156599D01*
X0156352Y0168348D01*
X0155571Y0169129D01*
X0154924Y0170690D01*
X0154844Y0170532D01*
X0154439Y0169975D01*
X0153952Y0169488D01*
X0153395Y0169084D01*
X0152781Y0168771D01*
X0152127Y0168558D01*
X0151446Y0168450D01*
X0151102Y0168450D01*
X0151102Y0175400D01*
X0151102Y0182350D01*
X0149431Y0182032D02*
X0146272Y0182032D01*
X0147146Y0180433D02*
X0147481Y0180433D01*
X0151102Y0180433D02*
X0151102Y0180433D01*
X0151102Y0178835D02*
X0151102Y0178835D01*
X0151102Y0177236D02*
X0151102Y0177236D01*
X0151102Y0175638D02*
X0151102Y0175638D01*
X0151102Y0174039D02*
X0151102Y0174039D01*
X0151102Y0172441D02*
X0151102Y0172441D01*
X0151102Y0170842D02*
X0151102Y0170842D01*
X0151102Y0169244D02*
X0151102Y0169244D01*
X0149453Y0167645D02*
X0156352Y0167645D01*
X0156352Y0166047D02*
X0149812Y0166047D01*
X0150171Y0164448D02*
X0156352Y0164448D01*
X0156352Y0162850D02*
X0150530Y0162850D01*
X0150888Y0161251D02*
X0156352Y0161251D01*
X0156352Y0159653D02*
X0151247Y0159653D01*
X0151606Y0158054D02*
X0156352Y0158054D01*
X0156007Y0156456D02*
X0151965Y0156456D01*
X0152324Y0154857D02*
X0153697Y0154857D01*
X0161102Y0140400D02*
X0161344Y0140403D01*
X0161585Y0140412D01*
X0161826Y0140426D01*
X0162067Y0140447D01*
X0162307Y0140473D01*
X0162547Y0140505D01*
X0162786Y0140543D01*
X0163023Y0140586D01*
X0163260Y0140636D01*
X0163495Y0140691D01*
X0163729Y0140751D01*
X0163961Y0140818D01*
X0164192Y0140889D01*
X0164421Y0140967D01*
X0164648Y0141050D01*
X0164873Y0141138D01*
X0165096Y0141232D01*
X0165316Y0141331D01*
X0165534Y0141436D01*
X0165749Y0141545D01*
X0165962Y0141660D01*
X0166172Y0141780D01*
X0166378Y0141905D01*
X0166582Y0142035D01*
X0166783Y0142170D01*
X0166980Y0142310D01*
X0167174Y0142454D01*
X0167364Y0142603D01*
X0167550Y0142757D01*
X0167733Y0142915D01*
X0167912Y0143077D01*
X0168087Y0143244D01*
X0168258Y0143415D01*
X0168425Y0143590D01*
X0168587Y0143769D01*
X0168745Y0143952D01*
X0168899Y0144138D01*
X0169048Y0144328D01*
X0169192Y0144522D01*
X0169332Y0144719D01*
X0169467Y0144920D01*
X0169597Y0145124D01*
X0169722Y0145330D01*
X0169842Y0145540D01*
X0169957Y0145753D01*
X0170066Y0145968D01*
X0170171Y0146186D01*
X0170270Y0146406D01*
X0170364Y0146629D01*
X0170452Y0146854D01*
X0170535Y0147081D01*
X0170613Y0147310D01*
X0170684Y0147541D01*
X0170751Y0147773D01*
X0170811Y0148007D01*
X0170866Y0148242D01*
X0170916Y0148479D01*
X0170959Y0148716D01*
X0170997Y0148955D01*
X0171029Y0149195D01*
X0171055Y0149435D01*
X0171076Y0149676D01*
X0171090Y0149917D01*
X0171099Y0150158D01*
X0171102Y0150400D01*
X0171102Y0175400D01*
X0203732Y0230243D01*
X0208815Y0237980D02*
X0284713Y0237980D01*
X0284713Y0239578D02*
X0203154Y0239578D01*
X0204026Y0241177D02*
X0284713Y0241177D01*
X0284713Y0242775D02*
X0208707Y0242775D01*
X0211008Y0244374D02*
X0284713Y0244374D01*
X0284713Y0245972D02*
X0211619Y0245972D01*
X0211619Y0247571D02*
X0284713Y0247571D01*
X0284713Y0249169D02*
X0211619Y0249169D01*
X0211619Y0250768D02*
X0265116Y0250768D01*
X0263964Y0251245D02*
X0267175Y0249915D01*
X0270651Y0249915D01*
X0273862Y0251245D01*
X0276320Y0253703D01*
X0277650Y0256914D01*
X0277650Y0260390D01*
X0276320Y0263601D01*
X0273862Y0266059D01*
X0270651Y0267389D01*
X0267175Y0267389D01*
X0263964Y0266059D01*
X0261506Y0263601D01*
X0260176Y0260390D01*
X0260176Y0256914D01*
X0261506Y0253703D01*
X0263964Y0251245D01*
X0262843Y0252366D02*
X0211619Y0252366D01*
X0211619Y0253965D02*
X0261398Y0253965D01*
X0260736Y0255563D02*
X0211501Y0255563D01*
X0210587Y0257162D02*
X0260176Y0257162D01*
X0260176Y0258760D02*
X0190914Y0258760D01*
X0190914Y0259146D02*
X0190914Y0255906D01*
X0189674Y0252911D01*
X0187382Y0250620D01*
X0184388Y0249380D01*
X0182774Y0249380D01*
X0183414Y0246992D01*
X0183414Y0244044D01*
X0182651Y0241196D01*
X0181177Y0238643D01*
X0179092Y0236558D01*
X0176538Y0235084D01*
X0173690Y0234320D01*
X0170742Y0234320D01*
X0167894Y0235084D01*
X0165341Y0236558D01*
X0163256Y0238643D01*
X0161782Y0241196D01*
X0161019Y0244044D01*
X0161019Y0246992D01*
X0161782Y0249840D01*
X0163256Y0252394D01*
X0165341Y0254478D01*
X0167894Y0255953D01*
X0170742Y0256716D01*
X0173690Y0256716D01*
X0174621Y0256466D01*
X0174621Y0259146D01*
X0175861Y0262141D01*
X0178153Y0264432D01*
X0181147Y0265672D01*
X0184388Y0265672D01*
X0187382Y0264432D01*
X0189674Y0262141D01*
X0190914Y0259146D01*
X0190412Y0260359D02*
X0260176Y0260359D01*
X0260825Y0261957D02*
X0189750Y0261957D01*
X0188258Y0263556D02*
X0261487Y0263556D01*
X0263059Y0265154D02*
X0209063Y0265154D01*
X0209109Y0265200D02*
X0209346Y0265611D01*
X0209469Y0266069D01*
X0209469Y0269763D01*
X0204212Y0269763D01*
X0204212Y0270722D01*
X0209469Y0270722D01*
X0209469Y0274416D01*
X0209346Y0274874D01*
X0209109Y0275285D01*
X0208774Y0275620D01*
X0208364Y0275857D01*
X0207906Y0275980D01*
X0204212Y0275980D01*
X0204212Y0270722D01*
X0203252Y0270722D01*
X0203252Y0269763D01*
X0197995Y0269763D01*
X0197995Y0266069D01*
X0198118Y0265611D01*
X0198355Y0265200D01*
X0198690Y0264865D01*
X0199100Y0264628D01*
X0199558Y0264506D01*
X0203252Y0264506D01*
X0203252Y0269763D01*
X0204212Y0269763D01*
X0204212Y0264506D01*
X0207906Y0264506D01*
X0208364Y0264628D01*
X0208774Y0264865D01*
X0209109Y0265200D01*
X0209469Y0266753D02*
X0265640Y0266753D01*
X0272187Y0266753D02*
X0284713Y0266753D01*
X0284713Y0268351D02*
X0209469Y0268351D01*
X0209469Y0271548D02*
X0284713Y0271548D01*
X0284713Y0269950D02*
X0204212Y0269950D01*
X0203252Y0269950D02*
X0054650Y0269950D01*
X0054650Y0271548D02*
X0197995Y0271548D01*
X0197995Y0270722D02*
X0197995Y0274416D01*
X0198118Y0274874D01*
X0198355Y0275285D01*
X0198690Y0275620D01*
X0199100Y0275857D01*
X0199558Y0275980D01*
X0203252Y0275980D01*
X0203252Y0270722D01*
X0197995Y0270722D01*
X0197995Y0268351D02*
X0054417Y0268351D01*
X0053755Y0266753D02*
X0197995Y0266753D01*
X0198401Y0265154D02*
X0185639Y0265154D01*
X0179896Y0265154D02*
X0064536Y0265154D01*
X0063285Y0265672D02*
X0066280Y0264432D01*
X0068571Y0262141D01*
X0069812Y0259146D01*
X0069812Y0256466D01*
X0070742Y0256716D01*
X0073690Y0256716D01*
X0076538Y0255953D01*
X0079092Y0254478D01*
X0081177Y0252394D01*
X0082651Y0249840D01*
X0083414Y0246992D01*
X0083414Y0244044D01*
X0082651Y0241196D01*
X0081177Y0238643D01*
X0079092Y0236558D01*
X0076538Y0235084D01*
X0073690Y0234320D01*
X0070742Y0234320D01*
X0067894Y0235084D01*
X0065341Y0236558D01*
X0063256Y0238643D01*
X0061782Y0241196D01*
X0061019Y0244044D01*
X0061019Y0246992D01*
X0061658Y0249380D01*
X0060045Y0249380D01*
X0057050Y0250620D01*
X0054759Y0252911D01*
X0053519Y0255906D01*
X0053519Y0259146D01*
X0054759Y0262141D01*
X0057050Y0264432D01*
X0060045Y0265672D01*
X0063285Y0265672D01*
X0058794Y0265154D02*
X0052771Y0265154D01*
X0051173Y0263556D02*
X0056174Y0263556D01*
X0054683Y0261957D02*
X0047753Y0261957D01*
X0044073Y0261957D02*
X0040802Y0261957D01*
X0040802Y0260359D02*
X0054021Y0260359D01*
X0053519Y0258760D02*
X0040802Y0258760D01*
X0040802Y0257162D02*
X0053519Y0257162D01*
X0053660Y0255563D02*
X0040802Y0255563D01*
X0040802Y0253965D02*
X0054322Y0253965D01*
X0055304Y0252366D02*
X0040802Y0252366D01*
X0040802Y0250768D02*
X0056902Y0250768D01*
X0061174Y0247571D02*
X0040802Y0247571D01*
X0040802Y0249169D02*
X0061602Y0249169D01*
X0061019Y0245972D02*
X0040802Y0245972D01*
X0040802Y0244374D02*
X0061019Y0244374D01*
X0061359Y0242775D02*
X0040802Y0242775D01*
X0040802Y0241177D02*
X0061793Y0241177D01*
X0062716Y0239578D02*
X0040802Y0239578D01*
X0040802Y0237980D02*
X0063919Y0237980D01*
X0065647Y0236381D02*
X0040802Y0236381D01*
X0040802Y0234783D02*
X0069017Y0234783D01*
X0075415Y0234783D02*
X0169017Y0234783D01*
X0165647Y0236381D02*
X0078786Y0236381D01*
X0080514Y0237980D02*
X0163919Y0237980D01*
X0162716Y0239578D02*
X0081717Y0239578D01*
X0082640Y0241177D02*
X0161793Y0241177D01*
X0161359Y0242775D02*
X0083074Y0242775D01*
X0083414Y0244374D02*
X0161019Y0244374D01*
X0161019Y0245972D02*
X0083414Y0245972D01*
X0083259Y0247571D02*
X0161174Y0247571D01*
X0161602Y0249169D02*
X0082831Y0249169D01*
X0082115Y0250768D02*
X0162317Y0250768D01*
X0163240Y0252366D02*
X0081192Y0252366D01*
X0079605Y0253965D02*
X0164827Y0253965D01*
X0167220Y0255563D02*
X0077213Y0255563D01*
X0069812Y0257162D02*
X0174621Y0257162D01*
X0174621Y0258760D02*
X0069812Y0258760D01*
X0069309Y0260359D02*
X0175123Y0260359D01*
X0175785Y0261957D02*
X0068647Y0261957D01*
X0067156Y0263556D02*
X0177276Y0263556D01*
X0189129Y0252366D02*
X0195845Y0252366D01*
X0195845Y0250768D02*
X0187530Y0250768D01*
X0190110Y0253965D02*
X0195845Y0253965D01*
X0195963Y0255563D02*
X0190772Y0255563D01*
X0190914Y0257162D02*
X0196877Y0257162D01*
X0203732Y0250557D02*
X0161102Y0172400D01*
X0161102Y0175400D01*
X0161102Y0172400D02*
X0161102Y0150400D01*
X0175602Y0144900D02*
X0175598Y0144550D01*
X0175585Y0144199D01*
X0175564Y0143850D01*
X0175534Y0143501D01*
X0175496Y0143152D01*
X0175450Y0142805D01*
X0175395Y0142459D01*
X0175332Y0142114D01*
X0175260Y0141771D01*
X0175181Y0141430D01*
X0175093Y0141091D01*
X0174997Y0140754D01*
X0174892Y0140419D01*
X0174780Y0140087D01*
X0174660Y0139758D01*
X0174532Y0139432D01*
X0174395Y0139109D01*
X0174252Y0138790D01*
X0174100Y0138474D01*
X0173941Y0138162D01*
X0173775Y0137853D01*
X0173601Y0137549D01*
X0173419Y0137249D01*
X0173231Y0136954D01*
X0173035Y0136663D01*
X0172833Y0136377D01*
X0172623Y0136096D01*
X0172407Y0135820D01*
X0172185Y0135550D01*
X0171955Y0135285D01*
X0171720Y0135025D01*
X0171478Y0134772D01*
X0171230Y0134524D01*
X0170977Y0134282D01*
X0170717Y0134047D01*
X0170452Y0133817D01*
X0170182Y0133595D01*
X0169906Y0133379D01*
X0169625Y0133169D01*
X0169339Y0132967D01*
X0169048Y0132771D01*
X0168753Y0132583D01*
X0168453Y0132401D01*
X0168149Y0132227D01*
X0167840Y0132061D01*
X0167528Y0131902D01*
X0167212Y0131750D01*
X0166893Y0131607D01*
X0166570Y0131470D01*
X0166244Y0131342D01*
X0165915Y0131222D01*
X0165583Y0131110D01*
X0165248Y0131005D01*
X0164911Y0130909D01*
X0164572Y0130821D01*
X0164231Y0130742D01*
X0163888Y0130670D01*
X0163543Y0130607D01*
X0163197Y0130552D01*
X0162850Y0130506D01*
X0162501Y0130468D01*
X0162152Y0130438D01*
X0161803Y0130417D01*
X0161452Y0130404D01*
X0161102Y0130400D01*
X0179602Y0128900D02*
X0179597Y0128453D01*
X0179580Y0128006D01*
X0179553Y0127560D01*
X0179516Y0127114D01*
X0179467Y0126670D01*
X0179408Y0126227D01*
X0179338Y0125785D01*
X0179257Y0125346D01*
X0179166Y0124908D01*
X0179064Y0124473D01*
X0178952Y0124040D01*
X0178830Y0123610D01*
X0178697Y0123183D01*
X0178553Y0122760D01*
X0178400Y0122340D01*
X0178236Y0121924D01*
X0178063Y0121512D01*
X0177879Y0121104D01*
X0177686Y0120701D01*
X0177483Y0120303D01*
X0177270Y0119909D01*
X0177048Y0119521D01*
X0176817Y0119139D01*
X0176577Y0118762D01*
X0176327Y0118391D01*
X0176069Y0118026D01*
X0175802Y0117667D01*
X0175526Y0117316D01*
X0175242Y0116970D01*
X0174949Y0116632D01*
X0174649Y0116301D01*
X0174341Y0115978D01*
X0174024Y0115661D01*
X0173701Y0115353D01*
X0173370Y0115053D01*
X0173032Y0114760D01*
X0172686Y0114476D01*
X0172335Y0114200D01*
X0171976Y0113933D01*
X0171611Y0113675D01*
X0171240Y0113425D01*
X0170863Y0113185D01*
X0170481Y0112954D01*
X0170093Y0112732D01*
X0169699Y0112519D01*
X0169301Y0112316D01*
X0168898Y0112123D01*
X0168490Y0111939D01*
X0168078Y0111766D01*
X0167662Y0111602D01*
X0167242Y0111449D01*
X0166819Y0111305D01*
X0166392Y0111172D01*
X0165962Y0111050D01*
X0165529Y0110938D01*
X0165094Y0110836D01*
X0164656Y0110745D01*
X0164217Y0110664D01*
X0163775Y0110594D01*
X0163332Y0110535D01*
X0162888Y0110486D01*
X0162442Y0110449D01*
X0161996Y0110422D01*
X0161549Y0110405D01*
X0161102Y0110400D01*
X0161102Y0120400D02*
X0162102Y0120400D01*
X0161602Y0090400D02*
X0162339Y0090409D01*
X0163076Y0090436D01*
X0163811Y0090480D01*
X0164546Y0090542D01*
X0165278Y0090622D01*
X0166009Y0090720D01*
X0166737Y0090835D01*
X0167462Y0090968D01*
X0168183Y0091119D01*
X0168901Y0091286D01*
X0169615Y0091471D01*
X0170323Y0091674D01*
X0171027Y0091893D01*
X0171725Y0092129D01*
X0172417Y0092382D01*
X0173103Y0092652D01*
X0173783Y0092938D01*
X0174455Y0093240D01*
X0175119Y0093559D01*
X0175776Y0093894D01*
X0176424Y0094244D01*
X0177064Y0094610D01*
X0177695Y0094991D01*
X0178316Y0095388D01*
X0178928Y0095799D01*
X0179529Y0096225D01*
X0180120Y0096665D01*
X0180701Y0097120D01*
X0181270Y0097588D01*
X0181827Y0098070D01*
X0182373Y0098566D01*
X0182907Y0099074D01*
X0183428Y0099595D01*
X0183936Y0100129D01*
X0184432Y0100675D01*
X0184914Y0101232D01*
X0185382Y0101801D01*
X0185837Y0102382D01*
X0186277Y0102973D01*
X0186703Y0103574D01*
X0187114Y0104186D01*
X0187511Y0104807D01*
X0187892Y0105438D01*
X0188258Y0106078D01*
X0188608Y0106726D01*
X0188943Y0107383D01*
X0189262Y0108047D01*
X0189564Y0108719D01*
X0189850Y0109399D01*
X0190120Y0110085D01*
X0190373Y0110777D01*
X0190609Y0111475D01*
X0190828Y0112179D01*
X0191031Y0112887D01*
X0191216Y0113601D01*
X0191383Y0114319D01*
X0191534Y0115040D01*
X0191667Y0115765D01*
X0191782Y0116493D01*
X0191880Y0117224D01*
X0191960Y0117956D01*
X0192022Y0118691D01*
X0192066Y0119426D01*
X0192093Y0120163D01*
X0192102Y0120900D01*
X0196880Y0121288D02*
X0284713Y0121288D01*
X0284713Y0119690D02*
X0196852Y0119690D01*
X0196852Y0118091D02*
X0198918Y0118091D01*
X0192102Y0120900D02*
X0192105Y0121140D01*
X0192114Y0121379D01*
X0192128Y0121618D01*
X0192149Y0121857D01*
X0192175Y0122095D01*
X0192207Y0122332D01*
X0192245Y0122569D01*
X0192288Y0122804D01*
X0192338Y0123039D01*
X0192393Y0123272D01*
X0192453Y0123504D01*
X0192520Y0123734D01*
X0192591Y0123962D01*
X0192669Y0124189D01*
X0192752Y0124414D01*
X0192840Y0124637D01*
X0192934Y0124857D01*
X0193033Y0125075D01*
X0193138Y0125291D01*
X0193247Y0125504D01*
X0193362Y0125714D01*
X0193482Y0125921D01*
X0193607Y0126126D01*
X0193737Y0126327D01*
X0193872Y0126525D01*
X0194011Y0126720D01*
X0194155Y0126911D01*
X0194304Y0127099D01*
X0194458Y0127283D01*
X0194615Y0127463D01*
X0194778Y0127639D01*
X0194944Y0127812D01*
X0195115Y0127980D01*
X0195289Y0128144D01*
X0195468Y0128303D01*
X0195650Y0128459D01*
X0195836Y0128609D01*
X0196026Y0128756D01*
X0196219Y0128897D01*
X0196416Y0129034D01*
X0196616Y0129166D01*
X0196819Y0129293D01*
X0197025Y0129415D01*
X0197234Y0129532D01*
X0197446Y0129644D01*
X0197661Y0129750D01*
X0197878Y0129852D01*
X0198097Y0129948D01*
X0198319Y0130039D01*
X0198543Y0130124D01*
X0198769Y0130204D01*
X0198997Y0130278D01*
X0199226Y0130346D01*
X0199457Y0130409D01*
X0199690Y0130467D01*
X0199924Y0130519D01*
X0200159Y0130565D01*
X0200395Y0130605D01*
X0200632Y0130639D01*
X0200870Y0130668D01*
X0201108Y0130691D01*
X0201347Y0130708D01*
X0201587Y0130719D01*
X0201826Y0130724D01*
X0202066Y0130724D01*
X0202305Y0130718D01*
X0202544Y0130706D01*
X0202783Y0130688D01*
X0203022Y0130664D01*
X0203259Y0130634D01*
X0203496Y0130599D01*
X0203732Y0130558D01*
X0208976Y0122887D02*
X0284713Y0122887D01*
X0284713Y0124485D02*
X0211060Y0124485D01*
X0211619Y0126084D02*
X0284713Y0126084D01*
X0284713Y0127682D02*
X0211619Y0127682D01*
X0211619Y0129281D02*
X0284713Y0129281D01*
X0284713Y0130879D02*
X0211619Y0130879D01*
X0211619Y0132478D02*
X0264523Y0132478D01*
X0264675Y0132415D02*
X0268151Y0132415D01*
X0271362Y0133745D01*
X0273820Y0136203D01*
X0275150Y0139414D01*
X0275150Y0142890D01*
X0273820Y0146101D01*
X0271362Y0148559D01*
X0268151Y0149889D01*
X0264675Y0149889D01*
X0261464Y0148559D01*
X0259006Y0146101D01*
X0257676Y0142890D01*
X0257676Y0139414D01*
X0259006Y0136203D01*
X0261464Y0133745D01*
X0264675Y0132415D01*
X0261133Y0134076D02*
X0211619Y0134076D01*
X0211455Y0135675D02*
X0259534Y0135675D01*
X0258563Y0137273D02*
X0210476Y0137273D01*
X0210617Y0143668D02*
X0257998Y0143668D01*
X0257676Y0142069D02*
X0202275Y0142069D01*
X0200677Y0140470D02*
X0257676Y0140470D01*
X0257901Y0138872D02*
X0199078Y0138872D01*
X0203732Y0150243D02*
X0185102Y0131613D01*
X0185102Y0124400D01*
X0179602Y0128900D02*
X0179602Y0132900D01*
X0203732Y0170557D01*
X0211619Y0170842D02*
X0284713Y0170842D01*
X0284713Y0169244D02*
X0211619Y0169244D01*
X0211619Y0167645D02*
X0284713Y0167645D01*
X0284713Y0166047D02*
X0211619Y0166047D01*
X0211044Y0164448D02*
X0284713Y0164448D01*
X0284713Y0162850D02*
X0208886Y0162850D01*
X0208636Y0158054D02*
X0284713Y0158054D01*
X0284713Y0156456D02*
X0210978Y0156456D01*
X0211619Y0154857D02*
X0284713Y0154857D01*
X0284713Y0153259D02*
X0211619Y0153259D01*
X0211619Y0151660D02*
X0284713Y0151660D01*
X0284713Y0150062D02*
X0211619Y0150062D01*
X0211619Y0148463D02*
X0261368Y0148463D01*
X0259770Y0146865D02*
X0211619Y0146865D01*
X0211513Y0145266D02*
X0258660Y0145266D01*
X0268303Y0132478D02*
X0284713Y0132478D01*
X0284713Y0134076D02*
X0271694Y0134076D01*
X0273292Y0135675D02*
X0284713Y0135675D01*
X0284713Y0137273D02*
X0274263Y0137273D01*
X0274926Y0138872D02*
X0284713Y0138872D01*
X0284713Y0140470D02*
X0275150Y0140470D01*
X0275150Y0142069D02*
X0284713Y0142069D01*
X0284713Y0143668D02*
X0274828Y0143668D01*
X0274166Y0145266D02*
X0284713Y0145266D01*
X0284713Y0146865D02*
X0273057Y0146865D01*
X0271458Y0148463D02*
X0284713Y0148463D01*
X0284713Y0159653D02*
X0202385Y0159653D01*
X0203410Y0161251D02*
X0284713Y0161251D01*
X0284713Y0172441D02*
X0211619Y0172441D01*
X0211619Y0174039D02*
X0284713Y0174039D01*
X0284713Y0175638D02*
X0211470Y0175638D01*
X0210513Y0177236D02*
X0284713Y0177236D01*
X0284713Y0178835D02*
X0203387Y0178835D01*
X0204178Y0180433D02*
X0284713Y0180433D01*
X0284713Y0182032D02*
X0204969Y0182032D01*
X0210579Y0183630D02*
X0284713Y0183630D01*
X0284713Y0185229D02*
X0211498Y0185229D01*
X0211619Y0186827D02*
X0284713Y0186827D01*
X0284713Y0188426D02*
X0211619Y0188426D01*
X0211619Y0190024D02*
X0284713Y0190024D01*
X0284713Y0191623D02*
X0211619Y0191623D01*
X0211619Y0193221D02*
X0284713Y0193221D01*
X0284713Y0194820D02*
X0211619Y0194820D01*
X0211016Y0196418D02*
X0284713Y0196418D01*
X0284713Y0198017D02*
X0208726Y0198017D01*
X0204265Y0201214D02*
X0284713Y0201214D01*
X0284713Y0202812D02*
X0208796Y0202812D01*
X0211029Y0204411D02*
X0284713Y0204411D01*
X0284713Y0206009D02*
X0211619Y0206009D01*
X0211619Y0207608D02*
X0284713Y0207608D01*
X0284713Y0209206D02*
X0211619Y0209206D01*
X0211619Y0210805D02*
X0284713Y0210805D01*
X0284713Y0212403D02*
X0211619Y0212403D01*
X0211619Y0214002D02*
X0284713Y0214002D01*
X0284713Y0215601D02*
X0211486Y0215601D01*
X0210550Y0217199D02*
X0284713Y0217199D01*
X0284713Y0218798D02*
X0202449Y0218798D01*
X0203400Y0220396D02*
X0284713Y0220396D01*
X0284713Y0221995D02*
X0204351Y0221995D01*
X0210542Y0223593D02*
X0284713Y0223593D01*
X0284713Y0225192D02*
X0211483Y0225192D01*
X0211619Y0226790D02*
X0284713Y0226790D01*
X0284713Y0228389D02*
X0211619Y0228389D01*
X0211619Y0229987D02*
X0284713Y0229987D01*
X0284713Y0231586D02*
X0211619Y0231586D01*
X0211619Y0233184D02*
X0284713Y0233184D01*
X0284713Y0234783D02*
X0211619Y0234783D01*
X0211032Y0236381D02*
X0284713Y0236381D01*
X0284713Y0250768D02*
X0272710Y0250768D01*
X0274983Y0252366D02*
X0284713Y0252366D01*
X0284713Y0253965D02*
X0276428Y0253965D01*
X0277091Y0255563D02*
X0284713Y0255563D01*
X0284713Y0257162D02*
X0277650Y0257162D01*
X0277650Y0258760D02*
X0284713Y0258760D01*
X0284713Y0260359D02*
X0277650Y0260359D01*
X0277001Y0261957D02*
X0284713Y0261957D01*
X0284713Y0263556D02*
X0276339Y0263556D01*
X0274767Y0265154D02*
X0284713Y0265154D01*
X0284713Y0273147D02*
X0209469Y0273147D01*
X0209381Y0274745D02*
X0284713Y0274745D01*
X0284713Y0276344D02*
X0052577Y0276344D01*
X0053674Y0274745D02*
X0198083Y0274745D01*
X0197995Y0273147D02*
X0054337Y0273147D01*
X0050979Y0277942D02*
X0284713Y0277942D01*
X0284713Y0279541D02*
X0040802Y0279541D01*
X0040802Y0277942D02*
X0040848Y0277942D01*
X0040802Y0233184D02*
X0188846Y0233184D01*
X0187974Y0231586D02*
X0040802Y0231586D01*
X0040802Y0229987D02*
X0187102Y0229987D01*
X0186230Y0228389D02*
X0040802Y0228389D01*
X0040802Y0177236D02*
X0093049Y0177236D01*
X0093452Y0175638D02*
X0040802Y0175638D01*
X0040802Y0174039D02*
X0092966Y0174039D01*
X0092481Y0172441D02*
X0040802Y0172441D01*
X0040802Y0170842D02*
X0091996Y0170842D01*
X0091511Y0169244D02*
X0040802Y0169244D01*
X0040802Y0167645D02*
X0091025Y0167645D01*
X0090540Y0166047D02*
X0040802Y0166047D01*
X0040802Y0164448D02*
X0090055Y0164448D01*
X0089570Y0162850D02*
X0040802Y0162850D01*
X0040802Y0161251D02*
X0089084Y0161251D01*
X0088599Y0159653D02*
X0040802Y0159653D01*
X0040802Y0158054D02*
X0088114Y0158054D01*
X0085991Y0156456D02*
X0040802Y0156456D01*
X0040802Y0154857D02*
X0083214Y0154857D01*
X0081888Y0153259D02*
X0061374Y0153259D01*
X0062972Y0151660D02*
X0081225Y0151660D01*
X0081052Y0150062D02*
X0063083Y0150062D01*
X0063083Y0149900D02*
X0059102Y0149900D01*
X0059102Y0153881D01*
X0059102Y0149900D01*
X0059102Y0149900D01*
X0059102Y0149900D01*
X0063083Y0149900D01*
X0063083Y0148463D02*
X0081092Y0148463D01*
X0081754Y0146865D02*
X0061697Y0146865D01*
X0062406Y0145266D02*
X0082891Y0145266D01*
X0090602Y0149900D02*
X0099102Y0177900D01*
X0103546Y0174039D02*
X0124578Y0174039D01*
X0124578Y0172441D02*
X0102408Y0172441D01*
X0101923Y0170842D02*
X0124861Y0170842D01*
X0125524Y0169244D02*
X0101438Y0169244D01*
X0100953Y0167645D02*
X0126352Y0167645D01*
X0126352Y0166047D02*
X0100467Y0166047D01*
X0099982Y0164448D02*
X0126352Y0164448D01*
X0126352Y0162850D02*
X0099497Y0162850D01*
X0099012Y0161251D02*
X0126352Y0161251D01*
X0126352Y0159653D02*
X0098526Y0159653D01*
X0098041Y0158054D02*
X0126352Y0158054D01*
X0126007Y0156456D02*
X0097556Y0156456D01*
X0097990Y0154857D02*
X0123697Y0154857D01*
X0122597Y0153259D02*
X0099317Y0153259D01*
X0099979Y0151660D02*
X0121952Y0151660D01*
X0119344Y0150062D02*
X0100152Y0150062D01*
X0100113Y0148463D02*
X0115987Y0148463D01*
X0112630Y0146865D02*
X0099450Y0146865D01*
X0098313Y0145266D02*
X0106020Y0145266D01*
X0104421Y0143668D02*
X0099147Y0143668D01*
X0099809Y0142069D02*
X0103775Y0142069D01*
X0103775Y0140470D02*
X0100152Y0140470D01*
X0100152Y0138872D02*
X0103775Y0138872D01*
X0104280Y0137273D02*
X0099620Y0137273D01*
X0098722Y0135675D02*
X0105879Y0135675D01*
X0107477Y0134076D02*
X0096980Y0134076D01*
X0090602Y0139900D02*
X0059102Y0139900D01*
X0055798Y0145266D02*
X0040802Y0145266D01*
X0040802Y0143668D02*
X0054199Y0143668D01*
X0052971Y0142069D02*
X0040802Y0142069D01*
X0040802Y0140470D02*
X0052971Y0140470D01*
X0052971Y0138872D02*
X0040802Y0138872D01*
X0040802Y0137273D02*
X0053058Y0137273D01*
X0054657Y0135675D02*
X0040802Y0135675D01*
X0040802Y0134076D02*
X0056255Y0134076D01*
X0061949Y0134076D02*
X0084224Y0134076D01*
X0064330Y0114894D02*
X0123734Y0114894D01*
X0123147Y0116493D02*
X0055772Y0116493D01*
X0054315Y0117950D02*
X0058122Y0114143D01*
X0059780Y0115800D01*
X0061602Y0115800D01*
X0061602Y0111400D01*
X0061602Y0111400D01*
X0061602Y0111400D01*
X0061602Y0107000D01*
X0059780Y0107000D01*
X0058122Y0108657D01*
X0056352Y0106887D01*
X0056352Y0024099D01*
X0057930Y0022521D01*
X0057930Y0017279D01*
X0054223Y0013572D01*
X0048981Y0013572D01*
X0045275Y0017279D01*
X0045275Y0022521D01*
X0046852Y0024099D01*
X0046852Y0106887D01*
X0045052Y0108687D01*
X0045052Y0114113D01*
X0048889Y0117950D01*
X0054315Y0117950D01*
X0057370Y0114894D02*
X0058874Y0114894D01*
X0061602Y0114894D02*
X0061602Y0114894D01*
X0061602Y0115800D02*
X0063425Y0115800D01*
X0066002Y0113223D01*
X0066002Y0111400D01*
X0061602Y0111400D01*
X0061602Y0115800D01*
X0061602Y0113296D02*
X0061602Y0113296D01*
X0061602Y0111697D02*
X0061602Y0111697D01*
X0061602Y0111400D02*
X0061602Y0111400D01*
X0061602Y0107000D01*
X0063425Y0107000D01*
X0066002Y0109577D01*
X0066002Y0111400D01*
X0061602Y0111400D01*
X0061602Y0110099D02*
X0061602Y0110099D01*
X0061602Y0108500D02*
X0061602Y0108500D01*
X0058279Y0108500D02*
X0057965Y0108500D01*
X0056366Y0106902D02*
X0093474Y0106902D01*
X0094453Y0107881D02*
X0092121Y0105549D01*
X0092121Y0103900D01*
X0096102Y0103900D01*
X0096102Y0103900D01*
X0092121Y0103900D01*
X0092121Y0102251D01*
X0094453Y0099919D01*
X0096102Y0099919D01*
X0096102Y0103900D01*
X0096102Y0107881D01*
X0094453Y0107881D01*
X0096102Y0107881D02*
X0097751Y0107881D01*
X0100083Y0105549D01*
X0100083Y0103900D01*
X0096102Y0103900D01*
X0096102Y0103900D01*
X0096102Y0103900D01*
X0096102Y0107881D01*
X0096102Y0106902D02*
X0096102Y0106902D01*
X0096102Y0105303D02*
X0096102Y0105303D01*
X0096102Y0103900D02*
X0096102Y0103900D01*
X0096102Y0099919D01*
X0097751Y0099919D01*
X0100083Y0102251D01*
X0100083Y0103900D01*
X0096102Y0103900D01*
X0096102Y0103705D02*
X0096102Y0103705D01*
X0096102Y0102106D02*
X0096102Y0102106D01*
X0096102Y0100508D02*
X0096102Y0100508D01*
X0093864Y0100508D02*
X0056352Y0100508D01*
X0056352Y0102106D02*
X0092266Y0102106D01*
X0092121Y0103705D02*
X0056352Y0103705D01*
X0056352Y0105303D02*
X0092121Y0105303D01*
X0098730Y0106902D02*
X0110434Y0106902D01*
X0109971Y0105303D02*
X0100083Y0105303D01*
X0100083Y0103705D02*
X0109971Y0103705D01*
X0109971Y0102106D02*
X0099938Y0102106D01*
X0098340Y0100508D02*
X0110824Y0100508D01*
X0112423Y0098909D02*
X0056352Y0098909D01*
X0056352Y0097311D02*
X0122692Y0097311D01*
X0123927Y0095712D02*
X0056352Y0095712D01*
X0056352Y0094114D02*
X0122953Y0094114D01*
X0122289Y0092515D02*
X0056352Y0092515D01*
X0056352Y0090917D02*
X0121952Y0090917D01*
X0121952Y0089318D02*
X0056352Y0089318D01*
X0056352Y0087720D02*
X0122523Y0087720D01*
X0123518Y0086121D02*
X0056352Y0086121D01*
X0056352Y0084523D02*
X0125576Y0084523D01*
X0124897Y0082924D02*
X0056352Y0082924D01*
X0056352Y0081326D02*
X0083358Y0081326D01*
X0081759Y0079727D02*
X0056352Y0079727D01*
X0056352Y0078129D02*
X0073200Y0078129D01*
X0072121Y0076530D02*
X0056352Y0076530D01*
X0056352Y0074932D02*
X0072121Y0074932D01*
X0072539Y0073333D02*
X0056352Y0073333D01*
X0056352Y0071734D02*
X0074137Y0071734D01*
X0076102Y0071734D02*
X0076102Y0071734D01*
X0076102Y0073333D02*
X0076102Y0073333D01*
X0076102Y0074932D02*
X0076102Y0074932D01*
X0076102Y0076530D02*
X0076102Y0076530D01*
X0076102Y0078129D02*
X0076102Y0078129D01*
X0079004Y0078129D02*
X0080160Y0078129D01*
X0079971Y0073333D02*
X0079665Y0073333D01*
X0081097Y0071734D02*
X0078067Y0071734D01*
X0082696Y0070136D02*
X0056352Y0070136D01*
X0056352Y0068537D02*
X0104037Y0068537D01*
X0106161Y0066939D02*
X0056352Y0066939D01*
X0056352Y0065340D02*
X0124180Y0065340D01*
X0131102Y0060400D02*
X0111102Y0060400D01*
X0110962Y0060398D01*
X0110822Y0060392D01*
X0110682Y0060382D01*
X0110542Y0060369D01*
X0110403Y0060351D01*
X0110264Y0060329D01*
X0110127Y0060304D01*
X0109989Y0060275D01*
X0109853Y0060242D01*
X0109718Y0060205D01*
X0109584Y0060164D01*
X0109451Y0060119D01*
X0109319Y0060071D01*
X0109189Y0060019D01*
X0109060Y0059964D01*
X0108933Y0059905D01*
X0108807Y0059842D01*
X0108683Y0059776D01*
X0108562Y0059707D01*
X0108442Y0059634D01*
X0108324Y0059557D01*
X0108209Y0059478D01*
X0108095Y0059395D01*
X0107985Y0059309D01*
X0107876Y0059220D01*
X0107770Y0059128D01*
X0107667Y0059033D01*
X0107566Y0058936D01*
X0107469Y0058835D01*
X0107374Y0058732D01*
X0107282Y0058626D01*
X0107193Y0058517D01*
X0107107Y0058407D01*
X0107024Y0058293D01*
X0106945Y0058178D01*
X0106868Y0058060D01*
X0106795Y0057940D01*
X0106726Y0057819D01*
X0106660Y0057695D01*
X0106597Y0057569D01*
X0106538Y0057442D01*
X0106483Y0057313D01*
X0106431Y0057183D01*
X0106383Y0057051D01*
X0106338Y0056918D01*
X0106297Y0056784D01*
X0106260Y0056649D01*
X0106227Y0056513D01*
X0106198Y0056375D01*
X0106173Y0056238D01*
X0106151Y0056099D01*
X0106133Y0055960D01*
X0106120Y0055820D01*
X0106110Y0055680D01*
X0106104Y0055540D01*
X0106102Y0055400D01*
X0086102Y0055400D01*
X0081878Y0050954D02*
X0056352Y0050954D01*
X0056352Y0052552D02*
X0073320Y0052552D01*
X0072121Y0054151D02*
X0056352Y0054151D01*
X0056352Y0055749D02*
X0072121Y0055749D01*
X0072420Y0057348D02*
X0056352Y0057348D01*
X0056352Y0058946D02*
X0074018Y0058946D01*
X0076102Y0058946D02*
X0076102Y0058946D01*
X0076102Y0057348D02*
X0076102Y0057348D01*
X0076102Y0055749D02*
X0076102Y0055749D01*
X0076102Y0054151D02*
X0076102Y0054151D01*
X0076102Y0052552D02*
X0076102Y0052552D01*
X0078885Y0052552D02*
X0080280Y0052552D01*
X0083477Y0049355D02*
X0056352Y0049355D01*
X0056352Y0047757D02*
X0122508Y0047757D01*
X0121952Y0049355D02*
X0088728Y0049355D01*
X0079971Y0057348D02*
X0079784Y0057348D01*
X0080978Y0058946D02*
X0078186Y0058946D01*
X0082577Y0060545D02*
X0056352Y0060545D01*
X0056352Y0062143D02*
X0103950Y0062143D01*
X0104122Y0062380D02*
X0104122Y0062380D01*
X0104122Y0062380D01*
X0105997Y0063742D02*
X0056352Y0063742D01*
X0046852Y0063742D02*
X0040802Y0063742D01*
X0040802Y0065340D02*
X0046852Y0065340D01*
X0046852Y0066939D02*
X0040802Y0066939D01*
X0040802Y0068537D02*
X0046852Y0068537D01*
X0046852Y0070136D02*
X0040802Y0070136D01*
X0040802Y0071734D02*
X0046852Y0071734D01*
X0046852Y0073333D02*
X0040802Y0073333D01*
X0040802Y0074932D02*
X0046852Y0074932D01*
X0046852Y0076530D02*
X0040802Y0076530D01*
X0040802Y0078129D02*
X0046852Y0078129D01*
X0046852Y0079727D02*
X0040802Y0079727D01*
X0040802Y0081326D02*
X0046852Y0081326D01*
X0046852Y0082924D02*
X0040802Y0082924D01*
X0040802Y0084523D02*
X0046852Y0084523D01*
X0046852Y0086121D02*
X0040802Y0086121D01*
X0040802Y0087720D02*
X0046852Y0087720D01*
X0046852Y0089318D02*
X0040802Y0089318D01*
X0040802Y0090917D02*
X0046852Y0090917D01*
X0046852Y0092515D02*
X0040802Y0092515D01*
X0040802Y0094114D02*
X0046852Y0094114D01*
X0046852Y0095712D02*
X0040802Y0095712D01*
X0040802Y0097311D02*
X0046852Y0097311D01*
X0046852Y0098909D02*
X0040802Y0098909D01*
X0040802Y0100508D02*
X0046852Y0100508D01*
X0046852Y0102106D02*
X0040802Y0102106D01*
X0040802Y0103705D02*
X0046852Y0103705D01*
X0046852Y0105303D02*
X0040802Y0105303D01*
X0040802Y0106902D02*
X0046838Y0106902D01*
X0045239Y0108500D02*
X0040802Y0108500D01*
X0040802Y0110099D02*
X0045052Y0110099D01*
X0045052Y0111697D02*
X0040802Y0111697D01*
X0040802Y0113296D02*
X0045052Y0113296D01*
X0045834Y0114894D02*
X0040802Y0114894D01*
X0040802Y0116493D02*
X0047432Y0116493D01*
X0051602Y0111400D02*
X0051602Y0019900D01*
X0046767Y0015787D02*
X0040802Y0015787D01*
X0040802Y0017385D02*
X0045275Y0017385D01*
X0045275Y0018984D02*
X0040802Y0018984D01*
X0040802Y0020582D02*
X0045275Y0020582D01*
X0045275Y0022181D02*
X0040802Y0022181D01*
X0040802Y0023779D02*
X0046533Y0023779D01*
X0046852Y0025378D02*
X0040802Y0025378D01*
X0040802Y0026976D02*
X0046852Y0026976D01*
X0046852Y0028575D02*
X0040802Y0028575D01*
X0040802Y0030173D02*
X0046852Y0030173D01*
X0046852Y0031772D02*
X0040802Y0031772D01*
X0040802Y0033370D02*
X0046852Y0033370D01*
X0046852Y0034969D02*
X0040802Y0034969D01*
X0040802Y0036567D02*
X0046852Y0036567D01*
X0046852Y0038166D02*
X0040802Y0038166D01*
X0040802Y0039764D02*
X0046852Y0039764D01*
X0046852Y0041363D02*
X0040802Y0041363D01*
X0040802Y0042961D02*
X0046852Y0042961D01*
X0046852Y0044560D02*
X0040802Y0044560D01*
X0040802Y0046158D02*
X0046852Y0046158D01*
X0046852Y0047757D02*
X0040802Y0047757D01*
X0040802Y0049355D02*
X0046852Y0049355D01*
X0046852Y0050954D02*
X0040802Y0050954D01*
X0040802Y0052552D02*
X0046852Y0052552D01*
X0046852Y0054151D02*
X0040802Y0054151D01*
X0040802Y0055749D02*
X0046852Y0055749D01*
X0046852Y0057348D02*
X0040802Y0057348D01*
X0040802Y0058946D02*
X0046852Y0058946D01*
X0046852Y0060545D02*
X0040802Y0060545D01*
X0040802Y0062143D02*
X0046852Y0062143D01*
X0056352Y0046158D02*
X0123481Y0046158D01*
X0123399Y0044560D02*
X0056352Y0044560D01*
X0056352Y0042961D02*
X0122474Y0042961D01*
X0121952Y0041363D02*
X0056352Y0041363D01*
X0056352Y0039764D02*
X0119566Y0039764D01*
X0116486Y0038166D02*
X0056352Y0038166D01*
X0056352Y0036567D02*
X0113406Y0036567D01*
X0110326Y0034969D02*
X0056352Y0034969D01*
X0056352Y0033370D02*
X0107246Y0033370D01*
X0104166Y0031772D02*
X0056352Y0031772D01*
X0056352Y0030173D02*
X0101086Y0030173D01*
X0098006Y0028575D02*
X0056352Y0028575D01*
X0056352Y0026976D02*
X0094926Y0026976D01*
X0088131Y0025378D02*
X0056352Y0025378D01*
X0056671Y0023779D02*
X0086533Y0023779D01*
X0085275Y0022181D02*
X0057930Y0022181D01*
X0057930Y0020582D02*
X0085275Y0020582D01*
X0085275Y0018984D02*
X0057930Y0018984D01*
X0057930Y0017385D02*
X0085275Y0017385D01*
X0086767Y0015787D02*
X0056437Y0015787D01*
X0054839Y0014188D02*
X0088365Y0014188D01*
X0094839Y0014188D02*
X0126384Y0014188D01*
X0128580Y0012590D02*
X0040802Y0012590D01*
X0040802Y0014188D02*
X0048365Y0014188D01*
X0040802Y0010991D02*
X0129652Y0010991D01*
X0131250Y0009393D02*
X0040802Y0009393D01*
X0040802Y0007794D02*
X0133437Y0007794D01*
X0132046Y0008597D02*
X0132046Y0008597D01*
X0135409Y0006656D02*
X0135409Y0006656D01*
X0141102Y0010400D02*
X0235102Y0010400D01*
X0241657Y0006600D02*
X0242165Y0006716D01*
X0246479Y0008794D01*
X0250223Y0011779D01*
X0253208Y0015523D01*
X0255286Y0019837D01*
X0255286Y0019837D01*
X0256352Y0024506D01*
X0256352Y0035762D01*
X0256442Y0037140D01*
X0257058Y0039437D01*
X0258014Y0037129D01*
X0259077Y0036065D01*
X0258014Y0035002D01*
X0256956Y0032448D01*
X0256956Y0029683D01*
X0258014Y0027129D01*
X0259077Y0026065D01*
X0258014Y0025002D01*
X0256956Y0022448D01*
X0256956Y0019683D01*
X0258014Y0017129D01*
X0259969Y0015174D01*
X0262523Y0014116D01*
X0271288Y0014116D01*
X0272717Y0014708D01*
X0271928Y0012803D01*
X0271928Y0009327D01*
X0273058Y0006600D01*
X0241657Y0006600D01*
X0242165Y0006716D02*
X0242165Y0006716D01*
X0244403Y0007794D02*
X0272563Y0007794D01*
X0271928Y0009393D02*
X0247230Y0009393D01*
X0246479Y0008794D02*
X0246479Y0008794D01*
X0249235Y0010991D02*
X0271928Y0010991D01*
X0271928Y0012590D02*
X0250869Y0012590D01*
X0250223Y0011779D02*
X0250223Y0011779D01*
X0250223Y0011779D01*
X0252144Y0014188D02*
X0262348Y0014188D01*
X0259356Y0015787D02*
X0253335Y0015787D01*
X0253208Y0015523D02*
X0253208Y0015523D01*
X0254105Y0017385D02*
X0257907Y0017385D01*
X0257245Y0018984D02*
X0254875Y0018984D01*
X0255456Y0020582D02*
X0256956Y0020582D01*
X0256956Y0022181D02*
X0255821Y0022181D01*
X0256186Y0023779D02*
X0257507Y0023779D01*
X0258389Y0025378D02*
X0256352Y0025378D01*
X0256352Y0026976D02*
X0258166Y0026976D01*
X0257415Y0028575D02*
X0256352Y0028575D01*
X0256352Y0030173D02*
X0256956Y0030173D01*
X0256956Y0031772D02*
X0256352Y0031772D01*
X0256352Y0033370D02*
X0257338Y0033370D01*
X0258000Y0034969D02*
X0256352Y0034969D01*
X0256404Y0036567D02*
X0258575Y0036567D01*
X0257584Y0038166D02*
X0256717Y0038166D01*
X0251602Y0035762D02*
X0251602Y0026900D01*
X0246852Y0026976D02*
X0244148Y0026976D01*
X0243925Y0025378D02*
X0246731Y0025378D01*
X0246367Y0023779D02*
X0244807Y0023779D01*
X0245359Y0022181D02*
X0245789Y0022181D01*
X0244900Y0028575D02*
X0246852Y0028575D01*
X0246852Y0030173D02*
X0245359Y0030173D01*
X0245359Y0031772D02*
X0246852Y0031772D01*
X0246852Y0033370D02*
X0244977Y0033370D01*
X0244315Y0034969D02*
X0246852Y0034969D01*
X0246852Y0036567D02*
X0242735Y0036567D01*
X0242236Y0038166D02*
X0246852Y0038166D01*
X0247217Y0039764D02*
X0243033Y0039764D01*
X0243209Y0041065D02*
X0243209Y0041443D01*
X0243091Y0042189D01*
X0242857Y0042908D01*
X0242514Y0043581D01*
X0242070Y0044192D01*
X0241536Y0044727D01*
X0241438Y0044798D01*
X0242346Y0045174D01*
X0244301Y0047129D01*
X0245359Y0049683D01*
X0245359Y0052448D01*
X0244301Y0055002D01*
X0242346Y0056957D01*
X0239792Y0058015D01*
X0231027Y0058015D01*
X0228473Y0056957D01*
X0226518Y0055002D01*
X0225460Y0052448D01*
X0225460Y0049683D01*
X0226518Y0047129D01*
X0228473Y0045174D01*
X0229380Y0044798D01*
X0229282Y0044727D01*
X0228748Y0044192D01*
X0228304Y0043581D01*
X0227961Y0042908D01*
X0227727Y0042189D01*
X0227609Y0041443D01*
X0227609Y0041065D01*
X0235409Y0041065D01*
X0235409Y0041065D01*
X0235409Y0041065D01*
X0243209Y0041065D01*
X0243209Y0041363D02*
X0247646Y0041363D01*
X0248074Y0042961D02*
X0242830Y0042961D01*
X0241703Y0044560D02*
X0248830Y0044560D01*
X0248219Y0043502D02*
X0248219Y0043502D01*
X0249752Y0046158D02*
X0243330Y0046158D01*
X0244561Y0047757D02*
X0250675Y0047757D01*
X0252139Y0049355D02*
X0245223Y0049355D01*
X0245359Y0050954D02*
X0253738Y0050954D01*
X0255881Y0052552D02*
X0245315Y0052552D01*
X0244653Y0054151D02*
X0257661Y0054151D01*
X0258761Y0055749D02*
X0243553Y0055749D01*
X0241402Y0057348D02*
X0260912Y0057348D01*
X0272898Y0057348D02*
X0284713Y0057348D01*
X0284713Y0058946D02*
X0199052Y0058946D01*
X0199052Y0057348D02*
X0229416Y0057348D01*
X0227265Y0055749D02*
X0199052Y0055749D01*
X0199052Y0054151D02*
X0226165Y0054151D01*
X0225503Y0052552D02*
X0199052Y0052552D01*
X0199052Y0050954D02*
X0225460Y0050954D01*
X0225595Y0049355D02*
X0199052Y0049355D01*
X0199052Y0047757D02*
X0226257Y0047757D01*
X0227488Y0046158D02*
X0199052Y0046158D01*
X0199052Y0044560D02*
X0209317Y0044560D01*
X0210138Y0045381D02*
X0207806Y0043049D01*
X0207806Y0041400D01*
X0211787Y0041400D01*
X0211787Y0041400D01*
X0207806Y0041400D01*
X0207806Y0039751D01*
X0210138Y0037419D01*
X0211787Y0037419D01*
X0211787Y0041400D01*
X0211787Y0045381D01*
X0210138Y0045381D01*
X0211787Y0045381D02*
X0211787Y0041400D01*
X0211787Y0041400D01*
X0211787Y0041400D01*
X0211787Y0037419D01*
X0213436Y0037419D01*
X0215768Y0039751D01*
X0215768Y0041400D01*
X0215768Y0043049D01*
X0213436Y0045381D01*
X0211787Y0045381D01*
X0211787Y0044560D02*
X0211787Y0044560D01*
X0211787Y0042961D02*
X0211787Y0042961D01*
X0211787Y0041400D02*
X0215768Y0041400D01*
X0211787Y0041400D01*
X0211787Y0041400D01*
X0211787Y0041363D02*
X0211787Y0041363D01*
X0211787Y0039764D02*
X0211787Y0039764D01*
X0211787Y0038166D02*
X0211787Y0038166D01*
X0209391Y0038166D02*
X0199052Y0038166D01*
X0199052Y0039764D02*
X0207806Y0039764D01*
X0207806Y0041363D02*
X0199052Y0041363D01*
X0199052Y0042961D02*
X0207806Y0042961D01*
X0214257Y0044560D02*
X0229115Y0044560D01*
X0227988Y0042961D02*
X0215768Y0042961D01*
X0215768Y0041363D02*
X0227609Y0041363D01*
X0227785Y0039764D02*
X0215768Y0039764D01*
X0214183Y0038166D02*
X0228583Y0038166D01*
X0228083Y0036567D02*
X0199052Y0036567D01*
X0199052Y0034969D02*
X0226504Y0034969D01*
X0224011Y0033370D02*
X0199052Y0033370D01*
X0199175Y0031772D02*
X0220104Y0031772D01*
X0216198Y0030173D02*
X0199813Y0030173D01*
X0201438Y0028575D02*
X0212291Y0028575D01*
X0200831Y0015150D02*
X0167714Y0015150D01*
X0169255Y0016690D01*
X0170252Y0019097D01*
X0170252Y0021703D01*
X0169255Y0024110D01*
X0167965Y0025400D01*
X0169255Y0026690D01*
X0170252Y0029097D01*
X0170252Y0031703D01*
X0169255Y0034110D01*
X0167965Y0035400D01*
X0169255Y0036690D01*
X0170252Y0039097D01*
X0170252Y0041703D01*
X0169255Y0044110D01*
X0167965Y0045400D01*
X0169255Y0046690D01*
X0170252Y0049097D01*
X0170252Y0051703D01*
X0169255Y0054110D01*
X0167412Y0055952D01*
X0165897Y0056580D01*
X0166008Y0056637D01*
X0166568Y0057044D01*
X0167058Y0057534D01*
X0167465Y0058094D01*
X0167780Y0058711D01*
X0167994Y0059370D01*
X0168102Y0060054D01*
X0168102Y0060400D01*
X0168102Y0060746D01*
X0167994Y0061430D01*
X0167780Y0062089D01*
X0167465Y0062706D01*
X0167058Y0063266D01*
X0166874Y0063450D01*
X0182102Y0063450D01*
X0182631Y0063416D01*
X0183652Y0063142D01*
X0184568Y0062613D01*
X0185315Y0061866D01*
X0185844Y0060950D01*
X0186118Y0059929D01*
X0186152Y0059400D01*
X0186152Y0054480D01*
X0184251Y0056381D01*
X0182602Y0056381D01*
X0180953Y0056381D01*
X0178621Y0054049D01*
X0178621Y0052400D01*
X0182602Y0052400D01*
X0182602Y0052400D01*
X0178621Y0052400D01*
X0178621Y0050751D01*
X0180953Y0048419D01*
X0182602Y0048419D01*
X0182602Y0052400D01*
X0182602Y0056381D01*
X0182602Y0052400D01*
X0182602Y0052400D01*
X0182602Y0052400D01*
X0182602Y0048419D01*
X0184251Y0048419D01*
X0186152Y0050320D01*
X0186152Y0030373D01*
X0187363Y0025856D01*
X0189701Y0021806D01*
X0189701Y0021806D01*
X0193008Y0018499D01*
X0197058Y0016161D01*
X0200831Y0015150D01*
X0198454Y0015787D02*
X0168351Y0015787D01*
X0169542Y0017385D02*
X0194937Y0017385D01*
X0193008Y0018499D02*
X0193008Y0018499D01*
X0192523Y0018984D02*
X0170205Y0018984D01*
X0170252Y0020582D02*
X0190925Y0020582D01*
X0189485Y0022181D02*
X0170054Y0022181D01*
X0169392Y0023779D02*
X0188562Y0023779D01*
X0187639Y0025378D02*
X0167987Y0025378D01*
X0169373Y0026976D02*
X0187063Y0026976D01*
X0187363Y0025856D02*
X0187363Y0025856D01*
X0186634Y0028575D02*
X0170035Y0028575D01*
X0170252Y0030173D02*
X0186206Y0030173D01*
X0186152Y0031772D02*
X0170223Y0031772D01*
X0169561Y0033370D02*
X0186152Y0033370D01*
X0186152Y0034969D02*
X0168396Y0034969D01*
X0169132Y0036567D02*
X0186152Y0036567D01*
X0186152Y0038166D02*
X0169866Y0038166D01*
X0170252Y0039764D02*
X0186152Y0039764D01*
X0186152Y0041363D02*
X0170252Y0041363D01*
X0169730Y0042961D02*
X0186152Y0042961D01*
X0186152Y0044560D02*
X0168805Y0044560D01*
X0168723Y0046158D02*
X0186152Y0046158D01*
X0186152Y0047757D02*
X0169696Y0047757D01*
X0170252Y0049355D02*
X0180017Y0049355D01*
X0178621Y0050954D02*
X0170252Y0050954D01*
X0169900Y0052552D02*
X0178621Y0052552D01*
X0178723Y0054151D02*
X0169214Y0054151D01*
X0167615Y0055749D02*
X0180321Y0055749D01*
X0182602Y0055749D02*
X0182602Y0055749D01*
X0182602Y0054151D02*
X0182602Y0054151D01*
X0182602Y0052552D02*
X0182602Y0052552D01*
X0182602Y0050954D02*
X0182602Y0050954D01*
X0182602Y0049355D02*
X0182602Y0049355D01*
X0185188Y0049355D02*
X0186152Y0049355D01*
X0186152Y0055749D02*
X0184883Y0055749D01*
X0186152Y0057348D02*
X0166873Y0057348D01*
X0167856Y0058946D02*
X0186152Y0058946D01*
X0185953Y0060545D02*
X0168102Y0060545D01*
X0168102Y0060400D02*
X0161102Y0060400D01*
X0161102Y0060400D01*
X0154102Y0060400D01*
X0154102Y0060746D01*
X0154210Y0061430D01*
X0154424Y0062089D01*
X0154739Y0062706D01*
X0155146Y0063266D01*
X0155636Y0063756D01*
X0156196Y0064163D01*
X0156307Y0064220D01*
X0154792Y0064848D01*
X0154786Y0064853D01*
X0154139Y0065001D01*
X0154139Y0065001D01*
X0149886Y0067049D01*
X0149886Y0067049D01*
X0146195Y0069993D01*
X0146195Y0069993D01*
X0143251Y0073684D01*
X0143251Y0073684D01*
X0141203Y0077937D01*
X0141203Y0077937D01*
X0140152Y0082540D01*
X0140152Y0088858D01*
X0139255Y0086690D01*
X0137412Y0084848D01*
X0135897Y0084220D01*
X0136008Y0084163D01*
X0136568Y0083756D01*
X0137058Y0083266D01*
X0137465Y0082706D01*
X0137780Y0082089D01*
X0137994Y0081430D01*
X0138102Y0080746D01*
X0138102Y0080400D01*
X0131102Y0080400D01*
X0131102Y0080400D01*
X0138102Y0080400D01*
X0138102Y0080054D01*
X0137994Y0079370D01*
X0137780Y0078711D01*
X0137465Y0078094D01*
X0137058Y0077534D01*
X0136568Y0077044D01*
X0136008Y0076637D01*
X0135897Y0076580D01*
X0137412Y0075952D01*
X0139255Y0074110D01*
X0140252Y0071703D01*
X0140252Y0069097D01*
X0139255Y0066690D01*
X0137965Y0065400D01*
X0139255Y0064110D01*
X0140252Y0061703D01*
X0140252Y0059097D01*
X0139255Y0056690D01*
X0137965Y0055400D01*
X0139255Y0054110D01*
X0140252Y0051703D01*
X0140252Y0049097D01*
X0139255Y0046690D01*
X0137965Y0045400D01*
X0139255Y0044110D01*
X0140252Y0041703D01*
X0140252Y0039097D01*
X0139255Y0036690D01*
X0137965Y0035400D01*
X0139255Y0034110D01*
X0140252Y0031703D01*
X0140252Y0029097D01*
X0139255Y0026690D01*
X0137965Y0025400D01*
X0139255Y0024110D01*
X0140252Y0021703D01*
X0140252Y0019097D01*
X0139255Y0016690D01*
X0138472Y0015908D01*
X0139093Y0015549D01*
X0140417Y0015195D01*
X0141102Y0015150D01*
X0154490Y0015150D01*
X0152950Y0016690D01*
X0151952Y0019097D01*
X0151952Y0021703D01*
X0152950Y0024110D01*
X0154240Y0025400D01*
X0152950Y0026690D01*
X0151952Y0029097D01*
X0151952Y0031703D01*
X0152950Y0034110D01*
X0154240Y0035400D01*
X0152950Y0036690D01*
X0151952Y0039097D01*
X0151952Y0041703D01*
X0152950Y0044110D01*
X0154240Y0045400D01*
X0152950Y0046690D01*
X0151952Y0049097D01*
X0151952Y0051703D01*
X0152950Y0054110D01*
X0154792Y0055952D01*
X0156307Y0056580D01*
X0156196Y0056637D01*
X0155636Y0057044D01*
X0155146Y0057534D01*
X0154739Y0058094D01*
X0154424Y0058711D01*
X0154210Y0059370D01*
X0154102Y0060054D01*
X0154102Y0060400D01*
X0161102Y0060400D01*
X0161102Y0060400D01*
X0168102Y0060400D01*
X0167752Y0062143D02*
X0185038Y0062143D01*
X0193738Y0071734D02*
X0284713Y0071734D01*
X0284713Y0070136D02*
X0195336Y0070136D01*
X0196398Y0068537D02*
X0284713Y0068537D01*
X0284713Y0066939D02*
X0197321Y0066939D01*
X0197897Y0065942D02*
X0197897Y0065942D01*
X0198058Y0065340D02*
X0284713Y0065340D01*
X0284713Y0063742D02*
X0198486Y0063742D01*
X0198914Y0062143D02*
X0284713Y0062143D01*
X0284713Y0060545D02*
X0199052Y0060545D01*
X0192509Y0072963D02*
X0192509Y0072963D01*
X0191869Y0073333D02*
X0284713Y0073333D01*
X0284713Y0074932D02*
X0189100Y0074932D01*
X0188644Y0075195D02*
X0188644Y0075195D01*
X0187593Y0076530D02*
X0284713Y0076530D01*
X0284713Y0078129D02*
X0185626Y0078129D01*
X0186401Y0079727D02*
X0284713Y0079727D01*
X0284713Y0081326D02*
X0188429Y0081326D01*
X0190433Y0082924D02*
X0284713Y0082924D01*
X0284713Y0084523D02*
X0192041Y0084523D01*
X0191348Y0083654D02*
X0191348Y0083654D01*
X0191348Y0083654D01*
X0193316Y0086121D02*
X0198065Y0086121D01*
X0197995Y0087720D02*
X0194590Y0087720D01*
X0195247Y0088543D02*
X0195247Y0088543D01*
X0195620Y0089318D02*
X0197995Y0089318D01*
X0196390Y0090917D02*
X0203252Y0090917D01*
X0204212Y0090917D02*
X0284713Y0090917D01*
X0284713Y0092515D02*
X0209469Y0092515D01*
X0209469Y0094114D02*
X0284713Y0094114D01*
X0284713Y0095712D02*
X0208997Y0095712D01*
X0204212Y0095712D02*
X0203252Y0095712D01*
X0203252Y0094114D02*
X0204212Y0094114D01*
X0204212Y0092515D02*
X0203252Y0092515D01*
X0204212Y0090078D02*
X0209469Y0090078D01*
X0209469Y0086383D01*
X0209346Y0085926D01*
X0209109Y0085515D01*
X0208774Y0085180D01*
X0208364Y0084943D01*
X0207906Y0084820D01*
X0204212Y0084820D01*
X0204212Y0090078D01*
X0204212Y0089318D02*
X0203252Y0089318D01*
X0203252Y0087720D02*
X0204212Y0087720D01*
X0204212Y0086121D02*
X0203252Y0086121D01*
X0209399Y0086121D02*
X0284713Y0086121D01*
X0284713Y0087720D02*
X0209469Y0087720D01*
X0209469Y0089318D02*
X0284713Y0089318D01*
X0284713Y0097311D02*
X0198675Y0097311D01*
X0198467Y0095712D02*
X0198311Y0095712D01*
X0197960Y0094177D02*
X0197960Y0094177D01*
X0197930Y0094114D02*
X0197995Y0094114D01*
X0197995Y0092515D02*
X0197160Y0092515D01*
X0199040Y0098909D02*
X0284713Y0098909D01*
X0284713Y0100508D02*
X0199352Y0100508D01*
X0199352Y0102106D02*
X0284713Y0102106D01*
X0284713Y0103705D02*
X0210654Y0103705D01*
X0211529Y0105303D02*
X0284713Y0105303D01*
X0284713Y0106902D02*
X0211619Y0106902D01*
X0211619Y0108500D02*
X0284713Y0108500D01*
X0284713Y0110099D02*
X0211619Y0110099D01*
X0211619Y0111697D02*
X0284713Y0111697D01*
X0284713Y0113296D02*
X0211619Y0113296D01*
X0211619Y0114894D02*
X0284713Y0114894D01*
X0284713Y0116493D02*
X0210941Y0116493D01*
X0208546Y0118091D02*
X0284713Y0118091D01*
X0284713Y0055749D02*
X0275049Y0055749D01*
X0276149Y0054151D02*
X0284713Y0054151D01*
X0284713Y0052552D02*
X0276811Y0052552D01*
X0276855Y0050954D02*
X0284713Y0050954D01*
X0284713Y0049355D02*
X0276719Y0049355D01*
X0276057Y0047757D02*
X0284713Y0047757D01*
X0284713Y0046158D02*
X0274826Y0046158D01*
X0275980Y0044560D02*
X0284713Y0044560D01*
X0284713Y0042961D02*
X0276642Y0042961D01*
X0276855Y0041363D02*
X0284713Y0041363D01*
X0284713Y0039764D02*
X0276855Y0039764D01*
X0276226Y0038166D02*
X0284713Y0038166D01*
X0284713Y0036567D02*
X0275235Y0036567D01*
X0275811Y0034969D02*
X0284713Y0034969D01*
X0284713Y0033370D02*
X0276473Y0033370D01*
X0276855Y0031772D02*
X0284713Y0031772D01*
X0284713Y0030173D02*
X0276855Y0030173D01*
X0276396Y0028575D02*
X0284713Y0028575D01*
X0284713Y0026976D02*
X0275644Y0026976D01*
X0275421Y0025378D02*
X0284713Y0025378D01*
X0284713Y0023779D02*
X0276303Y0023779D01*
X0276855Y0022181D02*
X0284713Y0022181D01*
X0284713Y0020582D02*
X0276855Y0020582D01*
X0276951Y0018984D02*
X0276565Y0018984D01*
X0272502Y0014188D02*
X0271462Y0014188D01*
X0284380Y0018984D02*
X0284713Y0018984D01*
X0266905Y0051065D02*
X0266535Y0051061D01*
X0266166Y0051047D01*
X0265797Y0051025D01*
X0265428Y0050994D01*
X0265060Y0050953D01*
X0264694Y0050904D01*
X0264329Y0050847D01*
X0263965Y0050780D01*
X0263603Y0050704D01*
X0263243Y0050620D01*
X0262885Y0050527D01*
X0262529Y0050426D01*
X0262176Y0050316D01*
X0261826Y0050198D01*
X0261478Y0050071D01*
X0261134Y0049935D01*
X0260794Y0049792D01*
X0260456Y0049640D01*
X0260123Y0049480D01*
X0259793Y0049312D01*
X0259468Y0049136D01*
X0259147Y0048953D01*
X0258831Y0048761D01*
X0258519Y0048563D01*
X0258212Y0048356D01*
X0257910Y0048142D01*
X0257614Y0047921D01*
X0257322Y0047693D01*
X0257037Y0047458D01*
X0256757Y0047216D01*
X0256483Y0046968D01*
X0256216Y0046713D01*
X0255954Y0046451D01*
X0255699Y0046184D01*
X0255451Y0045910D01*
X0255209Y0045630D01*
X0254974Y0045345D01*
X0254746Y0045053D01*
X0254525Y0044757D01*
X0254311Y0044455D01*
X0254104Y0044148D01*
X0253906Y0043836D01*
X0253714Y0043520D01*
X0253531Y0043199D01*
X0253355Y0042874D01*
X0253187Y0042544D01*
X0253027Y0042211D01*
X0252875Y0041873D01*
X0252732Y0041533D01*
X0252596Y0041189D01*
X0252469Y0040841D01*
X0252351Y0040491D01*
X0252241Y0040138D01*
X0252140Y0039782D01*
X0252047Y0039424D01*
X0251963Y0039064D01*
X0251887Y0038702D01*
X0251820Y0038338D01*
X0251763Y0037973D01*
X0251714Y0037607D01*
X0251673Y0037239D01*
X0251642Y0036870D01*
X0251620Y0036501D01*
X0251606Y0036132D01*
X0251602Y0035762D01*
X0251602Y0026900D02*
X0251597Y0026501D01*
X0251583Y0026103D01*
X0251559Y0025705D01*
X0251525Y0025308D01*
X0251482Y0024911D01*
X0251429Y0024516D01*
X0251366Y0024122D01*
X0251295Y0023730D01*
X0251213Y0023340D01*
X0251123Y0022951D01*
X0251022Y0022565D01*
X0250913Y0022182D01*
X0250794Y0021801D01*
X0250667Y0021424D01*
X0250530Y0021049D01*
X0250384Y0020678D01*
X0250229Y0020310D01*
X0250065Y0019947D01*
X0249893Y0019587D01*
X0249712Y0019232D01*
X0249522Y0018881D01*
X0249324Y0018535D01*
X0249118Y0018194D01*
X0248904Y0017858D01*
X0248681Y0017527D01*
X0248451Y0017202D01*
X0248213Y0016882D01*
X0247967Y0016568D01*
X0247713Y0016260D01*
X0247452Y0015958D01*
X0247184Y0015663D01*
X0246909Y0015375D01*
X0246627Y0015093D01*
X0246339Y0014818D01*
X0246044Y0014550D01*
X0245742Y0014289D01*
X0245434Y0014035D01*
X0245120Y0013789D01*
X0244800Y0013551D01*
X0244475Y0013321D01*
X0244144Y0013098D01*
X0243808Y0012884D01*
X0243467Y0012678D01*
X0243121Y0012480D01*
X0242770Y0012290D01*
X0242415Y0012109D01*
X0242055Y0011937D01*
X0241692Y0011773D01*
X0241324Y0011618D01*
X0240953Y0011472D01*
X0240578Y0011335D01*
X0240201Y0011208D01*
X0239820Y0011089D01*
X0239437Y0010980D01*
X0239051Y0010879D01*
X0238662Y0010789D01*
X0238272Y0010707D01*
X0237880Y0010636D01*
X0237486Y0010573D01*
X0237091Y0010520D01*
X0236694Y0010477D01*
X0236297Y0010443D01*
X0235899Y0010419D01*
X0235501Y0010405D01*
X0235102Y0010400D01*
X0197058Y0016161D02*
X0197058Y0016161D01*
X0154589Y0055749D02*
X0138314Y0055749D01*
X0139214Y0054151D02*
X0152990Y0054151D01*
X0152304Y0052552D02*
X0139900Y0052552D01*
X0140252Y0050954D02*
X0151952Y0050954D01*
X0151952Y0049355D02*
X0140252Y0049355D01*
X0139696Y0047757D02*
X0152508Y0047757D01*
X0153481Y0046158D02*
X0138723Y0046158D01*
X0138805Y0044560D02*
X0153399Y0044560D01*
X0152474Y0042961D02*
X0139730Y0042961D01*
X0140252Y0041363D02*
X0151952Y0041363D01*
X0151952Y0039764D02*
X0140252Y0039764D01*
X0139866Y0038166D02*
X0152338Y0038166D01*
X0153072Y0036567D02*
X0139132Y0036567D01*
X0138396Y0034969D02*
X0153808Y0034969D01*
X0152643Y0033370D02*
X0139561Y0033370D01*
X0140223Y0031772D02*
X0151981Y0031772D01*
X0151952Y0030173D02*
X0140252Y0030173D01*
X0140035Y0028575D02*
X0152169Y0028575D01*
X0152831Y0026976D02*
X0139373Y0026976D01*
X0137987Y0025378D02*
X0154217Y0025378D01*
X0152813Y0023779D02*
X0139392Y0023779D01*
X0140054Y0022181D02*
X0152150Y0022181D01*
X0151952Y0020582D02*
X0140252Y0020582D01*
X0131102Y0020400D02*
X0131105Y0020158D01*
X0131114Y0019917D01*
X0131128Y0019676D01*
X0131149Y0019435D01*
X0131175Y0019195D01*
X0131207Y0018955D01*
X0131245Y0018716D01*
X0131288Y0018479D01*
X0131338Y0018242D01*
X0131393Y0018007D01*
X0131453Y0017773D01*
X0131520Y0017541D01*
X0131591Y0017310D01*
X0131669Y0017081D01*
X0131752Y0016854D01*
X0131840Y0016629D01*
X0131934Y0016406D01*
X0132033Y0016186D01*
X0132138Y0015968D01*
X0132247Y0015753D01*
X0132362Y0015540D01*
X0132482Y0015330D01*
X0132607Y0015124D01*
X0132737Y0014920D01*
X0132872Y0014719D01*
X0133012Y0014522D01*
X0133156Y0014328D01*
X0133305Y0014138D01*
X0133459Y0013952D01*
X0133617Y0013769D01*
X0133779Y0013590D01*
X0133946Y0013415D01*
X0134117Y0013244D01*
X0134292Y0013077D01*
X0134471Y0012915D01*
X0134654Y0012757D01*
X0134840Y0012603D01*
X0135030Y0012454D01*
X0135224Y0012310D01*
X0135421Y0012170D01*
X0135622Y0012035D01*
X0135826Y0011905D01*
X0136032Y0011780D01*
X0136242Y0011660D01*
X0136455Y0011545D01*
X0136670Y0011436D01*
X0136888Y0011331D01*
X0137108Y0011232D01*
X0137331Y0011138D01*
X0137556Y0011050D01*
X0137783Y0010967D01*
X0138012Y0010889D01*
X0138243Y0010818D01*
X0138475Y0010751D01*
X0138709Y0010691D01*
X0138944Y0010636D01*
X0139181Y0010586D01*
X0139418Y0010543D01*
X0139657Y0010505D01*
X0139897Y0010473D01*
X0140137Y0010447D01*
X0140378Y0010426D01*
X0140619Y0010412D01*
X0140860Y0010403D01*
X0141102Y0010400D01*
X0138682Y0015787D02*
X0153853Y0015787D01*
X0152662Y0017385D02*
X0139542Y0017385D01*
X0140205Y0018984D02*
X0151999Y0018984D01*
X0131102Y0040400D02*
X0091602Y0019900D01*
X0096437Y0015787D02*
X0123853Y0015787D01*
X0122662Y0017385D02*
X0097930Y0017385D01*
X0100147Y0018984D02*
X0121999Y0018984D01*
X0121952Y0020582D02*
X0103227Y0020582D01*
X0106307Y0022181D02*
X0122150Y0022181D01*
X0122813Y0023779D02*
X0109387Y0023779D01*
X0112467Y0025378D02*
X0124217Y0025378D01*
X0122831Y0026976D02*
X0115547Y0026976D01*
X0118627Y0028575D02*
X0122169Y0028575D01*
X0121952Y0030173D02*
X0121708Y0030173D01*
X0121952Y0050954D02*
X0112032Y0050954D01*
X0113330Y0052552D02*
X0122304Y0052552D01*
X0122990Y0054151D02*
X0113992Y0054151D01*
X0106621Y0064195D02*
X0106621Y0064195D01*
X0106621Y0066605D02*
X0106621Y0066605D01*
X0111102Y0070400D02*
X0131102Y0070400D01*
X0126186Y0076530D02*
X0114020Y0076530D01*
X0113379Y0078129D02*
X0124721Y0078129D01*
X0124154Y0079727D02*
X0112151Y0079727D01*
X0109287Y0081326D02*
X0124194Y0081326D01*
X0136018Y0076530D02*
X0141881Y0076530D01*
X0141159Y0078129D02*
X0137483Y0078129D01*
X0138050Y0079727D02*
X0140794Y0079727D01*
X0140430Y0081326D02*
X0138010Y0081326D01*
X0137307Y0082924D02*
X0140152Y0082924D01*
X0140152Y0084523D02*
X0136628Y0084523D01*
X0138686Y0086121D02*
X0140152Y0086121D01*
X0140152Y0087720D02*
X0139681Y0087720D01*
X0138433Y0074932D02*
X0142650Y0074932D01*
X0143531Y0073333D02*
X0139576Y0073333D01*
X0140239Y0071734D02*
X0144806Y0071734D01*
X0146080Y0070136D02*
X0140252Y0070136D01*
X0140020Y0068537D02*
X0148019Y0068537D01*
X0150115Y0066939D02*
X0139358Y0066939D01*
X0138024Y0065340D02*
X0153434Y0065340D01*
X0155621Y0063742D02*
X0139407Y0063742D01*
X0140069Y0062143D02*
X0154452Y0062143D01*
X0154102Y0060545D02*
X0140252Y0060545D01*
X0140189Y0058946D02*
X0154348Y0058946D01*
X0155332Y0057348D02*
X0139527Y0057348D01*
X0161102Y0080400D02*
X0171602Y0080400D01*
X0161602Y0090400D02*
X0161102Y0090400D01*
X0171602Y0080400D02*
X0172158Y0080407D01*
X0172713Y0080427D01*
X0173268Y0080460D01*
X0173822Y0080507D01*
X0174374Y0080568D01*
X0174925Y0080641D01*
X0175474Y0080728D01*
X0176021Y0080828D01*
X0176565Y0080942D01*
X0177106Y0081068D01*
X0177644Y0081208D01*
X0178179Y0081360D01*
X0178709Y0081526D01*
X0179236Y0081704D01*
X0179758Y0081895D01*
X0180275Y0082098D01*
X0180787Y0082314D01*
X0181294Y0082542D01*
X0181795Y0082782D01*
X0182291Y0083035D01*
X0182780Y0083299D01*
X0183262Y0083575D01*
X0183738Y0083862D01*
X0184206Y0084161D01*
X0184667Y0084471D01*
X0185121Y0084793D01*
X0185567Y0085125D01*
X0186004Y0085467D01*
X0186433Y0085821D01*
X0186854Y0086184D01*
X0187265Y0086558D01*
X0187668Y0086941D01*
X0188061Y0087334D01*
X0188444Y0087737D01*
X0188818Y0088148D01*
X0189181Y0088569D01*
X0189535Y0088998D01*
X0189877Y0089435D01*
X0190209Y0089881D01*
X0190531Y0090335D01*
X0190841Y0090796D01*
X0191140Y0091264D01*
X0191427Y0091740D01*
X0191703Y0092222D01*
X0191967Y0092711D01*
X0192220Y0093207D01*
X0192460Y0093708D01*
X0192688Y0094215D01*
X0192904Y0094727D01*
X0193107Y0095244D01*
X0193298Y0095766D01*
X0193476Y0096293D01*
X0193642Y0096823D01*
X0193794Y0097358D01*
X0193934Y0097896D01*
X0194060Y0098437D01*
X0194174Y0098981D01*
X0194274Y0099528D01*
X0194361Y0100077D01*
X0194434Y0100628D01*
X0194495Y0101180D01*
X0194542Y0101734D01*
X0194575Y0102289D01*
X0194595Y0102844D01*
X0194602Y0103400D01*
X0194604Y0103574D01*
X0194610Y0103748D01*
X0194621Y0103922D01*
X0194636Y0104095D01*
X0194655Y0104268D01*
X0194678Y0104440D01*
X0194706Y0104612D01*
X0194738Y0104783D01*
X0194773Y0104954D01*
X0194813Y0105123D01*
X0194857Y0105291D01*
X0194906Y0105459D01*
X0194958Y0105625D01*
X0195014Y0105789D01*
X0195075Y0105953D01*
X0195139Y0106114D01*
X0195207Y0106274D01*
X0195279Y0106433D01*
X0195355Y0106589D01*
X0195435Y0106744D01*
X0195518Y0106897D01*
X0195606Y0107047D01*
X0195696Y0107196D01*
X0195791Y0107342D01*
X0195889Y0107486D01*
X0195990Y0107627D01*
X0196095Y0107766D01*
X0196204Y0107902D01*
X0196315Y0108036D01*
X0196430Y0108167D01*
X0196548Y0108295D01*
X0196669Y0108420D01*
X0196793Y0108542D01*
X0196920Y0108661D01*
X0197050Y0108777D01*
X0197182Y0108889D01*
X0197318Y0108999D01*
X0197456Y0109105D01*
X0197596Y0109207D01*
X0197739Y0109307D01*
X0197884Y0109402D01*
X0198032Y0109494D01*
X0198182Y0109583D01*
X0198334Y0109668D01*
X0198488Y0109749D01*
X0198644Y0109826D01*
X0198802Y0109899D01*
X0198961Y0109969D01*
X0199122Y0110035D01*
X0199285Y0110096D01*
X0199449Y0110154D01*
X0199615Y0110208D01*
X0199782Y0110257D01*
X0199950Y0110303D01*
X0200119Y0110344D01*
X0200289Y0110382D01*
X0200459Y0110415D01*
X0200631Y0110444D01*
X0200803Y0110468D01*
X0200976Y0110489D01*
X0201149Y0110505D01*
X0201323Y0110517D01*
X0201497Y0110525D01*
X0201671Y0110529D01*
X0201845Y0110528D01*
X0202019Y0110523D01*
X0202192Y0110514D01*
X0202366Y0110501D01*
X0202539Y0110483D01*
X0202712Y0110461D01*
X0202884Y0110435D01*
X0203055Y0110405D01*
X0203226Y0110371D01*
X0203396Y0110332D01*
X0203564Y0110289D01*
X0203732Y0110242D01*
X0198488Y0122887D02*
X0197282Y0122887D01*
X0176102Y0134400D02*
X0203732Y0190243D01*
X0203442Y0199615D02*
X0284713Y0199615D01*
X0204212Y0265154D02*
X0203252Y0265154D01*
X0203252Y0266753D02*
X0204212Y0266753D01*
X0204212Y0268351D02*
X0203252Y0268351D01*
X0203252Y0271548D02*
X0204212Y0271548D01*
X0204212Y0273147D02*
X0203252Y0273147D01*
X0203252Y0274745D02*
X0204212Y0274745D01*
X0195845Y0249169D02*
X0182831Y0249169D01*
X0183259Y0247571D02*
X0195845Y0247571D01*
X0195821Y0245972D02*
X0183414Y0245972D01*
X0183414Y0244374D02*
X0194949Y0244374D01*
X0194077Y0242775D02*
X0183074Y0242775D01*
X0182640Y0241177D02*
X0193205Y0241177D01*
X0192333Y0239578D02*
X0181717Y0239578D01*
X0180514Y0237980D02*
X0191461Y0237980D01*
X0190590Y0236381D02*
X0178786Y0236381D01*
X0175415Y0234783D02*
X0189718Y0234783D01*
X0185358Y0226790D02*
X0171858Y0226790D01*
X0173475Y0225192D02*
X0184486Y0225192D01*
X0183614Y0223593D02*
X0173937Y0223593D01*
X0173937Y0221995D02*
X0182743Y0221995D01*
X0181871Y0220396D02*
X0173937Y0220396D01*
X0173937Y0218798D02*
X0180999Y0218798D01*
X0180127Y0217199D02*
X0173937Y0217199D01*
X0173374Y0215601D02*
X0179255Y0215601D01*
X0178383Y0214002D02*
X0171269Y0214002D01*
X0168937Y0212403D02*
X0177511Y0212403D01*
X0176639Y0210805D02*
X0168937Y0210805D01*
X0168937Y0209206D02*
X0175767Y0209206D01*
X0174896Y0207608D02*
X0168937Y0207608D01*
X0168543Y0206009D02*
X0174024Y0206009D01*
X0173152Y0204411D02*
X0167238Y0204411D01*
X0171408Y0201214D02*
X0136611Y0201214D01*
X0137381Y0202812D02*
X0172280Y0202812D01*
X0157130Y0220604D02*
X0152645Y0220604D01*
X0152645Y0223527D01*
X0152767Y0223985D01*
X0153004Y0224395D01*
X0153339Y0224730D01*
X0153750Y0224967D01*
X0154208Y0225090D01*
X0157130Y0225090D01*
X0157130Y0220604D01*
X0157130Y0221995D02*
X0157302Y0221995D01*
X0157302Y0223593D02*
X0157130Y0223593D01*
X0152662Y0223593D02*
X0151770Y0223593D01*
X0151788Y0223527D02*
X0151665Y0223985D01*
X0151428Y0224395D01*
X0151093Y0224730D01*
X0150683Y0224967D01*
X0150225Y0225090D01*
X0147302Y0225090D01*
X0147302Y0220604D01*
X0151788Y0220604D01*
X0151788Y0223527D01*
X0151788Y0221995D02*
X0152645Y0221995D01*
X0152645Y0220396D02*
X0151788Y0220396D01*
X0151788Y0218798D02*
X0152645Y0218798D01*
X0147130Y0220604D02*
X0147130Y0225090D01*
X0144208Y0225090D01*
X0143750Y0224967D01*
X0143339Y0224730D01*
X0143004Y0224395D01*
X0142767Y0223985D01*
X0142645Y0223527D01*
X0142645Y0220604D01*
X0147130Y0220604D01*
X0147130Y0221995D02*
X0147302Y0221995D01*
X0147302Y0223593D02*
X0147130Y0223593D01*
X0142662Y0223593D02*
X0141770Y0223593D01*
X0141788Y0223527D02*
X0141665Y0223985D01*
X0141428Y0224395D01*
X0141093Y0224730D01*
X0140683Y0224967D01*
X0140225Y0225090D01*
X0137302Y0225090D01*
X0137302Y0220604D01*
X0141788Y0220604D01*
X0141788Y0223527D01*
X0141788Y0221995D02*
X0142645Y0221995D01*
X0142645Y0220396D02*
X0141788Y0220396D01*
X0141788Y0218798D02*
X0142645Y0218798D01*
X0137302Y0221995D02*
X0137130Y0221995D01*
X0137130Y0223593D02*
X0137302Y0223593D01*
X0125495Y0209206D02*
X0113937Y0209206D01*
X0113937Y0207608D02*
X0125279Y0207608D01*
X0124539Y0206009D02*
X0113543Y0206009D01*
X0112238Y0204411D02*
X0123381Y0204411D01*
X0121364Y0202812D02*
X0107884Y0202812D01*
X0104529Y0190024D02*
X0095926Y0190024D01*
X0098490Y0185229D02*
X0105982Y0185229D01*
X0102884Y0183630D02*
X0100089Y0183630D01*
X0105500Y0189557D02*
X0105500Y0189557D01*
X0131102Y0175400D02*
X0131102Y0150400D01*
X0110102Y0140400D01*
X0114326Y0135675D02*
X0123965Y0135675D01*
X0122936Y0134076D02*
X0112727Y0134076D01*
X0115924Y0137273D02*
X0122708Y0137273D01*
X0122046Y0138872D02*
X0117940Y0138872D01*
X0121297Y0140470D02*
X0121952Y0140470D01*
X0122274Y0132478D02*
X0040802Y0132478D01*
X0040802Y0130879D02*
X0121952Y0130879D01*
X0121952Y0129281D02*
X0040802Y0129281D01*
X0040802Y0127682D02*
X0122538Y0127682D01*
X0123556Y0126084D02*
X0040802Y0126084D01*
X0040802Y0124485D02*
X0123325Y0124485D01*
X0122443Y0122887D02*
X0040802Y0122887D01*
X0040802Y0121288D02*
X0121952Y0121288D01*
X0121952Y0119690D02*
X0040802Y0119690D01*
X0040802Y0118091D02*
X0122369Y0118091D01*
X0122612Y0113296D02*
X0065929Y0113296D01*
X0066002Y0111697D02*
X0121952Y0111697D01*
X0121952Y0110099D02*
X0066002Y0110099D01*
X0064925Y0108500D02*
X0112032Y0108500D01*
X0116102Y0103900D02*
X0131102Y0100400D01*
X0122200Y0108500D02*
X0120172Y0108500D01*
X0102918Y0081326D02*
X0088847Y0081326D01*
X0086102Y0075400D02*
X0106102Y0075400D01*
X0106104Y0075260D01*
X0106110Y0075120D01*
X0106120Y0074980D01*
X0106133Y0074840D01*
X0106151Y0074701D01*
X0106173Y0074562D01*
X0106198Y0074425D01*
X0106227Y0074287D01*
X0106260Y0074151D01*
X0106297Y0074016D01*
X0106338Y0073882D01*
X0106383Y0073749D01*
X0106431Y0073617D01*
X0106483Y0073487D01*
X0106538Y0073358D01*
X0106597Y0073231D01*
X0106660Y0073105D01*
X0106726Y0072981D01*
X0106795Y0072860D01*
X0106868Y0072740D01*
X0106945Y0072622D01*
X0107024Y0072507D01*
X0107107Y0072393D01*
X0107193Y0072283D01*
X0107282Y0072174D01*
X0107374Y0072068D01*
X0107469Y0071965D01*
X0107566Y0071864D01*
X0107667Y0071767D01*
X0107770Y0071672D01*
X0107876Y0071580D01*
X0107985Y0071491D01*
X0108095Y0071405D01*
X0108209Y0071322D01*
X0108324Y0071243D01*
X0108442Y0071166D01*
X0108562Y0071093D01*
X0108683Y0071024D01*
X0108807Y0070958D01*
X0108933Y0070895D01*
X0109060Y0070836D01*
X0109189Y0070781D01*
X0109319Y0070729D01*
X0109451Y0070681D01*
X0109584Y0070636D01*
X0109718Y0070595D01*
X0109853Y0070558D01*
X0109989Y0070525D01*
X0110127Y0070496D01*
X0110264Y0070471D01*
X0110403Y0070449D01*
X0110542Y0070431D01*
X0110682Y0070418D01*
X0110822Y0070408D01*
X0110962Y0070402D01*
X0111102Y0070400D01*
X0101320Y0070136D02*
X0089508Y0070136D01*
X0089627Y0060545D02*
X0101033Y0060545D01*
X0161102Y0100400D02*
X0161682Y0100407D01*
X0162262Y0100428D01*
X0162840Y0100463D01*
X0163418Y0100512D01*
X0163995Y0100575D01*
X0164570Y0100652D01*
X0165143Y0100743D01*
X0165713Y0100847D01*
X0166281Y0100965D01*
X0166846Y0101097D01*
X0167407Y0101243D01*
X0167965Y0101402D01*
X0168518Y0101575D01*
X0169068Y0101761D01*
X0169613Y0101960D01*
X0170152Y0102172D01*
X0170687Y0102397D01*
X0171216Y0102635D01*
X0171739Y0102886D01*
X0172255Y0103149D01*
X0172766Y0103425D01*
X0173269Y0103713D01*
X0173765Y0104013D01*
X0174254Y0104325D01*
X0174736Y0104648D01*
X0175209Y0104984D01*
X0175674Y0105330D01*
X0176130Y0105688D01*
X0176578Y0106056D01*
X0177017Y0106436D01*
X0177446Y0106826D01*
X0177866Y0107226D01*
X0178276Y0107636D01*
X0178676Y0108056D01*
X0179066Y0108485D01*
X0179446Y0108924D01*
X0179814Y0109372D01*
X0180172Y0109828D01*
X0180518Y0110293D01*
X0180854Y0110766D01*
X0181177Y0111248D01*
X0181489Y0111737D01*
X0181789Y0112233D01*
X0182077Y0112736D01*
X0182353Y0113247D01*
X0182616Y0113763D01*
X0182867Y0114286D01*
X0183105Y0114815D01*
X0183330Y0115350D01*
X0183542Y0115889D01*
X0183741Y0116434D01*
X0183927Y0116984D01*
X0184100Y0117537D01*
X0184259Y0118095D01*
X0184405Y0118656D01*
X0184537Y0119221D01*
X0184655Y0119789D01*
X0184759Y0120359D01*
X0184850Y0120932D01*
X0184927Y0121507D01*
X0184990Y0122084D01*
X0185039Y0122662D01*
X0185074Y0123240D01*
X0185095Y0123820D01*
X0185102Y0124400D01*
X0175602Y0144900D02*
X0175602Y0155900D01*
X0203732Y0210557D01*
X0155058Y0180433D02*
X0154723Y0180433D01*
X0155524Y0169244D02*
X0153615Y0169244D01*
X0176102Y0134400D02*
X0176098Y0134062D01*
X0176086Y0133724D01*
X0176065Y0133386D01*
X0176037Y0133049D01*
X0176000Y0132712D01*
X0175955Y0132377D01*
X0175902Y0132043D01*
X0175841Y0131710D01*
X0175772Y0131379D01*
X0175695Y0131050D01*
X0175610Y0130722D01*
X0175517Y0130397D01*
X0175417Y0130074D01*
X0175308Y0129753D01*
X0175192Y0129436D01*
X0175068Y0129121D01*
X0174937Y0128809D01*
X0174798Y0128500D01*
X0174652Y0128195D01*
X0174498Y0127894D01*
X0174338Y0127596D01*
X0174170Y0127303D01*
X0173995Y0127013D01*
X0173813Y0126728D01*
X0173624Y0126447D01*
X0173428Y0126171D01*
X0173226Y0125900D01*
X0173017Y0125633D01*
X0172802Y0125372D01*
X0172581Y0125116D01*
X0172354Y0124866D01*
X0172120Y0124621D01*
X0171881Y0124382D01*
X0171636Y0124148D01*
X0171386Y0123921D01*
X0171130Y0123700D01*
X0170869Y0123485D01*
X0170602Y0123276D01*
X0170331Y0123074D01*
X0170055Y0122878D01*
X0169774Y0122689D01*
X0169489Y0122507D01*
X0169199Y0122332D01*
X0168906Y0122164D01*
X0168608Y0122004D01*
X0168307Y0121850D01*
X0168002Y0121704D01*
X0167693Y0121565D01*
X0167381Y0121434D01*
X0167066Y0121310D01*
X0166749Y0121194D01*
X0166428Y0121085D01*
X0166105Y0120985D01*
X0165780Y0120892D01*
X0165452Y0120807D01*
X0165123Y0120730D01*
X0164792Y0120661D01*
X0164459Y0120600D01*
X0164125Y0120547D01*
X0163790Y0120502D01*
X0163453Y0120465D01*
X0163116Y0120437D01*
X0162778Y0120416D01*
X0162440Y0120404D01*
X0162102Y0120400D01*
X0059102Y0150062D02*
X0059102Y0150062D01*
X0059102Y0151660D02*
X0059102Y0151660D01*
X0059102Y0153259D02*
X0059102Y0153259D01*
X0056831Y0153259D02*
X0040802Y0153259D01*
X0040802Y0151660D02*
X0055232Y0151660D01*
X0055121Y0150062D02*
X0040802Y0150062D01*
X0040802Y0148463D02*
X0055121Y0148463D01*
X0056507Y0146865D02*
X0040802Y0146865D01*
D24*
X0048102Y0168400D03*
X0069602Y0169900D03*
X0048602Y0213900D03*
X0047602Y0243900D03*
X0085602Y0266400D03*
X0096602Y0239900D03*
X0124102Y0253900D03*
X0156102Y0265900D03*
X0221602Y0259400D03*
X0252102Y0260900D03*
X0267102Y0229400D03*
X0263602Y0206900D03*
X0236602Y0209400D03*
X0235602Y0180900D03*
X0264602Y0179400D03*
X0227602Y0138900D03*
X0261602Y0128400D03*
X0266102Y0099400D03*
X0265102Y0069900D03*
X0234102Y0067400D03*
X0208602Y0066900D03*
X0227602Y0101400D03*
X0179602Y0030900D03*
X0116102Y0092900D03*
X0088102Y0091900D03*
X0062102Y0088900D03*
X0062102Y0062900D03*
X0062602Y0035900D03*
X0092102Y0033900D03*
X0111602Y0015400D03*
X0078602Y0117400D03*
X0254602Y0011400D03*
M02*
