G75*
%MOIN*%
%OFA0B0*%
%FSLAX25Y25*%
%IPPOS*%
%LPD*%
%AMOC8*
5,1,8,0,0,1.08239X$1,22.5*
%
%ADD10OC8,0.05200*%
%ADD11C,0.05200*%
%ADD12C,0.06000*%
%ADD13C,0.05600*%
%ADD14R,0.05543X0.05543*%
%ADD15C,0.05543*%
%ADD16C,0.04400*%
%ADD17C,0.01600*%
%ADD18R,0.03175X0.03175*%
%ADD19C,0.05000*%
D10*
X0051602Y0019400D03*
X0076102Y0054900D03*
X0086102Y0054900D03*
X0086102Y0074900D03*
X0076102Y0074900D03*
X0096102Y0103400D03*
X0116102Y0103400D03*
X0110102Y0139900D03*
X0110102Y0179900D03*
X0065102Y0169900D03*
X0059102Y0149400D03*
X0059102Y0139400D03*
X0061602Y0110900D03*
X0051602Y0110900D03*
X0091602Y0019400D03*
X0182602Y0049900D03*
X0182602Y0069900D03*
X0195102Y0129900D03*
X0195102Y0149900D03*
X0065102Y0209900D03*
D11*
X0128502Y0149900D02*
X0133702Y0149900D01*
X0133702Y0139900D02*
X0128502Y0139900D01*
X0128502Y0129900D02*
X0133702Y0129900D01*
X0133702Y0119900D02*
X0128502Y0119900D01*
X0128502Y0109900D02*
X0133702Y0109900D01*
X0133702Y0099900D02*
X0128502Y0099900D01*
X0128502Y0089900D02*
X0133702Y0089900D01*
X0133702Y0079900D02*
X0128502Y0079900D01*
X0128502Y0069900D02*
X0133702Y0069900D01*
X0133702Y0059900D02*
X0128502Y0059900D01*
X0128502Y0049900D02*
X0133702Y0049900D01*
X0133702Y0039900D02*
X0128502Y0039900D01*
X0128502Y0029900D02*
X0133702Y0029900D01*
X0133702Y0019900D02*
X0128502Y0019900D01*
X0158502Y0019900D02*
X0163702Y0019900D01*
X0163702Y0029900D02*
X0158502Y0029900D01*
X0158502Y0039900D02*
X0163702Y0039900D01*
X0163702Y0049900D02*
X0158502Y0049900D01*
X0158502Y0059900D02*
X0163702Y0059900D01*
X0163702Y0069900D02*
X0158502Y0069900D01*
X0158502Y0079900D02*
X0163702Y0079900D01*
X0163702Y0089900D02*
X0158502Y0089900D01*
X0158502Y0099900D02*
X0163702Y0099900D01*
X0163702Y0109900D02*
X0158502Y0109900D01*
X0158502Y0119900D02*
X0163702Y0119900D01*
X0163702Y0129900D02*
X0158502Y0129900D01*
X0158502Y0139900D02*
X0163702Y0139900D01*
X0163702Y0149900D02*
X0158502Y0149900D01*
D12*
X0161102Y0171900D02*
X0161102Y0177900D01*
X0151102Y0177900D02*
X0151102Y0171900D01*
X0141102Y0171900D02*
X0141102Y0177900D01*
X0131102Y0177900D02*
X0131102Y0171900D01*
X0171102Y0171900D02*
X0171102Y0177900D01*
X0213354Y0149900D02*
X0219354Y0149900D01*
X0219354Y0139900D02*
X0213354Y0139900D01*
X0213354Y0129900D02*
X0219354Y0129900D01*
X0219354Y0119900D02*
X0213354Y0119900D01*
X0244850Y0119900D02*
X0250850Y0119900D01*
X0250850Y0129900D02*
X0244850Y0129900D01*
X0244850Y0139900D02*
X0250850Y0139900D01*
X0250850Y0149900D02*
X0244850Y0149900D01*
D13*
X0093402Y0149400D02*
X0087802Y0149400D01*
X0087802Y0139400D02*
X0093402Y0139400D01*
D14*
X0091102Y0210018D03*
X0096102Y0220018D03*
X0106102Y0220018D03*
X0101102Y0210018D03*
X0111102Y0210018D03*
X0116102Y0220018D03*
X0121102Y0210018D03*
X0126102Y0220018D03*
X0146102Y0210018D03*
X0156102Y0210018D03*
X0151102Y0220018D03*
X0161102Y0220018D03*
X0166102Y0210018D03*
X0171102Y0220018D03*
X0181102Y0220018D03*
X0176102Y0210018D03*
D15*
X0221488Y0098601D02*
X0227031Y0098601D01*
X0241173Y0098601D02*
X0246716Y0098601D01*
D16*
X0108302Y0074900D02*
X0103902Y0074900D01*
X0103902Y0054900D02*
X0108302Y0054900D01*
D17*
X0041302Y0006600D02*
X0041302Y0123736D01*
X0041710Y0123328D01*
X0044560Y0122147D01*
X0047644Y0122147D01*
X0050494Y0123328D01*
X0052675Y0125508D01*
X0053855Y0128358D01*
X0053855Y0131442D01*
X0052675Y0134292D01*
X0050494Y0136472D01*
X0047644Y0137653D01*
X0044560Y0137653D01*
X0041710Y0136472D01*
X0041302Y0136064D01*
X0041302Y0279700D01*
X0272902Y0279700D01*
X0272902Y0135064D01*
X0271494Y0136472D01*
X0268644Y0137653D01*
X0265560Y0137653D01*
X0262710Y0136472D01*
X0260530Y0134292D01*
X0259349Y0131442D01*
X0259349Y0128358D01*
X0260530Y0125508D01*
X0262710Y0123328D01*
X0265560Y0122147D01*
X0268644Y0122147D01*
X0271494Y0123328D01*
X0272902Y0124736D01*
X0272902Y0006600D01*
X0041302Y0006600D01*
X0041302Y0007294D02*
X0272902Y0007294D01*
X0272902Y0008893D02*
X0041302Y0008893D01*
X0041302Y0010491D02*
X0272902Y0010491D01*
X0272902Y0012090D02*
X0041302Y0012090D01*
X0041302Y0013688D02*
X0047980Y0013688D01*
X0048868Y0012800D02*
X0054336Y0012800D01*
X0058202Y0016666D01*
X0058202Y0022134D01*
X0054336Y0026000D01*
X0048868Y0026000D01*
X0045002Y0022134D01*
X0045002Y0016666D01*
X0048868Y0012800D01*
X0046382Y0015287D02*
X0041302Y0015287D01*
X0041302Y0016885D02*
X0045002Y0016885D01*
X0045002Y0018484D02*
X0041302Y0018484D01*
X0041302Y0020082D02*
X0045002Y0020082D01*
X0045002Y0021681D02*
X0041302Y0021681D01*
X0041302Y0023279D02*
X0046147Y0023279D01*
X0047746Y0024878D02*
X0041302Y0024878D01*
X0041302Y0026476D02*
X0122776Y0026476D01*
X0122907Y0026161D02*
X0124168Y0024900D01*
X0122907Y0023639D01*
X0121902Y0021213D01*
X0121902Y0018587D01*
X0122907Y0016161D01*
X0124763Y0014305D01*
X0127189Y0013300D01*
X0135015Y0013300D01*
X0137441Y0014305D01*
X0139297Y0016161D01*
X0140302Y0018587D01*
X0140302Y0021213D01*
X0139297Y0023639D01*
X0138036Y0024900D01*
X0139297Y0026161D01*
X0140302Y0028587D01*
X0140302Y0031213D01*
X0139297Y0033639D01*
X0138036Y0034900D01*
X0139297Y0036161D01*
X0140302Y0038587D01*
X0140302Y0041213D01*
X0139297Y0043639D01*
X0138036Y0044900D01*
X0139297Y0046161D01*
X0140302Y0048587D01*
X0140302Y0051213D01*
X0139297Y0053639D01*
X0138036Y0054900D01*
X0139297Y0056161D01*
X0140302Y0058587D01*
X0140302Y0061213D01*
X0139297Y0063639D01*
X0138036Y0064900D01*
X0139297Y0066161D01*
X0140302Y0068587D01*
X0140302Y0071213D01*
X0139297Y0073639D01*
X0137441Y0075495D01*
X0135956Y0076110D01*
X0136008Y0076137D01*
X0136568Y0076544D01*
X0137058Y0077034D01*
X0137465Y0077594D01*
X0137780Y0078211D01*
X0137994Y0078870D01*
X0138102Y0079554D01*
X0138102Y0079900D01*
X0138102Y0080246D01*
X0137994Y0080930D01*
X0137780Y0081589D01*
X0137465Y0082206D01*
X0137058Y0082766D01*
X0136568Y0083256D01*
X0136008Y0083663D01*
X0135956Y0083690D01*
X0137441Y0084305D01*
X0139297Y0086161D01*
X0140302Y0088587D01*
X0140302Y0091213D01*
X0139297Y0093639D01*
X0138036Y0094900D01*
X0139297Y0096161D01*
X0140302Y0098587D01*
X0140302Y0101213D01*
X0139297Y0103639D01*
X0138036Y0104900D01*
X0139297Y0106161D01*
X0140302Y0108587D01*
X0140302Y0111213D01*
X0139297Y0113639D01*
X0138036Y0114900D01*
X0139297Y0116161D01*
X0140302Y0118587D01*
X0140302Y0121213D01*
X0139297Y0123639D01*
X0138036Y0124900D01*
X0139297Y0126161D01*
X0140302Y0128587D01*
X0140302Y0131213D01*
X0139297Y0133639D01*
X0138036Y0134900D01*
X0139297Y0136161D01*
X0140302Y0138587D01*
X0140302Y0141213D01*
X0139297Y0143639D01*
X0138036Y0144900D01*
X0139297Y0146161D01*
X0140302Y0148587D01*
X0140302Y0151213D01*
X0139297Y0153639D01*
X0137441Y0155495D01*
X0135015Y0156500D01*
X0127189Y0156500D01*
X0124763Y0155495D01*
X0122907Y0153639D01*
X0121902Y0151213D01*
X0121902Y0148587D01*
X0122907Y0146161D01*
X0124168Y0144900D01*
X0122907Y0143639D01*
X0121902Y0141213D01*
X0121902Y0138587D01*
X0122907Y0136161D01*
X0124168Y0134900D01*
X0122907Y0133639D01*
X0121902Y0131213D01*
X0121902Y0128587D01*
X0122907Y0126161D01*
X0124168Y0124900D01*
X0122907Y0123639D01*
X0121902Y0121213D01*
X0121902Y0118587D01*
X0122907Y0116161D01*
X0124168Y0114900D01*
X0122907Y0113639D01*
X0121902Y0111213D01*
X0121902Y0108587D01*
X0122907Y0106161D01*
X0124168Y0104900D01*
X0122907Y0103639D01*
X0122702Y0103144D01*
X0122702Y0106134D01*
X0118836Y0110000D01*
X0113368Y0110000D01*
X0109502Y0106134D01*
X0109502Y0100666D01*
X0113368Y0096800D01*
X0118836Y0096800D01*
X0121902Y0099866D01*
X0121902Y0098587D01*
X0122907Y0096161D01*
X0124168Y0094900D01*
X0122907Y0093639D01*
X0121902Y0091213D01*
X0121902Y0088587D01*
X0122907Y0086161D01*
X0124763Y0084305D01*
X0126248Y0083690D01*
X0126196Y0083663D01*
X0125636Y0083256D01*
X0125146Y0082766D01*
X0124739Y0082206D01*
X0124424Y0081589D01*
X0124210Y0080930D01*
X0124102Y0080246D01*
X0124102Y0079900D01*
X0131102Y0079900D01*
X0131102Y0079900D01*
X0124102Y0079900D01*
X0124102Y0079554D01*
X0124210Y0078870D01*
X0124424Y0078211D01*
X0124739Y0077594D01*
X0125146Y0077034D01*
X0125636Y0076544D01*
X0126196Y0076137D01*
X0126248Y0076110D01*
X0124763Y0075495D01*
X0122907Y0073639D01*
X0121902Y0071213D01*
X0121902Y0068587D01*
X0122907Y0066161D01*
X0124168Y0064900D01*
X0122907Y0063639D01*
X0121902Y0061213D01*
X0121902Y0058587D01*
X0122907Y0056161D01*
X0124168Y0054900D01*
X0122907Y0053639D01*
X0121902Y0051213D01*
X0121902Y0048587D01*
X0122907Y0046161D01*
X0124168Y0044900D01*
X0122907Y0043639D01*
X0121902Y0041213D01*
X0121902Y0038587D01*
X0122907Y0036161D01*
X0124168Y0034900D01*
X0122907Y0033639D01*
X0121902Y0031213D01*
X0121902Y0028587D01*
X0122907Y0026161D01*
X0124146Y0024878D02*
X0095458Y0024878D01*
X0094336Y0026000D02*
X0098202Y0022134D01*
X0098202Y0016666D01*
X0094336Y0012800D01*
X0088868Y0012800D01*
X0085002Y0016666D01*
X0085002Y0022134D01*
X0088868Y0026000D01*
X0094336Y0026000D01*
X0097057Y0023279D02*
X0122758Y0023279D01*
X0122096Y0021681D02*
X0098202Y0021681D01*
X0098202Y0020082D02*
X0121902Y0020082D01*
X0121945Y0018484D02*
X0098202Y0018484D01*
X0098202Y0016885D02*
X0122607Y0016885D01*
X0123782Y0015287D02*
X0096822Y0015287D01*
X0095224Y0013688D02*
X0126252Y0013688D01*
X0135952Y0013688D02*
X0156252Y0013688D01*
X0157189Y0013300D02*
X0154763Y0014305D01*
X0152907Y0016161D01*
X0151902Y0018587D01*
X0151902Y0021213D01*
X0152907Y0023639D01*
X0154168Y0024900D01*
X0152907Y0026161D01*
X0151902Y0028587D01*
X0151902Y0031213D01*
X0152907Y0033639D01*
X0154168Y0034900D01*
X0152907Y0036161D01*
X0151902Y0038587D01*
X0151902Y0041213D01*
X0152907Y0043639D01*
X0154168Y0044900D01*
X0152907Y0046161D01*
X0151902Y0048587D01*
X0151902Y0051213D01*
X0152907Y0053639D01*
X0154763Y0055495D01*
X0156248Y0056110D01*
X0156196Y0056137D01*
X0155636Y0056544D01*
X0155146Y0057034D01*
X0154739Y0057594D01*
X0154424Y0058211D01*
X0154210Y0058870D01*
X0154102Y0059554D01*
X0154102Y0059900D01*
X0161102Y0059900D01*
X0161102Y0059900D01*
X0154102Y0059900D01*
X0154102Y0060246D01*
X0154210Y0060930D01*
X0154424Y0061589D01*
X0154739Y0062206D01*
X0155146Y0062766D01*
X0155636Y0063256D01*
X0156196Y0063663D01*
X0156248Y0063690D01*
X0154763Y0064305D01*
X0152907Y0066161D01*
X0151902Y0068587D01*
X0151902Y0071213D01*
X0152907Y0073639D01*
X0154168Y0074900D01*
X0152907Y0076161D01*
X0151902Y0078587D01*
X0151902Y0081213D01*
X0152907Y0083639D01*
X0154168Y0084900D01*
X0152907Y0086161D01*
X0151902Y0088587D01*
X0151902Y0091213D01*
X0152907Y0093639D01*
X0154168Y0094900D01*
X0152907Y0096161D01*
X0152492Y0097163D01*
X0149559Y0098856D01*
X0149559Y0098856D01*
X0146058Y0102357D01*
X0146058Y0102357D01*
X0143583Y0106643D01*
X0143583Y0106643D01*
X0142302Y0111425D01*
X0142302Y0148635D01*
X0142243Y0148816D01*
X0142302Y0149584D01*
X0142302Y0150355D01*
X0142375Y0150530D01*
X0142496Y0152110D01*
X0142496Y0152110D01*
X0144056Y0156540D01*
X0144056Y0156540D01*
X0146710Y0160416D01*
X0146710Y0160416D01*
X0150276Y0163472D01*
X0150276Y0163472D01*
X0154512Y0165502D01*
X0154512Y0165502D01*
X0157114Y0165989D01*
X0155168Y0167935D01*
X0154800Y0168823D01*
X0154763Y0168773D01*
X0154229Y0168239D01*
X0153618Y0167795D01*
X0152945Y0167452D01*
X0152226Y0167218D01*
X0151480Y0167100D01*
X0151302Y0167100D01*
X0151302Y0174700D01*
X0150902Y0174700D01*
X0150902Y0167100D01*
X0150724Y0167100D01*
X0149978Y0167218D01*
X0149259Y0167452D01*
X0148586Y0167795D01*
X0147975Y0168239D01*
X0147441Y0168773D01*
X0147404Y0168823D01*
X0147036Y0167935D01*
X0145067Y0165966D01*
X0142494Y0164900D01*
X0139710Y0164900D01*
X0137137Y0165966D01*
X0136102Y0167001D01*
X0135067Y0165966D01*
X0132494Y0164900D01*
X0129710Y0164900D01*
X0127137Y0165966D01*
X0125168Y0167935D01*
X0124102Y0170508D01*
X0124102Y0179292D01*
X0125168Y0181865D01*
X0127137Y0183834D01*
X0129710Y0184900D01*
X0132494Y0184900D01*
X0135067Y0183834D01*
X0136102Y0182799D01*
X0137137Y0183834D01*
X0139710Y0184900D01*
X0142494Y0184900D01*
X0145067Y0183834D01*
X0147036Y0181865D01*
X0147404Y0180977D01*
X0147441Y0181027D01*
X0147975Y0181561D01*
X0148586Y0182005D01*
X0149259Y0182348D01*
X0149978Y0182582D01*
X0150724Y0182700D01*
X0150902Y0182700D01*
X0150902Y0175100D01*
X0151302Y0175100D01*
X0151302Y0182700D01*
X0151480Y0182700D01*
X0152226Y0182582D01*
X0152945Y0182348D01*
X0153618Y0182005D01*
X0154229Y0181561D01*
X0154763Y0181027D01*
X0154800Y0180977D01*
X0155168Y0181865D01*
X0157137Y0183834D01*
X0159710Y0184900D01*
X0162494Y0184900D01*
X0165067Y0183834D01*
X0166102Y0182799D01*
X0167137Y0183834D01*
X0169710Y0184900D01*
X0172494Y0184900D01*
X0175067Y0183834D01*
X0177036Y0181865D01*
X0178102Y0179292D01*
X0178102Y0170508D01*
X0177036Y0167935D01*
X0175302Y0166200D01*
X0207000Y0166200D01*
X0211146Y0165089D01*
X0211146Y0165089D01*
X0214862Y0162943D01*
X0214862Y0162943D01*
X0217897Y0159908D01*
X0217897Y0159908D01*
X0219634Y0156900D01*
X0220746Y0156900D01*
X0223319Y0155834D01*
X0225288Y0153865D01*
X0226354Y0151292D01*
X0226354Y0148508D01*
X0225288Y0145935D01*
X0223319Y0143966D01*
X0222431Y0143598D01*
X0222481Y0143561D01*
X0223015Y0143027D01*
X0223459Y0142416D01*
X0223802Y0141743D01*
X0224036Y0141024D01*
X0224154Y0140278D01*
X0224154Y0139900D01*
X0216354Y0139900D01*
X0216354Y0139900D01*
X0208554Y0139900D01*
X0208554Y0140278D01*
X0208672Y0141024D01*
X0208906Y0141743D01*
X0209249Y0142416D01*
X0209693Y0143027D01*
X0210227Y0143561D01*
X0210277Y0143598D01*
X0209389Y0143966D01*
X0207420Y0145935D01*
X0206354Y0148508D01*
X0206354Y0151292D01*
X0207420Y0153865D01*
X0208830Y0155275D01*
X0207418Y0156090D01*
X0205729Y0156543D01*
X0204854Y0156600D01*
X0161867Y0156600D01*
X0161686Y0156541D01*
X0160918Y0156600D01*
X0160147Y0156600D01*
X0160096Y0156621D01*
X0159656Y0156626D01*
X0158981Y0156500D01*
X0165015Y0156500D01*
X0167441Y0155495D01*
X0169297Y0153639D01*
X0170302Y0151213D01*
X0170302Y0148587D01*
X0169297Y0146161D01*
X0168036Y0144900D01*
X0169297Y0143639D01*
X0170302Y0141213D01*
X0170302Y0138587D01*
X0169297Y0136161D01*
X0168036Y0134900D01*
X0169297Y0133639D01*
X0170302Y0131213D01*
X0170302Y0128587D01*
X0169297Y0126161D01*
X0168036Y0124900D01*
X0169297Y0123639D01*
X0170302Y0121213D01*
X0170302Y0118587D01*
X0169297Y0116161D01*
X0168036Y0114900D01*
X0168236Y0114700D01*
X0206354Y0114700D01*
X0207033Y0114744D01*
X0208277Y0115078D01*
X0207420Y0115935D01*
X0206354Y0118508D01*
X0206354Y0121292D01*
X0207420Y0123865D01*
X0208455Y0124900D01*
X0207420Y0125935D01*
X0206354Y0128508D01*
X0206354Y0131292D01*
X0207420Y0133865D01*
X0209389Y0135834D01*
X0210277Y0136202D01*
X0210227Y0136239D01*
X0209693Y0136773D01*
X0209249Y0137384D01*
X0208906Y0138057D01*
X0208672Y0138776D01*
X0208554Y0139522D01*
X0208554Y0139900D01*
X0216354Y0139900D01*
X0216354Y0139900D01*
X0224154Y0139900D01*
X0224154Y0139522D01*
X0224036Y0138776D01*
X0223802Y0138057D01*
X0223459Y0137384D01*
X0223015Y0136773D01*
X0222481Y0136239D01*
X0222431Y0136202D01*
X0223319Y0135834D01*
X0225288Y0133865D01*
X0226354Y0131292D01*
X0226354Y0128508D01*
X0225288Y0125935D01*
X0224254Y0124900D01*
X0225288Y0123865D01*
X0226354Y0121292D01*
X0226354Y0118508D01*
X0225288Y0115935D01*
X0223319Y0113966D01*
X0220746Y0112900D01*
X0219402Y0112900D01*
X0218197Y0110813D01*
X0218197Y0110813D01*
X0218197Y0110813D01*
X0215441Y0108057D01*
X0212067Y0106109D01*
X0208302Y0105100D01*
X0168236Y0105100D01*
X0168036Y0104900D01*
X0169297Y0103639D01*
X0170302Y0101213D01*
X0170302Y0098587D01*
X0169297Y0096161D01*
X0168036Y0094900D01*
X0169297Y0093639D01*
X0170302Y0091213D01*
X0170302Y0088587D01*
X0169297Y0086161D01*
X0168036Y0084900D01*
X0168236Y0084700D01*
X0225244Y0084700D01*
X0226800Y0084787D01*
X0229835Y0085480D01*
X0232639Y0086831D01*
X0235073Y0088771D01*
X0237014Y0091205D01*
X0237732Y0092696D01*
X0237337Y0092860D01*
X0235432Y0094765D01*
X0234401Y0097254D01*
X0234401Y0099948D01*
X0235432Y0102437D01*
X0237337Y0104342D01*
X0239826Y0105372D01*
X0248063Y0105372D01*
X0250552Y0104342D01*
X0252457Y0102437D01*
X0253488Y0099948D01*
X0253488Y0097254D01*
X0252457Y0094765D01*
X0250552Y0092860D01*
X0248063Y0091829D01*
X0247803Y0091829D01*
X0247566Y0090790D01*
X0247566Y0090790D01*
X0245268Y0086019D01*
X0245268Y0086018D01*
X0241967Y0081878D01*
X0241967Y0081878D01*
X0241966Y0081878D01*
X0237826Y0078576D01*
X0237826Y0078576D01*
X0233055Y0076278D01*
X0233055Y0076278D01*
X0227892Y0075100D01*
X0186736Y0075100D01*
X0189202Y0072634D01*
X0189202Y0067166D01*
X0185336Y0063300D01*
X0179868Y0063300D01*
X0176002Y0067166D01*
X0176002Y0072634D01*
X0178468Y0075100D01*
X0168236Y0075100D01*
X0168036Y0074900D01*
X0169297Y0073639D01*
X0170302Y0071213D01*
X0170302Y0068587D01*
X0169297Y0066161D01*
X0167441Y0064305D01*
X0165956Y0063690D01*
X0166008Y0063663D01*
X0166568Y0063256D01*
X0167058Y0062766D01*
X0167465Y0062206D01*
X0167780Y0061589D01*
X0167994Y0060930D01*
X0168102Y0060246D01*
X0168102Y0059900D01*
X0161102Y0059900D01*
X0161102Y0059900D01*
X0168102Y0059900D01*
X0168102Y0059554D01*
X0167994Y0058870D01*
X0167780Y0058211D01*
X0167465Y0057594D01*
X0167058Y0057034D01*
X0166568Y0056544D01*
X0166008Y0056137D01*
X0165956Y0056110D01*
X0167441Y0055495D01*
X0169297Y0053639D01*
X0170302Y0051213D01*
X0170302Y0048587D01*
X0169297Y0046161D01*
X0168036Y0044900D01*
X0169297Y0043639D01*
X0170302Y0041213D01*
X0170302Y0038587D01*
X0169297Y0036161D01*
X0168036Y0034900D01*
X0169297Y0033639D01*
X0170302Y0031213D01*
X0170302Y0028587D01*
X0169297Y0026161D01*
X0168036Y0024900D01*
X0169297Y0023639D01*
X0170302Y0021213D01*
X0170302Y0018587D01*
X0169297Y0016161D01*
X0167441Y0014305D01*
X0165015Y0013300D01*
X0157189Y0013300D01*
X0153782Y0015287D02*
X0138422Y0015287D01*
X0139597Y0016885D02*
X0152607Y0016885D01*
X0151945Y0018484D02*
X0140259Y0018484D01*
X0140302Y0020082D02*
X0151902Y0020082D01*
X0152096Y0021681D02*
X0140108Y0021681D01*
X0139446Y0023279D02*
X0152758Y0023279D01*
X0154146Y0024878D02*
X0138058Y0024878D01*
X0139428Y0026476D02*
X0152776Y0026476D01*
X0152114Y0028075D02*
X0140090Y0028075D01*
X0140302Y0029673D02*
X0151902Y0029673D01*
X0151926Y0031272D02*
X0140278Y0031272D01*
X0139616Y0032870D02*
X0152589Y0032870D01*
X0153737Y0034469D02*
X0138467Y0034469D01*
X0139203Y0036067D02*
X0153001Y0036067D01*
X0152284Y0037666D02*
X0139920Y0037666D01*
X0140302Y0039264D02*
X0151902Y0039264D01*
X0151902Y0040863D02*
X0140302Y0040863D01*
X0139785Y0042461D02*
X0152419Y0042461D01*
X0153328Y0044060D02*
X0138876Y0044060D01*
X0138794Y0045658D02*
X0153410Y0045658D01*
X0152453Y0047257D02*
X0139751Y0047257D01*
X0140302Y0048855D02*
X0151902Y0048855D01*
X0151902Y0050454D02*
X0140302Y0050454D01*
X0139954Y0052052D02*
X0152250Y0052052D01*
X0152919Y0053651D02*
X0139285Y0053651D01*
X0138385Y0055249D02*
X0154518Y0055249D01*
X0155332Y0056848D02*
X0139582Y0056848D01*
X0140244Y0058446D02*
X0154348Y0058446D01*
X0154102Y0060045D02*
X0140302Y0060045D01*
X0140124Y0061643D02*
X0154452Y0061643D01*
X0155621Y0063242D02*
X0139462Y0063242D01*
X0138095Y0064840D02*
X0154228Y0064840D01*
X0152792Y0066439D02*
X0139412Y0066439D01*
X0140074Y0068037D02*
X0152130Y0068037D01*
X0151902Y0069636D02*
X0140302Y0069636D01*
X0140293Y0071234D02*
X0151911Y0071234D01*
X0152573Y0072833D02*
X0139631Y0072833D01*
X0138504Y0074432D02*
X0153700Y0074432D01*
X0153038Y0076030D02*
X0136149Y0076030D01*
X0137483Y0077629D02*
X0152299Y0077629D01*
X0151902Y0079227D02*
X0138050Y0079227D01*
X0138102Y0079900D02*
X0131102Y0079900D01*
X0138102Y0079900D01*
X0138010Y0080826D02*
X0151902Y0080826D01*
X0152404Y0082424D02*
X0137307Y0082424D01*
X0136759Y0084023D02*
X0153291Y0084023D01*
X0153447Y0085621D02*
X0138757Y0085621D01*
X0139736Y0087220D02*
X0152469Y0087220D01*
X0151902Y0088818D02*
X0140302Y0088818D01*
X0140302Y0090417D02*
X0151902Y0090417D01*
X0152234Y0092015D02*
X0139970Y0092015D01*
X0139308Y0093614D02*
X0152897Y0093614D01*
X0153856Y0095212D02*
X0138348Y0095212D01*
X0139566Y0096811D02*
X0152638Y0096811D01*
X0150333Y0098409D02*
X0140228Y0098409D01*
X0140302Y0100008D02*
X0148407Y0100008D01*
X0146809Y0101606D02*
X0140139Y0101606D01*
X0139477Y0103205D02*
X0145569Y0103205D01*
X0144646Y0104803D02*
X0138133Y0104803D01*
X0139397Y0106402D02*
X0143723Y0106402D01*
X0143220Y0108000D02*
X0140059Y0108000D01*
X0140302Y0109599D02*
X0142791Y0109599D01*
X0142363Y0111197D02*
X0140302Y0111197D01*
X0139646Y0112796D02*
X0142302Y0112796D01*
X0142302Y0114394D02*
X0138542Y0114394D01*
X0139129Y0115993D02*
X0142302Y0115993D01*
X0142302Y0117591D02*
X0139890Y0117591D01*
X0140302Y0119190D02*
X0142302Y0119190D01*
X0142302Y0120788D02*
X0140302Y0120788D01*
X0139816Y0122387D02*
X0142302Y0122387D01*
X0142302Y0123985D02*
X0138950Y0123985D01*
X0138720Y0125584D02*
X0142302Y0125584D01*
X0142302Y0127182D02*
X0139720Y0127182D01*
X0140302Y0128781D02*
X0142302Y0128781D01*
X0142302Y0130379D02*
X0140302Y0130379D01*
X0139985Y0131978D02*
X0142302Y0131978D01*
X0142302Y0133576D02*
X0139323Y0133576D01*
X0138311Y0135175D02*
X0142302Y0135175D01*
X0142302Y0136773D02*
X0139551Y0136773D01*
X0140213Y0138372D02*
X0142302Y0138372D01*
X0142302Y0139970D02*
X0140302Y0139970D01*
X0140155Y0141569D02*
X0142302Y0141569D01*
X0142302Y0143168D02*
X0139492Y0143168D01*
X0138170Y0144766D02*
X0142302Y0144766D01*
X0142302Y0146365D02*
X0139381Y0146365D01*
X0140044Y0147963D02*
X0142302Y0147963D01*
X0142300Y0149562D02*
X0140302Y0149562D01*
X0140302Y0151160D02*
X0142423Y0151160D01*
X0142725Y0152759D02*
X0139662Y0152759D01*
X0138579Y0154357D02*
X0143288Y0154357D01*
X0143851Y0155956D02*
X0136329Y0155956D01*
X0144751Y0157554D02*
X0041302Y0157554D01*
X0041302Y0155956D02*
X0085859Y0155956D01*
X0086449Y0156200D02*
X0083950Y0155165D01*
X0082037Y0153252D01*
X0081002Y0150753D01*
X0081002Y0148047D01*
X0082037Y0145548D01*
X0083185Y0144400D01*
X0082037Y0143252D01*
X0081002Y0140753D01*
X0081002Y0138047D01*
X0082037Y0135548D01*
X0083950Y0133635D01*
X0086449Y0132600D01*
X0094755Y0132600D01*
X0097254Y0133635D01*
X0099167Y0135548D01*
X0100202Y0138047D01*
X0100202Y0140753D01*
X0099167Y0143252D01*
X0098019Y0144400D01*
X0099167Y0145548D01*
X0100202Y0148047D01*
X0100202Y0150753D01*
X0099167Y0153252D01*
X0097254Y0155165D01*
X0094755Y0156200D01*
X0086449Y0156200D01*
X0083143Y0154357D02*
X0041302Y0154357D01*
X0041302Y0152759D02*
X0056238Y0152759D01*
X0057280Y0153800D02*
X0054702Y0151223D01*
X0054702Y0149400D01*
X0059102Y0149400D01*
X0059102Y0149400D01*
X0054702Y0149400D01*
X0054702Y0147577D01*
X0056324Y0145956D01*
X0052502Y0142134D01*
X0052502Y0136666D01*
X0056368Y0132800D01*
X0061836Y0132800D01*
X0065702Y0136666D01*
X0065702Y0142134D01*
X0061880Y0145956D01*
X0063502Y0147577D01*
X0063502Y0149400D01*
X0063502Y0151223D01*
X0060925Y0153800D01*
X0059102Y0153800D01*
X0057280Y0153800D01*
X0059102Y0153800D02*
X0059102Y0149400D01*
X0059102Y0149400D01*
X0059102Y0153800D01*
X0059102Y0152759D02*
X0059102Y0152759D01*
X0059102Y0151160D02*
X0059102Y0151160D01*
X0059102Y0149562D02*
X0059102Y0149562D01*
X0059102Y0149400D02*
X0063502Y0149400D01*
X0059102Y0149400D01*
X0059102Y0149400D01*
X0055915Y0146365D02*
X0041302Y0146365D01*
X0041302Y0147963D02*
X0054702Y0147963D01*
X0054702Y0149562D02*
X0041302Y0149562D01*
X0041302Y0151160D02*
X0054702Y0151160D01*
X0055134Y0144766D02*
X0041302Y0144766D01*
X0041302Y0143168D02*
X0053536Y0143168D01*
X0052502Y0141569D02*
X0041302Y0141569D01*
X0041302Y0139970D02*
X0052502Y0139970D01*
X0052502Y0138372D02*
X0041302Y0138372D01*
X0041302Y0136773D02*
X0042437Y0136773D01*
X0049767Y0136773D02*
X0052502Y0136773D01*
X0051791Y0135175D02*
X0053993Y0135175D01*
X0052971Y0133576D02*
X0055592Y0133576D01*
X0053633Y0131978D02*
X0122219Y0131978D01*
X0121902Y0130379D02*
X0053855Y0130379D01*
X0053855Y0128781D02*
X0121902Y0128781D01*
X0122484Y0127182D02*
X0053368Y0127182D01*
X0052706Y0125584D02*
X0123484Y0125584D01*
X0123254Y0123985D02*
X0051151Y0123985D01*
X0048223Y0122387D02*
X0122388Y0122387D01*
X0121902Y0120788D02*
X0041302Y0120788D01*
X0041302Y0119190D02*
X0121902Y0119190D01*
X0122315Y0117591D02*
X0041302Y0117591D01*
X0041302Y0115993D02*
X0047361Y0115993D01*
X0048868Y0117500D02*
X0045002Y0113634D01*
X0045002Y0108166D01*
X0048868Y0104300D01*
X0054336Y0104300D01*
X0058158Y0108122D01*
X0059780Y0106500D01*
X0061602Y0106500D01*
X0061602Y0110900D01*
X0061602Y0115300D01*
X0059780Y0115300D01*
X0058158Y0113678D01*
X0054336Y0117500D01*
X0048868Y0117500D01*
X0045763Y0114394D02*
X0041302Y0114394D01*
X0041302Y0112796D02*
X0045002Y0112796D01*
X0045002Y0111197D02*
X0041302Y0111197D01*
X0041302Y0109599D02*
X0045002Y0109599D01*
X0045168Y0108000D02*
X0041302Y0108000D01*
X0041302Y0106402D02*
X0046767Y0106402D01*
X0048365Y0104803D02*
X0041302Y0104803D01*
X0041302Y0103205D02*
X0091702Y0103205D01*
X0091702Y0103400D02*
X0091702Y0101577D01*
X0094280Y0099000D01*
X0096102Y0099000D01*
X0096102Y0103400D01*
X0096102Y0103400D01*
X0091702Y0103400D01*
X0091702Y0105223D01*
X0094280Y0107800D01*
X0096102Y0107800D01*
X0096102Y0103400D01*
X0091702Y0103400D01*
X0091702Y0104803D02*
X0054839Y0104803D01*
X0056438Y0106402D02*
X0092881Y0106402D01*
X0096102Y0106402D02*
X0096102Y0106402D01*
X0096102Y0107800D02*
X0096102Y0103400D01*
X0096102Y0103400D01*
X0096102Y0103400D01*
X0096102Y0099000D01*
X0097925Y0099000D01*
X0100502Y0101577D01*
X0100502Y0103400D01*
X0100502Y0105223D01*
X0097925Y0107800D01*
X0096102Y0107800D01*
X0096102Y0104803D02*
X0096102Y0104803D01*
X0096102Y0103400D02*
X0100502Y0103400D01*
X0096102Y0103400D01*
X0096102Y0103400D01*
X0096102Y0103205D02*
X0096102Y0103205D01*
X0096102Y0101606D02*
X0096102Y0101606D01*
X0096102Y0100008D02*
X0096102Y0100008D01*
X0093272Y0100008D02*
X0041302Y0100008D01*
X0041302Y0101606D02*
X0091702Y0101606D01*
X0098932Y0100008D02*
X0110161Y0100008D01*
X0109502Y0101606D02*
X0100502Y0101606D01*
X0100502Y0103205D02*
X0109502Y0103205D01*
X0109502Y0104803D02*
X0100502Y0104803D01*
X0099323Y0106402D02*
X0109770Y0106402D01*
X0111369Y0108000D02*
X0064925Y0108000D01*
X0066002Y0109077D02*
X0066002Y0110900D01*
X0066002Y0112723D01*
X0063425Y0115300D01*
X0061602Y0115300D01*
X0061602Y0110900D01*
X0061602Y0110900D01*
X0061602Y0110900D01*
X0061602Y0106500D01*
X0063425Y0106500D01*
X0066002Y0109077D01*
X0066002Y0109599D02*
X0112967Y0109599D01*
X0119237Y0109599D02*
X0121902Y0109599D01*
X0121902Y0111197D02*
X0066002Y0111197D01*
X0066002Y0110900D02*
X0061602Y0110900D01*
X0061602Y0110900D01*
X0066002Y0110900D01*
X0065929Y0112796D02*
X0122558Y0112796D01*
X0123663Y0114394D02*
X0064330Y0114394D01*
X0061602Y0114394D02*
X0061602Y0114394D01*
X0061602Y0112796D02*
X0061602Y0112796D01*
X0061602Y0111197D02*
X0061602Y0111197D01*
X0061602Y0109599D02*
X0061602Y0109599D01*
X0061602Y0108000D02*
X0061602Y0108000D01*
X0058279Y0108000D02*
X0058036Y0108000D01*
X0057442Y0114394D02*
X0058874Y0114394D01*
X0055843Y0115993D02*
X0123075Y0115993D01*
X0122145Y0108000D02*
X0120836Y0108000D01*
X0122434Y0106402D02*
X0122807Y0106402D01*
X0122702Y0104803D02*
X0124071Y0104803D01*
X0122727Y0103205D02*
X0122702Y0103205D01*
X0121976Y0098409D02*
X0120445Y0098409D01*
X0118847Y0096811D02*
X0122638Y0096811D01*
X0123856Y0095212D02*
X0041302Y0095212D01*
X0041302Y0093614D02*
X0122897Y0093614D01*
X0122234Y0092015D02*
X0041302Y0092015D01*
X0041302Y0090417D02*
X0121902Y0090417D01*
X0121902Y0088818D02*
X0041302Y0088818D01*
X0041302Y0087220D02*
X0122469Y0087220D01*
X0123447Y0085621D02*
X0041302Y0085621D01*
X0041302Y0084023D02*
X0125445Y0084023D01*
X0124897Y0082424D02*
X0041302Y0082424D01*
X0041302Y0080826D02*
X0082694Y0080826D01*
X0083368Y0081500D02*
X0079546Y0077678D01*
X0077925Y0079300D01*
X0076102Y0079300D01*
X0074280Y0079300D01*
X0071702Y0076723D01*
X0071702Y0074900D01*
X0076102Y0074900D01*
X0076102Y0074900D01*
X0071702Y0074900D01*
X0071702Y0073077D01*
X0074280Y0070500D01*
X0076102Y0070500D01*
X0076102Y0074900D01*
X0076102Y0079300D01*
X0076102Y0074900D01*
X0076102Y0074900D01*
X0076102Y0074900D01*
X0076102Y0070500D01*
X0077925Y0070500D01*
X0079546Y0072122D01*
X0083368Y0068300D01*
X0088836Y0068300D01*
X0092702Y0072166D01*
X0092702Y0077634D01*
X0088836Y0081500D01*
X0083368Y0081500D01*
X0081095Y0079227D02*
X0077998Y0079227D01*
X0076102Y0079227D02*
X0076102Y0079227D01*
X0076102Y0077629D02*
X0076102Y0077629D01*
X0076102Y0076030D02*
X0076102Y0076030D01*
X0076102Y0074432D02*
X0076102Y0074432D01*
X0076102Y0072833D02*
X0076102Y0072833D01*
X0076102Y0071234D02*
X0076102Y0071234D01*
X0073545Y0071234D02*
X0041302Y0071234D01*
X0041302Y0069636D02*
X0082032Y0069636D01*
X0080434Y0071234D02*
X0078659Y0071234D01*
X0071947Y0072833D02*
X0041302Y0072833D01*
X0041302Y0074432D02*
X0071702Y0074432D01*
X0071702Y0076030D02*
X0041302Y0076030D01*
X0041302Y0077629D02*
X0072608Y0077629D01*
X0074207Y0079227D02*
X0041302Y0079227D01*
X0041302Y0068037D02*
X0122130Y0068037D01*
X0121902Y0069636D02*
X0111795Y0069636D01*
X0111814Y0069644D02*
X0109535Y0068700D01*
X0102669Y0068700D01*
X0100390Y0069644D01*
X0098646Y0071388D01*
X0097702Y0073667D01*
X0097702Y0076133D01*
X0098646Y0078412D01*
X0100390Y0080156D01*
X0102669Y0081100D01*
X0109535Y0081100D01*
X0111814Y0080156D01*
X0113558Y0078412D01*
X0114502Y0076133D01*
X0114502Y0073667D01*
X0113558Y0071388D01*
X0111814Y0069644D01*
X0113405Y0071234D02*
X0121911Y0071234D01*
X0122573Y0072833D02*
X0114157Y0072833D01*
X0114502Y0074432D02*
X0123700Y0074432D01*
X0126055Y0076030D02*
X0114502Y0076030D01*
X0113883Y0077629D02*
X0124721Y0077629D01*
X0124154Y0079227D02*
X0112743Y0079227D01*
X0110198Y0080826D02*
X0124194Y0080826D01*
X0131102Y0079900D02*
X0131102Y0079900D01*
X0122792Y0066439D02*
X0041302Y0066439D01*
X0041302Y0064840D02*
X0124109Y0064840D01*
X0122743Y0063242D02*
X0041302Y0063242D01*
X0041302Y0061643D02*
X0122080Y0061643D01*
X0121902Y0060045D02*
X0111925Y0060045D01*
X0111814Y0060156D02*
X0109535Y0061100D01*
X0102669Y0061100D01*
X0100390Y0060156D01*
X0098646Y0058412D01*
X0097702Y0056133D01*
X0097702Y0053667D01*
X0098646Y0051388D01*
X0100390Y0049644D01*
X0102669Y0048700D01*
X0109535Y0048700D01*
X0111814Y0049644D01*
X0113558Y0051388D01*
X0114502Y0053667D01*
X0114502Y0056133D01*
X0113558Y0058412D01*
X0111814Y0060156D01*
X0113524Y0058446D02*
X0121960Y0058446D01*
X0122622Y0056848D02*
X0114206Y0056848D01*
X0114502Y0055249D02*
X0123819Y0055249D01*
X0122919Y0053651D02*
X0114495Y0053651D01*
X0113833Y0052052D02*
X0122250Y0052052D01*
X0121902Y0050454D02*
X0112624Y0050454D01*
X0109910Y0048855D02*
X0121902Y0048855D01*
X0122453Y0047257D02*
X0041302Y0047257D01*
X0041302Y0048855D02*
X0082813Y0048855D01*
X0083368Y0048300D02*
X0079546Y0052122D01*
X0077925Y0050500D01*
X0076102Y0050500D01*
X0076102Y0054900D01*
X0076102Y0054900D01*
X0071702Y0054900D01*
X0071702Y0056723D01*
X0074280Y0059300D01*
X0076102Y0059300D01*
X0076102Y0054900D01*
X0071702Y0054900D01*
X0071702Y0053077D01*
X0074280Y0050500D01*
X0076102Y0050500D01*
X0076102Y0054900D01*
X0076102Y0054900D01*
X0076102Y0054900D01*
X0076102Y0059300D01*
X0077925Y0059300D01*
X0079546Y0057678D01*
X0083368Y0061500D01*
X0088836Y0061500D01*
X0092702Y0057634D01*
X0092702Y0052166D01*
X0088836Y0048300D01*
X0083368Y0048300D01*
X0081214Y0050454D02*
X0041302Y0050454D01*
X0041302Y0052052D02*
X0072727Y0052052D01*
X0071702Y0053651D02*
X0041302Y0053651D01*
X0041302Y0055249D02*
X0071702Y0055249D01*
X0071827Y0056848D02*
X0041302Y0056848D01*
X0041302Y0058446D02*
X0073426Y0058446D01*
X0076102Y0058446D02*
X0076102Y0058446D01*
X0076102Y0056848D02*
X0076102Y0056848D01*
X0076102Y0055249D02*
X0076102Y0055249D01*
X0076102Y0053651D02*
X0076102Y0053651D01*
X0076102Y0052052D02*
X0076102Y0052052D01*
X0079477Y0052052D02*
X0079616Y0052052D01*
X0080315Y0058446D02*
X0078778Y0058446D01*
X0081913Y0060045D02*
X0041302Y0060045D01*
X0041302Y0045658D02*
X0123410Y0045658D01*
X0123328Y0044060D02*
X0041302Y0044060D01*
X0041302Y0042461D02*
X0122419Y0042461D01*
X0121902Y0040863D02*
X0041302Y0040863D01*
X0041302Y0039264D02*
X0121902Y0039264D01*
X0122284Y0037666D02*
X0041302Y0037666D01*
X0041302Y0036067D02*
X0123001Y0036067D01*
X0123737Y0034469D02*
X0041302Y0034469D01*
X0041302Y0032870D02*
X0122589Y0032870D01*
X0121926Y0031272D02*
X0041302Y0031272D01*
X0041302Y0029673D02*
X0121902Y0029673D01*
X0122114Y0028075D02*
X0041302Y0028075D01*
X0055458Y0024878D02*
X0087746Y0024878D01*
X0086147Y0023279D02*
X0057057Y0023279D01*
X0058202Y0021681D02*
X0085002Y0021681D01*
X0085002Y0020082D02*
X0058202Y0020082D01*
X0058202Y0018484D02*
X0085002Y0018484D01*
X0085002Y0016885D02*
X0058202Y0016885D01*
X0056822Y0015287D02*
X0086382Y0015287D01*
X0087980Y0013688D02*
X0055224Y0013688D01*
X0089391Y0048855D02*
X0102294Y0048855D01*
X0099580Y0050454D02*
X0090990Y0050454D01*
X0092588Y0052052D02*
X0098371Y0052052D01*
X0097709Y0053651D02*
X0092702Y0053651D01*
X0092702Y0055249D02*
X0097702Y0055249D01*
X0097998Y0056848D02*
X0092702Y0056848D01*
X0091889Y0058446D02*
X0098680Y0058446D01*
X0100279Y0060045D02*
X0090291Y0060045D01*
X0090172Y0069636D02*
X0100409Y0069636D01*
X0098799Y0071234D02*
X0091770Y0071234D01*
X0092702Y0072833D02*
X0098047Y0072833D01*
X0097702Y0074432D02*
X0092702Y0074432D01*
X0092702Y0076030D02*
X0097702Y0076030D01*
X0098321Y0077629D02*
X0092702Y0077629D01*
X0091109Y0079227D02*
X0099461Y0079227D01*
X0102006Y0080826D02*
X0089510Y0080826D01*
X0111759Y0098409D02*
X0041302Y0098409D01*
X0041302Y0096811D02*
X0113358Y0096811D01*
X0112836Y0133300D02*
X0107368Y0133300D01*
X0103502Y0137166D01*
X0103502Y0142634D01*
X0107368Y0146500D01*
X0112836Y0146500D01*
X0116702Y0142634D01*
X0116702Y0137166D01*
X0112836Y0133300D01*
X0113112Y0133576D02*
X0122881Y0133576D01*
X0123893Y0135175D02*
X0114711Y0135175D01*
X0116309Y0136773D02*
X0122653Y0136773D01*
X0121991Y0138372D02*
X0116702Y0138372D01*
X0116702Y0139970D02*
X0121902Y0139970D01*
X0122050Y0141569D02*
X0116702Y0141569D01*
X0116168Y0143168D02*
X0122712Y0143168D01*
X0124034Y0144766D02*
X0114570Y0144766D01*
X0112971Y0146365D02*
X0122823Y0146365D01*
X0122161Y0147963D02*
X0100167Y0147963D01*
X0100202Y0149562D02*
X0121902Y0149562D01*
X0121902Y0151160D02*
X0100033Y0151160D01*
X0099371Y0152759D02*
X0122542Y0152759D01*
X0123625Y0154357D02*
X0098062Y0154357D01*
X0095345Y0155956D02*
X0125875Y0155956D01*
X0128148Y0165547D02*
X0070083Y0165547D01*
X0071681Y0167145D02*
X0125957Y0167145D01*
X0124833Y0168744D02*
X0071702Y0168744D01*
X0071702Y0167166D02*
X0067836Y0163300D01*
X0062368Y0163300D01*
X0058502Y0167166D01*
X0058502Y0172634D01*
X0062368Y0176500D01*
X0067836Y0176500D01*
X0071702Y0172634D01*
X0071702Y0167166D01*
X0068484Y0163948D02*
X0151269Y0163948D01*
X0148966Y0162350D02*
X0041302Y0162350D01*
X0041302Y0163948D02*
X0061720Y0163948D01*
X0060122Y0165547D02*
X0041302Y0165547D01*
X0041302Y0167145D02*
X0058523Y0167145D01*
X0058502Y0168744D02*
X0041302Y0168744D01*
X0041302Y0170342D02*
X0058502Y0170342D01*
X0058502Y0171941D02*
X0041302Y0171941D01*
X0041302Y0173539D02*
X0059407Y0173539D01*
X0061006Y0175138D02*
X0041302Y0175138D01*
X0041302Y0176736D02*
X0103932Y0176736D01*
X0103502Y0177166D02*
X0107368Y0173300D01*
X0112836Y0173300D01*
X0116702Y0177166D01*
X0116702Y0182634D01*
X0112836Y0186500D01*
X0107368Y0186500D01*
X0103502Y0182634D01*
X0103502Y0177166D01*
X0103502Y0178335D02*
X0041302Y0178335D01*
X0041302Y0179933D02*
X0103502Y0179933D01*
X0103502Y0181532D02*
X0041302Y0181532D01*
X0041302Y0183130D02*
X0103999Y0183130D01*
X0105597Y0184729D02*
X0041302Y0184729D01*
X0041302Y0186327D02*
X0107196Y0186327D01*
X0113009Y0186327D02*
X0216897Y0186327D01*
X0218058Y0184729D02*
X0172908Y0184729D01*
X0175771Y0183130D02*
X0219220Y0183130D01*
X0220108Y0181907D02*
X0215606Y0188105D01*
X0210189Y0193522D01*
X0203991Y0198024D01*
X0203991Y0198024D01*
X0197166Y0201502D01*
X0189880Y0203869D01*
X0182602Y0205022D01*
X0182602Y0198079D01*
X0181476Y0194614D01*
X0181476Y0194614D01*
X0179335Y0191667D01*
X0179335Y0191667D01*
X0179335Y0191667D01*
X0176388Y0189526D01*
X0176388Y0189526D01*
X0172923Y0188400D01*
X0128930Y0188400D01*
X0124733Y0189524D01*
X0124733Y0189524D01*
X0120971Y0191697D01*
X0120971Y0191697D01*
X0117899Y0194769D01*
X0115727Y0198531D01*
X0114602Y0202728D01*
X0114602Y0202728D01*
X0114602Y0203246D01*
X0107535Y0203246D01*
X0106102Y0203840D01*
X0104669Y0203246D01*
X0097535Y0203246D01*
X0096102Y0203840D01*
X0094669Y0203246D01*
X0087535Y0203246D01*
X0086065Y0203855D01*
X0084939Y0204981D01*
X0084330Y0206451D01*
X0084330Y0213585D01*
X0084939Y0215056D01*
X0086065Y0216181D01*
X0087535Y0216790D01*
X0091589Y0216790D01*
X0091530Y0217009D01*
X0091530Y0219932D01*
X0096016Y0219932D01*
X0096016Y0220104D01*
X0091530Y0220104D01*
X0091530Y0223027D01*
X0091653Y0223485D01*
X0091890Y0223895D01*
X0092225Y0224230D01*
X0092636Y0224467D01*
X0093093Y0224590D01*
X0096016Y0224590D01*
X0096016Y0220104D01*
X0096188Y0220104D01*
X0096188Y0224590D01*
X0099111Y0224590D01*
X0099568Y0224467D01*
X0099671Y0224408D01*
X0099939Y0225056D01*
X0101065Y0226181D01*
X0102535Y0226790D01*
X0109669Y0226790D01*
X0111140Y0226181D01*
X0112265Y0225056D01*
X0112533Y0224408D01*
X0112636Y0224467D01*
X0113093Y0224590D01*
X0116016Y0224590D01*
X0116016Y0220104D01*
X0116188Y0220104D01*
X0116188Y0224590D01*
X0119111Y0224590D01*
X0119568Y0224467D01*
X0119602Y0224448D01*
X0119602Y0226721D01*
X0120728Y0230186D01*
X0120728Y0230186D01*
X0122869Y0233133D01*
X0122869Y0233133D01*
X0122869Y0233133D01*
X0125816Y0235274D01*
X0125816Y0235274D01*
X0129281Y0236400D01*
X0177923Y0236400D01*
X0179548Y0235872D01*
X0179227Y0236058D01*
X0177142Y0238143D01*
X0175668Y0240696D01*
X0174904Y0243544D01*
X0174904Y0246492D01*
X0175668Y0249340D01*
X0177142Y0251894D01*
X0179227Y0253978D01*
X0181780Y0255453D01*
X0184628Y0256216D01*
X0187576Y0256216D01*
X0188507Y0255966D01*
X0188507Y0258646D01*
X0189747Y0261641D01*
X0192039Y0263932D01*
X0195033Y0265172D01*
X0198274Y0265172D01*
X0201268Y0263932D01*
X0203559Y0261641D01*
X0204800Y0258646D01*
X0204800Y0255406D01*
X0203559Y0252411D01*
X0201268Y0250120D01*
X0198274Y0248880D01*
X0196660Y0248880D01*
X0197300Y0246492D01*
X0197300Y0243544D01*
X0196537Y0240696D01*
X0195062Y0238143D01*
X0192978Y0236058D01*
X0190424Y0234584D01*
X0187576Y0233820D01*
X0184628Y0233820D01*
X0182665Y0234346D01*
X0184335Y0233133D01*
X0184335Y0233133D01*
X0186476Y0230186D01*
X0186476Y0230186D01*
X0187602Y0226721D01*
X0187602Y0224818D01*
X0229695Y0224818D01*
X0237004Y0223529D01*
X0237005Y0223529D01*
X0243979Y0220991D01*
X0243979Y0220991D01*
X0250407Y0217280D01*
X0250407Y0217280D01*
X0256093Y0212509D01*
X0256093Y0212509D01*
X0256093Y0212509D01*
X0260864Y0206823D01*
X0260864Y0206823D01*
X0264575Y0200395D01*
X0264575Y0200395D01*
X0267113Y0193421D01*
X0267113Y0193421D01*
X0268402Y0186111D01*
X0268402Y0152946D01*
X0267001Y0147719D01*
X0267001Y0147719D01*
X0264296Y0143033D01*
X0264296Y0143033D01*
X0260469Y0139206D01*
X0260469Y0139206D01*
X0257407Y0137438D01*
X0256784Y0135935D01*
X0255750Y0134900D01*
X0256784Y0133865D01*
X0257850Y0131292D01*
X0257850Y0128508D01*
X0256784Y0125935D01*
X0255750Y0124900D01*
X0256784Y0123865D01*
X0257850Y0121292D01*
X0257850Y0118508D01*
X0256784Y0115935D01*
X0254815Y0113966D01*
X0252242Y0112900D01*
X0243458Y0112900D01*
X0240885Y0113966D01*
X0238916Y0115935D01*
X0237850Y0118508D01*
X0237850Y0121292D01*
X0238916Y0123865D01*
X0239951Y0124900D01*
X0239751Y0125100D01*
X0239719Y0125100D01*
X0236082Y0126075D01*
X0236082Y0126075D01*
X0232822Y0127957D01*
X0232822Y0127957D01*
X0230159Y0130620D01*
X0230159Y0130620D01*
X0228277Y0133880D01*
X0228277Y0133880D01*
X0227302Y0137517D01*
X0227302Y0137517D01*
X0227302Y0138445D01*
X0227302Y0156400D01*
X0227152Y0160230D01*
X0225953Y0167796D01*
X0223586Y0175082D01*
X0220108Y0181907D01*
X0220300Y0181532D02*
X0177174Y0181532D01*
X0177837Y0179933D02*
X0221114Y0179933D01*
X0221929Y0178335D02*
X0178102Y0178335D01*
X0178102Y0176736D02*
X0222743Y0176736D01*
X0223558Y0175138D02*
X0178102Y0175138D01*
X0178102Y0173539D02*
X0224087Y0173539D01*
X0224607Y0171941D02*
X0178102Y0171941D01*
X0178034Y0170342D02*
X0225126Y0170342D01*
X0225645Y0168744D02*
X0177371Y0168744D01*
X0176247Y0167145D02*
X0226056Y0167145D01*
X0226310Y0165547D02*
X0209438Y0165547D01*
X0204854Y0161400D02*
X0161102Y0161400D01*
X0166329Y0155956D02*
X0207651Y0155956D01*
X0207912Y0154357D02*
X0168579Y0154357D01*
X0169662Y0152759D02*
X0191738Y0152759D01*
X0190702Y0151723D02*
X0190702Y0149900D01*
X0195102Y0149900D01*
X0195102Y0149900D01*
X0190702Y0149900D01*
X0190702Y0148077D01*
X0193280Y0145500D01*
X0195102Y0145500D01*
X0195102Y0149900D01*
X0195102Y0154300D01*
X0193280Y0154300D01*
X0190702Y0151723D01*
X0190702Y0151160D02*
X0170302Y0151160D01*
X0170302Y0149562D02*
X0190702Y0149562D01*
X0190816Y0147963D02*
X0170044Y0147963D01*
X0169381Y0146365D02*
X0192415Y0146365D01*
X0195102Y0146365D02*
X0195102Y0146365D01*
X0195102Y0145500D02*
X0196925Y0145500D01*
X0199502Y0148077D01*
X0199502Y0149900D01*
X0199502Y0151723D01*
X0196925Y0154300D01*
X0195102Y0154300D01*
X0195102Y0149900D01*
X0195102Y0149900D01*
X0195102Y0149900D01*
X0195102Y0145500D01*
X0195102Y0147963D02*
X0195102Y0147963D01*
X0195102Y0149562D02*
X0195102Y0149562D01*
X0195102Y0149900D02*
X0195102Y0149900D01*
X0199502Y0149900D01*
X0195102Y0149900D01*
X0195102Y0151160D02*
X0195102Y0151160D01*
X0195102Y0152759D02*
X0195102Y0152759D01*
X0198466Y0152759D02*
X0206961Y0152759D01*
X0206354Y0151160D02*
X0199502Y0151160D01*
X0199502Y0149562D02*
X0206354Y0149562D01*
X0216354Y0149900D02*
X0216351Y0150178D01*
X0216341Y0150456D01*
X0216324Y0150733D01*
X0216300Y0151010D01*
X0216270Y0151286D01*
X0216233Y0151562D01*
X0216190Y0151836D01*
X0216140Y0152109D01*
X0216083Y0152382D01*
X0216020Y0152652D01*
X0215950Y0152921D01*
X0215874Y0153188D01*
X0215791Y0153454D01*
X0215702Y0153717D01*
X0215607Y0153978D01*
X0215505Y0154237D01*
X0215397Y0154493D01*
X0215283Y0154746D01*
X0215163Y0154997D01*
X0215037Y0155244D01*
X0214905Y0155489D01*
X0214767Y0155730D01*
X0214623Y0155968D01*
X0214473Y0156202D01*
X0214318Y0156433D01*
X0214158Y0156660D01*
X0213992Y0156882D01*
X0213820Y0157101D01*
X0213644Y0157316D01*
X0213462Y0157526D01*
X0213275Y0157732D01*
X0213083Y0157933D01*
X0212887Y0158129D01*
X0212686Y0158321D01*
X0212480Y0158508D01*
X0212270Y0158690D01*
X0212055Y0158866D01*
X0211836Y0159038D01*
X0211614Y0159204D01*
X0211387Y0159364D01*
X0211156Y0159519D01*
X0210922Y0159669D01*
X0210684Y0159813D01*
X0210443Y0159951D01*
X0210198Y0160083D01*
X0209951Y0160209D01*
X0209700Y0160329D01*
X0209447Y0160443D01*
X0209191Y0160551D01*
X0208932Y0160653D01*
X0208671Y0160748D01*
X0208408Y0160837D01*
X0208142Y0160920D01*
X0207875Y0160996D01*
X0207606Y0161066D01*
X0207336Y0161129D01*
X0207063Y0161186D01*
X0206790Y0161236D01*
X0206516Y0161279D01*
X0206240Y0161316D01*
X0205964Y0161346D01*
X0205687Y0161370D01*
X0205410Y0161387D01*
X0205132Y0161397D01*
X0204854Y0161400D01*
X0213122Y0163948D02*
X0226563Y0163948D01*
X0226816Y0162350D02*
X0215456Y0162350D01*
X0217055Y0160751D02*
X0227069Y0160751D01*
X0227194Y0159153D02*
X0218334Y0159153D01*
X0219257Y0157554D02*
X0227257Y0157554D01*
X0227302Y0155956D02*
X0223026Y0155956D01*
X0224796Y0154357D02*
X0227302Y0154357D01*
X0227302Y0152759D02*
X0225747Y0152759D01*
X0226354Y0151160D02*
X0227302Y0151160D01*
X0227302Y0149562D02*
X0226354Y0149562D01*
X0226128Y0147963D02*
X0227302Y0147963D01*
X0227302Y0146365D02*
X0225466Y0146365D01*
X0224120Y0144766D02*
X0227302Y0144766D01*
X0227302Y0143168D02*
X0222875Y0143168D01*
X0223859Y0141569D02*
X0227302Y0141569D01*
X0227302Y0139970D02*
X0224154Y0139970D01*
X0223905Y0138372D02*
X0227302Y0138372D01*
X0227501Y0136773D02*
X0223016Y0136773D01*
X0223979Y0135175D02*
X0227930Y0135175D01*
X0228452Y0133576D02*
X0225408Y0133576D01*
X0226070Y0131978D02*
X0229375Y0131978D01*
X0230399Y0130379D02*
X0226354Y0130379D01*
X0226354Y0128781D02*
X0231998Y0128781D01*
X0234164Y0127182D02*
X0225805Y0127182D01*
X0224937Y0125584D02*
X0237914Y0125584D01*
X0239036Y0123985D02*
X0225168Y0123985D01*
X0225901Y0122387D02*
X0238303Y0122387D01*
X0237850Y0120788D02*
X0226354Y0120788D01*
X0226354Y0119190D02*
X0237850Y0119190D01*
X0238230Y0117591D02*
X0225974Y0117591D01*
X0225312Y0115993D02*
X0238892Y0115993D01*
X0240456Y0114394D02*
X0223748Y0114394D01*
X0219342Y0112796D02*
X0272902Y0112796D01*
X0272902Y0114394D02*
X0255244Y0114394D01*
X0256808Y0115993D02*
X0272902Y0115993D01*
X0272902Y0117591D02*
X0257471Y0117591D01*
X0257850Y0119190D02*
X0272902Y0119190D01*
X0272902Y0120788D02*
X0257850Y0120788D01*
X0257397Y0122387D02*
X0264981Y0122387D01*
X0262053Y0123985D02*
X0256664Y0123985D01*
X0256433Y0125584D02*
X0260498Y0125584D01*
X0259836Y0127182D02*
X0257301Y0127182D01*
X0257850Y0128781D02*
X0259349Y0128781D01*
X0259349Y0130379D02*
X0257850Y0130379D01*
X0257566Y0131978D02*
X0259571Y0131978D01*
X0260233Y0133576D02*
X0256904Y0133576D01*
X0256025Y0135175D02*
X0261413Y0135175D01*
X0263437Y0136773D02*
X0257132Y0136773D01*
X0259024Y0138372D02*
X0272902Y0138372D01*
X0272902Y0139970D02*
X0261233Y0139970D01*
X0262832Y0141569D02*
X0272902Y0141569D01*
X0272902Y0143168D02*
X0264374Y0143168D01*
X0265296Y0144766D02*
X0272902Y0144766D01*
X0272902Y0146365D02*
X0266219Y0146365D01*
X0267067Y0147963D02*
X0272902Y0147963D01*
X0272902Y0149562D02*
X0267495Y0149562D01*
X0267923Y0151160D02*
X0272902Y0151160D01*
X0272902Y0152759D02*
X0268352Y0152759D01*
X0268402Y0154357D02*
X0272902Y0154357D01*
X0272902Y0155956D02*
X0268402Y0155956D01*
X0268402Y0157554D02*
X0272902Y0157554D01*
X0272902Y0159153D02*
X0268402Y0159153D01*
X0268402Y0160751D02*
X0272902Y0160751D01*
X0272902Y0162350D02*
X0268402Y0162350D01*
X0268402Y0163948D02*
X0272902Y0163948D01*
X0272902Y0165547D02*
X0268402Y0165547D01*
X0268402Y0167145D02*
X0272902Y0167145D01*
X0272902Y0168744D02*
X0268402Y0168744D01*
X0268402Y0170342D02*
X0272902Y0170342D01*
X0272902Y0171941D02*
X0268402Y0171941D01*
X0268402Y0173539D02*
X0272902Y0173539D01*
X0272902Y0175138D02*
X0268402Y0175138D01*
X0268402Y0176736D02*
X0272902Y0176736D01*
X0272902Y0178335D02*
X0268402Y0178335D01*
X0268402Y0179933D02*
X0272902Y0179933D01*
X0272902Y0181532D02*
X0268402Y0181532D01*
X0268402Y0183130D02*
X0272902Y0183130D01*
X0272902Y0184729D02*
X0268402Y0184729D01*
X0268364Y0186327D02*
X0272902Y0186327D01*
X0272902Y0187926D02*
X0268082Y0187926D01*
X0267800Y0189524D02*
X0272902Y0189524D01*
X0272902Y0191123D02*
X0267518Y0191123D01*
X0267236Y0192721D02*
X0272902Y0192721D01*
X0272902Y0194320D02*
X0266786Y0194320D01*
X0266204Y0195918D02*
X0272902Y0195918D01*
X0272902Y0197517D02*
X0265622Y0197517D01*
X0265040Y0199115D02*
X0272902Y0199115D01*
X0272902Y0200714D02*
X0264391Y0200714D01*
X0263468Y0202312D02*
X0272902Y0202312D01*
X0272902Y0203911D02*
X0262545Y0203911D01*
X0261622Y0205509D02*
X0272902Y0205509D01*
X0272902Y0207108D02*
X0260624Y0207108D01*
X0259283Y0208706D02*
X0272902Y0208706D01*
X0272902Y0210305D02*
X0257942Y0210305D01*
X0256600Y0211903D02*
X0272902Y0211903D01*
X0272902Y0213502D02*
X0254909Y0213502D01*
X0253004Y0215101D02*
X0272902Y0215101D01*
X0272902Y0216699D02*
X0251099Y0216699D01*
X0248644Y0218298D02*
X0272902Y0218298D01*
X0272902Y0219896D02*
X0245875Y0219896D01*
X0242595Y0221495D02*
X0272902Y0221495D01*
X0272902Y0223093D02*
X0238203Y0223093D01*
X0230413Y0224692D02*
X0272902Y0224692D01*
X0272902Y0226290D02*
X0187602Y0226290D01*
X0187223Y0227889D02*
X0272902Y0227889D01*
X0272902Y0229487D02*
X0186703Y0229487D01*
X0185823Y0231086D02*
X0272902Y0231086D01*
X0272902Y0232684D02*
X0184661Y0232684D01*
X0182903Y0234283D02*
X0182753Y0234283D01*
X0179532Y0235881D02*
X0179520Y0235881D01*
X0177805Y0237480D02*
X0094399Y0237480D01*
X0095062Y0238143D02*
X0092978Y0236058D01*
X0090424Y0234584D01*
X0087576Y0233820D01*
X0084628Y0233820D01*
X0081780Y0234584D01*
X0079227Y0236058D01*
X0077142Y0238143D01*
X0075668Y0240696D01*
X0074904Y0243544D01*
X0074904Y0246492D01*
X0075544Y0248880D01*
X0073930Y0248880D01*
X0070936Y0250120D01*
X0068645Y0252411D01*
X0067404Y0255406D01*
X0067404Y0258646D01*
X0068645Y0261641D01*
X0070936Y0263932D01*
X0073930Y0265172D01*
X0077171Y0265172D01*
X0080165Y0263932D01*
X0082457Y0261641D01*
X0083697Y0258646D01*
X0083697Y0255966D01*
X0084628Y0256216D01*
X0087576Y0256216D01*
X0090424Y0255453D01*
X0092978Y0253978D01*
X0095062Y0251894D01*
X0096537Y0249340D01*
X0097300Y0246492D01*
X0097300Y0243544D01*
X0096537Y0240696D01*
X0095062Y0238143D01*
X0095603Y0239078D02*
X0176602Y0239078D01*
X0175679Y0240677D02*
X0096525Y0240677D01*
X0096960Y0242275D02*
X0175244Y0242275D01*
X0174904Y0243874D02*
X0097300Y0243874D01*
X0097300Y0245472D02*
X0174904Y0245472D01*
X0175059Y0247071D02*
X0097145Y0247071D01*
X0096716Y0248669D02*
X0175488Y0248669D01*
X0176203Y0250268D02*
X0096001Y0250268D01*
X0095078Y0251866D02*
X0177126Y0251866D01*
X0178713Y0253465D02*
X0093491Y0253465D01*
X0091099Y0255063D02*
X0181106Y0255063D01*
X0188507Y0256662D02*
X0083697Y0256662D01*
X0083697Y0258260D02*
X0188507Y0258260D01*
X0189009Y0259859D02*
X0083195Y0259859D01*
X0082533Y0261457D02*
X0189671Y0261457D01*
X0191162Y0263056D02*
X0081042Y0263056D01*
X0078422Y0264654D02*
X0193782Y0264654D01*
X0199524Y0264654D02*
X0272902Y0264654D01*
X0272902Y0263056D02*
X0202144Y0263056D01*
X0203635Y0261457D02*
X0272902Y0261457D01*
X0272902Y0259859D02*
X0204298Y0259859D01*
X0204800Y0258260D02*
X0272902Y0258260D01*
X0272902Y0256662D02*
X0204800Y0256662D01*
X0204658Y0255063D02*
X0272902Y0255063D01*
X0272902Y0253465D02*
X0203996Y0253465D01*
X0203014Y0251866D02*
X0272902Y0251866D01*
X0272902Y0250268D02*
X0201416Y0250268D01*
X0196716Y0248669D02*
X0272902Y0248669D01*
X0272902Y0247071D02*
X0197145Y0247071D01*
X0197300Y0245472D02*
X0272902Y0245472D01*
X0272902Y0243874D02*
X0197300Y0243874D01*
X0196960Y0242275D02*
X0272902Y0242275D01*
X0272902Y0240677D02*
X0196525Y0240677D01*
X0195603Y0239078D02*
X0272902Y0239078D01*
X0272902Y0237480D02*
X0194399Y0237480D01*
X0192672Y0235881D02*
X0272902Y0235881D01*
X0272902Y0234283D02*
X0189301Y0234283D01*
X0181102Y0220018D02*
X0225984Y0220018D01*
X0225984Y0215218D02*
X0228844Y0215093D01*
X0234478Y0214100D01*
X0239853Y0212143D01*
X0244808Y0209283D01*
X0249190Y0205606D01*
X0252867Y0201224D01*
X0255727Y0196270D01*
X0257684Y0190894D01*
X0258677Y0185260D01*
X0258802Y0182400D01*
X0258802Y0155652D01*
X0258708Y0154222D01*
X0257968Y0151461D01*
X0256539Y0148985D01*
X0254973Y0147419D01*
X0255298Y0148057D01*
X0255532Y0148776D01*
X0255650Y0149522D01*
X0255650Y0149900D01*
X0255650Y0150278D01*
X0255532Y0151024D01*
X0255298Y0151743D01*
X0254955Y0152416D01*
X0254511Y0153027D01*
X0253977Y0153561D01*
X0253366Y0154005D01*
X0252693Y0154348D01*
X0251974Y0154582D01*
X0251228Y0154700D01*
X0247850Y0154700D01*
X0244472Y0154700D01*
X0243726Y0154582D01*
X0243008Y0154348D01*
X0242334Y0154005D01*
X0241723Y0153561D01*
X0241189Y0153027D01*
X0240745Y0152416D01*
X0240402Y0151743D01*
X0240168Y0151024D01*
X0240050Y0150278D01*
X0240050Y0149900D01*
X0247850Y0149900D01*
X0247850Y0149900D01*
X0240050Y0149900D01*
X0240050Y0149522D01*
X0240168Y0148776D01*
X0240402Y0148057D01*
X0240745Y0147384D01*
X0241189Y0146773D01*
X0241723Y0146239D01*
X0241773Y0146202D01*
X0240885Y0145834D01*
X0238916Y0143865D01*
X0237850Y0141292D01*
X0237850Y0138508D01*
X0238916Y0135935D01*
X0239778Y0135072D01*
X0238741Y0135671D01*
X0237873Y0136539D01*
X0237260Y0137601D01*
X0236942Y0138787D01*
X0236902Y0139400D01*
X0236902Y0160998D01*
X0235464Y0170080D01*
X0232622Y0178825D01*
X0228448Y0187018D01*
X0223043Y0194457D01*
X0216541Y0200959D01*
X0216541Y0200959D01*
X0209102Y0206364D01*
X0200909Y0210538D01*
X0192164Y0213380D01*
X0186552Y0214268D01*
X0187265Y0214981D01*
X0187363Y0215218D01*
X0225984Y0215218D01*
X0228677Y0215101D02*
X0187314Y0215101D01*
X0191391Y0213502D02*
X0236120Y0213502D01*
X0240269Y0211903D02*
X0196707Y0211903D01*
X0201366Y0210305D02*
X0243038Y0210305D01*
X0245495Y0208706D02*
X0204504Y0208706D01*
X0207641Y0207108D02*
X0247400Y0207108D01*
X0249271Y0205509D02*
X0210277Y0205509D01*
X0212478Y0203911D02*
X0250612Y0203911D01*
X0251953Y0202312D02*
X0214678Y0202312D01*
X0216786Y0200714D02*
X0253161Y0200714D01*
X0254084Y0199115D02*
X0218384Y0199115D01*
X0219983Y0197517D02*
X0255007Y0197517D01*
X0255855Y0195918D02*
X0221581Y0195918D01*
X0223043Y0194457D02*
X0223043Y0194457D01*
X0223142Y0194320D02*
X0256437Y0194320D01*
X0257019Y0192721D02*
X0224304Y0192721D01*
X0225465Y0191123D02*
X0257601Y0191123D01*
X0257925Y0189524D02*
X0226626Y0189524D01*
X0227788Y0187926D02*
X0258207Y0187926D01*
X0258489Y0186327D02*
X0228799Y0186327D01*
X0228448Y0187018D02*
X0228448Y0187018D01*
X0229614Y0184729D02*
X0258700Y0184729D01*
X0258770Y0183130D02*
X0230428Y0183130D01*
X0231243Y0181532D02*
X0258802Y0181532D01*
X0258802Y0179933D02*
X0232057Y0179933D01*
X0232622Y0178825D02*
X0232622Y0178825D01*
X0232781Y0178335D02*
X0258802Y0178335D01*
X0258802Y0176736D02*
X0233301Y0176736D01*
X0233820Y0175138D02*
X0258802Y0175138D01*
X0258802Y0173539D02*
X0234340Y0173539D01*
X0234859Y0171941D02*
X0258802Y0171941D01*
X0258802Y0170342D02*
X0235378Y0170342D01*
X0235464Y0170080D02*
X0235464Y0170080D01*
X0235675Y0168744D02*
X0258802Y0168744D01*
X0258802Y0167145D02*
X0235928Y0167145D01*
X0236182Y0165547D02*
X0258802Y0165547D01*
X0258802Y0163948D02*
X0236435Y0163948D01*
X0236688Y0162350D02*
X0258802Y0162350D01*
X0258802Y0160751D02*
X0236902Y0160751D01*
X0236902Y0159153D02*
X0258802Y0159153D01*
X0258802Y0157554D02*
X0236902Y0157554D01*
X0236902Y0155956D02*
X0258802Y0155956D01*
X0258717Y0154357D02*
X0252666Y0154357D01*
X0254706Y0152759D02*
X0258316Y0152759D01*
X0257795Y0151160D02*
X0255488Y0151160D01*
X0255650Y0149900D02*
X0247850Y0149900D01*
X0247850Y0154700D01*
X0247850Y0149900D01*
X0247850Y0149900D01*
X0247850Y0149900D01*
X0255650Y0149900D01*
X0255650Y0149562D02*
X0256872Y0149562D01*
X0255517Y0147963D02*
X0255250Y0147963D01*
X0247850Y0151160D02*
X0247850Y0151160D01*
X0247850Y0152759D02*
X0247850Y0152759D01*
X0247850Y0154357D02*
X0247850Y0154357D01*
X0247850Y0139900D02*
X0248231Y0139905D01*
X0248611Y0139918D01*
X0248991Y0139941D01*
X0249370Y0139974D01*
X0249749Y0140015D01*
X0250126Y0140065D01*
X0250502Y0140125D01*
X0250876Y0140193D01*
X0251249Y0140271D01*
X0251620Y0140358D01*
X0251988Y0140453D01*
X0252354Y0140558D01*
X0252718Y0140671D01*
X0253078Y0140793D01*
X0253436Y0140924D01*
X0253790Y0141063D01*
X0254141Y0141211D01*
X0254488Y0141367D01*
X0254831Y0141531D01*
X0255170Y0141704D01*
X0255505Y0141885D01*
X0255836Y0142074D01*
X0256161Y0142271D01*
X0256482Y0142476D01*
X0256798Y0142688D01*
X0257109Y0142908D01*
X0257414Y0143136D01*
X0257714Y0143371D01*
X0258008Y0143612D01*
X0258296Y0143861D01*
X0258577Y0144117D01*
X0258853Y0144380D01*
X0259122Y0144649D01*
X0259385Y0144925D01*
X0259641Y0145206D01*
X0259890Y0145494D01*
X0260131Y0145788D01*
X0260366Y0146088D01*
X0260594Y0146393D01*
X0260814Y0146704D01*
X0261026Y0147020D01*
X0261231Y0147341D01*
X0261428Y0147666D01*
X0261617Y0147997D01*
X0261798Y0148332D01*
X0261971Y0148671D01*
X0262135Y0149014D01*
X0262291Y0149361D01*
X0262439Y0149712D01*
X0262578Y0150066D01*
X0262709Y0150424D01*
X0262831Y0150784D01*
X0262944Y0151148D01*
X0263049Y0151514D01*
X0263144Y0151882D01*
X0263231Y0152253D01*
X0263309Y0152626D01*
X0263377Y0153000D01*
X0263437Y0153376D01*
X0263487Y0153753D01*
X0263528Y0154132D01*
X0263561Y0154511D01*
X0263584Y0154891D01*
X0263597Y0155271D01*
X0263602Y0155652D01*
X0263602Y0182400D01*
X0243034Y0154357D02*
X0236902Y0154357D01*
X0236902Y0152759D02*
X0240994Y0152759D01*
X0240213Y0151160D02*
X0236902Y0151160D01*
X0236902Y0149562D02*
X0240050Y0149562D01*
X0240450Y0147963D02*
X0236902Y0147963D01*
X0236902Y0146365D02*
X0241597Y0146365D01*
X0239817Y0144766D02*
X0236902Y0144766D01*
X0236902Y0143168D02*
X0238627Y0143168D01*
X0237965Y0141569D02*
X0236902Y0141569D01*
X0236902Y0139970D02*
X0237850Y0139970D01*
X0237906Y0138372D02*
X0237053Y0138372D01*
X0237738Y0136773D02*
X0238568Y0136773D01*
X0239600Y0135175D02*
X0239676Y0135175D01*
X0241602Y0129900D02*
X0241372Y0129903D01*
X0241143Y0129911D01*
X0240914Y0129925D01*
X0240685Y0129944D01*
X0240457Y0129969D01*
X0240229Y0130000D01*
X0240003Y0130036D01*
X0239777Y0130077D01*
X0239552Y0130124D01*
X0239329Y0130176D01*
X0239106Y0130234D01*
X0238886Y0130297D01*
X0238666Y0130365D01*
X0238449Y0130439D01*
X0238233Y0130517D01*
X0238020Y0130601D01*
X0237808Y0130690D01*
X0237599Y0130785D01*
X0237392Y0130884D01*
X0237187Y0130988D01*
X0236985Y0131097D01*
X0236786Y0131211D01*
X0236589Y0131330D01*
X0236396Y0131454D01*
X0236205Y0131582D01*
X0236018Y0131714D01*
X0235834Y0131852D01*
X0235653Y0131993D01*
X0235476Y0132139D01*
X0235302Y0132289D01*
X0235132Y0132443D01*
X0234966Y0132602D01*
X0234804Y0132764D01*
X0234645Y0132930D01*
X0234491Y0133100D01*
X0234341Y0133274D01*
X0234195Y0133451D01*
X0234054Y0133632D01*
X0233916Y0133816D01*
X0233784Y0134003D01*
X0233656Y0134194D01*
X0233532Y0134387D01*
X0233413Y0134584D01*
X0233299Y0134783D01*
X0233190Y0134985D01*
X0233086Y0135190D01*
X0232987Y0135397D01*
X0232892Y0135606D01*
X0232803Y0135818D01*
X0232719Y0136031D01*
X0232641Y0136247D01*
X0232567Y0136464D01*
X0232499Y0136684D01*
X0232436Y0136904D01*
X0232378Y0137127D01*
X0232326Y0137350D01*
X0232279Y0137575D01*
X0232238Y0137801D01*
X0232202Y0138027D01*
X0232171Y0138255D01*
X0232146Y0138483D01*
X0232127Y0138712D01*
X0232113Y0138941D01*
X0232105Y0139170D01*
X0232102Y0139400D01*
X0232102Y0156400D01*
X0209833Y0143168D02*
X0169492Y0143168D01*
X0170155Y0141569D02*
X0208849Y0141569D01*
X0208554Y0139970D02*
X0170302Y0139970D01*
X0170213Y0138372D02*
X0208803Y0138372D01*
X0209692Y0136773D02*
X0169551Y0136773D01*
X0168311Y0135175D02*
X0191043Y0135175D01*
X0192368Y0136500D02*
X0188502Y0132634D01*
X0188502Y0127166D01*
X0192368Y0123300D01*
X0197836Y0123300D01*
X0201702Y0127166D01*
X0201702Y0132634D01*
X0197836Y0136500D01*
X0192368Y0136500D01*
X0189445Y0133576D02*
X0169323Y0133576D01*
X0169985Y0131978D02*
X0188502Y0131978D01*
X0188502Y0130379D02*
X0170302Y0130379D01*
X0170302Y0128781D02*
X0188502Y0128781D01*
X0188502Y0127182D02*
X0169720Y0127182D01*
X0168720Y0125584D02*
X0190084Y0125584D01*
X0191683Y0123985D02*
X0168950Y0123985D01*
X0169816Y0122387D02*
X0206807Y0122387D01*
X0206354Y0120788D02*
X0170302Y0120788D01*
X0170302Y0119190D02*
X0206354Y0119190D01*
X0206354Y0109900D02*
X0206596Y0109903D01*
X0206837Y0109912D01*
X0207078Y0109926D01*
X0207319Y0109947D01*
X0207559Y0109973D01*
X0207799Y0110005D01*
X0208038Y0110043D01*
X0208275Y0110086D01*
X0208512Y0110136D01*
X0208747Y0110191D01*
X0208981Y0110251D01*
X0209213Y0110318D01*
X0209444Y0110389D01*
X0209673Y0110467D01*
X0209900Y0110550D01*
X0210125Y0110638D01*
X0210348Y0110732D01*
X0210568Y0110831D01*
X0210786Y0110936D01*
X0211001Y0111045D01*
X0211214Y0111160D01*
X0211424Y0111280D01*
X0211630Y0111405D01*
X0211834Y0111535D01*
X0212035Y0111670D01*
X0212232Y0111810D01*
X0212426Y0111954D01*
X0212616Y0112103D01*
X0212802Y0112257D01*
X0212985Y0112415D01*
X0213164Y0112577D01*
X0213339Y0112744D01*
X0213510Y0112915D01*
X0213677Y0113090D01*
X0213839Y0113269D01*
X0213997Y0113452D01*
X0214151Y0113638D01*
X0214300Y0113828D01*
X0214444Y0114022D01*
X0214584Y0114219D01*
X0214719Y0114420D01*
X0214849Y0114624D01*
X0214974Y0114830D01*
X0215094Y0115040D01*
X0215209Y0115253D01*
X0215318Y0115468D01*
X0215423Y0115686D01*
X0215522Y0115906D01*
X0215616Y0116129D01*
X0215704Y0116354D01*
X0215787Y0116581D01*
X0215865Y0116810D01*
X0215936Y0117041D01*
X0216003Y0117273D01*
X0216063Y0117507D01*
X0216118Y0117742D01*
X0216168Y0117979D01*
X0216211Y0118216D01*
X0216249Y0118455D01*
X0216281Y0118695D01*
X0216307Y0118935D01*
X0216328Y0119176D01*
X0216342Y0119417D01*
X0216351Y0119658D01*
X0216354Y0119900D01*
X0218419Y0111197D02*
X0272902Y0111197D01*
X0272902Y0109599D02*
X0216983Y0109599D01*
X0215343Y0108000D02*
X0272902Y0108000D01*
X0272902Y0106402D02*
X0212574Y0106402D01*
X0218001Y0101579D02*
X0217578Y0100997D01*
X0217251Y0100356D01*
X0217029Y0099671D01*
X0216916Y0098961D01*
X0216916Y0098687D01*
X0224174Y0098687D01*
X0224174Y0103172D01*
X0221128Y0103172D01*
X0220417Y0103060D01*
X0219733Y0102837D01*
X0219092Y0102511D01*
X0218510Y0102088D01*
X0218001Y0101579D01*
X0218028Y0101606D02*
X0170139Y0101606D01*
X0170302Y0100008D02*
X0217138Y0100008D01*
X0216916Y0098515D02*
X0216916Y0098241D01*
X0217029Y0097530D01*
X0217251Y0096846D01*
X0217578Y0096205D01*
X0218001Y0095623D01*
X0218510Y0095114D01*
X0219092Y0094691D01*
X0219733Y0094364D01*
X0220417Y0094142D01*
X0221128Y0094029D01*
X0224174Y0094029D01*
X0224174Y0098515D01*
X0224345Y0098515D01*
X0224345Y0094029D01*
X0227391Y0094029D01*
X0228102Y0094142D01*
X0228786Y0094364D01*
X0229427Y0094691D01*
X0230009Y0095114D01*
X0230518Y0095623D01*
X0230941Y0096205D01*
X0231268Y0096846D01*
X0231490Y0097530D01*
X0231603Y0098241D01*
X0231603Y0098515D01*
X0224345Y0098515D01*
X0224345Y0098687D01*
X0224174Y0098687D01*
X0224174Y0098515D01*
X0216916Y0098515D01*
X0216916Y0098409D02*
X0170228Y0098409D01*
X0169566Y0096811D02*
X0217269Y0096811D01*
X0218411Y0095212D02*
X0168348Y0095212D01*
X0169308Y0093614D02*
X0236583Y0093614D01*
X0237404Y0092015D02*
X0169970Y0092015D01*
X0170302Y0090417D02*
X0236385Y0090417D01*
X0235110Y0088818D02*
X0170302Y0088818D01*
X0169736Y0087220D02*
X0233127Y0087220D01*
X0230128Y0085621D02*
X0168757Y0085621D01*
X0161102Y0079900D02*
X0225244Y0079900D01*
X0231966Y0076030D02*
X0272902Y0076030D01*
X0272902Y0074432D02*
X0187404Y0074432D01*
X0189003Y0072833D02*
X0272902Y0072833D01*
X0272902Y0071234D02*
X0189202Y0071234D01*
X0189202Y0069636D02*
X0272902Y0069636D01*
X0272902Y0068037D02*
X0189202Y0068037D01*
X0188475Y0066439D02*
X0272902Y0066439D01*
X0272902Y0064840D02*
X0186876Y0064840D01*
X0178328Y0064840D02*
X0167976Y0064840D01*
X0166583Y0063242D02*
X0272902Y0063242D01*
X0272902Y0061643D02*
X0167752Y0061643D01*
X0168102Y0060045D02*
X0272902Y0060045D01*
X0272902Y0058446D02*
X0167856Y0058446D01*
X0166873Y0056848D02*
X0272902Y0056848D01*
X0272902Y0055249D02*
X0167686Y0055249D01*
X0169285Y0053651D02*
X0180130Y0053651D01*
X0180780Y0054300D02*
X0178202Y0051723D01*
X0178202Y0049900D01*
X0182602Y0049900D01*
X0182602Y0049900D01*
X0178202Y0049900D01*
X0178202Y0048077D01*
X0180780Y0045500D01*
X0182602Y0045500D01*
X0182602Y0049900D01*
X0182602Y0054300D01*
X0180780Y0054300D01*
X0182602Y0054300D02*
X0182602Y0049900D01*
X0182602Y0049900D01*
X0182602Y0049900D01*
X0182602Y0045500D01*
X0184425Y0045500D01*
X0187002Y0048077D01*
X0187002Y0049900D01*
X0187002Y0051723D01*
X0184425Y0054300D01*
X0182602Y0054300D01*
X0182602Y0053651D02*
X0182602Y0053651D01*
X0182602Y0052052D02*
X0182602Y0052052D01*
X0182602Y0050454D02*
X0182602Y0050454D01*
X0182602Y0049900D02*
X0187002Y0049900D01*
X0182602Y0049900D01*
X0182602Y0049900D01*
X0182602Y0048855D02*
X0182602Y0048855D01*
X0182602Y0047257D02*
X0182602Y0047257D01*
X0182602Y0045658D02*
X0182602Y0045658D01*
X0180621Y0045658D02*
X0168794Y0045658D01*
X0168876Y0044060D02*
X0272902Y0044060D01*
X0272902Y0045658D02*
X0184583Y0045658D01*
X0186181Y0047257D02*
X0272902Y0047257D01*
X0272902Y0048855D02*
X0187002Y0048855D01*
X0187002Y0050454D02*
X0272902Y0050454D01*
X0272902Y0052052D02*
X0186672Y0052052D01*
X0185074Y0053651D02*
X0272902Y0053651D01*
X0272902Y0042461D02*
X0169785Y0042461D01*
X0170302Y0040863D02*
X0272902Y0040863D01*
X0272902Y0039264D02*
X0170302Y0039264D01*
X0169920Y0037666D02*
X0272902Y0037666D01*
X0272902Y0036067D02*
X0169203Y0036067D01*
X0168467Y0034469D02*
X0272902Y0034469D01*
X0272902Y0032870D02*
X0169616Y0032870D01*
X0170278Y0031272D02*
X0272902Y0031272D01*
X0272902Y0029673D02*
X0170302Y0029673D01*
X0170090Y0028075D02*
X0272902Y0028075D01*
X0272902Y0026476D02*
X0169428Y0026476D01*
X0168058Y0024878D02*
X0272902Y0024878D01*
X0272902Y0023279D02*
X0169446Y0023279D01*
X0170108Y0021681D02*
X0272902Y0021681D01*
X0272902Y0020082D02*
X0170302Y0020082D01*
X0170259Y0018484D02*
X0272902Y0018484D01*
X0272902Y0016885D02*
X0169597Y0016885D01*
X0168422Y0015287D02*
X0272902Y0015287D01*
X0272902Y0013688D02*
X0165952Y0013688D01*
X0169751Y0047257D02*
X0179023Y0047257D01*
X0178202Y0048855D02*
X0170302Y0048855D01*
X0170302Y0050454D02*
X0178202Y0050454D01*
X0178532Y0052052D02*
X0169954Y0052052D01*
X0169412Y0066439D02*
X0176729Y0066439D01*
X0176002Y0068037D02*
X0170074Y0068037D01*
X0170302Y0069636D02*
X0176002Y0069636D01*
X0176002Y0071234D02*
X0170293Y0071234D01*
X0169631Y0072833D02*
X0176201Y0072833D01*
X0177800Y0074432D02*
X0168504Y0074432D01*
X0169477Y0103205D02*
X0236200Y0103205D01*
X0235088Y0101606D02*
X0230491Y0101606D01*
X0230518Y0101579D02*
X0230009Y0102088D01*
X0229427Y0102511D01*
X0228786Y0102837D01*
X0228102Y0103060D01*
X0227391Y0103172D01*
X0224345Y0103172D01*
X0224345Y0098687D01*
X0231603Y0098687D01*
X0231603Y0098961D01*
X0231490Y0099671D01*
X0231268Y0100356D01*
X0230941Y0100997D01*
X0230518Y0101579D01*
X0231381Y0100008D02*
X0234426Y0100008D01*
X0234401Y0098409D02*
X0231603Y0098409D01*
X0231250Y0096811D02*
X0234585Y0096811D01*
X0235247Y0095212D02*
X0230108Y0095212D01*
X0224345Y0095212D02*
X0224174Y0095212D01*
X0224174Y0096811D02*
X0224345Y0096811D01*
X0224345Y0098409D02*
X0224174Y0098409D01*
X0225244Y0079900D02*
X0225696Y0079905D01*
X0226148Y0079922D01*
X0226599Y0079949D01*
X0227049Y0079987D01*
X0227498Y0080036D01*
X0227946Y0080096D01*
X0228392Y0080167D01*
X0228837Y0080248D01*
X0229279Y0080341D01*
X0229719Y0080443D01*
X0230157Y0080557D01*
X0230591Y0080681D01*
X0231023Y0080815D01*
X0231451Y0080960D01*
X0231875Y0081115D01*
X0232296Y0081281D01*
X0232713Y0081456D01*
X0233125Y0081642D01*
X0233532Y0081837D01*
X0233935Y0082042D01*
X0234332Y0082257D01*
X0234725Y0082481D01*
X0235111Y0082715D01*
X0235492Y0082958D01*
X0235867Y0083210D01*
X0236236Y0083472D01*
X0236599Y0083742D01*
X0236954Y0084020D01*
X0237303Y0084308D01*
X0237645Y0084603D01*
X0237980Y0084907D01*
X0238307Y0085219D01*
X0238626Y0085538D01*
X0238938Y0085865D01*
X0239242Y0086200D01*
X0239537Y0086542D01*
X0239825Y0086891D01*
X0240103Y0087246D01*
X0240373Y0087609D01*
X0240635Y0087978D01*
X0240887Y0088353D01*
X0241130Y0088734D01*
X0241364Y0089120D01*
X0241588Y0089513D01*
X0241803Y0089910D01*
X0242008Y0090313D01*
X0242203Y0090720D01*
X0242389Y0091132D01*
X0242564Y0091549D01*
X0242730Y0091970D01*
X0242885Y0092394D01*
X0243030Y0092822D01*
X0243164Y0093254D01*
X0243288Y0093688D01*
X0243402Y0094126D01*
X0243504Y0094566D01*
X0243597Y0095008D01*
X0243678Y0095453D01*
X0243749Y0095899D01*
X0243809Y0096347D01*
X0243858Y0096796D01*
X0243896Y0097246D01*
X0243923Y0097697D01*
X0243940Y0098149D01*
X0243945Y0098601D01*
X0248512Y0092015D02*
X0272902Y0092015D01*
X0272902Y0090417D02*
X0247386Y0090417D01*
X0246617Y0088818D02*
X0272902Y0088818D01*
X0272902Y0087220D02*
X0245847Y0087220D01*
X0244951Y0085621D02*
X0272902Y0085621D01*
X0272902Y0084023D02*
X0243677Y0084023D01*
X0242402Y0082424D02*
X0272902Y0082424D01*
X0272902Y0080826D02*
X0240647Y0080826D01*
X0238642Y0079227D02*
X0272902Y0079227D01*
X0272902Y0077629D02*
X0235858Y0077629D01*
X0251306Y0093614D02*
X0272902Y0093614D01*
X0272902Y0095212D02*
X0252642Y0095212D01*
X0253304Y0096811D02*
X0272902Y0096811D01*
X0272902Y0098409D02*
X0253488Y0098409D01*
X0253463Y0100008D02*
X0272902Y0100008D01*
X0272902Y0101606D02*
X0252801Y0101606D01*
X0251689Y0103205D02*
X0272902Y0103205D01*
X0272902Y0104803D02*
X0249437Y0104803D01*
X0238452Y0104803D02*
X0168133Y0104803D01*
X0161102Y0109900D02*
X0206354Y0109900D01*
X0207396Y0115993D02*
X0169129Y0115993D01*
X0169890Y0117591D02*
X0206734Y0117591D01*
X0207540Y0123985D02*
X0198521Y0123985D01*
X0200120Y0125584D02*
X0207771Y0125584D01*
X0206903Y0127182D02*
X0201702Y0127182D01*
X0201702Y0128781D02*
X0206354Y0128781D01*
X0206354Y0130379D02*
X0201702Y0130379D01*
X0201702Y0131978D02*
X0206638Y0131978D01*
X0207300Y0133576D02*
X0200759Y0133576D01*
X0199161Y0135175D02*
X0208730Y0135175D01*
X0208589Y0144766D02*
X0168170Y0144766D01*
X0161102Y0161400D02*
X0160788Y0161420D01*
X0160473Y0161433D01*
X0160158Y0161438D01*
X0159843Y0161435D01*
X0159528Y0161425D01*
X0159213Y0161408D01*
X0158899Y0161382D01*
X0158586Y0161350D01*
X0158273Y0161309D01*
X0157962Y0161261D01*
X0157652Y0161206D01*
X0157343Y0161143D01*
X0157036Y0161072D01*
X0156731Y0160995D01*
X0156427Y0160909D01*
X0156126Y0160817D01*
X0155827Y0160717D01*
X0155531Y0160610D01*
X0155237Y0160496D01*
X0154946Y0160375D01*
X0154658Y0160247D01*
X0154374Y0160112D01*
X0154092Y0159970D01*
X0153815Y0159822D01*
X0153540Y0159667D01*
X0153270Y0159505D01*
X0153004Y0159336D01*
X0152741Y0159162D01*
X0152484Y0158981D01*
X0152230Y0158793D01*
X0151981Y0158600D01*
X0151737Y0158401D01*
X0151498Y0158196D01*
X0151264Y0157985D01*
X0151035Y0157769D01*
X0150811Y0157547D01*
X0150593Y0157320D01*
X0150380Y0157087D01*
X0150173Y0156850D01*
X0149972Y0156608D01*
X0149776Y0156360D01*
X0149587Y0156109D01*
X0149404Y0155852D01*
X0149227Y0155592D01*
X0149056Y0155327D01*
X0148892Y0155058D01*
X0148734Y0154785D01*
X0148583Y0154508D01*
X0148439Y0154228D01*
X0148302Y0153945D01*
X0148171Y0153658D01*
X0148048Y0153368D01*
X0147931Y0153075D01*
X0147822Y0152780D01*
X0147719Y0152482D01*
X0147624Y0152182D01*
X0147537Y0151879D01*
X0147456Y0151574D01*
X0147383Y0151268D01*
X0147318Y0150960D01*
X0147260Y0150650D01*
X0147209Y0150339D01*
X0147166Y0150027D01*
X0147130Y0149714D01*
X0147102Y0149400D01*
X0147102Y0113900D01*
X0147106Y0113562D01*
X0147118Y0113224D01*
X0147139Y0112886D01*
X0147167Y0112549D01*
X0147204Y0112212D01*
X0147249Y0111877D01*
X0147302Y0111543D01*
X0147363Y0111210D01*
X0147432Y0110879D01*
X0147509Y0110550D01*
X0147594Y0110222D01*
X0147687Y0109897D01*
X0147787Y0109574D01*
X0147896Y0109253D01*
X0148012Y0108936D01*
X0148136Y0108621D01*
X0148267Y0108309D01*
X0148406Y0108000D01*
X0148552Y0107695D01*
X0148706Y0107394D01*
X0148866Y0107096D01*
X0149034Y0106803D01*
X0149209Y0106513D01*
X0149391Y0106228D01*
X0149580Y0105947D01*
X0149776Y0105671D01*
X0149978Y0105400D01*
X0150187Y0105133D01*
X0150402Y0104872D01*
X0150623Y0104616D01*
X0150850Y0104366D01*
X0151084Y0104121D01*
X0151323Y0103882D01*
X0151568Y0103648D01*
X0151818Y0103421D01*
X0152074Y0103200D01*
X0152335Y0102985D01*
X0152602Y0102776D01*
X0152873Y0102574D01*
X0153149Y0102378D01*
X0153430Y0102189D01*
X0153715Y0102007D01*
X0154005Y0101832D01*
X0154298Y0101664D01*
X0154596Y0101504D01*
X0154897Y0101350D01*
X0155202Y0101204D01*
X0155511Y0101065D01*
X0155823Y0100934D01*
X0156138Y0100810D01*
X0156455Y0100694D01*
X0156776Y0100585D01*
X0157099Y0100485D01*
X0157424Y0100392D01*
X0157752Y0100307D01*
X0158081Y0100230D01*
X0158412Y0100161D01*
X0158745Y0100100D01*
X0159079Y0100047D01*
X0159414Y0100002D01*
X0159751Y0099965D01*
X0160088Y0099937D01*
X0160426Y0099916D01*
X0160764Y0099904D01*
X0161102Y0099900D01*
X0197789Y0146365D02*
X0207242Y0146365D01*
X0206580Y0147963D02*
X0199388Y0147963D01*
X0232102Y0156400D02*
X0232086Y0157696D01*
X0232039Y0158990D01*
X0231961Y0160284D01*
X0231852Y0161575D01*
X0231711Y0162863D01*
X0231539Y0164147D01*
X0231337Y0165427D01*
X0231103Y0166701D01*
X0230839Y0167970D01*
X0230544Y0169232D01*
X0230219Y0170486D01*
X0229863Y0171732D01*
X0229478Y0172969D01*
X0229062Y0174196D01*
X0228618Y0175413D01*
X0228144Y0176619D01*
X0227641Y0177813D01*
X0227109Y0178995D01*
X0226549Y0180163D01*
X0225960Y0181318D01*
X0225344Y0182457D01*
X0224701Y0183582D01*
X0224031Y0184691D01*
X0223334Y0185783D01*
X0222611Y0186858D01*
X0221862Y0187916D01*
X0221088Y0188955D01*
X0220289Y0189975D01*
X0219465Y0190975D01*
X0218618Y0191955D01*
X0217747Y0192915D01*
X0216853Y0193853D01*
X0215937Y0194769D01*
X0214999Y0195663D01*
X0214039Y0196534D01*
X0213059Y0197381D01*
X0212059Y0198205D01*
X0211039Y0199004D01*
X0210000Y0199778D01*
X0208942Y0200527D01*
X0207867Y0201250D01*
X0206775Y0201947D01*
X0205666Y0202617D01*
X0204541Y0203260D01*
X0203402Y0203876D01*
X0202247Y0204465D01*
X0201079Y0205025D01*
X0199897Y0205557D01*
X0198703Y0206060D01*
X0197497Y0206534D01*
X0196280Y0206978D01*
X0195053Y0207394D01*
X0193816Y0207779D01*
X0192570Y0208135D01*
X0191316Y0208460D01*
X0190054Y0208755D01*
X0188785Y0209019D01*
X0187511Y0209253D01*
X0186231Y0209455D01*
X0184947Y0209627D01*
X0183659Y0209768D01*
X0182368Y0209877D01*
X0181074Y0209955D01*
X0179780Y0210002D01*
X0178484Y0210018D01*
X0176102Y0210018D01*
X0182602Y0203911D02*
X0189617Y0203911D01*
X0194672Y0202312D02*
X0182602Y0202312D01*
X0182602Y0200714D02*
X0198713Y0200714D01*
X0201850Y0199115D02*
X0182602Y0199115D01*
X0182420Y0197517D02*
X0204690Y0197517D01*
X0206890Y0195918D02*
X0181900Y0195918D01*
X0181263Y0194320D02*
X0209090Y0194320D01*
X0210989Y0192721D02*
X0180101Y0192721D01*
X0178586Y0191123D02*
X0212588Y0191123D01*
X0214186Y0189524D02*
X0176384Y0189524D01*
X0169296Y0184729D02*
X0162908Y0184729D01*
X0165771Y0183130D02*
X0166433Y0183130D01*
X0159296Y0184729D02*
X0142908Y0184729D01*
X0145771Y0183130D02*
X0156433Y0183130D01*
X0155030Y0181532D02*
X0154258Y0181532D01*
X0151302Y0181532D02*
X0150902Y0181532D01*
X0150902Y0179933D02*
X0151302Y0179933D01*
X0151302Y0178335D02*
X0150902Y0178335D01*
X0150902Y0176736D02*
X0151302Y0176736D01*
X0151302Y0175138D02*
X0150902Y0175138D01*
X0150902Y0173539D02*
X0151302Y0173539D01*
X0151302Y0171941D02*
X0150902Y0171941D01*
X0150902Y0170342D02*
X0151302Y0170342D01*
X0151302Y0168744D02*
X0150902Y0168744D01*
X0150902Y0167145D02*
X0151302Y0167145D01*
X0151765Y0167145D02*
X0155957Y0167145D01*
X0154833Y0168744D02*
X0154734Y0168744D01*
X0154751Y0165547D02*
X0144056Y0165547D01*
X0146247Y0167145D02*
X0150439Y0167145D01*
X0147470Y0168744D02*
X0147371Y0168744D01*
X0147101Y0160751D02*
X0041302Y0160751D01*
X0041302Y0159153D02*
X0145845Y0159153D01*
X0146710Y0160416D02*
X0146710Y0160416D01*
X0138148Y0165547D02*
X0134056Y0165547D01*
X0124171Y0170342D02*
X0071702Y0170342D01*
X0071702Y0171941D02*
X0124102Y0171941D01*
X0124102Y0173539D02*
X0113075Y0173539D01*
X0114674Y0175138D02*
X0124102Y0175138D01*
X0124102Y0176736D02*
X0116272Y0176736D01*
X0116702Y0178335D02*
X0124102Y0178335D01*
X0124368Y0179933D02*
X0116702Y0179933D01*
X0116702Y0181532D02*
X0125030Y0181532D01*
X0126433Y0183130D02*
X0116206Y0183130D01*
X0114607Y0184729D02*
X0129296Y0184729D01*
X0132908Y0184729D02*
X0139296Y0184729D01*
X0136433Y0183130D02*
X0135771Y0183130D01*
X0147174Y0181532D02*
X0147946Y0181532D01*
X0149669Y0203246D02*
X0142535Y0203246D01*
X0141065Y0203855D01*
X0139939Y0204981D01*
X0139330Y0206451D01*
X0139330Y0213585D01*
X0139939Y0215056D01*
X0141065Y0216181D01*
X0142535Y0216790D01*
X0146589Y0216790D01*
X0146530Y0217009D01*
X0146530Y0219932D01*
X0151016Y0219932D01*
X0151016Y0220104D01*
X0146530Y0220104D01*
X0146530Y0223027D01*
X0146630Y0223400D01*
X0132874Y0223400D01*
X0132874Y0216451D01*
X0132265Y0214981D01*
X0131140Y0213855D01*
X0129669Y0213246D01*
X0127874Y0213246D01*
X0127874Y0206451D01*
X0127602Y0205795D01*
X0127602Y0204900D01*
X0127632Y0204443D01*
X0127868Y0203561D01*
X0128325Y0202769D01*
X0128971Y0202123D01*
X0129763Y0201666D01*
X0130645Y0201430D01*
X0131102Y0201400D01*
X0169602Y0201400D01*
X0169602Y0203246D01*
X0162535Y0203246D01*
X0161102Y0203840D01*
X0159669Y0203246D01*
X0152535Y0203246D01*
X0151102Y0203840D01*
X0149669Y0203246D01*
X0141009Y0203911D02*
X0127775Y0203911D01*
X0127602Y0205509D02*
X0139720Y0205509D01*
X0139330Y0207108D02*
X0127874Y0207108D01*
X0127874Y0208706D02*
X0139330Y0208706D01*
X0139330Y0210305D02*
X0127874Y0210305D01*
X0127874Y0211903D02*
X0139330Y0211903D01*
X0139330Y0213502D02*
X0130286Y0213502D01*
X0132314Y0215101D02*
X0139984Y0215101D01*
X0142316Y0216699D02*
X0132874Y0216699D01*
X0132874Y0218298D02*
X0146530Y0218298D01*
X0146530Y0219896D02*
X0132874Y0219896D01*
X0132874Y0221495D02*
X0146530Y0221495D01*
X0146548Y0223093D02*
X0132874Y0223093D01*
X0127684Y0235881D02*
X0092672Y0235881D01*
X0089301Y0234283D02*
X0124451Y0234283D01*
X0122543Y0232684D02*
X0041302Y0232684D01*
X0041302Y0231086D02*
X0121381Y0231086D01*
X0120501Y0229487D02*
X0041302Y0229487D01*
X0041302Y0227889D02*
X0119981Y0227889D01*
X0119602Y0226290D02*
X0110876Y0226290D01*
X0112416Y0224692D02*
X0119602Y0224692D01*
X0116188Y0223093D02*
X0116016Y0223093D01*
X0116016Y0221495D02*
X0116188Y0221495D01*
X0101328Y0226290D02*
X0041302Y0226290D01*
X0041302Y0224692D02*
X0099789Y0224692D01*
X0096188Y0223093D02*
X0096016Y0223093D01*
X0096016Y0221495D02*
X0096188Y0221495D01*
X0091530Y0221495D02*
X0041302Y0221495D01*
X0041302Y0223093D02*
X0091548Y0223093D01*
X0091530Y0219896D02*
X0041302Y0219896D01*
X0041302Y0218298D02*
X0091530Y0218298D01*
X0087316Y0216699D02*
X0041302Y0216699D01*
X0041302Y0215101D02*
X0060969Y0215101D01*
X0062368Y0216500D02*
X0058502Y0212634D01*
X0058502Y0207166D01*
X0062368Y0203300D01*
X0067836Y0203300D01*
X0071702Y0207166D01*
X0071702Y0212634D01*
X0067836Y0216500D01*
X0062368Y0216500D01*
X0059370Y0213502D02*
X0041302Y0213502D01*
X0041302Y0211903D02*
X0058502Y0211903D01*
X0058502Y0210305D02*
X0041302Y0210305D01*
X0041302Y0208706D02*
X0058502Y0208706D01*
X0058560Y0207108D02*
X0041302Y0207108D01*
X0041302Y0205509D02*
X0060159Y0205509D01*
X0061757Y0203911D02*
X0041302Y0203911D01*
X0041302Y0202312D02*
X0114713Y0202312D01*
X0115142Y0200714D02*
X0041302Y0200714D01*
X0041302Y0199115D02*
X0115570Y0199115D01*
X0116312Y0197517D02*
X0041302Y0197517D01*
X0041302Y0195918D02*
X0117235Y0195918D01*
X0118348Y0194320D02*
X0041302Y0194320D01*
X0041302Y0192721D02*
X0119946Y0192721D01*
X0121965Y0191123D02*
X0041302Y0191123D01*
X0041302Y0189524D02*
X0124734Y0189524D01*
X0128782Y0202312D02*
X0169602Y0202312D01*
X0215736Y0187926D02*
X0041302Y0187926D01*
X0069198Y0175138D02*
X0105531Y0175138D01*
X0107129Y0173539D02*
X0070797Y0173539D01*
X0061966Y0152759D02*
X0081833Y0152759D01*
X0081171Y0151160D02*
X0063502Y0151160D01*
X0063502Y0149562D02*
X0081002Y0149562D01*
X0081037Y0147963D02*
X0063502Y0147963D01*
X0062289Y0146365D02*
X0081699Y0146365D01*
X0082819Y0144766D02*
X0063070Y0144766D01*
X0064668Y0143168D02*
X0082002Y0143168D01*
X0081340Y0141569D02*
X0065702Y0141569D01*
X0065702Y0139970D02*
X0081002Y0139970D01*
X0081002Y0138372D02*
X0065702Y0138372D01*
X0065702Y0136773D02*
X0081530Y0136773D01*
X0082410Y0135175D02*
X0064211Y0135175D01*
X0062612Y0133576D02*
X0084092Y0133576D01*
X0097112Y0133576D02*
X0107092Y0133576D01*
X0105493Y0135175D02*
X0098794Y0135175D01*
X0099674Y0136773D02*
X0103895Y0136773D01*
X0103502Y0138372D02*
X0100202Y0138372D01*
X0100202Y0139970D02*
X0103502Y0139970D01*
X0103502Y0141569D02*
X0099864Y0141569D01*
X0099202Y0143168D02*
X0104036Y0143168D01*
X0105634Y0144766D02*
X0098385Y0144766D01*
X0099505Y0146365D02*
X0107233Y0146365D01*
X0086009Y0203911D02*
X0068447Y0203911D01*
X0070045Y0205509D02*
X0084720Y0205509D01*
X0084330Y0207108D02*
X0071644Y0207108D01*
X0071702Y0208706D02*
X0084330Y0208706D01*
X0084330Y0210305D02*
X0071702Y0210305D01*
X0071702Y0211903D02*
X0084330Y0211903D01*
X0084330Y0213502D02*
X0070834Y0213502D01*
X0069235Y0215101D02*
X0084984Y0215101D01*
X0082903Y0234283D02*
X0041302Y0234283D01*
X0041302Y0235881D02*
X0079532Y0235881D01*
X0077805Y0237480D02*
X0041302Y0237480D01*
X0041302Y0239078D02*
X0076602Y0239078D01*
X0075679Y0240677D02*
X0041302Y0240677D01*
X0041302Y0242275D02*
X0075244Y0242275D01*
X0074904Y0243874D02*
X0041302Y0243874D01*
X0041302Y0245472D02*
X0074904Y0245472D01*
X0075059Y0247071D02*
X0041302Y0247071D01*
X0041302Y0248669D02*
X0075488Y0248669D01*
X0070788Y0250268D02*
X0041302Y0250268D01*
X0041302Y0251866D02*
X0069190Y0251866D01*
X0068208Y0253465D02*
X0041302Y0253465D01*
X0041302Y0255063D02*
X0067546Y0255063D01*
X0067404Y0256662D02*
X0041302Y0256662D01*
X0041302Y0258260D02*
X0067404Y0258260D01*
X0067907Y0259859D02*
X0041302Y0259859D01*
X0041302Y0261457D02*
X0068569Y0261457D01*
X0070060Y0263056D02*
X0041302Y0263056D01*
X0041302Y0264654D02*
X0072680Y0264654D01*
X0041302Y0266253D02*
X0272902Y0266253D01*
X0272902Y0267851D02*
X0041302Y0267851D01*
X0041302Y0269450D02*
X0272902Y0269450D01*
X0272902Y0271048D02*
X0041302Y0271048D01*
X0041302Y0272647D02*
X0272902Y0272647D01*
X0272902Y0274245D02*
X0041302Y0274245D01*
X0041302Y0275844D02*
X0272902Y0275844D01*
X0272902Y0277442D02*
X0041302Y0277442D01*
X0041302Y0279041D02*
X0272902Y0279041D01*
X0225984Y0220018D02*
X0226893Y0220007D01*
X0227801Y0219974D01*
X0228709Y0219919D01*
X0229615Y0219842D01*
X0230518Y0219744D01*
X0231419Y0219623D01*
X0232317Y0219481D01*
X0233211Y0219317D01*
X0234101Y0219132D01*
X0234987Y0218925D01*
X0235867Y0218697D01*
X0236741Y0218447D01*
X0237609Y0218177D01*
X0238470Y0217886D01*
X0239324Y0217573D01*
X0240170Y0217241D01*
X0241007Y0216888D01*
X0241836Y0216515D01*
X0242656Y0216122D01*
X0243466Y0215709D01*
X0244266Y0215277D01*
X0245055Y0214826D01*
X0245833Y0214355D01*
X0246599Y0213866D01*
X0247353Y0213359D01*
X0248095Y0212834D01*
X0248824Y0212290D01*
X0249540Y0211730D01*
X0250242Y0211152D01*
X0250929Y0210557D01*
X0251602Y0209946D01*
X0252261Y0209319D01*
X0252903Y0208677D01*
X0253530Y0208018D01*
X0254141Y0207345D01*
X0254736Y0206658D01*
X0255314Y0205956D01*
X0255874Y0205240D01*
X0256418Y0204511D01*
X0256943Y0203769D01*
X0257450Y0203015D01*
X0257939Y0202249D01*
X0258410Y0201471D01*
X0258861Y0200682D01*
X0259293Y0199882D01*
X0259706Y0199072D01*
X0260099Y0198252D01*
X0260472Y0197423D01*
X0260825Y0196586D01*
X0261157Y0195740D01*
X0261470Y0194886D01*
X0261761Y0194025D01*
X0262031Y0193157D01*
X0262281Y0192283D01*
X0262509Y0191403D01*
X0262716Y0190517D01*
X0262901Y0189627D01*
X0263065Y0188733D01*
X0263207Y0187835D01*
X0263328Y0186934D01*
X0263426Y0186031D01*
X0263503Y0185125D01*
X0263558Y0184217D01*
X0263591Y0183309D01*
X0263602Y0182400D01*
X0270767Y0136773D02*
X0272902Y0136773D01*
X0272902Y0135175D02*
X0272791Y0135175D01*
X0272902Y0123985D02*
X0272151Y0123985D01*
X0272902Y0122387D02*
X0269223Y0122387D01*
X0247850Y0129900D02*
X0241602Y0129900D01*
X0224345Y0101606D02*
X0224174Y0101606D01*
X0224174Y0100008D02*
X0224345Y0100008D01*
X0043981Y0122387D02*
X0041302Y0122387D01*
D18*
X0062102Y0088400D03*
X0062102Y0062400D03*
X0062602Y0035400D03*
X0094102Y0034400D03*
X0115102Y0040400D03*
X0116602Y0019400D03*
X0116102Y0092400D03*
X0088102Y0091400D03*
X0086102Y0182900D03*
X0050102Y0193900D03*
X0053602Y0232400D03*
X0054102Y0270400D03*
X0179602Y0121400D03*
X0180102Y0096400D03*
X0205602Y0096900D03*
X0203102Y0053900D03*
X0191102Y0024900D03*
X0264102Y0023900D03*
X0263602Y0067900D03*
X0263602Y0106400D03*
X0246602Y0175900D03*
X0227102Y0204400D03*
X0217102Y0234900D03*
X0242102Y0248900D03*
X0264102Y0225900D03*
X0217102Y0267400D03*
X0198102Y0182400D03*
D19*
X0176102Y0199900D02*
X0176102Y0210018D01*
X0181102Y0220018D02*
X0181102Y0224900D01*
X0181100Y0225040D01*
X0181094Y0225180D01*
X0181084Y0225320D01*
X0181071Y0225460D01*
X0181053Y0225599D01*
X0181031Y0225738D01*
X0181006Y0225875D01*
X0180977Y0226013D01*
X0180944Y0226149D01*
X0180907Y0226284D01*
X0180866Y0226418D01*
X0180821Y0226551D01*
X0180773Y0226683D01*
X0180721Y0226813D01*
X0180666Y0226942D01*
X0180607Y0227069D01*
X0180544Y0227195D01*
X0180478Y0227319D01*
X0180409Y0227440D01*
X0180336Y0227560D01*
X0180259Y0227678D01*
X0180180Y0227793D01*
X0180097Y0227907D01*
X0180011Y0228017D01*
X0179922Y0228126D01*
X0179830Y0228232D01*
X0179735Y0228335D01*
X0179638Y0228436D01*
X0179537Y0228533D01*
X0179434Y0228628D01*
X0179328Y0228720D01*
X0179219Y0228809D01*
X0179109Y0228895D01*
X0178995Y0228978D01*
X0178880Y0229057D01*
X0178762Y0229134D01*
X0178642Y0229207D01*
X0178521Y0229276D01*
X0178397Y0229342D01*
X0178271Y0229405D01*
X0178144Y0229464D01*
X0178015Y0229519D01*
X0177885Y0229571D01*
X0177753Y0229619D01*
X0177620Y0229664D01*
X0177486Y0229705D01*
X0177351Y0229742D01*
X0177215Y0229775D01*
X0177077Y0229804D01*
X0176940Y0229829D01*
X0176801Y0229851D01*
X0176662Y0229869D01*
X0176522Y0229882D01*
X0176382Y0229892D01*
X0176242Y0229898D01*
X0176102Y0229900D01*
X0131102Y0229900D01*
X0130962Y0229898D01*
X0130822Y0229892D01*
X0130682Y0229882D01*
X0130542Y0229869D01*
X0130403Y0229851D01*
X0130264Y0229829D01*
X0130127Y0229804D01*
X0129989Y0229775D01*
X0129853Y0229742D01*
X0129718Y0229705D01*
X0129584Y0229664D01*
X0129451Y0229619D01*
X0129319Y0229571D01*
X0129189Y0229519D01*
X0129060Y0229464D01*
X0128933Y0229405D01*
X0128807Y0229342D01*
X0128683Y0229276D01*
X0128562Y0229207D01*
X0128442Y0229134D01*
X0128324Y0229057D01*
X0128209Y0228978D01*
X0128095Y0228895D01*
X0127985Y0228809D01*
X0127876Y0228720D01*
X0127770Y0228628D01*
X0127667Y0228533D01*
X0127566Y0228436D01*
X0127469Y0228335D01*
X0127374Y0228232D01*
X0127282Y0228126D01*
X0127193Y0228017D01*
X0127107Y0227907D01*
X0127024Y0227793D01*
X0126945Y0227678D01*
X0126868Y0227560D01*
X0126795Y0227440D01*
X0126726Y0227319D01*
X0126660Y0227195D01*
X0126597Y0227069D01*
X0126538Y0226942D01*
X0126483Y0226813D01*
X0126431Y0226683D01*
X0126383Y0226551D01*
X0126338Y0226418D01*
X0126297Y0226284D01*
X0126260Y0226149D01*
X0126227Y0226013D01*
X0126198Y0225875D01*
X0126173Y0225738D01*
X0126151Y0225599D01*
X0126133Y0225460D01*
X0126120Y0225320D01*
X0126110Y0225180D01*
X0126104Y0225040D01*
X0126102Y0224900D01*
X0126102Y0220018D01*
X0121102Y0210018D02*
X0121102Y0204900D01*
X0121105Y0204658D01*
X0121114Y0204417D01*
X0121128Y0204176D01*
X0121149Y0203935D01*
X0121175Y0203695D01*
X0121207Y0203455D01*
X0121245Y0203216D01*
X0121288Y0202979D01*
X0121338Y0202742D01*
X0121393Y0202507D01*
X0121453Y0202273D01*
X0121520Y0202041D01*
X0121591Y0201810D01*
X0121669Y0201581D01*
X0121752Y0201354D01*
X0121840Y0201129D01*
X0121934Y0200906D01*
X0122033Y0200686D01*
X0122138Y0200468D01*
X0122247Y0200253D01*
X0122362Y0200040D01*
X0122482Y0199830D01*
X0122607Y0199624D01*
X0122737Y0199420D01*
X0122872Y0199219D01*
X0123012Y0199022D01*
X0123156Y0198828D01*
X0123305Y0198638D01*
X0123459Y0198452D01*
X0123617Y0198269D01*
X0123779Y0198090D01*
X0123946Y0197915D01*
X0124117Y0197744D01*
X0124292Y0197577D01*
X0124471Y0197415D01*
X0124654Y0197257D01*
X0124840Y0197103D01*
X0125030Y0196954D01*
X0125224Y0196810D01*
X0125421Y0196670D01*
X0125622Y0196535D01*
X0125826Y0196405D01*
X0126032Y0196280D01*
X0126242Y0196160D01*
X0126455Y0196045D01*
X0126670Y0195936D01*
X0126888Y0195831D01*
X0127108Y0195732D01*
X0127331Y0195638D01*
X0127556Y0195550D01*
X0127783Y0195467D01*
X0128012Y0195389D01*
X0128243Y0195318D01*
X0128475Y0195251D01*
X0128709Y0195191D01*
X0128944Y0195136D01*
X0129181Y0195086D01*
X0129418Y0195043D01*
X0129657Y0195005D01*
X0129897Y0194973D01*
X0130137Y0194947D01*
X0130378Y0194926D01*
X0130619Y0194912D01*
X0130860Y0194903D01*
X0131102Y0194900D01*
X0171102Y0194900D01*
X0171242Y0194902D01*
X0171382Y0194908D01*
X0171522Y0194918D01*
X0171662Y0194931D01*
X0171801Y0194949D01*
X0171940Y0194971D01*
X0172077Y0194996D01*
X0172215Y0195025D01*
X0172351Y0195058D01*
X0172486Y0195095D01*
X0172620Y0195136D01*
X0172753Y0195181D01*
X0172885Y0195229D01*
X0173015Y0195281D01*
X0173144Y0195336D01*
X0173271Y0195395D01*
X0173397Y0195458D01*
X0173521Y0195524D01*
X0173642Y0195593D01*
X0173762Y0195666D01*
X0173880Y0195743D01*
X0173995Y0195822D01*
X0174109Y0195905D01*
X0174219Y0195991D01*
X0174328Y0196080D01*
X0174434Y0196172D01*
X0174537Y0196267D01*
X0174638Y0196364D01*
X0174735Y0196465D01*
X0174830Y0196568D01*
X0174922Y0196674D01*
X0175011Y0196783D01*
X0175097Y0196893D01*
X0175180Y0197007D01*
X0175259Y0197122D01*
X0175336Y0197240D01*
X0175409Y0197360D01*
X0175478Y0197481D01*
X0175544Y0197605D01*
X0175607Y0197731D01*
X0175666Y0197858D01*
X0175721Y0197987D01*
X0175773Y0198117D01*
X0175821Y0198249D01*
X0175866Y0198382D01*
X0175907Y0198516D01*
X0175944Y0198651D01*
X0175977Y0198787D01*
X0176006Y0198925D01*
X0176031Y0199062D01*
X0176053Y0199201D01*
X0176071Y0199340D01*
X0176084Y0199480D01*
X0176094Y0199620D01*
X0176100Y0199760D01*
X0176102Y0199900D01*
M02*
