%
M48
M72
T01C0.01575
T02C0.02362
T03C0.02400
T04C0.03150
T05C0.03200
T06C0.03600
T07C0.04000
T08C0.05906
T09C0.07087
T10C0.09291
%
T01
X33500Y14500
X33000Y41000
X107000Y34500
X161500Y71500
X175000Y51500
X198500Y34500
X222000Y54500
X241000Y36000
X253500Y57000
X261500Y78500
X204000Y98500
X204000Y117500
X241000Y145500
X245500Y175500
X219500Y176500
X220500Y199000
X245500Y199500
X187500Y177000
X156500Y176500
X120500Y177000
X85500Y176000
X80500Y201500
X133500Y223000
X151000Y249000
X15000Y181000
X35000Y111500
X118000Y78000
X197000Y71000
X179500Y146000
X300500Y243500
X319500Y168500
X318000Y65500
X318500Y30500
T02
X282465Y175689
X276953Y187500
X285614Y199311
X135500Y187000
T03
X130500Y60000
X150500Y60000
T04
X45362Y204945
X45362Y212976
X55362Y208961
X55362Y216992
X55362Y225024
X55362Y233055
X45362Y229039
X45362Y221008
T05
X17000Y15500
X17000Y35500
X47500Y25000
X100500Y55000
X100500Y75000
X95500Y94000
X85500Y94000
X75500Y94000
X65500Y94000
X55500Y94000
X22500Y88500
X47500Y65000
X105500Y94000
X115500Y94000
X125500Y94000
X135500Y94000
X145500Y94000
X155500Y94000
X165500Y94000
X175500Y94000
X185500Y94000
X185500Y124000
X175500Y124000
X165500Y124000
X155500Y124000
X145500Y124000
X135500Y124000
X125500Y124000
X115500Y124000
X105500Y124000
X95500Y124000
X85500Y124000
X75500Y124000
X65500Y124000
X55500Y124000
X22500Y128500
X135500Y142500
X155500Y142500
X189752Y212500
X189752Y222500
X189752Y232500
X189752Y242500
X171000Y222500
X151000Y222500
X221248Y222500
X221248Y212500
X237000Y220000
X221248Y232500
X221248Y242500
X237000Y234500
X277000Y234500
X277000Y220000
X298500Y220000
X318500Y220000
X150500Y39500
X150500Y29500
X130500Y29500
X130500Y39500
T06
X22500Y55000
X22500Y65000
T07
X25500Y169000
X35500Y169000
X45500Y169000
X55500Y169000
X65500Y169000
X96000Y222500
X96000Y232500
X96000Y242500
X225500Y113000
X235500Y113000
X245500Y113000
X255500Y113000
X265500Y113000
X275500Y113000
X285500Y113000
X295500Y113000
X305500Y113000
X315500Y113000
X315500Y103000
X305500Y103000
X295500Y103000
X285500Y103000
X275500Y103000
X265500Y103000
X255500Y103000
X245500Y103000
X235500Y103000
X225500Y103000
T08
X324000Y142732
X15500Y142732
T09
X287583Y187500
X309236Y187500
T10
X36307Y189472
X36307Y248528
M30
