G75*
%MOIN*%
%OFA0B0*%
%FSLAX25Y25*%
%IPPOS*%
%LPD*%
%AMOC8*
5,1,8,0,0,1.08239X$1,22.5*
%
%ADD10C,0.00600*%
%ADD11C,0.00400*%
%ADD12C,0.01200*%
%ADD13C,0.00500*%
%ADD14C,0.00700*%
%ADD15C,0.01000*%
%ADD16C,0.00200*%
%ADD17C,0.00300*%
%ADD18R,0.02400X0.03400*%
%ADD19R,0.03400X0.02400*%
D10*
X0012000Y0012000D02*
X0012000Y0039000D01*
X0012002Y0039060D01*
X0012007Y0039121D01*
X0012016Y0039180D01*
X0012029Y0039239D01*
X0012045Y0039298D01*
X0012065Y0039355D01*
X0012088Y0039410D01*
X0012115Y0039465D01*
X0012144Y0039517D01*
X0012177Y0039568D01*
X0012213Y0039617D01*
X0012251Y0039663D01*
X0012293Y0039707D01*
X0012337Y0039749D01*
X0012383Y0039787D01*
X0012432Y0039823D01*
X0012483Y0039856D01*
X0012535Y0039885D01*
X0012590Y0039912D01*
X0012645Y0039935D01*
X0012702Y0039955D01*
X0012761Y0039971D01*
X0012820Y0039984D01*
X0012879Y0039993D01*
X0012940Y0039998D01*
X0013000Y0040000D01*
X0021000Y0040000D01*
X0021060Y0039998D01*
X0021121Y0039993D01*
X0021180Y0039984D01*
X0021239Y0039971D01*
X0021298Y0039955D01*
X0021355Y0039935D01*
X0021410Y0039912D01*
X0021465Y0039885D01*
X0021517Y0039856D01*
X0021568Y0039823D01*
X0021617Y0039787D01*
X0021663Y0039749D01*
X0021707Y0039707D01*
X0021749Y0039663D01*
X0021787Y0039617D01*
X0021823Y0039568D01*
X0021856Y0039517D01*
X0021885Y0039465D01*
X0021912Y0039410D01*
X0021935Y0039355D01*
X0021955Y0039298D01*
X0021971Y0039239D01*
X0021984Y0039180D01*
X0021993Y0039121D01*
X0021998Y0039060D01*
X0022000Y0039000D01*
X0022000Y0012000D01*
X0021998Y0011940D01*
X0021993Y0011879D01*
X0021984Y0011820D01*
X0021971Y0011761D01*
X0021955Y0011702D01*
X0021935Y0011645D01*
X0021912Y0011590D01*
X0021885Y0011535D01*
X0021856Y0011483D01*
X0021823Y0011432D01*
X0021787Y0011383D01*
X0021749Y0011337D01*
X0021707Y0011293D01*
X0021663Y0011251D01*
X0021617Y0011213D01*
X0021568Y0011177D01*
X0021517Y0011144D01*
X0021465Y0011115D01*
X0021410Y0011088D01*
X0021355Y0011065D01*
X0021298Y0011045D01*
X0021239Y0011029D01*
X0021180Y0011016D01*
X0021121Y0011007D01*
X0021060Y0011002D01*
X0021000Y0011000D01*
X0013000Y0011000D01*
X0012940Y0011002D01*
X0012879Y0011007D01*
X0012820Y0011016D01*
X0012761Y0011029D01*
X0012702Y0011045D01*
X0012645Y0011065D01*
X0012590Y0011088D01*
X0012535Y0011115D01*
X0012483Y0011144D01*
X0012432Y0011177D01*
X0012383Y0011213D01*
X0012337Y0011251D01*
X0012293Y0011293D01*
X0012251Y0011337D01*
X0012213Y0011383D01*
X0012177Y0011432D01*
X0012144Y0011483D01*
X0012115Y0011535D01*
X0012088Y0011590D01*
X0012065Y0011645D01*
X0012045Y0011702D01*
X0012029Y0011761D01*
X0012016Y0011820D01*
X0012007Y0011879D01*
X0012002Y0011940D01*
X0012000Y0012000D01*
X0017000Y0019500D02*
X0017000Y0024200D01*
X0017000Y0026700D02*
X0017000Y0031500D01*
X0015700Y0044800D02*
X0009295Y0044800D01*
X0009295Y0048003D01*
X0010362Y0049070D01*
X0014632Y0049070D01*
X0015700Y0048003D01*
X0015700Y0044800D01*
X0018500Y0050000D02*
X0017500Y0051000D01*
X0017500Y0059000D01*
X0018500Y0060000D01*
X0017500Y0061000D01*
X0017500Y0069000D01*
X0018500Y0070000D01*
X0026500Y0070000D01*
X0027500Y0069000D01*
X0027500Y0061000D01*
X0026500Y0060000D01*
X0027500Y0059000D01*
X0027500Y0051000D01*
X0026500Y0050000D01*
X0018500Y0050000D01*
X0015700Y0051245D02*
X0015700Y0055516D01*
X0015700Y0057691D02*
X0015700Y0060894D01*
X0014632Y0061961D01*
X0013565Y0061961D01*
X0012497Y0060894D01*
X0012497Y0057691D01*
X0009295Y0057691D02*
X0009295Y0060894D01*
X0010362Y0061961D01*
X0011430Y0061961D01*
X0012497Y0060894D01*
X0014632Y0064136D02*
X0009295Y0064136D01*
X0009295Y0068407D02*
X0014632Y0068407D01*
X0015700Y0067339D01*
X0015700Y0065204D01*
X0014632Y0064136D01*
X0015700Y0057691D02*
X0009295Y0057691D01*
X0009295Y0055516D02*
X0009295Y0051245D01*
X0015700Y0051245D01*
X0012497Y0051245D02*
X0012497Y0053381D01*
X0010362Y0070582D02*
X0014632Y0070582D01*
X0015700Y0071650D01*
X0015700Y0073785D01*
X0014632Y0074852D01*
X0012497Y0074852D01*
X0012497Y0072717D01*
X0010362Y0070582D02*
X0009295Y0071650D01*
X0009295Y0073785D01*
X0010362Y0074852D01*
X0019000Y0096000D02*
X0026000Y0096000D01*
X0026060Y0096002D01*
X0026121Y0096007D01*
X0026180Y0096016D01*
X0026239Y0096029D01*
X0026298Y0096045D01*
X0026355Y0096065D01*
X0026410Y0096088D01*
X0026465Y0096115D01*
X0026517Y0096144D01*
X0026568Y0096177D01*
X0026617Y0096213D01*
X0026663Y0096251D01*
X0026707Y0096293D01*
X0026749Y0096337D01*
X0026787Y0096383D01*
X0026823Y0096432D01*
X0026856Y0096483D01*
X0026885Y0096535D01*
X0026912Y0096590D01*
X0026935Y0096645D01*
X0026955Y0096702D01*
X0026971Y0096761D01*
X0026984Y0096820D01*
X0026993Y0096879D01*
X0026998Y0096940D01*
X0027000Y0097000D01*
X0027000Y0098500D01*
X0026500Y0099000D01*
X0026500Y0118000D01*
X0027000Y0118500D01*
X0027000Y0120000D01*
X0026998Y0120060D01*
X0026993Y0120121D01*
X0026984Y0120180D01*
X0026971Y0120239D01*
X0026955Y0120298D01*
X0026935Y0120355D01*
X0026912Y0120410D01*
X0026885Y0120465D01*
X0026856Y0120517D01*
X0026823Y0120568D01*
X0026787Y0120617D01*
X0026749Y0120663D01*
X0026707Y0120707D01*
X0026663Y0120749D01*
X0026617Y0120787D01*
X0026568Y0120823D01*
X0026517Y0120856D01*
X0026465Y0120885D01*
X0026410Y0120912D01*
X0026355Y0120935D01*
X0026298Y0120955D01*
X0026239Y0120971D01*
X0026180Y0120984D01*
X0026121Y0120993D01*
X0026060Y0120998D01*
X0026000Y0121000D01*
X0019000Y0121000D01*
X0018940Y0120998D01*
X0018879Y0120993D01*
X0018820Y0120984D01*
X0018761Y0120971D01*
X0018702Y0120955D01*
X0018645Y0120935D01*
X0018590Y0120912D01*
X0018535Y0120885D01*
X0018483Y0120856D01*
X0018432Y0120823D01*
X0018383Y0120787D01*
X0018337Y0120749D01*
X0018293Y0120707D01*
X0018251Y0120663D01*
X0018213Y0120617D01*
X0018177Y0120568D01*
X0018144Y0120517D01*
X0018115Y0120465D01*
X0018088Y0120410D01*
X0018065Y0120355D01*
X0018045Y0120298D01*
X0018029Y0120239D01*
X0018016Y0120180D01*
X0018007Y0120121D01*
X0018002Y0120060D01*
X0018000Y0120000D01*
X0018000Y0118500D01*
X0018500Y0118000D01*
X0018500Y0099000D01*
X0018000Y0098500D01*
X0018000Y0097000D01*
X0018002Y0096940D01*
X0018007Y0096879D01*
X0018016Y0096820D01*
X0018029Y0096761D01*
X0018045Y0096702D01*
X0018065Y0096645D01*
X0018088Y0096590D01*
X0018115Y0096535D01*
X0018144Y0096483D01*
X0018177Y0096432D01*
X0018213Y0096383D01*
X0018251Y0096337D01*
X0018293Y0096293D01*
X0018337Y0096251D01*
X0018383Y0096213D01*
X0018432Y0096177D01*
X0018483Y0096144D01*
X0018535Y0096115D01*
X0018590Y0096088D01*
X0018645Y0096065D01*
X0018702Y0096045D01*
X0018761Y0096029D01*
X0018820Y0096016D01*
X0018879Y0096007D01*
X0018940Y0096002D01*
X0019000Y0096000D01*
X0039795Y0097339D02*
X0039795Y0094136D01*
X0046200Y0094136D01*
X0044065Y0094136D02*
X0044065Y0097339D01*
X0042997Y0098407D01*
X0040862Y0098407D01*
X0039795Y0097339D01*
X0044065Y0096272D02*
X0046200Y0098407D01*
X0050500Y0099000D02*
X0050500Y0104000D01*
X0050640Y0104002D01*
X0050780Y0104008D01*
X0050920Y0104018D01*
X0051060Y0104031D01*
X0051199Y0104049D01*
X0051338Y0104071D01*
X0051475Y0104096D01*
X0051613Y0104125D01*
X0051749Y0104158D01*
X0051884Y0104195D01*
X0052018Y0104236D01*
X0052151Y0104281D01*
X0052283Y0104329D01*
X0052413Y0104381D01*
X0052542Y0104436D01*
X0052669Y0104495D01*
X0052795Y0104558D01*
X0052919Y0104624D01*
X0053040Y0104693D01*
X0053160Y0104766D01*
X0053278Y0104843D01*
X0053393Y0104922D01*
X0053507Y0105005D01*
X0053617Y0105091D01*
X0053726Y0105180D01*
X0053832Y0105272D01*
X0053935Y0105367D01*
X0054036Y0105464D01*
X0054133Y0105565D01*
X0054228Y0105668D01*
X0054320Y0105774D01*
X0054409Y0105883D01*
X0054495Y0105993D01*
X0054578Y0106107D01*
X0054657Y0106222D01*
X0054734Y0106340D01*
X0054807Y0106460D01*
X0054876Y0106581D01*
X0054942Y0106705D01*
X0055005Y0106831D01*
X0055064Y0106958D01*
X0055119Y0107087D01*
X0055171Y0107217D01*
X0055219Y0107349D01*
X0055264Y0107482D01*
X0055305Y0107616D01*
X0055342Y0107751D01*
X0055375Y0107887D01*
X0055404Y0108025D01*
X0055429Y0108162D01*
X0055451Y0108301D01*
X0055469Y0108440D01*
X0055482Y0108580D01*
X0055492Y0108720D01*
X0055498Y0108860D01*
X0055500Y0109000D01*
X0055498Y0109140D01*
X0055492Y0109280D01*
X0055482Y0109420D01*
X0055469Y0109560D01*
X0055451Y0109699D01*
X0055429Y0109838D01*
X0055404Y0109975D01*
X0055375Y0110113D01*
X0055342Y0110249D01*
X0055305Y0110384D01*
X0055264Y0110518D01*
X0055219Y0110651D01*
X0055171Y0110783D01*
X0055119Y0110913D01*
X0055064Y0111042D01*
X0055005Y0111169D01*
X0054942Y0111295D01*
X0054876Y0111419D01*
X0054807Y0111540D01*
X0054734Y0111660D01*
X0054657Y0111778D01*
X0054578Y0111893D01*
X0054495Y0112007D01*
X0054409Y0112117D01*
X0054320Y0112226D01*
X0054228Y0112332D01*
X0054133Y0112435D01*
X0054036Y0112536D01*
X0053935Y0112633D01*
X0053832Y0112728D01*
X0053726Y0112820D01*
X0053617Y0112909D01*
X0053507Y0112995D01*
X0053393Y0113078D01*
X0053278Y0113157D01*
X0053160Y0113234D01*
X0053040Y0113307D01*
X0052919Y0113376D01*
X0052795Y0113442D01*
X0052669Y0113505D01*
X0052542Y0113564D01*
X0052413Y0113619D01*
X0052283Y0113671D01*
X0052151Y0113719D01*
X0052018Y0113764D01*
X0051884Y0113805D01*
X0051749Y0113842D01*
X0051613Y0113875D01*
X0051475Y0113904D01*
X0051338Y0113929D01*
X0051199Y0113951D01*
X0051060Y0113969D01*
X0050920Y0113982D01*
X0050780Y0113992D01*
X0050640Y0113998D01*
X0050500Y0114000D01*
X0050500Y0119000D01*
X0190500Y0119000D01*
X0190500Y0099000D01*
X0051000Y0099000D01*
X0046200Y0091961D02*
X0046200Y0087691D01*
X0039795Y0087691D01*
X0040862Y0085516D02*
X0039795Y0084448D01*
X0039795Y0082313D01*
X0040862Y0081245D01*
X0045132Y0081245D01*
X0046200Y0082313D01*
X0046200Y0084448D01*
X0045132Y0085516D01*
X0046200Y0079070D02*
X0039795Y0079070D01*
X0041930Y0076935D01*
X0039795Y0074800D01*
X0046200Y0074800D01*
X0044000Y0057500D02*
X0051000Y0057500D01*
X0051060Y0057498D01*
X0051121Y0057493D01*
X0051180Y0057484D01*
X0051239Y0057471D01*
X0051298Y0057455D01*
X0051355Y0057435D01*
X0051410Y0057412D01*
X0051465Y0057385D01*
X0051517Y0057356D01*
X0051568Y0057323D01*
X0051617Y0057287D01*
X0051663Y0057249D01*
X0051707Y0057207D01*
X0051749Y0057163D01*
X0051787Y0057117D01*
X0051823Y0057068D01*
X0051856Y0057017D01*
X0051885Y0056965D01*
X0051912Y0056910D01*
X0051935Y0056855D01*
X0051955Y0056798D01*
X0051971Y0056739D01*
X0051984Y0056680D01*
X0051993Y0056621D01*
X0051998Y0056560D01*
X0052000Y0056500D01*
X0052000Y0055000D01*
X0051500Y0054500D01*
X0051500Y0035500D01*
X0052000Y0035000D01*
X0052000Y0033500D01*
X0051998Y0033440D01*
X0051993Y0033379D01*
X0051984Y0033320D01*
X0051971Y0033261D01*
X0051955Y0033202D01*
X0051935Y0033145D01*
X0051912Y0033090D01*
X0051885Y0033035D01*
X0051856Y0032983D01*
X0051823Y0032932D01*
X0051787Y0032883D01*
X0051749Y0032837D01*
X0051707Y0032793D01*
X0051663Y0032751D01*
X0051617Y0032713D01*
X0051568Y0032677D01*
X0051517Y0032644D01*
X0051465Y0032615D01*
X0051410Y0032588D01*
X0051355Y0032565D01*
X0051298Y0032545D01*
X0051239Y0032529D01*
X0051180Y0032516D01*
X0051121Y0032507D01*
X0051060Y0032502D01*
X0051000Y0032500D01*
X0044000Y0032500D01*
X0043940Y0032502D01*
X0043879Y0032507D01*
X0043820Y0032516D01*
X0043761Y0032529D01*
X0043702Y0032545D01*
X0043645Y0032565D01*
X0043590Y0032588D01*
X0043535Y0032615D01*
X0043483Y0032644D01*
X0043432Y0032677D01*
X0043383Y0032713D01*
X0043337Y0032751D01*
X0043293Y0032793D01*
X0043251Y0032837D01*
X0043213Y0032883D01*
X0043177Y0032932D01*
X0043144Y0032983D01*
X0043115Y0033035D01*
X0043088Y0033090D01*
X0043065Y0033145D01*
X0043045Y0033202D01*
X0043029Y0033261D01*
X0043016Y0033320D01*
X0043007Y0033379D01*
X0043002Y0033440D01*
X0043000Y0033500D01*
X0043000Y0035000D01*
X0043500Y0035500D01*
X0043500Y0054500D01*
X0043000Y0055000D01*
X0043000Y0056500D01*
X0043002Y0056560D01*
X0043007Y0056621D01*
X0043016Y0056680D01*
X0043029Y0056739D01*
X0043045Y0056798D01*
X0043065Y0056855D01*
X0043088Y0056910D01*
X0043115Y0056965D01*
X0043144Y0057017D01*
X0043177Y0057068D01*
X0043213Y0057117D01*
X0043251Y0057163D01*
X0043293Y0057207D01*
X0043337Y0057249D01*
X0043383Y0057287D01*
X0043432Y0057323D01*
X0043483Y0057356D01*
X0043535Y0057385D01*
X0043590Y0057412D01*
X0043645Y0057435D01*
X0043702Y0057455D01*
X0043761Y0057471D01*
X0043820Y0057484D01*
X0043879Y0057493D01*
X0043940Y0057498D01*
X0044000Y0057500D01*
X0095500Y0051500D02*
X0095500Y0078500D01*
X0095502Y0078560D01*
X0095507Y0078621D01*
X0095516Y0078680D01*
X0095529Y0078739D01*
X0095545Y0078798D01*
X0095565Y0078855D01*
X0095588Y0078910D01*
X0095615Y0078965D01*
X0095644Y0079017D01*
X0095677Y0079068D01*
X0095713Y0079117D01*
X0095751Y0079163D01*
X0095793Y0079207D01*
X0095837Y0079249D01*
X0095883Y0079287D01*
X0095932Y0079323D01*
X0095983Y0079356D01*
X0096035Y0079385D01*
X0096090Y0079412D01*
X0096145Y0079435D01*
X0096202Y0079455D01*
X0096261Y0079471D01*
X0096320Y0079484D01*
X0096379Y0079493D01*
X0096440Y0079498D01*
X0096500Y0079500D01*
X0104500Y0079500D01*
X0104560Y0079498D01*
X0104621Y0079493D01*
X0104680Y0079484D01*
X0104739Y0079471D01*
X0104798Y0079455D01*
X0104855Y0079435D01*
X0104910Y0079412D01*
X0104965Y0079385D01*
X0105017Y0079356D01*
X0105068Y0079323D01*
X0105117Y0079287D01*
X0105163Y0079249D01*
X0105207Y0079207D01*
X0105249Y0079163D01*
X0105287Y0079117D01*
X0105323Y0079068D01*
X0105356Y0079017D01*
X0105385Y0078965D01*
X0105412Y0078910D01*
X0105435Y0078855D01*
X0105455Y0078798D01*
X0105471Y0078739D01*
X0105484Y0078680D01*
X0105493Y0078621D01*
X0105498Y0078560D01*
X0105500Y0078500D01*
X0105500Y0051500D01*
X0105498Y0051440D01*
X0105493Y0051379D01*
X0105484Y0051320D01*
X0105471Y0051261D01*
X0105455Y0051202D01*
X0105435Y0051145D01*
X0105412Y0051090D01*
X0105385Y0051035D01*
X0105356Y0050983D01*
X0105323Y0050932D01*
X0105287Y0050883D01*
X0105249Y0050837D01*
X0105207Y0050793D01*
X0105163Y0050751D01*
X0105117Y0050713D01*
X0105068Y0050677D01*
X0105017Y0050644D01*
X0104965Y0050615D01*
X0104910Y0050588D01*
X0104855Y0050565D01*
X0104798Y0050545D01*
X0104739Y0050529D01*
X0104680Y0050516D01*
X0104621Y0050507D01*
X0104560Y0050502D01*
X0104500Y0050500D01*
X0096500Y0050500D01*
X0096440Y0050502D01*
X0096379Y0050507D01*
X0096320Y0050516D01*
X0096261Y0050529D01*
X0096202Y0050545D01*
X0096145Y0050565D01*
X0096090Y0050588D01*
X0096035Y0050615D01*
X0095983Y0050644D01*
X0095932Y0050677D01*
X0095883Y0050713D01*
X0095837Y0050751D01*
X0095793Y0050793D01*
X0095751Y0050837D01*
X0095713Y0050883D01*
X0095677Y0050932D01*
X0095644Y0050983D01*
X0095615Y0051035D01*
X0095588Y0051090D01*
X0095565Y0051145D01*
X0095545Y0051202D01*
X0095529Y0051261D01*
X0095516Y0051320D01*
X0095507Y0051379D01*
X0095502Y0051440D01*
X0095500Y0051500D01*
X0100500Y0059000D02*
X0100500Y0063800D01*
X0100500Y0066300D02*
X0100500Y0071000D01*
X0127000Y0069000D02*
X0154000Y0069000D01*
X0154219Y0068997D01*
X0154438Y0068989D01*
X0154657Y0068976D01*
X0154875Y0068957D01*
X0155093Y0068933D01*
X0155310Y0068904D01*
X0155527Y0068870D01*
X0155742Y0068830D01*
X0155957Y0068785D01*
X0156170Y0068734D01*
X0156382Y0068679D01*
X0156593Y0068618D01*
X0156802Y0068553D01*
X0157009Y0068482D01*
X0157215Y0068406D01*
X0157419Y0068325D01*
X0157621Y0068240D01*
X0157820Y0068149D01*
X0158017Y0068054D01*
X0158212Y0067953D01*
X0158405Y0067848D01*
X0158595Y0067739D01*
X0158782Y0067625D01*
X0158966Y0067506D01*
X0159147Y0067383D01*
X0159325Y0067255D01*
X0159501Y0067123D01*
X0159672Y0066987D01*
X0159841Y0066847D01*
X0160006Y0066703D01*
X0160167Y0066555D01*
X0160325Y0066403D01*
X0160479Y0066247D01*
X0160629Y0066087D01*
X0160776Y0065924D01*
X0160918Y0065757D01*
X0161056Y0065587D01*
X0161190Y0065413D01*
X0161320Y0065237D01*
X0161445Y0065057D01*
X0161566Y0064874D01*
X0161682Y0064688D01*
X0161794Y0064500D01*
X0161901Y0064309D01*
X0162004Y0064115D01*
X0162102Y0063919D01*
X0162195Y0063721D01*
X0162283Y0063520D01*
X0162366Y0063317D01*
X0162445Y0063112D01*
X0162518Y0062906D01*
X0162586Y0062698D01*
X0162649Y0062488D01*
X0162707Y0062276D01*
X0162760Y0062064D01*
X0162808Y0061850D01*
X0162850Y0061635D01*
X0162887Y0061419D01*
X0162919Y0061202D01*
X0162946Y0060984D01*
X0162967Y0060766D01*
X0162983Y0060548D01*
X0162994Y0060329D01*
X0162999Y0060110D01*
X0162999Y0059890D01*
X0162994Y0059671D01*
X0162983Y0059452D01*
X0162967Y0059234D01*
X0162946Y0059016D01*
X0162919Y0058798D01*
X0162887Y0058581D01*
X0162850Y0058365D01*
X0162808Y0058150D01*
X0162760Y0057936D01*
X0162707Y0057724D01*
X0162649Y0057512D01*
X0162586Y0057302D01*
X0162518Y0057094D01*
X0162445Y0056888D01*
X0162366Y0056683D01*
X0162283Y0056480D01*
X0162195Y0056279D01*
X0162102Y0056081D01*
X0162004Y0055885D01*
X0161901Y0055691D01*
X0161794Y0055500D01*
X0161682Y0055312D01*
X0161566Y0055126D01*
X0161445Y0054943D01*
X0161320Y0054763D01*
X0161190Y0054587D01*
X0161056Y0054413D01*
X0160918Y0054243D01*
X0160776Y0054076D01*
X0160629Y0053913D01*
X0160479Y0053753D01*
X0160325Y0053597D01*
X0160167Y0053445D01*
X0160006Y0053297D01*
X0159841Y0053153D01*
X0159672Y0053013D01*
X0159501Y0052877D01*
X0159325Y0052745D01*
X0159147Y0052617D01*
X0158966Y0052494D01*
X0158782Y0052375D01*
X0158595Y0052261D01*
X0158405Y0052152D01*
X0158212Y0052047D01*
X0158017Y0051946D01*
X0157820Y0051851D01*
X0157621Y0051760D01*
X0157419Y0051675D01*
X0157215Y0051594D01*
X0157009Y0051518D01*
X0156802Y0051447D01*
X0156593Y0051382D01*
X0156382Y0051321D01*
X0156170Y0051266D01*
X0155957Y0051215D01*
X0155742Y0051170D01*
X0155527Y0051130D01*
X0155310Y0051096D01*
X0155093Y0051067D01*
X0154875Y0051043D01*
X0154657Y0051024D01*
X0154438Y0051011D01*
X0154219Y0051003D01*
X0154000Y0051000D01*
X0127000Y0051000D01*
X0125500Y0044000D02*
X0135500Y0044000D01*
X0135560Y0043998D01*
X0135621Y0043993D01*
X0135680Y0043984D01*
X0135739Y0043971D01*
X0135798Y0043955D01*
X0135855Y0043935D01*
X0135910Y0043912D01*
X0135965Y0043885D01*
X0136017Y0043856D01*
X0136068Y0043823D01*
X0136117Y0043787D01*
X0136163Y0043749D01*
X0136207Y0043707D01*
X0136249Y0043663D01*
X0136287Y0043617D01*
X0136323Y0043568D01*
X0136356Y0043517D01*
X0136385Y0043465D01*
X0136412Y0043410D01*
X0136435Y0043355D01*
X0136455Y0043298D01*
X0136471Y0043239D01*
X0136484Y0043180D01*
X0136493Y0043121D01*
X0136498Y0043060D01*
X0136500Y0043000D01*
X0136500Y0026000D01*
X0136498Y0025940D01*
X0136493Y0025879D01*
X0136484Y0025820D01*
X0136471Y0025761D01*
X0136455Y0025702D01*
X0136435Y0025645D01*
X0136412Y0025590D01*
X0136385Y0025535D01*
X0136356Y0025483D01*
X0136323Y0025432D01*
X0136287Y0025383D01*
X0136249Y0025337D01*
X0136207Y0025293D01*
X0136163Y0025251D01*
X0136117Y0025213D01*
X0136068Y0025177D01*
X0136017Y0025144D01*
X0135965Y0025115D01*
X0135910Y0025088D01*
X0135855Y0025065D01*
X0135798Y0025045D01*
X0135739Y0025029D01*
X0135680Y0025016D01*
X0135621Y0025007D01*
X0135560Y0025002D01*
X0135500Y0025000D01*
X0125500Y0025000D01*
X0125440Y0025002D01*
X0125379Y0025007D01*
X0125320Y0025016D01*
X0125261Y0025029D01*
X0125202Y0025045D01*
X0125145Y0025065D01*
X0125090Y0025088D01*
X0125035Y0025115D01*
X0124983Y0025144D01*
X0124932Y0025177D01*
X0124883Y0025213D01*
X0124837Y0025251D01*
X0124793Y0025293D01*
X0124751Y0025337D01*
X0124713Y0025383D01*
X0124677Y0025432D01*
X0124644Y0025483D01*
X0124615Y0025535D01*
X0124588Y0025590D01*
X0124565Y0025645D01*
X0124545Y0025702D01*
X0124529Y0025761D01*
X0124516Y0025820D01*
X0124507Y0025879D01*
X0124502Y0025940D01*
X0124500Y0026000D01*
X0124500Y0043000D01*
X0124502Y0043060D01*
X0124507Y0043121D01*
X0124516Y0043180D01*
X0124529Y0043239D01*
X0124545Y0043298D01*
X0124565Y0043355D01*
X0124588Y0043410D01*
X0124615Y0043465D01*
X0124644Y0043517D01*
X0124677Y0043568D01*
X0124713Y0043617D01*
X0124751Y0043663D01*
X0124793Y0043707D01*
X0124837Y0043749D01*
X0124883Y0043787D01*
X0124932Y0043823D01*
X0124983Y0043856D01*
X0125035Y0043885D01*
X0125090Y0043912D01*
X0125145Y0043935D01*
X0125202Y0043955D01*
X0125261Y0043971D01*
X0125320Y0043984D01*
X0125379Y0043993D01*
X0125440Y0043998D01*
X0125500Y0044000D01*
X0130500Y0036000D02*
X0130500Y0035500D01*
X0130500Y0033500D02*
X0130500Y0033000D01*
X0144500Y0026000D02*
X0144500Y0043000D01*
X0144502Y0043060D01*
X0144507Y0043121D01*
X0144516Y0043180D01*
X0144529Y0043239D01*
X0144545Y0043298D01*
X0144565Y0043355D01*
X0144588Y0043410D01*
X0144615Y0043465D01*
X0144644Y0043517D01*
X0144677Y0043568D01*
X0144713Y0043617D01*
X0144751Y0043663D01*
X0144793Y0043707D01*
X0144837Y0043749D01*
X0144883Y0043787D01*
X0144932Y0043823D01*
X0144983Y0043856D01*
X0145035Y0043885D01*
X0145090Y0043912D01*
X0145145Y0043935D01*
X0145202Y0043955D01*
X0145261Y0043971D01*
X0145320Y0043984D01*
X0145379Y0043993D01*
X0145440Y0043998D01*
X0145500Y0044000D01*
X0155500Y0044000D01*
X0155560Y0043998D01*
X0155621Y0043993D01*
X0155680Y0043984D01*
X0155739Y0043971D01*
X0155798Y0043955D01*
X0155855Y0043935D01*
X0155910Y0043912D01*
X0155965Y0043885D01*
X0156017Y0043856D01*
X0156068Y0043823D01*
X0156117Y0043787D01*
X0156163Y0043749D01*
X0156207Y0043707D01*
X0156249Y0043663D01*
X0156287Y0043617D01*
X0156323Y0043568D01*
X0156356Y0043517D01*
X0156385Y0043465D01*
X0156412Y0043410D01*
X0156435Y0043355D01*
X0156455Y0043298D01*
X0156471Y0043239D01*
X0156484Y0043180D01*
X0156493Y0043121D01*
X0156498Y0043060D01*
X0156500Y0043000D01*
X0156500Y0026000D01*
X0156498Y0025940D01*
X0156493Y0025879D01*
X0156484Y0025820D01*
X0156471Y0025761D01*
X0156455Y0025702D01*
X0156435Y0025645D01*
X0156412Y0025590D01*
X0156385Y0025535D01*
X0156356Y0025483D01*
X0156323Y0025432D01*
X0156287Y0025383D01*
X0156249Y0025337D01*
X0156207Y0025293D01*
X0156163Y0025251D01*
X0156117Y0025213D01*
X0156068Y0025177D01*
X0156017Y0025144D01*
X0155965Y0025115D01*
X0155910Y0025088D01*
X0155855Y0025065D01*
X0155798Y0025045D01*
X0155739Y0025029D01*
X0155680Y0025016D01*
X0155621Y0025007D01*
X0155560Y0025002D01*
X0155500Y0025000D01*
X0145500Y0025000D01*
X0145440Y0025002D01*
X0145379Y0025007D01*
X0145320Y0025016D01*
X0145261Y0025029D01*
X0145202Y0025045D01*
X0145145Y0025065D01*
X0145090Y0025088D01*
X0145035Y0025115D01*
X0144983Y0025144D01*
X0144932Y0025177D01*
X0144883Y0025213D01*
X0144837Y0025251D01*
X0144793Y0025293D01*
X0144751Y0025337D01*
X0144713Y0025383D01*
X0144677Y0025432D01*
X0144644Y0025483D01*
X0144615Y0025535D01*
X0144588Y0025590D01*
X0144565Y0025645D01*
X0144545Y0025702D01*
X0144529Y0025761D01*
X0144516Y0025820D01*
X0144507Y0025879D01*
X0144502Y0025940D01*
X0144500Y0026000D01*
X0150500Y0033000D02*
X0150500Y0033500D01*
X0150500Y0035500D02*
X0150500Y0036000D01*
X0127000Y0051000D02*
X0126781Y0051003D01*
X0126562Y0051011D01*
X0126343Y0051024D01*
X0126125Y0051043D01*
X0125907Y0051067D01*
X0125690Y0051096D01*
X0125473Y0051130D01*
X0125258Y0051170D01*
X0125043Y0051215D01*
X0124830Y0051266D01*
X0124618Y0051321D01*
X0124407Y0051382D01*
X0124198Y0051447D01*
X0123991Y0051518D01*
X0123785Y0051594D01*
X0123581Y0051675D01*
X0123379Y0051760D01*
X0123180Y0051851D01*
X0122983Y0051946D01*
X0122788Y0052047D01*
X0122595Y0052152D01*
X0122405Y0052261D01*
X0122218Y0052375D01*
X0122034Y0052494D01*
X0121853Y0052617D01*
X0121675Y0052745D01*
X0121499Y0052877D01*
X0121328Y0053013D01*
X0121159Y0053153D01*
X0120994Y0053297D01*
X0120833Y0053445D01*
X0120675Y0053597D01*
X0120521Y0053753D01*
X0120371Y0053913D01*
X0120224Y0054076D01*
X0120082Y0054243D01*
X0119944Y0054413D01*
X0119810Y0054587D01*
X0119680Y0054763D01*
X0119555Y0054943D01*
X0119434Y0055126D01*
X0119318Y0055312D01*
X0119206Y0055500D01*
X0119099Y0055691D01*
X0118996Y0055885D01*
X0118898Y0056081D01*
X0118805Y0056279D01*
X0118717Y0056480D01*
X0118634Y0056683D01*
X0118555Y0056888D01*
X0118482Y0057094D01*
X0118414Y0057302D01*
X0118351Y0057512D01*
X0118293Y0057724D01*
X0118240Y0057936D01*
X0118192Y0058150D01*
X0118150Y0058365D01*
X0118113Y0058581D01*
X0118081Y0058798D01*
X0118054Y0059016D01*
X0118033Y0059234D01*
X0118017Y0059452D01*
X0118006Y0059671D01*
X0118001Y0059890D01*
X0118001Y0060110D01*
X0118006Y0060329D01*
X0118017Y0060548D01*
X0118033Y0060766D01*
X0118054Y0060984D01*
X0118081Y0061202D01*
X0118113Y0061419D01*
X0118150Y0061635D01*
X0118192Y0061850D01*
X0118240Y0062064D01*
X0118293Y0062276D01*
X0118351Y0062488D01*
X0118414Y0062698D01*
X0118482Y0062906D01*
X0118555Y0063112D01*
X0118634Y0063317D01*
X0118717Y0063520D01*
X0118805Y0063721D01*
X0118898Y0063919D01*
X0118996Y0064115D01*
X0119099Y0064309D01*
X0119206Y0064500D01*
X0119318Y0064688D01*
X0119434Y0064874D01*
X0119555Y0065057D01*
X0119680Y0065237D01*
X0119810Y0065413D01*
X0119944Y0065587D01*
X0120082Y0065757D01*
X0120224Y0065924D01*
X0120371Y0066087D01*
X0120521Y0066247D01*
X0120675Y0066403D01*
X0120833Y0066555D01*
X0120994Y0066703D01*
X0121159Y0066847D01*
X0121328Y0066987D01*
X0121499Y0067123D01*
X0121675Y0067255D01*
X0121853Y0067383D01*
X0122034Y0067506D01*
X0122218Y0067625D01*
X0122405Y0067739D01*
X0122595Y0067848D01*
X0122788Y0067953D01*
X0122983Y0068054D01*
X0123180Y0068149D01*
X0123379Y0068240D01*
X0123581Y0068325D01*
X0123785Y0068406D01*
X0123991Y0068482D01*
X0124198Y0068553D01*
X0124407Y0068618D01*
X0124618Y0068679D01*
X0124830Y0068734D01*
X0125043Y0068785D01*
X0125258Y0068830D01*
X0125473Y0068870D01*
X0125690Y0068904D01*
X0125907Y0068933D01*
X0126125Y0068957D01*
X0126343Y0068976D01*
X0126562Y0068989D01*
X0126781Y0068997D01*
X0127000Y0069000D01*
X0132000Y0137500D02*
X0159000Y0137500D01*
X0159060Y0137502D01*
X0159121Y0137507D01*
X0159180Y0137516D01*
X0159239Y0137529D01*
X0159298Y0137545D01*
X0159355Y0137565D01*
X0159410Y0137588D01*
X0159465Y0137615D01*
X0159517Y0137644D01*
X0159568Y0137677D01*
X0159617Y0137713D01*
X0159663Y0137751D01*
X0159707Y0137793D01*
X0159749Y0137837D01*
X0159787Y0137883D01*
X0159823Y0137932D01*
X0159856Y0137983D01*
X0159885Y0138035D01*
X0159912Y0138090D01*
X0159935Y0138145D01*
X0159955Y0138202D01*
X0159971Y0138261D01*
X0159984Y0138320D01*
X0159993Y0138379D01*
X0159998Y0138440D01*
X0160000Y0138500D01*
X0160000Y0146500D01*
X0159998Y0146560D01*
X0159993Y0146621D01*
X0159984Y0146680D01*
X0159971Y0146739D01*
X0159955Y0146798D01*
X0159935Y0146855D01*
X0159912Y0146910D01*
X0159885Y0146965D01*
X0159856Y0147017D01*
X0159823Y0147068D01*
X0159787Y0147117D01*
X0159749Y0147163D01*
X0159707Y0147207D01*
X0159663Y0147249D01*
X0159617Y0147287D01*
X0159568Y0147323D01*
X0159517Y0147356D01*
X0159465Y0147385D01*
X0159410Y0147412D01*
X0159355Y0147435D01*
X0159298Y0147455D01*
X0159239Y0147471D01*
X0159180Y0147484D01*
X0159121Y0147493D01*
X0159060Y0147498D01*
X0159000Y0147500D01*
X0132000Y0147500D01*
X0131940Y0147498D01*
X0131879Y0147493D01*
X0131820Y0147484D01*
X0131761Y0147471D01*
X0131702Y0147455D01*
X0131645Y0147435D01*
X0131590Y0147412D01*
X0131535Y0147385D01*
X0131483Y0147356D01*
X0131432Y0147323D01*
X0131383Y0147287D01*
X0131337Y0147249D01*
X0131293Y0147207D01*
X0131251Y0147163D01*
X0131213Y0147117D01*
X0131177Y0147068D01*
X0131144Y0147017D01*
X0131115Y0146965D01*
X0131088Y0146910D01*
X0131065Y0146855D01*
X0131045Y0146798D01*
X0131029Y0146739D01*
X0131016Y0146680D01*
X0131007Y0146621D01*
X0131002Y0146560D01*
X0131000Y0146500D01*
X0131000Y0138500D01*
X0131002Y0138440D01*
X0131007Y0138379D01*
X0131016Y0138320D01*
X0131029Y0138261D01*
X0131045Y0138202D01*
X0131065Y0138145D01*
X0131088Y0138090D01*
X0131115Y0138035D01*
X0131144Y0137983D01*
X0131177Y0137932D01*
X0131213Y0137883D01*
X0131251Y0137837D01*
X0131293Y0137793D01*
X0131337Y0137751D01*
X0131383Y0137713D01*
X0131432Y0137677D01*
X0131483Y0137644D01*
X0131535Y0137615D01*
X0131590Y0137588D01*
X0131645Y0137565D01*
X0131702Y0137545D01*
X0131761Y0137529D01*
X0131820Y0137516D01*
X0131879Y0137507D01*
X0131940Y0137502D01*
X0132000Y0137500D01*
X0139500Y0142500D02*
X0144300Y0142500D01*
X0146800Y0142500D02*
X0151500Y0142500D01*
X0152300Y0155800D02*
X0152300Y0163080D01*
X0153513Y0160653D02*
X0152300Y0159440D01*
X0153513Y0160653D02*
X0155940Y0160653D01*
X0157153Y0159440D01*
X0157153Y0155800D01*
X0160764Y0157013D02*
X0161977Y0155800D01*
X0160764Y0157013D02*
X0160764Y0161867D01*
X0159550Y0160653D02*
X0161977Y0160653D01*
X0164384Y0160653D02*
X0166811Y0160653D01*
X0165597Y0161867D02*
X0165597Y0157013D01*
X0166811Y0155800D01*
X0169217Y0155800D02*
X0172857Y0155800D01*
X0174071Y0157013D01*
X0174071Y0159440D01*
X0172857Y0160653D01*
X0169217Y0160653D01*
X0169217Y0153373D01*
X0176468Y0155800D02*
X0180108Y0155800D01*
X0181321Y0157013D01*
X0180108Y0158227D01*
X0177681Y0158227D01*
X0176468Y0159440D01*
X0177681Y0160653D01*
X0181321Y0160653D01*
X0183718Y0160653D02*
X0183718Y0159440D01*
X0184931Y0159440D01*
X0184931Y0160653D01*
X0183718Y0160653D01*
X0183718Y0157013D02*
X0183718Y0155800D01*
X0184931Y0155800D01*
X0184931Y0157013D01*
X0183718Y0157013D01*
X0187343Y0155800D02*
X0192197Y0163080D01*
X0192192Y0167611D02*
X0188551Y0167611D01*
X0188551Y0174891D01*
X0188551Y0172465D02*
X0192192Y0172465D01*
X0193405Y0171251D01*
X0193405Y0168824D01*
X0192192Y0167611D01*
X0195802Y0168824D02*
X0195802Y0171251D01*
X0197015Y0172465D01*
X0199442Y0172465D01*
X0200655Y0171251D01*
X0200655Y0168824D01*
X0199442Y0167611D01*
X0197015Y0167611D01*
X0195802Y0168824D01*
X0199447Y0163080D02*
X0194593Y0155800D01*
X0201844Y0157013D02*
X0201844Y0159440D01*
X0203057Y0160653D01*
X0206697Y0160653D01*
X0206697Y0154587D01*
X0205484Y0153373D01*
X0204270Y0153373D01*
X0203057Y0155800D02*
X0206697Y0155800D01*
X0209094Y0155800D02*
X0211521Y0155800D01*
X0210307Y0155800D02*
X0210307Y0160653D01*
X0209094Y0160653D01*
X0210307Y0163080D02*
X0210307Y0164294D01*
X0206692Y0167611D02*
X0207905Y0168824D01*
X0206692Y0170038D01*
X0204265Y0170038D01*
X0203052Y0171251D01*
X0204265Y0172465D01*
X0207905Y0172465D01*
X0206692Y0167611D02*
X0203052Y0167611D01*
X0213927Y0160653D02*
X0216354Y0160653D01*
X0215141Y0161867D02*
X0215141Y0157013D01*
X0216354Y0155800D01*
X0218761Y0155800D02*
X0218761Y0163080D01*
X0219974Y0160653D02*
X0222401Y0160653D01*
X0223614Y0159440D01*
X0223614Y0155800D01*
X0226011Y0157013D02*
X0227225Y0155800D01*
X0230865Y0155800D01*
X0230865Y0160653D01*
X0233262Y0160653D02*
X0236902Y0160653D01*
X0238115Y0159440D01*
X0238115Y0157013D01*
X0236902Y0155800D01*
X0233262Y0155800D01*
X0233262Y0163080D01*
X0233266Y0167611D02*
X0232053Y0168824D01*
X0232053Y0172465D01*
X0229656Y0171251D02*
X0228443Y0172465D01*
X0226016Y0172465D01*
X0224803Y0171251D01*
X0224803Y0168824D01*
X0226016Y0167611D01*
X0228443Y0167611D01*
X0229656Y0168824D01*
X0229656Y0171251D01*
X0233266Y0167611D02*
X0236907Y0167611D01*
X0236907Y0172465D01*
X0239303Y0171251D02*
X0240517Y0172465D01*
X0244157Y0172465D01*
X0242944Y0170038D02*
X0240517Y0170038D01*
X0239303Y0171251D01*
X0239303Y0167611D02*
X0242944Y0167611D01*
X0244157Y0168824D01*
X0242944Y0170038D01*
X0246554Y0168824D02*
X0247767Y0170038D01*
X0251407Y0170038D01*
X0251407Y0171251D02*
X0251407Y0167611D01*
X0247767Y0167611D01*
X0246554Y0168824D01*
X0247767Y0172465D02*
X0250194Y0172465D01*
X0251407Y0171251D01*
X0252601Y0160653D02*
X0251387Y0159440D01*
X0251387Y0157013D01*
X0252601Y0155800D01*
X0255027Y0155800D01*
X0256241Y0157013D01*
X0256241Y0159440D01*
X0255027Y0160653D01*
X0252601Y0160653D01*
X0248990Y0160653D02*
X0245350Y0160653D01*
X0244137Y0159440D01*
X0244137Y0157013D01*
X0245350Y0155800D01*
X0248990Y0155800D01*
X0241725Y0155800D02*
X0240512Y0155800D01*
X0240512Y0157013D01*
X0241725Y0157013D01*
X0241725Y0155800D01*
X0226011Y0157013D02*
X0226011Y0160653D01*
X0219974Y0160653D02*
X0218761Y0159440D01*
X0217553Y0167611D02*
X0217553Y0174891D01*
X0217553Y0171251D02*
X0222406Y0171251D01*
X0222406Y0174891D02*
X0222406Y0167611D01*
X0205489Y0178209D02*
X0204275Y0176995D01*
X0203062Y0176995D01*
X0205489Y0178209D02*
X0205489Y0184276D01*
X0200635Y0184276D02*
X0200635Y0180635D01*
X0201849Y0179422D01*
X0205489Y0179422D01*
X0198238Y0179422D02*
X0194598Y0179422D01*
X0193385Y0180635D01*
X0194598Y0181849D01*
X0198238Y0181849D01*
X0198238Y0183062D02*
X0198238Y0179422D01*
X0198238Y0183062D02*
X0197025Y0184276D01*
X0194598Y0184276D01*
X0189765Y0186702D02*
X0189765Y0179422D01*
X0190978Y0179422D02*
X0188551Y0179422D01*
X0186155Y0181849D02*
X0181301Y0181849D01*
X0181301Y0183062D02*
X0181301Y0180635D01*
X0182514Y0179422D01*
X0184941Y0179422D01*
X0186155Y0181849D02*
X0186155Y0183062D01*
X0184941Y0184276D01*
X0182514Y0184276D01*
X0181301Y0183062D01*
X0178904Y0183062D02*
X0177691Y0181849D01*
X0174051Y0181849D01*
X0176478Y0181849D02*
X0178904Y0179422D01*
X0178904Y0183062D02*
X0178904Y0185489D01*
X0177691Y0186702D01*
X0174051Y0186702D01*
X0174051Y0179422D01*
X0171654Y0179422D02*
X0171654Y0183062D01*
X0170441Y0184276D01*
X0166801Y0184276D01*
X0166801Y0179422D01*
X0164404Y0179422D02*
X0160764Y0179422D01*
X0159550Y0180635D01*
X0160764Y0181849D01*
X0164404Y0181849D01*
X0164404Y0183062D02*
X0164404Y0179422D01*
X0164404Y0183062D02*
X0163190Y0184276D01*
X0160764Y0184276D01*
X0157153Y0185489D02*
X0155940Y0186702D01*
X0153513Y0186702D01*
X0152300Y0185489D01*
X0152300Y0180635D01*
X0153513Y0179422D01*
X0155940Y0179422D01*
X0157153Y0180635D01*
X0155940Y0174891D02*
X0152300Y0174891D01*
X0152300Y0167611D01*
X0155940Y0167611D01*
X0157153Y0168824D01*
X0157153Y0170038D01*
X0155940Y0171251D01*
X0152300Y0171251D01*
X0155940Y0171251D02*
X0157153Y0172465D01*
X0157153Y0173678D01*
X0155940Y0174891D01*
X0159550Y0172465D02*
X0159550Y0168824D01*
X0160764Y0167611D01*
X0164404Y0167611D01*
X0164404Y0166398D02*
X0163190Y0165184D01*
X0161977Y0165184D01*
X0164404Y0166398D02*
X0164404Y0172465D01*
X0174051Y0174891D02*
X0174051Y0167611D01*
X0178904Y0167611D01*
X0181301Y0168824D02*
X0182514Y0167611D01*
X0186155Y0167611D01*
X0186155Y0172465D01*
X0181301Y0172465D02*
X0181301Y0168824D01*
X0201844Y0157013D02*
X0203057Y0155800D01*
X0228700Y0131016D02*
X0228700Y0126745D01*
X0228700Y0128881D02*
X0222295Y0128881D01*
X0224430Y0126745D01*
X0224430Y0124570D02*
X0223362Y0124570D01*
X0222295Y0123503D01*
X0222295Y0121368D01*
X0223362Y0120300D01*
X0223000Y0118000D02*
X0228000Y0118000D01*
X0230500Y0115500D01*
X0230500Y0100500D01*
X0233000Y0098000D01*
X0238000Y0098000D01*
X0240500Y0100500D01*
X0240500Y0115500D01*
X0243000Y0118000D01*
X0248000Y0118000D01*
X0250500Y0115500D01*
X0250500Y0100500D01*
X0253000Y0098000D01*
X0258000Y0098000D01*
X0260500Y0100500D01*
X0260500Y0115500D01*
X0263000Y0118000D01*
X0268000Y0118000D01*
X0270500Y0115500D01*
X0270500Y0100500D01*
X0273000Y0098000D01*
X0278000Y0098000D01*
X0280500Y0100500D01*
X0280500Y0115500D01*
X0283000Y0118000D01*
X0288000Y0118000D01*
X0290500Y0115500D01*
X0290500Y0100500D01*
X0288000Y0098000D01*
X0283000Y0098000D01*
X0280500Y0100500D01*
X0283362Y0095070D02*
X0284430Y0095070D01*
X0285497Y0094003D01*
X0286565Y0095070D01*
X0287632Y0095070D01*
X0288700Y0094003D01*
X0288700Y0091868D01*
X0287632Y0090800D01*
X0285497Y0092935D02*
X0285497Y0094003D01*
X0283362Y0095070D02*
X0282295Y0094003D01*
X0282295Y0091868D01*
X0283362Y0090800D01*
X0279200Y0094003D02*
X0272795Y0094003D01*
X0275997Y0090800D01*
X0275997Y0095070D01*
X0268700Y0094003D02*
X0268700Y0091868D01*
X0267632Y0090800D01*
X0265497Y0090800D01*
X0265497Y0094003D01*
X0266565Y0095070D01*
X0267632Y0095070D01*
X0268700Y0094003D01*
X0268000Y0098000D02*
X0263000Y0098000D01*
X0260500Y0100500D01*
X0262295Y0095070D02*
X0263362Y0092935D01*
X0265497Y0090800D01*
X0258700Y0090070D02*
X0258700Y0085800D01*
X0258700Y0087935D02*
X0252295Y0087935D01*
X0254430Y0085800D01*
X0248200Y0085800D02*
X0248200Y0090070D01*
X0248200Y0087935D02*
X0241795Y0087935D01*
X0243930Y0085800D01*
X0238200Y0086300D02*
X0238200Y0090570D01*
X0238200Y0088435D02*
X0231795Y0088435D01*
X0233930Y0086300D01*
X0228200Y0086300D02*
X0223930Y0090570D01*
X0222862Y0090570D01*
X0221795Y0089503D01*
X0221795Y0087368D01*
X0222862Y0086300D01*
X0228200Y0086300D02*
X0228200Y0090570D01*
X0227132Y0092745D02*
X0222862Y0092745D01*
X0221795Y0093813D01*
X0221795Y0095948D01*
X0222862Y0097016D01*
X0227132Y0092745D01*
X0228200Y0093813D01*
X0228200Y0095948D01*
X0227132Y0097016D01*
X0222862Y0097016D01*
X0223000Y0098000D02*
X0228000Y0098000D01*
X0230500Y0100500D01*
X0232862Y0097016D02*
X0231795Y0095948D01*
X0231795Y0093813D01*
X0232862Y0092745D01*
X0233930Y0092745D01*
X0234997Y0093813D01*
X0234997Y0097016D01*
X0237132Y0097016D02*
X0232862Y0097016D01*
X0237132Y0097016D02*
X0238200Y0095948D01*
X0238200Y0093813D01*
X0237132Y0092745D01*
X0241795Y0093313D02*
X0241795Y0095448D01*
X0242862Y0096516D01*
X0243930Y0096516D01*
X0244997Y0095448D01*
X0244997Y0093313D01*
X0243930Y0092245D01*
X0242862Y0092245D01*
X0241795Y0093313D01*
X0244997Y0093313D02*
X0246065Y0092245D01*
X0247132Y0092245D01*
X0248200Y0093313D01*
X0248200Y0095448D01*
X0247132Y0096516D01*
X0246065Y0096516D01*
X0244997Y0095448D01*
X0243000Y0098000D02*
X0248000Y0098000D01*
X0250500Y0100500D01*
X0252295Y0096516D02*
X0253362Y0096516D01*
X0257632Y0092245D01*
X0258700Y0092245D01*
X0252295Y0092245D02*
X0252295Y0096516D01*
X0243000Y0098000D02*
X0240500Y0100500D01*
X0223000Y0098000D02*
X0220500Y0100500D01*
X0220500Y0115500D01*
X0223000Y0118000D01*
X0228700Y0120300D02*
X0224430Y0124570D01*
X0228700Y0124570D02*
X0228700Y0120300D01*
X0232295Y0120868D02*
X0232295Y0123003D01*
X0233362Y0124070D01*
X0234430Y0124070D01*
X0238700Y0119800D01*
X0238700Y0124070D01*
X0238700Y0126245D02*
X0234430Y0130516D01*
X0233362Y0130516D01*
X0232295Y0129448D01*
X0232295Y0127313D01*
X0233362Y0126245D01*
X0238700Y0126245D02*
X0238700Y0130516D01*
X0241795Y0129448D02*
X0242862Y0130516D01*
X0243930Y0130516D01*
X0244997Y0129448D01*
X0246065Y0130516D01*
X0247132Y0130516D01*
X0248200Y0129448D01*
X0248200Y0127313D01*
X0247132Y0126245D01*
X0248200Y0124070D02*
X0248200Y0119800D01*
X0243930Y0124070D01*
X0242862Y0124070D01*
X0241795Y0123003D01*
X0241795Y0120868D01*
X0242862Y0119800D01*
X0240500Y0115500D02*
X0238000Y0118000D01*
X0233000Y0118000D01*
X0230500Y0115500D01*
X0233362Y0119800D02*
X0232295Y0120868D01*
X0241795Y0127313D02*
X0241795Y0129448D01*
X0241795Y0127313D02*
X0242862Y0126245D01*
X0244997Y0128381D02*
X0244997Y0129448D01*
X0252295Y0129448D02*
X0255497Y0126245D01*
X0255497Y0130516D01*
X0252295Y0129448D02*
X0258700Y0129448D01*
X0258700Y0124070D02*
X0258700Y0119800D01*
X0254430Y0124070D01*
X0253362Y0124070D01*
X0252295Y0123003D01*
X0252295Y0120868D01*
X0253362Y0119800D01*
X0253000Y0118000D02*
X0258000Y0118000D01*
X0260500Y0115500D01*
X0262862Y0120300D02*
X0263930Y0120300D01*
X0264997Y0121368D01*
X0264997Y0124570D01*
X0262862Y0124570D02*
X0261795Y0123503D01*
X0261795Y0121368D01*
X0262862Y0120300D01*
X0262862Y0124570D02*
X0267132Y0124570D01*
X0268200Y0123503D01*
X0268200Y0121368D01*
X0267132Y0120300D01*
X0271795Y0121435D02*
X0278200Y0121435D01*
X0278200Y0119300D02*
X0278200Y0123570D01*
X0277132Y0125745D02*
X0272862Y0125745D01*
X0271795Y0126813D01*
X0271795Y0128948D01*
X0272862Y0130016D01*
X0277132Y0125745D01*
X0278200Y0126813D01*
X0278200Y0128948D01*
X0277132Y0130016D01*
X0272862Y0130016D01*
X0282295Y0128948D02*
X0282295Y0126813D01*
X0283362Y0125745D01*
X0285497Y0127881D02*
X0285497Y0128948D01*
X0286565Y0130016D01*
X0287632Y0130016D01*
X0288700Y0128948D01*
X0288700Y0126813D01*
X0287632Y0125745D01*
X0288700Y0123570D02*
X0288700Y0119300D01*
X0288700Y0121435D02*
X0282295Y0121435D01*
X0284430Y0119300D01*
X0280500Y0115500D02*
X0278000Y0118000D01*
X0273000Y0118000D01*
X0270500Y0115500D01*
X0273930Y0119300D02*
X0271795Y0121435D01*
X0282295Y0128948D02*
X0283362Y0130016D01*
X0284430Y0130016D01*
X0285497Y0128948D01*
X0292295Y0128948D02*
X0295497Y0125745D01*
X0295497Y0130016D01*
X0292295Y0128948D02*
X0298700Y0128948D01*
X0302295Y0130016D02*
X0302295Y0125745D01*
X0305497Y0125745D01*
X0304430Y0127881D01*
X0304430Y0128948D01*
X0305497Y0130016D01*
X0307632Y0130016D01*
X0308700Y0128948D01*
X0308700Y0126813D01*
X0307632Y0125745D01*
X0308700Y0123570D02*
X0308700Y0119300D01*
X0308000Y0118000D02*
X0310500Y0115500D01*
X0313000Y0118000D01*
X0318000Y0118000D01*
X0320500Y0115500D01*
X0320500Y0100500D01*
X0318000Y0098000D01*
X0313000Y0098000D01*
X0310500Y0100500D01*
X0310500Y0115500D01*
X0308000Y0118000D02*
X0303000Y0118000D01*
X0300500Y0115500D01*
X0300500Y0100500D01*
X0298000Y0098000D01*
X0293000Y0098000D01*
X0290500Y0100500D01*
X0293362Y0094570D02*
X0292295Y0093503D01*
X0292295Y0091368D01*
X0293362Y0090300D01*
X0293362Y0094570D02*
X0294430Y0094570D01*
X0298700Y0090300D01*
X0298700Y0094570D01*
X0302295Y0093935D02*
X0304430Y0091800D01*
X0302295Y0093935D02*
X0308700Y0093935D01*
X0308700Y0091800D02*
X0308700Y0096070D01*
X0308000Y0098000D02*
X0303000Y0098000D01*
X0300500Y0100500D01*
X0308000Y0098000D02*
X0310500Y0100500D01*
X0300500Y0115500D02*
X0298000Y0118000D01*
X0293000Y0118000D01*
X0290500Y0115500D01*
X0294430Y0119300D02*
X0292295Y0121435D01*
X0298700Y0121435D01*
X0298700Y0119300D02*
X0298700Y0123570D01*
X0302295Y0121435D02*
X0308700Y0121435D01*
X0312295Y0121435D02*
X0318700Y0121435D01*
X0318700Y0119300D02*
X0318700Y0123570D01*
X0317632Y0125745D02*
X0315497Y0125745D01*
X0315497Y0128948D01*
X0316565Y0130016D01*
X0317632Y0130016D01*
X0318700Y0128948D01*
X0318700Y0126813D01*
X0317632Y0125745D01*
X0315497Y0125745D02*
X0313362Y0127881D01*
X0312295Y0130016D01*
X0312295Y0121435D02*
X0314430Y0119300D01*
X0304430Y0119300D02*
X0302295Y0121435D01*
X0270500Y0100500D02*
X0268000Y0098000D01*
X0250500Y0115500D02*
X0253000Y0118000D01*
X0258637Y0155800D02*
X0258637Y0160653D01*
X0259851Y0160653D01*
X0261064Y0159440D01*
X0262278Y0160653D01*
X0263491Y0159440D01*
X0263491Y0155800D01*
X0265888Y0155800D02*
X0270741Y0163080D01*
X0273138Y0163080D02*
X0276778Y0163080D01*
X0277992Y0161867D01*
X0277992Y0159440D01*
X0276778Y0158227D01*
X0273138Y0158227D01*
X0273138Y0155800D02*
X0273138Y0163080D01*
X0280388Y0159440D02*
X0280388Y0157013D01*
X0281602Y0155800D01*
X0284028Y0155800D01*
X0285242Y0157013D01*
X0285242Y0159440D01*
X0284028Y0160653D01*
X0281602Y0160653D01*
X0280388Y0159440D01*
X0287639Y0157013D02*
X0288852Y0155800D01*
X0290065Y0155800D01*
X0291279Y0157013D01*
X0291279Y0163080D01*
X0292492Y0163080D02*
X0290065Y0163080D01*
X0294889Y0163080D02*
X0298529Y0163080D01*
X0299742Y0161867D01*
X0299742Y0157013D01*
X0298529Y0155800D01*
X0294889Y0155800D01*
X0294889Y0163080D01*
X0302139Y0155800D02*
X0306993Y0163080D01*
X0310603Y0160653D02*
X0309389Y0159440D01*
X0309389Y0157013D01*
X0310603Y0155800D01*
X0314243Y0155800D01*
X0316640Y0157013D02*
X0317853Y0158227D01*
X0321493Y0158227D01*
X0321493Y0159440D02*
X0321493Y0155800D01*
X0317853Y0155800D01*
X0316640Y0157013D01*
X0317853Y0160653D02*
X0320280Y0160653D01*
X0321493Y0159440D01*
X0323890Y0160653D02*
X0327530Y0160653D01*
X0328744Y0159440D01*
X0328744Y0155800D01*
X0323890Y0155800D02*
X0323890Y0160653D01*
X0331140Y0159440D02*
X0335994Y0159440D01*
X0338391Y0160653D02*
X0342031Y0160653D01*
X0343244Y0159440D01*
X0343244Y0157013D01*
X0342031Y0155800D01*
X0338391Y0155800D01*
X0338391Y0153373D02*
X0338391Y0160653D01*
X0345641Y0159440D02*
X0345641Y0157013D01*
X0346854Y0155800D01*
X0350494Y0155800D01*
X0352891Y0155800D02*
X0356531Y0155800D01*
X0357745Y0157013D01*
X0357745Y0159440D01*
X0356531Y0160653D01*
X0352891Y0160653D01*
X0350494Y0160653D02*
X0346854Y0160653D01*
X0345641Y0159440D01*
X0352891Y0163080D02*
X0352891Y0155800D01*
X0314243Y0160653D02*
X0310603Y0160653D01*
X0261064Y0159440D02*
X0261064Y0155800D01*
X0189765Y0186702D02*
X0188551Y0186702D01*
X0174500Y0217500D02*
X0147500Y0217500D01*
X0147440Y0217502D01*
X0147379Y0217507D01*
X0147320Y0217516D01*
X0147261Y0217529D01*
X0147202Y0217545D01*
X0147145Y0217565D01*
X0147090Y0217588D01*
X0147035Y0217615D01*
X0146983Y0217644D01*
X0146932Y0217677D01*
X0146883Y0217713D01*
X0146837Y0217751D01*
X0146793Y0217793D01*
X0146751Y0217837D01*
X0146713Y0217883D01*
X0146677Y0217932D01*
X0146644Y0217983D01*
X0146615Y0218035D01*
X0146588Y0218090D01*
X0146565Y0218145D01*
X0146545Y0218202D01*
X0146529Y0218261D01*
X0146516Y0218320D01*
X0146507Y0218379D01*
X0146502Y0218440D01*
X0146500Y0218500D01*
X0146500Y0226500D01*
X0146502Y0226560D01*
X0146507Y0226621D01*
X0146516Y0226680D01*
X0146529Y0226739D01*
X0146545Y0226798D01*
X0146565Y0226855D01*
X0146588Y0226910D01*
X0146615Y0226965D01*
X0146644Y0227017D01*
X0146677Y0227068D01*
X0146713Y0227117D01*
X0146751Y0227163D01*
X0146793Y0227207D01*
X0146837Y0227249D01*
X0146883Y0227287D01*
X0146932Y0227323D01*
X0146983Y0227356D01*
X0147035Y0227385D01*
X0147090Y0227412D01*
X0147145Y0227435D01*
X0147202Y0227455D01*
X0147261Y0227471D01*
X0147320Y0227484D01*
X0147379Y0227493D01*
X0147440Y0227498D01*
X0147500Y0227500D01*
X0174500Y0227500D01*
X0174560Y0227498D01*
X0174621Y0227493D01*
X0174680Y0227484D01*
X0174739Y0227471D01*
X0174798Y0227455D01*
X0174855Y0227435D01*
X0174910Y0227412D01*
X0174965Y0227385D01*
X0175017Y0227356D01*
X0175068Y0227323D01*
X0175117Y0227287D01*
X0175163Y0227249D01*
X0175207Y0227207D01*
X0175249Y0227163D01*
X0175287Y0227117D01*
X0175323Y0227068D01*
X0175356Y0227017D01*
X0175385Y0226965D01*
X0175412Y0226910D01*
X0175435Y0226855D01*
X0175455Y0226798D01*
X0175471Y0226739D01*
X0175484Y0226680D01*
X0175493Y0226621D01*
X0175498Y0226560D01*
X0175500Y0226500D01*
X0175500Y0218500D01*
X0175498Y0218440D01*
X0175493Y0218379D01*
X0175484Y0218320D01*
X0175471Y0218261D01*
X0175455Y0218202D01*
X0175435Y0218145D01*
X0175412Y0218090D01*
X0175385Y0218035D01*
X0175356Y0217983D01*
X0175323Y0217932D01*
X0175287Y0217883D01*
X0175249Y0217837D01*
X0175207Y0217793D01*
X0175163Y0217751D01*
X0175117Y0217713D01*
X0175068Y0217677D01*
X0175017Y0217644D01*
X0174965Y0217615D01*
X0174910Y0217588D01*
X0174855Y0217565D01*
X0174798Y0217545D01*
X0174739Y0217529D01*
X0174680Y0217516D01*
X0174621Y0217507D01*
X0174560Y0217502D01*
X0174500Y0217500D01*
X0167000Y0222500D02*
X0162300Y0222500D01*
X0159800Y0222500D02*
X0155000Y0222500D01*
X0127907Y0229800D02*
X0123636Y0229800D01*
X0123636Y0236205D01*
X0121461Y0236205D02*
X0121461Y0229800D01*
X0117191Y0236205D01*
X0117191Y0229800D01*
X0115016Y0229800D02*
X0115016Y0234070D01*
X0112881Y0236205D01*
X0110745Y0234070D01*
X0110745Y0229800D01*
X0108570Y0230868D02*
X0107503Y0229800D01*
X0105368Y0229800D01*
X0104300Y0230868D01*
X0104300Y0235138D01*
X0105368Y0236205D01*
X0107503Y0236205D01*
X0108570Y0235138D01*
X0110745Y0233003D02*
X0115016Y0233003D01*
X0115016Y0240300D02*
X0115016Y0244570D01*
X0112881Y0246705D01*
X0110745Y0244570D01*
X0110745Y0240300D01*
X0108570Y0241368D02*
X0107503Y0240300D01*
X0105368Y0240300D01*
X0104300Y0241368D01*
X0104300Y0245638D01*
X0105368Y0246705D01*
X0107503Y0246705D01*
X0108570Y0245638D01*
X0110745Y0243503D02*
X0115016Y0243503D01*
X0117191Y0246705D02*
X0117191Y0240300D01*
X0121461Y0240300D02*
X0121461Y0246705D01*
X0123636Y0246705D02*
X0123636Y0240300D01*
X0121461Y0240300D02*
X0117191Y0246705D01*
X0123636Y0243503D02*
X0127907Y0243503D01*
X0127907Y0246705D02*
X0127907Y0240300D01*
X0120394Y0225705D02*
X0117191Y0225705D01*
X0117191Y0219300D01*
X0120394Y0219300D01*
X0121461Y0220368D01*
X0121461Y0224638D01*
X0120394Y0225705D01*
X0115016Y0225705D02*
X0115016Y0219300D01*
X0110745Y0225705D01*
X0110745Y0219300D01*
X0108570Y0220368D02*
X0108570Y0222503D01*
X0106435Y0222503D01*
X0104300Y0224638D02*
X0104300Y0220368D01*
X0105368Y0219300D01*
X0107503Y0219300D01*
X0108570Y0220368D01*
X0108570Y0224638D02*
X0107503Y0225705D01*
X0105368Y0225705D01*
X0104300Y0224638D01*
X0101000Y0225000D02*
X0098500Y0227500D01*
X0093500Y0227500D01*
X0091000Y0225000D01*
X0091000Y0220000D01*
X0093500Y0217500D01*
X0098500Y0217500D01*
X0101000Y0220000D01*
X0101000Y0225000D01*
X0098500Y0227500D02*
X0101000Y0230000D01*
X0101000Y0235000D01*
X0098500Y0237500D01*
X0093500Y0237500D01*
X0091000Y0235000D01*
X0091000Y0230000D01*
X0093500Y0227500D01*
X0093500Y0237500D02*
X0091000Y0240000D01*
X0091000Y0245000D01*
X0093500Y0247500D01*
X0098500Y0247500D01*
X0101000Y0245000D01*
X0101000Y0240000D01*
X0098500Y0237500D01*
X0068000Y0174000D02*
X0063000Y0174000D01*
X0060500Y0171500D01*
X0060500Y0166500D01*
X0063000Y0164000D01*
X0068000Y0164000D01*
X0070500Y0166500D01*
X0070500Y0171500D01*
X0068000Y0174000D01*
X0060500Y0171500D02*
X0058000Y0174000D01*
X0053000Y0174000D01*
X0050500Y0171500D01*
X0050500Y0166500D01*
X0053000Y0164000D01*
X0058000Y0164000D01*
X0060500Y0166500D01*
X0050500Y0166500D02*
X0048000Y0164000D01*
X0043000Y0164000D01*
X0040500Y0166500D01*
X0038000Y0164000D01*
X0033000Y0164000D01*
X0030500Y0166500D01*
X0028000Y0164000D01*
X0023000Y0164000D01*
X0020500Y0166500D01*
X0020500Y0171500D01*
X0023000Y0174000D01*
X0028000Y0174000D01*
X0030500Y0171500D01*
X0033000Y0174000D01*
X0038000Y0174000D01*
X0040500Y0171500D01*
X0040500Y0166500D01*
X0040500Y0171500D02*
X0043000Y0174000D01*
X0048000Y0174000D01*
X0050500Y0171500D01*
X0039200Y0159326D02*
X0037065Y0161461D01*
X0032795Y0161461D01*
X0029200Y0158907D02*
X0027065Y0156772D01*
X0027065Y0157839D02*
X0027065Y0154636D01*
X0029200Y0154636D02*
X0022795Y0154636D01*
X0022795Y0157839D01*
X0023862Y0158907D01*
X0025997Y0158907D01*
X0027065Y0157839D01*
X0032795Y0157191D02*
X0037065Y0157191D01*
X0039200Y0159326D01*
X0042295Y0156394D02*
X0042295Y0153191D01*
X0048700Y0153191D01*
X0048700Y0156394D01*
X0047632Y0157461D01*
X0043362Y0157461D01*
X0042295Y0156394D01*
X0039200Y0153948D02*
X0039200Y0151813D01*
X0038132Y0150745D01*
X0035997Y0150745D02*
X0034930Y0152881D01*
X0034930Y0153948D01*
X0035997Y0155016D01*
X0038132Y0155016D01*
X0039200Y0153948D01*
X0042295Y0151016D02*
X0048700Y0151016D01*
X0042295Y0146745D01*
X0048700Y0146745D01*
X0047632Y0144570D02*
X0045497Y0144570D01*
X0045497Y0142435D01*
X0043362Y0140300D02*
X0047632Y0140300D01*
X0048700Y0141368D01*
X0048700Y0143503D01*
X0047632Y0144570D01*
X0052295Y0144003D02*
X0052295Y0140800D01*
X0058700Y0140800D01*
X0056565Y0140800D02*
X0056565Y0144003D01*
X0055497Y0145070D01*
X0053362Y0145070D01*
X0052295Y0144003D01*
X0053362Y0147245D02*
X0057632Y0147245D01*
X0058700Y0148313D01*
X0058700Y0150448D01*
X0057632Y0151516D01*
X0055497Y0151516D01*
X0055497Y0149381D01*
X0053362Y0151516D02*
X0052295Y0150448D01*
X0052295Y0148313D01*
X0053362Y0147245D01*
X0052295Y0153691D02*
X0052295Y0156894D01*
X0053362Y0157961D01*
X0057632Y0157961D01*
X0058700Y0156894D01*
X0058700Y0153691D01*
X0052295Y0153691D01*
X0062295Y0154259D02*
X0063362Y0153191D01*
X0067632Y0153191D01*
X0068700Y0154259D01*
X0068700Y0156394D01*
X0067632Y0157461D01*
X0063362Y0157461D02*
X0062295Y0156394D01*
X0062295Y0154259D01*
X0063362Y0151016D02*
X0062295Y0149948D01*
X0062295Y0147813D01*
X0063362Y0146745D01*
X0067632Y0146745D01*
X0068700Y0147813D01*
X0068700Y0149948D01*
X0067632Y0151016D01*
X0065497Y0151016D01*
X0065497Y0148881D01*
X0065497Y0144570D02*
X0063362Y0144570D01*
X0062295Y0143503D01*
X0062295Y0140300D01*
X0068700Y0140300D01*
X0066565Y0140300D02*
X0066565Y0143503D01*
X0065497Y0144570D01*
X0043362Y0144570D02*
X0042295Y0143503D01*
X0042295Y0141368D01*
X0043362Y0140300D01*
X0035997Y0144300D02*
X0035997Y0148570D01*
X0035997Y0150745D02*
X0032795Y0150745D01*
X0032795Y0155016D01*
X0029200Y0152461D02*
X0029200Y0148191D01*
X0022795Y0148191D01*
X0023862Y0146016D02*
X0022795Y0144948D01*
X0022795Y0142813D01*
X0023862Y0141745D01*
X0028132Y0141745D01*
X0029200Y0142813D01*
X0029200Y0144948D01*
X0028132Y0146016D01*
X0033862Y0146435D02*
X0038132Y0146435D01*
X0029200Y0139570D02*
X0022795Y0139570D01*
X0024930Y0137435D01*
X0022795Y0135300D01*
X0029200Y0135300D01*
X0030500Y0166500D02*
X0030500Y0171500D01*
X0244500Y0216500D02*
X0244500Y0223500D01*
X0244502Y0223560D01*
X0244507Y0223621D01*
X0244516Y0223680D01*
X0244529Y0223739D01*
X0244545Y0223798D01*
X0244565Y0223855D01*
X0244588Y0223910D01*
X0244615Y0223965D01*
X0244644Y0224017D01*
X0244677Y0224068D01*
X0244713Y0224117D01*
X0244751Y0224163D01*
X0244793Y0224207D01*
X0244837Y0224249D01*
X0244883Y0224287D01*
X0244932Y0224323D01*
X0244983Y0224356D01*
X0245035Y0224385D01*
X0245090Y0224412D01*
X0245145Y0224435D01*
X0245202Y0224455D01*
X0245261Y0224471D01*
X0245320Y0224484D01*
X0245379Y0224493D01*
X0245440Y0224498D01*
X0245500Y0224500D01*
X0247000Y0224500D01*
X0247500Y0224000D01*
X0266500Y0224000D01*
X0267000Y0224500D01*
X0268500Y0224500D01*
X0268560Y0224498D01*
X0268621Y0224493D01*
X0268680Y0224484D01*
X0268739Y0224471D01*
X0268798Y0224455D01*
X0268855Y0224435D01*
X0268910Y0224412D01*
X0268965Y0224385D01*
X0269017Y0224356D01*
X0269068Y0224323D01*
X0269117Y0224287D01*
X0269163Y0224249D01*
X0269207Y0224207D01*
X0269249Y0224163D01*
X0269287Y0224117D01*
X0269323Y0224068D01*
X0269356Y0224017D01*
X0269385Y0223965D01*
X0269412Y0223910D01*
X0269435Y0223855D01*
X0269455Y0223798D01*
X0269471Y0223739D01*
X0269484Y0223680D01*
X0269493Y0223621D01*
X0269498Y0223560D01*
X0269500Y0223500D01*
X0269500Y0216500D01*
X0269498Y0216440D01*
X0269493Y0216379D01*
X0269484Y0216320D01*
X0269471Y0216261D01*
X0269455Y0216202D01*
X0269435Y0216145D01*
X0269412Y0216090D01*
X0269385Y0216035D01*
X0269356Y0215983D01*
X0269323Y0215932D01*
X0269287Y0215883D01*
X0269249Y0215837D01*
X0269207Y0215793D01*
X0269163Y0215751D01*
X0269117Y0215713D01*
X0269068Y0215677D01*
X0269017Y0215644D01*
X0268965Y0215615D01*
X0268910Y0215588D01*
X0268855Y0215565D01*
X0268798Y0215545D01*
X0268739Y0215529D01*
X0268680Y0215516D01*
X0268621Y0215507D01*
X0268560Y0215502D01*
X0268500Y0215500D01*
X0267000Y0215500D01*
X0266500Y0216000D01*
X0247500Y0216000D01*
X0247000Y0215500D01*
X0245500Y0215500D01*
X0245440Y0215502D01*
X0245379Y0215507D01*
X0245320Y0215516D01*
X0245261Y0215529D01*
X0245202Y0215545D01*
X0245145Y0215565D01*
X0245090Y0215588D01*
X0245035Y0215615D01*
X0244983Y0215644D01*
X0244932Y0215677D01*
X0244883Y0215713D01*
X0244837Y0215751D01*
X0244793Y0215793D01*
X0244751Y0215837D01*
X0244713Y0215883D01*
X0244677Y0215932D01*
X0244644Y0215983D01*
X0244615Y0216035D01*
X0244588Y0216090D01*
X0244565Y0216145D01*
X0244545Y0216202D01*
X0244529Y0216261D01*
X0244516Y0216320D01*
X0244507Y0216379D01*
X0244502Y0216440D01*
X0244500Y0216500D01*
X0245500Y0230000D02*
X0247000Y0230000D01*
X0247500Y0230500D01*
X0266500Y0230500D01*
X0267000Y0230000D01*
X0268500Y0230000D01*
X0268560Y0230002D01*
X0268621Y0230007D01*
X0268680Y0230016D01*
X0268739Y0230029D01*
X0268798Y0230045D01*
X0268855Y0230065D01*
X0268910Y0230088D01*
X0268965Y0230115D01*
X0269017Y0230144D01*
X0269068Y0230177D01*
X0269117Y0230213D01*
X0269163Y0230251D01*
X0269207Y0230293D01*
X0269249Y0230337D01*
X0269287Y0230383D01*
X0269323Y0230432D01*
X0269356Y0230483D01*
X0269385Y0230535D01*
X0269412Y0230590D01*
X0269435Y0230645D01*
X0269455Y0230702D01*
X0269471Y0230761D01*
X0269484Y0230820D01*
X0269493Y0230879D01*
X0269498Y0230940D01*
X0269500Y0231000D01*
X0269500Y0238000D01*
X0269498Y0238060D01*
X0269493Y0238121D01*
X0269484Y0238180D01*
X0269471Y0238239D01*
X0269455Y0238298D01*
X0269435Y0238355D01*
X0269412Y0238410D01*
X0269385Y0238465D01*
X0269356Y0238517D01*
X0269323Y0238568D01*
X0269287Y0238617D01*
X0269249Y0238663D01*
X0269207Y0238707D01*
X0269163Y0238749D01*
X0269117Y0238787D01*
X0269068Y0238823D01*
X0269017Y0238856D01*
X0268965Y0238885D01*
X0268910Y0238912D01*
X0268855Y0238935D01*
X0268798Y0238955D01*
X0268739Y0238971D01*
X0268680Y0238984D01*
X0268621Y0238993D01*
X0268560Y0238998D01*
X0268500Y0239000D01*
X0267000Y0239000D01*
X0266500Y0238500D01*
X0247500Y0238500D01*
X0247000Y0239000D01*
X0245500Y0239000D01*
X0245440Y0238998D01*
X0245379Y0238993D01*
X0245320Y0238984D01*
X0245261Y0238971D01*
X0245202Y0238955D01*
X0245145Y0238935D01*
X0245090Y0238912D01*
X0245035Y0238885D01*
X0244983Y0238856D01*
X0244932Y0238823D01*
X0244883Y0238787D01*
X0244837Y0238749D01*
X0244793Y0238707D01*
X0244751Y0238663D01*
X0244713Y0238617D01*
X0244677Y0238568D01*
X0244644Y0238517D01*
X0244615Y0238465D01*
X0244588Y0238410D01*
X0244565Y0238355D01*
X0244545Y0238298D01*
X0244529Y0238239D01*
X0244516Y0238180D01*
X0244507Y0238121D01*
X0244502Y0238060D01*
X0244500Y0238000D01*
X0244500Y0231000D01*
X0244502Y0230940D01*
X0244507Y0230879D01*
X0244516Y0230820D01*
X0244529Y0230761D01*
X0244545Y0230702D01*
X0244565Y0230645D01*
X0244588Y0230590D01*
X0244615Y0230535D01*
X0244644Y0230483D01*
X0244677Y0230432D01*
X0244713Y0230383D01*
X0244751Y0230337D01*
X0244793Y0230293D01*
X0244837Y0230251D01*
X0244883Y0230213D01*
X0244932Y0230177D01*
X0244983Y0230144D01*
X0245035Y0230115D01*
X0245090Y0230088D01*
X0245145Y0230065D01*
X0245202Y0230045D01*
X0245261Y0230029D01*
X0245320Y0230016D01*
X0245379Y0230007D01*
X0245440Y0230002D01*
X0245500Y0230000D01*
X0294000Y0224000D02*
X0294000Y0216000D01*
X0294002Y0215940D01*
X0294007Y0215879D01*
X0294016Y0215820D01*
X0294029Y0215761D01*
X0294045Y0215702D01*
X0294065Y0215645D01*
X0294088Y0215590D01*
X0294115Y0215535D01*
X0294144Y0215483D01*
X0294177Y0215432D01*
X0294213Y0215383D01*
X0294251Y0215337D01*
X0294293Y0215293D01*
X0294337Y0215251D01*
X0294383Y0215213D01*
X0294432Y0215177D01*
X0294483Y0215144D01*
X0294535Y0215115D01*
X0294590Y0215088D01*
X0294645Y0215065D01*
X0294702Y0215045D01*
X0294761Y0215029D01*
X0294820Y0215016D01*
X0294879Y0215007D01*
X0294940Y0215002D01*
X0295000Y0215000D01*
X0322000Y0215000D01*
X0322060Y0215002D01*
X0322121Y0215007D01*
X0322180Y0215016D01*
X0322239Y0215029D01*
X0322298Y0215045D01*
X0322355Y0215065D01*
X0322410Y0215088D01*
X0322465Y0215115D01*
X0322517Y0215144D01*
X0322568Y0215177D01*
X0322617Y0215213D01*
X0322663Y0215251D01*
X0322707Y0215293D01*
X0322749Y0215337D01*
X0322787Y0215383D01*
X0322823Y0215432D01*
X0322856Y0215483D01*
X0322885Y0215535D01*
X0322912Y0215590D01*
X0322935Y0215645D01*
X0322955Y0215702D01*
X0322971Y0215761D01*
X0322984Y0215820D01*
X0322993Y0215879D01*
X0322998Y0215940D01*
X0323000Y0216000D01*
X0323000Y0224000D01*
X0322998Y0224060D01*
X0322993Y0224121D01*
X0322984Y0224180D01*
X0322971Y0224239D01*
X0322955Y0224298D01*
X0322935Y0224355D01*
X0322912Y0224410D01*
X0322885Y0224465D01*
X0322856Y0224517D01*
X0322823Y0224568D01*
X0322787Y0224617D01*
X0322749Y0224663D01*
X0322707Y0224707D01*
X0322663Y0224749D01*
X0322617Y0224787D01*
X0322568Y0224823D01*
X0322517Y0224856D01*
X0322465Y0224885D01*
X0322410Y0224912D01*
X0322355Y0224935D01*
X0322298Y0224955D01*
X0322239Y0224971D01*
X0322180Y0224984D01*
X0322121Y0224993D01*
X0322060Y0224998D01*
X0322000Y0225000D01*
X0295000Y0225000D01*
X0294940Y0224998D01*
X0294879Y0224993D01*
X0294820Y0224984D01*
X0294761Y0224971D01*
X0294702Y0224955D01*
X0294645Y0224935D01*
X0294590Y0224912D01*
X0294535Y0224885D01*
X0294483Y0224856D01*
X0294432Y0224823D01*
X0294383Y0224787D01*
X0294337Y0224749D01*
X0294293Y0224707D01*
X0294251Y0224663D01*
X0294213Y0224617D01*
X0294177Y0224568D01*
X0294144Y0224517D01*
X0294115Y0224465D01*
X0294088Y0224410D01*
X0294065Y0224355D01*
X0294045Y0224298D01*
X0294029Y0224239D01*
X0294016Y0224180D01*
X0294007Y0224121D01*
X0294002Y0224060D01*
X0294000Y0224000D01*
X0302500Y0220000D02*
X0307200Y0220000D01*
X0309700Y0220000D02*
X0314500Y0220000D01*
D11*
X0274477Y0195304D02*
X0274477Y0192235D01*
X0272942Y0190700D01*
X0271408Y0192235D01*
X0271408Y0195304D01*
X0269873Y0195304D02*
X0266804Y0195304D01*
X0266804Y0193002D01*
X0268339Y0193769D01*
X0269106Y0193769D01*
X0269873Y0193002D01*
X0269873Y0191467D01*
X0269106Y0190700D01*
X0267571Y0190700D01*
X0266804Y0191467D01*
X0265269Y0193002D02*
X0262200Y0193002D01*
X0263735Y0194537D02*
X0263735Y0191467D01*
X0057800Y0235096D02*
X0057800Y0238165D01*
X0057800Y0236631D02*
X0053196Y0236631D01*
X0054731Y0235096D01*
X0047033Y0200165D02*
X0047800Y0199398D01*
X0047800Y0197863D01*
X0047033Y0197096D01*
X0046265Y0197096D01*
X0045498Y0197863D01*
X0045498Y0199398D01*
X0046265Y0200165D01*
X0047033Y0200165D01*
X0045498Y0199398D02*
X0044731Y0200165D01*
X0043963Y0200165D01*
X0043196Y0199398D01*
X0043196Y0197863D01*
X0043963Y0197096D01*
X0044731Y0197096D01*
X0045498Y0197863D01*
D12*
X0144300Y0145000D02*
X0144300Y0142500D01*
X0144300Y0140000D01*
X0146800Y0140000D02*
X0146800Y0142500D01*
X0146800Y0145000D01*
X0159800Y0220000D02*
X0159800Y0222500D01*
X0159800Y0225000D01*
X0162300Y0225000D02*
X0162300Y0222500D01*
X0162300Y0220000D01*
X0307200Y0220000D02*
X0307200Y0217500D01*
X0307200Y0220000D02*
X0307200Y0222500D01*
X0309700Y0222500D02*
X0309700Y0220000D01*
X0309700Y0217500D01*
X0103000Y0066300D02*
X0100500Y0066300D01*
X0098000Y0066300D01*
X0098000Y0063800D02*
X0100500Y0063800D01*
X0103000Y0063800D01*
X0019500Y0026700D02*
X0017000Y0026700D01*
X0014500Y0026700D01*
X0014500Y0024200D02*
X0017000Y0024200D01*
X0019500Y0024200D01*
D13*
X0010750Y0023887D02*
X0010750Y0023136D01*
X0009999Y0023136D01*
X0009999Y0023887D01*
X0010750Y0023887D01*
X0010750Y0025438D02*
X0010750Y0028441D01*
X0010750Y0026939D02*
X0006246Y0026939D01*
X0007747Y0025438D01*
X0006997Y0021535D02*
X0009999Y0018532D01*
X0010750Y0019283D01*
X0010750Y0020784D01*
X0009999Y0021535D01*
X0006997Y0021535D01*
X0006246Y0020784D01*
X0006246Y0019283D01*
X0006997Y0018532D01*
X0009999Y0018532D01*
X0009999Y0030042D02*
X0010750Y0030793D01*
X0010750Y0033045D01*
X0007747Y0033045D01*
X0008498Y0034646D02*
X0008498Y0036147D01*
X0010750Y0034646D02*
X0006246Y0034646D01*
X0006246Y0037649D01*
X0007747Y0030042D02*
X0009999Y0030042D01*
X0045246Y0042590D02*
X0047498Y0040338D01*
X0047498Y0043341D01*
X0048999Y0044942D02*
X0049750Y0044942D01*
X0048999Y0044942D02*
X0045997Y0047945D01*
X0045246Y0047945D01*
X0045246Y0044942D01*
X0045246Y0042590D02*
X0049750Y0042590D01*
X0048999Y0049546D02*
X0045997Y0049546D01*
X0045246Y0050297D01*
X0045246Y0051798D01*
X0045997Y0052549D01*
X0048999Y0049546D01*
X0049750Y0050297D01*
X0049750Y0051798D01*
X0048999Y0052549D01*
X0045997Y0052549D01*
X0106746Y0053251D02*
X0108247Y0051750D01*
X0106746Y0053251D02*
X0111250Y0053251D01*
X0111250Y0051750D02*
X0111250Y0054753D01*
X0110499Y0056354D02*
X0107497Y0059356D01*
X0110499Y0059356D01*
X0111250Y0058606D01*
X0111250Y0057105D01*
X0110499Y0056354D01*
X0107497Y0056354D01*
X0106746Y0057105D01*
X0106746Y0058606D01*
X0107497Y0059356D01*
X0108247Y0065562D02*
X0110499Y0065562D01*
X0111250Y0066312D01*
X0111250Y0068564D01*
X0108247Y0068564D01*
X0108998Y0070166D02*
X0108998Y0071667D01*
X0106746Y0070166D02*
X0106746Y0073168D01*
X0106746Y0070166D02*
X0111250Y0070166D01*
X0137730Y0070750D02*
X0140733Y0070750D01*
X0139232Y0070750D02*
X0139232Y0075254D01*
X0137730Y0073753D01*
X0142334Y0073002D02*
X0142334Y0071501D01*
X0143085Y0070750D01*
X0144586Y0070750D01*
X0145337Y0071501D01*
X0145337Y0072251D01*
X0144586Y0073002D01*
X0142334Y0073002D01*
X0143836Y0074503D01*
X0145337Y0075254D01*
X0146938Y0075254D02*
X0146938Y0070750D01*
X0149941Y0070750D02*
X0149941Y0075254D01*
X0148439Y0073753D01*
X0146938Y0075254D01*
X0151542Y0075254D02*
X0151542Y0070750D01*
X0151542Y0073002D02*
X0154545Y0073002D01*
X0156146Y0073753D02*
X0159149Y0073753D01*
X0156146Y0070750D01*
X0159149Y0070750D01*
X0154545Y0070750D02*
X0154545Y0075254D01*
X0157746Y0042564D02*
X0157746Y0039562D01*
X0162250Y0039562D01*
X0161499Y0037960D02*
X0162250Y0037210D01*
X0162250Y0034958D01*
X0163751Y0034958D02*
X0159247Y0034958D01*
X0159247Y0037210D01*
X0159998Y0037960D01*
X0161499Y0037960D01*
X0159998Y0039562D02*
X0159998Y0041063D01*
X0159247Y0033356D02*
X0159998Y0032606D01*
X0160749Y0033356D01*
X0161499Y0033356D01*
X0162250Y0032606D01*
X0162250Y0031105D01*
X0161499Y0030354D01*
X0161499Y0028753D02*
X0162250Y0028002D01*
X0162250Y0026501D01*
X0161499Y0025750D01*
X0159998Y0027251D02*
X0159998Y0028002D01*
X0160749Y0028753D01*
X0161499Y0028753D01*
X0159998Y0028002D02*
X0159247Y0028753D01*
X0158497Y0028753D01*
X0157746Y0028002D01*
X0157746Y0026501D01*
X0158497Y0025750D01*
X0158497Y0030354D02*
X0157746Y0031105D01*
X0157746Y0032606D01*
X0158497Y0033356D01*
X0159247Y0033356D01*
X0159998Y0032606D02*
X0159998Y0031855D01*
X0143751Y0034958D02*
X0139247Y0034958D01*
X0139247Y0037210D01*
X0139998Y0037960D01*
X0141499Y0037960D01*
X0142250Y0037210D01*
X0142250Y0034958D01*
X0141499Y0033356D02*
X0142250Y0032606D01*
X0142250Y0031105D01*
X0141499Y0030354D01*
X0141499Y0028753D02*
X0142250Y0028002D01*
X0142250Y0026501D01*
X0141499Y0025750D01*
X0139998Y0027251D02*
X0139998Y0028002D01*
X0140749Y0028753D01*
X0141499Y0028753D01*
X0139998Y0028002D02*
X0139247Y0028753D01*
X0138497Y0028753D01*
X0137746Y0028002D01*
X0137746Y0026501D01*
X0138497Y0025750D01*
X0138497Y0030354D02*
X0137746Y0031105D01*
X0137746Y0032606D01*
X0138497Y0033356D01*
X0139247Y0033356D01*
X0139998Y0032606D01*
X0140749Y0033356D01*
X0141499Y0033356D01*
X0139998Y0032606D02*
X0139998Y0031855D01*
X0139998Y0039562D02*
X0139998Y0041063D01*
X0137746Y0039562D02*
X0137746Y0042564D01*
X0137746Y0039562D02*
X0142250Y0039562D01*
X0024750Y0099850D02*
X0024750Y0102853D01*
X0024750Y0101351D02*
X0020246Y0101351D01*
X0021747Y0099850D01*
X0020997Y0104454D02*
X0020246Y0105205D01*
X0020246Y0106706D01*
X0020997Y0107456D01*
X0023999Y0104454D01*
X0024750Y0105205D01*
X0024750Y0106706D01*
X0023999Y0107456D01*
X0020997Y0107456D01*
X0020997Y0109058D02*
X0020246Y0109808D01*
X0020246Y0111310D01*
X0020997Y0112060D01*
X0023999Y0109058D01*
X0024750Y0109808D01*
X0024750Y0111310D01*
X0023999Y0112060D01*
X0020997Y0112060D01*
X0020997Y0113662D02*
X0020246Y0114412D01*
X0020246Y0115914D01*
X0020997Y0116664D01*
X0023999Y0113662D01*
X0024750Y0114412D01*
X0024750Y0115914D01*
X0023999Y0116664D01*
X0020997Y0116664D01*
X0020997Y0118266D02*
X0020246Y0119016D01*
X0020246Y0120518D01*
X0020997Y0121268D01*
X0023999Y0118266D01*
X0024750Y0119016D01*
X0024750Y0120518D01*
X0023999Y0121268D01*
X0020997Y0121268D01*
X0020997Y0118266D02*
X0023999Y0118266D01*
X0023999Y0113662D02*
X0020997Y0113662D01*
X0020997Y0109058D02*
X0023999Y0109058D01*
X0023999Y0104454D02*
X0020997Y0104454D01*
X0132250Y0132501D02*
X0135253Y0135503D01*
X0135253Y0132501D01*
X0134502Y0131750D01*
X0133001Y0131750D01*
X0132250Y0132501D01*
X0132250Y0135503D01*
X0133001Y0136254D01*
X0134502Y0136254D01*
X0135253Y0135503D01*
X0139156Y0134753D02*
X0140657Y0136254D01*
X0140657Y0131750D01*
X0139156Y0131750D02*
X0142158Y0131750D01*
X0143760Y0132501D02*
X0144510Y0131750D01*
X0146762Y0131750D01*
X0146762Y0134753D01*
X0148364Y0134002D02*
X0149865Y0134002D01*
X0148364Y0131750D02*
X0148364Y0136254D01*
X0151366Y0136254D01*
X0143760Y0134753D02*
X0143760Y0132501D01*
X0137605Y0132501D02*
X0137605Y0131750D01*
X0136854Y0131750D01*
X0136854Y0132501D01*
X0137605Y0132501D01*
X0063315Y0189472D02*
X0012685Y0189472D01*
X0012685Y0248528D01*
X0063315Y0248528D01*
X0063315Y0189472D01*
X0147750Y0212501D02*
X0150753Y0215503D01*
X0150753Y0212501D01*
X0150002Y0211750D01*
X0148501Y0211750D01*
X0147750Y0212501D01*
X0147750Y0215503D01*
X0148501Y0216254D01*
X0150002Y0216254D01*
X0150753Y0215503D01*
X0152354Y0212501D02*
X0153105Y0212501D01*
X0153105Y0211750D01*
X0152354Y0211750D01*
X0152354Y0212501D01*
X0154656Y0211750D02*
X0157658Y0211750D01*
X0156157Y0211750D02*
X0156157Y0216254D01*
X0154656Y0214753D01*
X0159260Y0214753D02*
X0159260Y0212501D01*
X0160010Y0211750D01*
X0162262Y0211750D01*
X0162262Y0214753D01*
X0163864Y0214002D02*
X0165365Y0214002D01*
X0163864Y0211750D02*
X0163864Y0216254D01*
X0166866Y0216254D01*
X0195657Y0212500D02*
X0215343Y0212500D01*
X0215343Y0242500D01*
X0195657Y0242500D01*
X0195657Y0212500D01*
X0248350Y0218501D02*
X0249101Y0217750D01*
X0250602Y0217750D01*
X0251353Y0218501D01*
X0251353Y0220002D01*
X0250602Y0220753D01*
X0249851Y0220753D01*
X0248350Y0220002D01*
X0248350Y0222254D01*
X0251353Y0222254D01*
X0252954Y0221503D02*
X0253705Y0222254D01*
X0255206Y0222254D01*
X0255956Y0221503D01*
X0252954Y0218501D01*
X0253705Y0217750D01*
X0255206Y0217750D01*
X0255956Y0218501D01*
X0255956Y0221503D01*
X0252954Y0221503D02*
X0252954Y0218501D01*
X0257693Y0232250D02*
X0256942Y0233001D01*
X0257693Y0232250D02*
X0259194Y0232250D01*
X0259945Y0233001D01*
X0259945Y0234502D01*
X0259194Y0235253D01*
X0258443Y0235253D01*
X0256942Y0234502D01*
X0256942Y0236754D01*
X0259945Y0236754D01*
X0261546Y0236003D02*
X0262297Y0236754D01*
X0263798Y0236754D01*
X0264549Y0236003D01*
X0261546Y0233001D01*
X0262297Y0232250D01*
X0263798Y0232250D01*
X0264549Y0233001D01*
X0264549Y0236003D01*
X0261546Y0236003D02*
X0261546Y0233001D01*
X0301532Y0228502D02*
X0304535Y0228502D01*
X0306136Y0227001D02*
X0306887Y0227001D01*
X0306887Y0226250D01*
X0306136Y0226250D01*
X0306136Y0227001D01*
X0308438Y0227001D02*
X0308438Y0226250D01*
X0308438Y0227001D02*
X0311441Y0230003D01*
X0311441Y0230754D01*
X0308438Y0230754D01*
X0303784Y0230754D02*
X0303784Y0226250D01*
X0301532Y0228502D02*
X0303784Y0230754D01*
X0313042Y0229253D02*
X0313042Y0226250D01*
X0313042Y0229253D02*
X0315294Y0229253D01*
X0316045Y0228502D01*
X0316045Y0226250D01*
X0317646Y0226250D02*
X0317646Y0230754D01*
X0320649Y0230754D01*
X0319147Y0228502D02*
X0317646Y0228502D01*
X0321047Y0199311D02*
X0276953Y0199311D01*
X0276953Y0175689D01*
X0321047Y0175689D01*
X0321047Y0199311D01*
D14*
X0148994Y0110904D02*
X0148994Y0108803D01*
X0147943Y0107752D01*
X0144790Y0107752D01*
X0144790Y0105650D02*
X0144790Y0111955D01*
X0147943Y0111955D01*
X0148994Y0110904D01*
X0142548Y0110904D02*
X0141497Y0111955D01*
X0139395Y0111955D01*
X0138344Y0110904D01*
X0138344Y0109854D01*
X0139395Y0108803D01*
X0141497Y0108803D01*
X0142548Y0107752D01*
X0142548Y0106701D01*
X0141497Y0105650D01*
X0139395Y0105650D01*
X0138344Y0106701D01*
X0136103Y0111955D02*
X0131899Y0105650D01*
X0129704Y0105650D02*
X0127602Y0105650D01*
X0128653Y0105650D02*
X0128653Y0111955D01*
X0127602Y0111955D02*
X0129704Y0111955D01*
X0125360Y0108803D02*
X0121156Y0108803D01*
X0118915Y0110904D02*
X0114711Y0106701D01*
X0115762Y0105650D01*
X0117864Y0105650D01*
X0118915Y0106701D01*
X0118915Y0110904D01*
X0117864Y0111955D01*
X0115762Y0111955D01*
X0114711Y0110904D01*
X0114711Y0106701D01*
X0112469Y0106701D02*
X0111418Y0105650D01*
X0109316Y0105650D01*
X0108265Y0106701D01*
X0108265Y0107752D01*
X0109316Y0108803D01*
X0111418Y0108803D01*
X0112469Y0107752D01*
X0112469Y0106701D01*
X0111418Y0108803D02*
X0112469Y0109854D01*
X0112469Y0110904D01*
X0111418Y0111955D01*
X0109316Y0111955D01*
X0108265Y0110904D01*
X0108265Y0109854D01*
X0109316Y0108803D01*
X0106024Y0108803D02*
X0101820Y0108803D01*
X0104973Y0111955D01*
X0104973Y0105650D01*
X0099578Y0105650D02*
X0095374Y0105650D01*
X0099578Y0109854D01*
X0099578Y0110904D01*
X0098527Y0111955D01*
X0096425Y0111955D01*
X0095374Y0110904D01*
X0093133Y0111955D02*
X0088929Y0111955D01*
X0088929Y0105650D01*
X0086687Y0106701D02*
X0085636Y0105650D01*
X0083534Y0105650D01*
X0082483Y0106701D01*
X0082483Y0107752D01*
X0083534Y0108803D01*
X0085636Y0108803D01*
X0086687Y0107752D01*
X0086687Y0106701D01*
X0085636Y0108803D02*
X0086687Y0109854D01*
X0086687Y0110904D01*
X0085636Y0111955D01*
X0083534Y0111955D01*
X0082483Y0110904D01*
X0082483Y0109854D01*
X0083534Y0108803D01*
X0080242Y0105650D02*
X0076038Y0105650D01*
X0078140Y0105650D02*
X0078140Y0111955D01*
X0076038Y0109854D01*
X0073796Y0110904D02*
X0072745Y0111955D01*
X0070643Y0111955D01*
X0069592Y0110904D01*
X0069592Y0106701D01*
X0070643Y0105650D01*
X0072745Y0105650D01*
X0073796Y0106701D01*
X0067397Y0105650D02*
X0065295Y0105650D01*
X0066346Y0105650D02*
X0066346Y0111955D01*
X0065295Y0111955D02*
X0067397Y0111955D01*
X0063054Y0110904D02*
X0063054Y0108803D01*
X0062003Y0107752D01*
X0058850Y0107752D01*
X0058850Y0105650D02*
X0058850Y0111955D01*
X0062003Y0111955D01*
X0063054Y0110904D01*
X0088929Y0108803D02*
X0091031Y0108803D01*
D15*
X0127500Y0035500D02*
X0130500Y0035500D01*
X0133500Y0035500D01*
X0133500Y0033500D02*
X0130500Y0033500D01*
X0127500Y0033500D01*
X0147500Y0033500D02*
X0150500Y0033500D01*
X0153500Y0033500D01*
X0153500Y0035500D02*
X0150500Y0035500D01*
X0147500Y0035500D01*
D16*
X0154000Y0053000D02*
X0127000Y0053000D01*
X0126830Y0053002D01*
X0126659Y0053008D01*
X0126489Y0053019D01*
X0126319Y0053033D01*
X0126150Y0053052D01*
X0125981Y0053075D01*
X0125812Y0053101D01*
X0125645Y0053132D01*
X0125478Y0053167D01*
X0125312Y0053207D01*
X0125147Y0053250D01*
X0124983Y0053297D01*
X0124821Y0053348D01*
X0124659Y0053403D01*
X0124499Y0053462D01*
X0124341Y0053525D01*
X0124184Y0053591D01*
X0124029Y0053662D01*
X0123875Y0053736D01*
X0123724Y0053814D01*
X0123574Y0053896D01*
X0123426Y0053981D01*
X0123281Y0054070D01*
X0123138Y0054162D01*
X0122997Y0054258D01*
X0122858Y0054357D01*
X0122722Y0054460D01*
X0122588Y0054565D01*
X0122457Y0054674D01*
X0122329Y0054787D01*
X0122203Y0054902D01*
X0122080Y0055020D01*
X0121961Y0055141D01*
X0121844Y0055266D01*
X0121730Y0055393D01*
X0121619Y0055522D01*
X0121512Y0055655D01*
X0121408Y0055790D01*
X0121307Y0055927D01*
X0121209Y0056067D01*
X0121115Y0056209D01*
X0121025Y0056353D01*
X0120938Y0056500D01*
X0120854Y0056649D01*
X0120775Y0056799D01*
X0120699Y0056952D01*
X0120626Y0057106D01*
X0120558Y0057262D01*
X0120493Y0057420D01*
X0120432Y0057579D01*
X0120375Y0057740D01*
X0120322Y0057902D01*
X0120273Y0058065D01*
X0120228Y0058229D01*
X0120187Y0058395D01*
X0120149Y0058561D01*
X0120116Y0058729D01*
X0120088Y0058897D01*
X0120063Y0059065D01*
X0120042Y0059234D01*
X0120025Y0059404D01*
X0120013Y0059574D01*
X0120005Y0059744D01*
X0120001Y0059915D01*
X0120001Y0060085D01*
X0120005Y0060256D01*
X0120013Y0060426D01*
X0120025Y0060596D01*
X0120042Y0060766D01*
X0120063Y0060935D01*
X0120088Y0061103D01*
X0120116Y0061271D01*
X0120149Y0061439D01*
X0120187Y0061605D01*
X0120228Y0061771D01*
X0120273Y0061935D01*
X0120322Y0062098D01*
X0120375Y0062260D01*
X0120432Y0062421D01*
X0120493Y0062580D01*
X0120558Y0062738D01*
X0120626Y0062894D01*
X0120699Y0063048D01*
X0120775Y0063201D01*
X0120854Y0063351D01*
X0120938Y0063500D01*
X0121025Y0063647D01*
X0121115Y0063791D01*
X0121209Y0063933D01*
X0121307Y0064073D01*
X0121408Y0064210D01*
X0121512Y0064345D01*
X0121619Y0064478D01*
X0121730Y0064607D01*
X0121844Y0064734D01*
X0121961Y0064859D01*
X0122080Y0064980D01*
X0122203Y0065098D01*
X0122329Y0065213D01*
X0122457Y0065326D01*
X0122588Y0065435D01*
X0122722Y0065540D01*
X0122858Y0065643D01*
X0122997Y0065742D01*
X0123138Y0065838D01*
X0123281Y0065930D01*
X0123426Y0066019D01*
X0123574Y0066104D01*
X0123724Y0066186D01*
X0123875Y0066264D01*
X0124029Y0066338D01*
X0124184Y0066409D01*
X0124341Y0066475D01*
X0124499Y0066538D01*
X0124659Y0066597D01*
X0124821Y0066652D01*
X0124983Y0066703D01*
X0125147Y0066750D01*
X0125312Y0066793D01*
X0125478Y0066833D01*
X0125645Y0066868D01*
X0125812Y0066899D01*
X0125981Y0066925D01*
X0126150Y0066948D01*
X0126319Y0066967D01*
X0126489Y0066981D01*
X0126659Y0066992D01*
X0126830Y0066998D01*
X0127000Y0067000D01*
X0154000Y0067000D01*
X0154170Y0066998D01*
X0154341Y0066992D01*
X0154511Y0066981D01*
X0154681Y0066967D01*
X0154850Y0066948D01*
X0155019Y0066925D01*
X0155188Y0066899D01*
X0155355Y0066868D01*
X0155522Y0066833D01*
X0155688Y0066793D01*
X0155853Y0066750D01*
X0156017Y0066703D01*
X0156179Y0066652D01*
X0156341Y0066597D01*
X0156501Y0066538D01*
X0156659Y0066475D01*
X0156816Y0066409D01*
X0156971Y0066338D01*
X0157125Y0066264D01*
X0157276Y0066186D01*
X0157426Y0066104D01*
X0157574Y0066019D01*
X0157719Y0065930D01*
X0157862Y0065838D01*
X0158003Y0065742D01*
X0158142Y0065643D01*
X0158278Y0065540D01*
X0158412Y0065435D01*
X0158543Y0065326D01*
X0158671Y0065213D01*
X0158797Y0065098D01*
X0158920Y0064980D01*
X0159039Y0064859D01*
X0159156Y0064734D01*
X0159270Y0064607D01*
X0159381Y0064478D01*
X0159488Y0064345D01*
X0159592Y0064210D01*
X0159693Y0064073D01*
X0159791Y0063933D01*
X0159885Y0063791D01*
X0159975Y0063647D01*
X0160062Y0063500D01*
X0160146Y0063351D01*
X0160225Y0063201D01*
X0160301Y0063048D01*
X0160374Y0062894D01*
X0160442Y0062738D01*
X0160507Y0062580D01*
X0160568Y0062421D01*
X0160625Y0062260D01*
X0160678Y0062098D01*
X0160727Y0061935D01*
X0160772Y0061771D01*
X0160813Y0061605D01*
X0160851Y0061439D01*
X0160884Y0061271D01*
X0160912Y0061103D01*
X0160937Y0060935D01*
X0160958Y0060766D01*
X0160975Y0060596D01*
X0160987Y0060426D01*
X0160995Y0060256D01*
X0160999Y0060085D01*
X0160999Y0059915D01*
X0160995Y0059744D01*
X0160987Y0059574D01*
X0160975Y0059404D01*
X0160958Y0059234D01*
X0160937Y0059065D01*
X0160912Y0058897D01*
X0160884Y0058729D01*
X0160851Y0058561D01*
X0160813Y0058395D01*
X0160772Y0058229D01*
X0160727Y0058065D01*
X0160678Y0057902D01*
X0160625Y0057740D01*
X0160568Y0057579D01*
X0160507Y0057420D01*
X0160442Y0057262D01*
X0160374Y0057106D01*
X0160301Y0056952D01*
X0160225Y0056799D01*
X0160146Y0056649D01*
X0160062Y0056500D01*
X0159975Y0056353D01*
X0159885Y0056209D01*
X0159791Y0056067D01*
X0159693Y0055927D01*
X0159592Y0055790D01*
X0159488Y0055655D01*
X0159381Y0055522D01*
X0159270Y0055393D01*
X0159156Y0055266D01*
X0159039Y0055141D01*
X0158920Y0055020D01*
X0158797Y0054902D01*
X0158671Y0054787D01*
X0158543Y0054674D01*
X0158412Y0054565D01*
X0158278Y0054460D01*
X0158142Y0054357D01*
X0158003Y0054258D01*
X0157862Y0054162D01*
X0157719Y0054070D01*
X0157574Y0053981D01*
X0157426Y0053896D01*
X0157276Y0053814D01*
X0157125Y0053736D01*
X0156971Y0053662D01*
X0156816Y0053591D01*
X0156659Y0053525D01*
X0156501Y0053462D01*
X0156341Y0053403D01*
X0156179Y0053348D01*
X0156017Y0053297D01*
X0155853Y0053250D01*
X0155688Y0053207D01*
X0155522Y0053167D01*
X0155355Y0053132D01*
X0155188Y0053101D01*
X0155019Y0053075D01*
X0154850Y0053052D01*
X0154681Y0053033D01*
X0154511Y0053019D01*
X0154341Y0053008D01*
X0154170Y0053002D01*
X0154000Y0053000D01*
X0187725Y0246537D02*
X0187725Y0248307D01*
X0187135Y0248307D02*
X0188315Y0248307D01*
X0188948Y0248307D02*
X0190128Y0246537D01*
X0190761Y0246537D02*
X0191646Y0246537D01*
X0191941Y0246832D01*
X0191941Y0248012D01*
X0191646Y0248307D01*
X0190761Y0248307D01*
X0190761Y0246537D01*
X0188948Y0246537D02*
X0190128Y0248307D01*
D17*
X0280248Y0191155D02*
X0280248Y0190187D01*
X0280731Y0189703D01*
X0282666Y0189703D01*
X0283150Y0190187D01*
X0283150Y0191155D01*
X0282666Y0191638D01*
X0280731Y0191638D02*
X0280248Y0191155D01*
X0280731Y0188692D02*
X0280248Y0188208D01*
X0280248Y0187241D01*
X0280731Y0186757D01*
X0282666Y0186757D01*
X0283150Y0187241D01*
X0283150Y0188208D01*
X0282666Y0188692D01*
X0282183Y0185745D02*
X0280248Y0185745D01*
X0282183Y0185745D02*
X0283150Y0184778D01*
X0282183Y0183810D01*
X0280248Y0183810D01*
X0289310Y0178869D02*
X0289310Y0176934D01*
X0289794Y0176450D01*
X0290762Y0176450D01*
X0291245Y0176934D01*
X0291245Y0177901D01*
X0290278Y0177901D01*
X0291245Y0178869D02*
X0290762Y0179352D01*
X0289794Y0179352D01*
X0289310Y0178869D01*
X0292257Y0179352D02*
X0294192Y0176450D01*
X0294192Y0179352D01*
X0295203Y0179352D02*
X0295203Y0176450D01*
X0296655Y0176450D01*
X0297138Y0176934D01*
X0297138Y0178869D01*
X0296655Y0179352D01*
X0295203Y0179352D01*
X0292257Y0179352D02*
X0292257Y0176450D01*
X0292794Y0195450D02*
X0293762Y0195450D01*
X0294245Y0195934D01*
X0294245Y0196901D01*
X0293278Y0196901D01*
X0292310Y0195934D02*
X0292794Y0195450D01*
X0292310Y0195934D02*
X0292310Y0197869D01*
X0292794Y0198352D01*
X0293762Y0198352D01*
X0294245Y0197869D01*
X0295257Y0198352D02*
X0297192Y0195450D01*
X0297192Y0198352D01*
X0298203Y0198352D02*
X0298203Y0195450D01*
X0299655Y0195450D01*
X0300138Y0195934D01*
X0300138Y0197869D01*
X0299655Y0198352D01*
X0298203Y0198352D01*
X0295257Y0198352D02*
X0295257Y0195450D01*
D18*
X0047500Y0059200D03*
X0047500Y0030800D03*
X0022500Y0094300D03*
X0022500Y0122700D03*
D19*
X0242800Y0220000D03*
X0242800Y0234500D03*
X0271200Y0234500D03*
X0271200Y0220000D03*
M02*
