%
M48
M72
T01C0.01575
T02C0.02400
T03C0.03200
T04C0.03543
T05C0.03600
T06C0.04000
T07C0.05906
T08C0.06693
T09C0.12795
%
T01
X62602Y35400
X62102Y62400
X62102Y88400
X88102Y91400
X116102Y92400
X115102Y40400
X116602Y19400
X94102Y34400
X180102Y96400
X179602Y121400
X205602Y96900
X203102Y53900
X191102Y24900
X264102Y23900
X263602Y67900
X263602Y106400
X246602Y175900
X227102Y204400
X217102Y234900
X242102Y248900
X264102Y225900
X217102Y267400
X198102Y182400
X86102Y182900
X50102Y193900
X53602Y232400
X54102Y270400
T02
X106102Y74900
X106102Y54900
T03
X51602Y19400
X76102Y54900
X86102Y54900
X86102Y74900
X76102Y74900
X96102Y103400
X116102Y103400
X131102Y99900
X131102Y89900
X131102Y79900
X131102Y69900
X131102Y59900
X131102Y49900
X131102Y39900
X131102Y29900
X131102Y19900
X161102Y19900
X161102Y29900
X161102Y39900
X161102Y49900
X161102Y59900
X161102Y69900
X161102Y79900
X161102Y89900
X161102Y99900
X161102Y109900
X161102Y119900
X161102Y129900
X161102Y139900
X161102Y149900
X131102Y149900
X131102Y139900
X131102Y129900
X131102Y119900
X131102Y109900
X110102Y139900
X110102Y179900
X65102Y169900
X59102Y149400
X59102Y139400
X61602Y110900
X51602Y110900
X91602Y19400
X182602Y49900
X182602Y69900
X216354Y119900
X216354Y129900
X216354Y139900
X216354Y149900
X195102Y149900
X195102Y129900
X247850Y129900
X247850Y119900
X247850Y139900
X247850Y149900
X65102Y209900
T04
X91102Y210018
X96102Y220018
X106102Y220018
X101102Y210018
X111102Y210018
X116102Y220018
X121102Y210018
X126102Y220018
X146102Y210018
X156102Y210018
X151102Y220018
X161102Y220018
X166102Y210018
X171102Y220018
X181102Y220018
X176102Y210018
X224260Y98601
X243945Y98601
T05
X90602Y139400
X90602Y149400
T06
X131102Y174900
X141102Y174900
X151102Y174900
X161102Y174900
X171102Y174900
T07
X267102Y129900
X46102Y129900
T08
X75551Y257026
X196653Y257026
T09
X186102Y245018
X86102Y245018
M30
