G75*
%MOIN*%
%OFA0B0*%
%FSLAX25Y25*%
%IPPOS*%
%LPD*%
%AMOC8*
5,1,8,0,0,1.08239X$1,22.5*
%
%ADD10C,0.00400*%
D10*
X0214021Y0165100D02*
X0217090Y0165100D01*
X0217090Y0169704D01*
X0218625Y0169704D02*
X0218625Y0165100D01*
X0221694Y0169704D01*
X0221694Y0165100D01*
X0223229Y0165100D02*
X0223229Y0168169D01*
X0224764Y0169704D01*
X0226298Y0168169D01*
X0226298Y0165100D01*
X0227833Y0165867D02*
X0228600Y0165100D01*
X0230135Y0165100D01*
X0230902Y0165867D01*
X0230902Y0168937D01*
X0230135Y0169704D01*
X0228600Y0169704D01*
X0227833Y0168937D01*
X0226298Y0167402D02*
X0223229Y0167402D01*
X0239021Y0185100D02*
X0239021Y0189704D01*
X0239021Y0187402D02*
X0242090Y0187402D01*
X0242090Y0185100D02*
X0242090Y0189704D01*
X0243625Y0189704D02*
X0243625Y0185100D01*
X0246694Y0189704D01*
X0246694Y0185100D01*
X0248229Y0185100D02*
X0248229Y0188169D01*
X0249764Y0189704D01*
X0251298Y0188169D01*
X0251298Y0185100D01*
X0252833Y0185867D02*
X0253600Y0185100D01*
X0255135Y0185100D01*
X0255902Y0185867D01*
X0255902Y0188937D01*
X0255135Y0189704D01*
X0253600Y0189704D01*
X0252833Y0188937D01*
X0251298Y0187402D02*
X0248229Y0187402D01*
M02*
