G75*
%MOIN*%
%OFA0B0*%
%FSLAX25Y25*%
%IPPOS*%
%LPD*%
%AMOC8*
5,1,8,0,0,1.08239X$1,22.5*
%
%ADD10R,0.05906X0.01969*%
%ADD11R,0.01969X0.05906*%
D10*
X0082665Y0049752D03*
X0082665Y0052902D03*
X0082665Y0056051D03*
X0082665Y0059201D03*
X0082665Y0062350D03*
X0082665Y0065500D03*
X0082665Y0068650D03*
X0082665Y0071799D03*
X0082665Y0074949D03*
X0082665Y0078098D03*
X0082665Y0081248D03*
X0128335Y0081248D03*
X0128335Y0078098D03*
X0128335Y0074949D03*
X0128335Y0071799D03*
X0128335Y0068650D03*
X0128335Y0065500D03*
X0128335Y0062350D03*
X0128335Y0059201D03*
X0128335Y0056051D03*
X0128335Y0052902D03*
X0128335Y0049752D03*
D11*
X0121248Y0042665D03*
X0118098Y0042665D03*
X0114949Y0042665D03*
X0111799Y0042665D03*
X0108650Y0042665D03*
X0105500Y0042665D03*
X0102350Y0042665D03*
X0099201Y0042665D03*
X0096051Y0042665D03*
X0092902Y0042665D03*
X0089752Y0042665D03*
X0089752Y0088335D03*
X0092902Y0088335D03*
X0096051Y0088335D03*
X0099201Y0088335D03*
X0102350Y0088335D03*
X0105500Y0088335D03*
X0108650Y0088335D03*
X0111799Y0088335D03*
X0114949Y0088335D03*
X0118098Y0088335D03*
X0121248Y0088335D03*
M02*
