G75*
%MOIN*%
%OFA0B0*%
%FSLAX25Y25*%
%IPPOS*%
%LPD*%
%AMOC8*
5,1,8,0,0,1.08239X$1,22.5*
%
%ADD10C,0.08674*%
%ADD11OC8,0.05162*%
%ADD12C,0.05950*%
%ADD13C,0.06400*%
%ADD14C,0.06800*%
%ADD15C,0.07887*%
%ADD16C,0.05800*%
%ADD17OC8,0.05556*%
%ADD18R,0.05950X0.05950*%
%ADD19C,0.10091*%
%ADD20C,0.04769*%
%ADD21R,0.07887X0.07887*%
%ADD22R,0.09855X0.09855*%
%ADD23C,0.07887*%
%ADD24OC8,0.05950*%
D10*
X0014000Y0015732D03*
X0014000Y0156732D03*
X0288500Y0144232D03*
X0350500Y0088732D03*
D11*
X0170500Y0062024D03*
X0150500Y0062024D03*
X0076500Y0095500D03*
X0061500Y0081000D03*
X0041500Y0081000D03*
X0037000Y0059000D03*
X0027000Y0059000D03*
X0027000Y0039000D03*
X0037000Y0039000D03*
X0076500Y0115500D03*
X0046500Y0137500D03*
X0026500Y0137500D03*
X0139000Y0233500D03*
X0159000Y0233500D03*
X0283000Y0231000D03*
X0303000Y0231000D03*
D12*
X0129000Y0198075D02*
X0129000Y0192925D01*
X0119000Y0192925D02*
X0119000Y0198075D01*
X0109000Y0198075D02*
X0109000Y0192925D01*
X0099000Y0192925D02*
X0099000Y0198075D01*
X0089000Y0198075D02*
X0089000Y0192925D01*
X0086575Y0233500D02*
X0081425Y0233500D01*
X0081425Y0243500D02*
X0086575Y0243500D01*
X0086575Y0253500D02*
X0081425Y0253500D01*
D13*
X0084000Y0140300D02*
X0084000Y0134700D01*
X0074000Y0134700D02*
X0074000Y0140300D01*
D14*
X0174752Y0223500D02*
X0180752Y0223500D01*
X0180752Y0233500D02*
X0174752Y0233500D01*
X0174752Y0243500D02*
X0180752Y0243500D01*
X0180752Y0253500D02*
X0174752Y0253500D01*
X0206248Y0253500D02*
X0212248Y0253500D01*
X0212248Y0243500D02*
X0206248Y0243500D01*
X0206248Y0233500D02*
X0212248Y0233500D01*
X0212248Y0223500D02*
X0206248Y0223500D01*
D15*
X0328165Y0187665D03*
X0349819Y0187665D03*
X0355724Y0245146D03*
D16*
X0328697Y0199476D02*
X0323697Y0199476D01*
X0317535Y0190165D02*
X0317535Y0185165D01*
X0320547Y0175854D02*
X0325547Y0175854D01*
D17*
X0265000Y0231000D03*
X0265000Y0245500D03*
X0225000Y0245500D03*
X0225000Y0231000D03*
X0102500Y0162732D03*
X0084000Y0163000D03*
X0044000Y0163000D03*
X0102500Y0122732D03*
D18*
X0045362Y0214445D03*
X0055362Y0218461D03*
X0045362Y0222476D03*
X0055362Y0226492D03*
X0045362Y0230508D03*
X0055362Y0234524D03*
X0045362Y0238539D03*
X0055362Y0242555D03*
D19*
X0036307Y0258028D03*
X0036307Y0198972D03*
D20*
X0056016Y0059083D02*
X0059984Y0059083D01*
X0059984Y0039083D02*
X0056016Y0039083D01*
D21*
X0327772Y0230185D03*
X0327772Y0243177D03*
D22*
X0326197Y0258925D03*
D23*
X0259988Y0195543D02*
X0259988Y0188457D01*
X0171012Y0188457D02*
X0171012Y0195543D01*
D24*
X0210528Y0067024D03*
X0220528Y0067024D03*
X0230528Y0067024D03*
X0240528Y0067024D03*
X0250528Y0067024D03*
X0260528Y0067024D03*
X0270528Y0067024D03*
X0280528Y0067024D03*
X0290528Y0067024D03*
X0300528Y0067024D03*
X0310528Y0067024D03*
X0320528Y0067024D03*
X0330528Y0067024D03*
X0340528Y0067024D03*
X0350528Y0067024D03*
X0350528Y0057024D03*
X0340528Y0057024D03*
X0330528Y0057024D03*
X0320528Y0057024D03*
X0310528Y0057024D03*
X0300528Y0057024D03*
X0290528Y0057024D03*
X0280528Y0057024D03*
X0270528Y0057024D03*
X0260528Y0057024D03*
X0250528Y0057024D03*
X0240528Y0057024D03*
X0230528Y0057024D03*
X0220528Y0057024D03*
X0210528Y0057024D03*
M02*
