G75*
%MOIN*%
%OFA0B0*%
%FSLAX25Y25*%
%IPPOS*%
%LPD*%
%AMOC8*
5,1,8,0,0,1.08239X$1,22.5*
%
%ADD10OC8,0.04362*%
%ADD11C,0.05150*%
%ADD12C,0.05600*%
%ADD13C,0.06000*%
%ADD14C,0.05000*%
%ADD15OC8,0.04756*%
%ADD16R,0.05150X0.05150*%
%ADD17C,0.03969*%
%ADD18R,0.07087X0.07087*%
%ADD19R,0.09055X0.09055*%
%ADD20C,0.07087*%
%ADD21OC8,0.05150*%
%ADD22C,0.01600*%
%ADD23R,0.03175X0.03175*%
%ADD24R,0.03962X0.03962*%
%ADD25C,0.03962*%
D10*
X0027000Y0039000D03*
X0037000Y0039000D03*
X0037000Y0059000D03*
X0027000Y0059000D03*
X0041500Y0081000D03*
X0061500Y0081000D03*
X0076500Y0095500D03*
X0076500Y0115500D03*
X0046500Y0137500D03*
X0026500Y0137500D03*
X0150500Y0062024D03*
X0170500Y0062024D03*
X0283000Y0231000D03*
X0303000Y0231000D03*
X0159000Y0233500D03*
X0139000Y0233500D03*
D11*
X0129000Y0198075D02*
X0129000Y0192925D01*
X0119000Y0192925D02*
X0119000Y0198075D01*
X0109000Y0198075D02*
X0109000Y0192925D01*
X0099000Y0192925D02*
X0099000Y0198075D01*
X0089000Y0198075D02*
X0089000Y0192925D01*
X0086575Y0233500D02*
X0081425Y0233500D01*
X0081425Y0243500D02*
X0086575Y0243500D01*
X0086575Y0253500D02*
X0081425Y0253500D01*
D12*
X0084000Y0140300D02*
X0084000Y0134700D01*
X0074000Y0134700D02*
X0074000Y0140300D01*
D13*
X0174752Y0223500D02*
X0180752Y0223500D01*
X0180752Y0233500D02*
X0174752Y0233500D01*
X0174752Y0243500D02*
X0180752Y0243500D01*
X0180752Y0253500D02*
X0174752Y0253500D01*
X0206248Y0253500D02*
X0212248Y0253500D01*
X0212248Y0243500D02*
X0206248Y0243500D01*
X0206248Y0233500D02*
X0212248Y0233500D01*
X0212248Y0223500D02*
X0206248Y0223500D01*
D14*
X0177752Y0233500D02*
X0159000Y0233500D01*
X0150500Y0209000D01*
X0150500Y0211500D01*
X0099500Y0211500D01*
X0055362Y0226492D01*
X0055362Y0234524D01*
X0055362Y0242555D01*
X0099000Y0211000D02*
X0099000Y0195500D01*
X0098994Y0195041D01*
X0098978Y0194582D01*
X0098950Y0194124D01*
X0098911Y0193666D01*
X0098861Y0193210D01*
X0098801Y0192755D01*
X0098729Y0192301D01*
X0098646Y0191850D01*
X0098552Y0191400D01*
X0098448Y0190953D01*
X0098333Y0190509D01*
X0098207Y0190067D01*
X0098070Y0189629D01*
X0097923Y0189194D01*
X0097765Y0188763D01*
X0097597Y0188335D01*
X0097419Y0187912D01*
X0097231Y0187493D01*
X0097032Y0187079D01*
X0096824Y0186670D01*
X0096605Y0186266D01*
X0096377Y0185868D01*
X0096140Y0185475D01*
X0095893Y0185088D01*
X0095637Y0184707D01*
X0095371Y0184332D01*
X0095097Y0183964D01*
X0094814Y0183602D01*
X0094522Y0183248D01*
X0094222Y0182901D01*
X0093913Y0182561D01*
X0093596Y0182228D01*
X0093272Y0181904D01*
X0092939Y0181587D01*
X0092599Y0181278D01*
X0092252Y0180978D01*
X0091898Y0180686D01*
X0091536Y0180403D01*
X0091168Y0180129D01*
X0090793Y0179863D01*
X0090412Y0179607D01*
X0090025Y0179360D01*
X0089632Y0179123D01*
X0089234Y0178895D01*
X0088830Y0178676D01*
X0088421Y0178468D01*
X0088007Y0178269D01*
X0087588Y0178081D01*
X0087165Y0177903D01*
X0086737Y0177735D01*
X0086306Y0177577D01*
X0085871Y0177430D01*
X0085433Y0177293D01*
X0084991Y0177167D01*
X0084547Y0177052D01*
X0084100Y0176948D01*
X0083650Y0176854D01*
X0083199Y0176771D01*
X0082745Y0176699D01*
X0082290Y0176639D01*
X0081834Y0176589D01*
X0081376Y0176550D01*
X0080918Y0176522D01*
X0080459Y0176506D01*
X0080000Y0176500D01*
X0074500Y0176500D01*
X0074186Y0176496D01*
X0073872Y0176485D01*
X0073558Y0176466D01*
X0073245Y0176439D01*
X0072933Y0176405D01*
X0072622Y0176364D01*
X0072311Y0176314D01*
X0072002Y0176258D01*
X0071695Y0176194D01*
X0071389Y0176122D01*
X0071085Y0176043D01*
X0070783Y0175957D01*
X0070483Y0175864D01*
X0070185Y0175763D01*
X0069890Y0175655D01*
X0069598Y0175540D01*
X0069308Y0175418D01*
X0069022Y0175289D01*
X0068739Y0175154D01*
X0068459Y0175011D01*
X0068182Y0174862D01*
X0067910Y0174706D01*
X0067641Y0174543D01*
X0067376Y0174374D01*
X0067115Y0174199D01*
X0066859Y0174017D01*
X0066607Y0173830D01*
X0066360Y0173636D01*
X0066117Y0173436D01*
X0065879Y0173231D01*
X0065647Y0173019D01*
X0065419Y0172803D01*
X0065197Y0172581D01*
X0064981Y0172353D01*
X0064769Y0172121D01*
X0064564Y0171883D01*
X0064364Y0171640D01*
X0064170Y0171393D01*
X0063983Y0171141D01*
X0063801Y0170885D01*
X0063626Y0170624D01*
X0063457Y0170359D01*
X0063294Y0170090D01*
X0063138Y0169818D01*
X0062989Y0169541D01*
X0062846Y0169261D01*
X0062711Y0168978D01*
X0062582Y0168692D01*
X0062460Y0168402D01*
X0062345Y0168110D01*
X0062237Y0167815D01*
X0062136Y0167517D01*
X0062043Y0167217D01*
X0061957Y0166915D01*
X0061878Y0166611D01*
X0061806Y0166305D01*
X0061742Y0165998D01*
X0061686Y0165689D01*
X0061636Y0165378D01*
X0061595Y0165067D01*
X0061561Y0164755D01*
X0061534Y0164442D01*
X0061515Y0164128D01*
X0061504Y0163814D01*
X0061500Y0163500D01*
X0061500Y0081000D01*
X0150500Y0062024D02*
X0150500Y0194000D01*
X0153000Y0192000D01*
X0171012Y0192000D01*
X0150500Y0194000D02*
X0150500Y0209000D01*
X0099500Y0211500D02*
X0099456Y0211498D01*
X0099413Y0211492D01*
X0099371Y0211483D01*
X0099329Y0211470D01*
X0099289Y0211453D01*
X0099250Y0211433D01*
X0099213Y0211410D01*
X0099179Y0211383D01*
X0099146Y0211354D01*
X0099117Y0211321D01*
X0099090Y0211287D01*
X0099067Y0211250D01*
X0099047Y0211211D01*
X0099030Y0211171D01*
X0099017Y0211129D01*
X0099008Y0211087D01*
X0099002Y0211044D01*
X0099000Y0211000D01*
X0061500Y0163500D02*
X0061498Y0163456D01*
X0061492Y0163413D01*
X0061483Y0163371D01*
X0061470Y0163329D01*
X0061453Y0163289D01*
X0061433Y0163250D01*
X0061410Y0163213D01*
X0061383Y0163179D01*
X0061354Y0163146D01*
X0061321Y0163117D01*
X0061287Y0163090D01*
X0061250Y0163067D01*
X0061211Y0163047D01*
X0061171Y0163030D01*
X0061129Y0163017D01*
X0061087Y0163008D01*
X0061044Y0163002D01*
X0061000Y0163000D01*
X0044000Y0163000D01*
X0259988Y0192000D02*
X0300000Y0192000D01*
X0300000Y0202413D01*
X0300000Y0192000D02*
X0300002Y0191869D01*
X0300008Y0191738D01*
X0300018Y0191608D01*
X0300032Y0191477D01*
X0300049Y0191348D01*
X0300071Y0191219D01*
X0300097Y0191090D01*
X0300126Y0190963D01*
X0300159Y0190836D01*
X0300196Y0190710D01*
X0300237Y0190586D01*
X0300282Y0190463D01*
X0300330Y0190341D01*
X0300382Y0190221D01*
X0300437Y0190102D01*
X0300497Y0189985D01*
X0300559Y0189870D01*
X0300625Y0189757D01*
X0300695Y0189646D01*
X0300767Y0189537D01*
X0300843Y0189431D01*
X0300923Y0189327D01*
X0301005Y0189225D01*
X0301090Y0189125D01*
X0301179Y0189029D01*
X0301270Y0188935D01*
X0301364Y0188844D01*
X0301460Y0188755D01*
X0301560Y0188670D01*
X0301662Y0188588D01*
X0301766Y0188508D01*
X0301872Y0188432D01*
X0301981Y0188360D01*
X0302092Y0188290D01*
X0302205Y0188224D01*
X0302320Y0188162D01*
X0302437Y0188102D01*
X0302556Y0188047D01*
X0302676Y0187995D01*
X0302798Y0187947D01*
X0302921Y0187902D01*
X0303045Y0187861D01*
X0303171Y0187824D01*
X0303298Y0187791D01*
X0303425Y0187762D01*
X0303554Y0187736D01*
X0303683Y0187714D01*
X0303812Y0187697D01*
X0303943Y0187683D01*
X0304073Y0187673D01*
X0304204Y0187667D01*
X0304335Y0187665D01*
X0317535Y0187665D01*
X0317535Y0190165D02*
X0317535Y0185165D01*
X0320547Y0175854D02*
X0325547Y0175854D01*
X0323697Y0199476D02*
X0328697Y0199476D01*
X0300000Y0202413D02*
X0300008Y0203084D01*
X0300032Y0203755D01*
X0300073Y0204425D01*
X0300130Y0205093D01*
X0300202Y0205761D01*
X0300291Y0206426D01*
X0300396Y0207089D01*
X0300517Y0207749D01*
X0300654Y0208406D01*
X0300807Y0209059D01*
X0300975Y0209709D01*
X0301160Y0210354D01*
X0301359Y0210995D01*
X0301574Y0211631D01*
X0301805Y0212261D01*
X0302050Y0212886D01*
X0302311Y0213504D01*
X0302586Y0214116D01*
X0302876Y0214721D01*
X0303181Y0215319D01*
X0303500Y0215910D01*
X0303833Y0216492D01*
X0304181Y0217067D01*
X0304542Y0217632D01*
X0304916Y0218189D01*
X0305304Y0218737D01*
X0305705Y0219275D01*
X0306119Y0219803D01*
X0306545Y0220322D01*
X0306984Y0220829D01*
X0307435Y0221326D01*
X0307898Y0221812D01*
X0308373Y0222287D01*
X0308859Y0222750D01*
X0309356Y0223201D01*
X0309863Y0223640D01*
X0310382Y0224066D01*
X0310910Y0224480D01*
X0311448Y0224881D01*
X0311996Y0225269D01*
X0312553Y0225643D01*
X0313118Y0226004D01*
X0313693Y0226352D01*
X0314275Y0226685D01*
X0314866Y0227004D01*
X0315464Y0227309D01*
X0316069Y0227599D01*
X0316681Y0227874D01*
X0317299Y0228135D01*
X0317924Y0228380D01*
X0318554Y0228611D01*
X0319190Y0228826D01*
X0319831Y0229025D01*
X0320476Y0229210D01*
X0321126Y0229378D01*
X0321779Y0229531D01*
X0322436Y0229668D01*
X0323096Y0229789D01*
X0323759Y0229894D01*
X0324424Y0229983D01*
X0325092Y0230055D01*
X0325760Y0230112D01*
X0326430Y0230153D01*
X0327101Y0230177D01*
X0327772Y0230185D01*
D15*
X0265000Y0231000D03*
X0265000Y0245500D03*
X0225000Y0245500D03*
X0225000Y0231000D03*
X0102500Y0162732D03*
X0084000Y0163000D03*
X0044000Y0163000D03*
X0102500Y0122732D03*
D16*
X0045362Y0214445D03*
X0055362Y0218461D03*
X0045362Y0222476D03*
X0055362Y0226492D03*
X0045362Y0230508D03*
X0055362Y0234524D03*
X0045362Y0238539D03*
X0055362Y0242555D03*
D17*
X0056016Y0059083D02*
X0059984Y0059083D01*
X0059984Y0039083D02*
X0056016Y0039083D01*
D18*
X0327772Y0230185D03*
X0327772Y0243177D03*
D19*
X0326197Y0258925D03*
D20*
X0259988Y0195543D02*
X0259988Y0188457D01*
X0171012Y0188457D02*
X0171012Y0195543D01*
D21*
X0210528Y0067024D03*
X0220528Y0067024D03*
X0230528Y0067024D03*
X0240528Y0067024D03*
X0250528Y0067024D03*
X0260528Y0067024D03*
X0270528Y0067024D03*
X0280528Y0067024D03*
X0290528Y0067024D03*
X0300528Y0067024D03*
X0310528Y0067024D03*
X0320528Y0067024D03*
X0330528Y0067024D03*
X0340528Y0067024D03*
X0350528Y0067024D03*
X0350528Y0057024D03*
X0340528Y0057024D03*
X0330528Y0057024D03*
X0320528Y0057024D03*
X0310528Y0057024D03*
X0300528Y0057024D03*
X0290528Y0057024D03*
X0280528Y0057024D03*
X0270528Y0057024D03*
X0260528Y0057024D03*
X0250528Y0057024D03*
X0240528Y0057024D03*
X0230528Y0057024D03*
X0220528Y0057024D03*
X0210528Y0057024D03*
D22*
X0005800Y0012698D02*
X0005800Y0005800D01*
X0362342Y0005800D01*
X0362342Y0239964D01*
X0360451Y0238073D01*
X0357384Y0236802D01*
X0354065Y0236802D01*
X0350998Y0238073D01*
X0348651Y0240420D01*
X0347381Y0243486D01*
X0347381Y0246805D01*
X0348651Y0249872D01*
X0350096Y0251316D01*
X0331492Y0251316D01*
X0329635Y0252085D01*
X0329123Y0252598D01*
X0326676Y0252598D01*
X0326676Y0258446D01*
X0325717Y0258446D01*
X0319869Y0258446D01*
X0319869Y0254161D01*
X0319992Y0253703D01*
X0320229Y0253292D01*
X0320564Y0252957D01*
X0320975Y0252720D01*
X0321432Y0252598D01*
X0325717Y0252598D01*
X0325717Y0258446D01*
X0325717Y0259405D01*
X0319869Y0259405D01*
X0319869Y0263661D01*
X0044032Y0263661D01*
X0044315Y0263378D01*
X0045753Y0259906D01*
X0045753Y0256149D01*
X0044315Y0252677D01*
X0041658Y0250020D01*
X0038186Y0248582D01*
X0034428Y0248582D01*
X0030957Y0250020D01*
X0028299Y0252677D01*
X0026861Y0256149D01*
X0026861Y0259906D01*
X0028299Y0263378D01*
X0028582Y0263661D01*
X0005800Y0263661D01*
X0005800Y0159767D01*
X0006593Y0161681D01*
X0009051Y0164139D01*
X0012262Y0165469D01*
X0015738Y0165469D01*
X0018949Y0164139D01*
X0021407Y0161681D01*
X0022737Y0158470D01*
X0022737Y0154994D01*
X0021407Y0151783D01*
X0018949Y0149325D01*
X0015738Y0147995D01*
X0012262Y0147995D01*
X0009051Y0149325D01*
X0006593Y0151783D01*
X0005800Y0153698D01*
X0005800Y0018767D01*
X0006593Y0020681D01*
X0009051Y0023139D01*
X0012262Y0024469D01*
X0015738Y0024469D01*
X0018949Y0023139D01*
X0021407Y0020681D01*
X0022737Y0017470D01*
X0022737Y0013994D01*
X0021407Y0010783D01*
X0018949Y0008325D01*
X0015738Y0006995D01*
X0012262Y0006995D01*
X0009051Y0008325D01*
X0006593Y0010783D01*
X0005800Y0012698D01*
X0005800Y0012190D02*
X0006011Y0012190D01*
X0005800Y0010591D02*
X0006785Y0010591D01*
X0005800Y0008993D02*
X0008384Y0008993D01*
X0005800Y0007394D02*
X0011299Y0007394D01*
X0016701Y0007394D02*
X0362342Y0007394D01*
X0362342Y0008993D02*
X0346787Y0008993D01*
X0348073Y0009286D02*
X0343398Y0008219D01*
X0130082Y0008219D01*
X0122366Y0009580D01*
X0115002Y0012260D01*
X0108216Y0016177D01*
X0108216Y0016177D01*
X0102214Y0021214D01*
X0102214Y0021214D01*
X0097177Y0027216D01*
X0097177Y0027216D01*
X0093260Y0034002D01*
X0093260Y0034002D01*
X0090580Y0041366D01*
X0090580Y0041366D01*
X0089227Y0049038D01*
X0089198Y0049038D01*
X0088038Y0050198D01*
X0088038Y0055802D01*
X0089198Y0056962D01*
X0093538Y0056962D01*
X0093538Y0057302D01*
X0094698Y0058462D01*
X0116802Y0058462D01*
X0117962Y0057302D01*
X0117962Y0051698D01*
X0116874Y0050610D01*
X0116910Y0049881D01*
X0117932Y0044744D01*
X0119936Y0039905D01*
X0122846Y0035550D01*
X0126550Y0031846D01*
X0130905Y0028936D01*
X0135744Y0026932D01*
X0140881Y0025910D01*
X0143500Y0025781D01*
X0284500Y0025781D01*
X0287266Y0025917D01*
X0292692Y0026996D01*
X0297802Y0029113D01*
X0302402Y0032186D01*
X0306313Y0036098D01*
X0309387Y0040698D01*
X0311504Y0045808D01*
X0312583Y0051234D01*
X0312655Y0052709D01*
X0312415Y0052468D01*
X0308640Y0052468D01*
X0305972Y0055137D01*
X0305972Y0058911D01*
X0308640Y0061580D01*
X0312415Y0061580D01*
X0312719Y0061275D01*
X0312719Y0062772D01*
X0312415Y0062468D01*
X0308640Y0062468D01*
X0305972Y0065137D01*
X0305972Y0068911D01*
X0308640Y0071580D01*
X0312415Y0071580D01*
X0314315Y0069679D01*
X0315972Y0068505D01*
X0315972Y0068911D01*
X0318640Y0071580D01*
X0322415Y0071580D01*
X0324315Y0069679D01*
X0325972Y0068505D01*
X0325972Y0068911D01*
X0328640Y0071580D01*
X0332415Y0071580D01*
X0334315Y0069679D01*
X0335972Y0068505D01*
X0335972Y0068911D01*
X0338640Y0071580D01*
X0342415Y0071580D01*
X0345083Y0068911D01*
X0345083Y0068878D01*
X0345972Y0068159D01*
X0345972Y0068911D01*
X0348640Y0071580D01*
X0352415Y0071580D01*
X0354189Y0069805D01*
X0356429Y0069805D01*
X0359114Y0068693D01*
X0359114Y0068693D01*
X0361169Y0066638D01*
X0361169Y0066638D01*
X0362281Y0063953D01*
X0362281Y0027102D01*
X0361214Y0022427D01*
X0361214Y0022427D01*
X0359133Y0018106D01*
X0359133Y0018106D01*
X0356143Y0014357D01*
X0356143Y0014357D01*
X0356143Y0014357D01*
X0352394Y0011367D01*
X0352394Y0011367D01*
X0348073Y0009286D01*
X0348073Y0009286D01*
X0350783Y0010591D02*
X0362342Y0010591D01*
X0362342Y0012190D02*
X0353426Y0012190D01*
X0355430Y0013788D02*
X0362342Y0013788D01*
X0362342Y0015387D02*
X0356964Y0015387D01*
X0358239Y0016985D02*
X0362342Y0016985D01*
X0362342Y0018584D02*
X0359363Y0018584D01*
X0360133Y0020182D02*
X0362342Y0020182D01*
X0362342Y0021781D02*
X0360903Y0021781D01*
X0361431Y0023379D02*
X0362342Y0023379D01*
X0362342Y0024978D02*
X0361796Y0024978D01*
X0362161Y0026576D02*
X0362342Y0026576D01*
X0362342Y0028175D02*
X0362281Y0028175D01*
X0362281Y0029773D02*
X0362342Y0029773D01*
X0362342Y0031372D02*
X0362281Y0031372D01*
X0362281Y0032970D02*
X0362342Y0032970D01*
X0362342Y0034569D02*
X0362281Y0034569D01*
X0362281Y0036167D02*
X0362342Y0036167D01*
X0362342Y0037766D02*
X0362281Y0037766D01*
X0362281Y0039364D02*
X0362342Y0039364D01*
X0362342Y0040963D02*
X0362281Y0040963D01*
X0362281Y0042561D02*
X0362342Y0042561D01*
X0362342Y0044160D02*
X0362281Y0044160D01*
X0362281Y0045758D02*
X0362342Y0045758D01*
X0362342Y0047357D02*
X0362281Y0047357D01*
X0362281Y0048955D02*
X0362342Y0048955D01*
X0362342Y0050554D02*
X0362281Y0050554D01*
X0362281Y0052152D02*
X0362342Y0052152D01*
X0362342Y0053751D02*
X0362281Y0053751D01*
X0362281Y0055349D02*
X0362342Y0055349D01*
X0362342Y0056948D02*
X0362281Y0056948D01*
X0362281Y0058546D02*
X0362342Y0058546D01*
X0362342Y0060145D02*
X0362281Y0060145D01*
X0362281Y0061743D02*
X0362342Y0061743D01*
X0362342Y0063342D02*
X0362281Y0063342D01*
X0362342Y0064940D02*
X0361872Y0064940D01*
X0362342Y0066539D02*
X0361210Y0066539D01*
X0362342Y0068137D02*
X0359669Y0068137D01*
X0362342Y0069736D02*
X0356595Y0069736D01*
X0354976Y0067024D02*
X0350528Y0067024D01*
X0346797Y0069736D02*
X0344258Y0069736D01*
X0342660Y0071334D02*
X0348395Y0071334D01*
X0352660Y0071334D02*
X0362342Y0071334D01*
X0362342Y0072933D02*
X0154981Y0072933D01*
X0154981Y0071334D02*
X0208395Y0071334D01*
X0208640Y0071580D02*
X0205972Y0068911D01*
X0205972Y0065137D01*
X0208640Y0062468D01*
X0212415Y0062468D01*
X0215083Y0065137D01*
X0215083Y0068911D01*
X0212415Y0071580D01*
X0208640Y0071580D01*
X0206797Y0069736D02*
X0154981Y0069736D01*
X0154981Y0068137D02*
X0205972Y0068137D01*
X0205972Y0066539D02*
X0154981Y0066539D01*
X0154981Y0064940D02*
X0167787Y0064940D01*
X0168851Y0066005D02*
X0166519Y0063673D01*
X0166519Y0062024D01*
X0170500Y0062024D01*
X0170500Y0066005D01*
X0172149Y0066005D01*
X0174481Y0063673D01*
X0174481Y0062024D01*
X0170500Y0062024D01*
X0170500Y0062024D01*
X0170500Y0066005D01*
X0168851Y0066005D01*
X0170500Y0064940D02*
X0170500Y0064940D01*
X0170500Y0063342D02*
X0170500Y0063342D01*
X0170500Y0062024D02*
X0170500Y0062024D01*
X0170500Y0062024D01*
X0174481Y0062024D01*
X0174481Y0060375D01*
X0172149Y0058043D01*
X0170500Y0058043D01*
X0170500Y0062023D01*
X0170500Y0062023D01*
X0170500Y0058043D01*
X0168851Y0058043D01*
X0166519Y0060375D01*
X0166519Y0062024D01*
X0170500Y0062024D01*
X0170500Y0061743D02*
X0170500Y0061743D01*
X0170500Y0060145D02*
X0170500Y0060145D01*
X0170500Y0058546D02*
X0170500Y0058546D01*
X0172653Y0058546D02*
X0205972Y0058546D01*
X0205972Y0058911D02*
X0205972Y0055137D01*
X0208640Y0052468D01*
X0212415Y0052468D01*
X0215083Y0055137D01*
X0215083Y0058911D01*
X0212415Y0061580D01*
X0208640Y0061580D01*
X0205972Y0058911D01*
X0207206Y0060145D02*
X0174251Y0060145D01*
X0174481Y0061743D02*
X0312719Y0061743D01*
X0315500Y0063500D02*
X0315498Y0063621D01*
X0315492Y0063741D01*
X0315482Y0063862D01*
X0315469Y0063982D01*
X0315451Y0064101D01*
X0315430Y0064220D01*
X0315405Y0064339D01*
X0315376Y0064456D01*
X0315343Y0064572D01*
X0315306Y0064687D01*
X0315266Y0064801D01*
X0315222Y0064914D01*
X0315175Y0065025D01*
X0315123Y0065134D01*
X0315069Y0065242D01*
X0315011Y0065348D01*
X0314949Y0065452D01*
X0314885Y0065554D01*
X0314816Y0065654D01*
X0314745Y0065751D01*
X0314671Y0065847D01*
X0314593Y0065939D01*
X0314513Y0066030D01*
X0314430Y0066117D01*
X0314344Y0066202D01*
X0314255Y0066284D01*
X0314164Y0066363D01*
X0314070Y0066439D01*
X0313974Y0066512D01*
X0313875Y0066582D01*
X0313774Y0066649D01*
X0313671Y0066712D01*
X0313566Y0066772D01*
X0313460Y0066828D01*
X0313351Y0066882D01*
X0313241Y0066931D01*
X0313129Y0066977D01*
X0313016Y0067019D01*
X0312901Y0067058D01*
X0312786Y0067093D01*
X0312669Y0067124D01*
X0312551Y0067151D01*
X0312433Y0067175D01*
X0312314Y0067194D01*
X0312194Y0067210D01*
X0312074Y0067222D01*
X0311953Y0067230D01*
X0311832Y0067234D01*
X0311712Y0067235D01*
X0311591Y0067231D01*
X0311470Y0067223D01*
X0311350Y0067212D01*
X0311230Y0067196D01*
X0311111Y0067177D01*
X0310992Y0067154D01*
X0310874Y0067127D01*
X0310758Y0067097D01*
X0310642Y0067062D01*
X0310527Y0067024D01*
X0305972Y0066539D02*
X0305083Y0066539D01*
X0305083Y0065137D02*
X0302415Y0062468D01*
X0298640Y0062468D01*
X0295972Y0065137D01*
X0295972Y0068911D01*
X0298640Y0071580D01*
X0302415Y0071580D01*
X0305083Y0068911D01*
X0305083Y0065137D01*
X0304887Y0064940D02*
X0306168Y0064940D01*
X0307766Y0063342D02*
X0303289Y0063342D01*
X0302415Y0061580D02*
X0298640Y0061580D01*
X0295972Y0058911D01*
X0295972Y0055137D01*
X0298640Y0052468D01*
X0302415Y0052468D01*
X0305083Y0055137D01*
X0305083Y0058911D01*
X0302415Y0061580D01*
X0303849Y0060145D02*
X0307206Y0060145D01*
X0305972Y0058546D02*
X0305083Y0058546D01*
X0305083Y0056948D02*
X0305972Y0056948D01*
X0305972Y0055349D02*
X0305083Y0055349D01*
X0345500Y0054000D02*
X0345488Y0053033D01*
X0345453Y0052067D01*
X0345395Y0051103D01*
X0345313Y0050139D01*
X0345208Y0049179D01*
X0345080Y0048220D01*
X0344929Y0047266D01*
X0344755Y0046315D01*
X0344558Y0045369D01*
X0344338Y0044427D01*
X0344095Y0043492D01*
X0343830Y0042562D01*
X0343542Y0041639D01*
X0343232Y0040724D01*
X0342901Y0039816D01*
X0342547Y0038916D01*
X0342172Y0038025D01*
X0341775Y0037144D01*
X0341357Y0036272D01*
X0340918Y0035411D01*
X0340459Y0034561D01*
X0339979Y0033722D01*
X0339479Y0032894D01*
X0338959Y0032079D01*
X0338419Y0031277D01*
X0337861Y0030489D01*
X0337283Y0029713D01*
X0336687Y0028953D01*
X0336073Y0028206D01*
X0335440Y0027475D01*
X0334791Y0026759D01*
X0334124Y0026060D01*
X0333440Y0025376D01*
X0332741Y0024709D01*
X0332025Y0024060D01*
X0331294Y0023427D01*
X0330547Y0022813D01*
X0329787Y0022217D01*
X0329011Y0021639D01*
X0328223Y0021081D01*
X0327421Y0020541D01*
X0326606Y0020021D01*
X0325778Y0019521D01*
X0324939Y0019041D01*
X0324089Y0018582D01*
X0323228Y0018143D01*
X0322356Y0017725D01*
X0321475Y0017328D01*
X0320584Y0016953D01*
X0319684Y0016599D01*
X0318776Y0016268D01*
X0317861Y0015958D01*
X0316938Y0015670D01*
X0316008Y0015405D01*
X0315073Y0015162D01*
X0314131Y0014942D01*
X0313185Y0014745D01*
X0312234Y0014571D01*
X0311280Y0014420D01*
X0310321Y0014292D01*
X0309361Y0014187D01*
X0308397Y0014105D01*
X0307433Y0014047D01*
X0306467Y0014012D01*
X0305500Y0014000D01*
X0136500Y0014000D01*
X0134000Y0011000D02*
X0341000Y0011000D01*
X0341447Y0011005D01*
X0341894Y0011022D01*
X0342340Y0011049D01*
X0342786Y0011086D01*
X0343230Y0011135D01*
X0343673Y0011194D01*
X0344115Y0011264D01*
X0344554Y0011345D01*
X0344992Y0011436D01*
X0345427Y0011538D01*
X0345860Y0011650D01*
X0346290Y0011772D01*
X0346717Y0011905D01*
X0347140Y0012049D01*
X0347560Y0012202D01*
X0347976Y0012366D01*
X0348388Y0012539D01*
X0348796Y0012723D01*
X0349199Y0012916D01*
X0349597Y0013119D01*
X0349991Y0013332D01*
X0350379Y0013554D01*
X0350761Y0013785D01*
X0351138Y0014025D01*
X0351509Y0014275D01*
X0351874Y0014533D01*
X0352233Y0014800D01*
X0352584Y0015076D01*
X0352930Y0015360D01*
X0353268Y0015653D01*
X0353599Y0015953D01*
X0353922Y0016261D01*
X0354239Y0016578D01*
X0354547Y0016901D01*
X0354847Y0017232D01*
X0355140Y0017570D01*
X0355424Y0017916D01*
X0355700Y0018267D01*
X0355967Y0018626D01*
X0356225Y0018991D01*
X0356475Y0019362D01*
X0356715Y0019739D01*
X0356946Y0020121D01*
X0357168Y0020509D01*
X0357381Y0020903D01*
X0357584Y0021301D01*
X0357777Y0021704D01*
X0357961Y0022112D01*
X0358134Y0022524D01*
X0358298Y0022940D01*
X0358451Y0023360D01*
X0358595Y0023783D01*
X0358728Y0024210D01*
X0358850Y0024640D01*
X0358962Y0025073D01*
X0359064Y0025508D01*
X0359155Y0025946D01*
X0359236Y0026385D01*
X0359306Y0026827D01*
X0359365Y0027270D01*
X0359414Y0027714D01*
X0359451Y0028160D01*
X0359478Y0028606D01*
X0359495Y0029053D01*
X0359500Y0029500D01*
X0359500Y0062500D01*
X0359498Y0062632D01*
X0359492Y0062763D01*
X0359483Y0062894D01*
X0359469Y0063025D01*
X0359452Y0063156D01*
X0359431Y0063286D01*
X0359407Y0063415D01*
X0359378Y0063543D01*
X0359346Y0063671D01*
X0359310Y0063797D01*
X0359270Y0063923D01*
X0359227Y0064047D01*
X0359180Y0064170D01*
X0359130Y0064292D01*
X0359076Y0064412D01*
X0359019Y0064530D01*
X0358958Y0064647D01*
X0358894Y0064762D01*
X0358826Y0064875D01*
X0358756Y0064986D01*
X0358682Y0065095D01*
X0358605Y0065202D01*
X0358525Y0065306D01*
X0358442Y0065408D01*
X0358356Y0065508D01*
X0358267Y0065605D01*
X0358175Y0065699D01*
X0358081Y0065791D01*
X0357984Y0065880D01*
X0357884Y0065966D01*
X0357782Y0066049D01*
X0357678Y0066129D01*
X0357571Y0066206D01*
X0357462Y0066280D01*
X0357351Y0066350D01*
X0357238Y0066418D01*
X0357123Y0066482D01*
X0357006Y0066543D01*
X0356888Y0066600D01*
X0356768Y0066654D01*
X0356646Y0066704D01*
X0356523Y0066751D01*
X0356399Y0066794D01*
X0356273Y0066834D01*
X0356147Y0066870D01*
X0356019Y0066902D01*
X0355891Y0066931D01*
X0355762Y0066955D01*
X0355632Y0066976D01*
X0355501Y0066993D01*
X0355370Y0067007D01*
X0355239Y0067016D01*
X0355108Y0067022D01*
X0354976Y0067024D01*
X0345500Y0063000D02*
X0345500Y0054000D01*
X0345500Y0063000D02*
X0345498Y0063126D01*
X0345492Y0063252D01*
X0345483Y0063378D01*
X0345469Y0063504D01*
X0345452Y0063629D01*
X0345430Y0063754D01*
X0345405Y0063877D01*
X0345376Y0064000D01*
X0345344Y0064123D01*
X0345308Y0064243D01*
X0345268Y0064363D01*
X0345224Y0064482D01*
X0345177Y0064599D01*
X0345126Y0064715D01*
X0345071Y0064829D01*
X0345013Y0064941D01*
X0344952Y0065051D01*
X0344887Y0065160D01*
X0344819Y0065266D01*
X0344748Y0065371D01*
X0344674Y0065473D01*
X0344596Y0065573D01*
X0344516Y0065670D01*
X0344433Y0065765D01*
X0344346Y0065857D01*
X0344257Y0065947D01*
X0344165Y0066033D01*
X0344071Y0066117D01*
X0343974Y0066198D01*
X0343874Y0066276D01*
X0343773Y0066351D01*
X0343669Y0066423D01*
X0343563Y0066491D01*
X0343454Y0066556D01*
X0343344Y0066618D01*
X0343232Y0066676D01*
X0343118Y0066731D01*
X0343003Y0066783D01*
X0342886Y0066831D01*
X0342768Y0066875D01*
X0342648Y0066916D01*
X0342527Y0066952D01*
X0342406Y0066986D01*
X0342283Y0067015D01*
X0342159Y0067041D01*
X0342035Y0067063D01*
X0341910Y0067081D01*
X0341784Y0067095D01*
X0341658Y0067105D01*
X0341532Y0067111D01*
X0341406Y0067114D01*
X0341279Y0067113D01*
X0341153Y0067107D01*
X0341027Y0067098D01*
X0340901Y0067085D01*
X0340776Y0067069D01*
X0340652Y0067048D01*
X0340528Y0067023D01*
X0336797Y0069736D02*
X0334258Y0069736D01*
X0332660Y0071334D02*
X0338395Y0071334D01*
X0328395Y0071334D02*
X0322660Y0071334D01*
X0324258Y0069736D02*
X0326797Y0069736D01*
X0325500Y0063500D02*
X0325500Y0054000D01*
X0335500Y0054000D02*
X0335500Y0063500D01*
X0335498Y0063621D01*
X0335492Y0063741D01*
X0335482Y0063862D01*
X0335469Y0063982D01*
X0335451Y0064101D01*
X0335430Y0064220D01*
X0335405Y0064339D01*
X0335376Y0064456D01*
X0335343Y0064572D01*
X0335306Y0064687D01*
X0335266Y0064801D01*
X0335222Y0064914D01*
X0335175Y0065025D01*
X0335123Y0065134D01*
X0335069Y0065242D01*
X0335011Y0065348D01*
X0334949Y0065452D01*
X0334885Y0065554D01*
X0334816Y0065654D01*
X0334745Y0065751D01*
X0334671Y0065847D01*
X0334593Y0065939D01*
X0334513Y0066030D01*
X0334430Y0066117D01*
X0334344Y0066202D01*
X0334255Y0066284D01*
X0334164Y0066363D01*
X0334070Y0066439D01*
X0333974Y0066512D01*
X0333875Y0066582D01*
X0333774Y0066649D01*
X0333671Y0066712D01*
X0333566Y0066772D01*
X0333460Y0066828D01*
X0333351Y0066882D01*
X0333241Y0066931D01*
X0333129Y0066977D01*
X0333016Y0067019D01*
X0332901Y0067058D01*
X0332786Y0067093D01*
X0332669Y0067124D01*
X0332551Y0067151D01*
X0332433Y0067175D01*
X0332314Y0067194D01*
X0332194Y0067210D01*
X0332074Y0067222D01*
X0331953Y0067230D01*
X0331832Y0067234D01*
X0331712Y0067235D01*
X0331591Y0067231D01*
X0331470Y0067223D01*
X0331350Y0067212D01*
X0331230Y0067196D01*
X0331111Y0067177D01*
X0330992Y0067154D01*
X0330874Y0067127D01*
X0330758Y0067097D01*
X0330642Y0067062D01*
X0330527Y0067024D01*
X0325500Y0063500D02*
X0325498Y0063621D01*
X0325492Y0063741D01*
X0325482Y0063862D01*
X0325469Y0063982D01*
X0325451Y0064101D01*
X0325430Y0064220D01*
X0325405Y0064339D01*
X0325376Y0064456D01*
X0325343Y0064572D01*
X0325306Y0064687D01*
X0325266Y0064801D01*
X0325222Y0064914D01*
X0325175Y0065025D01*
X0325123Y0065134D01*
X0325069Y0065242D01*
X0325011Y0065348D01*
X0324949Y0065452D01*
X0324885Y0065554D01*
X0324816Y0065654D01*
X0324745Y0065751D01*
X0324671Y0065847D01*
X0324593Y0065939D01*
X0324513Y0066030D01*
X0324430Y0066117D01*
X0324344Y0066202D01*
X0324255Y0066284D01*
X0324164Y0066363D01*
X0324070Y0066439D01*
X0323974Y0066512D01*
X0323875Y0066582D01*
X0323774Y0066649D01*
X0323671Y0066712D01*
X0323566Y0066772D01*
X0323460Y0066828D01*
X0323351Y0066882D01*
X0323241Y0066931D01*
X0323129Y0066977D01*
X0323016Y0067019D01*
X0322901Y0067058D01*
X0322786Y0067093D01*
X0322669Y0067124D01*
X0322551Y0067151D01*
X0322433Y0067175D01*
X0322314Y0067194D01*
X0322194Y0067210D01*
X0322074Y0067222D01*
X0321953Y0067230D01*
X0321832Y0067234D01*
X0321712Y0067235D01*
X0321591Y0067231D01*
X0321470Y0067223D01*
X0321350Y0067212D01*
X0321230Y0067196D01*
X0321111Y0067177D01*
X0320992Y0067154D01*
X0320874Y0067127D01*
X0320758Y0067097D01*
X0320642Y0067062D01*
X0320527Y0067024D01*
X0316797Y0069736D02*
X0314258Y0069736D01*
X0312660Y0071334D02*
X0318395Y0071334D01*
X0315500Y0063500D02*
X0315500Y0054000D01*
X0312628Y0052152D02*
X0117962Y0052152D01*
X0117962Y0053751D02*
X0207357Y0053751D01*
X0205972Y0055349D02*
X0117962Y0055349D01*
X0117962Y0056948D02*
X0205972Y0056948D01*
X0207766Y0063342D02*
X0174481Y0063342D01*
X0173213Y0064940D02*
X0206168Y0064940D01*
X0213289Y0063342D02*
X0217766Y0063342D01*
X0218640Y0062468D02*
X0222415Y0062468D01*
X0225083Y0065137D01*
X0225083Y0068911D01*
X0222415Y0071580D01*
X0218640Y0071580D01*
X0215972Y0068911D01*
X0215972Y0065137D01*
X0218640Y0062468D01*
X0218640Y0061580D02*
X0215972Y0058911D01*
X0215972Y0055137D01*
X0218640Y0052468D01*
X0222415Y0052468D01*
X0225083Y0055137D01*
X0225083Y0058911D01*
X0222415Y0061580D01*
X0218640Y0061580D01*
X0217206Y0060145D02*
X0213849Y0060145D01*
X0215083Y0058546D02*
X0215972Y0058546D01*
X0215972Y0056948D02*
X0215083Y0056948D01*
X0215083Y0055349D02*
X0215972Y0055349D01*
X0217357Y0053751D02*
X0213698Y0053751D01*
X0223698Y0053751D02*
X0227357Y0053751D01*
X0228640Y0052468D02*
X0232415Y0052468D01*
X0235083Y0055137D01*
X0235083Y0058911D01*
X0232415Y0061580D01*
X0228640Y0061580D01*
X0225972Y0058911D01*
X0225972Y0055137D01*
X0228640Y0052468D01*
X0225972Y0055349D02*
X0225083Y0055349D01*
X0225083Y0056948D02*
X0225972Y0056948D01*
X0225972Y0058546D02*
X0225083Y0058546D01*
X0223849Y0060145D02*
X0227206Y0060145D01*
X0228640Y0062468D02*
X0232415Y0062468D01*
X0235083Y0065137D01*
X0235083Y0068911D01*
X0232415Y0071580D01*
X0228640Y0071580D01*
X0225972Y0068911D01*
X0225972Y0065137D01*
X0228640Y0062468D01*
X0227766Y0063342D02*
X0223289Y0063342D01*
X0224887Y0064940D02*
X0226168Y0064940D01*
X0225972Y0066539D02*
X0225083Y0066539D01*
X0225083Y0068137D02*
X0225972Y0068137D01*
X0226797Y0069736D02*
X0224258Y0069736D01*
X0222660Y0071334D02*
X0228395Y0071334D01*
X0232660Y0071334D02*
X0238395Y0071334D01*
X0238640Y0071580D02*
X0235972Y0068911D01*
X0235972Y0065137D01*
X0238640Y0062468D01*
X0242415Y0062468D01*
X0245083Y0065137D01*
X0245083Y0068911D01*
X0242415Y0071580D01*
X0238640Y0071580D01*
X0236797Y0069736D02*
X0234258Y0069736D01*
X0235083Y0068137D02*
X0235972Y0068137D01*
X0235972Y0066539D02*
X0235083Y0066539D01*
X0234887Y0064940D02*
X0236168Y0064940D01*
X0237766Y0063342D02*
X0233289Y0063342D01*
X0233849Y0060145D02*
X0237206Y0060145D01*
X0235972Y0058911D02*
X0235972Y0055137D01*
X0238640Y0052468D01*
X0242415Y0052468D01*
X0245083Y0055137D01*
X0245083Y0058911D01*
X0242415Y0061580D01*
X0238640Y0061580D01*
X0235972Y0058911D01*
X0235972Y0058546D02*
X0235083Y0058546D01*
X0235083Y0056948D02*
X0235972Y0056948D01*
X0235972Y0055349D02*
X0235083Y0055349D01*
X0233698Y0053751D02*
X0237357Y0053751D01*
X0243698Y0053751D02*
X0247357Y0053751D01*
X0248640Y0052468D02*
X0252415Y0052468D01*
X0255083Y0055137D01*
X0255083Y0058911D01*
X0252415Y0061580D01*
X0248640Y0061580D01*
X0245972Y0058911D01*
X0245972Y0055137D01*
X0248640Y0052468D01*
X0245972Y0055349D02*
X0245083Y0055349D01*
X0245083Y0056948D02*
X0245972Y0056948D01*
X0245972Y0058546D02*
X0245083Y0058546D01*
X0243849Y0060145D02*
X0247206Y0060145D01*
X0248640Y0062468D02*
X0252415Y0062468D01*
X0255083Y0065137D01*
X0255083Y0068911D01*
X0252415Y0071580D01*
X0248640Y0071580D01*
X0245972Y0068911D01*
X0245972Y0065137D01*
X0248640Y0062468D01*
X0247766Y0063342D02*
X0243289Y0063342D01*
X0244887Y0064940D02*
X0246168Y0064940D01*
X0245972Y0066539D02*
X0245083Y0066539D01*
X0245083Y0068137D02*
X0245972Y0068137D01*
X0246797Y0069736D02*
X0244258Y0069736D01*
X0242660Y0071334D02*
X0248395Y0071334D01*
X0252660Y0071334D02*
X0258395Y0071334D01*
X0258640Y0071580D02*
X0255972Y0068911D01*
X0255972Y0065137D01*
X0258640Y0062468D01*
X0262415Y0062468D01*
X0265083Y0065137D01*
X0265083Y0068911D01*
X0262415Y0071580D01*
X0258640Y0071580D01*
X0256797Y0069736D02*
X0254258Y0069736D01*
X0255083Y0068137D02*
X0255972Y0068137D01*
X0255972Y0066539D02*
X0255083Y0066539D01*
X0254887Y0064940D02*
X0256168Y0064940D01*
X0257766Y0063342D02*
X0253289Y0063342D01*
X0253849Y0060145D02*
X0257206Y0060145D01*
X0255972Y0058911D02*
X0258640Y0061580D01*
X0262415Y0061580D01*
X0265083Y0058911D01*
X0265083Y0055137D01*
X0262415Y0052468D01*
X0258640Y0052468D01*
X0255972Y0055137D01*
X0255972Y0058911D01*
X0255972Y0058546D02*
X0255083Y0058546D01*
X0255083Y0056948D02*
X0255972Y0056948D01*
X0255972Y0055349D02*
X0255083Y0055349D01*
X0253698Y0053751D02*
X0257357Y0053751D01*
X0263698Y0053751D02*
X0267357Y0053751D01*
X0268640Y0052468D02*
X0265972Y0055137D01*
X0265972Y0058911D01*
X0268640Y0061580D01*
X0272415Y0061580D01*
X0275083Y0058911D01*
X0275083Y0055137D01*
X0272415Y0052468D01*
X0268640Y0052468D01*
X0265972Y0055349D02*
X0265083Y0055349D01*
X0265083Y0056948D02*
X0265972Y0056948D01*
X0265972Y0058546D02*
X0265083Y0058546D01*
X0263849Y0060145D02*
X0267206Y0060145D01*
X0268640Y0062468D02*
X0272415Y0062468D01*
X0275083Y0065137D01*
X0275083Y0068911D01*
X0272415Y0071580D01*
X0268640Y0071580D01*
X0265972Y0068911D01*
X0265972Y0065137D01*
X0268640Y0062468D01*
X0267766Y0063342D02*
X0263289Y0063342D01*
X0264887Y0064940D02*
X0266168Y0064940D01*
X0265972Y0066539D02*
X0265083Y0066539D01*
X0265083Y0068137D02*
X0265972Y0068137D01*
X0266797Y0069736D02*
X0264258Y0069736D01*
X0262660Y0071334D02*
X0268395Y0071334D01*
X0272660Y0071334D02*
X0278395Y0071334D01*
X0278640Y0071580D02*
X0275972Y0068911D01*
X0275972Y0065137D01*
X0278640Y0062468D01*
X0282415Y0062468D01*
X0285083Y0065137D01*
X0285083Y0068911D01*
X0282415Y0071580D01*
X0278640Y0071580D01*
X0276797Y0069736D02*
X0274258Y0069736D01*
X0275083Y0068137D02*
X0275972Y0068137D01*
X0275972Y0066539D02*
X0275083Y0066539D01*
X0274887Y0064940D02*
X0276168Y0064940D01*
X0277766Y0063342D02*
X0273289Y0063342D01*
X0273849Y0060145D02*
X0277206Y0060145D01*
X0275972Y0058911D02*
X0278640Y0061580D01*
X0282415Y0061580D01*
X0285083Y0058911D01*
X0285083Y0055137D01*
X0282415Y0052468D01*
X0278640Y0052468D01*
X0275972Y0055137D01*
X0275972Y0058911D01*
X0275972Y0058546D02*
X0275083Y0058546D01*
X0275083Y0056948D02*
X0275972Y0056948D01*
X0275972Y0055349D02*
X0275083Y0055349D01*
X0273698Y0053751D02*
X0277357Y0053751D01*
X0283698Y0053751D02*
X0287357Y0053751D01*
X0288640Y0052468D02*
X0292415Y0052468D01*
X0295083Y0055137D01*
X0295083Y0058911D01*
X0292415Y0061580D01*
X0288640Y0061580D01*
X0285972Y0058911D01*
X0285972Y0055137D01*
X0288640Y0052468D01*
X0291500Y0020000D02*
X0292322Y0020010D01*
X0293143Y0020040D01*
X0293963Y0020089D01*
X0294781Y0020159D01*
X0295598Y0020248D01*
X0296413Y0020357D01*
X0297224Y0020485D01*
X0298032Y0020633D01*
X0298837Y0020801D01*
X0299637Y0020988D01*
X0300432Y0021194D01*
X0301222Y0021420D01*
X0302007Y0021664D01*
X0302785Y0021927D01*
X0303557Y0022209D01*
X0304321Y0022510D01*
X0305078Y0022829D01*
X0305828Y0023166D01*
X0306569Y0023521D01*
X0307301Y0023894D01*
X0308023Y0024285D01*
X0308737Y0024693D01*
X0309440Y0025118D01*
X0310132Y0025560D01*
X0310814Y0026019D01*
X0311485Y0026493D01*
X0312144Y0026984D01*
X0312790Y0027491D01*
X0313425Y0028013D01*
X0314046Y0028551D01*
X0314655Y0029103D01*
X0315249Y0029670D01*
X0315830Y0030251D01*
X0316397Y0030845D01*
X0316949Y0031454D01*
X0317487Y0032075D01*
X0318009Y0032710D01*
X0318516Y0033356D01*
X0319007Y0034015D01*
X0319481Y0034686D01*
X0319940Y0035368D01*
X0320382Y0036060D01*
X0320807Y0036763D01*
X0321215Y0037477D01*
X0321606Y0038199D01*
X0321979Y0038931D01*
X0322334Y0039672D01*
X0322671Y0040422D01*
X0322990Y0041179D01*
X0323291Y0041943D01*
X0323573Y0042715D01*
X0323836Y0043493D01*
X0324080Y0044278D01*
X0324306Y0045068D01*
X0324512Y0045863D01*
X0324699Y0046663D01*
X0324867Y0047468D01*
X0325015Y0048276D01*
X0325143Y0049087D01*
X0325252Y0049902D01*
X0325341Y0050719D01*
X0325411Y0051537D01*
X0325460Y0052357D01*
X0325490Y0053178D01*
X0325500Y0054000D01*
X0312448Y0050554D02*
X0116877Y0050554D01*
X0117094Y0048955D02*
X0312130Y0048955D01*
X0311812Y0047357D02*
X0117412Y0047357D01*
X0117730Y0045758D02*
X0311483Y0045758D01*
X0310821Y0044160D02*
X0118174Y0044160D01*
X0118836Y0042561D02*
X0310159Y0042561D01*
X0309497Y0040963D02*
X0119498Y0040963D01*
X0120297Y0039364D02*
X0308496Y0039364D01*
X0307428Y0037766D02*
X0121365Y0037766D01*
X0122433Y0036167D02*
X0306360Y0036167D01*
X0304784Y0034569D02*
X0123827Y0034569D01*
X0125425Y0032970D02*
X0303186Y0032970D01*
X0301182Y0031372D02*
X0127260Y0031372D01*
X0129652Y0029773D02*
X0298790Y0029773D01*
X0295537Y0028175D02*
X0132743Y0028175D01*
X0137531Y0026576D02*
X0290580Y0026576D01*
X0284500Y0023000D02*
X0143500Y0023000D01*
X0142000Y0020000D02*
X0291500Y0020000D01*
X0298500Y0017000D02*
X0140000Y0017000D01*
X0125695Y0008993D02*
X0019616Y0008993D01*
X0021215Y0010591D02*
X0119586Y0010591D01*
X0115195Y0012190D02*
X0021989Y0012190D01*
X0022652Y0013788D02*
X0112355Y0013788D01*
X0109586Y0015387D02*
X0022737Y0015387D01*
X0022737Y0016985D02*
X0107254Y0016985D01*
X0105349Y0018584D02*
X0022276Y0018584D01*
X0021614Y0020182D02*
X0103444Y0020182D01*
X0101739Y0021781D02*
X0020308Y0021781D01*
X0018370Y0023379D02*
X0100397Y0023379D01*
X0099056Y0024978D02*
X0005800Y0024978D01*
X0005800Y0026576D02*
X0097715Y0026576D01*
X0096624Y0028175D02*
X0005800Y0028175D01*
X0005800Y0029773D02*
X0095701Y0029773D01*
X0094778Y0031372D02*
X0005800Y0031372D01*
X0005800Y0032970D02*
X0093855Y0032970D01*
X0093053Y0034569D02*
X0005800Y0034569D01*
X0005800Y0036167D02*
X0024203Y0036167D01*
X0025351Y0035019D02*
X0023019Y0037351D01*
X0023019Y0039000D01*
X0027000Y0039000D01*
X0030981Y0039000D01*
X0030981Y0040649D01*
X0028649Y0042981D01*
X0027000Y0042981D01*
X0027000Y0039000D01*
X0027000Y0039000D01*
X0027000Y0039000D01*
X0030981Y0039000D01*
X0030981Y0037351D01*
X0028649Y0035019D01*
X0027000Y0035019D01*
X0027000Y0039000D01*
X0027000Y0039000D01*
X0027000Y0039000D01*
X0027000Y0042981D01*
X0025351Y0042981D01*
X0023019Y0040649D01*
X0023019Y0039000D01*
X0027000Y0039000D01*
X0027000Y0035019D01*
X0025351Y0035019D01*
X0027000Y0036167D02*
X0027000Y0036167D01*
X0027000Y0037766D02*
X0027000Y0037766D01*
X0027000Y0039364D02*
X0027000Y0039364D01*
X0027000Y0040963D02*
X0027000Y0040963D01*
X0027000Y0042561D02*
X0027000Y0042561D01*
X0029069Y0042561D02*
X0034675Y0042561D01*
X0035276Y0043162D02*
X0032838Y0040724D01*
X0032838Y0037276D01*
X0035276Y0034838D01*
X0038724Y0034838D01*
X0041162Y0037276D01*
X0041162Y0040724D01*
X0038724Y0043162D01*
X0035276Y0043162D01*
X0033077Y0040963D02*
X0030667Y0040963D01*
X0030981Y0039364D02*
X0032838Y0039364D01*
X0032838Y0037766D02*
X0030981Y0037766D01*
X0029797Y0036167D02*
X0033947Y0036167D01*
X0040053Y0036167D02*
X0053323Y0036167D01*
X0053770Y0035721D02*
X0055227Y0035117D01*
X0060773Y0035117D01*
X0062230Y0035721D01*
X0063346Y0036836D01*
X0063950Y0038294D01*
X0063950Y0039871D01*
X0063346Y0041329D01*
X0062230Y0042444D01*
X0060773Y0043048D01*
X0055227Y0043048D01*
X0053770Y0042444D01*
X0052654Y0041329D01*
X0052050Y0039871D01*
X0052050Y0038294D01*
X0052654Y0036836D01*
X0053770Y0035721D01*
X0052269Y0037766D02*
X0041162Y0037766D01*
X0041162Y0039364D02*
X0052050Y0039364D01*
X0052502Y0040963D02*
X0040923Y0040963D01*
X0039325Y0042561D02*
X0054052Y0042561D01*
X0061948Y0042561D02*
X0090369Y0042561D01*
X0090087Y0044160D02*
X0005800Y0044160D01*
X0005800Y0045758D02*
X0089805Y0045758D01*
X0089523Y0047357D02*
X0005800Y0047357D01*
X0005800Y0048955D02*
X0089241Y0048955D01*
X0088038Y0050554D02*
X0005800Y0050554D01*
X0005800Y0052152D02*
X0088038Y0052152D01*
X0088038Y0053751D02*
X0005800Y0053751D01*
X0005800Y0055349D02*
X0025020Y0055349D01*
X0025351Y0055019D02*
X0027000Y0055019D01*
X0028649Y0055019D01*
X0030981Y0057351D01*
X0030981Y0059000D01*
X0030981Y0060649D01*
X0028649Y0062981D01*
X0027000Y0062981D01*
X0027000Y0059000D01*
X0030981Y0059000D01*
X0027000Y0059000D01*
X0027000Y0059000D01*
X0027000Y0059000D01*
X0027000Y0055019D01*
X0027000Y0059000D01*
X0027000Y0059000D01*
X0027000Y0059000D01*
X0023019Y0059000D01*
X0023019Y0060649D01*
X0025351Y0062981D01*
X0027000Y0062981D01*
X0027000Y0059000D01*
X0023019Y0059000D01*
X0023019Y0057351D01*
X0025351Y0055019D01*
X0027000Y0055349D02*
X0027000Y0055349D01*
X0027000Y0056948D02*
X0027000Y0056948D01*
X0027000Y0058546D02*
X0027000Y0058546D01*
X0027000Y0060145D02*
X0027000Y0060145D01*
X0027000Y0061743D02*
X0027000Y0061743D01*
X0029887Y0061743D02*
X0033857Y0061743D01*
X0032838Y0060724D02*
X0032838Y0057276D01*
X0035276Y0054838D01*
X0038724Y0054838D01*
X0041162Y0057276D01*
X0041162Y0060724D01*
X0038724Y0063162D01*
X0035276Y0063162D01*
X0032838Y0060724D01*
X0032838Y0060145D02*
X0030981Y0060145D01*
X0030981Y0058546D02*
X0032838Y0058546D01*
X0033166Y0056948D02*
X0030578Y0056948D01*
X0028980Y0055349D02*
X0034764Y0055349D01*
X0039236Y0055349D02*
X0054667Y0055349D01*
X0055227Y0055117D02*
X0053770Y0055721D01*
X0052654Y0056836D01*
X0052050Y0058294D01*
X0052050Y0059871D01*
X0052654Y0061329D01*
X0053770Y0062444D01*
X0055227Y0063048D01*
X0060773Y0063048D01*
X0062230Y0062444D01*
X0063346Y0061329D01*
X0063950Y0059871D01*
X0063950Y0058294D01*
X0063346Y0056836D01*
X0062230Y0055721D01*
X0060773Y0055117D01*
X0055227Y0055117D01*
X0052608Y0056948D02*
X0040834Y0056948D01*
X0041162Y0058546D02*
X0052050Y0058546D01*
X0052164Y0060145D02*
X0041162Y0060145D01*
X0040143Y0061743D02*
X0053069Y0061743D01*
X0062931Y0061743D02*
X0146019Y0061743D01*
X0146019Y0061132D02*
X0146338Y0060362D01*
X0146338Y0060300D01*
X0146382Y0060255D01*
X0146701Y0059485D01*
X0147962Y0058225D01*
X0148732Y0057906D01*
X0148776Y0057861D01*
X0148839Y0057861D01*
X0149609Y0057543D01*
X0151391Y0057543D01*
X0152161Y0057861D01*
X0152224Y0057861D01*
X0152268Y0057906D01*
X0153038Y0058225D01*
X0154299Y0059485D01*
X0154618Y0060255D01*
X0154662Y0060300D01*
X0154662Y0060362D01*
X0154981Y0061132D01*
X0154981Y0187519D01*
X0165487Y0187519D01*
X0165487Y0187358D01*
X0166328Y0185327D01*
X0167882Y0183773D01*
X0169913Y0182932D01*
X0172111Y0182932D01*
X0174141Y0183773D01*
X0175695Y0185327D01*
X0176536Y0187358D01*
X0176536Y0196642D01*
X0175695Y0198673D01*
X0174141Y0200227D01*
X0172111Y0201068D01*
X0169913Y0201068D01*
X0167882Y0200227D01*
X0166328Y0198673D01*
X0165487Y0196642D01*
X0165487Y0196481D01*
X0154981Y0196481D01*
X0154981Y0208245D01*
X0162188Y0229019D01*
X0172554Y0229019D01*
X0173761Y0228519D01*
X0181743Y0228519D01*
X0183574Y0229277D01*
X0184975Y0230678D01*
X0185733Y0232509D01*
X0185733Y0234491D01*
X0184975Y0236322D01*
X0183574Y0237723D01*
X0181743Y0238481D01*
X0173761Y0238481D01*
X0172554Y0237981D01*
X0159755Y0237981D01*
X0159627Y0238026D01*
X0158868Y0237981D01*
X0158109Y0237981D01*
X0157983Y0237929D01*
X0157847Y0237921D01*
X0157313Y0237662D01*
X0157276Y0237662D01*
X0157241Y0237627D01*
X0157163Y0237590D01*
X0156462Y0237299D01*
X0156365Y0237203D01*
X0156243Y0237143D01*
X0155738Y0236575D01*
X0155201Y0236038D01*
X0155149Y0235913D01*
X0155059Y0235811D01*
X0154864Y0235250D01*
X0154838Y0235224D01*
X0154838Y0235174D01*
X0154810Y0235093D01*
X0154519Y0234391D01*
X0154519Y0234255D01*
X0148179Y0215981D01*
X0100240Y0215981D01*
X0059918Y0229677D01*
X0059918Y0229888D01*
X0059843Y0229962D01*
X0059843Y0231053D01*
X0059918Y0231128D01*
X0059918Y0237919D01*
X0059843Y0237994D01*
X0059843Y0239085D01*
X0059918Y0239160D01*
X0059918Y0245951D01*
X0058758Y0247111D01*
X0051967Y0247111D01*
X0050806Y0245951D01*
X0050806Y0239160D01*
X0050881Y0239085D01*
X0050881Y0237994D01*
X0050806Y0237919D01*
X0050806Y0231128D01*
X0050881Y0231053D01*
X0050881Y0229962D01*
X0050806Y0229888D01*
X0050806Y0223097D01*
X0051427Y0222476D01*
X0050806Y0221856D01*
X0050806Y0215065D01*
X0051967Y0213905D01*
X0058758Y0213905D01*
X0059918Y0215065D01*
X0059918Y0220212D01*
X0094519Y0208459D01*
X0094519Y0199162D01*
X0094444Y0198981D01*
X0094444Y0194168D01*
X0094428Y0193874D01*
X0093704Y0190705D01*
X0092294Y0187775D01*
X0090266Y0185234D01*
X0087725Y0183206D01*
X0084795Y0181796D01*
X0081626Y0181072D01*
X0080000Y0180981D01*
X0072199Y0180981D01*
X0067753Y0179790D01*
X0063766Y0177488D01*
X0060512Y0174234D01*
X0060512Y0174234D01*
X0060512Y0174234D01*
X0058210Y0170247D01*
X0057469Y0167481D01*
X0043109Y0167481D01*
X0042814Y0167359D01*
X0042194Y0167359D01*
X0041756Y0166921D01*
X0041462Y0166799D01*
X0040201Y0165538D01*
X0040079Y0165244D01*
X0039641Y0164806D01*
X0039641Y0164186D01*
X0039519Y0163891D01*
X0039519Y0162109D01*
X0039641Y0161814D01*
X0039641Y0161194D01*
X0040079Y0160756D01*
X0040201Y0160462D01*
X0041462Y0159201D01*
X0041756Y0159079D01*
X0042194Y0158641D01*
X0042814Y0158641D01*
X0043109Y0158519D01*
X0057019Y0158519D01*
X0057019Y0080109D01*
X0057338Y0079339D01*
X0057338Y0079276D01*
X0057382Y0079232D01*
X0057701Y0078462D01*
X0058962Y0077201D01*
X0059732Y0076882D01*
X0059776Y0076838D01*
X0059839Y0076838D01*
X0060609Y0076519D01*
X0062391Y0076519D01*
X0063161Y0076838D01*
X0063224Y0076838D01*
X0063268Y0076882D01*
X0064038Y0077201D01*
X0065299Y0078462D01*
X0065618Y0079232D01*
X0065662Y0079276D01*
X0065662Y0079339D01*
X0065981Y0080109D01*
X0065981Y0163500D01*
X0066054Y0164612D01*
X0066630Y0166760D01*
X0067741Y0168686D01*
X0069314Y0170258D01*
X0071240Y0171370D01*
X0073388Y0171946D01*
X0074500Y0172019D01*
X0082646Y0172019D01*
X0087804Y0173196D01*
X0087804Y0173196D01*
X0092572Y0175492D01*
X0096709Y0178791D01*
X0096709Y0178791D01*
X0096709Y0178791D01*
X0100008Y0182928D01*
X0102304Y0187696D01*
X0102965Y0190591D01*
X0103556Y0192019D01*
X0103556Y0198981D01*
X0103481Y0199162D01*
X0103481Y0207019D01*
X0146019Y0207019D01*
X0146019Y0194636D01*
X0145948Y0194391D01*
X0146019Y0193752D01*
X0146019Y0061132D01*
X0146428Y0060145D02*
X0063836Y0060145D01*
X0063950Y0058546D02*
X0147640Y0058546D01*
X0153360Y0058546D02*
X0168347Y0058546D01*
X0166749Y0060145D02*
X0154572Y0060145D01*
X0154981Y0061743D02*
X0166519Y0061743D01*
X0166519Y0063342D02*
X0154981Y0063342D01*
X0146019Y0063342D02*
X0005800Y0063342D01*
X0005800Y0064940D02*
X0146019Y0064940D01*
X0146019Y0066539D02*
X0005800Y0066539D01*
X0005800Y0068137D02*
X0146019Y0068137D01*
X0146019Y0069736D02*
X0005800Y0069736D01*
X0005800Y0071334D02*
X0146019Y0071334D01*
X0146019Y0072933D02*
X0005800Y0072933D01*
X0005800Y0074532D02*
X0146019Y0074532D01*
X0146019Y0076130D02*
X0109394Y0076130D01*
X0109962Y0076698D02*
X0108802Y0075538D01*
X0103198Y0075538D01*
X0102038Y0076698D01*
X0102038Y0078079D01*
X0100675Y0079442D01*
X0100675Y0079442D01*
X0099719Y0081751D01*
X0099719Y0119349D01*
X0098141Y0120927D01*
X0098141Y0124538D01*
X0100694Y0127091D01*
X0104306Y0127091D01*
X0106859Y0124538D01*
X0106859Y0120927D01*
X0105281Y0119349D01*
X0105281Y0083462D01*
X0108802Y0083462D01*
X0109962Y0082302D01*
X0109962Y0076698D01*
X0109962Y0077729D02*
X0146019Y0077729D01*
X0146019Y0079327D02*
X0109962Y0079327D01*
X0109962Y0080926D02*
X0146019Y0080926D01*
X0146019Y0082524D02*
X0109740Y0082524D01*
X0106000Y0079500D02*
X0105883Y0079502D01*
X0105766Y0079508D01*
X0105650Y0079518D01*
X0105533Y0079531D01*
X0105418Y0079549D01*
X0105303Y0079570D01*
X0105189Y0079595D01*
X0105075Y0079624D01*
X0104963Y0079657D01*
X0104852Y0079694D01*
X0104742Y0079734D01*
X0104634Y0079778D01*
X0104527Y0079825D01*
X0104421Y0079876D01*
X0104318Y0079931D01*
X0104216Y0079989D01*
X0104117Y0080050D01*
X0104019Y0080114D01*
X0103924Y0080182D01*
X0103831Y0080253D01*
X0103740Y0080327D01*
X0103652Y0080404D01*
X0103567Y0080484D01*
X0103484Y0080567D01*
X0103404Y0080652D01*
X0103327Y0080740D01*
X0103253Y0080831D01*
X0103182Y0080924D01*
X0103114Y0081019D01*
X0103050Y0081117D01*
X0102989Y0081216D01*
X0102931Y0081318D01*
X0102876Y0081421D01*
X0102825Y0081527D01*
X0102778Y0081634D01*
X0102734Y0081742D01*
X0102694Y0081852D01*
X0102657Y0081963D01*
X0102624Y0082075D01*
X0102595Y0082189D01*
X0102570Y0082303D01*
X0102549Y0082418D01*
X0102531Y0082533D01*
X0102518Y0082650D01*
X0102508Y0082766D01*
X0102502Y0082883D01*
X0102500Y0083000D01*
X0102500Y0122732D01*
X0105713Y0125684D02*
X0116219Y0125684D01*
X0116219Y0127282D02*
X0065981Y0127282D01*
X0065981Y0125684D02*
X0099287Y0125684D01*
X0098141Y0124085D02*
X0065981Y0124085D01*
X0065981Y0122487D02*
X0098141Y0122487D01*
X0098179Y0120888D02*
X0065981Y0120888D01*
X0065981Y0119290D02*
X0074660Y0119290D01*
X0074851Y0119481D02*
X0072519Y0117149D01*
X0072519Y0115500D01*
X0076500Y0115500D01*
X0076500Y0115500D01*
X0076500Y0119481D01*
X0078149Y0119481D01*
X0080481Y0117149D01*
X0080481Y0115500D01*
X0076500Y0115500D01*
X0076500Y0115500D01*
X0076500Y0115500D01*
X0076500Y0119481D01*
X0074851Y0119481D01*
X0076500Y0119290D02*
X0076500Y0119290D01*
X0076500Y0117691D02*
X0076500Y0117691D01*
X0076500Y0116093D02*
X0076500Y0116093D01*
X0076500Y0115500D02*
X0072519Y0115500D01*
X0072519Y0113851D01*
X0074851Y0111519D01*
X0076500Y0111519D01*
X0078149Y0111519D01*
X0080481Y0113851D01*
X0080481Y0115500D01*
X0076500Y0115500D01*
X0076500Y0111519D01*
X0076500Y0115500D01*
X0076500Y0115500D01*
X0076500Y0114494D02*
X0076500Y0114494D01*
X0076500Y0112896D02*
X0076500Y0112896D01*
X0079526Y0112896D02*
X0099719Y0112896D01*
X0099719Y0114494D02*
X0080481Y0114494D01*
X0080481Y0116093D02*
X0099719Y0116093D01*
X0099719Y0117691D02*
X0079939Y0117691D01*
X0078340Y0119290D02*
X0099719Y0119290D01*
X0105281Y0119290D02*
X0116219Y0119290D01*
X0116219Y0120888D02*
X0106821Y0120888D01*
X0106859Y0122487D02*
X0116219Y0122487D01*
X0116219Y0124085D02*
X0106859Y0124085D01*
X0116219Y0128881D02*
X0065981Y0128881D01*
X0065981Y0130479D02*
X0071696Y0130479D01*
X0071292Y0130647D02*
X0073049Y0129919D01*
X0074951Y0129919D01*
X0076708Y0130647D01*
X0078053Y0131992D01*
X0078781Y0133749D01*
X0078781Y0141251D01*
X0078053Y0143008D01*
X0076708Y0144353D01*
X0074951Y0145081D01*
X0073049Y0145081D01*
X0071292Y0144353D01*
X0069947Y0143008D01*
X0069219Y0141251D01*
X0069219Y0133749D01*
X0069947Y0131992D01*
X0071292Y0130647D01*
X0069911Y0132078D02*
X0065981Y0132078D01*
X0065981Y0133676D02*
X0069249Y0133676D01*
X0069219Y0135275D02*
X0065981Y0135275D01*
X0065981Y0136873D02*
X0069219Y0136873D01*
X0069219Y0138472D02*
X0065981Y0138472D01*
X0065981Y0140070D02*
X0069219Y0140070D01*
X0069392Y0141669D02*
X0065981Y0141669D01*
X0065981Y0143268D02*
X0070206Y0143268D01*
X0072530Y0144866D02*
X0065981Y0144866D01*
X0065981Y0146465D02*
X0116219Y0146465D01*
X0116219Y0148063D02*
X0065981Y0148063D01*
X0065981Y0149662D02*
X0116219Y0149662D01*
X0116219Y0151260D02*
X0065981Y0151260D01*
X0065981Y0152859D02*
X0116219Y0152859D01*
X0116219Y0154457D02*
X0065981Y0154457D01*
X0065981Y0156056D02*
X0116219Y0156056D01*
X0116219Y0157654D02*
X0065981Y0157654D01*
X0065981Y0159253D02*
X0081583Y0159253D01*
X0082194Y0158641D02*
X0079641Y0161194D01*
X0079641Y0164806D01*
X0082194Y0167359D01*
X0085806Y0167359D01*
X0087433Y0165732D01*
X0099165Y0165562D01*
X0100694Y0167091D01*
X0104306Y0167091D01*
X0106859Y0164538D01*
X0106859Y0160927D01*
X0104306Y0158373D01*
X0100694Y0158373D01*
X0099067Y0160001D01*
X0087335Y0160170D01*
X0085806Y0158641D01*
X0082194Y0158641D01*
X0079984Y0160851D02*
X0065981Y0160851D01*
X0065981Y0162450D02*
X0079641Y0162450D01*
X0079641Y0164048D02*
X0066017Y0164048D01*
X0066331Y0165647D02*
X0080482Y0165647D01*
X0082081Y0167245D02*
X0066910Y0167245D01*
X0067899Y0168844D02*
X0116219Y0168844D01*
X0116219Y0170442D02*
X0069632Y0170442D01*
X0063114Y0176836D02*
X0005800Y0176836D01*
X0005800Y0175238D02*
X0061516Y0175238D01*
X0060168Y0173639D02*
X0005800Y0173639D01*
X0005800Y0172041D02*
X0059246Y0172041D01*
X0058323Y0170442D02*
X0005800Y0170442D01*
X0005800Y0168844D02*
X0057834Y0168844D01*
X0058210Y0170247D02*
X0058210Y0170247D01*
X0063766Y0177488D02*
X0063766Y0177488D01*
X0065406Y0178435D02*
X0005800Y0178435D01*
X0005800Y0180033D02*
X0068661Y0180033D01*
X0082741Y0172041D02*
X0116219Y0172041D01*
X0116219Y0173639D02*
X0088724Y0173639D01*
X0092043Y0175238D02*
X0116219Y0175238D01*
X0116219Y0176836D02*
X0094257Y0176836D01*
X0092572Y0175492D02*
X0092572Y0175492D01*
X0096262Y0178435D02*
X0116219Y0178435D01*
X0116219Y0180033D02*
X0097699Y0180033D01*
X0098974Y0181632D02*
X0116219Y0181632D01*
X0116219Y0183230D02*
X0100153Y0183230D01*
X0100008Y0182928D02*
X0100008Y0182928D01*
X0100923Y0184829D02*
X0116219Y0184829D01*
X0116219Y0186427D02*
X0101693Y0186427D01*
X0102304Y0187696D02*
X0102304Y0187696D01*
X0102379Y0188026D02*
X0116219Y0188026D01*
X0116219Y0189263D02*
X0116219Y0108462D01*
X0116198Y0108462D01*
X0115038Y0107302D01*
X0115038Y0101698D01*
X0116198Y0100538D01*
X0121802Y0100538D01*
X0122962Y0101698D01*
X0122962Y0107302D01*
X0121802Y0108462D01*
X0121781Y0108462D01*
X0121781Y0189263D01*
X0122862Y0190344D01*
X0123556Y0192019D01*
X0123556Y0198981D01*
X0122862Y0200656D01*
X0121581Y0201937D01*
X0119906Y0202631D01*
X0118094Y0202631D01*
X0116419Y0201937D01*
X0115138Y0200656D01*
X0114444Y0198981D01*
X0114444Y0192019D01*
X0115138Y0190344D01*
X0116219Y0189263D01*
X0115858Y0189624D02*
X0111886Y0189624D01*
X0111850Y0189588D02*
X0112337Y0190075D01*
X0112742Y0190632D01*
X0113054Y0191246D01*
X0113267Y0191901D01*
X0113375Y0192581D01*
X0113375Y0195500D01*
X0113375Y0198419D01*
X0113267Y0199099D01*
X0113054Y0199754D01*
X0112742Y0200368D01*
X0112337Y0200925D01*
X0111850Y0201412D01*
X0111293Y0201816D01*
X0110679Y0202129D01*
X0110024Y0202342D01*
X0109344Y0202450D01*
X0109000Y0202450D01*
X0108656Y0202450D01*
X0107976Y0202342D01*
X0107321Y0202129D01*
X0106707Y0201816D01*
X0106150Y0201412D01*
X0105663Y0200925D01*
X0105258Y0200368D01*
X0104946Y0199754D01*
X0104733Y0199099D01*
X0104625Y0198419D01*
X0104625Y0195500D01*
X0109000Y0195500D01*
X0113375Y0195500D01*
X0109000Y0195500D01*
X0109000Y0195500D01*
X0109000Y0195500D01*
X0109000Y0202450D01*
X0109000Y0195500D01*
X0109000Y0188550D01*
X0109000Y0195500D01*
X0109000Y0195500D01*
X0109000Y0195500D01*
X0104625Y0195500D01*
X0104625Y0192581D01*
X0104733Y0191901D01*
X0104946Y0191246D01*
X0105258Y0190632D01*
X0105663Y0190075D01*
X0106150Y0189588D01*
X0106707Y0189184D01*
X0107321Y0188871D01*
X0107976Y0188658D01*
X0108656Y0188550D01*
X0109000Y0188550D01*
X0109344Y0188550D01*
X0110024Y0188658D01*
X0110679Y0188871D01*
X0111293Y0189184D01*
X0111850Y0189588D01*
X0113043Y0191223D02*
X0114774Y0191223D01*
X0114444Y0192821D02*
X0113375Y0192821D01*
X0113375Y0194420D02*
X0114444Y0194420D01*
X0114444Y0196018D02*
X0113375Y0196018D01*
X0113375Y0197617D02*
X0114444Y0197617D01*
X0114541Y0199215D02*
X0113229Y0199215D01*
X0112417Y0200814D02*
X0115296Y0200814D01*
X0117567Y0202412D02*
X0109579Y0202412D01*
X0109000Y0202412D02*
X0109000Y0202412D01*
X0108421Y0202412D02*
X0103481Y0202412D01*
X0103481Y0200814D02*
X0105583Y0200814D01*
X0104771Y0199215D02*
X0103481Y0199215D01*
X0103556Y0197617D02*
X0104625Y0197617D01*
X0104625Y0196018D02*
X0103556Y0196018D01*
X0103556Y0194420D02*
X0104625Y0194420D01*
X0104625Y0192821D02*
X0103556Y0192821D01*
X0103226Y0191223D02*
X0104957Y0191223D01*
X0106114Y0189624D02*
X0102744Y0189624D01*
X0109000Y0189624D02*
X0109000Y0189624D01*
X0109000Y0191223D02*
X0109000Y0191223D01*
X0109000Y0192821D02*
X0109000Y0192821D01*
X0109000Y0194420D02*
X0109000Y0194420D01*
X0109000Y0196018D02*
X0109000Y0196018D01*
X0109000Y0197617D02*
X0109000Y0197617D01*
X0109000Y0199215D02*
X0109000Y0199215D01*
X0109000Y0200814D02*
X0109000Y0200814D01*
X0103481Y0204011D02*
X0146019Y0204011D01*
X0146019Y0205609D02*
X0103481Y0205609D01*
X0094519Y0205609D02*
X0043028Y0205609D01*
X0044315Y0204323D02*
X0041658Y0206980D01*
X0038186Y0208418D01*
X0034428Y0208418D01*
X0030957Y0206980D01*
X0028299Y0204323D01*
X0026861Y0200851D01*
X0026861Y0197094D01*
X0028299Y0193622D01*
X0030957Y0190965D01*
X0034428Y0189527D01*
X0038186Y0189527D01*
X0041658Y0190965D01*
X0044315Y0193622D01*
X0045753Y0197094D01*
X0045753Y0200851D01*
X0044315Y0204323D01*
X0044444Y0204011D02*
X0094519Y0204011D01*
X0094519Y0202412D02*
X0090433Y0202412D01*
X0089906Y0202631D02*
X0088094Y0202631D01*
X0086419Y0201937D01*
X0085138Y0200656D01*
X0084444Y0198981D01*
X0084444Y0192019D01*
X0085138Y0190344D01*
X0086419Y0189063D01*
X0088094Y0188369D01*
X0089906Y0188369D01*
X0091581Y0189063D01*
X0092862Y0190344D01*
X0093556Y0192019D01*
X0093556Y0198981D01*
X0092862Y0200656D01*
X0091581Y0201937D01*
X0089906Y0202631D01*
X0087567Y0202412D02*
X0045106Y0202412D01*
X0045753Y0200814D02*
X0085296Y0200814D01*
X0084541Y0199215D02*
X0045753Y0199215D01*
X0045753Y0197617D02*
X0084444Y0197617D01*
X0084444Y0196018D02*
X0045307Y0196018D01*
X0044645Y0194420D02*
X0084444Y0194420D01*
X0084444Y0192821D02*
X0043514Y0192821D01*
X0041916Y0191223D02*
X0084774Y0191223D01*
X0085858Y0189624D02*
X0038421Y0189624D01*
X0034193Y0189624D02*
X0005800Y0189624D01*
X0005800Y0188026D02*
X0092414Y0188026D01*
X0092142Y0189624D02*
X0093184Y0189624D01*
X0093226Y0191223D02*
X0093822Y0191223D01*
X0093556Y0192821D02*
X0094187Y0192821D01*
X0094444Y0194420D02*
X0093556Y0194420D01*
X0093556Y0196018D02*
X0094444Y0196018D01*
X0094444Y0197617D02*
X0093556Y0197617D01*
X0093459Y0199215D02*
X0094519Y0199215D01*
X0094519Y0200814D02*
X0092704Y0200814D01*
X0094519Y0207208D02*
X0041107Y0207208D01*
X0041967Y0209889D02*
X0048758Y0209889D01*
X0049918Y0211049D01*
X0049918Y0217840D01*
X0049170Y0218589D01*
X0049377Y0218796D01*
X0049614Y0219207D01*
X0049737Y0219665D01*
X0049737Y0222476D01*
X0045362Y0222476D01*
X0040987Y0222476D01*
X0040987Y0219665D01*
X0041110Y0219207D01*
X0041347Y0218796D01*
X0041555Y0218589D01*
X0040806Y0217840D01*
X0040806Y0211049D01*
X0041967Y0209889D01*
X0041451Y0210405D02*
X0005800Y0210405D01*
X0005800Y0212003D02*
X0040806Y0212003D01*
X0040806Y0213602D02*
X0005800Y0213602D01*
X0005800Y0215201D02*
X0040806Y0215201D01*
X0040806Y0216799D02*
X0005800Y0216799D01*
X0005800Y0218398D02*
X0041364Y0218398D01*
X0040987Y0219996D02*
X0005800Y0219996D01*
X0005800Y0221595D02*
X0040987Y0221595D01*
X0040987Y0222476D02*
X0045362Y0222476D01*
X0045362Y0222476D01*
X0045362Y0222476D01*
X0045362Y0222477D02*
X0045362Y0226851D01*
X0045362Y0230508D01*
X0045362Y0230508D01*
X0040987Y0230508D01*
X0040987Y0233320D01*
X0041110Y0233777D01*
X0041347Y0234188D01*
X0041682Y0234523D01*
X0041683Y0234524D01*
X0041682Y0234524D01*
X0041347Y0234859D01*
X0041110Y0235270D01*
X0040987Y0235728D01*
X0040987Y0238539D01*
X0045362Y0238539D01*
X0045362Y0238539D01*
X0045362Y0234883D01*
X0045362Y0230508D01*
X0045362Y0230508D01*
X0040987Y0230508D01*
X0040987Y0227696D01*
X0041110Y0227238D01*
X0041347Y0226828D01*
X0041682Y0226493D01*
X0041683Y0226492D01*
X0041682Y0226492D01*
X0041347Y0226156D01*
X0041110Y0225746D01*
X0040987Y0225288D01*
X0040987Y0222476D01*
X0040987Y0223193D02*
X0005800Y0223193D01*
X0005800Y0224792D02*
X0040987Y0224792D01*
X0041581Y0226390D02*
X0005800Y0226390D01*
X0005800Y0227989D02*
X0040987Y0227989D01*
X0040987Y0229587D02*
X0005800Y0229587D01*
X0005800Y0231186D02*
X0040987Y0231186D01*
X0040987Y0232784D02*
X0005800Y0232784D01*
X0005800Y0234383D02*
X0041542Y0234383D01*
X0040987Y0235981D02*
X0005800Y0235981D01*
X0005800Y0237580D02*
X0040987Y0237580D01*
X0040987Y0238539D02*
X0045362Y0238539D01*
X0045362Y0238539D01*
X0045362Y0230508D01*
X0045362Y0230508D01*
X0049737Y0230508D01*
X0049737Y0233320D01*
X0049614Y0233777D01*
X0049377Y0234188D01*
X0049042Y0234523D01*
X0049041Y0234524D01*
X0049042Y0234524D01*
X0049377Y0234859D01*
X0049614Y0235270D01*
X0049737Y0235728D01*
X0049737Y0238539D01*
X0045362Y0238539D01*
X0045362Y0238539D01*
X0045362Y0242914D01*
X0042550Y0242914D01*
X0042093Y0242791D01*
X0041682Y0242555D01*
X0041347Y0242219D01*
X0041110Y0241809D01*
X0040987Y0241351D01*
X0040987Y0238539D01*
X0040987Y0239178D02*
X0005800Y0239178D01*
X0005800Y0240777D02*
X0040987Y0240777D01*
X0041503Y0242375D02*
X0005800Y0242375D01*
X0005800Y0243974D02*
X0050806Y0243974D01*
X0050806Y0245572D02*
X0005800Y0245572D01*
X0005800Y0247171D02*
X0077508Y0247171D01*
X0078212Y0247462D02*
X0076756Y0246859D01*
X0075641Y0245744D01*
X0075038Y0244288D01*
X0075038Y0242712D01*
X0075641Y0241256D01*
X0076756Y0240141D01*
X0078212Y0239538D01*
X0079086Y0239538D01*
X0080519Y0238944D01*
X0087481Y0238944D01*
X0089156Y0239638D01*
X0090437Y0240919D01*
X0091131Y0242594D01*
X0091131Y0244406D01*
X0090437Y0246081D01*
X0089156Y0247362D01*
X0087481Y0248056D01*
X0080519Y0248056D01*
X0079086Y0247462D01*
X0078212Y0247462D01*
X0078844Y0249638D02*
X0080519Y0248944D01*
X0087481Y0248944D01*
X0089156Y0249638D01*
X0090437Y0250919D01*
X0091131Y0252594D01*
X0091131Y0254406D01*
X0090437Y0256081D01*
X0089156Y0257362D01*
X0087481Y0258056D01*
X0080519Y0258056D01*
X0078844Y0257362D01*
X0077563Y0256081D01*
X0076869Y0254406D01*
X0076869Y0252594D01*
X0077563Y0250919D01*
X0078844Y0249638D01*
X0078114Y0250368D02*
X0042005Y0250368D01*
X0043604Y0251966D02*
X0077129Y0251966D01*
X0076869Y0253565D02*
X0044682Y0253565D01*
X0045345Y0255163D02*
X0077183Y0255163D01*
X0078244Y0256762D02*
X0045753Y0256762D01*
X0045753Y0258360D02*
X0173470Y0258360D01*
X0173761Y0258481D02*
X0171930Y0257723D01*
X0170529Y0256322D01*
X0169771Y0254491D01*
X0169771Y0252509D01*
X0170529Y0250678D01*
X0171930Y0249277D01*
X0173761Y0248519D01*
X0181743Y0248519D01*
X0183574Y0249277D01*
X0183833Y0249537D01*
X0186779Y0248118D01*
X0189749Y0245749D01*
X0192118Y0242779D01*
X0193767Y0239356D01*
X0194612Y0235652D01*
X0194719Y0233752D01*
X0194719Y0084462D01*
X0194698Y0084462D01*
X0193538Y0083302D01*
X0193538Y0077698D01*
X0194698Y0076538D01*
X0200302Y0076538D01*
X0201462Y0077698D01*
X0201462Y0083302D01*
X0200302Y0084462D01*
X0200281Y0084462D01*
X0200281Y0236290D01*
X0199151Y0241240D01*
X0196949Y0245814D01*
X0196949Y0245814D01*
X0193783Y0249783D01*
X0193783Y0249783D01*
X0189814Y0252949D01*
X0185514Y0255019D01*
X0184975Y0256322D01*
X0183574Y0257723D01*
X0181743Y0258481D01*
X0173761Y0258481D01*
X0170969Y0256762D02*
X0089756Y0256762D01*
X0090817Y0255163D02*
X0170049Y0255163D01*
X0169771Y0253565D02*
X0091131Y0253565D01*
X0090871Y0251966D02*
X0169996Y0251966D01*
X0170840Y0250368D02*
X0089886Y0250368D01*
X0089347Y0247171D02*
X0171638Y0247171D01*
X0171625Y0247161D02*
X0171091Y0246627D01*
X0170647Y0246016D01*
X0170304Y0245343D01*
X0170070Y0244624D01*
X0169952Y0243878D01*
X0169952Y0243500D01*
X0177752Y0243500D01*
X0185552Y0243500D01*
X0185552Y0243878D01*
X0185434Y0244624D01*
X0185200Y0245343D01*
X0184857Y0246016D01*
X0184413Y0246627D01*
X0183879Y0247161D01*
X0183268Y0247605D01*
X0182595Y0247948D01*
X0181876Y0248182D01*
X0181130Y0248300D01*
X0177752Y0248300D01*
X0177752Y0243500D01*
X0177752Y0243500D01*
X0185552Y0243500D01*
X0185552Y0243122D01*
X0185434Y0242376D01*
X0185200Y0241657D01*
X0184857Y0240984D01*
X0184413Y0240373D01*
X0183879Y0239839D01*
X0183268Y0239395D01*
X0182595Y0239052D01*
X0181876Y0238818D01*
X0181130Y0238700D01*
X0177752Y0238700D01*
X0177752Y0243500D01*
X0177752Y0243500D01*
X0177752Y0243500D01*
X0177752Y0248300D01*
X0174374Y0248300D01*
X0173628Y0248182D01*
X0172909Y0247948D01*
X0172236Y0247605D01*
X0171625Y0247161D01*
X0170421Y0245572D02*
X0090648Y0245572D01*
X0091131Y0243974D02*
X0169967Y0243974D01*
X0169952Y0243500D02*
X0169952Y0243122D01*
X0170070Y0242376D01*
X0170304Y0241657D01*
X0170647Y0240984D01*
X0171091Y0240373D01*
X0171625Y0239839D01*
X0172236Y0239395D01*
X0172909Y0239052D01*
X0173628Y0238818D01*
X0174374Y0238700D01*
X0177752Y0238700D01*
X0177752Y0243500D01*
X0177752Y0243500D01*
X0169952Y0243500D01*
X0170070Y0242375D02*
X0091040Y0242375D01*
X0090295Y0240777D02*
X0170797Y0240777D01*
X0172661Y0239178D02*
X0088046Y0239178D01*
X0087599Y0237767D02*
X0086919Y0237875D01*
X0084000Y0237875D01*
X0084000Y0233500D01*
X0084000Y0233500D01*
X0090950Y0233500D01*
X0090950Y0233844D01*
X0090842Y0234524D01*
X0090629Y0235179D01*
X0090316Y0235793D01*
X0089912Y0236350D01*
X0089425Y0236837D01*
X0088868Y0237242D01*
X0088254Y0237554D01*
X0087599Y0237767D01*
X0088176Y0237580D02*
X0157140Y0237580D01*
X0155177Y0235981D02*
X0142149Y0235981D01*
X0142981Y0235149D02*
X0140649Y0237481D01*
X0139000Y0237481D01*
X0139000Y0233500D01*
X0142981Y0233500D01*
X0142981Y0235149D01*
X0142981Y0234383D02*
X0154519Y0234383D01*
X0154009Y0232784D02*
X0142981Y0232784D01*
X0142981Y0233500D02*
X0139000Y0233500D01*
X0139000Y0233500D01*
X0139000Y0233500D01*
X0139000Y0229519D01*
X0140649Y0229519D01*
X0142981Y0231851D01*
X0142981Y0233500D01*
X0142316Y0231186D02*
X0153454Y0231186D01*
X0152899Y0229587D02*
X0140717Y0229587D01*
X0139000Y0229587D02*
X0139000Y0229587D01*
X0139000Y0229519D02*
X0139000Y0233500D01*
X0139000Y0233500D01*
X0139000Y0233500D01*
X0135019Y0233500D01*
X0135019Y0235149D01*
X0137351Y0237481D01*
X0139000Y0237481D01*
X0139000Y0233500D01*
X0135019Y0233500D01*
X0135019Y0231851D01*
X0137351Y0229519D01*
X0139000Y0229519D01*
X0139000Y0231186D02*
X0139000Y0231186D01*
X0139000Y0232784D02*
X0139000Y0232784D01*
X0139000Y0234383D02*
X0139000Y0234383D01*
X0139000Y0235981D02*
X0139000Y0235981D01*
X0135851Y0235981D02*
X0090180Y0235981D01*
X0090864Y0234383D02*
X0135019Y0234383D01*
X0135019Y0232784D02*
X0090891Y0232784D01*
X0090842Y0232476D02*
X0090950Y0233156D01*
X0090950Y0233500D01*
X0084000Y0233500D01*
X0084000Y0233500D01*
X0084000Y0229125D01*
X0086919Y0229125D01*
X0087599Y0229233D01*
X0088254Y0229446D01*
X0088868Y0229758D01*
X0089425Y0230163D01*
X0089912Y0230650D01*
X0090316Y0231207D01*
X0090629Y0231821D01*
X0090842Y0232476D01*
X0090301Y0231186D02*
X0135684Y0231186D01*
X0137283Y0229587D02*
X0088532Y0229587D01*
X0084000Y0229587D02*
X0084000Y0229587D01*
X0084000Y0229125D02*
X0084000Y0233500D01*
X0084000Y0233500D01*
X0084000Y0233500D01*
X0077050Y0233500D01*
X0077050Y0233844D01*
X0077158Y0234524D01*
X0077371Y0235179D01*
X0077684Y0235793D01*
X0078088Y0236350D01*
X0078575Y0236837D01*
X0079132Y0237242D01*
X0079746Y0237554D01*
X0080401Y0237767D01*
X0081081Y0237875D01*
X0084000Y0237875D01*
X0084000Y0233500D01*
X0077050Y0233500D01*
X0077050Y0233156D01*
X0077158Y0232476D01*
X0077371Y0231821D01*
X0077684Y0231207D01*
X0078088Y0230650D01*
X0078575Y0230163D01*
X0079132Y0229758D01*
X0079746Y0229446D01*
X0080401Y0229233D01*
X0081081Y0229125D01*
X0084000Y0229125D01*
X0084000Y0231186D02*
X0084000Y0231186D01*
X0084000Y0232784D02*
X0084000Y0232784D01*
X0084000Y0234383D02*
X0084000Y0234383D01*
X0084000Y0235981D02*
X0084000Y0235981D01*
X0084000Y0237580D02*
X0084000Y0237580D01*
X0079824Y0237580D02*
X0059918Y0237580D01*
X0059918Y0239178D02*
X0079954Y0239178D01*
X0077820Y0235981D02*
X0059918Y0235981D01*
X0059918Y0234383D02*
X0077136Y0234383D01*
X0077109Y0232784D02*
X0059918Y0232784D01*
X0059918Y0231186D02*
X0077699Y0231186D01*
X0079468Y0229587D02*
X0060183Y0229587D01*
X0064889Y0227989D02*
X0152345Y0227989D01*
X0151790Y0226390D02*
X0069595Y0226390D01*
X0074302Y0224792D02*
X0151236Y0224792D01*
X0150681Y0223193D02*
X0079008Y0223193D01*
X0083714Y0221595D02*
X0150126Y0221595D01*
X0149572Y0219996D02*
X0088420Y0219996D01*
X0093126Y0218398D02*
X0149017Y0218398D01*
X0148463Y0216799D02*
X0097832Y0216799D01*
X0088791Y0210405D02*
X0049274Y0210405D01*
X0049918Y0212003D02*
X0084085Y0212003D01*
X0079379Y0213602D02*
X0049918Y0213602D01*
X0049918Y0215201D02*
X0050806Y0215201D01*
X0050806Y0216799D02*
X0049918Y0216799D01*
X0049361Y0218398D02*
X0050806Y0218398D01*
X0050806Y0219996D02*
X0049737Y0219996D01*
X0049737Y0221595D02*
X0050806Y0221595D01*
X0049737Y0222476D02*
X0049737Y0225288D01*
X0049614Y0225746D01*
X0049377Y0226156D01*
X0049042Y0226492D01*
X0049041Y0226492D01*
X0049042Y0226493D01*
X0049377Y0226828D01*
X0049614Y0227238D01*
X0049737Y0227696D01*
X0049737Y0230508D01*
X0045362Y0230508D01*
X0045362Y0230508D01*
X0045362Y0222477D01*
X0045362Y0222477D01*
X0045362Y0222476D02*
X0049737Y0222476D01*
X0049737Y0223193D02*
X0050806Y0223193D01*
X0050806Y0224792D02*
X0049737Y0224792D01*
X0049144Y0226390D02*
X0050806Y0226390D01*
X0050806Y0227989D02*
X0049737Y0227989D01*
X0049737Y0229587D02*
X0050806Y0229587D01*
X0050806Y0231186D02*
X0049737Y0231186D01*
X0049737Y0232784D02*
X0050806Y0232784D01*
X0050806Y0234383D02*
X0049183Y0234383D01*
X0049737Y0235981D02*
X0050806Y0235981D01*
X0050806Y0237580D02*
X0049737Y0237580D01*
X0049737Y0238539D02*
X0049737Y0241351D01*
X0049614Y0241809D01*
X0049377Y0242219D01*
X0049042Y0242555D01*
X0048632Y0242791D01*
X0048174Y0242914D01*
X0045362Y0242914D01*
X0045362Y0238539D01*
X0045362Y0238539D01*
X0049737Y0238539D01*
X0049737Y0239178D02*
X0050806Y0239178D01*
X0050806Y0240777D02*
X0049737Y0240777D01*
X0049222Y0242375D02*
X0050806Y0242375D01*
X0045362Y0242375D02*
X0045362Y0242375D01*
X0045362Y0240777D02*
X0045362Y0240777D01*
X0045362Y0239178D02*
X0045362Y0239178D01*
X0045362Y0237580D02*
X0045362Y0237580D01*
X0045362Y0235981D02*
X0045362Y0235981D01*
X0045362Y0234383D02*
X0045362Y0234383D01*
X0045362Y0232784D02*
X0045362Y0232784D01*
X0045362Y0231186D02*
X0045362Y0231186D01*
X0045362Y0229587D02*
X0045362Y0229587D01*
X0045362Y0227989D02*
X0045362Y0227989D01*
X0045362Y0226390D02*
X0045362Y0226390D01*
X0045362Y0224792D02*
X0045362Y0224792D01*
X0045362Y0223193D02*
X0045362Y0223193D01*
X0059918Y0219996D02*
X0060554Y0219996D01*
X0059918Y0218398D02*
X0065260Y0218398D01*
X0069966Y0216799D02*
X0059918Y0216799D01*
X0059918Y0215201D02*
X0074673Y0215201D01*
X0093497Y0208806D02*
X0005800Y0208806D01*
X0005800Y0207208D02*
X0031507Y0207208D01*
X0029586Y0205609D02*
X0005800Y0205609D01*
X0005800Y0204011D02*
X0028170Y0204011D01*
X0027508Y0202412D02*
X0005800Y0202412D01*
X0005800Y0200814D02*
X0026861Y0200814D01*
X0026861Y0199215D02*
X0005800Y0199215D01*
X0005800Y0197617D02*
X0026861Y0197617D01*
X0027307Y0196018D02*
X0005800Y0196018D01*
X0005800Y0194420D02*
X0027969Y0194420D01*
X0029100Y0192821D02*
X0005800Y0192821D01*
X0005800Y0191223D02*
X0030698Y0191223D01*
X0005800Y0186427D02*
X0091218Y0186427D01*
X0089759Y0184829D02*
X0005800Y0184829D01*
X0005800Y0183230D02*
X0087754Y0183230D01*
X0084076Y0181632D02*
X0005800Y0181632D01*
X0005800Y0167245D02*
X0042081Y0167245D01*
X0040309Y0165647D02*
X0005800Y0165647D01*
X0005800Y0164048D02*
X0008960Y0164048D01*
X0007361Y0162450D02*
X0005800Y0162450D01*
X0005800Y0160851D02*
X0006249Y0160851D01*
X0006148Y0152859D02*
X0005800Y0152859D01*
X0005800Y0151260D02*
X0007116Y0151260D01*
X0005800Y0149662D02*
X0008715Y0149662D01*
X0005800Y0148063D02*
X0012098Y0148063D01*
X0015901Y0148063D02*
X0057019Y0148063D01*
X0057019Y0146465D02*
X0005800Y0146465D01*
X0005800Y0144866D02*
X0057019Y0144866D01*
X0057019Y0143268D02*
X0005800Y0143268D01*
X0005800Y0141669D02*
X0057019Y0141669D01*
X0057019Y0140070D02*
X0049816Y0140070D01*
X0050662Y0139224D02*
X0048224Y0141662D01*
X0044776Y0141662D01*
X0042338Y0139224D01*
X0042338Y0135776D01*
X0044776Y0133338D01*
X0048224Y0133338D01*
X0050662Y0135776D01*
X0050662Y0139224D01*
X0050662Y0138472D02*
X0057019Y0138472D01*
X0057019Y0136873D02*
X0050662Y0136873D01*
X0050161Y0135275D02*
X0057019Y0135275D01*
X0057019Y0133676D02*
X0048563Y0133676D01*
X0044437Y0133676D02*
X0028307Y0133676D01*
X0028149Y0133519D02*
X0030481Y0135851D01*
X0030481Y0137500D01*
X0030481Y0139149D01*
X0028149Y0141481D01*
X0026500Y0141481D01*
X0026500Y0137500D01*
X0030481Y0137500D01*
X0026500Y0137500D01*
X0026500Y0137500D01*
X0026500Y0137500D01*
X0026500Y0133519D01*
X0028149Y0133519D01*
X0026500Y0133519D02*
X0026500Y0137500D01*
X0026500Y0137500D01*
X0026500Y0137500D01*
X0022519Y0137500D01*
X0022519Y0139149D01*
X0024851Y0141481D01*
X0026500Y0141481D01*
X0026500Y0137500D01*
X0022519Y0137500D01*
X0022519Y0135851D01*
X0024851Y0133519D01*
X0026500Y0133519D01*
X0026500Y0133676D02*
X0026500Y0133676D01*
X0026500Y0135275D02*
X0026500Y0135275D01*
X0026500Y0136873D02*
X0026500Y0136873D01*
X0026500Y0138472D02*
X0026500Y0138472D01*
X0026500Y0140070D02*
X0026500Y0140070D01*
X0029560Y0140070D02*
X0043184Y0140070D01*
X0042338Y0138472D02*
X0030481Y0138472D01*
X0030481Y0136873D02*
X0042338Y0136873D01*
X0042839Y0135275D02*
X0029905Y0135275D01*
X0024693Y0133676D02*
X0005800Y0133676D01*
X0005800Y0132078D02*
X0057019Y0132078D01*
X0057019Y0130479D02*
X0005800Y0130479D01*
X0005800Y0128881D02*
X0057019Y0128881D01*
X0057019Y0127282D02*
X0005800Y0127282D01*
X0005800Y0125684D02*
X0057019Y0125684D01*
X0057019Y0124085D02*
X0005800Y0124085D01*
X0005800Y0122487D02*
X0057019Y0122487D01*
X0057019Y0120888D02*
X0005800Y0120888D01*
X0005800Y0119290D02*
X0057019Y0119290D01*
X0057019Y0117691D02*
X0005800Y0117691D01*
X0005800Y0116093D02*
X0057019Y0116093D01*
X0057019Y0114494D02*
X0005800Y0114494D01*
X0005800Y0112896D02*
X0057019Y0112896D01*
X0057019Y0111297D02*
X0005800Y0111297D01*
X0005800Y0109699D02*
X0057019Y0109699D01*
X0057019Y0108100D02*
X0005800Y0108100D01*
X0005800Y0106502D02*
X0057019Y0106502D01*
X0057019Y0104903D02*
X0005800Y0104903D01*
X0005800Y0103305D02*
X0057019Y0103305D01*
X0057019Y0101706D02*
X0005800Y0101706D01*
X0005800Y0100108D02*
X0057019Y0100108D01*
X0057019Y0098509D02*
X0005800Y0098509D01*
X0005800Y0096911D02*
X0057019Y0096911D01*
X0057019Y0095312D02*
X0005800Y0095312D01*
X0005800Y0093714D02*
X0057019Y0093714D01*
X0057019Y0092115D02*
X0005800Y0092115D01*
X0005800Y0090517D02*
X0057019Y0090517D01*
X0057019Y0088918D02*
X0005800Y0088918D01*
X0005800Y0087320D02*
X0057019Y0087320D01*
X0057019Y0085721D02*
X0005800Y0085721D01*
X0005800Y0084123D02*
X0038992Y0084123D01*
X0039851Y0084981D02*
X0037519Y0082649D01*
X0037519Y0081000D01*
X0041500Y0081000D01*
X0045481Y0081000D01*
X0045481Y0082649D01*
X0043149Y0084981D01*
X0041500Y0084981D01*
X0041500Y0081000D01*
X0041500Y0081000D01*
X0041500Y0081000D01*
X0045481Y0081000D01*
X0045481Y0079351D01*
X0043149Y0077019D01*
X0041500Y0077019D01*
X0041500Y0081000D01*
X0041500Y0081000D01*
X0041500Y0081000D01*
X0041500Y0084981D01*
X0039851Y0084981D01*
X0041500Y0084123D02*
X0041500Y0084123D01*
X0041500Y0082524D02*
X0041500Y0082524D01*
X0041500Y0081000D02*
X0037519Y0081000D01*
X0037519Y0079351D01*
X0039851Y0077019D01*
X0041500Y0077019D01*
X0041500Y0081000D01*
X0041500Y0080926D02*
X0041500Y0080926D01*
X0041500Y0079327D02*
X0041500Y0079327D01*
X0041500Y0077729D02*
X0041500Y0077729D01*
X0043859Y0077729D02*
X0058434Y0077729D01*
X0057338Y0079327D02*
X0045457Y0079327D01*
X0045481Y0080926D02*
X0057019Y0080926D01*
X0057019Y0082524D02*
X0045481Y0082524D01*
X0044008Y0084123D02*
X0057019Y0084123D01*
X0065981Y0084123D02*
X0099719Y0084123D01*
X0099719Y0085721D02*
X0065981Y0085721D01*
X0065981Y0087320D02*
X0099719Y0087320D01*
X0099719Y0088918D02*
X0065981Y0088918D01*
X0065981Y0090517D02*
X0099719Y0090517D01*
X0099719Y0092115D02*
X0079001Y0092115D01*
X0078224Y0091338D02*
X0074776Y0091338D01*
X0072338Y0093776D01*
X0072338Y0097224D01*
X0074776Y0099662D01*
X0078224Y0099662D01*
X0080662Y0097224D01*
X0080662Y0093776D01*
X0078224Y0091338D01*
X0080600Y0093714D02*
X0099719Y0093714D01*
X0099719Y0095312D02*
X0080662Y0095312D01*
X0080662Y0096911D02*
X0099719Y0096911D01*
X0099719Y0098509D02*
X0079377Y0098509D01*
X0073623Y0098509D02*
X0065981Y0098509D01*
X0065981Y0096911D02*
X0072338Y0096911D01*
X0072338Y0095312D02*
X0065981Y0095312D01*
X0065981Y0093714D02*
X0072400Y0093714D01*
X0073999Y0092115D02*
X0065981Y0092115D01*
X0065981Y0100108D02*
X0099719Y0100108D01*
X0099719Y0101706D02*
X0065981Y0101706D01*
X0065981Y0103305D02*
X0099719Y0103305D01*
X0099719Y0104903D02*
X0065981Y0104903D01*
X0065981Y0106502D02*
X0099719Y0106502D01*
X0099719Y0108100D02*
X0065981Y0108100D01*
X0065981Y0109699D02*
X0099719Y0109699D01*
X0099719Y0111297D02*
X0065981Y0111297D01*
X0065981Y0112896D02*
X0073474Y0112896D01*
X0072519Y0114494D02*
X0065981Y0114494D01*
X0065981Y0116093D02*
X0072519Y0116093D01*
X0073061Y0117691D02*
X0065981Y0117691D01*
X0076304Y0130479D02*
X0081696Y0130479D01*
X0081292Y0130647D02*
X0083049Y0129919D01*
X0084951Y0129919D01*
X0086708Y0130647D01*
X0088053Y0131992D01*
X0088781Y0133749D01*
X0088781Y0141251D01*
X0088053Y0143008D01*
X0086708Y0144353D01*
X0084951Y0145081D01*
X0083049Y0145081D01*
X0081292Y0144353D01*
X0079947Y0143008D01*
X0079219Y0141251D01*
X0079219Y0133749D01*
X0079947Y0131992D01*
X0081292Y0130647D01*
X0079911Y0132078D02*
X0078089Y0132078D01*
X0078751Y0133676D02*
X0079249Y0133676D01*
X0079219Y0135275D02*
X0078781Y0135275D01*
X0078781Y0136873D02*
X0079219Y0136873D01*
X0079219Y0138472D02*
X0078781Y0138472D01*
X0078781Y0140070D02*
X0079219Y0140070D01*
X0079392Y0141669D02*
X0078608Y0141669D01*
X0077794Y0143268D02*
X0080206Y0143268D01*
X0082530Y0144866D02*
X0075470Y0144866D01*
X0085470Y0144866D02*
X0116219Y0144866D01*
X0116219Y0143268D02*
X0087794Y0143268D01*
X0088608Y0141669D02*
X0116219Y0141669D01*
X0116219Y0140070D02*
X0088781Y0140070D01*
X0088781Y0138472D02*
X0116219Y0138472D01*
X0116219Y0136873D02*
X0088781Y0136873D01*
X0088781Y0135275D02*
X0116219Y0135275D01*
X0116219Y0133676D02*
X0088751Y0133676D01*
X0088089Y0132078D02*
X0116219Y0132078D01*
X0116219Y0130479D02*
X0086304Y0130479D01*
X0105281Y0117691D02*
X0116219Y0117691D01*
X0116219Y0116093D02*
X0105281Y0116093D01*
X0105281Y0114494D02*
X0116219Y0114494D01*
X0116219Y0112896D02*
X0105281Y0112896D01*
X0105281Y0111297D02*
X0116219Y0111297D01*
X0116219Y0109699D02*
X0105281Y0109699D01*
X0105281Y0108100D02*
X0115836Y0108100D01*
X0115038Y0106502D02*
X0105281Y0106502D01*
X0105281Y0104903D02*
X0115038Y0104903D01*
X0115038Y0103305D02*
X0105281Y0103305D01*
X0105281Y0101706D02*
X0115038Y0101706D01*
X0119000Y0104500D02*
X0119000Y0195500D01*
X0123556Y0196018D02*
X0124444Y0196018D01*
X0124444Y0194420D02*
X0123556Y0194420D01*
X0123556Y0192821D02*
X0124444Y0192821D01*
X0124444Y0192019D02*
X0125138Y0190344D01*
X0126219Y0189263D01*
X0126219Y0104462D01*
X0126198Y0104462D01*
X0125038Y0103302D01*
X0125038Y0097698D01*
X0126198Y0096538D01*
X0131802Y0096538D01*
X0132962Y0097698D01*
X0132962Y0103302D01*
X0131802Y0104462D01*
X0131781Y0104462D01*
X0131781Y0189263D01*
X0132862Y0190344D01*
X0133556Y0192019D01*
X0133556Y0198981D01*
X0132862Y0200656D01*
X0131581Y0201937D01*
X0129906Y0202631D01*
X0128094Y0202631D01*
X0126419Y0201937D01*
X0125138Y0200656D01*
X0124444Y0198981D01*
X0124444Y0192019D01*
X0124774Y0191223D02*
X0123226Y0191223D01*
X0122142Y0189624D02*
X0125858Y0189624D01*
X0126219Y0188026D02*
X0121781Y0188026D01*
X0121781Y0186427D02*
X0126219Y0186427D01*
X0126219Y0184829D02*
X0121781Y0184829D01*
X0121781Y0183230D02*
X0126219Y0183230D01*
X0126219Y0181632D02*
X0121781Y0181632D01*
X0121781Y0180033D02*
X0126219Y0180033D01*
X0126219Y0178435D02*
X0121781Y0178435D01*
X0121781Y0176836D02*
X0126219Y0176836D01*
X0126219Y0175238D02*
X0121781Y0175238D01*
X0121781Y0173639D02*
X0126219Y0173639D01*
X0126219Y0172041D02*
X0121781Y0172041D01*
X0121781Y0170442D02*
X0126219Y0170442D01*
X0126219Y0168844D02*
X0121781Y0168844D01*
X0121781Y0167245D02*
X0126219Y0167245D01*
X0126219Y0165647D02*
X0121781Y0165647D01*
X0121781Y0164048D02*
X0126219Y0164048D01*
X0126219Y0162450D02*
X0121781Y0162450D01*
X0121781Y0160851D02*
X0126219Y0160851D01*
X0126219Y0159253D02*
X0121781Y0159253D01*
X0121781Y0157654D02*
X0126219Y0157654D01*
X0126219Y0156056D02*
X0121781Y0156056D01*
X0121781Y0154457D02*
X0126219Y0154457D01*
X0126219Y0152859D02*
X0121781Y0152859D01*
X0121781Y0151260D02*
X0126219Y0151260D01*
X0126219Y0149662D02*
X0121781Y0149662D01*
X0121781Y0148063D02*
X0126219Y0148063D01*
X0126219Y0146465D02*
X0121781Y0146465D01*
X0121781Y0144866D02*
X0126219Y0144866D01*
X0126219Y0143268D02*
X0121781Y0143268D01*
X0121781Y0141669D02*
X0126219Y0141669D01*
X0126219Y0140070D02*
X0121781Y0140070D01*
X0121781Y0138472D02*
X0126219Y0138472D01*
X0126219Y0136873D02*
X0121781Y0136873D01*
X0121781Y0135275D02*
X0126219Y0135275D01*
X0126219Y0133676D02*
X0121781Y0133676D01*
X0121781Y0132078D02*
X0126219Y0132078D01*
X0126219Y0130479D02*
X0121781Y0130479D01*
X0121781Y0128881D02*
X0126219Y0128881D01*
X0126219Y0127282D02*
X0121781Y0127282D01*
X0121781Y0125684D02*
X0126219Y0125684D01*
X0126219Y0124085D02*
X0121781Y0124085D01*
X0121781Y0122487D02*
X0126219Y0122487D01*
X0126219Y0120888D02*
X0121781Y0120888D01*
X0121781Y0119290D02*
X0126219Y0119290D01*
X0126219Y0117691D02*
X0121781Y0117691D01*
X0121781Y0116093D02*
X0126219Y0116093D01*
X0126219Y0114494D02*
X0121781Y0114494D01*
X0121781Y0112896D02*
X0126219Y0112896D01*
X0126219Y0111297D02*
X0121781Y0111297D01*
X0121781Y0109699D02*
X0126219Y0109699D01*
X0126219Y0108100D02*
X0122164Y0108100D01*
X0122962Y0106502D02*
X0126219Y0106502D01*
X0126219Y0104903D02*
X0122962Y0104903D01*
X0122962Y0103305D02*
X0125041Y0103305D01*
X0125038Y0101706D02*
X0122962Y0101706D01*
X0125038Y0100108D02*
X0105281Y0100108D01*
X0105281Y0098509D02*
X0125038Y0098509D01*
X0125825Y0096911D02*
X0105281Y0096911D01*
X0105281Y0095312D02*
X0146019Y0095312D01*
X0146019Y0093714D02*
X0105281Y0093714D01*
X0105281Y0092115D02*
X0146019Y0092115D01*
X0146019Y0090517D02*
X0105281Y0090517D01*
X0105281Y0088918D02*
X0146019Y0088918D01*
X0146019Y0087320D02*
X0105281Y0087320D01*
X0105281Y0085721D02*
X0146019Y0085721D01*
X0146019Y0084123D02*
X0105281Y0084123D01*
X0099719Y0082524D02*
X0065981Y0082524D01*
X0065981Y0080926D02*
X0100061Y0080926D01*
X0100790Y0079327D02*
X0065662Y0079327D01*
X0064566Y0077729D02*
X0102038Y0077729D01*
X0102606Y0076130D02*
X0005800Y0076130D01*
X0005800Y0077729D02*
X0039141Y0077729D01*
X0037543Y0079327D02*
X0005800Y0079327D01*
X0005800Y0080926D02*
X0037519Y0080926D01*
X0037519Y0082524D02*
X0005800Y0082524D01*
X0005800Y0061743D02*
X0024113Y0061743D01*
X0023019Y0060145D02*
X0005800Y0060145D01*
X0005800Y0058546D02*
X0023019Y0058546D01*
X0023422Y0056948D02*
X0005800Y0056948D01*
X0005800Y0042561D02*
X0024931Y0042561D01*
X0023333Y0040963D02*
X0005800Y0040963D01*
X0005800Y0039364D02*
X0023019Y0039364D01*
X0023019Y0037766D02*
X0005800Y0037766D01*
X0005800Y0023379D02*
X0009630Y0023379D01*
X0007692Y0021781D02*
X0005800Y0021781D01*
X0005800Y0020182D02*
X0006386Y0020182D01*
X0062677Y0036167D02*
X0092472Y0036167D01*
X0091890Y0037766D02*
X0063731Y0037766D01*
X0063950Y0039364D02*
X0091308Y0039364D01*
X0090726Y0040963D02*
X0063498Y0040963D01*
X0061333Y0055349D02*
X0088038Y0055349D01*
X0089184Y0056948D02*
X0063392Y0056948D01*
X0097500Y0054500D02*
X0097500Y0053000D01*
X0103000Y0054000D02*
X0103000Y0054500D01*
X0108500Y0054500D02*
X0108500Y0053500D01*
X0114000Y0054500D02*
X0114000Y0052500D01*
X0092000Y0053000D02*
X0092012Y0051985D01*
X0092049Y0050971D01*
X0092110Y0049958D01*
X0092196Y0048946D01*
X0092306Y0047937D01*
X0092441Y0046931D01*
X0092600Y0045929D01*
X0092782Y0044931D01*
X0092989Y0043937D01*
X0093220Y0042949D01*
X0093475Y0041966D01*
X0093754Y0040990D01*
X0094056Y0040021D01*
X0094381Y0039060D01*
X0094729Y0038107D01*
X0095101Y0037162D01*
X0095495Y0036227D01*
X0095911Y0035301D01*
X0096350Y0034386D01*
X0096811Y0033482D01*
X0097293Y0032589D01*
X0097797Y0031708D01*
X0098322Y0030839D01*
X0098868Y0029983D01*
X0099435Y0029141D01*
X0100021Y0028313D01*
X0100628Y0027499D01*
X0101254Y0026700D01*
X0101899Y0025917D01*
X0102563Y0025149D01*
X0103245Y0024397D01*
X0103945Y0023663D01*
X0104663Y0022945D01*
X0105397Y0022245D01*
X0106149Y0021563D01*
X0106917Y0020899D01*
X0107700Y0020254D01*
X0108499Y0019628D01*
X0109313Y0019021D01*
X0110141Y0018435D01*
X0110983Y0017868D01*
X0111839Y0017322D01*
X0112708Y0016797D01*
X0113589Y0016293D01*
X0114482Y0015811D01*
X0115386Y0015350D01*
X0116301Y0014911D01*
X0117227Y0014495D01*
X0118162Y0014101D01*
X0119107Y0013729D01*
X0120060Y0013381D01*
X0121021Y0013056D01*
X0121990Y0012754D01*
X0122966Y0012475D01*
X0123949Y0012220D01*
X0124937Y0011989D01*
X0125931Y0011782D01*
X0126929Y0011600D01*
X0127931Y0011441D01*
X0128937Y0011306D01*
X0129946Y0011196D01*
X0130958Y0011110D01*
X0131971Y0011049D01*
X0132985Y0011012D01*
X0134000Y0011000D01*
X0136500Y0014000D02*
X0135558Y0014011D01*
X0134616Y0014046D01*
X0133675Y0014102D01*
X0132736Y0014182D01*
X0131799Y0014284D01*
X0130865Y0014409D01*
X0129934Y0014557D01*
X0129007Y0014727D01*
X0128084Y0014919D01*
X0127167Y0015133D01*
X0126254Y0015370D01*
X0125348Y0015628D01*
X0124448Y0015909D01*
X0123556Y0016211D01*
X0122670Y0016534D01*
X0121793Y0016879D01*
X0120925Y0017245D01*
X0120065Y0017632D01*
X0119216Y0018039D01*
X0118376Y0018467D01*
X0117547Y0018915D01*
X0116729Y0019383D01*
X0115922Y0019871D01*
X0115128Y0020378D01*
X0114345Y0020904D01*
X0113576Y0021448D01*
X0112821Y0022011D01*
X0112079Y0022593D01*
X0111351Y0023192D01*
X0110638Y0023808D01*
X0109940Y0024442D01*
X0109258Y0025092D01*
X0108592Y0025758D01*
X0107942Y0026440D01*
X0107308Y0027138D01*
X0106692Y0027851D01*
X0106093Y0028579D01*
X0105511Y0029321D01*
X0104948Y0030076D01*
X0104404Y0030845D01*
X0103878Y0031628D01*
X0103371Y0032422D01*
X0102883Y0033229D01*
X0102415Y0034047D01*
X0101967Y0034876D01*
X0101539Y0035716D01*
X0101132Y0036565D01*
X0100745Y0037425D01*
X0100379Y0038293D01*
X0100034Y0039170D01*
X0099711Y0040056D01*
X0099409Y0040948D01*
X0099128Y0041848D01*
X0098870Y0042754D01*
X0098633Y0043667D01*
X0098419Y0044584D01*
X0098227Y0045507D01*
X0098057Y0046434D01*
X0097909Y0047365D01*
X0097784Y0048299D01*
X0097682Y0049236D01*
X0097602Y0050175D01*
X0097546Y0051116D01*
X0097511Y0052058D01*
X0097500Y0053000D01*
X0103000Y0054000D02*
X0103011Y0053106D01*
X0103043Y0052212D01*
X0103097Y0051320D01*
X0103173Y0050429D01*
X0103270Y0049540D01*
X0103388Y0048654D01*
X0103528Y0047771D01*
X0103689Y0046891D01*
X0103872Y0046016D01*
X0104075Y0045145D01*
X0104300Y0044280D01*
X0104545Y0043420D01*
X0104811Y0042566D01*
X0105097Y0041719D01*
X0105404Y0040880D01*
X0105732Y0040047D01*
X0106079Y0039224D01*
X0106446Y0038408D01*
X0106832Y0037602D01*
X0107238Y0036805D01*
X0107663Y0036019D01*
X0108107Y0035242D01*
X0108570Y0034477D01*
X0109051Y0033724D01*
X0109550Y0032982D01*
X0110066Y0032252D01*
X0110601Y0031535D01*
X0111152Y0030831D01*
X0111720Y0030141D01*
X0112305Y0029464D01*
X0112906Y0028802D01*
X0113523Y0028155D01*
X0114155Y0027523D01*
X0114802Y0026906D01*
X0115464Y0026305D01*
X0116141Y0025720D01*
X0116831Y0025152D01*
X0117535Y0024601D01*
X0118252Y0024066D01*
X0118982Y0023550D01*
X0119724Y0023051D01*
X0120477Y0022570D01*
X0121242Y0022107D01*
X0122019Y0021663D01*
X0122805Y0021238D01*
X0123602Y0020832D01*
X0124408Y0020446D01*
X0125224Y0020079D01*
X0126047Y0019732D01*
X0126880Y0019404D01*
X0127719Y0019097D01*
X0128566Y0018811D01*
X0129420Y0018545D01*
X0130280Y0018300D01*
X0131145Y0018075D01*
X0132016Y0017872D01*
X0132891Y0017689D01*
X0133771Y0017528D01*
X0134654Y0017388D01*
X0135540Y0017270D01*
X0136429Y0017173D01*
X0137320Y0017097D01*
X0138212Y0017043D01*
X0139106Y0017011D01*
X0140000Y0017000D01*
X0143500Y0023000D02*
X0142787Y0023009D01*
X0142075Y0023034D01*
X0141363Y0023077D01*
X0140653Y0023138D01*
X0139944Y0023215D01*
X0139238Y0023310D01*
X0138533Y0023421D01*
X0137832Y0023550D01*
X0137134Y0023695D01*
X0136440Y0023857D01*
X0135750Y0024036D01*
X0135065Y0024232D01*
X0134384Y0024444D01*
X0133709Y0024672D01*
X0133039Y0024917D01*
X0132376Y0025178D01*
X0131719Y0025455D01*
X0131069Y0025747D01*
X0130426Y0026055D01*
X0129791Y0026379D01*
X0129163Y0026718D01*
X0128545Y0027072D01*
X0127935Y0027441D01*
X0127334Y0027824D01*
X0126742Y0028222D01*
X0126160Y0028634D01*
X0125589Y0029060D01*
X0125028Y0029500D01*
X0124477Y0029953D01*
X0123938Y0030419D01*
X0123410Y0030898D01*
X0122894Y0031390D01*
X0122390Y0031894D01*
X0121898Y0032410D01*
X0121419Y0032938D01*
X0120953Y0033477D01*
X0120500Y0034028D01*
X0120060Y0034589D01*
X0119634Y0035160D01*
X0119222Y0035742D01*
X0118824Y0036334D01*
X0118441Y0036935D01*
X0118072Y0037545D01*
X0117718Y0038163D01*
X0117379Y0038791D01*
X0117055Y0039426D01*
X0116747Y0040069D01*
X0116455Y0040719D01*
X0116178Y0041376D01*
X0115917Y0042039D01*
X0115672Y0042709D01*
X0115444Y0043384D01*
X0115232Y0044065D01*
X0115036Y0044750D01*
X0114857Y0045440D01*
X0114695Y0046134D01*
X0114550Y0046832D01*
X0114421Y0047533D01*
X0114310Y0048238D01*
X0114215Y0048944D01*
X0114138Y0049653D01*
X0114077Y0050363D01*
X0114034Y0051075D01*
X0114009Y0051787D01*
X0114000Y0052500D01*
X0108500Y0053500D02*
X0108510Y0052691D01*
X0108539Y0051882D01*
X0108588Y0051073D01*
X0108656Y0050267D01*
X0108744Y0049462D01*
X0108852Y0048660D01*
X0108978Y0047860D01*
X0109124Y0047064D01*
X0109289Y0046271D01*
X0109473Y0045483D01*
X0109677Y0044699D01*
X0109899Y0043921D01*
X0110140Y0043148D01*
X0110399Y0042381D01*
X0110677Y0041621D01*
X0110973Y0040867D01*
X0111287Y0040121D01*
X0111620Y0039383D01*
X0111970Y0038653D01*
X0112337Y0037932D01*
X0112722Y0037220D01*
X0113124Y0036517D01*
X0113543Y0035824D01*
X0113978Y0035142D01*
X0114430Y0034470D01*
X0114898Y0033809D01*
X0115382Y0033160D01*
X0115881Y0032523D01*
X0116395Y0031898D01*
X0116925Y0031285D01*
X0117469Y0030686D01*
X0118027Y0030100D01*
X0118600Y0029527D01*
X0119186Y0028969D01*
X0119785Y0028425D01*
X0120398Y0027895D01*
X0121023Y0027381D01*
X0121660Y0026882D01*
X0122309Y0026398D01*
X0122970Y0025930D01*
X0123642Y0025478D01*
X0124324Y0025043D01*
X0125017Y0024624D01*
X0125720Y0024222D01*
X0126432Y0023837D01*
X0127153Y0023470D01*
X0127883Y0023120D01*
X0128621Y0022787D01*
X0129367Y0022473D01*
X0130121Y0022177D01*
X0130881Y0021899D01*
X0131648Y0021640D01*
X0132421Y0021399D01*
X0133199Y0021177D01*
X0133983Y0020973D01*
X0134771Y0020789D01*
X0135564Y0020624D01*
X0136360Y0020478D01*
X0137160Y0020352D01*
X0137962Y0020244D01*
X0138767Y0020156D01*
X0139573Y0020088D01*
X0140382Y0020039D01*
X0141191Y0020010D01*
X0142000Y0020000D01*
X0214887Y0064940D02*
X0216168Y0064940D01*
X0215972Y0066539D02*
X0215083Y0066539D01*
X0215083Y0068137D02*
X0215972Y0068137D01*
X0216797Y0069736D02*
X0214258Y0069736D01*
X0212660Y0071334D02*
X0218395Y0071334D01*
X0201462Y0077729D02*
X0362342Y0077729D01*
X0362342Y0079327D02*
X0201462Y0079327D01*
X0201462Y0080926D02*
X0346516Y0080926D01*
X0345551Y0081325D02*
X0348762Y0079995D01*
X0352238Y0079995D01*
X0355449Y0081325D01*
X0357907Y0083783D01*
X0359237Y0086994D01*
X0359237Y0090470D01*
X0357907Y0093681D01*
X0355449Y0096139D01*
X0352238Y0097469D01*
X0348762Y0097469D01*
X0345551Y0096139D01*
X0343093Y0093681D01*
X0341763Y0090470D01*
X0341763Y0086994D01*
X0343093Y0083783D01*
X0345551Y0081325D01*
X0344352Y0082524D02*
X0201462Y0082524D01*
X0200641Y0084123D02*
X0342953Y0084123D01*
X0342290Y0085721D02*
X0200281Y0085721D01*
X0200281Y0087320D02*
X0341763Y0087320D01*
X0341763Y0088918D02*
X0200281Y0088918D01*
X0200281Y0090517D02*
X0341782Y0090517D01*
X0342444Y0092115D02*
X0200281Y0092115D01*
X0200281Y0093714D02*
X0343125Y0093714D01*
X0344724Y0095312D02*
X0200281Y0095312D01*
X0200281Y0096911D02*
X0347414Y0096911D01*
X0353586Y0096911D02*
X0362342Y0096911D01*
X0362342Y0098509D02*
X0200281Y0098509D01*
X0200281Y0100108D02*
X0362342Y0100108D01*
X0362342Y0101706D02*
X0200281Y0101706D01*
X0200281Y0103305D02*
X0362342Y0103305D01*
X0362342Y0104903D02*
X0200281Y0104903D01*
X0200281Y0106502D02*
X0362342Y0106502D01*
X0362342Y0108100D02*
X0200281Y0108100D01*
X0200281Y0109699D02*
X0362342Y0109699D01*
X0362342Y0111297D02*
X0200281Y0111297D01*
X0200281Y0112896D02*
X0362342Y0112896D01*
X0362342Y0114494D02*
X0200281Y0114494D01*
X0200281Y0116093D02*
X0362342Y0116093D01*
X0362342Y0117691D02*
X0200281Y0117691D01*
X0200281Y0119290D02*
X0362342Y0119290D01*
X0362342Y0120888D02*
X0200281Y0120888D01*
X0200281Y0122487D02*
X0362342Y0122487D01*
X0362342Y0124085D02*
X0200281Y0124085D01*
X0200281Y0125684D02*
X0362342Y0125684D01*
X0362342Y0127282D02*
X0200281Y0127282D01*
X0200281Y0128881D02*
X0362342Y0128881D01*
X0362342Y0130479D02*
X0200281Y0130479D01*
X0200281Y0132078D02*
X0362342Y0132078D01*
X0362342Y0133676D02*
X0200281Y0133676D01*
X0200281Y0135275D02*
X0362342Y0135275D01*
X0362342Y0136873D02*
X0293497Y0136873D01*
X0293449Y0136825D02*
X0295907Y0139283D01*
X0297237Y0142494D01*
X0297237Y0145970D01*
X0295907Y0149181D01*
X0293449Y0151639D01*
X0290238Y0152969D01*
X0286762Y0152969D01*
X0283551Y0151639D01*
X0281093Y0149181D01*
X0279763Y0145970D01*
X0279763Y0142494D01*
X0281093Y0139283D01*
X0283551Y0136825D01*
X0286762Y0135495D01*
X0290238Y0135495D01*
X0293449Y0136825D01*
X0295096Y0138472D02*
X0362342Y0138472D01*
X0362342Y0140070D02*
X0296233Y0140070D01*
X0296895Y0141669D02*
X0362342Y0141669D01*
X0362342Y0143268D02*
X0297237Y0143268D01*
X0297237Y0144866D02*
X0362342Y0144866D01*
X0362342Y0146465D02*
X0297032Y0146465D01*
X0296370Y0148063D02*
X0362342Y0148063D01*
X0362342Y0149662D02*
X0295427Y0149662D01*
X0293828Y0151260D02*
X0362342Y0151260D01*
X0362342Y0152859D02*
X0290505Y0152859D01*
X0286495Y0152859D02*
X0200281Y0152859D01*
X0200281Y0154457D02*
X0362342Y0154457D01*
X0362342Y0156056D02*
X0200281Y0156056D01*
X0200281Y0157654D02*
X0362342Y0157654D01*
X0362342Y0159253D02*
X0200281Y0159253D01*
X0200281Y0160851D02*
X0362342Y0160851D01*
X0362342Y0162450D02*
X0200281Y0162450D01*
X0200281Y0164048D02*
X0362342Y0164048D01*
X0362342Y0165647D02*
X0200281Y0165647D01*
X0200281Y0167245D02*
X0362342Y0167245D01*
X0362342Y0168844D02*
X0200281Y0168844D01*
X0200281Y0170442D02*
X0362342Y0170442D01*
X0362342Y0172041D02*
X0327534Y0172041D01*
X0327801Y0172177D02*
X0328348Y0172574D01*
X0328827Y0173053D01*
X0329225Y0173601D01*
X0329532Y0174204D01*
X0329741Y0174847D01*
X0329847Y0175516D01*
X0329847Y0175854D01*
X0323047Y0175854D01*
X0323047Y0175854D01*
X0323047Y0171554D01*
X0320209Y0171554D01*
X0319540Y0171660D01*
X0318897Y0171869D01*
X0318294Y0172177D01*
X0317746Y0172574D01*
X0317267Y0173053D01*
X0316870Y0173601D01*
X0316562Y0174204D01*
X0316353Y0174847D01*
X0316247Y0175516D01*
X0316247Y0175854D01*
X0323047Y0175854D01*
X0323047Y0175854D01*
X0323047Y0171554D01*
X0325886Y0171554D01*
X0326554Y0171660D01*
X0327198Y0171869D01*
X0327801Y0172177D01*
X0329245Y0173639D02*
X0362342Y0173639D01*
X0362342Y0175238D02*
X0329803Y0175238D01*
X0329847Y0175854D02*
X0329847Y0176193D01*
X0329741Y0176861D01*
X0329532Y0177505D01*
X0329225Y0178108D01*
X0328827Y0178656D01*
X0328348Y0179134D01*
X0328090Y0179322D01*
X0329825Y0179322D01*
X0332891Y0180592D01*
X0335238Y0182939D01*
X0336509Y0186006D01*
X0336509Y0189325D01*
X0335238Y0192391D01*
X0332891Y0194738D01*
X0330673Y0195657D01*
X0330951Y0195799D01*
X0331498Y0196197D01*
X0331977Y0196675D01*
X0332375Y0197223D01*
X0332682Y0197826D01*
X0332891Y0198469D01*
X0332997Y0199138D01*
X0332997Y0199476D01*
X0326197Y0199476D01*
X0326197Y0199476D01*
X0319397Y0199476D01*
X0319397Y0199138D01*
X0319503Y0198469D01*
X0319712Y0197826D01*
X0320019Y0197223D01*
X0320417Y0196675D01*
X0320896Y0196197D01*
X0321443Y0195799D01*
X0322046Y0195491D01*
X0322690Y0195282D01*
X0323358Y0195176D01*
X0324497Y0195176D01*
X0323439Y0194738D01*
X0321355Y0192654D01*
X0321334Y0192704D01*
X0320074Y0193964D01*
X0318427Y0194646D01*
X0316644Y0194646D01*
X0314997Y0193964D01*
X0313737Y0192704D01*
X0313506Y0192146D01*
X0304481Y0192146D01*
X0304481Y0202413D01*
X0304593Y0204696D01*
X0304593Y0204696D01*
X0305484Y0209174D01*
X0307231Y0213392D01*
X0309768Y0217189D01*
X0312996Y0220417D01*
X0316793Y0222954D01*
X0321011Y0224701D01*
X0322976Y0225092D01*
X0323408Y0224661D01*
X0327446Y0224661D01*
X0327446Y0220716D01*
X0328215Y0218860D01*
X0329635Y0217439D01*
X0331492Y0216670D01*
X0356729Y0216670D01*
X0358585Y0217439D01*
X0360006Y0218860D01*
X0360774Y0220716D01*
X0360774Y0227056D01*
X0360006Y0228912D01*
X0358585Y0230332D01*
X0356729Y0231101D01*
X0333296Y0231101D01*
X0333296Y0234549D01*
X0332136Y0235709D01*
X0323408Y0235709D01*
X0322247Y0234549D01*
X0322247Y0234199D01*
X0318364Y0233427D01*
X0318364Y0233427D01*
X0312494Y0230995D01*
X0307212Y0227466D01*
X0302719Y0222973D01*
X0299190Y0217691D01*
X0296758Y0211821D01*
X0295519Y0205590D01*
X0295519Y0196481D01*
X0265513Y0196481D01*
X0265513Y0196642D01*
X0264672Y0198673D01*
X0263118Y0200227D01*
X0261087Y0201068D01*
X0258889Y0201068D01*
X0256859Y0200227D01*
X0255305Y0198673D01*
X0254464Y0196642D01*
X0254464Y0187358D01*
X0255305Y0185327D01*
X0256859Y0183773D01*
X0258889Y0182932D01*
X0261087Y0182932D01*
X0263118Y0183773D01*
X0264672Y0185327D01*
X0265513Y0187358D01*
X0265513Y0187519D01*
X0296693Y0187519D01*
X0298023Y0185689D01*
X0298023Y0185689D01*
X0300282Y0184047D01*
X0300282Y0184047D01*
X0302938Y0183184D01*
X0313506Y0183184D01*
X0313737Y0182627D01*
X0314997Y0181366D01*
X0316644Y0180684D01*
X0318427Y0180684D01*
X0320074Y0181366D01*
X0321334Y0182627D01*
X0321355Y0182677D01*
X0323439Y0180592D01*
X0324497Y0180154D01*
X0323047Y0180154D01*
X0320209Y0180154D01*
X0319540Y0180048D01*
X0318897Y0179839D01*
X0318294Y0179532D01*
X0317746Y0179134D01*
X0317267Y0178656D01*
X0316870Y0178108D01*
X0316562Y0177505D01*
X0316353Y0176861D01*
X0316247Y0176193D01*
X0316247Y0175854D01*
X0323047Y0175854D01*
X0323047Y0175854D01*
X0323047Y0180154D01*
X0323047Y0175854D01*
X0323047Y0175854D01*
X0329847Y0175854D01*
X0329745Y0176836D02*
X0362342Y0176836D01*
X0362342Y0178435D02*
X0328988Y0178435D01*
X0331542Y0180033D02*
X0346442Y0180033D01*
X0345093Y0180592D02*
X0342746Y0182939D01*
X0341476Y0186006D01*
X0341476Y0189325D01*
X0342746Y0192391D01*
X0345093Y0194738D01*
X0348159Y0196009D01*
X0351478Y0196009D01*
X0354545Y0194738D01*
X0356892Y0192391D01*
X0358162Y0189325D01*
X0358162Y0186006D01*
X0356892Y0182939D01*
X0354545Y0180592D01*
X0351478Y0179322D01*
X0348159Y0179322D01*
X0345093Y0180592D01*
X0344053Y0181632D02*
X0333931Y0181632D01*
X0335359Y0183230D02*
X0342625Y0183230D01*
X0341963Y0184829D02*
X0336021Y0184829D01*
X0336509Y0186427D02*
X0341476Y0186427D01*
X0341476Y0188026D02*
X0336509Y0188026D01*
X0336385Y0189624D02*
X0341600Y0189624D01*
X0342262Y0191223D02*
X0335723Y0191223D01*
X0334809Y0192821D02*
X0343176Y0192821D01*
X0344774Y0194420D02*
X0333210Y0194420D01*
X0331253Y0196018D02*
X0362342Y0196018D01*
X0362342Y0194420D02*
X0354864Y0194420D01*
X0356462Y0192821D02*
X0362342Y0192821D01*
X0362342Y0191223D02*
X0357376Y0191223D01*
X0358038Y0189624D02*
X0362342Y0189624D01*
X0362342Y0188026D02*
X0358162Y0188026D01*
X0358162Y0186427D02*
X0362342Y0186427D01*
X0362342Y0184829D02*
X0357675Y0184829D01*
X0357013Y0183230D02*
X0362342Y0183230D01*
X0362342Y0181632D02*
X0355585Y0181632D01*
X0353196Y0180033D02*
X0362342Y0180033D01*
X0362342Y0197617D02*
X0332575Y0197617D01*
X0332997Y0199215D02*
X0362342Y0199215D01*
X0362342Y0200814D02*
X0332784Y0200814D01*
X0332682Y0201127D02*
X0332375Y0201730D01*
X0331977Y0202278D01*
X0331498Y0202756D01*
X0330951Y0203154D01*
X0330347Y0203461D01*
X0329704Y0203670D01*
X0329035Y0203776D01*
X0326197Y0203776D01*
X0326197Y0199477D01*
X0326197Y0199477D01*
X0326197Y0203776D01*
X0323358Y0203776D01*
X0322690Y0203670D01*
X0322046Y0203461D01*
X0321443Y0203154D01*
X0320896Y0202756D01*
X0320417Y0202278D01*
X0320019Y0201730D01*
X0319712Y0201127D01*
X0319503Y0200483D01*
X0319397Y0199815D01*
X0319397Y0199476D01*
X0326197Y0199476D01*
X0326197Y0199476D01*
X0332997Y0199476D01*
X0332997Y0199815D01*
X0332891Y0200483D01*
X0332682Y0201127D01*
X0331842Y0202412D02*
X0362342Y0202412D01*
X0362342Y0204011D02*
X0304560Y0204011D01*
X0304481Y0202412D02*
X0320552Y0202412D01*
X0319610Y0200814D02*
X0304481Y0200814D01*
X0304481Y0199215D02*
X0319397Y0199215D01*
X0319818Y0197617D02*
X0304481Y0197617D01*
X0304481Y0196018D02*
X0321141Y0196018D01*
X0323121Y0194420D02*
X0318974Y0194420D01*
X0321217Y0192821D02*
X0321522Y0192821D01*
X0316097Y0194420D02*
X0304481Y0194420D01*
X0304481Y0192821D02*
X0313854Y0192821D01*
X0326197Y0200814D02*
X0326197Y0200814D01*
X0326197Y0202412D02*
X0326197Y0202412D01*
X0331181Y0216799D02*
X0309507Y0216799D01*
X0308439Y0215201D02*
X0362342Y0215201D01*
X0362342Y0216799D02*
X0357039Y0216799D01*
X0359543Y0218398D02*
X0362342Y0218398D01*
X0362342Y0219996D02*
X0360476Y0219996D01*
X0360774Y0221595D02*
X0362342Y0221595D01*
X0362342Y0223193D02*
X0360774Y0223193D01*
X0360774Y0224792D02*
X0362342Y0224792D01*
X0362342Y0226390D02*
X0360774Y0226390D01*
X0360388Y0227989D02*
X0362342Y0227989D01*
X0362342Y0229587D02*
X0359330Y0229587D01*
X0362342Y0231186D02*
X0333296Y0231186D01*
X0333296Y0232784D02*
X0362342Y0232784D01*
X0362342Y0234383D02*
X0333296Y0234383D01*
X0332010Y0237957D02*
X0332420Y0238193D01*
X0332755Y0238529D01*
X0332992Y0238939D01*
X0333115Y0239397D01*
X0333115Y0242993D01*
X0327956Y0242993D01*
X0327956Y0243361D01*
X0333115Y0243361D01*
X0333115Y0246957D01*
X0332992Y0247415D01*
X0332755Y0247826D01*
X0332420Y0248161D01*
X0332010Y0248398D01*
X0331552Y0248520D01*
X0327956Y0248520D01*
X0327956Y0243361D01*
X0327587Y0243361D01*
X0327587Y0242993D01*
X0322428Y0242993D01*
X0322428Y0239397D01*
X0322551Y0238939D01*
X0322788Y0238529D01*
X0323123Y0238193D01*
X0323534Y0237957D01*
X0323991Y0237834D01*
X0327587Y0237834D01*
X0327587Y0242993D01*
X0327956Y0242993D01*
X0327956Y0237834D01*
X0331552Y0237834D01*
X0332010Y0237957D01*
X0333056Y0239178D02*
X0349893Y0239178D01*
X0348503Y0240777D02*
X0333115Y0240777D01*
X0333115Y0242375D02*
X0347841Y0242375D01*
X0347381Y0243974D02*
X0333115Y0243974D01*
X0333115Y0245572D02*
X0347381Y0245572D01*
X0347533Y0247171D02*
X0333058Y0247171D01*
X0327956Y0247171D02*
X0327587Y0247171D01*
X0327587Y0248520D02*
X0323991Y0248520D01*
X0323534Y0248398D01*
X0323123Y0248161D01*
X0322788Y0247826D01*
X0322551Y0247415D01*
X0322428Y0246957D01*
X0322428Y0243361D01*
X0327587Y0243361D01*
X0327587Y0248520D01*
X0327587Y0245572D02*
X0327956Y0245572D01*
X0327956Y0243974D02*
X0327587Y0243974D01*
X0327587Y0242375D02*
X0327956Y0242375D01*
X0327956Y0240777D02*
X0327587Y0240777D01*
X0327587Y0239178D02*
X0327956Y0239178D01*
X0322487Y0239178D02*
X0214830Y0239178D01*
X0215070Y0239277D02*
X0216471Y0240678D01*
X0217229Y0242509D01*
X0217229Y0244491D01*
X0216471Y0246322D01*
X0215070Y0247723D01*
X0213239Y0248481D01*
X0205257Y0248481D01*
X0203426Y0247723D01*
X0202025Y0246322D01*
X0201267Y0244491D01*
X0201267Y0242509D01*
X0202025Y0240678D01*
X0203426Y0239277D01*
X0205257Y0238519D01*
X0213239Y0238519D01*
X0215070Y0239277D01*
X0215070Y0237723D02*
X0213239Y0238481D01*
X0205257Y0238481D01*
X0203426Y0237723D01*
X0202025Y0236322D01*
X0201267Y0234491D01*
X0201267Y0232509D01*
X0202025Y0230678D01*
X0203426Y0229277D01*
X0205257Y0228519D01*
X0213239Y0228519D01*
X0215070Y0229277D01*
X0216471Y0230678D01*
X0217229Y0232509D01*
X0217229Y0234491D01*
X0216471Y0236322D01*
X0215070Y0237723D01*
X0215213Y0237580D02*
X0352188Y0237580D01*
X0359261Y0237580D02*
X0362342Y0237580D01*
X0362342Y0239178D02*
X0361556Y0239178D01*
X0362342Y0235981D02*
X0216612Y0235981D01*
X0217229Y0234383D02*
X0222218Y0234383D01*
X0223194Y0235359D02*
X0220641Y0232806D01*
X0220641Y0229194D01*
X0223194Y0226641D01*
X0226806Y0226641D01*
X0229359Y0229194D01*
X0229359Y0232806D01*
X0226806Y0235359D01*
X0223194Y0235359D01*
X0220641Y0232784D02*
X0217229Y0232784D01*
X0216681Y0231186D02*
X0220641Y0231186D01*
X0220641Y0229587D02*
X0215379Y0229587D01*
X0214428Y0227989D02*
X0221847Y0227989D01*
X0216471Y0226322D02*
X0215070Y0227723D01*
X0213239Y0228481D01*
X0205257Y0228481D01*
X0203426Y0227723D01*
X0202025Y0226322D01*
X0201267Y0224491D01*
X0201267Y0222509D01*
X0202025Y0220678D01*
X0203426Y0219277D01*
X0205257Y0218519D01*
X0213239Y0218519D01*
X0215070Y0219277D01*
X0216471Y0220678D01*
X0217229Y0222509D01*
X0217229Y0224491D01*
X0216471Y0226322D01*
X0216402Y0226390D02*
X0306136Y0226390D01*
X0307212Y0227466D02*
X0307212Y0227466D01*
X0307994Y0227989D02*
X0305619Y0227989D01*
X0304649Y0227019D02*
X0306981Y0229351D01*
X0306981Y0231000D01*
X0306981Y0232649D01*
X0304649Y0234981D01*
X0303000Y0234981D01*
X0303000Y0231000D01*
X0306981Y0231000D01*
X0303000Y0231000D01*
X0303000Y0231000D01*
X0303000Y0231000D01*
X0303000Y0227019D01*
X0304649Y0227019D01*
X0303000Y0227019D02*
X0303000Y0231000D01*
X0303000Y0231000D01*
X0303000Y0231000D01*
X0299019Y0231000D01*
X0299019Y0232649D01*
X0301351Y0234981D01*
X0303000Y0234981D01*
X0303000Y0231000D01*
X0299019Y0231000D01*
X0299019Y0229351D01*
X0301351Y0227019D01*
X0303000Y0227019D01*
X0303000Y0227989D02*
X0303000Y0227989D01*
X0303000Y0229587D02*
X0303000Y0229587D01*
X0303000Y0231186D02*
X0303000Y0231186D01*
X0303000Y0232784D02*
X0303000Y0232784D01*
X0303000Y0234383D02*
X0303000Y0234383D01*
X0305247Y0234383D02*
X0322247Y0234383D01*
X0316813Y0232784D02*
X0306846Y0232784D01*
X0306981Y0231186D02*
X0312954Y0231186D01*
X0312494Y0230995D02*
X0312494Y0230995D01*
X0310387Y0229587D02*
X0306981Y0229587D01*
X0304538Y0224792D02*
X0217105Y0224792D01*
X0217229Y0223193D02*
X0302939Y0223193D01*
X0302719Y0222973D02*
X0302719Y0222973D01*
X0301798Y0221595D02*
X0216850Y0221595D01*
X0215788Y0219996D02*
X0300730Y0219996D01*
X0299662Y0218398D02*
X0200281Y0218398D01*
X0200281Y0219996D02*
X0202708Y0219996D01*
X0201646Y0221595D02*
X0200281Y0221595D01*
X0200281Y0223193D02*
X0201267Y0223193D01*
X0201392Y0224792D02*
X0200281Y0224792D01*
X0200281Y0226390D02*
X0202094Y0226390D01*
X0200281Y0227989D02*
X0204068Y0227989D01*
X0203117Y0229587D02*
X0200281Y0229587D01*
X0200281Y0231186D02*
X0201815Y0231186D01*
X0201267Y0232784D02*
X0200281Y0232784D01*
X0200281Y0234383D02*
X0201267Y0234383D01*
X0201884Y0235981D02*
X0200281Y0235981D01*
X0199987Y0237580D02*
X0203283Y0237580D01*
X0203666Y0239178D02*
X0199622Y0239178D01*
X0199257Y0240777D02*
X0201985Y0240777D01*
X0201322Y0242375D02*
X0198605Y0242375D01*
X0199151Y0241240D02*
X0199151Y0241240D01*
X0197835Y0243974D02*
X0201267Y0243974D01*
X0201715Y0245572D02*
X0197065Y0245572D01*
X0195867Y0247171D02*
X0202874Y0247171D01*
X0203732Y0249395D02*
X0204405Y0249052D01*
X0205124Y0248818D01*
X0205870Y0248700D01*
X0209248Y0248700D01*
X0209248Y0253500D01*
X0209248Y0253500D01*
X0201448Y0253500D01*
X0201448Y0253878D01*
X0201566Y0254624D01*
X0201800Y0255343D01*
X0202143Y0256016D01*
X0202587Y0256627D01*
X0203121Y0257161D01*
X0203732Y0257605D01*
X0204405Y0257948D01*
X0205124Y0258182D01*
X0205870Y0258300D01*
X0209248Y0258300D01*
X0209248Y0253500D01*
X0201448Y0253500D01*
X0201448Y0253122D01*
X0201566Y0252376D01*
X0201800Y0251657D01*
X0202143Y0250984D01*
X0202587Y0250373D01*
X0203121Y0249839D01*
X0203732Y0249395D01*
X0202592Y0250368D02*
X0193050Y0250368D01*
X0194592Y0248769D02*
X0205433Y0248769D01*
X0209248Y0248769D02*
X0209248Y0248769D01*
X0209248Y0248700D02*
X0212626Y0248700D01*
X0213372Y0248818D01*
X0214091Y0249052D01*
X0214764Y0249395D01*
X0215375Y0249839D01*
X0215909Y0250373D01*
X0216353Y0250984D01*
X0216696Y0251657D01*
X0216930Y0252376D01*
X0217048Y0253122D01*
X0217048Y0253500D01*
X0217048Y0253878D01*
X0216930Y0254624D01*
X0216696Y0255343D01*
X0216353Y0256016D01*
X0215909Y0256627D01*
X0215375Y0257161D01*
X0214764Y0257605D01*
X0214091Y0257948D01*
X0213372Y0258182D01*
X0212626Y0258300D01*
X0209248Y0258300D01*
X0209248Y0253500D01*
X0209248Y0253500D01*
X0209248Y0253500D01*
X0209248Y0248700D01*
X0209248Y0250368D02*
X0209248Y0250368D01*
X0209248Y0251966D02*
X0209248Y0251966D01*
X0209248Y0253500D02*
X0209248Y0253500D01*
X0217048Y0253500D01*
X0209248Y0253500D01*
X0209248Y0253565D02*
X0209248Y0253565D01*
X0209248Y0255163D02*
X0209248Y0255163D01*
X0209248Y0256762D02*
X0209248Y0256762D01*
X0202722Y0256762D02*
X0184534Y0256762D01*
X0185455Y0255163D02*
X0201741Y0255163D01*
X0201448Y0253565D02*
X0188535Y0253565D01*
X0189814Y0252949D02*
X0189814Y0252949D01*
X0191046Y0251966D02*
X0201699Y0251966D01*
X0213063Y0248769D02*
X0222105Y0248769D01*
X0223194Y0249859D02*
X0220641Y0247306D01*
X0220641Y0243694D01*
X0223194Y0241141D01*
X0226806Y0241141D01*
X0229359Y0243694D01*
X0229359Y0247306D01*
X0226806Y0249859D01*
X0223194Y0249859D01*
X0220641Y0247171D02*
X0215622Y0247171D01*
X0216781Y0245572D02*
X0220641Y0245572D01*
X0220641Y0243974D02*
X0217229Y0243974D01*
X0217174Y0242375D02*
X0221960Y0242375D01*
X0216511Y0240777D02*
X0322428Y0240777D01*
X0322428Y0242375D02*
X0268040Y0242375D01*
X0266806Y0241141D02*
X0269359Y0243694D01*
X0269359Y0247306D01*
X0266806Y0249859D01*
X0263194Y0249859D01*
X0260641Y0247306D01*
X0260641Y0243694D01*
X0263194Y0241141D01*
X0266806Y0241141D01*
X0269359Y0243974D02*
X0322428Y0243974D01*
X0322428Y0245572D02*
X0269359Y0245572D01*
X0269359Y0247171D02*
X0322486Y0247171D01*
X0329922Y0251966D02*
X0216797Y0251966D01*
X0217048Y0253565D02*
X0320072Y0253565D01*
X0319869Y0255163D02*
X0216755Y0255163D01*
X0215774Y0256762D02*
X0319869Y0256762D01*
X0319869Y0258360D02*
X0182034Y0258360D01*
X0182347Y0248769D02*
X0185427Y0248769D01*
X0183866Y0247171D02*
X0187967Y0247171D01*
X0189891Y0245572D02*
X0185083Y0245572D01*
X0185537Y0243974D02*
X0191165Y0243974D01*
X0192313Y0242375D02*
X0185434Y0242375D01*
X0184706Y0240777D02*
X0193082Y0240777D01*
X0193807Y0239178D02*
X0182843Y0239178D01*
X0183717Y0237580D02*
X0194172Y0237580D01*
X0194537Y0235981D02*
X0185116Y0235981D01*
X0185733Y0234383D02*
X0194683Y0234383D01*
X0194719Y0232784D02*
X0185733Y0232784D01*
X0185185Y0231186D02*
X0194719Y0231186D01*
X0194719Y0229587D02*
X0183883Y0229587D01*
X0182932Y0227989D02*
X0194719Y0227989D01*
X0194719Y0226390D02*
X0184906Y0226390D01*
X0184975Y0226322D02*
X0183574Y0227723D01*
X0181743Y0228481D01*
X0173761Y0228481D01*
X0171930Y0227723D01*
X0170529Y0226322D01*
X0169771Y0224491D01*
X0169771Y0222509D01*
X0170529Y0220678D01*
X0171930Y0219277D01*
X0173761Y0218519D01*
X0181743Y0218519D01*
X0182575Y0218864D01*
X0183032Y0218532D01*
X0184405Y0216642D01*
X0185127Y0214420D01*
X0185219Y0213252D01*
X0185219Y0087462D01*
X0185198Y0087462D01*
X0184038Y0086302D01*
X0184038Y0080698D01*
X0185198Y0079538D01*
X0190802Y0079538D01*
X0191962Y0080698D01*
X0191962Y0086302D01*
X0190802Y0087462D01*
X0190781Y0087462D01*
X0190781Y0215316D01*
X0189506Y0219241D01*
X0187080Y0222580D01*
X0185733Y0223558D01*
X0185733Y0224491D01*
X0184975Y0226322D01*
X0185608Y0224792D02*
X0194719Y0224792D01*
X0194719Y0223193D02*
X0186236Y0223193D01*
X0187080Y0222580D02*
X0187080Y0222580D01*
X0187080Y0222580D01*
X0187796Y0221595D02*
X0194719Y0221595D01*
X0194719Y0219996D02*
X0188957Y0219996D01*
X0189506Y0219241D02*
X0189506Y0219241D01*
X0189780Y0218398D02*
X0194719Y0218398D01*
X0194719Y0216799D02*
X0190299Y0216799D01*
X0190781Y0215201D02*
X0194719Y0215201D01*
X0194719Y0213602D02*
X0190781Y0213602D01*
X0190781Y0212003D02*
X0194719Y0212003D01*
X0194719Y0210405D02*
X0190781Y0210405D01*
X0190781Y0208806D02*
X0194719Y0208806D01*
X0194719Y0207208D02*
X0190781Y0207208D01*
X0190781Y0205609D02*
X0194719Y0205609D01*
X0194719Y0204011D02*
X0190781Y0204011D01*
X0190781Y0202412D02*
X0194719Y0202412D01*
X0194719Y0200814D02*
X0190781Y0200814D01*
X0190781Y0199215D02*
X0194719Y0199215D01*
X0194719Y0197617D02*
X0190781Y0197617D01*
X0190781Y0196018D02*
X0194719Y0196018D01*
X0194719Y0194420D02*
X0190781Y0194420D01*
X0190781Y0192821D02*
X0194719Y0192821D01*
X0194719Y0191223D02*
X0190781Y0191223D01*
X0190781Y0189624D02*
X0194719Y0189624D01*
X0194719Y0188026D02*
X0190781Y0188026D01*
X0190781Y0186427D02*
X0194719Y0186427D01*
X0194719Y0184829D02*
X0190781Y0184829D01*
X0190781Y0183230D02*
X0194719Y0183230D01*
X0194719Y0181632D02*
X0190781Y0181632D01*
X0190781Y0180033D02*
X0194719Y0180033D01*
X0194719Y0178435D02*
X0190781Y0178435D01*
X0190781Y0176836D02*
X0194719Y0176836D01*
X0194719Y0175238D02*
X0190781Y0175238D01*
X0190781Y0173639D02*
X0194719Y0173639D01*
X0194719Y0172041D02*
X0190781Y0172041D01*
X0190781Y0170442D02*
X0194719Y0170442D01*
X0194719Y0168844D02*
X0190781Y0168844D01*
X0190781Y0167245D02*
X0194719Y0167245D01*
X0194719Y0165647D02*
X0190781Y0165647D01*
X0190781Y0164048D02*
X0194719Y0164048D01*
X0194719Y0162450D02*
X0190781Y0162450D01*
X0190781Y0160851D02*
X0194719Y0160851D01*
X0194719Y0159253D02*
X0190781Y0159253D01*
X0190781Y0157654D02*
X0194719Y0157654D01*
X0194719Y0156056D02*
X0190781Y0156056D01*
X0190781Y0154457D02*
X0194719Y0154457D01*
X0194719Y0152859D02*
X0190781Y0152859D01*
X0190781Y0151260D02*
X0194719Y0151260D01*
X0194719Y0149662D02*
X0190781Y0149662D01*
X0190781Y0148063D02*
X0194719Y0148063D01*
X0194719Y0146465D02*
X0190781Y0146465D01*
X0190781Y0144866D02*
X0194719Y0144866D01*
X0194719Y0143268D02*
X0190781Y0143268D01*
X0190781Y0141669D02*
X0194719Y0141669D01*
X0194719Y0140070D02*
X0190781Y0140070D01*
X0190781Y0138472D02*
X0194719Y0138472D01*
X0194719Y0136873D02*
X0190781Y0136873D01*
X0190781Y0135275D02*
X0194719Y0135275D01*
X0194719Y0133676D02*
X0190781Y0133676D01*
X0190781Y0132078D02*
X0194719Y0132078D01*
X0194719Y0130479D02*
X0190781Y0130479D01*
X0190781Y0128881D02*
X0194719Y0128881D01*
X0194719Y0127282D02*
X0190781Y0127282D01*
X0190781Y0125684D02*
X0194719Y0125684D01*
X0194719Y0124085D02*
X0190781Y0124085D01*
X0190781Y0122487D02*
X0194719Y0122487D01*
X0194719Y0120888D02*
X0190781Y0120888D01*
X0190781Y0119290D02*
X0194719Y0119290D01*
X0194719Y0117691D02*
X0190781Y0117691D01*
X0190781Y0116093D02*
X0194719Y0116093D01*
X0194719Y0114494D02*
X0190781Y0114494D01*
X0190781Y0112896D02*
X0194719Y0112896D01*
X0194719Y0111297D02*
X0190781Y0111297D01*
X0190781Y0109699D02*
X0194719Y0109699D01*
X0194719Y0108100D02*
X0190781Y0108100D01*
X0190781Y0106502D02*
X0194719Y0106502D01*
X0194719Y0104903D02*
X0190781Y0104903D01*
X0190781Y0103305D02*
X0194719Y0103305D01*
X0194719Y0101706D02*
X0190781Y0101706D01*
X0190781Y0100108D02*
X0194719Y0100108D01*
X0194719Y0098509D02*
X0190781Y0098509D01*
X0190781Y0096911D02*
X0194719Y0096911D01*
X0194719Y0095312D02*
X0190781Y0095312D01*
X0190781Y0093714D02*
X0194719Y0093714D01*
X0194719Y0092115D02*
X0190781Y0092115D01*
X0190781Y0090517D02*
X0194719Y0090517D01*
X0194719Y0088918D02*
X0190781Y0088918D01*
X0190944Y0087320D02*
X0194719Y0087320D01*
X0194719Y0085721D02*
X0191962Y0085721D01*
X0191962Y0084123D02*
X0194359Y0084123D01*
X0193538Y0082524D02*
X0191962Y0082524D01*
X0191962Y0080926D02*
X0193538Y0080926D01*
X0193538Y0079327D02*
X0154981Y0079327D01*
X0154981Y0077729D02*
X0193538Y0077729D01*
X0197500Y0080500D02*
X0197500Y0233752D01*
X0197494Y0234229D01*
X0197477Y0234706D01*
X0197448Y0235182D01*
X0197408Y0235658D01*
X0197356Y0236132D01*
X0197293Y0236605D01*
X0197218Y0237077D01*
X0197132Y0237546D01*
X0197035Y0238013D01*
X0196926Y0238478D01*
X0196806Y0238940D01*
X0196675Y0239399D01*
X0196533Y0239854D01*
X0196381Y0240307D01*
X0196217Y0240755D01*
X0196042Y0241199D01*
X0195857Y0241639D01*
X0195661Y0242074D01*
X0195455Y0242504D01*
X0195238Y0242929D01*
X0195011Y0243349D01*
X0194774Y0243763D01*
X0194527Y0244172D01*
X0194271Y0244574D01*
X0194004Y0244970D01*
X0193728Y0245360D01*
X0193443Y0245742D01*
X0193149Y0246118D01*
X0192846Y0246486D01*
X0192534Y0246847D01*
X0192213Y0247201D01*
X0191884Y0247546D01*
X0191546Y0247884D01*
X0191201Y0248213D01*
X0190847Y0248534D01*
X0190486Y0248846D01*
X0190118Y0249149D01*
X0189742Y0249443D01*
X0189360Y0249728D01*
X0188970Y0250004D01*
X0188574Y0250271D01*
X0188172Y0250527D01*
X0187763Y0250774D01*
X0187349Y0251011D01*
X0186929Y0251238D01*
X0186504Y0251455D01*
X0186074Y0251661D01*
X0185639Y0251857D01*
X0185199Y0252042D01*
X0184755Y0252217D01*
X0184307Y0252381D01*
X0183854Y0252533D01*
X0183399Y0252675D01*
X0182940Y0252806D01*
X0182478Y0252926D01*
X0182013Y0253035D01*
X0181546Y0253132D01*
X0181077Y0253218D01*
X0180605Y0253293D01*
X0180132Y0253356D01*
X0179658Y0253408D01*
X0179182Y0253448D01*
X0178706Y0253477D01*
X0178229Y0253494D01*
X0177752Y0253500D01*
X0173157Y0248769D02*
X0038638Y0248769D01*
X0033976Y0248769D02*
X0005800Y0248769D01*
X0005800Y0250368D02*
X0030609Y0250368D01*
X0029010Y0251966D02*
X0005800Y0251966D01*
X0005800Y0253565D02*
X0027932Y0253565D01*
X0027270Y0255163D02*
X0005800Y0255163D01*
X0005800Y0256762D02*
X0026861Y0256762D01*
X0026861Y0258360D02*
X0005800Y0258360D01*
X0005800Y0259959D02*
X0026883Y0259959D01*
X0027545Y0261557D02*
X0005800Y0261557D01*
X0005800Y0263156D02*
X0028207Y0263156D01*
X0044407Y0263156D02*
X0319869Y0263156D01*
X0319869Y0261557D02*
X0045069Y0261557D01*
X0045731Y0259959D02*
X0319869Y0259959D01*
X0325717Y0258360D02*
X0326676Y0258360D01*
X0326676Y0256762D02*
X0325717Y0256762D01*
X0325717Y0255163D02*
X0326676Y0255163D01*
X0326676Y0253565D02*
X0325717Y0253565D01*
X0348195Y0248769D02*
X0267895Y0248769D01*
X0262105Y0248769D02*
X0227895Y0248769D01*
X0229359Y0247171D02*
X0260641Y0247171D01*
X0260641Y0245572D02*
X0229359Y0245572D01*
X0229359Y0243974D02*
X0260641Y0243974D01*
X0261960Y0242375D02*
X0228040Y0242375D01*
X0227782Y0234383D02*
X0262218Y0234383D01*
X0263194Y0235359D02*
X0260641Y0232806D01*
X0260641Y0229194D01*
X0263194Y0226641D01*
X0266806Y0226641D01*
X0269359Y0229194D01*
X0269359Y0232806D01*
X0266806Y0235359D01*
X0263194Y0235359D01*
X0260641Y0232784D02*
X0229359Y0232784D01*
X0229359Y0231186D02*
X0260641Y0231186D01*
X0260641Y0229587D02*
X0229359Y0229587D01*
X0228153Y0227989D02*
X0261847Y0227989D01*
X0268153Y0227989D02*
X0280125Y0227989D01*
X0281276Y0226838D02*
X0284724Y0226838D01*
X0287162Y0229276D01*
X0287162Y0232724D01*
X0284724Y0235162D01*
X0281276Y0235162D01*
X0278838Y0232724D01*
X0278838Y0229276D01*
X0281276Y0226838D01*
X0278838Y0229587D02*
X0269359Y0229587D01*
X0269359Y0231186D02*
X0278838Y0231186D01*
X0278898Y0232784D02*
X0269359Y0232784D01*
X0267782Y0234383D02*
X0280496Y0234383D01*
X0285504Y0234383D02*
X0300753Y0234383D01*
X0299154Y0232784D02*
X0287102Y0232784D01*
X0287162Y0231186D02*
X0299019Y0231186D01*
X0299019Y0229587D02*
X0287162Y0229587D01*
X0285875Y0227989D02*
X0300381Y0227989D01*
X0310977Y0218398D02*
X0328677Y0218398D01*
X0327744Y0219996D02*
X0312575Y0219996D01*
X0314758Y0221595D02*
X0327446Y0221595D01*
X0327446Y0223193D02*
X0317370Y0223193D01*
X0321466Y0224792D02*
X0323277Y0224792D01*
X0307371Y0213602D02*
X0362342Y0213602D01*
X0362342Y0212003D02*
X0306656Y0212003D01*
X0305994Y0210405D02*
X0362342Y0210405D01*
X0362342Y0208806D02*
X0305411Y0208806D01*
X0305093Y0207208D02*
X0362342Y0207208D01*
X0362342Y0205609D02*
X0304775Y0205609D01*
X0295841Y0207208D02*
X0200281Y0207208D01*
X0200281Y0208806D02*
X0296159Y0208806D01*
X0296477Y0210405D02*
X0200281Y0210405D01*
X0200281Y0212003D02*
X0296834Y0212003D01*
X0296758Y0211821D02*
X0296758Y0211821D01*
X0297496Y0213602D02*
X0200281Y0213602D01*
X0200281Y0215201D02*
X0298158Y0215201D01*
X0298820Y0216799D02*
X0200281Y0216799D01*
X0200281Y0205609D02*
X0295523Y0205609D01*
X0295519Y0204011D02*
X0200281Y0204011D01*
X0200281Y0202412D02*
X0295519Y0202412D01*
X0295519Y0200814D02*
X0261700Y0200814D01*
X0264129Y0199215D02*
X0295519Y0199215D01*
X0295519Y0197617D02*
X0265109Y0197617D01*
X0258277Y0200814D02*
X0200281Y0200814D01*
X0200281Y0199215D02*
X0255848Y0199215D01*
X0254868Y0197617D02*
X0200281Y0197617D01*
X0200281Y0196018D02*
X0254464Y0196018D01*
X0254464Y0194420D02*
X0200281Y0194420D01*
X0200281Y0192821D02*
X0254464Y0192821D01*
X0254464Y0191223D02*
X0200281Y0191223D01*
X0200281Y0189624D02*
X0254464Y0189624D01*
X0254464Y0188026D02*
X0200281Y0188026D01*
X0200281Y0186427D02*
X0254849Y0186427D01*
X0255803Y0184829D02*
X0200281Y0184829D01*
X0200281Y0183230D02*
X0258170Y0183230D01*
X0261806Y0183230D02*
X0302797Y0183230D01*
X0299207Y0184829D02*
X0264173Y0184829D01*
X0265127Y0186427D02*
X0297487Y0186427D01*
X0298023Y0185689D02*
X0298023Y0185689D01*
X0314732Y0181632D02*
X0200281Y0181632D01*
X0200281Y0180033D02*
X0319494Y0180033D01*
X0320339Y0181632D02*
X0322400Y0181632D01*
X0323047Y0180033D02*
X0323047Y0180033D01*
X0323047Y0178435D02*
X0323047Y0178435D01*
X0323047Y0176836D02*
X0323047Y0176836D01*
X0323047Y0175238D02*
X0323047Y0175238D01*
X0323047Y0173639D02*
X0323047Y0173639D01*
X0323047Y0172041D02*
X0323047Y0172041D01*
X0318560Y0172041D02*
X0200281Y0172041D01*
X0200281Y0173639D02*
X0316850Y0173639D01*
X0316291Y0175238D02*
X0200281Y0175238D01*
X0200281Y0176836D02*
X0316349Y0176836D01*
X0317107Y0178435D02*
X0200281Y0178435D01*
X0185219Y0178435D02*
X0154981Y0178435D01*
X0154981Y0180033D02*
X0185219Y0180033D01*
X0185219Y0181632D02*
X0154981Y0181632D01*
X0154981Y0183230D02*
X0169193Y0183230D01*
X0166827Y0184829D02*
X0154981Y0184829D01*
X0154981Y0186427D02*
X0165873Y0186427D01*
X0172830Y0183230D02*
X0185219Y0183230D01*
X0185219Y0184829D02*
X0175197Y0184829D01*
X0176151Y0186427D02*
X0185219Y0186427D01*
X0185219Y0188026D02*
X0176536Y0188026D01*
X0176536Y0189624D02*
X0185219Y0189624D01*
X0185219Y0191223D02*
X0176536Y0191223D01*
X0176536Y0192821D02*
X0185219Y0192821D01*
X0185219Y0194420D02*
X0176536Y0194420D01*
X0176536Y0196018D02*
X0185219Y0196018D01*
X0185219Y0197617D02*
X0176132Y0197617D01*
X0175152Y0199215D02*
X0185219Y0199215D01*
X0185219Y0200814D02*
X0172723Y0200814D01*
X0169300Y0200814D02*
X0154981Y0200814D01*
X0154981Y0202412D02*
X0185219Y0202412D01*
X0185219Y0204011D02*
X0154981Y0204011D01*
X0154981Y0205609D02*
X0185219Y0205609D01*
X0185219Y0207208D02*
X0154981Y0207208D01*
X0155176Y0208806D02*
X0185219Y0208806D01*
X0185219Y0210405D02*
X0155731Y0210405D01*
X0156285Y0212003D02*
X0185219Y0212003D01*
X0185191Y0213602D02*
X0156840Y0213602D01*
X0157394Y0215201D02*
X0184873Y0215201D01*
X0184291Y0216799D02*
X0157949Y0216799D01*
X0158503Y0218398D02*
X0183129Y0218398D01*
X0188000Y0213252D02*
X0188000Y0083500D01*
X0184038Y0084123D02*
X0154981Y0084123D01*
X0154981Y0085721D02*
X0184038Y0085721D01*
X0185056Y0087320D02*
X0154981Y0087320D01*
X0154981Y0088918D02*
X0185219Y0088918D01*
X0185219Y0090517D02*
X0154981Y0090517D01*
X0154981Y0092115D02*
X0185219Y0092115D01*
X0185219Y0093714D02*
X0154981Y0093714D01*
X0154981Y0095312D02*
X0185219Y0095312D01*
X0185219Y0096911D02*
X0154981Y0096911D01*
X0154981Y0098509D02*
X0185219Y0098509D01*
X0185219Y0100108D02*
X0154981Y0100108D01*
X0154981Y0101706D02*
X0185219Y0101706D01*
X0185219Y0103305D02*
X0154981Y0103305D01*
X0154981Y0104903D02*
X0185219Y0104903D01*
X0185219Y0106502D02*
X0154981Y0106502D01*
X0154981Y0108100D02*
X0185219Y0108100D01*
X0185219Y0109699D02*
X0154981Y0109699D01*
X0154981Y0111297D02*
X0185219Y0111297D01*
X0185219Y0112896D02*
X0154981Y0112896D01*
X0154981Y0114494D02*
X0185219Y0114494D01*
X0185219Y0116093D02*
X0154981Y0116093D01*
X0154981Y0117691D02*
X0185219Y0117691D01*
X0185219Y0119290D02*
X0154981Y0119290D01*
X0154981Y0120888D02*
X0185219Y0120888D01*
X0185219Y0122487D02*
X0154981Y0122487D01*
X0154981Y0124085D02*
X0185219Y0124085D01*
X0185219Y0125684D02*
X0154981Y0125684D01*
X0154981Y0127282D02*
X0185219Y0127282D01*
X0185219Y0128881D02*
X0154981Y0128881D01*
X0154981Y0130479D02*
X0185219Y0130479D01*
X0185219Y0132078D02*
X0154981Y0132078D01*
X0154981Y0133676D02*
X0185219Y0133676D01*
X0185219Y0135275D02*
X0154981Y0135275D01*
X0154981Y0136873D02*
X0185219Y0136873D01*
X0185219Y0138472D02*
X0154981Y0138472D01*
X0154981Y0140070D02*
X0185219Y0140070D01*
X0185219Y0141669D02*
X0154981Y0141669D01*
X0154981Y0143268D02*
X0185219Y0143268D01*
X0185219Y0144866D02*
X0154981Y0144866D01*
X0154981Y0146465D02*
X0185219Y0146465D01*
X0185219Y0148063D02*
X0154981Y0148063D01*
X0154981Y0149662D02*
X0185219Y0149662D01*
X0185219Y0151260D02*
X0154981Y0151260D01*
X0154981Y0152859D02*
X0185219Y0152859D01*
X0185219Y0154457D02*
X0154981Y0154457D01*
X0154981Y0156056D02*
X0185219Y0156056D01*
X0185219Y0157654D02*
X0154981Y0157654D01*
X0154981Y0159253D02*
X0185219Y0159253D01*
X0185219Y0160851D02*
X0154981Y0160851D01*
X0154981Y0162450D02*
X0185219Y0162450D01*
X0185219Y0164048D02*
X0154981Y0164048D01*
X0154981Y0165647D02*
X0185219Y0165647D01*
X0185219Y0167245D02*
X0154981Y0167245D01*
X0154981Y0168844D02*
X0185219Y0168844D01*
X0185219Y0170442D02*
X0154981Y0170442D01*
X0154981Y0172041D02*
X0185219Y0172041D01*
X0185219Y0173639D02*
X0154981Y0173639D01*
X0154981Y0175238D02*
X0185219Y0175238D01*
X0185219Y0176836D02*
X0154981Y0176836D01*
X0146019Y0176836D02*
X0131781Y0176836D01*
X0131781Y0175238D02*
X0146019Y0175238D01*
X0146019Y0173639D02*
X0131781Y0173639D01*
X0131781Y0172041D02*
X0146019Y0172041D01*
X0146019Y0170442D02*
X0131781Y0170442D01*
X0131781Y0168844D02*
X0146019Y0168844D01*
X0146019Y0167245D02*
X0131781Y0167245D01*
X0131781Y0165647D02*
X0146019Y0165647D01*
X0146019Y0164048D02*
X0131781Y0164048D01*
X0131781Y0162450D02*
X0146019Y0162450D01*
X0146019Y0160851D02*
X0131781Y0160851D01*
X0131781Y0159253D02*
X0146019Y0159253D01*
X0146019Y0157654D02*
X0131781Y0157654D01*
X0131781Y0156056D02*
X0146019Y0156056D01*
X0146019Y0154457D02*
X0131781Y0154457D01*
X0131781Y0152859D02*
X0146019Y0152859D01*
X0146019Y0151260D02*
X0131781Y0151260D01*
X0131781Y0149662D02*
X0146019Y0149662D01*
X0146019Y0148063D02*
X0131781Y0148063D01*
X0131781Y0146465D02*
X0146019Y0146465D01*
X0146019Y0144866D02*
X0131781Y0144866D01*
X0131781Y0143268D02*
X0146019Y0143268D01*
X0146019Y0141669D02*
X0131781Y0141669D01*
X0131781Y0140070D02*
X0146019Y0140070D01*
X0146019Y0138472D02*
X0131781Y0138472D01*
X0131781Y0136873D02*
X0146019Y0136873D01*
X0146019Y0135275D02*
X0131781Y0135275D01*
X0131781Y0133676D02*
X0146019Y0133676D01*
X0146019Y0132078D02*
X0131781Y0132078D01*
X0131781Y0130479D02*
X0146019Y0130479D01*
X0146019Y0128881D02*
X0131781Y0128881D01*
X0131781Y0127282D02*
X0146019Y0127282D01*
X0146019Y0125684D02*
X0131781Y0125684D01*
X0131781Y0124085D02*
X0146019Y0124085D01*
X0146019Y0122487D02*
X0131781Y0122487D01*
X0131781Y0120888D02*
X0146019Y0120888D01*
X0146019Y0119290D02*
X0131781Y0119290D01*
X0131781Y0117691D02*
X0146019Y0117691D01*
X0146019Y0116093D02*
X0131781Y0116093D01*
X0131781Y0114494D02*
X0146019Y0114494D01*
X0146019Y0112896D02*
X0131781Y0112896D01*
X0131781Y0111297D02*
X0146019Y0111297D01*
X0146019Y0109699D02*
X0131781Y0109699D01*
X0131781Y0108100D02*
X0146019Y0108100D01*
X0146019Y0106502D02*
X0131781Y0106502D01*
X0131781Y0104903D02*
X0146019Y0104903D01*
X0146019Y0103305D02*
X0132959Y0103305D01*
X0132962Y0101706D02*
X0146019Y0101706D01*
X0146019Y0100108D02*
X0132962Y0100108D01*
X0132962Y0098509D02*
X0146019Y0098509D01*
X0146019Y0096911D02*
X0132175Y0096911D01*
X0129000Y0100500D02*
X0129000Y0195500D01*
X0133556Y0196018D02*
X0146019Y0196018D01*
X0146019Y0197617D02*
X0133556Y0197617D01*
X0133459Y0199215D02*
X0146019Y0199215D01*
X0146019Y0200814D02*
X0132704Y0200814D01*
X0130433Y0202412D02*
X0146019Y0202412D01*
X0145956Y0194420D02*
X0133556Y0194420D01*
X0133556Y0192821D02*
X0146019Y0192821D01*
X0146019Y0191223D02*
X0133226Y0191223D01*
X0132142Y0189624D02*
X0146019Y0189624D01*
X0146019Y0188026D02*
X0131781Y0188026D01*
X0131781Y0186427D02*
X0146019Y0186427D01*
X0146019Y0184829D02*
X0131781Y0184829D01*
X0131781Y0183230D02*
X0146019Y0183230D01*
X0146019Y0181632D02*
X0131781Y0181632D01*
X0131781Y0180033D02*
X0146019Y0180033D01*
X0146019Y0178435D02*
X0131781Y0178435D01*
X0116219Y0167245D02*
X0085919Y0167245D01*
X0084000Y0163000D02*
X0102500Y0162732D01*
X0099250Y0165647D02*
X0093309Y0165647D01*
X0099815Y0159253D02*
X0086417Y0159253D01*
X0105185Y0159253D02*
X0116219Y0159253D01*
X0116219Y0160851D02*
X0106783Y0160851D01*
X0106859Y0162450D02*
X0116219Y0162450D01*
X0116219Y0164048D02*
X0106859Y0164048D01*
X0105750Y0165647D02*
X0116219Y0165647D01*
X0123556Y0197617D02*
X0124444Y0197617D01*
X0124541Y0199215D02*
X0123459Y0199215D01*
X0122704Y0200814D02*
X0125296Y0200814D01*
X0127567Y0202412D02*
X0120433Y0202412D01*
X0154981Y0199215D02*
X0166871Y0199215D01*
X0165891Y0197617D02*
X0154981Y0197617D01*
X0177752Y0223500D02*
X0178000Y0223497D01*
X0178247Y0223488D01*
X0178494Y0223473D01*
X0178741Y0223452D01*
X0178987Y0223425D01*
X0179233Y0223392D01*
X0179477Y0223354D01*
X0179721Y0223309D01*
X0179963Y0223259D01*
X0180205Y0223202D01*
X0180444Y0223140D01*
X0180682Y0223072D01*
X0180919Y0222998D01*
X0181153Y0222919D01*
X0181386Y0222834D01*
X0181616Y0222743D01*
X0181845Y0222647D01*
X0182071Y0222546D01*
X0182294Y0222439D01*
X0182514Y0222326D01*
X0182732Y0222208D01*
X0182947Y0222085D01*
X0183159Y0221957D01*
X0183368Y0221824D01*
X0183574Y0221686D01*
X0183776Y0221543D01*
X0183974Y0221395D01*
X0184169Y0221242D01*
X0184360Y0221085D01*
X0184548Y0220923D01*
X0184731Y0220756D01*
X0184910Y0220585D01*
X0185085Y0220410D01*
X0185256Y0220231D01*
X0185423Y0220048D01*
X0185585Y0219860D01*
X0185742Y0219669D01*
X0185895Y0219474D01*
X0186043Y0219276D01*
X0186186Y0219074D01*
X0186324Y0218868D01*
X0186457Y0218659D01*
X0186585Y0218447D01*
X0186708Y0218232D01*
X0186826Y0218014D01*
X0186939Y0217794D01*
X0187046Y0217571D01*
X0187147Y0217345D01*
X0187243Y0217116D01*
X0187334Y0216886D01*
X0187419Y0216653D01*
X0187498Y0216419D01*
X0187572Y0216182D01*
X0187640Y0215944D01*
X0187702Y0215705D01*
X0187759Y0215463D01*
X0187809Y0215221D01*
X0187854Y0214977D01*
X0187892Y0214733D01*
X0187925Y0214487D01*
X0187952Y0214241D01*
X0187973Y0213994D01*
X0187988Y0213747D01*
X0187997Y0213500D01*
X0188000Y0213252D01*
X0171212Y0219996D02*
X0159058Y0219996D01*
X0159613Y0221595D02*
X0170150Y0221595D01*
X0169771Y0223193D02*
X0160167Y0223193D01*
X0160722Y0224792D02*
X0169895Y0224792D01*
X0170598Y0226390D02*
X0161276Y0226390D01*
X0161831Y0227989D02*
X0172572Y0227989D01*
X0177752Y0239178D02*
X0177752Y0239178D01*
X0177752Y0240777D02*
X0177752Y0240777D01*
X0177752Y0242375D02*
X0177752Y0242375D01*
X0177752Y0243974D02*
X0177752Y0243974D01*
X0177752Y0245572D02*
X0177752Y0245572D01*
X0177752Y0247171D02*
X0177752Y0247171D01*
X0215904Y0250368D02*
X0349147Y0250368D01*
X0299190Y0217691D02*
X0299190Y0217691D01*
X0283172Y0151260D02*
X0200281Y0151260D01*
X0200281Y0149662D02*
X0281573Y0149662D01*
X0280630Y0148063D02*
X0200281Y0148063D01*
X0200281Y0146465D02*
X0279968Y0146465D01*
X0279763Y0144866D02*
X0200281Y0144866D01*
X0200281Y0143268D02*
X0279763Y0143268D01*
X0280105Y0141669D02*
X0200281Y0141669D01*
X0200281Y0140070D02*
X0280767Y0140070D01*
X0281904Y0138472D02*
X0200281Y0138472D01*
X0200281Y0136873D02*
X0283503Y0136873D01*
X0356276Y0095312D02*
X0362342Y0095312D01*
X0362342Y0093714D02*
X0357875Y0093714D01*
X0358556Y0092115D02*
X0362342Y0092115D01*
X0362342Y0090517D02*
X0359218Y0090517D01*
X0359237Y0088918D02*
X0362342Y0088918D01*
X0362342Y0087320D02*
X0359237Y0087320D01*
X0358710Y0085721D02*
X0362342Y0085721D01*
X0362342Y0084123D02*
X0358047Y0084123D01*
X0356648Y0082524D02*
X0362342Y0082524D01*
X0362342Y0080926D02*
X0354484Y0080926D01*
X0362342Y0076130D02*
X0154981Y0076130D01*
X0154981Y0074532D02*
X0362342Y0074532D01*
X0308395Y0071334D02*
X0302660Y0071334D01*
X0304258Y0069736D02*
X0306797Y0069736D01*
X0305972Y0068137D02*
X0305083Y0068137D01*
X0298395Y0071334D02*
X0292660Y0071334D01*
X0292415Y0071580D02*
X0288640Y0071580D01*
X0285972Y0068911D01*
X0285972Y0065137D01*
X0288640Y0062468D01*
X0292415Y0062468D01*
X0295083Y0065137D01*
X0295083Y0068911D01*
X0292415Y0071580D01*
X0294258Y0069736D02*
X0296797Y0069736D01*
X0295972Y0068137D02*
X0295083Y0068137D01*
X0295083Y0066539D02*
X0295972Y0066539D01*
X0296168Y0064940D02*
X0294887Y0064940D01*
X0293289Y0063342D02*
X0297766Y0063342D01*
X0297206Y0060145D02*
X0293849Y0060145D01*
X0295083Y0058546D02*
X0295972Y0058546D01*
X0295972Y0056948D02*
X0295083Y0056948D01*
X0295083Y0055349D02*
X0295972Y0055349D01*
X0297357Y0053751D02*
X0293698Y0053751D01*
X0298500Y0017000D02*
X0299394Y0017011D01*
X0300288Y0017043D01*
X0301180Y0017097D01*
X0302071Y0017173D01*
X0302960Y0017270D01*
X0303846Y0017388D01*
X0304729Y0017528D01*
X0305609Y0017689D01*
X0306484Y0017872D01*
X0307355Y0018075D01*
X0308220Y0018300D01*
X0309080Y0018545D01*
X0309934Y0018811D01*
X0310781Y0019097D01*
X0311620Y0019404D01*
X0312453Y0019732D01*
X0313276Y0020079D01*
X0314092Y0020446D01*
X0314898Y0020832D01*
X0315695Y0021238D01*
X0316481Y0021663D01*
X0317258Y0022107D01*
X0318023Y0022570D01*
X0318776Y0023051D01*
X0319518Y0023550D01*
X0320248Y0024066D01*
X0320965Y0024601D01*
X0321669Y0025152D01*
X0322359Y0025720D01*
X0323036Y0026305D01*
X0323698Y0026906D01*
X0324345Y0027523D01*
X0324977Y0028155D01*
X0325594Y0028802D01*
X0326195Y0029464D01*
X0326780Y0030141D01*
X0327348Y0030831D01*
X0327899Y0031535D01*
X0328434Y0032252D01*
X0328950Y0032982D01*
X0329449Y0033724D01*
X0329930Y0034477D01*
X0330393Y0035242D01*
X0330837Y0036019D01*
X0331262Y0036805D01*
X0331668Y0037602D01*
X0332054Y0038408D01*
X0332421Y0039224D01*
X0332768Y0040047D01*
X0333096Y0040880D01*
X0333403Y0041719D01*
X0333689Y0042566D01*
X0333955Y0043420D01*
X0334200Y0044280D01*
X0334425Y0045145D01*
X0334628Y0046016D01*
X0334811Y0046891D01*
X0334972Y0047771D01*
X0335112Y0048654D01*
X0335230Y0049540D01*
X0335327Y0050429D01*
X0335403Y0051320D01*
X0335457Y0052212D01*
X0335489Y0053106D01*
X0335500Y0054000D01*
X0307357Y0053751D02*
X0303698Y0053751D01*
X0287206Y0060145D02*
X0283849Y0060145D01*
X0285083Y0058546D02*
X0285972Y0058546D01*
X0285972Y0056948D02*
X0285083Y0056948D01*
X0285083Y0055349D02*
X0285972Y0055349D01*
X0315500Y0054000D02*
X0315491Y0053251D01*
X0315464Y0052502D01*
X0315419Y0051755D01*
X0315355Y0051008D01*
X0315274Y0050263D01*
X0315175Y0049521D01*
X0315058Y0048781D01*
X0314922Y0048044D01*
X0314770Y0047311D01*
X0314599Y0046581D01*
X0314411Y0045856D01*
X0314206Y0045136D01*
X0313983Y0044420D01*
X0313743Y0043711D01*
X0313486Y0043007D01*
X0313211Y0042310D01*
X0312921Y0041620D01*
X0312613Y0040937D01*
X0312289Y0040261D01*
X0311949Y0039594D01*
X0311593Y0038935D01*
X0311221Y0038284D01*
X0310834Y0037643D01*
X0310431Y0037012D01*
X0310012Y0036390D01*
X0309580Y0035779D01*
X0309132Y0035178D01*
X0308670Y0034588D01*
X0308194Y0034010D01*
X0307704Y0033443D01*
X0307200Y0032889D01*
X0306684Y0032346D01*
X0306154Y0031816D01*
X0305611Y0031300D01*
X0305057Y0030796D01*
X0304490Y0030306D01*
X0303912Y0029830D01*
X0303322Y0029368D01*
X0302721Y0028920D01*
X0302110Y0028488D01*
X0301488Y0028069D01*
X0300857Y0027666D01*
X0300216Y0027279D01*
X0299565Y0026907D01*
X0298906Y0026551D01*
X0298239Y0026211D01*
X0297563Y0025887D01*
X0296880Y0025579D01*
X0296190Y0025289D01*
X0295493Y0025014D01*
X0294789Y0024757D01*
X0294080Y0024517D01*
X0293364Y0024294D01*
X0292644Y0024089D01*
X0291919Y0023901D01*
X0291189Y0023730D01*
X0290456Y0023578D01*
X0289719Y0023442D01*
X0288979Y0023325D01*
X0288237Y0023226D01*
X0287492Y0023145D01*
X0286745Y0023081D01*
X0285998Y0023036D01*
X0285249Y0023009D01*
X0284500Y0023000D01*
X0283289Y0063342D02*
X0287766Y0063342D01*
X0286168Y0064940D02*
X0284887Y0064940D01*
X0285083Y0066539D02*
X0285972Y0066539D01*
X0285972Y0068137D02*
X0285083Y0068137D01*
X0284258Y0069736D02*
X0286797Y0069736D01*
X0288395Y0071334D02*
X0282660Y0071334D01*
X0184038Y0080926D02*
X0154981Y0080926D01*
X0154981Y0082524D02*
X0184038Y0082524D01*
X0057019Y0149662D02*
X0019285Y0149662D01*
X0020884Y0151260D02*
X0057019Y0151260D01*
X0057019Y0152859D02*
X0021852Y0152859D01*
X0022514Y0154457D02*
X0057019Y0154457D01*
X0057019Y0156056D02*
X0022737Y0156056D01*
X0022737Y0157654D02*
X0057019Y0157654D01*
X0041410Y0159253D02*
X0022413Y0159253D01*
X0021751Y0160851D02*
X0039984Y0160851D01*
X0039519Y0162450D02*
X0020639Y0162450D01*
X0019040Y0164048D02*
X0039584Y0164048D01*
X0023440Y0140070D02*
X0005800Y0140070D01*
X0005800Y0138472D02*
X0022519Y0138472D01*
X0022519Y0136873D02*
X0005800Y0136873D01*
X0005800Y0135275D02*
X0023095Y0135275D01*
X0059918Y0240777D02*
X0076120Y0240777D01*
X0075177Y0242375D02*
X0059918Y0242375D01*
X0059918Y0243974D02*
X0075038Y0243974D01*
X0075570Y0245572D02*
X0059918Y0245572D01*
X0079000Y0243500D02*
X0084000Y0243500D01*
D23*
X0121500Y0234000D03*
X0061000Y0189000D03*
X0030500Y0175000D03*
X0015000Y0190500D03*
X0020500Y0230500D03*
X0138500Y0151000D03*
X0161500Y0133000D03*
X0169000Y0157000D03*
X0207000Y0192000D03*
X0235000Y0192000D03*
X0226000Y0215000D03*
X0247500Y0214500D03*
X0272500Y0213500D03*
X0292000Y0209500D03*
X0330500Y0210500D03*
X0349500Y0210000D03*
X0292000Y0165500D03*
X0253000Y0158000D03*
X0218500Y0140000D03*
X0140000Y0088000D03*
X0192000Y0061500D03*
X0083500Y0018500D03*
X0043500Y0016000D03*
X0017500Y0077000D03*
X0041000Y0102000D03*
X0017500Y0116000D03*
X0289000Y0254000D03*
X0340000Y0153000D03*
X0303500Y0134500D03*
X0346000Y0109000D03*
X0315000Y0092000D03*
D24*
X0197500Y0080500D03*
X0188000Y0083500D03*
X0129000Y0100500D03*
X0119000Y0104500D03*
X0106000Y0079500D03*
X0108500Y0054500D03*
X0103000Y0054500D03*
X0097500Y0054500D03*
X0092000Y0053000D03*
X0114000Y0054500D03*
D25*
X0079000Y0243500D03*
M02*
