G75*
%MOIN*%
%OFA0B0*%
%FSLAX25Y25*%
%IPPOS*%
%LPD*%
%AMOC8*
5,1,8,0,0,1.08239X$1,22.5*
%
%ADD10C,0.00400*%
D10*
X0150502Y0157888D02*
X0150502Y0160957D01*
X0150502Y0162492D02*
X0151269Y0164027D01*
X0151269Y0164794D01*
X0150502Y0165561D01*
X0148967Y0165561D01*
X0148200Y0164794D01*
X0148200Y0163259D01*
X0148967Y0162492D01*
X0150502Y0162492D02*
X0152804Y0162492D01*
X0152804Y0165561D01*
X0152804Y0167096D02*
X0149735Y0167096D01*
X0148200Y0168631D01*
X0149735Y0170165D01*
X0152804Y0170165D01*
X0152037Y0159423D02*
X0148967Y0159423D01*
X0185700Y0175888D02*
X0190304Y0175888D01*
X0190304Y0178190D01*
X0189537Y0178957D01*
X0188002Y0178957D01*
X0187235Y0178190D01*
X0187235Y0175888D01*
X0187235Y0177423D02*
X0185700Y0178957D01*
X0185700Y0180492D02*
X0190304Y0183561D01*
X0190304Y0185096D02*
X0190304Y0187398D01*
X0189537Y0188165D01*
X0186467Y0188165D01*
X0185700Y0187398D01*
X0185700Y0185096D01*
X0190304Y0185096D01*
X0190304Y0180492D02*
X0185700Y0183561D01*
X0195200Y0188923D02*
X0199804Y0188923D01*
X0199804Y0190457D02*
X0199804Y0187388D01*
X0199804Y0191992D02*
X0195200Y0195061D01*
X0195200Y0196596D02*
X0195200Y0198898D01*
X0195967Y0199665D01*
X0199037Y0199665D01*
X0199804Y0198898D01*
X0199804Y0196596D01*
X0195200Y0196596D01*
X0195200Y0191992D02*
X0199804Y0195061D01*
X0270969Y0188269D02*
X0272503Y0189804D01*
X0274038Y0189804D02*
X0274038Y0185200D01*
X0275573Y0186735D01*
X0277107Y0185200D01*
X0277107Y0189804D01*
X0278642Y0188269D02*
X0278642Y0185200D01*
X0278642Y0187502D02*
X0281711Y0187502D01*
X0281711Y0188269D02*
X0280176Y0189804D01*
X0278642Y0188269D01*
X0281711Y0188269D02*
X0281711Y0185200D01*
X0283246Y0185200D02*
X0284780Y0186735D01*
X0284013Y0186735D02*
X0286315Y0186735D01*
X0286315Y0185200D02*
X0286315Y0189804D01*
X0284013Y0189804D01*
X0283246Y0189037D01*
X0283246Y0187502D01*
X0284013Y0186735D01*
X0287850Y0185200D02*
X0289384Y0186735D01*
X0289384Y0188269D01*
X0287850Y0189804D01*
X0295523Y0189804D02*
X0295523Y0186735D01*
X0297058Y0185200D01*
X0298592Y0186735D01*
X0298592Y0189804D01*
X0300127Y0189804D02*
X0303196Y0189804D01*
X0303196Y0187502D01*
X0301661Y0188269D01*
X0300894Y0188269D01*
X0300127Y0187502D01*
X0300127Y0185967D01*
X0300894Y0185200D01*
X0302429Y0185200D01*
X0303196Y0185967D01*
X0304731Y0187502D02*
X0307800Y0187502D01*
X0306265Y0189037D02*
X0306265Y0185967D01*
X0272503Y0185200D02*
X0270969Y0186735D01*
X0270969Y0188269D01*
M02*
