G75*
%MOIN*%
%OFA0B0*%
%FSLAX25Y25*%
%IPPOS*%
%LPD*%
%AMOC8*
5,1,8,0,0,1.08239X$1,22.5*
%
%ADD10C,0.00600*%
%ADD11C,0.00400*%
%ADD12C,0.01200*%
%ADD13C,0.00500*%
%ADD14C,0.01000*%
%ADD15C,0.00300*%
%ADD16R,0.03400X0.02400*%
%ADD17R,0.02400X0.03400*%
%ADD18C,0.00200*%
%ADD19C,0.00800*%
D10*
X0023500Y0033000D02*
X0040500Y0033000D01*
X0040560Y0033002D01*
X0040621Y0033007D01*
X0040680Y0033016D01*
X0040739Y0033029D01*
X0040798Y0033045D01*
X0040855Y0033065D01*
X0040910Y0033088D01*
X0040965Y0033115D01*
X0041017Y0033144D01*
X0041068Y0033177D01*
X0041117Y0033213D01*
X0041163Y0033251D01*
X0041207Y0033293D01*
X0041249Y0033337D01*
X0041287Y0033383D01*
X0041323Y0033432D01*
X0041356Y0033483D01*
X0041385Y0033535D01*
X0041412Y0033590D01*
X0041435Y0033645D01*
X0041455Y0033702D01*
X0041471Y0033761D01*
X0041484Y0033820D01*
X0041493Y0033879D01*
X0041498Y0033940D01*
X0041500Y0034000D01*
X0041500Y0044000D01*
X0041498Y0044060D01*
X0041493Y0044121D01*
X0041484Y0044180D01*
X0041471Y0044239D01*
X0041455Y0044298D01*
X0041435Y0044355D01*
X0041412Y0044410D01*
X0041385Y0044465D01*
X0041356Y0044517D01*
X0041323Y0044568D01*
X0041287Y0044617D01*
X0041249Y0044663D01*
X0041207Y0044707D01*
X0041163Y0044749D01*
X0041117Y0044787D01*
X0041068Y0044823D01*
X0041017Y0044856D01*
X0040965Y0044885D01*
X0040910Y0044912D01*
X0040855Y0044935D01*
X0040798Y0044955D01*
X0040739Y0044971D01*
X0040680Y0044984D01*
X0040621Y0044993D01*
X0040560Y0044998D01*
X0040500Y0045000D01*
X0023500Y0045000D01*
X0023440Y0044998D01*
X0023379Y0044993D01*
X0023320Y0044984D01*
X0023261Y0044971D01*
X0023202Y0044955D01*
X0023145Y0044935D01*
X0023090Y0044912D01*
X0023035Y0044885D01*
X0022983Y0044856D01*
X0022932Y0044823D01*
X0022883Y0044787D01*
X0022837Y0044749D01*
X0022793Y0044707D01*
X0022751Y0044663D01*
X0022713Y0044617D01*
X0022677Y0044568D01*
X0022644Y0044517D01*
X0022615Y0044465D01*
X0022588Y0044410D01*
X0022565Y0044355D01*
X0022545Y0044298D01*
X0022529Y0044239D01*
X0022516Y0044180D01*
X0022507Y0044121D01*
X0022502Y0044060D01*
X0022500Y0044000D01*
X0022500Y0034000D01*
X0022502Y0033940D01*
X0022507Y0033879D01*
X0022516Y0033820D01*
X0022529Y0033761D01*
X0022545Y0033702D01*
X0022565Y0033645D01*
X0022588Y0033590D01*
X0022615Y0033535D01*
X0022644Y0033483D01*
X0022677Y0033432D01*
X0022713Y0033383D01*
X0022751Y0033337D01*
X0022793Y0033293D01*
X0022837Y0033251D01*
X0022883Y0033213D01*
X0022932Y0033177D01*
X0022983Y0033144D01*
X0023035Y0033115D01*
X0023090Y0033088D01*
X0023145Y0033065D01*
X0023202Y0033045D01*
X0023261Y0033029D01*
X0023320Y0033016D01*
X0023379Y0033007D01*
X0023440Y0033002D01*
X0023500Y0033000D01*
X0030500Y0039000D02*
X0031000Y0039000D01*
X0033000Y0039000D02*
X0033500Y0039000D01*
X0049000Y0035583D02*
X0049000Y0062583D01*
X0041500Y0064000D02*
X0041500Y0054000D01*
X0041498Y0053940D01*
X0041493Y0053879D01*
X0041484Y0053820D01*
X0041471Y0053761D01*
X0041455Y0053702D01*
X0041435Y0053645D01*
X0041412Y0053590D01*
X0041385Y0053535D01*
X0041356Y0053483D01*
X0041323Y0053432D01*
X0041287Y0053383D01*
X0041249Y0053337D01*
X0041207Y0053293D01*
X0041163Y0053251D01*
X0041117Y0053213D01*
X0041068Y0053177D01*
X0041017Y0053144D01*
X0040965Y0053115D01*
X0040910Y0053088D01*
X0040855Y0053065D01*
X0040798Y0053045D01*
X0040739Y0053029D01*
X0040680Y0053016D01*
X0040621Y0053007D01*
X0040560Y0053002D01*
X0040500Y0053000D01*
X0023500Y0053000D01*
X0023440Y0053002D01*
X0023379Y0053007D01*
X0023320Y0053016D01*
X0023261Y0053029D01*
X0023202Y0053045D01*
X0023145Y0053065D01*
X0023090Y0053088D01*
X0023035Y0053115D01*
X0022983Y0053144D01*
X0022932Y0053177D01*
X0022883Y0053213D01*
X0022837Y0053251D01*
X0022793Y0053293D01*
X0022751Y0053337D01*
X0022713Y0053383D01*
X0022677Y0053432D01*
X0022644Y0053483D01*
X0022615Y0053535D01*
X0022588Y0053590D01*
X0022565Y0053645D01*
X0022545Y0053702D01*
X0022529Y0053761D01*
X0022516Y0053820D01*
X0022507Y0053879D01*
X0022502Y0053940D01*
X0022500Y0054000D01*
X0022500Y0064000D01*
X0022502Y0064060D01*
X0022507Y0064121D01*
X0022516Y0064180D01*
X0022529Y0064239D01*
X0022545Y0064298D01*
X0022565Y0064355D01*
X0022588Y0064410D01*
X0022615Y0064465D01*
X0022644Y0064517D01*
X0022677Y0064568D01*
X0022713Y0064617D01*
X0022751Y0064663D01*
X0022793Y0064707D01*
X0022837Y0064749D01*
X0022883Y0064787D01*
X0022932Y0064823D01*
X0022983Y0064856D01*
X0023035Y0064885D01*
X0023090Y0064912D01*
X0023145Y0064935D01*
X0023202Y0064955D01*
X0023261Y0064971D01*
X0023320Y0064984D01*
X0023379Y0064993D01*
X0023440Y0064998D01*
X0023500Y0065000D01*
X0040500Y0065000D01*
X0040560Y0064998D01*
X0040621Y0064993D01*
X0040680Y0064984D01*
X0040739Y0064971D01*
X0040798Y0064955D01*
X0040855Y0064935D01*
X0040910Y0064912D01*
X0040965Y0064885D01*
X0041017Y0064856D01*
X0041068Y0064823D01*
X0041117Y0064787D01*
X0041163Y0064749D01*
X0041207Y0064707D01*
X0041249Y0064663D01*
X0041287Y0064617D01*
X0041323Y0064568D01*
X0041356Y0064517D01*
X0041385Y0064465D01*
X0041412Y0064410D01*
X0041435Y0064355D01*
X0041455Y0064298D01*
X0041471Y0064239D01*
X0041484Y0064180D01*
X0041493Y0064121D01*
X0041498Y0064060D01*
X0041500Y0064000D01*
X0033500Y0059000D02*
X0033000Y0059000D01*
X0031000Y0059000D02*
X0030500Y0059000D01*
X0038000Y0076000D02*
X0065000Y0076000D01*
X0065060Y0076002D01*
X0065121Y0076007D01*
X0065180Y0076016D01*
X0065239Y0076029D01*
X0065298Y0076045D01*
X0065355Y0076065D01*
X0065410Y0076088D01*
X0065465Y0076115D01*
X0065517Y0076144D01*
X0065568Y0076177D01*
X0065617Y0076213D01*
X0065663Y0076251D01*
X0065707Y0076293D01*
X0065749Y0076337D01*
X0065787Y0076383D01*
X0065823Y0076432D01*
X0065856Y0076483D01*
X0065885Y0076535D01*
X0065912Y0076590D01*
X0065935Y0076645D01*
X0065955Y0076702D01*
X0065971Y0076761D01*
X0065984Y0076820D01*
X0065993Y0076879D01*
X0065998Y0076940D01*
X0066000Y0077000D01*
X0066000Y0085000D01*
X0065998Y0085060D01*
X0065993Y0085121D01*
X0065984Y0085180D01*
X0065971Y0085239D01*
X0065955Y0085298D01*
X0065935Y0085355D01*
X0065912Y0085410D01*
X0065885Y0085465D01*
X0065856Y0085517D01*
X0065823Y0085568D01*
X0065787Y0085617D01*
X0065749Y0085663D01*
X0065707Y0085707D01*
X0065663Y0085749D01*
X0065617Y0085787D01*
X0065568Y0085823D01*
X0065517Y0085856D01*
X0065465Y0085885D01*
X0065410Y0085912D01*
X0065355Y0085935D01*
X0065298Y0085955D01*
X0065239Y0085971D01*
X0065180Y0085984D01*
X0065121Y0085993D01*
X0065060Y0085998D01*
X0065000Y0086000D01*
X0038000Y0086000D01*
X0037940Y0085998D01*
X0037879Y0085993D01*
X0037820Y0085984D01*
X0037761Y0085971D01*
X0037702Y0085955D01*
X0037645Y0085935D01*
X0037590Y0085912D01*
X0037535Y0085885D01*
X0037483Y0085856D01*
X0037432Y0085823D01*
X0037383Y0085787D01*
X0037337Y0085749D01*
X0037293Y0085707D01*
X0037251Y0085663D01*
X0037213Y0085617D01*
X0037177Y0085568D01*
X0037144Y0085517D01*
X0037115Y0085465D01*
X0037088Y0085410D01*
X0037065Y0085355D01*
X0037045Y0085298D01*
X0037029Y0085239D01*
X0037016Y0085180D01*
X0037007Y0085121D01*
X0037002Y0085060D01*
X0037000Y0085000D01*
X0037000Y0077000D01*
X0037002Y0076940D01*
X0037007Y0076879D01*
X0037016Y0076820D01*
X0037029Y0076761D01*
X0037045Y0076702D01*
X0037065Y0076645D01*
X0037088Y0076590D01*
X0037115Y0076535D01*
X0037144Y0076483D01*
X0037177Y0076432D01*
X0037213Y0076383D01*
X0037251Y0076337D01*
X0037293Y0076293D01*
X0037337Y0076251D01*
X0037383Y0076213D01*
X0037432Y0076177D01*
X0037483Y0076144D01*
X0037535Y0076115D01*
X0037590Y0076088D01*
X0037645Y0076065D01*
X0037702Y0076045D01*
X0037761Y0076029D01*
X0037820Y0076016D01*
X0037879Y0076007D01*
X0037940Y0076002D01*
X0038000Y0076000D01*
X0045500Y0081000D02*
X0050200Y0081000D01*
X0052700Y0081000D02*
X0057500Y0081000D01*
X0071500Y0092000D02*
X0071500Y0119000D01*
X0071502Y0119060D01*
X0071507Y0119121D01*
X0071516Y0119180D01*
X0071529Y0119239D01*
X0071545Y0119298D01*
X0071565Y0119355D01*
X0071588Y0119410D01*
X0071615Y0119465D01*
X0071644Y0119517D01*
X0071677Y0119568D01*
X0071713Y0119617D01*
X0071751Y0119663D01*
X0071793Y0119707D01*
X0071837Y0119749D01*
X0071883Y0119787D01*
X0071932Y0119823D01*
X0071983Y0119856D01*
X0072035Y0119885D01*
X0072090Y0119912D01*
X0072145Y0119935D01*
X0072202Y0119955D01*
X0072261Y0119971D01*
X0072320Y0119984D01*
X0072379Y0119993D01*
X0072440Y0119998D01*
X0072500Y0120000D01*
X0080500Y0120000D01*
X0080560Y0119998D01*
X0080621Y0119993D01*
X0080680Y0119984D01*
X0080739Y0119971D01*
X0080798Y0119955D01*
X0080855Y0119935D01*
X0080910Y0119912D01*
X0080965Y0119885D01*
X0081017Y0119856D01*
X0081068Y0119823D01*
X0081117Y0119787D01*
X0081163Y0119749D01*
X0081207Y0119707D01*
X0081249Y0119663D01*
X0081287Y0119617D01*
X0081323Y0119568D01*
X0081356Y0119517D01*
X0081385Y0119465D01*
X0081412Y0119410D01*
X0081435Y0119355D01*
X0081455Y0119298D01*
X0081471Y0119239D01*
X0081484Y0119180D01*
X0081493Y0119121D01*
X0081498Y0119060D01*
X0081500Y0119000D01*
X0081500Y0092000D01*
X0081498Y0091940D01*
X0081493Y0091879D01*
X0081484Y0091820D01*
X0081471Y0091761D01*
X0081455Y0091702D01*
X0081435Y0091645D01*
X0081412Y0091590D01*
X0081385Y0091535D01*
X0081356Y0091483D01*
X0081323Y0091432D01*
X0081287Y0091383D01*
X0081249Y0091337D01*
X0081207Y0091293D01*
X0081163Y0091251D01*
X0081117Y0091213D01*
X0081068Y0091177D01*
X0081017Y0091144D01*
X0080965Y0091115D01*
X0080910Y0091088D01*
X0080855Y0091065D01*
X0080798Y0091045D01*
X0080739Y0091029D01*
X0080680Y0091016D01*
X0080621Y0091007D01*
X0080560Y0091002D01*
X0080500Y0091000D01*
X0072500Y0091000D01*
X0072440Y0091002D01*
X0072379Y0091007D01*
X0072320Y0091016D01*
X0072261Y0091029D01*
X0072202Y0091045D01*
X0072145Y0091065D01*
X0072090Y0091088D01*
X0072035Y0091115D01*
X0071983Y0091144D01*
X0071932Y0091177D01*
X0071883Y0091213D01*
X0071837Y0091251D01*
X0071793Y0091293D01*
X0071751Y0091337D01*
X0071713Y0091383D01*
X0071677Y0091432D01*
X0071644Y0091483D01*
X0071615Y0091535D01*
X0071588Y0091590D01*
X0071565Y0091645D01*
X0071545Y0091702D01*
X0071529Y0091761D01*
X0071516Y0091820D01*
X0071507Y0091879D01*
X0071502Y0091940D01*
X0071500Y0092000D01*
X0076500Y0099500D02*
X0076500Y0104300D01*
X0076500Y0106800D02*
X0076500Y0111500D01*
X0098000Y0131232D02*
X0098000Y0132732D01*
X0098500Y0133232D01*
X0098500Y0152232D01*
X0098000Y0152732D01*
X0098000Y0154232D01*
X0098002Y0154292D01*
X0098007Y0154353D01*
X0098016Y0154412D01*
X0098029Y0154471D01*
X0098045Y0154530D01*
X0098065Y0154587D01*
X0098088Y0154642D01*
X0098115Y0154697D01*
X0098144Y0154749D01*
X0098177Y0154800D01*
X0098213Y0154849D01*
X0098251Y0154895D01*
X0098293Y0154939D01*
X0098337Y0154981D01*
X0098383Y0155019D01*
X0098432Y0155055D01*
X0098483Y0155088D01*
X0098535Y0155117D01*
X0098590Y0155144D01*
X0098645Y0155167D01*
X0098702Y0155187D01*
X0098761Y0155203D01*
X0098820Y0155216D01*
X0098879Y0155225D01*
X0098940Y0155230D01*
X0099000Y0155232D01*
X0106000Y0155232D01*
X0106060Y0155230D01*
X0106121Y0155225D01*
X0106180Y0155216D01*
X0106239Y0155203D01*
X0106298Y0155187D01*
X0106355Y0155167D01*
X0106410Y0155144D01*
X0106465Y0155117D01*
X0106517Y0155088D01*
X0106568Y0155055D01*
X0106617Y0155019D01*
X0106663Y0154981D01*
X0106707Y0154939D01*
X0106749Y0154895D01*
X0106787Y0154849D01*
X0106823Y0154800D01*
X0106856Y0154749D01*
X0106885Y0154697D01*
X0106912Y0154642D01*
X0106935Y0154587D01*
X0106955Y0154530D01*
X0106971Y0154471D01*
X0106984Y0154412D01*
X0106993Y0154353D01*
X0106998Y0154292D01*
X0107000Y0154232D01*
X0107000Y0152732D01*
X0106500Y0152232D01*
X0106500Y0133232D01*
X0107000Y0132732D01*
X0107000Y0131232D01*
X0106998Y0131172D01*
X0106993Y0131111D01*
X0106984Y0131052D01*
X0106971Y0130993D01*
X0106955Y0130934D01*
X0106935Y0130877D01*
X0106912Y0130822D01*
X0106885Y0130767D01*
X0106856Y0130715D01*
X0106823Y0130664D01*
X0106787Y0130615D01*
X0106749Y0130569D01*
X0106707Y0130525D01*
X0106663Y0130483D01*
X0106617Y0130445D01*
X0106568Y0130409D01*
X0106517Y0130376D01*
X0106465Y0130347D01*
X0106410Y0130320D01*
X0106355Y0130297D01*
X0106298Y0130277D01*
X0106239Y0130261D01*
X0106180Y0130248D01*
X0106121Y0130239D01*
X0106060Y0130234D01*
X0106000Y0130232D01*
X0099000Y0130232D01*
X0098940Y0130234D01*
X0098879Y0130239D01*
X0098820Y0130248D01*
X0098761Y0130261D01*
X0098702Y0130277D01*
X0098645Y0130297D01*
X0098590Y0130320D01*
X0098535Y0130347D01*
X0098483Y0130376D01*
X0098432Y0130409D01*
X0098383Y0130445D01*
X0098337Y0130483D01*
X0098293Y0130525D01*
X0098251Y0130569D01*
X0098213Y0130615D01*
X0098177Y0130664D01*
X0098144Y0130715D01*
X0098115Y0130767D01*
X0098088Y0130822D01*
X0098065Y0130877D01*
X0098045Y0130934D01*
X0098029Y0130993D01*
X0098016Y0131052D01*
X0098007Y0131111D01*
X0098002Y0131172D01*
X0098000Y0131232D01*
X0089000Y0133500D02*
X0089000Y0141500D01*
X0088000Y0142500D01*
X0080000Y0142500D01*
X0079000Y0141500D01*
X0078000Y0142500D01*
X0070000Y0142500D01*
X0069000Y0141500D01*
X0069000Y0133500D01*
X0070000Y0132500D01*
X0078000Y0132500D01*
X0079000Y0133500D01*
X0080000Y0132500D01*
X0088000Y0132500D01*
X0089000Y0133500D01*
X0075500Y0158500D02*
X0074000Y0158500D01*
X0073500Y0159000D01*
X0054500Y0159000D01*
X0054000Y0158500D01*
X0052500Y0158500D01*
X0052440Y0158502D01*
X0052379Y0158507D01*
X0052320Y0158516D01*
X0052261Y0158529D01*
X0052202Y0158545D01*
X0052145Y0158565D01*
X0052090Y0158588D01*
X0052035Y0158615D01*
X0051983Y0158644D01*
X0051932Y0158677D01*
X0051883Y0158713D01*
X0051837Y0158751D01*
X0051793Y0158793D01*
X0051751Y0158837D01*
X0051713Y0158883D01*
X0051677Y0158932D01*
X0051644Y0158983D01*
X0051615Y0159035D01*
X0051588Y0159090D01*
X0051565Y0159145D01*
X0051545Y0159202D01*
X0051529Y0159261D01*
X0051516Y0159320D01*
X0051507Y0159379D01*
X0051502Y0159440D01*
X0051500Y0159500D01*
X0051500Y0166500D01*
X0051502Y0166560D01*
X0051507Y0166621D01*
X0051516Y0166680D01*
X0051529Y0166739D01*
X0051545Y0166798D01*
X0051565Y0166855D01*
X0051588Y0166910D01*
X0051615Y0166965D01*
X0051644Y0167017D01*
X0051677Y0167068D01*
X0051713Y0167117D01*
X0051751Y0167163D01*
X0051793Y0167207D01*
X0051837Y0167249D01*
X0051883Y0167287D01*
X0051932Y0167323D01*
X0051983Y0167356D01*
X0052035Y0167385D01*
X0052090Y0167412D01*
X0052145Y0167435D01*
X0052202Y0167455D01*
X0052261Y0167471D01*
X0052320Y0167484D01*
X0052379Y0167493D01*
X0052440Y0167498D01*
X0052500Y0167500D01*
X0054000Y0167500D01*
X0054500Y0167000D01*
X0073500Y0167000D01*
X0074000Y0167500D01*
X0075500Y0167500D01*
X0075560Y0167498D01*
X0075621Y0167493D01*
X0075680Y0167484D01*
X0075739Y0167471D01*
X0075798Y0167455D01*
X0075855Y0167435D01*
X0075910Y0167412D01*
X0075965Y0167385D01*
X0076017Y0167356D01*
X0076068Y0167323D01*
X0076117Y0167287D01*
X0076163Y0167249D01*
X0076207Y0167207D01*
X0076249Y0167163D01*
X0076287Y0167117D01*
X0076323Y0167068D01*
X0076356Y0167017D01*
X0076385Y0166965D01*
X0076412Y0166910D01*
X0076435Y0166855D01*
X0076455Y0166798D01*
X0076471Y0166739D01*
X0076484Y0166680D01*
X0076493Y0166621D01*
X0076498Y0166560D01*
X0076500Y0166500D01*
X0076500Y0159500D01*
X0076498Y0159440D01*
X0076493Y0159379D01*
X0076484Y0159320D01*
X0076471Y0159261D01*
X0076455Y0159202D01*
X0076435Y0159145D01*
X0076412Y0159090D01*
X0076385Y0159035D01*
X0076356Y0158983D01*
X0076323Y0158932D01*
X0076287Y0158883D01*
X0076249Y0158837D01*
X0076207Y0158793D01*
X0076163Y0158751D01*
X0076117Y0158713D01*
X0076068Y0158677D01*
X0076017Y0158644D01*
X0075965Y0158615D01*
X0075910Y0158588D01*
X0075855Y0158565D01*
X0075798Y0158545D01*
X0075739Y0158529D01*
X0075680Y0158516D01*
X0075621Y0158507D01*
X0075560Y0158502D01*
X0075500Y0158500D01*
X0088295Y0160300D02*
X0090430Y0162435D01*
X0088295Y0164570D01*
X0094700Y0164570D01*
X0093632Y0166745D02*
X0094700Y0167813D01*
X0094700Y0169948D01*
X0093632Y0171016D01*
X0094700Y0173191D02*
X0088295Y0173191D01*
X0089362Y0171016D02*
X0088295Y0169948D01*
X0088295Y0167813D01*
X0089362Y0166745D01*
X0093632Y0166745D01*
X0098362Y0167935D02*
X0102632Y0167935D01*
X0100497Y0165800D02*
X0100497Y0170070D01*
X0100497Y0172245D02*
X0099430Y0174381D01*
X0099430Y0175448D01*
X0100497Y0176516D01*
X0102632Y0176516D01*
X0103700Y0175448D01*
X0103700Y0173313D01*
X0102632Y0172245D01*
X0100497Y0172245D02*
X0097295Y0172245D01*
X0097295Y0176516D01*
X0097295Y0178691D02*
X0101565Y0178691D01*
X0103700Y0180826D01*
X0101565Y0182961D01*
X0097295Y0182961D01*
X0094700Y0183907D02*
X0092565Y0181772D01*
X0092565Y0182839D02*
X0092565Y0179636D01*
X0094700Y0179636D02*
X0088295Y0179636D01*
X0088295Y0182839D01*
X0089362Y0183907D01*
X0091497Y0183907D01*
X0092565Y0182839D01*
X0094700Y0177461D02*
X0094700Y0173191D01*
X0106795Y0171308D02*
X0113200Y0175579D01*
X0106795Y0175579D01*
X0106795Y0177754D02*
X0106795Y0180957D01*
X0107862Y0182024D01*
X0112132Y0182024D01*
X0113200Y0180957D01*
X0113200Y0177754D01*
X0106795Y0177754D01*
X0106795Y0171308D02*
X0113200Y0171308D01*
X0112132Y0169133D02*
X0109997Y0169133D01*
X0109997Y0166998D01*
X0107862Y0164863D02*
X0112132Y0164863D01*
X0113200Y0165931D01*
X0113200Y0168066D01*
X0112132Y0169133D01*
X0116295Y0169503D02*
X0116295Y0166300D01*
X0122700Y0166300D01*
X0120565Y0166300D02*
X0120565Y0169503D01*
X0119497Y0170570D01*
X0117362Y0170570D01*
X0116295Y0169503D01*
X0117362Y0172745D02*
X0116295Y0173813D01*
X0116295Y0175948D01*
X0117362Y0177016D01*
X0119497Y0177016D02*
X0119497Y0174881D01*
X0119497Y0177016D02*
X0121632Y0177016D01*
X0122700Y0175948D01*
X0122700Y0173813D01*
X0121632Y0172745D01*
X0117362Y0172745D01*
X0116295Y0179191D02*
X0116295Y0182394D01*
X0117362Y0183461D01*
X0121632Y0183461D01*
X0122700Y0182394D01*
X0122700Y0179191D01*
X0116295Y0179191D01*
X0126295Y0180259D02*
X0127362Y0179191D01*
X0131632Y0179191D01*
X0132700Y0180259D01*
X0132700Y0182394D01*
X0131632Y0183461D01*
X0127362Y0183461D02*
X0126295Y0182394D01*
X0126295Y0180259D01*
X0127362Y0177016D02*
X0126295Y0175948D01*
X0126295Y0173813D01*
X0127362Y0172745D01*
X0131632Y0172745D01*
X0132700Y0173813D01*
X0132700Y0175948D01*
X0131632Y0177016D01*
X0129497Y0177016D01*
X0129497Y0174881D01*
X0129497Y0170570D02*
X0127362Y0170570D01*
X0126295Y0169503D01*
X0126295Y0166300D01*
X0132700Y0166300D01*
X0130565Y0166300D02*
X0130565Y0169503D01*
X0129497Y0170570D01*
X0107862Y0169133D02*
X0106795Y0168066D01*
X0106795Y0165931D01*
X0107862Y0164863D01*
X0094700Y0160300D02*
X0088295Y0160300D01*
X0051000Y0141500D02*
X0051000Y0133500D01*
X0050998Y0133440D01*
X0050993Y0133379D01*
X0050984Y0133320D01*
X0050971Y0133261D01*
X0050955Y0133202D01*
X0050935Y0133145D01*
X0050912Y0133090D01*
X0050885Y0133035D01*
X0050856Y0132983D01*
X0050823Y0132932D01*
X0050787Y0132883D01*
X0050749Y0132837D01*
X0050707Y0132793D01*
X0050663Y0132751D01*
X0050617Y0132713D01*
X0050568Y0132677D01*
X0050517Y0132644D01*
X0050465Y0132615D01*
X0050410Y0132588D01*
X0050355Y0132565D01*
X0050298Y0132545D01*
X0050239Y0132529D01*
X0050180Y0132516D01*
X0050121Y0132507D01*
X0050060Y0132502D01*
X0050000Y0132500D01*
X0023000Y0132500D01*
X0022940Y0132502D01*
X0022879Y0132507D01*
X0022820Y0132516D01*
X0022761Y0132529D01*
X0022702Y0132545D01*
X0022645Y0132565D01*
X0022590Y0132588D01*
X0022535Y0132615D01*
X0022483Y0132644D01*
X0022432Y0132677D01*
X0022383Y0132713D01*
X0022337Y0132751D01*
X0022293Y0132793D01*
X0022251Y0132837D01*
X0022213Y0132883D01*
X0022177Y0132932D01*
X0022144Y0132983D01*
X0022115Y0133035D01*
X0022088Y0133090D01*
X0022065Y0133145D01*
X0022045Y0133202D01*
X0022029Y0133261D01*
X0022016Y0133320D01*
X0022007Y0133379D01*
X0022002Y0133440D01*
X0022000Y0133500D01*
X0022000Y0141500D01*
X0022002Y0141560D01*
X0022007Y0141621D01*
X0022016Y0141680D01*
X0022029Y0141739D01*
X0022045Y0141798D01*
X0022065Y0141855D01*
X0022088Y0141910D01*
X0022115Y0141965D01*
X0022144Y0142017D01*
X0022177Y0142068D01*
X0022213Y0142117D01*
X0022251Y0142163D01*
X0022293Y0142207D01*
X0022337Y0142249D01*
X0022383Y0142287D01*
X0022432Y0142323D01*
X0022483Y0142356D01*
X0022535Y0142385D01*
X0022590Y0142412D01*
X0022645Y0142435D01*
X0022702Y0142455D01*
X0022761Y0142471D01*
X0022820Y0142484D01*
X0022879Y0142493D01*
X0022940Y0142498D01*
X0023000Y0142500D01*
X0050000Y0142500D01*
X0050060Y0142498D01*
X0050121Y0142493D01*
X0050180Y0142484D01*
X0050239Y0142471D01*
X0050298Y0142455D01*
X0050355Y0142435D01*
X0050410Y0142412D01*
X0050465Y0142385D01*
X0050517Y0142356D01*
X0050568Y0142323D01*
X0050617Y0142287D01*
X0050663Y0142249D01*
X0050707Y0142207D01*
X0050749Y0142163D01*
X0050787Y0142117D01*
X0050823Y0142068D01*
X0050856Y0142017D01*
X0050885Y0141965D01*
X0050912Y0141910D01*
X0050935Y0141855D01*
X0050955Y0141798D01*
X0050971Y0141739D01*
X0050984Y0141680D01*
X0050993Y0141621D01*
X0050998Y0141560D01*
X0051000Y0141500D01*
X0042500Y0137500D02*
X0037700Y0137500D01*
X0035200Y0137500D02*
X0030500Y0137500D01*
X0084000Y0193000D02*
X0086500Y0190500D01*
X0091500Y0190500D01*
X0094000Y0193000D01*
X0096500Y0190500D01*
X0101500Y0190500D01*
X0104000Y0193000D01*
X0104000Y0198000D01*
X0101500Y0200500D01*
X0096500Y0200500D01*
X0094000Y0198000D01*
X0094000Y0193000D01*
X0094000Y0198000D02*
X0091500Y0200500D01*
X0086500Y0200500D01*
X0084000Y0198000D01*
X0084000Y0193000D01*
X0104000Y0193000D02*
X0106500Y0190500D01*
X0111500Y0190500D01*
X0114000Y0193000D01*
X0116500Y0190500D01*
X0121500Y0190500D01*
X0124000Y0193000D01*
X0126500Y0190500D01*
X0131500Y0190500D01*
X0134000Y0193000D01*
X0134000Y0198000D01*
X0131500Y0200500D01*
X0126500Y0200500D01*
X0124000Y0198000D01*
X0124000Y0193000D01*
X0124000Y0198000D02*
X0121500Y0200500D01*
X0116500Y0200500D01*
X0114000Y0198000D01*
X0114000Y0193000D01*
X0114000Y0198000D02*
X0111500Y0200500D01*
X0106500Y0200500D01*
X0104000Y0198000D01*
X0086500Y0228500D02*
X0081500Y0228500D01*
X0079000Y0231000D01*
X0079000Y0236000D01*
X0081500Y0238500D01*
X0079000Y0241000D01*
X0079000Y0246000D01*
X0081500Y0248500D01*
X0079000Y0251000D01*
X0079000Y0256000D01*
X0081500Y0258500D01*
X0086500Y0258500D01*
X0089000Y0256000D01*
X0089000Y0251000D01*
X0086500Y0248500D01*
X0089000Y0246000D01*
X0089000Y0241000D01*
X0086500Y0238500D01*
X0089000Y0236000D01*
X0089000Y0231000D01*
X0086500Y0228500D01*
X0092800Y0231368D02*
X0093868Y0230300D01*
X0096003Y0230300D01*
X0097070Y0231368D01*
X0097070Y0233503D01*
X0094935Y0233503D01*
X0092800Y0235638D02*
X0092800Y0231368D01*
X0092800Y0235638D02*
X0093868Y0236705D01*
X0096003Y0236705D01*
X0097070Y0235638D01*
X0099245Y0236705D02*
X0103516Y0230300D01*
X0103516Y0236705D01*
X0105691Y0236705D02*
X0108894Y0236705D01*
X0109961Y0235638D01*
X0109961Y0231368D01*
X0108894Y0230300D01*
X0105691Y0230300D01*
X0105691Y0236705D01*
X0105191Y0240800D02*
X0105191Y0247205D01*
X0109461Y0240800D01*
X0109461Y0247205D01*
X0111636Y0247205D02*
X0111636Y0240800D01*
X0115907Y0240800D01*
X0103016Y0240800D02*
X0103016Y0245070D01*
X0100881Y0247205D01*
X0098745Y0245070D01*
X0098745Y0240800D01*
X0096570Y0241868D02*
X0095503Y0240800D01*
X0093368Y0240800D01*
X0092300Y0241868D01*
X0092300Y0246138D01*
X0093368Y0247205D01*
X0095503Y0247205D01*
X0096570Y0246138D01*
X0098745Y0244003D02*
X0103016Y0244003D01*
X0103016Y0251300D02*
X0103016Y0255570D01*
X0100881Y0257705D01*
X0098745Y0255570D01*
X0098745Y0251300D01*
X0096570Y0252368D02*
X0095503Y0251300D01*
X0093368Y0251300D01*
X0092300Y0252368D01*
X0092300Y0256638D01*
X0093368Y0257705D01*
X0095503Y0257705D01*
X0096570Y0256638D01*
X0098745Y0254503D02*
X0103016Y0254503D01*
X0105191Y0257705D02*
X0105191Y0251300D01*
X0109461Y0251300D02*
X0109461Y0257705D01*
X0111636Y0257705D02*
X0111636Y0251300D01*
X0109461Y0251300D02*
X0105191Y0257705D01*
X0111636Y0254503D02*
X0115907Y0254503D01*
X0115907Y0257705D02*
X0115907Y0251300D01*
X0134500Y0237500D02*
X0134500Y0229500D01*
X0134502Y0229440D01*
X0134507Y0229379D01*
X0134516Y0229320D01*
X0134529Y0229261D01*
X0134545Y0229202D01*
X0134565Y0229145D01*
X0134588Y0229090D01*
X0134615Y0229035D01*
X0134644Y0228983D01*
X0134677Y0228932D01*
X0134713Y0228883D01*
X0134751Y0228837D01*
X0134793Y0228793D01*
X0134837Y0228751D01*
X0134883Y0228713D01*
X0134932Y0228677D01*
X0134983Y0228644D01*
X0135035Y0228615D01*
X0135090Y0228588D01*
X0135145Y0228565D01*
X0135202Y0228545D01*
X0135261Y0228529D01*
X0135320Y0228516D01*
X0135379Y0228507D01*
X0135440Y0228502D01*
X0135500Y0228500D01*
X0162500Y0228500D01*
X0162560Y0228502D01*
X0162621Y0228507D01*
X0162680Y0228516D01*
X0162739Y0228529D01*
X0162798Y0228545D01*
X0162855Y0228565D01*
X0162910Y0228588D01*
X0162965Y0228615D01*
X0163017Y0228644D01*
X0163068Y0228677D01*
X0163117Y0228713D01*
X0163163Y0228751D01*
X0163207Y0228793D01*
X0163249Y0228837D01*
X0163287Y0228883D01*
X0163323Y0228932D01*
X0163356Y0228983D01*
X0163385Y0229035D01*
X0163412Y0229090D01*
X0163435Y0229145D01*
X0163455Y0229202D01*
X0163471Y0229261D01*
X0163484Y0229320D01*
X0163493Y0229379D01*
X0163498Y0229440D01*
X0163500Y0229500D01*
X0163500Y0237500D01*
X0163498Y0237560D01*
X0163493Y0237621D01*
X0163484Y0237680D01*
X0163471Y0237739D01*
X0163455Y0237798D01*
X0163435Y0237855D01*
X0163412Y0237910D01*
X0163385Y0237965D01*
X0163356Y0238017D01*
X0163323Y0238068D01*
X0163287Y0238117D01*
X0163249Y0238163D01*
X0163207Y0238207D01*
X0163163Y0238249D01*
X0163117Y0238287D01*
X0163068Y0238323D01*
X0163017Y0238356D01*
X0162965Y0238385D01*
X0162910Y0238412D01*
X0162855Y0238435D01*
X0162798Y0238455D01*
X0162739Y0238471D01*
X0162680Y0238484D01*
X0162621Y0238493D01*
X0162560Y0238498D01*
X0162500Y0238500D01*
X0135500Y0238500D01*
X0135440Y0238498D01*
X0135379Y0238493D01*
X0135320Y0238484D01*
X0135261Y0238471D01*
X0135202Y0238455D01*
X0135145Y0238435D01*
X0135090Y0238412D01*
X0135035Y0238385D01*
X0134983Y0238356D01*
X0134932Y0238323D01*
X0134883Y0238287D01*
X0134837Y0238249D01*
X0134793Y0238207D01*
X0134751Y0238163D01*
X0134713Y0238117D01*
X0134677Y0238068D01*
X0134644Y0238017D01*
X0134615Y0237965D01*
X0134588Y0237910D01*
X0134565Y0237855D01*
X0134545Y0237798D01*
X0134529Y0237739D01*
X0134516Y0237680D01*
X0134507Y0237621D01*
X0134502Y0237560D01*
X0134500Y0237500D01*
X0143000Y0233500D02*
X0147800Y0233500D01*
X0150300Y0233500D02*
X0155000Y0233500D01*
X0099245Y0230300D02*
X0099245Y0236705D01*
X0086500Y0238500D02*
X0081500Y0238500D01*
X0081500Y0248500D02*
X0086500Y0248500D01*
X0190800Y0167570D02*
X0192935Y0169705D01*
X0192935Y0163300D01*
X0190800Y0163300D02*
X0195070Y0163300D01*
X0197245Y0163300D02*
X0198313Y0163300D01*
X0198313Y0164368D01*
X0197245Y0164368D01*
X0197245Y0163300D01*
X0200468Y0163300D02*
X0204739Y0167570D01*
X0204739Y0168638D01*
X0203671Y0169705D01*
X0201536Y0169705D01*
X0200468Y0168638D01*
X0206914Y0167570D02*
X0209049Y0169705D01*
X0211184Y0167570D01*
X0211184Y0163300D01*
X0211184Y0166503D02*
X0206914Y0166503D01*
X0206914Y0167570D02*
X0206914Y0163300D01*
X0204739Y0163300D02*
X0200468Y0163300D01*
X0219805Y0163300D02*
X0219805Y0169705D01*
X0224075Y0169705D01*
X0226250Y0169705D02*
X0226250Y0164368D01*
X0227318Y0163300D01*
X0229453Y0163300D01*
X0230521Y0164368D01*
X0230521Y0169705D01*
X0232696Y0168638D02*
X0232696Y0167570D01*
X0233763Y0166503D01*
X0235898Y0166503D01*
X0236966Y0165435D01*
X0236966Y0164368D01*
X0235898Y0163300D01*
X0233763Y0163300D01*
X0232696Y0164368D01*
X0232696Y0168638D02*
X0233763Y0169705D01*
X0235898Y0169705D01*
X0236966Y0168638D01*
X0239141Y0169705D02*
X0239141Y0163300D01*
X0243412Y0163300D01*
X0241276Y0166503D02*
X0239141Y0166503D01*
X0239141Y0169705D02*
X0243412Y0169705D01*
X0221940Y0166503D02*
X0219805Y0166503D01*
X0231563Y0147702D02*
X0231563Y0140422D01*
X0233989Y0140422D02*
X0229136Y0140422D01*
X0229136Y0145276D02*
X0231563Y0147702D01*
X0236386Y0141635D02*
X0237599Y0141635D01*
X0237599Y0140422D01*
X0236386Y0140422D01*
X0236386Y0141635D01*
X0240011Y0140422D02*
X0244865Y0140422D01*
X0242438Y0140422D02*
X0242438Y0147702D01*
X0240011Y0145276D01*
X0236406Y0135891D02*
X0236406Y0128611D01*
X0238803Y0129824D02*
X0240016Y0128611D01*
X0242443Y0128611D01*
X0243656Y0129824D01*
X0243656Y0132251D01*
X0242443Y0133465D01*
X0240016Y0133465D01*
X0238803Y0132251D01*
X0238803Y0129824D01*
X0236406Y0132251D02*
X0231553Y0132251D01*
X0231553Y0128611D02*
X0231553Y0135891D01*
X0221905Y0133465D02*
X0218265Y0133465D01*
X0217052Y0132251D01*
X0218265Y0131038D01*
X0220692Y0131038D01*
X0221905Y0129824D01*
X0220692Y0128611D01*
X0217052Y0128611D01*
X0214655Y0129824D02*
X0214655Y0132251D01*
X0213442Y0133465D01*
X0211015Y0133465D01*
X0209802Y0132251D01*
X0209802Y0129824D01*
X0211015Y0128611D01*
X0213442Y0128611D01*
X0214655Y0129824D01*
X0213447Y0124080D02*
X0208593Y0116800D01*
X0201343Y0116800D02*
X0206197Y0124080D01*
X0206192Y0128611D02*
X0202551Y0128611D01*
X0202551Y0135891D01*
X0202551Y0133465D02*
X0206192Y0133465D01*
X0207405Y0132251D01*
X0207405Y0129824D01*
X0206192Y0128611D01*
X0200155Y0128611D02*
X0200155Y0133465D01*
X0195301Y0133465D02*
X0195301Y0129824D01*
X0196514Y0128611D01*
X0200155Y0128611D01*
X0198931Y0121653D02*
X0198931Y0120440D01*
X0197718Y0120440D01*
X0197718Y0121653D01*
X0198931Y0121653D01*
X0195321Y0121653D02*
X0191681Y0121653D01*
X0190468Y0120440D01*
X0191681Y0119227D01*
X0194108Y0119227D01*
X0195321Y0118013D01*
X0194108Y0116800D01*
X0190468Y0116800D01*
X0188071Y0118013D02*
X0188071Y0120440D01*
X0186857Y0121653D01*
X0183217Y0121653D01*
X0183217Y0114373D01*
X0183217Y0116800D02*
X0186857Y0116800D01*
X0188071Y0118013D01*
X0180811Y0116800D02*
X0179597Y0118013D01*
X0179597Y0122867D01*
X0178384Y0121653D02*
X0180811Y0121653D01*
X0175977Y0121653D02*
X0173550Y0121653D01*
X0174764Y0122867D02*
X0174764Y0118013D01*
X0175977Y0116800D01*
X0171153Y0116800D02*
X0171153Y0120440D01*
X0169940Y0121653D01*
X0167513Y0121653D01*
X0166300Y0120440D01*
X0166300Y0124080D02*
X0166300Y0116800D01*
X0175977Y0126184D02*
X0177190Y0126184D01*
X0178404Y0127398D01*
X0178404Y0133465D01*
X0173550Y0133465D02*
X0173550Y0129824D01*
X0174764Y0128611D01*
X0178404Y0128611D01*
X0171153Y0129824D02*
X0169940Y0128611D01*
X0166300Y0128611D01*
X0166300Y0135891D01*
X0169940Y0135891D01*
X0171153Y0134678D01*
X0171153Y0133465D01*
X0169940Y0132251D01*
X0166300Y0132251D01*
X0169940Y0132251D02*
X0171153Y0131038D01*
X0171153Y0129824D01*
X0169940Y0140422D02*
X0167513Y0140422D01*
X0166300Y0141635D01*
X0166300Y0146489D01*
X0167513Y0147702D01*
X0169940Y0147702D01*
X0171153Y0146489D01*
X0174764Y0145276D02*
X0177190Y0145276D01*
X0178404Y0144062D01*
X0178404Y0140422D01*
X0174764Y0140422D01*
X0173550Y0141635D01*
X0174764Y0142849D01*
X0178404Y0142849D01*
X0180801Y0145276D02*
X0184441Y0145276D01*
X0185654Y0144062D01*
X0185654Y0140422D01*
X0188051Y0140422D02*
X0188051Y0147702D01*
X0191691Y0147702D01*
X0192904Y0146489D01*
X0192904Y0144062D01*
X0191691Y0142849D01*
X0188051Y0142849D01*
X0190478Y0142849D02*
X0192904Y0140422D01*
X0195301Y0141635D02*
X0195301Y0144062D01*
X0196514Y0145276D01*
X0198941Y0145276D01*
X0200155Y0144062D01*
X0200155Y0142849D01*
X0195301Y0142849D01*
X0195301Y0141635D02*
X0196514Y0140422D01*
X0198941Y0140422D01*
X0202551Y0140422D02*
X0204978Y0140422D01*
X0203765Y0140422D02*
X0203765Y0147702D01*
X0202551Y0147702D01*
X0208598Y0145276D02*
X0211025Y0145276D01*
X0212238Y0144062D01*
X0212238Y0140422D01*
X0208598Y0140422D01*
X0207385Y0141635D01*
X0208598Y0142849D01*
X0212238Y0142849D01*
X0214635Y0141635D02*
X0214635Y0145276D01*
X0214635Y0141635D02*
X0215849Y0140422D01*
X0219489Y0140422D01*
X0219489Y0139209D02*
X0218275Y0137995D01*
X0217062Y0137995D01*
X0219489Y0139209D02*
X0219489Y0145276D01*
X0224307Y0125294D02*
X0224307Y0124080D01*
X0224307Y0121653D02*
X0224307Y0116800D01*
X0223094Y0116800D02*
X0225521Y0116800D01*
X0229141Y0118013D02*
X0230354Y0116800D01*
X0229141Y0118013D02*
X0229141Y0122867D01*
X0227927Y0121653D02*
X0230354Y0121653D01*
X0232761Y0120440D02*
X0233974Y0121653D01*
X0236401Y0121653D01*
X0237614Y0120440D01*
X0237614Y0116800D01*
X0240011Y0118013D02*
X0241225Y0116800D01*
X0244865Y0116800D01*
X0244865Y0121653D01*
X0247262Y0121653D02*
X0250902Y0121653D01*
X0252115Y0120440D01*
X0252115Y0118013D01*
X0250902Y0116800D01*
X0247262Y0116800D01*
X0247262Y0124080D01*
X0247266Y0128611D02*
X0250907Y0128611D01*
X0250907Y0133465D01*
X0253303Y0132251D02*
X0254517Y0131038D01*
X0256944Y0131038D01*
X0258157Y0129824D01*
X0256944Y0128611D01*
X0253303Y0128611D01*
X0253303Y0132251D02*
X0254517Y0133465D01*
X0258157Y0133465D01*
X0261767Y0133465D02*
X0264194Y0133465D01*
X0265407Y0132251D01*
X0265407Y0128611D01*
X0261767Y0128611D01*
X0260554Y0129824D01*
X0261767Y0131038D01*
X0265407Y0131038D01*
X0266601Y0121653D02*
X0265387Y0120440D01*
X0265387Y0118013D01*
X0266601Y0116800D01*
X0269027Y0116800D01*
X0270241Y0118013D01*
X0270241Y0120440D01*
X0269027Y0121653D01*
X0266601Y0121653D01*
X0262990Y0121653D02*
X0259350Y0121653D01*
X0258137Y0120440D01*
X0258137Y0118013D01*
X0259350Y0116800D01*
X0262990Y0116800D01*
X0255725Y0116800D02*
X0254512Y0116800D01*
X0254512Y0118013D01*
X0255725Y0118013D01*
X0255725Y0116800D01*
X0247266Y0128611D02*
X0246053Y0129824D01*
X0246053Y0133465D01*
X0240011Y0121653D02*
X0240011Y0118013D01*
X0232761Y0116800D02*
X0232761Y0124080D01*
X0224307Y0121653D02*
X0223094Y0121653D01*
X0220697Y0121653D02*
X0217057Y0121653D01*
X0215844Y0120440D01*
X0215844Y0118013D01*
X0217057Y0116800D01*
X0220697Y0116800D01*
X0220697Y0115587D02*
X0220697Y0121653D01*
X0220697Y0115587D02*
X0219484Y0114373D01*
X0218270Y0114373D01*
X0198931Y0116800D02*
X0197718Y0116800D01*
X0197718Y0118013D01*
X0198931Y0118013D01*
X0198931Y0116800D01*
X0192904Y0128611D02*
X0188051Y0128611D01*
X0188051Y0135891D01*
X0180801Y0140422D02*
X0180801Y0145276D01*
X0171153Y0141635D02*
X0169940Y0140422D01*
X0208028Y0072024D02*
X0213028Y0072024D01*
X0215528Y0069524D01*
X0215528Y0054524D01*
X0218028Y0052024D01*
X0223028Y0052024D01*
X0225528Y0054524D01*
X0225528Y0069524D01*
X0228028Y0072024D01*
X0233028Y0072024D01*
X0235528Y0069524D01*
X0235528Y0054524D01*
X0238028Y0052024D01*
X0243028Y0052024D01*
X0245528Y0054524D01*
X0245528Y0069524D01*
X0248028Y0072024D01*
X0253028Y0072024D01*
X0255528Y0069524D01*
X0255528Y0054524D01*
X0258028Y0052024D01*
X0263028Y0052024D01*
X0265528Y0054524D01*
X0265528Y0069524D01*
X0268028Y0072024D01*
X0273028Y0072024D01*
X0275528Y0069524D01*
X0275528Y0054524D01*
X0273028Y0052024D01*
X0268028Y0052024D01*
X0265528Y0054524D01*
X0275528Y0054524D02*
X0278028Y0052024D01*
X0283028Y0052024D01*
X0285528Y0054524D01*
X0285528Y0069524D01*
X0288028Y0072024D01*
X0293028Y0072024D01*
X0295528Y0069524D01*
X0295528Y0054524D01*
X0293028Y0052024D01*
X0288028Y0052024D01*
X0285528Y0054524D01*
X0295528Y0054524D02*
X0298028Y0052024D01*
X0303028Y0052024D01*
X0305528Y0054524D01*
X0305528Y0069524D01*
X0308028Y0072024D01*
X0313028Y0072024D01*
X0315528Y0069524D01*
X0315528Y0054524D01*
X0313028Y0052024D01*
X0308028Y0052024D01*
X0305528Y0054524D01*
X0315528Y0054524D02*
X0318028Y0052024D01*
X0323028Y0052024D01*
X0325528Y0054524D01*
X0325528Y0069524D01*
X0328028Y0072024D01*
X0333028Y0072024D01*
X0335528Y0069524D01*
X0335528Y0054524D01*
X0333028Y0052024D01*
X0328028Y0052024D01*
X0325528Y0054524D01*
X0335528Y0054524D02*
X0338028Y0052024D01*
X0343028Y0052024D01*
X0345528Y0054524D01*
X0345528Y0069524D01*
X0348028Y0072024D01*
X0353028Y0072024D01*
X0355528Y0069524D01*
X0355528Y0054524D01*
X0353028Y0052024D01*
X0348028Y0052024D01*
X0345528Y0054524D01*
X0345528Y0069524D02*
X0343028Y0072024D01*
X0338028Y0072024D01*
X0335528Y0069524D01*
X0325528Y0069524D02*
X0323028Y0072024D01*
X0318028Y0072024D01*
X0315528Y0069524D01*
X0305528Y0069524D02*
X0303028Y0072024D01*
X0298028Y0072024D01*
X0295528Y0069524D01*
X0285528Y0069524D02*
X0283028Y0072024D01*
X0278028Y0072024D01*
X0275528Y0069524D01*
X0265528Y0069524D02*
X0263028Y0072024D01*
X0258028Y0072024D01*
X0255528Y0069524D01*
X0245528Y0069524D02*
X0243028Y0072024D01*
X0238028Y0072024D01*
X0235528Y0069524D01*
X0225528Y0069524D02*
X0223028Y0072024D01*
X0218028Y0072024D01*
X0215528Y0069524D01*
X0208028Y0072024D02*
X0205528Y0069524D01*
X0205528Y0054524D01*
X0208028Y0052024D01*
X0213028Y0052024D01*
X0215528Y0054524D01*
X0225528Y0054524D02*
X0228028Y0052024D01*
X0233028Y0052024D01*
X0235528Y0054524D01*
X0245528Y0054524D02*
X0248028Y0052024D01*
X0253028Y0052024D01*
X0255528Y0054524D01*
X0175000Y0058024D02*
X0175000Y0066024D01*
X0174998Y0066084D01*
X0174993Y0066145D01*
X0174984Y0066204D01*
X0174971Y0066263D01*
X0174955Y0066322D01*
X0174935Y0066379D01*
X0174912Y0066434D01*
X0174885Y0066489D01*
X0174856Y0066541D01*
X0174823Y0066592D01*
X0174787Y0066641D01*
X0174749Y0066687D01*
X0174707Y0066731D01*
X0174663Y0066773D01*
X0174617Y0066811D01*
X0174568Y0066847D01*
X0174517Y0066880D01*
X0174465Y0066909D01*
X0174410Y0066936D01*
X0174355Y0066959D01*
X0174298Y0066979D01*
X0174239Y0066995D01*
X0174180Y0067008D01*
X0174121Y0067017D01*
X0174060Y0067022D01*
X0174000Y0067024D01*
X0147000Y0067024D01*
X0146940Y0067022D01*
X0146879Y0067017D01*
X0146820Y0067008D01*
X0146761Y0066995D01*
X0146702Y0066979D01*
X0146645Y0066959D01*
X0146590Y0066936D01*
X0146535Y0066909D01*
X0146483Y0066880D01*
X0146432Y0066847D01*
X0146383Y0066811D01*
X0146337Y0066773D01*
X0146293Y0066731D01*
X0146251Y0066687D01*
X0146213Y0066641D01*
X0146177Y0066592D01*
X0146144Y0066541D01*
X0146115Y0066489D01*
X0146088Y0066434D01*
X0146065Y0066379D01*
X0146045Y0066322D01*
X0146029Y0066263D01*
X0146016Y0066204D01*
X0146007Y0066145D01*
X0146002Y0066084D01*
X0146000Y0066024D01*
X0146000Y0058024D01*
X0146002Y0057964D01*
X0146007Y0057903D01*
X0146016Y0057844D01*
X0146029Y0057785D01*
X0146045Y0057726D01*
X0146065Y0057669D01*
X0146088Y0057614D01*
X0146115Y0057559D01*
X0146144Y0057507D01*
X0146177Y0057456D01*
X0146213Y0057407D01*
X0146251Y0057361D01*
X0146293Y0057317D01*
X0146337Y0057275D01*
X0146383Y0057237D01*
X0146432Y0057201D01*
X0146483Y0057168D01*
X0146535Y0057139D01*
X0146590Y0057112D01*
X0146645Y0057089D01*
X0146702Y0057069D01*
X0146761Y0057053D01*
X0146820Y0057040D01*
X0146879Y0057031D01*
X0146940Y0057026D01*
X0147000Y0057024D01*
X0174000Y0057024D01*
X0174060Y0057026D01*
X0174121Y0057031D01*
X0174180Y0057040D01*
X0174239Y0057053D01*
X0174298Y0057069D01*
X0174355Y0057089D01*
X0174410Y0057112D01*
X0174465Y0057139D01*
X0174517Y0057168D01*
X0174568Y0057201D01*
X0174617Y0057237D01*
X0174663Y0057275D01*
X0174707Y0057317D01*
X0174749Y0057361D01*
X0174787Y0057407D01*
X0174823Y0057456D01*
X0174856Y0057507D01*
X0174885Y0057559D01*
X0174912Y0057614D01*
X0174935Y0057669D01*
X0174955Y0057726D01*
X0174971Y0057785D01*
X0174984Y0057844D01*
X0174993Y0057903D01*
X0174998Y0057964D01*
X0175000Y0058024D01*
X0166500Y0062024D02*
X0161800Y0062024D01*
X0159300Y0062024D02*
X0154500Y0062024D01*
X0067000Y0062583D02*
X0067000Y0035583D01*
X0066997Y0035364D01*
X0066989Y0035145D01*
X0066976Y0034926D01*
X0066957Y0034708D01*
X0066933Y0034490D01*
X0066904Y0034273D01*
X0066870Y0034056D01*
X0066830Y0033841D01*
X0066785Y0033626D01*
X0066734Y0033413D01*
X0066679Y0033201D01*
X0066618Y0032990D01*
X0066553Y0032781D01*
X0066482Y0032574D01*
X0066406Y0032368D01*
X0066325Y0032164D01*
X0066240Y0031962D01*
X0066149Y0031763D01*
X0066054Y0031566D01*
X0065953Y0031371D01*
X0065848Y0031178D01*
X0065739Y0030988D01*
X0065625Y0030801D01*
X0065506Y0030617D01*
X0065383Y0030436D01*
X0065255Y0030258D01*
X0065123Y0030082D01*
X0064987Y0029911D01*
X0064847Y0029742D01*
X0064703Y0029577D01*
X0064555Y0029416D01*
X0064403Y0029258D01*
X0064247Y0029104D01*
X0064087Y0028954D01*
X0063924Y0028807D01*
X0063757Y0028665D01*
X0063587Y0028527D01*
X0063413Y0028393D01*
X0063237Y0028263D01*
X0063057Y0028138D01*
X0062874Y0028017D01*
X0062688Y0027901D01*
X0062500Y0027789D01*
X0062309Y0027682D01*
X0062115Y0027579D01*
X0061919Y0027481D01*
X0061721Y0027388D01*
X0061520Y0027300D01*
X0061317Y0027217D01*
X0061112Y0027138D01*
X0060906Y0027065D01*
X0060698Y0026997D01*
X0060488Y0026934D01*
X0060276Y0026876D01*
X0060064Y0026823D01*
X0059850Y0026775D01*
X0059635Y0026733D01*
X0059419Y0026696D01*
X0059202Y0026664D01*
X0058984Y0026637D01*
X0058766Y0026616D01*
X0058548Y0026600D01*
X0058329Y0026589D01*
X0058110Y0026584D01*
X0057890Y0026584D01*
X0057671Y0026589D01*
X0057452Y0026600D01*
X0057234Y0026616D01*
X0057016Y0026637D01*
X0056798Y0026664D01*
X0056581Y0026696D01*
X0056365Y0026733D01*
X0056150Y0026775D01*
X0055936Y0026823D01*
X0055724Y0026876D01*
X0055512Y0026934D01*
X0055302Y0026997D01*
X0055094Y0027065D01*
X0054888Y0027138D01*
X0054683Y0027217D01*
X0054480Y0027300D01*
X0054279Y0027388D01*
X0054081Y0027481D01*
X0053885Y0027579D01*
X0053691Y0027682D01*
X0053500Y0027789D01*
X0053312Y0027901D01*
X0053126Y0028017D01*
X0052943Y0028138D01*
X0052763Y0028263D01*
X0052587Y0028393D01*
X0052413Y0028527D01*
X0052243Y0028665D01*
X0052076Y0028807D01*
X0051913Y0028954D01*
X0051753Y0029104D01*
X0051597Y0029258D01*
X0051445Y0029416D01*
X0051297Y0029577D01*
X0051153Y0029742D01*
X0051013Y0029911D01*
X0050877Y0030082D01*
X0050745Y0030258D01*
X0050617Y0030436D01*
X0050494Y0030617D01*
X0050375Y0030801D01*
X0050261Y0030988D01*
X0050152Y0031178D01*
X0050047Y0031371D01*
X0049946Y0031566D01*
X0049851Y0031763D01*
X0049760Y0031962D01*
X0049675Y0032164D01*
X0049594Y0032368D01*
X0049518Y0032574D01*
X0049447Y0032781D01*
X0049382Y0032990D01*
X0049321Y0033201D01*
X0049266Y0033413D01*
X0049215Y0033626D01*
X0049170Y0033841D01*
X0049130Y0034056D01*
X0049096Y0034273D01*
X0049067Y0034490D01*
X0049043Y0034708D01*
X0049024Y0034926D01*
X0049011Y0035145D01*
X0049003Y0035364D01*
X0049000Y0035583D01*
X0049000Y0062583D02*
X0049003Y0062802D01*
X0049011Y0063021D01*
X0049024Y0063240D01*
X0049043Y0063458D01*
X0049067Y0063676D01*
X0049096Y0063893D01*
X0049130Y0064110D01*
X0049170Y0064325D01*
X0049215Y0064540D01*
X0049266Y0064753D01*
X0049321Y0064965D01*
X0049382Y0065176D01*
X0049447Y0065385D01*
X0049518Y0065592D01*
X0049594Y0065798D01*
X0049675Y0066002D01*
X0049760Y0066204D01*
X0049851Y0066403D01*
X0049946Y0066600D01*
X0050047Y0066795D01*
X0050152Y0066988D01*
X0050261Y0067178D01*
X0050375Y0067365D01*
X0050494Y0067549D01*
X0050617Y0067730D01*
X0050745Y0067908D01*
X0050877Y0068084D01*
X0051013Y0068255D01*
X0051153Y0068424D01*
X0051297Y0068589D01*
X0051445Y0068750D01*
X0051597Y0068908D01*
X0051753Y0069062D01*
X0051913Y0069212D01*
X0052076Y0069359D01*
X0052243Y0069501D01*
X0052413Y0069639D01*
X0052587Y0069773D01*
X0052763Y0069903D01*
X0052943Y0070028D01*
X0053126Y0070149D01*
X0053312Y0070265D01*
X0053500Y0070377D01*
X0053691Y0070484D01*
X0053885Y0070587D01*
X0054081Y0070685D01*
X0054279Y0070778D01*
X0054480Y0070866D01*
X0054683Y0070949D01*
X0054888Y0071028D01*
X0055094Y0071101D01*
X0055302Y0071169D01*
X0055512Y0071232D01*
X0055724Y0071290D01*
X0055936Y0071343D01*
X0056150Y0071391D01*
X0056365Y0071433D01*
X0056581Y0071470D01*
X0056798Y0071502D01*
X0057016Y0071529D01*
X0057234Y0071550D01*
X0057452Y0071566D01*
X0057671Y0071577D01*
X0057890Y0071582D01*
X0058110Y0071582D01*
X0058329Y0071577D01*
X0058548Y0071566D01*
X0058766Y0071550D01*
X0058984Y0071529D01*
X0059202Y0071502D01*
X0059419Y0071470D01*
X0059635Y0071433D01*
X0059850Y0071391D01*
X0060064Y0071343D01*
X0060276Y0071290D01*
X0060488Y0071232D01*
X0060698Y0071169D01*
X0060906Y0071101D01*
X0061112Y0071028D01*
X0061317Y0070949D01*
X0061520Y0070866D01*
X0061721Y0070778D01*
X0061919Y0070685D01*
X0062115Y0070587D01*
X0062309Y0070484D01*
X0062500Y0070377D01*
X0062688Y0070265D01*
X0062874Y0070149D01*
X0063057Y0070028D01*
X0063237Y0069903D01*
X0063413Y0069773D01*
X0063587Y0069639D01*
X0063757Y0069501D01*
X0063924Y0069359D01*
X0064087Y0069212D01*
X0064247Y0069062D01*
X0064403Y0068908D01*
X0064555Y0068750D01*
X0064703Y0068589D01*
X0064847Y0068424D01*
X0064987Y0068255D01*
X0065123Y0068084D01*
X0065255Y0067908D01*
X0065383Y0067730D01*
X0065506Y0067549D01*
X0065625Y0067365D01*
X0065739Y0067178D01*
X0065848Y0066988D01*
X0065953Y0066795D01*
X0066054Y0066600D01*
X0066149Y0066403D01*
X0066240Y0066204D01*
X0066325Y0066002D01*
X0066406Y0065798D01*
X0066482Y0065592D01*
X0066553Y0065385D01*
X0066618Y0065176D01*
X0066679Y0064965D01*
X0066734Y0064753D01*
X0066785Y0064540D01*
X0066830Y0064325D01*
X0066870Y0064110D01*
X0066904Y0063893D01*
X0066933Y0063676D01*
X0066957Y0063458D01*
X0066976Y0063240D01*
X0066989Y0063021D01*
X0066997Y0062802D01*
X0067000Y0062583D01*
X0272637Y0116800D02*
X0272637Y0121653D01*
X0273851Y0121653D01*
X0275064Y0120440D01*
X0276278Y0121653D01*
X0277491Y0120440D01*
X0277491Y0116800D01*
X0279888Y0116800D02*
X0284741Y0124080D01*
X0287138Y0124080D02*
X0290778Y0124080D01*
X0291992Y0122867D01*
X0291992Y0120440D01*
X0290778Y0119227D01*
X0287138Y0119227D01*
X0287138Y0116800D02*
X0287138Y0124080D01*
X0294388Y0120440D02*
X0294388Y0118013D01*
X0295602Y0116800D01*
X0298028Y0116800D01*
X0299242Y0118013D01*
X0299242Y0120440D01*
X0298028Y0121653D01*
X0295602Y0121653D01*
X0294388Y0120440D01*
X0301639Y0118013D02*
X0302852Y0116800D01*
X0304065Y0116800D01*
X0305279Y0118013D01*
X0305279Y0124080D01*
X0306492Y0124080D02*
X0304065Y0124080D01*
X0308889Y0124080D02*
X0312529Y0124080D01*
X0313742Y0122867D01*
X0313742Y0118013D01*
X0312529Y0116800D01*
X0308889Y0116800D01*
X0308889Y0124080D01*
X0316139Y0116800D02*
X0320993Y0124080D01*
X0324603Y0121653D02*
X0323389Y0120440D01*
X0323389Y0118013D01*
X0324603Y0116800D01*
X0328243Y0116800D01*
X0330640Y0118013D02*
X0331853Y0119227D01*
X0335493Y0119227D01*
X0335493Y0120440D02*
X0335493Y0116800D01*
X0331853Y0116800D01*
X0330640Y0118013D01*
X0334280Y0121653D02*
X0335493Y0120440D01*
X0334280Y0121653D02*
X0331853Y0121653D01*
X0328243Y0121653D02*
X0324603Y0121653D01*
X0337890Y0121653D02*
X0337890Y0116800D01*
X0342744Y0116800D02*
X0342744Y0120440D01*
X0341530Y0121653D01*
X0337890Y0121653D01*
X0345140Y0120440D02*
X0349994Y0120440D01*
X0352391Y0121653D02*
X0356031Y0121653D01*
X0357244Y0120440D01*
X0357244Y0118013D01*
X0356031Y0116800D01*
X0352391Y0116800D01*
X0352391Y0114373D02*
X0352391Y0121653D01*
X0359641Y0120440D02*
X0359641Y0118013D01*
X0360854Y0116800D01*
X0364494Y0116800D01*
X0366891Y0116800D02*
X0370531Y0116800D01*
X0371745Y0118013D01*
X0371745Y0120440D01*
X0370531Y0121653D01*
X0366891Y0121653D01*
X0364494Y0121653D02*
X0360854Y0121653D01*
X0359641Y0120440D01*
X0366891Y0124080D02*
X0366891Y0116800D01*
X0275064Y0116800D02*
X0275064Y0120440D01*
X0279500Y0226000D02*
X0306500Y0226000D01*
X0306560Y0226002D01*
X0306621Y0226007D01*
X0306680Y0226016D01*
X0306739Y0226029D01*
X0306798Y0226045D01*
X0306855Y0226065D01*
X0306910Y0226088D01*
X0306965Y0226115D01*
X0307017Y0226144D01*
X0307068Y0226177D01*
X0307117Y0226213D01*
X0307163Y0226251D01*
X0307207Y0226293D01*
X0307249Y0226337D01*
X0307287Y0226383D01*
X0307323Y0226432D01*
X0307356Y0226483D01*
X0307385Y0226535D01*
X0307412Y0226590D01*
X0307435Y0226645D01*
X0307455Y0226702D01*
X0307471Y0226761D01*
X0307484Y0226820D01*
X0307493Y0226879D01*
X0307498Y0226940D01*
X0307500Y0227000D01*
X0307500Y0235000D01*
X0307498Y0235060D01*
X0307493Y0235121D01*
X0307484Y0235180D01*
X0307471Y0235239D01*
X0307455Y0235298D01*
X0307435Y0235355D01*
X0307412Y0235410D01*
X0307385Y0235465D01*
X0307356Y0235517D01*
X0307323Y0235568D01*
X0307287Y0235617D01*
X0307249Y0235663D01*
X0307207Y0235707D01*
X0307163Y0235749D01*
X0307117Y0235787D01*
X0307068Y0235823D01*
X0307017Y0235856D01*
X0306965Y0235885D01*
X0306910Y0235912D01*
X0306855Y0235935D01*
X0306798Y0235955D01*
X0306739Y0235971D01*
X0306680Y0235984D01*
X0306621Y0235993D01*
X0306560Y0235998D01*
X0306500Y0236000D01*
X0279500Y0236000D01*
X0279440Y0235998D01*
X0279379Y0235993D01*
X0279320Y0235984D01*
X0279261Y0235971D01*
X0279202Y0235955D01*
X0279145Y0235935D01*
X0279090Y0235912D01*
X0279035Y0235885D01*
X0278983Y0235856D01*
X0278932Y0235823D01*
X0278883Y0235787D01*
X0278837Y0235749D01*
X0278793Y0235707D01*
X0278751Y0235663D01*
X0278713Y0235617D01*
X0278677Y0235568D01*
X0278644Y0235517D01*
X0278615Y0235465D01*
X0278588Y0235410D01*
X0278565Y0235355D01*
X0278545Y0235298D01*
X0278529Y0235239D01*
X0278516Y0235180D01*
X0278507Y0235121D01*
X0278502Y0235060D01*
X0278500Y0235000D01*
X0278500Y0227000D01*
X0278502Y0226940D01*
X0278507Y0226879D01*
X0278516Y0226820D01*
X0278529Y0226761D01*
X0278545Y0226702D01*
X0278565Y0226645D01*
X0278588Y0226590D01*
X0278615Y0226535D01*
X0278644Y0226483D01*
X0278677Y0226432D01*
X0278713Y0226383D01*
X0278751Y0226337D01*
X0278793Y0226293D01*
X0278837Y0226251D01*
X0278883Y0226213D01*
X0278932Y0226177D01*
X0278983Y0226144D01*
X0279035Y0226115D01*
X0279090Y0226088D01*
X0279145Y0226065D01*
X0279202Y0226045D01*
X0279261Y0226029D01*
X0279320Y0226016D01*
X0279379Y0226007D01*
X0279440Y0226002D01*
X0279500Y0226000D01*
X0287000Y0231000D02*
X0291700Y0231000D01*
X0294200Y0231000D02*
X0299000Y0231000D01*
X0257500Y0227500D02*
X0257500Y0234500D01*
X0257498Y0234560D01*
X0257493Y0234621D01*
X0257484Y0234680D01*
X0257471Y0234739D01*
X0257455Y0234798D01*
X0257435Y0234855D01*
X0257412Y0234910D01*
X0257385Y0234965D01*
X0257356Y0235017D01*
X0257323Y0235068D01*
X0257287Y0235117D01*
X0257249Y0235163D01*
X0257207Y0235207D01*
X0257163Y0235249D01*
X0257117Y0235287D01*
X0257068Y0235323D01*
X0257017Y0235356D01*
X0256965Y0235385D01*
X0256910Y0235412D01*
X0256855Y0235435D01*
X0256798Y0235455D01*
X0256739Y0235471D01*
X0256680Y0235484D01*
X0256621Y0235493D01*
X0256560Y0235498D01*
X0256500Y0235500D01*
X0255000Y0235500D01*
X0254500Y0235000D01*
X0235500Y0235000D01*
X0235000Y0235500D01*
X0233500Y0235500D01*
X0233440Y0235498D01*
X0233379Y0235493D01*
X0233320Y0235484D01*
X0233261Y0235471D01*
X0233202Y0235455D01*
X0233145Y0235435D01*
X0233090Y0235412D01*
X0233035Y0235385D01*
X0232983Y0235356D01*
X0232932Y0235323D01*
X0232883Y0235287D01*
X0232837Y0235249D01*
X0232793Y0235207D01*
X0232751Y0235163D01*
X0232713Y0235117D01*
X0232677Y0235068D01*
X0232644Y0235017D01*
X0232615Y0234965D01*
X0232588Y0234910D01*
X0232565Y0234855D01*
X0232545Y0234798D01*
X0232529Y0234739D01*
X0232516Y0234680D01*
X0232507Y0234621D01*
X0232502Y0234560D01*
X0232500Y0234500D01*
X0232500Y0227500D01*
X0232502Y0227440D01*
X0232507Y0227379D01*
X0232516Y0227320D01*
X0232529Y0227261D01*
X0232545Y0227202D01*
X0232565Y0227145D01*
X0232588Y0227090D01*
X0232615Y0227035D01*
X0232644Y0226983D01*
X0232677Y0226932D01*
X0232713Y0226883D01*
X0232751Y0226837D01*
X0232793Y0226793D01*
X0232837Y0226751D01*
X0232883Y0226713D01*
X0232932Y0226677D01*
X0232983Y0226644D01*
X0233035Y0226615D01*
X0233090Y0226588D01*
X0233145Y0226565D01*
X0233202Y0226545D01*
X0233261Y0226529D01*
X0233320Y0226516D01*
X0233379Y0226507D01*
X0233440Y0226502D01*
X0233500Y0226500D01*
X0235000Y0226500D01*
X0235500Y0227000D01*
X0254500Y0227000D01*
X0255000Y0226500D01*
X0256500Y0226500D01*
X0256560Y0226502D01*
X0256621Y0226507D01*
X0256680Y0226516D01*
X0256739Y0226529D01*
X0256798Y0226545D01*
X0256855Y0226565D01*
X0256910Y0226588D01*
X0256965Y0226615D01*
X0257017Y0226644D01*
X0257068Y0226677D01*
X0257117Y0226713D01*
X0257163Y0226751D01*
X0257207Y0226793D01*
X0257249Y0226837D01*
X0257287Y0226883D01*
X0257323Y0226932D01*
X0257356Y0226983D01*
X0257385Y0227035D01*
X0257412Y0227090D01*
X0257435Y0227145D01*
X0257455Y0227202D01*
X0257471Y0227261D01*
X0257484Y0227320D01*
X0257493Y0227379D01*
X0257498Y0227440D01*
X0257500Y0227500D01*
X0256500Y0241000D02*
X0255000Y0241000D01*
X0254500Y0241500D01*
X0235500Y0241500D01*
X0235000Y0241000D01*
X0233500Y0241000D01*
X0233440Y0241002D01*
X0233379Y0241007D01*
X0233320Y0241016D01*
X0233261Y0241029D01*
X0233202Y0241045D01*
X0233145Y0241065D01*
X0233090Y0241088D01*
X0233035Y0241115D01*
X0232983Y0241144D01*
X0232932Y0241177D01*
X0232883Y0241213D01*
X0232837Y0241251D01*
X0232793Y0241293D01*
X0232751Y0241337D01*
X0232713Y0241383D01*
X0232677Y0241432D01*
X0232644Y0241483D01*
X0232615Y0241535D01*
X0232588Y0241590D01*
X0232565Y0241645D01*
X0232545Y0241702D01*
X0232529Y0241761D01*
X0232516Y0241820D01*
X0232507Y0241879D01*
X0232502Y0241940D01*
X0232500Y0242000D01*
X0232500Y0249000D01*
X0232502Y0249060D01*
X0232507Y0249121D01*
X0232516Y0249180D01*
X0232529Y0249239D01*
X0232545Y0249298D01*
X0232565Y0249355D01*
X0232588Y0249410D01*
X0232615Y0249465D01*
X0232644Y0249517D01*
X0232677Y0249568D01*
X0232713Y0249617D01*
X0232751Y0249663D01*
X0232793Y0249707D01*
X0232837Y0249749D01*
X0232883Y0249787D01*
X0232932Y0249823D01*
X0232983Y0249856D01*
X0233035Y0249885D01*
X0233090Y0249912D01*
X0233145Y0249935D01*
X0233202Y0249955D01*
X0233261Y0249971D01*
X0233320Y0249984D01*
X0233379Y0249993D01*
X0233440Y0249998D01*
X0233500Y0250000D01*
X0235000Y0250000D01*
X0235500Y0249500D01*
X0254500Y0249500D01*
X0255000Y0250000D01*
X0256500Y0250000D01*
X0256560Y0249998D01*
X0256621Y0249993D01*
X0256680Y0249984D01*
X0256739Y0249971D01*
X0256798Y0249955D01*
X0256855Y0249935D01*
X0256910Y0249912D01*
X0256965Y0249885D01*
X0257017Y0249856D01*
X0257068Y0249823D01*
X0257117Y0249787D01*
X0257163Y0249749D01*
X0257207Y0249707D01*
X0257249Y0249663D01*
X0257287Y0249617D01*
X0257323Y0249568D01*
X0257356Y0249517D01*
X0257385Y0249465D01*
X0257412Y0249410D01*
X0257435Y0249355D01*
X0257455Y0249298D01*
X0257471Y0249239D01*
X0257484Y0249180D01*
X0257493Y0249121D01*
X0257498Y0249060D01*
X0257500Y0249000D01*
X0257500Y0242000D01*
X0257498Y0241940D01*
X0257493Y0241879D01*
X0257484Y0241820D01*
X0257471Y0241761D01*
X0257455Y0241702D01*
X0257435Y0241645D01*
X0257412Y0241590D01*
X0257385Y0241535D01*
X0257356Y0241483D01*
X0257323Y0241432D01*
X0257287Y0241383D01*
X0257249Y0241337D01*
X0257207Y0241293D01*
X0257163Y0241251D01*
X0257117Y0241213D01*
X0257068Y0241177D01*
X0257017Y0241144D01*
X0256965Y0241115D01*
X0256910Y0241088D01*
X0256855Y0241065D01*
X0256798Y0241045D01*
X0256739Y0241029D01*
X0256680Y0241016D01*
X0256621Y0241007D01*
X0256560Y0241002D01*
X0256500Y0241000D01*
D11*
X0069800Y0240581D02*
X0069800Y0237512D01*
X0065196Y0237512D01*
X0065196Y0235977D02*
X0069800Y0235977D01*
X0065196Y0232908D01*
X0069800Y0232908D01*
X0069800Y0231373D02*
X0066731Y0231373D01*
X0065196Y0229839D01*
X0066731Y0228304D01*
X0069800Y0228304D01*
X0069033Y0226769D02*
X0069800Y0226002D01*
X0069800Y0224467D01*
X0069033Y0223700D01*
X0065963Y0223700D01*
X0065196Y0224467D01*
X0065196Y0226002D01*
X0065963Y0226769D01*
X0067498Y0228304D02*
X0067498Y0231373D01*
X0057800Y0244596D02*
X0057800Y0247665D01*
X0057800Y0246131D02*
X0053196Y0246131D01*
X0054731Y0244596D01*
X0039800Y0239581D02*
X0035196Y0239581D01*
X0037498Y0239581D02*
X0037498Y0236512D01*
X0039800Y0236512D02*
X0035196Y0236512D01*
X0035196Y0234977D02*
X0039800Y0234977D01*
X0035196Y0231908D01*
X0039800Y0231908D01*
X0039800Y0230373D02*
X0036731Y0230373D01*
X0035196Y0228839D01*
X0036731Y0227304D01*
X0039800Y0227304D01*
X0039033Y0225769D02*
X0039800Y0225002D01*
X0039800Y0223467D01*
X0039033Y0222700D01*
X0035963Y0222700D01*
X0035196Y0223467D01*
X0035196Y0225002D01*
X0035963Y0225769D01*
X0037498Y0227304D02*
X0037498Y0230373D01*
X0043963Y0209665D02*
X0044731Y0209665D01*
X0045498Y0208898D01*
X0045498Y0207363D01*
X0044731Y0206596D01*
X0043963Y0206596D01*
X0043196Y0207363D01*
X0043196Y0208898D01*
X0043963Y0209665D01*
X0045498Y0208898D02*
X0046265Y0209665D01*
X0047033Y0209665D01*
X0047800Y0208898D01*
X0047800Y0207363D01*
X0047033Y0206596D01*
X0046265Y0206596D01*
X0045498Y0207363D01*
X0208700Y0078037D02*
X0209467Y0078804D01*
X0211002Y0078804D01*
X0211769Y0078037D01*
X0211769Y0077269D01*
X0208700Y0074200D01*
X0211769Y0074200D01*
X0217700Y0076502D02*
X0220769Y0076502D01*
X0220002Y0074200D02*
X0220002Y0078804D01*
X0217700Y0076502D01*
X0228200Y0076502D02*
X0228200Y0074967D01*
X0228967Y0074200D01*
X0230502Y0074200D01*
X0231269Y0074967D01*
X0231269Y0075735D01*
X0230502Y0076502D01*
X0228200Y0076502D01*
X0229735Y0078037D01*
X0231269Y0078804D01*
X0238200Y0078037D02*
X0238200Y0077269D01*
X0238967Y0076502D01*
X0240502Y0076502D01*
X0241269Y0075735D01*
X0241269Y0074967D01*
X0240502Y0074200D01*
X0238967Y0074200D01*
X0238200Y0074967D01*
X0238200Y0075735D01*
X0238967Y0076502D01*
X0240502Y0076502D02*
X0241269Y0077269D01*
X0241269Y0078037D01*
X0240502Y0078804D01*
X0238967Y0078804D01*
X0238200Y0078037D01*
X0246200Y0077269D02*
X0247735Y0078804D01*
X0247735Y0074200D01*
X0249269Y0074200D02*
X0246200Y0074200D01*
X0250804Y0074967D02*
X0250804Y0078037D01*
X0251571Y0078804D01*
X0253106Y0078804D01*
X0253873Y0078037D01*
X0250804Y0074967D01*
X0251571Y0074200D01*
X0253106Y0074200D01*
X0253873Y0074967D01*
X0253873Y0078037D01*
X0256200Y0077269D02*
X0257735Y0078804D01*
X0257735Y0074200D01*
X0259269Y0074200D02*
X0256200Y0074200D01*
X0260804Y0074200D02*
X0263873Y0077269D01*
X0263873Y0078037D01*
X0263106Y0078804D01*
X0261571Y0078804D01*
X0260804Y0078037D01*
X0260804Y0074200D02*
X0263873Y0074200D01*
X0266200Y0074200D02*
X0269269Y0074200D01*
X0267735Y0074200D02*
X0267735Y0078804D01*
X0266200Y0077269D01*
X0270804Y0076502D02*
X0273873Y0076502D01*
X0273106Y0074200D02*
X0273106Y0078804D01*
X0270804Y0076502D01*
X0276200Y0077269D02*
X0277735Y0078804D01*
X0277735Y0074200D01*
X0279269Y0074200D02*
X0276200Y0074200D01*
X0280804Y0074967D02*
X0280804Y0076502D01*
X0283106Y0076502D01*
X0283873Y0075735D01*
X0283873Y0074967D01*
X0283106Y0074200D01*
X0281571Y0074200D01*
X0280804Y0074967D01*
X0280804Y0076502D02*
X0282339Y0078037D01*
X0283873Y0078804D01*
X0286200Y0077269D02*
X0287735Y0078804D01*
X0287735Y0074200D01*
X0289269Y0074200D02*
X0286200Y0074200D01*
X0290804Y0074967D02*
X0290804Y0075735D01*
X0291571Y0076502D01*
X0293106Y0076502D01*
X0293873Y0075735D01*
X0293873Y0074967D01*
X0293106Y0074200D01*
X0291571Y0074200D01*
X0290804Y0074967D01*
X0291571Y0076502D02*
X0290804Y0077269D01*
X0290804Y0078037D01*
X0291571Y0078804D01*
X0293106Y0078804D01*
X0293873Y0078037D01*
X0293873Y0077269D01*
X0293106Y0076502D01*
X0296700Y0078037D02*
X0297467Y0078804D01*
X0299002Y0078804D01*
X0299769Y0078037D01*
X0299769Y0077269D01*
X0296700Y0074200D01*
X0299769Y0074200D01*
X0301304Y0074967D02*
X0304373Y0078037D01*
X0304373Y0074967D01*
X0303606Y0074200D01*
X0302071Y0074200D01*
X0301304Y0074967D01*
X0301304Y0078037D01*
X0302071Y0078804D01*
X0303606Y0078804D01*
X0304373Y0078037D01*
X0306200Y0078037D02*
X0306967Y0078804D01*
X0308502Y0078804D01*
X0309269Y0078037D01*
X0309269Y0077269D01*
X0306200Y0074200D01*
X0309269Y0074200D01*
X0310804Y0074200D02*
X0313873Y0077269D01*
X0313873Y0078037D01*
X0313106Y0078804D01*
X0311571Y0078804D01*
X0310804Y0078037D01*
X0310804Y0074200D02*
X0313873Y0074200D01*
X0316200Y0074200D02*
X0319269Y0077269D01*
X0319269Y0078037D01*
X0318502Y0078804D01*
X0316967Y0078804D01*
X0316200Y0078037D01*
X0316200Y0074200D02*
X0319269Y0074200D01*
X0320804Y0076502D02*
X0323873Y0076502D01*
X0323106Y0074200D02*
X0323106Y0078804D01*
X0320804Y0076502D01*
X0326200Y0078037D02*
X0326967Y0078804D01*
X0328502Y0078804D01*
X0329269Y0078037D01*
X0329269Y0077269D01*
X0326200Y0074200D01*
X0329269Y0074200D01*
X0330804Y0074967D02*
X0331571Y0074200D01*
X0333106Y0074200D01*
X0333873Y0074967D01*
X0333873Y0075735D01*
X0333106Y0076502D01*
X0330804Y0076502D01*
X0330804Y0074967D01*
X0330804Y0076502D02*
X0332339Y0078037D01*
X0333873Y0078804D01*
X0336200Y0078037D02*
X0336967Y0078804D01*
X0338502Y0078804D01*
X0339269Y0078037D01*
X0339269Y0077269D01*
X0336200Y0074200D01*
X0339269Y0074200D01*
X0340804Y0074967D02*
X0340804Y0075735D01*
X0341571Y0076502D01*
X0343106Y0076502D01*
X0343873Y0075735D01*
X0343873Y0074967D01*
X0343106Y0074200D01*
X0341571Y0074200D01*
X0340804Y0074967D01*
X0341571Y0076502D02*
X0340804Y0077269D01*
X0340804Y0078037D01*
X0341571Y0078804D01*
X0343106Y0078804D01*
X0343873Y0078037D01*
X0343873Y0077269D01*
X0343106Y0076502D01*
X0346700Y0078037D02*
X0347467Y0078804D01*
X0349002Y0078804D01*
X0349769Y0078037D01*
X0349769Y0077269D01*
X0349002Y0076502D01*
X0349769Y0075735D01*
X0349769Y0074967D01*
X0349002Y0074200D01*
X0347467Y0074200D01*
X0346700Y0074967D01*
X0348235Y0076502D02*
X0349002Y0076502D01*
X0351304Y0074967D02*
X0351304Y0078037D01*
X0352071Y0078804D01*
X0353606Y0078804D01*
X0354373Y0078037D01*
X0351304Y0074967D01*
X0352071Y0074200D01*
X0353606Y0074200D01*
X0354373Y0074967D01*
X0354373Y0078037D01*
X0353606Y0049804D02*
X0352071Y0049804D01*
X0351304Y0049037D01*
X0351304Y0048269D01*
X0352071Y0047502D01*
X0354373Y0047502D01*
X0354373Y0045967D02*
X0354373Y0049037D01*
X0353606Y0049804D01*
X0354373Y0045967D02*
X0353606Y0045200D01*
X0352071Y0045200D01*
X0351304Y0045967D01*
X0349769Y0045200D02*
X0346700Y0045200D01*
X0349769Y0048269D01*
X0349769Y0049037D01*
X0349002Y0049804D01*
X0347467Y0049804D01*
X0346700Y0049037D01*
X0344373Y0049037D02*
X0341304Y0045967D01*
X0341304Y0045200D01*
X0339769Y0045200D02*
X0336700Y0045200D01*
X0339769Y0048269D01*
X0339769Y0049037D01*
X0339002Y0049804D01*
X0337467Y0049804D01*
X0336700Y0049037D01*
X0334373Y0049804D02*
X0331304Y0049804D01*
X0331304Y0047502D01*
X0332839Y0048269D01*
X0333606Y0048269D01*
X0334373Y0047502D01*
X0334373Y0045967D01*
X0333606Y0045200D01*
X0332071Y0045200D01*
X0331304Y0045967D01*
X0329769Y0045200D02*
X0326700Y0045200D01*
X0329769Y0048269D01*
X0329769Y0049037D01*
X0329002Y0049804D01*
X0327467Y0049804D01*
X0326700Y0049037D01*
X0323873Y0049037D02*
X0323873Y0048269D01*
X0323106Y0047502D01*
X0323873Y0046735D01*
X0323873Y0045967D01*
X0323106Y0045200D01*
X0321571Y0045200D01*
X0320804Y0045967D01*
X0319269Y0045200D02*
X0316200Y0045200D01*
X0319269Y0048269D01*
X0319269Y0049037D01*
X0318502Y0049804D01*
X0316967Y0049804D01*
X0316200Y0049037D01*
X0312839Y0049804D02*
X0311304Y0048269D01*
X0309769Y0048269D02*
X0309769Y0049037D01*
X0309002Y0049804D01*
X0307467Y0049804D01*
X0306700Y0049037D01*
X0303873Y0049037D02*
X0303873Y0045967D01*
X0303106Y0045200D01*
X0301571Y0045200D01*
X0300804Y0045967D01*
X0299269Y0045200D02*
X0296200Y0045200D01*
X0297735Y0045200D02*
X0297735Y0049804D01*
X0296200Y0048269D01*
X0293873Y0049037D02*
X0290804Y0045967D01*
X0290804Y0045200D01*
X0289269Y0045200D02*
X0286200Y0045200D01*
X0287735Y0045200D02*
X0287735Y0049804D01*
X0286200Y0048269D01*
X0283873Y0047502D02*
X0283873Y0045967D01*
X0283106Y0045200D01*
X0281571Y0045200D01*
X0280804Y0045967D01*
X0280804Y0047502D02*
X0282339Y0048269D01*
X0283106Y0048269D01*
X0283873Y0047502D01*
X0283873Y0049804D02*
X0280804Y0049804D01*
X0280804Y0047502D01*
X0279269Y0045200D02*
X0276200Y0045200D01*
X0277735Y0045200D02*
X0277735Y0049804D01*
X0276200Y0048269D01*
X0273873Y0048269D02*
X0273873Y0049037D01*
X0273106Y0049804D01*
X0271571Y0049804D01*
X0270804Y0049037D01*
X0272339Y0047502D02*
X0273106Y0047502D01*
X0273873Y0046735D01*
X0273873Y0045967D01*
X0273106Y0045200D01*
X0271571Y0045200D01*
X0270804Y0045967D01*
X0269269Y0045200D02*
X0266200Y0045200D01*
X0267735Y0045200D02*
X0267735Y0049804D01*
X0266200Y0048269D01*
X0264373Y0045200D02*
X0261304Y0045200D01*
X0262839Y0045200D02*
X0262839Y0049804D01*
X0261304Y0048269D01*
X0259769Y0045200D02*
X0256700Y0045200D01*
X0258235Y0045200D02*
X0258235Y0049804D01*
X0256700Y0048269D01*
X0251769Y0047502D02*
X0249467Y0047502D01*
X0248700Y0048269D01*
X0248700Y0049037D01*
X0249467Y0049804D01*
X0251002Y0049804D01*
X0251769Y0049037D01*
X0251769Y0045967D01*
X0251002Y0045200D01*
X0249467Y0045200D01*
X0248700Y0045967D01*
X0241269Y0049037D02*
X0238200Y0045967D01*
X0238200Y0045200D01*
X0238200Y0049804D02*
X0241269Y0049804D01*
X0241269Y0049037D01*
X0231769Y0049804D02*
X0228700Y0049804D01*
X0228700Y0047502D01*
X0230235Y0048269D01*
X0231002Y0048269D01*
X0231769Y0047502D01*
X0231769Y0045967D01*
X0231002Y0045200D01*
X0229467Y0045200D01*
X0228700Y0045967D01*
X0221769Y0045967D02*
X0221002Y0045200D01*
X0219467Y0045200D01*
X0218700Y0045967D01*
X0220235Y0047502D02*
X0221002Y0047502D01*
X0221769Y0046735D01*
X0221769Y0045967D01*
X0221002Y0047502D02*
X0221769Y0048269D01*
X0221769Y0049037D01*
X0221002Y0049804D01*
X0219467Y0049804D01*
X0218700Y0049037D01*
X0211769Y0045200D02*
X0208700Y0045200D01*
X0210235Y0045200D02*
X0210235Y0049804D01*
X0208700Y0048269D01*
X0273106Y0047502D02*
X0273873Y0048269D01*
X0290804Y0049804D02*
X0293873Y0049804D01*
X0293873Y0049037D01*
X0300804Y0049037D02*
X0300804Y0048269D01*
X0301571Y0047502D01*
X0303873Y0047502D01*
X0303873Y0049037D02*
X0303106Y0049804D01*
X0301571Y0049804D01*
X0300804Y0049037D01*
X0306700Y0045200D02*
X0309769Y0048269D01*
X0309769Y0045200D02*
X0306700Y0045200D01*
X0311304Y0045200D02*
X0314373Y0045200D01*
X0312839Y0045200D02*
X0312839Y0049804D01*
X0320804Y0049037D02*
X0321571Y0049804D01*
X0323106Y0049804D01*
X0323873Y0049037D01*
X0323106Y0047502D02*
X0322339Y0047502D01*
X0341304Y0049804D02*
X0344373Y0049804D01*
X0344373Y0049037D01*
D12*
X0161800Y0059524D02*
X0161800Y0062024D01*
X0161800Y0064524D01*
X0159300Y0064524D02*
X0159300Y0062024D01*
X0159300Y0059524D01*
X0079000Y0104300D02*
X0076500Y0104300D01*
X0074000Y0104300D01*
X0074000Y0106800D02*
X0076500Y0106800D01*
X0079000Y0106800D01*
X0052700Y0083500D02*
X0052700Y0081000D01*
X0052700Y0078500D01*
X0050200Y0078500D02*
X0050200Y0081000D01*
X0050200Y0083500D01*
X0037700Y0135000D02*
X0037700Y0137500D01*
X0037700Y0140000D01*
X0035200Y0140000D02*
X0035200Y0137500D01*
X0035200Y0135000D01*
X0147800Y0231000D02*
X0147800Y0233500D01*
X0147800Y0236000D01*
X0150300Y0236000D02*
X0150300Y0233500D01*
X0150300Y0231000D01*
X0291700Y0231000D02*
X0291700Y0228500D01*
X0294200Y0228500D02*
X0294200Y0231000D01*
X0294200Y0233500D01*
X0291700Y0233500D02*
X0291700Y0231000D01*
D13*
X0032458Y0030253D02*
X0032458Y0025749D01*
X0032458Y0027250D02*
X0034710Y0027250D01*
X0035460Y0028001D01*
X0035460Y0029502D01*
X0034710Y0030253D01*
X0032458Y0030253D01*
X0030856Y0030253D02*
X0030106Y0029502D01*
X0030856Y0028751D01*
X0030856Y0028001D01*
X0030106Y0027250D01*
X0028605Y0027250D01*
X0027854Y0028001D01*
X0026253Y0028001D02*
X0025502Y0027250D01*
X0024001Y0027250D01*
X0023250Y0028001D01*
X0024751Y0029502D02*
X0025502Y0029502D01*
X0026253Y0028751D01*
X0026253Y0028001D01*
X0025502Y0029502D02*
X0026253Y0030253D01*
X0026253Y0031003D01*
X0025502Y0031754D01*
X0024001Y0031754D01*
X0023250Y0031003D01*
X0027854Y0031003D02*
X0028605Y0031754D01*
X0030106Y0031754D01*
X0030856Y0031003D01*
X0030856Y0030253D01*
X0030106Y0029502D02*
X0029355Y0029502D01*
X0037062Y0029502D02*
X0038563Y0029502D01*
X0037062Y0031754D02*
X0040064Y0031754D01*
X0037062Y0031754D02*
X0037062Y0027250D01*
X0032458Y0045749D02*
X0032458Y0050253D01*
X0034710Y0050253D01*
X0035460Y0049502D01*
X0035460Y0048001D01*
X0034710Y0047250D01*
X0032458Y0047250D01*
X0030856Y0048001D02*
X0030106Y0047250D01*
X0028605Y0047250D01*
X0027854Y0048001D01*
X0026253Y0048001D02*
X0026253Y0048751D01*
X0025502Y0049502D01*
X0024751Y0049502D01*
X0025502Y0049502D02*
X0026253Y0050253D01*
X0026253Y0051003D01*
X0025502Y0051754D01*
X0024001Y0051754D01*
X0023250Y0051003D01*
X0023250Y0048001D02*
X0024001Y0047250D01*
X0025502Y0047250D01*
X0026253Y0048001D01*
X0027854Y0051003D02*
X0028605Y0051754D01*
X0030106Y0051754D01*
X0030856Y0051003D01*
X0030856Y0050253D01*
X0030106Y0049502D01*
X0030856Y0048751D01*
X0030856Y0048001D01*
X0030106Y0049502D02*
X0029355Y0049502D01*
X0037062Y0049502D02*
X0038563Y0049502D01*
X0037062Y0047250D02*
X0037062Y0051754D01*
X0040064Y0051754D01*
X0068746Y0046147D02*
X0073250Y0046147D01*
X0073250Y0047748D02*
X0073250Y0050751D01*
X0070247Y0050751D02*
X0070247Y0047748D01*
X0070998Y0046147D02*
X0070998Y0043144D01*
X0073250Y0043144D02*
X0068746Y0043144D01*
X0068746Y0041543D02*
X0073250Y0041543D01*
X0073250Y0038541D02*
X0068746Y0038541D01*
X0070247Y0040042D01*
X0068746Y0041543D01*
X0068746Y0036939D02*
X0069497Y0035438D01*
X0070998Y0033937D01*
X0070998Y0036189D01*
X0071749Y0036939D01*
X0072499Y0036939D01*
X0073250Y0036189D01*
X0073250Y0034687D01*
X0072499Y0033937D01*
X0070998Y0033937D01*
X0073250Y0032335D02*
X0073250Y0029333D01*
X0073250Y0030834D02*
X0068746Y0030834D01*
X0070247Y0029333D01*
X0073250Y0047748D02*
X0070247Y0050751D01*
X0060646Y0087250D02*
X0060646Y0091754D01*
X0063649Y0091754D01*
X0062147Y0089502D02*
X0060646Y0089502D01*
X0059045Y0090253D02*
X0059045Y0087250D01*
X0056793Y0087250D01*
X0056042Y0088001D01*
X0056042Y0090253D01*
X0054441Y0087250D02*
X0051438Y0087250D01*
X0052939Y0087250D02*
X0052939Y0091754D01*
X0051438Y0090253D01*
X0049887Y0088001D02*
X0049887Y0087250D01*
X0049136Y0087250D01*
X0049136Y0088001D01*
X0049887Y0088001D01*
X0047535Y0088001D02*
X0047535Y0091003D01*
X0044532Y0088001D01*
X0045283Y0087250D01*
X0046784Y0087250D01*
X0047535Y0088001D01*
X0047535Y0091003D02*
X0046784Y0091754D01*
X0045283Y0091754D01*
X0044532Y0091003D01*
X0044532Y0088001D01*
X0082746Y0093751D02*
X0087250Y0093751D01*
X0087250Y0092250D02*
X0087250Y0095253D01*
X0086499Y0096854D02*
X0087250Y0097605D01*
X0087250Y0099106D01*
X0086499Y0099856D01*
X0083497Y0099856D01*
X0086499Y0096854D01*
X0083497Y0096854D01*
X0082746Y0097605D01*
X0082746Y0099106D01*
X0083497Y0099856D01*
X0084247Y0106062D02*
X0086499Y0106062D01*
X0087250Y0106812D01*
X0087250Y0109064D01*
X0084247Y0109064D01*
X0084998Y0110666D02*
X0084998Y0112167D01*
X0082746Y0110666D02*
X0082746Y0113668D01*
X0082746Y0110666D02*
X0087250Y0110666D01*
X0082746Y0093751D02*
X0084247Y0092250D01*
X0102498Y0138070D02*
X0102498Y0141073D01*
X0103999Y0142674D02*
X0104750Y0142674D01*
X0103999Y0142674D02*
X0100997Y0145677D01*
X0100246Y0145677D01*
X0100246Y0142674D01*
X0100246Y0140322D02*
X0102498Y0138070D01*
X0104750Y0140322D02*
X0100246Y0140322D01*
X0100997Y0147278D02*
X0100246Y0148029D01*
X0100246Y0149530D01*
X0100997Y0150281D01*
X0103999Y0147278D01*
X0104750Y0148029D01*
X0104750Y0149530D01*
X0103999Y0150281D01*
X0100997Y0150281D01*
X0100997Y0147278D02*
X0103999Y0147278D01*
X0071549Y0161501D02*
X0070798Y0160750D01*
X0069297Y0160750D01*
X0068546Y0161501D01*
X0071549Y0164503D01*
X0071549Y0161501D01*
X0068546Y0161501D02*
X0068546Y0164503D01*
X0069297Y0165254D01*
X0070798Y0165254D01*
X0071549Y0164503D01*
X0066945Y0164503D02*
X0063942Y0161501D01*
X0064693Y0160750D01*
X0066194Y0160750D01*
X0066945Y0161501D01*
X0066945Y0164503D01*
X0066194Y0165254D01*
X0064693Y0165254D01*
X0063942Y0164503D01*
X0063942Y0161501D01*
X0062341Y0161501D02*
X0061590Y0160750D01*
X0060089Y0160750D01*
X0059338Y0161501D01*
X0062341Y0164503D01*
X0062341Y0161501D01*
X0059338Y0161501D02*
X0059338Y0164503D01*
X0060089Y0165254D01*
X0061590Y0165254D01*
X0062341Y0164503D01*
X0057737Y0164503D02*
X0054734Y0161501D01*
X0055485Y0160750D01*
X0056986Y0160750D01*
X0057737Y0161501D01*
X0057737Y0164503D01*
X0056986Y0165254D01*
X0055485Y0165254D01*
X0054734Y0164503D01*
X0054734Y0161501D01*
X0053133Y0160750D02*
X0050130Y0160750D01*
X0051632Y0160750D02*
X0051632Y0165254D01*
X0050130Y0163753D01*
X0048649Y0148254D02*
X0045646Y0148254D01*
X0045646Y0143750D01*
X0044045Y0143750D02*
X0044045Y0146753D01*
X0045646Y0146002D02*
X0047147Y0146002D01*
X0044045Y0143750D02*
X0041793Y0143750D01*
X0041042Y0144501D01*
X0041042Y0146753D01*
X0039441Y0143750D02*
X0036438Y0143750D01*
X0037939Y0143750D02*
X0037939Y0148254D01*
X0036438Y0146753D01*
X0034887Y0144501D02*
X0034887Y0143750D01*
X0034136Y0143750D01*
X0034136Y0144501D01*
X0034887Y0144501D01*
X0032535Y0144501D02*
X0032535Y0147503D01*
X0029532Y0144501D01*
X0030283Y0143750D01*
X0031784Y0143750D01*
X0032535Y0144501D01*
X0032535Y0147503D02*
X0031784Y0148254D01*
X0030283Y0148254D01*
X0029532Y0147503D01*
X0029532Y0144501D01*
X0012685Y0198972D02*
X0012685Y0258028D01*
X0063315Y0258028D01*
X0063315Y0198972D01*
X0012685Y0198972D01*
X0135750Y0223501D02*
X0138753Y0226503D01*
X0138753Y0223501D01*
X0138002Y0222750D01*
X0136501Y0222750D01*
X0135750Y0223501D01*
X0135750Y0226503D01*
X0136501Y0227254D01*
X0138002Y0227254D01*
X0138753Y0226503D01*
X0142656Y0225753D02*
X0144157Y0227254D01*
X0144157Y0222750D01*
X0142656Y0222750D02*
X0145658Y0222750D01*
X0147260Y0223501D02*
X0147260Y0225753D01*
X0147260Y0223501D02*
X0148010Y0222750D01*
X0150262Y0222750D01*
X0150262Y0225753D01*
X0151864Y0225002D02*
X0153365Y0225002D01*
X0151864Y0222750D02*
X0151864Y0227254D01*
X0154866Y0227254D01*
X0141105Y0223501D02*
X0141105Y0222750D01*
X0140354Y0222750D01*
X0140354Y0223501D01*
X0141105Y0223501D01*
X0167469Y0210504D02*
X0263531Y0210504D01*
X0263531Y0173496D01*
X0167469Y0173496D01*
X0167469Y0210504D01*
X0183657Y0223500D02*
X0203343Y0223500D01*
X0203343Y0253500D01*
X0183657Y0253500D01*
X0183657Y0223500D01*
X0236350Y0229501D02*
X0237101Y0228750D01*
X0238602Y0228750D01*
X0239353Y0229501D01*
X0239353Y0231002D01*
X0238602Y0231753D01*
X0237851Y0231753D01*
X0236350Y0231002D01*
X0236350Y0233254D01*
X0239353Y0233254D01*
X0240954Y0232503D02*
X0241705Y0233254D01*
X0243206Y0233254D01*
X0243956Y0232503D01*
X0240954Y0229501D01*
X0241705Y0228750D01*
X0243206Y0228750D01*
X0243956Y0229501D01*
X0243956Y0232503D01*
X0240954Y0232503D02*
X0240954Y0229501D01*
X0245693Y0243250D02*
X0244942Y0244001D01*
X0245693Y0243250D02*
X0247194Y0243250D01*
X0247945Y0244001D01*
X0247945Y0245502D01*
X0247194Y0246253D01*
X0246443Y0246253D01*
X0244942Y0245502D01*
X0244942Y0247754D01*
X0247945Y0247754D01*
X0249546Y0247003D02*
X0249546Y0244001D01*
X0252549Y0247003D01*
X0252549Y0244001D01*
X0251798Y0243250D01*
X0250297Y0243250D01*
X0249546Y0244001D01*
X0249546Y0247003D02*
X0250297Y0247754D01*
X0251798Y0247754D01*
X0252549Y0247003D01*
X0286032Y0239502D02*
X0289035Y0239502D01*
X0290636Y0238001D02*
X0291387Y0238001D01*
X0291387Y0237250D01*
X0290636Y0237250D01*
X0290636Y0238001D01*
X0292938Y0238001D02*
X0292938Y0237250D01*
X0292938Y0238001D02*
X0295941Y0241003D01*
X0295941Y0241754D01*
X0292938Y0241754D01*
X0288284Y0241754D02*
X0288284Y0237250D01*
X0286032Y0239502D02*
X0288284Y0241754D01*
X0297542Y0240253D02*
X0297542Y0237250D01*
X0297542Y0240253D02*
X0299794Y0240253D01*
X0300545Y0239502D01*
X0300545Y0237250D01*
X0302146Y0237250D02*
X0302146Y0241754D01*
X0305149Y0241754D01*
X0303647Y0239502D02*
X0302146Y0239502D01*
X0316354Y0219555D02*
X0316354Y0262862D01*
X0361630Y0262862D01*
X0361630Y0219555D01*
X0316354Y0219555D01*
X0317535Y0199476D02*
X0361630Y0199476D01*
X0361630Y0175854D01*
X0317535Y0175854D01*
X0317535Y0199476D01*
X0166366Y0055777D02*
X0163364Y0055777D01*
X0163364Y0051274D01*
X0161762Y0051274D02*
X0161762Y0054276D01*
X0163364Y0053526D02*
X0164865Y0053526D01*
X0161762Y0051274D02*
X0159510Y0051274D01*
X0158760Y0052024D01*
X0158760Y0054276D01*
X0157158Y0051274D02*
X0154156Y0051274D01*
X0155657Y0051274D02*
X0155657Y0055777D01*
X0154156Y0054276D01*
X0152605Y0052024D02*
X0152605Y0051274D01*
X0151854Y0051274D01*
X0151854Y0052024D01*
X0152605Y0052024D01*
X0150253Y0052024D02*
X0150253Y0055027D01*
X0147250Y0052024D01*
X0148001Y0051274D01*
X0149502Y0051274D01*
X0150253Y0052024D01*
X0150253Y0055027D02*
X0149502Y0055777D01*
X0148001Y0055777D01*
X0147250Y0055027D01*
X0147250Y0052024D01*
D14*
X0120135Y0049752D02*
X0120137Y0049819D01*
X0120143Y0049885D01*
X0120153Y0049951D01*
X0120167Y0050016D01*
X0120184Y0050080D01*
X0120206Y0050143D01*
X0120231Y0050205D01*
X0120260Y0050265D01*
X0120293Y0050323D01*
X0120328Y0050379D01*
X0120368Y0050433D01*
X0120410Y0050484D01*
X0120455Y0050533D01*
X0120503Y0050579D01*
X0120554Y0050622D01*
X0120607Y0050662D01*
X0120663Y0050699D01*
X0120721Y0050732D01*
X0120780Y0050762D01*
X0120841Y0050788D01*
X0120904Y0050811D01*
X0120968Y0050829D01*
X0121033Y0050844D01*
X0121099Y0050855D01*
X0121165Y0050862D01*
X0121231Y0050865D01*
X0121298Y0050864D01*
X0121364Y0050859D01*
X0121430Y0050850D01*
X0121496Y0050837D01*
X0121560Y0050820D01*
X0121623Y0050800D01*
X0121685Y0050775D01*
X0121746Y0050747D01*
X0121805Y0050716D01*
X0121861Y0050681D01*
X0121916Y0050643D01*
X0121968Y0050601D01*
X0122017Y0050556D01*
X0122064Y0050509D01*
X0122108Y0050459D01*
X0122148Y0050406D01*
X0122186Y0050351D01*
X0122220Y0050294D01*
X0122251Y0050235D01*
X0122278Y0050174D01*
X0122301Y0050112D01*
X0122321Y0050048D01*
X0122337Y0049983D01*
X0122349Y0049918D01*
X0122357Y0049852D01*
X0122361Y0049785D01*
X0122361Y0049719D01*
X0122357Y0049652D01*
X0122349Y0049586D01*
X0122337Y0049521D01*
X0122321Y0049456D01*
X0122301Y0049392D01*
X0122278Y0049330D01*
X0122251Y0049269D01*
X0122220Y0049210D01*
X0122186Y0049153D01*
X0122148Y0049098D01*
X0122108Y0049045D01*
X0122064Y0048995D01*
X0122017Y0048948D01*
X0121968Y0048903D01*
X0121916Y0048861D01*
X0121861Y0048823D01*
X0121804Y0048788D01*
X0121746Y0048757D01*
X0121685Y0048729D01*
X0121623Y0048704D01*
X0121560Y0048684D01*
X0121496Y0048667D01*
X0121430Y0048654D01*
X0121364Y0048645D01*
X0121298Y0048640D01*
X0121231Y0048639D01*
X0121165Y0048642D01*
X0121099Y0048649D01*
X0121033Y0048660D01*
X0120968Y0048675D01*
X0120904Y0048693D01*
X0120841Y0048716D01*
X0120780Y0048742D01*
X0120721Y0048772D01*
X0120663Y0048805D01*
X0120607Y0048842D01*
X0120554Y0048882D01*
X0120503Y0048925D01*
X0120455Y0048971D01*
X0120410Y0049020D01*
X0120368Y0049071D01*
X0120328Y0049125D01*
X0120293Y0049181D01*
X0120260Y0049239D01*
X0120231Y0049299D01*
X0120206Y0049361D01*
X0120184Y0049424D01*
X0120167Y0049488D01*
X0120153Y0049553D01*
X0120143Y0049619D01*
X0120137Y0049685D01*
X0120135Y0049752D01*
X0033000Y0056000D02*
X0033000Y0059000D01*
X0033000Y0062000D01*
X0031000Y0062000D02*
X0031000Y0059000D01*
X0031000Y0056000D01*
X0031000Y0042000D02*
X0031000Y0039000D01*
X0031000Y0036000D01*
X0033000Y0036000D02*
X0033000Y0039000D01*
X0033000Y0042000D01*
D15*
X0320830Y0183976D02*
X0322765Y0183976D01*
X0323733Y0184943D01*
X0322765Y0185911D01*
X0320830Y0185911D01*
X0321314Y0186922D02*
X0320830Y0187406D01*
X0320830Y0188374D01*
X0321314Y0188857D01*
X0321314Y0189869D02*
X0323249Y0189869D01*
X0323733Y0190353D01*
X0323733Y0191320D01*
X0323249Y0191804D01*
X0321314Y0191804D02*
X0320830Y0191320D01*
X0320830Y0190353D01*
X0321314Y0189869D01*
X0323249Y0188857D02*
X0323733Y0188374D01*
X0323733Y0187406D01*
X0323249Y0186922D01*
X0321314Y0186922D01*
X0329893Y0179034D02*
X0329893Y0177099D01*
X0330377Y0176615D01*
X0331344Y0176615D01*
X0331828Y0177099D01*
X0331828Y0178067D01*
X0330861Y0178067D01*
X0331828Y0179034D02*
X0331344Y0179518D01*
X0330377Y0179518D01*
X0329893Y0179034D01*
X0332840Y0179518D02*
X0334775Y0176615D01*
X0334775Y0179518D01*
X0335786Y0179518D02*
X0337237Y0179518D01*
X0337721Y0179034D01*
X0337721Y0177099D01*
X0337237Y0176615D01*
X0335786Y0176615D01*
X0335786Y0179518D01*
X0332840Y0179518D02*
X0332840Y0176615D01*
X0333377Y0195615D02*
X0334344Y0195615D01*
X0334828Y0196099D01*
X0334828Y0197067D01*
X0333861Y0197067D01*
X0334828Y0198034D02*
X0334344Y0198518D01*
X0333377Y0198518D01*
X0332893Y0198034D01*
X0332893Y0196099D01*
X0333377Y0195615D01*
X0335840Y0195615D02*
X0335840Y0198518D01*
X0337775Y0195615D01*
X0337775Y0198518D01*
X0338786Y0198518D02*
X0340237Y0198518D01*
X0340721Y0198034D01*
X0340721Y0196099D01*
X0340237Y0195615D01*
X0338786Y0195615D01*
X0338786Y0198518D01*
X0321783Y0225708D02*
X0319848Y0225708D01*
X0319848Y0227643D02*
X0321783Y0227643D01*
X0322751Y0226676D01*
X0321783Y0225708D01*
X0322267Y0228655D02*
X0320332Y0228655D01*
X0319848Y0229138D01*
X0319848Y0230106D01*
X0320332Y0230590D01*
X0320332Y0231601D02*
X0322267Y0231601D01*
X0322751Y0232085D01*
X0322751Y0233052D01*
X0322267Y0233536D01*
X0320332Y0233536D02*
X0319848Y0233052D01*
X0319848Y0232085D01*
X0320332Y0231601D01*
X0322267Y0230590D02*
X0322751Y0230106D01*
X0322751Y0229138D01*
X0322267Y0228655D01*
X0322267Y0238700D02*
X0320332Y0238700D01*
X0319848Y0239184D01*
X0319848Y0240151D01*
X0320332Y0240635D01*
X0321300Y0240635D02*
X0321300Y0239668D01*
X0321300Y0240635D02*
X0322267Y0240635D01*
X0322751Y0240151D01*
X0322751Y0239184D01*
X0322267Y0238700D01*
X0322751Y0241647D02*
X0319848Y0241647D01*
X0322751Y0243582D01*
X0319848Y0243582D01*
X0319848Y0244593D02*
X0319848Y0246044D01*
X0320332Y0246528D01*
X0322267Y0246528D01*
X0322751Y0246044D01*
X0322751Y0244593D01*
X0319848Y0244593D01*
X0319692Y0254566D02*
X0320176Y0255050D01*
X0320176Y0256018D01*
X0319692Y0256501D01*
X0318725Y0256501D01*
X0318725Y0255534D01*
X0317757Y0254566D02*
X0319692Y0254566D01*
X0317757Y0254566D02*
X0317274Y0255050D01*
X0317274Y0256018D01*
X0317757Y0256501D01*
X0317274Y0257513D02*
X0320176Y0259448D01*
X0317274Y0259448D01*
X0317274Y0260459D02*
X0317274Y0261911D01*
X0317757Y0262394D01*
X0319692Y0262394D01*
X0320176Y0261911D01*
X0320176Y0260459D01*
X0317274Y0260459D01*
X0317274Y0257513D02*
X0320176Y0257513D01*
X0181613Y0258171D02*
X0181613Y0260106D01*
X0181130Y0260589D01*
X0179678Y0260589D01*
X0179678Y0257687D01*
X0181130Y0257687D01*
X0181613Y0258171D01*
X0178667Y0257687D02*
X0176732Y0260589D01*
X0175720Y0260589D02*
X0173785Y0260589D01*
X0174753Y0260589D02*
X0174753Y0257687D01*
X0176732Y0257687D02*
X0178667Y0260589D01*
D16*
X0230800Y0245500D03*
X0230800Y0231000D03*
X0259200Y0231000D03*
X0259200Y0245500D03*
X0078200Y0163000D03*
X0049800Y0163000D03*
D17*
X0102500Y0156932D03*
X0102500Y0128532D03*
D18*
X0065000Y0062583D02*
X0065000Y0035583D01*
X0064998Y0035413D01*
X0064992Y0035242D01*
X0064981Y0035072D01*
X0064967Y0034902D01*
X0064948Y0034733D01*
X0064925Y0034564D01*
X0064899Y0034395D01*
X0064868Y0034228D01*
X0064833Y0034061D01*
X0064793Y0033895D01*
X0064750Y0033730D01*
X0064703Y0033566D01*
X0064652Y0033404D01*
X0064597Y0033242D01*
X0064538Y0033082D01*
X0064475Y0032924D01*
X0064409Y0032767D01*
X0064338Y0032612D01*
X0064264Y0032458D01*
X0064186Y0032307D01*
X0064104Y0032157D01*
X0064019Y0032009D01*
X0063930Y0031864D01*
X0063838Y0031721D01*
X0063742Y0031580D01*
X0063643Y0031441D01*
X0063540Y0031305D01*
X0063435Y0031171D01*
X0063326Y0031040D01*
X0063213Y0030912D01*
X0063098Y0030786D01*
X0062980Y0030663D01*
X0062859Y0030544D01*
X0062734Y0030427D01*
X0062607Y0030313D01*
X0062478Y0030202D01*
X0062345Y0030095D01*
X0062210Y0029991D01*
X0062073Y0029890D01*
X0061933Y0029792D01*
X0061791Y0029698D01*
X0061647Y0029608D01*
X0061500Y0029521D01*
X0061351Y0029437D01*
X0061201Y0029358D01*
X0061048Y0029282D01*
X0060894Y0029209D01*
X0060738Y0029141D01*
X0060580Y0029076D01*
X0060421Y0029015D01*
X0060260Y0028958D01*
X0060098Y0028905D01*
X0059935Y0028856D01*
X0059771Y0028811D01*
X0059605Y0028770D01*
X0059439Y0028732D01*
X0059271Y0028699D01*
X0059103Y0028671D01*
X0058935Y0028646D01*
X0058766Y0028625D01*
X0058596Y0028608D01*
X0058426Y0028596D01*
X0058256Y0028588D01*
X0058085Y0028584D01*
X0057915Y0028584D01*
X0057744Y0028588D01*
X0057574Y0028596D01*
X0057404Y0028608D01*
X0057234Y0028625D01*
X0057065Y0028646D01*
X0056897Y0028671D01*
X0056729Y0028699D01*
X0056561Y0028732D01*
X0056395Y0028770D01*
X0056229Y0028811D01*
X0056065Y0028856D01*
X0055902Y0028905D01*
X0055740Y0028958D01*
X0055579Y0029015D01*
X0055420Y0029076D01*
X0055262Y0029141D01*
X0055106Y0029209D01*
X0054952Y0029282D01*
X0054799Y0029358D01*
X0054649Y0029437D01*
X0054500Y0029521D01*
X0054353Y0029608D01*
X0054209Y0029698D01*
X0054067Y0029792D01*
X0053927Y0029890D01*
X0053790Y0029991D01*
X0053655Y0030095D01*
X0053522Y0030202D01*
X0053393Y0030313D01*
X0053266Y0030427D01*
X0053141Y0030544D01*
X0053020Y0030663D01*
X0052902Y0030786D01*
X0052787Y0030912D01*
X0052674Y0031040D01*
X0052565Y0031171D01*
X0052460Y0031305D01*
X0052357Y0031441D01*
X0052258Y0031580D01*
X0052162Y0031721D01*
X0052070Y0031864D01*
X0051981Y0032009D01*
X0051896Y0032157D01*
X0051814Y0032307D01*
X0051736Y0032458D01*
X0051662Y0032612D01*
X0051591Y0032767D01*
X0051525Y0032924D01*
X0051462Y0033082D01*
X0051403Y0033242D01*
X0051348Y0033404D01*
X0051297Y0033566D01*
X0051250Y0033730D01*
X0051207Y0033895D01*
X0051167Y0034061D01*
X0051132Y0034228D01*
X0051101Y0034395D01*
X0051075Y0034564D01*
X0051052Y0034733D01*
X0051033Y0034902D01*
X0051019Y0035072D01*
X0051008Y0035242D01*
X0051002Y0035413D01*
X0051000Y0035583D01*
X0051000Y0062583D01*
X0051002Y0062753D01*
X0051008Y0062924D01*
X0051019Y0063094D01*
X0051033Y0063264D01*
X0051052Y0063433D01*
X0051075Y0063602D01*
X0051101Y0063771D01*
X0051132Y0063938D01*
X0051167Y0064105D01*
X0051207Y0064271D01*
X0051250Y0064436D01*
X0051297Y0064600D01*
X0051348Y0064762D01*
X0051403Y0064924D01*
X0051462Y0065084D01*
X0051525Y0065242D01*
X0051591Y0065399D01*
X0051662Y0065554D01*
X0051736Y0065708D01*
X0051814Y0065859D01*
X0051896Y0066009D01*
X0051981Y0066157D01*
X0052070Y0066302D01*
X0052162Y0066445D01*
X0052258Y0066586D01*
X0052357Y0066725D01*
X0052460Y0066861D01*
X0052565Y0066995D01*
X0052674Y0067126D01*
X0052787Y0067254D01*
X0052902Y0067380D01*
X0053020Y0067503D01*
X0053141Y0067622D01*
X0053266Y0067739D01*
X0053393Y0067853D01*
X0053522Y0067964D01*
X0053655Y0068071D01*
X0053790Y0068175D01*
X0053927Y0068276D01*
X0054067Y0068374D01*
X0054209Y0068468D01*
X0054353Y0068558D01*
X0054500Y0068645D01*
X0054649Y0068729D01*
X0054799Y0068808D01*
X0054952Y0068884D01*
X0055106Y0068957D01*
X0055262Y0069025D01*
X0055420Y0069090D01*
X0055579Y0069151D01*
X0055740Y0069208D01*
X0055902Y0069261D01*
X0056065Y0069310D01*
X0056229Y0069355D01*
X0056395Y0069396D01*
X0056561Y0069434D01*
X0056729Y0069467D01*
X0056897Y0069495D01*
X0057065Y0069520D01*
X0057234Y0069541D01*
X0057404Y0069558D01*
X0057574Y0069570D01*
X0057744Y0069578D01*
X0057915Y0069582D01*
X0058085Y0069582D01*
X0058256Y0069578D01*
X0058426Y0069570D01*
X0058596Y0069558D01*
X0058766Y0069541D01*
X0058935Y0069520D01*
X0059103Y0069495D01*
X0059271Y0069467D01*
X0059439Y0069434D01*
X0059605Y0069396D01*
X0059771Y0069355D01*
X0059935Y0069310D01*
X0060098Y0069261D01*
X0060260Y0069208D01*
X0060421Y0069151D01*
X0060580Y0069090D01*
X0060738Y0069025D01*
X0060894Y0068957D01*
X0061048Y0068884D01*
X0061201Y0068808D01*
X0061351Y0068729D01*
X0061500Y0068645D01*
X0061647Y0068558D01*
X0061791Y0068468D01*
X0061933Y0068374D01*
X0062073Y0068276D01*
X0062210Y0068175D01*
X0062345Y0068071D01*
X0062478Y0067964D01*
X0062607Y0067853D01*
X0062734Y0067739D01*
X0062859Y0067622D01*
X0062980Y0067503D01*
X0063098Y0067380D01*
X0063213Y0067254D01*
X0063326Y0067126D01*
X0063435Y0066995D01*
X0063540Y0066861D01*
X0063643Y0066725D01*
X0063742Y0066586D01*
X0063838Y0066445D01*
X0063930Y0066302D01*
X0064019Y0066157D01*
X0064104Y0066009D01*
X0064186Y0065859D01*
X0064264Y0065708D01*
X0064338Y0065554D01*
X0064409Y0065399D01*
X0064475Y0065242D01*
X0064538Y0065084D01*
X0064597Y0064924D01*
X0064652Y0064762D01*
X0064703Y0064600D01*
X0064750Y0064436D01*
X0064793Y0064271D01*
X0064833Y0064105D01*
X0064868Y0063938D01*
X0064899Y0063771D01*
X0064925Y0063602D01*
X0064948Y0063433D01*
X0064967Y0063264D01*
X0064981Y0063094D01*
X0064992Y0062924D01*
X0064998Y0062753D01*
X0065000Y0062583D01*
D19*
X0086602Y0048177D02*
X0086602Y0082823D01*
X0088177Y0084398D01*
X0122823Y0084398D01*
X0124398Y0082823D01*
X0124398Y0048177D01*
X0122823Y0046602D01*
X0088177Y0046602D01*
X0086602Y0048177D01*
M02*
