%
M48
M72
T01C0.01575
T02C0.01969
T03C0.02362
T04C0.02756
T05C0.03150
T06C0.03200
T07C0.03600
T08C0.03937
T09C0.04724
T10C0.05118
T11C0.07087
T12C0.07874
T13C0.09291
%
T01
X43500Y16000
X83500Y18500
X17500Y77000
X41000Y102000
X17500Y116000
X30500Y175000
X15000Y190500
X61000Y189000
X20500Y230500
X121500Y234000
X207000Y192000
X235000Y192000
X226000Y215000
X247500Y214500
X272500Y213500
X292000Y209500
X330500Y210500
X349500Y210000
X292000Y165500
X253000Y158000
X218500Y140000
X169000Y157000
X138500Y151000
X161500Y133000
X140000Y88000
X192000Y61500
X303500Y134500
X340000Y153000
X346000Y109000
X315000Y92000
X289000Y254000
T02
X58000Y59083
X58000Y39083
T03
X37000Y39000
X27000Y39000
X27000Y59000
X37000Y59000
X41500Y81000
X61500Y81000
X76500Y95500
X76500Y115500
X46500Y137500
X26500Y137500
X106000Y79500
X129000Y100500
X119000Y104500
X150500Y62024
X170500Y62024
X188000Y83500
X197500Y80500
X114000Y54500
X108500Y54500
X103000Y54500
X97500Y54500
X92000Y53000
X317535Y187665
X323047Y175854
X326197Y199476
X303000Y231000
X283000Y231000
X159000Y233500
X139000Y233500
X79000Y243500
T04
X84000Y163000
X102500Y162732
X102500Y122732
X44000Y163000
X225000Y231000
X225000Y245500
X265000Y245500
X265000Y231000
T05
X129000Y195500
X119000Y195500
X109000Y195500
X99000Y195500
X89000Y195500
X55362Y218461
X45362Y222476
X55362Y226492
X45362Y230508
X55362Y234524
X45362Y238539
X55362Y242555
X84000Y243500
X84000Y233500
X84000Y253500
X45362Y214445
X210528Y67024
X220528Y67024
X230528Y67024
X240528Y67024
X250528Y67024
X260528Y67024
X270528Y67024
X280528Y67024
X290528Y67024
X300528Y67024
X310528Y67024
X320528Y67024
X330528Y67024
X340528Y67024
X350528Y67024
X350528Y57024
X340528Y57024
X330528Y57024
X320528Y57024
X310528Y57024
X300528Y57024
X290528Y57024
X280528Y57024
X270528Y57024
X260528Y57024
X250528Y57024
X240528Y57024
X230528Y57024
X220528Y57024
X210528Y57024
T06
X209248Y223500
X209248Y233500
X209248Y243500
X209248Y253500
X177752Y253500
X177752Y243500
X177752Y233500
X177752Y223500
T07
X84000Y137500
X74000Y137500
T08
X327772Y230185
X327772Y243177
T09
X259988Y192000
X171012Y192000
T10
X326197Y258925
T11
X355724Y245146
X349819Y187665
X328165Y187665
T12
X14000Y15732
X14000Y156732
X288500Y144232
X350500Y88732
T13
X36307Y198972
X36307Y258028
M30
